<svg id="Group_73150" data-name="Group 73150" xmlns="http://www.w3.org/2000/svg" width="74" height="74" viewBox="0 0 74 74">
  <circle id="Ellipse_635" data-name="Ellipse 635" cx="37" cy="37" r="37" fill="#eec9ff"/>
  <g id="Group_73409" data-name="Group 73409" transform="translate(16.178 -42.39)">
    <g id="Group_73409-2" data-name="Group 73409" transform="translate(5.432 69.432)">
      <path id="Path_23435" data-name="Path 23435" d="M64.905,147.916a.905.905,0,0,1-.905-.905V128.905a.905.905,0,1,1,1.811,0v18.106A.905.905,0,0,1,64.905,147.916Z" transform="translate(-64 -128)" fill="#5a5a5a"/>
      <path id="Path_23436" data-name="Path 23436" d="M107.571,144.3a.905.905,0,0,1-.905-.905V128.905a.905.905,0,1,1,1.811,0V143.39A.905.905,0,0,1,107.571,144.3Z" transform="translate(-103.045 -128)" fill="#5a5a5a"/>
      <path id="Path_23437" data-name="Path 23437" d="M150.238,144.3a.905.905,0,0,1-.905-.905V128.905a.905.905,0,1,1,1.811,0V143.39A.905.905,0,0,1,150.238,144.3Z" transform="translate(-142.091 -128)" fill="#5a5a5a"/>
      <path id="Path_23438" data-name="Path 23438" d="M192.905,144.3a.905.905,0,0,1-.905-.905V128.905a.905.905,0,1,1,1.811,0V143.39A.905.905,0,0,1,192.905,144.3Z" transform="translate(-181.137 -128)" fill="#5a5a5a"/>
      <path id="Path_23439" data-name="Path 23439" d="M235.571,147.916a.905.905,0,0,1-.905-.905V128.905a.905.905,0,1,1,1.811,0v18.106A.905.905,0,0,1,235.571,147.916Z" transform="translate(-220.181 -128)" fill="#5a5a5a"/>
      <path id="Path_23440" data-name="Path 23440" d="M278.238,144.3a.905.905,0,0,1-.905-.905V128.905a.905.905,0,1,1,1.811,0V143.39A.905.905,0,0,1,278.238,144.3Z" transform="translate(-259.227 -128)" fill="#5a5a5a"/>
      <path id="Path_23441" data-name="Path 23441" d="M320.905,144.3a.905.905,0,0,1-.905-.905V128.905a.905.905,0,1,1,1.811,0V143.39A.905.905,0,0,1,320.905,144.3Z" transform="translate(-298.273 -128)" fill="#5a5a5a"/>
      <path id="Path_23442" data-name="Path 23442" d="M363.571,144.3a.905.905,0,0,1-.905-.905V128.905a.905.905,0,1,1,1.811,0V143.39A.905.905,0,0,1,363.571,144.3Z" transform="translate(-337.318 -128)" fill="#5a5a5a"/>
      <path id="Path_23443" data-name="Path 23443" d="M406.238,147.916a.905.905,0,0,1-.905-.905V128.905a.905.905,0,1,1,1.811,0v18.106A.905.905,0,0,1,406.238,147.916Z" transform="translate(-376.364 -128)" fill="#5a5a5a"/>
      <path id="Path_23444" data-name="Path 23444" d="M107.569,343.2a.734.734,0,0,1-.344-.072.641.641,0,0,1-.29-.2.874.874,0,0,1-.031-1.236l.031-.031a.64.64,0,0,1,.29-.2.894.894,0,0,1,.978.2.905.905,0,0,1-.634,1.539Z" transform="translate(-103.043 -323.282)" fill="#5a5a5a"/>
      <path id="Path_23445" data-name="Path 23445" d="M150.236,343.184a.734.734,0,0,1-.344-.072.641.641,0,0,1-.29-.2.874.874,0,0,1-.031-1.236l.031-.031a.639.639,0,0,1,.29-.2.887.887,0,0,1,.978.2.641.641,0,0,1,.2.29.853.853,0,0,1,0,.688.634.634,0,0,1-.2.29A.848.848,0,0,1,150.236,343.184Z" transform="translate(-142.088 -323.267)" fill="#5a5a5a"/>
      <path id="Path_23446" data-name="Path 23446" d="M192.9,343.184a.734.734,0,0,1-.344-.072.641.641,0,0,1-.29-.2.874.874,0,0,1-.031-1.236l.031-.031a.639.639,0,0,1,.29-.2.887.887,0,0,1,.978.2.641.641,0,0,1,.2.29.853.853,0,0,1,0,.688.633.633,0,0,1-.2.29A.848.848,0,0,1,192.9,343.184Z" transform="translate(-181.134 -323.267)" fill="#5a5a5a"/>
      <path id="Path_23447" data-name="Path 23447" d="M278.376,343.283a.9.9,0,1,1,.634-1.539.642.642,0,0,1,.2.29.853.853,0,0,1,0,.688.633.633,0,0,1-.2.29A.847.847,0,0,1,278.376,343.283Z" transform="translate(-259.365 -323.367)" fill="#5a5a5a"/>
      <path id="Path_23448" data-name="Path 23448" d="M321.043,343.282a.905.905,0,1,1,.621-.259A.905.905,0,0,1,321.043,343.282Z" transform="translate(-298.41 -323.366)" fill="#5a5a5a"/>
      <path id="Path_23449" data-name="Path 23449" d="M363.571,343.282a.847.847,0,0,1-.634-.272.632.632,0,0,1-.2-.29.853.853,0,0,1,0-.688.64.64,0,0,1,.2-.29.9.9,0,1,1,.634,1.539Z" transform="translate(-337.318 -323.366)" fill="#5a5a5a"/>
    </g>
    <g id="Group_73410" data-name="Group 73410" transform="translate(0 64)">
      <path id="Path_23450" data-name="Path 23450" d="M.905,71.242A.905.905,0,0,1,0,70.337V64.905A.905.905,0,0,1,.905,64H6.337a.905.905,0,0,1,0,1.811H1.811v4.526A.905.905,0,0,1,.905,71.242Z" transform="translate(0 -64)" fill="#5a5a5a"/>
      <path id="Path_23451" data-name="Path 23451" d="M6.337,348.575H.905A.905.905,0,0,1,0,347.67v-5.432a.905.905,0,1,1,1.811,0v4.526H6.337a.905.905,0,0,1,0,1.811Z" transform="translate(0 -317.796)" fill="#5a5a5a"/>
      <path id="Path_23452" data-name="Path 23452" d="M411.67,71.242a.905.905,0,0,1-.905-.905V65.811h-4.526a.905.905,0,1,1,0-1.811h5.432a.905.905,0,0,1,.905.905v5.432A.905.905,0,0,1,411.67,71.242Z" transform="translate(-370.932 -64)" fill="#5a5a5a"/>
      <path id="Path_23453" data-name="Path 23453" d="M411.67,348.575h-5.432a.905.905,0,1,1,0-1.811h4.526v-4.526a.905.905,0,0,1,1.811,0v5.432A.905.905,0,0,1,411.67,348.575Z" transform="translate(-370.932 -317.796)" fill="#5a5a5a"/>
    </g>
    <path id="Path_23454" data-name="Path 23454" d="M64.905,147.916a.905.905,0,0,1-.905-.905V128.905a.905.905,0,1,1,1.811,0v18.106A.905.905,0,0,1,64.905,147.916Z" transform="translate(-58.568 -58.568)" fill="#5a5a5a"/>
    <path id="Path_23455" data-name="Path 23455" d="M107.571,144.3a.905.905,0,0,1-.905-.905V128.905a.905.905,0,1,1,1.811,0V143.39A.905.905,0,0,1,107.571,144.3Z" transform="translate(-97.613 -58.568)" fill="#5a5a5a"/>
    <path id="Path_23456" data-name="Path 23456" d="M150.238,144.3a.905.905,0,0,1-.905-.905V128.905a.905.905,0,1,1,1.811,0V143.39A.905.905,0,0,1,150.238,144.3Z" transform="translate(-136.659 -58.568)" fill="#5a5a5a"/>
    <path id="Path_23457" data-name="Path 23457" d="M192.905,144.3a.905.905,0,0,1-.905-.905V128.905a.905.905,0,1,1,1.811,0V143.39A.905.905,0,0,1,192.905,144.3Z" transform="translate(-175.705 -58.568)" fill="#5a5a5a"/>
    <path id="Path_23458" data-name="Path 23458" d="M235.571,147.916a.905.905,0,0,1-.905-.905V128.905a.905.905,0,1,1,1.811,0v18.106A.905.905,0,0,1,235.571,147.916Z" transform="translate(-214.75 -58.568)" fill="#5a5a5a"/>
    <path id="Path_23459" data-name="Path 23459" d="M278.238,144.3a.905.905,0,0,1-.905-.905V128.905a.905.905,0,1,1,1.811,0V143.39A.905.905,0,0,1,278.238,144.3Z" transform="translate(-253.796 -58.568)" fill="#5a5a5a"/>
    <path id="Path_23460" data-name="Path 23460" d="M320.905,144.3a.905.905,0,0,1-.905-.905V128.905a.905.905,0,1,1,1.811,0V143.39A.905.905,0,0,1,320.905,144.3Z" transform="translate(-292.841 -58.568)" fill="#5a5a5a"/>
    <path id="Path_23461" data-name="Path 23461" d="M363.571,144.3a.905.905,0,0,1-.905-.905V128.905a.905.905,0,1,1,1.811,0V143.39A.905.905,0,0,1,363.571,144.3Z" transform="translate(-331.886 -58.568)" fill="#5a5a5a"/>
    <path id="Path_23462" data-name="Path 23462" d="M406.238,147.916a.905.905,0,0,1-.905-.905V128.905a.905.905,0,1,1,1.811,0v18.106A.905.905,0,0,1,406.238,147.916Z" transform="translate(-370.932 -58.568)" fill="#5a5a5a"/>
    <path id="Path_23463" data-name="Path 23463" d="M107.578,343.193a.744.744,0,0,1-.344-.072.646.646,0,0,1-.29-.2.876.876,0,0,1-.028-1.239l.028-.028a.645.645,0,0,1,.29-.2.905.905,0,0,1,.688,0,.635.635,0,0,1,.29.2.905.905,0,0,1-.634,1.539Z" transform="translate(-97.62 -253.845)" fill="#5a5a5a"/>
    <path id="Path_23464" data-name="Path 23464" d="M150.357,343.176a.905.905,0,0,1-.636-1.539.884.884,0,0,1,.978-.2.635.635,0,0,1,.29.2.905.905,0,0,1-.632,1.539Z" transform="translate(-136.777 -253.828)" fill="#5a5a5a"/>
    <path id="Path_23465" data-name="Path 23465" d="M193.024,343.2a.905.905,0,0,1-.635-1.539.645.645,0,0,1,.29-.2.894.894,0,0,1,.978.2.905.905,0,0,1-.634,1.539h0Z" transform="translate(-175.823 -253.849)" fill="#5a5a5a"/>
    <path id="Path_23466" data-name="Path 23466" d="M278.245,343.193a.794.794,0,0,1-.344-.072.646.646,0,0,1-.29-.2.876.876,0,0,1-.028-1.239l.028-.028a.645.645,0,0,1,.29-.2.905.905,0,0,1,.688,0,.635.635,0,0,1,.29.2.905.905,0,0,1-.634,1.539Z" transform="translate(-253.802 -253.845)" fill="#5a5a5a"/>
    <path id="Path_23467" data-name="Path 23467" d="M320.912,343.282a.793.793,0,0,1-.344-.072.646.646,0,0,1-.29-.2.876.876,0,0,1-.028-1.239l.028-.028a.905.905,0,0,1,1.267,0,.873.873,0,0,1,.034,1.234l-.034.034a.637.637,0,0,1-.29.2A.787.787,0,0,1,320.912,343.282Z" transform="translate(-292.848 -253.934)" fill="#5a5a5a"/>
    <path id="Path_23468" data-name="Path 23468" d="M363.567,343.2a.794.794,0,0,1-.344-.072.646.646,0,0,1-.29-.2.849.849,0,0,1-.272-.634.724.724,0,0,1,.072-.344.637.637,0,0,1,.2-.29.645.645,0,0,1,.29-.2.894.894,0,0,1,.978.2.657.657,0,0,1,.2.29.724.724,0,0,1,.072.344.931.931,0,0,1-.905.905Z" transform="translate(-331.882 -253.85)" fill="#5a5a5a"/>
    <path id="Path_23469" data-name="Path 23469" d="M.905,71.242A.905.905,0,0,1,0,70.337V64.905A.905.905,0,0,1,.905,64H6.337a.905.905,0,0,1,0,1.811H1.811v4.526A.905.905,0,0,1,.905,71.242Z" fill="#5a5a5a"/>
    <path id="Path_23470" data-name="Path 23470" d="M6.337,348.575H.905A.905.905,0,0,1,0,347.67v-5.432a.905.905,0,1,1,1.811,0v4.526H6.337a.905.905,0,0,1,0,1.811Z" transform="translate(0 -253.796)" fill="#5a5a5a"/>
    <path id="Path_23471" data-name="Path 23471" d="M411.67,71.242a.905.905,0,0,1-.905-.905V65.811h-4.526a.905.905,0,1,1,0-1.811h5.432a.905.905,0,0,1,.905.905v5.432A.905.905,0,0,1,411.67,71.242Z" transform="translate(-370.932)" fill="#5a5a5a"/>
    <path id="Path_23472" data-name="Path 23472" d="M411.67,348.575h-5.432a.905.905,0,1,1,0-1.811h4.526v-4.526a.905.905,0,0,1,1.811,0v5.432A.905.905,0,0,1,411.67,348.575Z" transform="translate(-370.932 -253.796)" fill="#5a5a5a"/>
  </g>
</svg>
