<svg xmlns="http://www.w3.org/2000/svg" width="74" height="74" viewBox="0 0 74 74">
  <g id="Group_73154" data-name="Group 73154" transform="translate(0)">
    <circle id="Ellipse_635" data-name="Ellipse 635" cx="37" cy="37" r="37" transform="translate(0)" fill="#8ae4f6"/>
    <g id="Group_73412" data-name="Group 73412" transform="translate(3.026 16.026)">
      <g id="Group_73411" data-name="Group 73411" transform="translate(16.162 0)">
        <circle id="Ellipse_1094" data-name="Ellipse 1094" cx="0.628" cy="0.628" r="0.628" transform="translate(17.698 29.19)" fill="#5a5a5a"/>
        <path id="Path_23480" data-name="Path 23480" d="M54.188,144.057a.614.614,0,0,0-.614-.614H49.1a.614.614,0,0,0,0,1.229h4.469A.614.614,0,0,0,54.188,144.057Z" transform="translate(-45.841 -131.691)" fill="#5a5a5a"/>
        <path id="Path_23481" data-name="Path 23481" d="M49.1,175.769a.614.614,0,1,0,0,1.229h2.814a.614.614,0,1,0,0-1.229Z" transform="translate(-45.841 -161.368)" fill="#5a5a5a"/>
        <path id="Path_23482" data-name="Path 23482" d="M331.948,143.443a.614.614,0,0,0-.614.614v2.648a.614.614,0,0,0,.614.614H338.9a.614.614,0,0,0,.615-.614v-2.648a.614.614,0,0,0-.615-.614Zm6.338,2.648h-5.723v-1.419h5.723Z" transform="translate(-305.512 -131.691)" fill="#5a5a5a"/>
        <path id="Path_23483" data-name="Path 23483" d="M16.776,33.581a.614.614,0,0,0,.614-.614V10.333H51.584v8.675a.614.614,0,1,0,1.229,0V3.1a.614.614,0,0,0-.614-.614h-2.53V1.939a1.939,1.939,0,0,0-3.877,0v.544H44.371V1.939a1.939,1.939,0,0,0-3.877,0v.544H39.075V1.939a1.939,1.939,0,0,0-3.877,0v.544H33.778V1.939a1.939,1.939,0,0,0-3.877,0v.544H28.481V1.939a1.939,1.939,0,0,0-3.877,0v.544H23.184V1.939a1.939,1.939,0,0,0-3.877,0v.544h-2.53a.614.614,0,0,0-.614.614V32.967a.614.614,0,0,0,.614.614ZM47.02,1.939a.71.71,0,0,1,1.419,0V4.256a.71.71,0,0,1-1.419,0Zm-5.3,0a.71.71,0,0,1,1.419,0V4.256a.71.71,0,0,1-1.419,0Zm-5.3,0a.71.71,0,0,1,1.419,0V4.256a.711.711,0,0,1-.71.71h0a.71.71,0,0,1-.71-.71Zm-5.3,0a.71.71,0,0,1,1.419,0V4.256a.71.71,0,0,1-.71.71h0a.711.711,0,0,1-.71-.71Zm-5.3,0a.71.71,0,0,1,1.419,0V4.256a.71.71,0,0,1-1.419,0Zm-5.3,0a.71.71,0,0,1,1.419,0V4.256a.71.71,0,0,1-1.419,0ZM17.391,3.712h1.916v.544a1.939,1.939,0,0,0,3.877,0V3.712H24.6v.544a1.939,1.939,0,0,0,3.877,0V3.712H29.9v.544a1.939,1.939,0,0,0,3.877,0V3.712H35.2v.544a1.939,1.939,0,0,0,3.877,0V3.712h1.419v.544a1.939,1.939,0,0,0,3.877,0V3.712h1.419v.544a1.939,1.939,0,0,0,3.877,0V3.712h1.916V9.1H17.391Z" transform="translate(-16.162 0)" fill="#5a5a5a"/>
        <path id="Path_23484" data-name="Path 23484" d="M52.813,188.445v-7.551a.614.614,0,0,0-1.229,0v6.492a9.286,9.286,0,0,0-10.26-.395l-6.318-9.927a.614.614,0,0,0-1.037,0l-5.581,8.78a.614.614,0,0,0,1.037.66l5.063-7.966,5.831,9.162a9.291,9.291,0,0,0-3.466,7.239c0,.016,0,.031,0,.047H24.02l5.737-9.014a.614.614,0,0,0-1.037-.66l-6.338,9.958a.615.615,0,0,0,.518.944H36.94a9.254,9.254,0,0,0,1.663,4.151H17.391v-5.513a.614.614,0,1,0-1.229,0v6.127a.614.614,0,0,0,.614.614H39.662a9.3,9.3,0,0,0,13.15-13.15Zm-6.656,14.57a8.075,8.075,0,1,1,8.075-8.075A8.085,8.085,0,0,1,46.157,203.015Z" transform="translate(-16.162 -162.297)" fill="#5a5a5a"/>
        <path id="Path_23485" data-name="Path 23485" d="M307.686,317.191a6.656,6.656,0,1,0,6.656,6.656A6.664,6.664,0,0,0,307.686,317.191Zm0,12.083a5.427,5.427,0,1,1,5.427-5.427A5.433,5.433,0,0,1,307.686,329.274Z" transform="translate(-277.691 -291.204)" fill="#5a5a5a"/>
        <path id="Path_23486" data-name="Path 23486" d="M337.363,350.746a2.76,2.76,0,0,1,1.964.815.614.614,0,0,0,.869-.869,4.008,4.008,0,1,0,0,5.666.614.614,0,1,0-.869-.869,2.778,2.778,0,1,1-1.964-4.743Z" transform="translate(-307.368 -320.881)" fill="#5a5a5a"/>
        <path id="Path_23487" data-name="Path 23487" d="M233.065,255.1a.614.614,0,0,0,.614-.614V248.1a.614.614,0,1,0-1.229,0v6.38A.614.614,0,0,0,233.065,255.1Z" transform="translate(-214.731 -227.213)" fill="#5a5a5a"/>
      </g>
    </g>
  </g>
</svg>
