<svg xmlns="http://www.w3.org/2000/svg" width="74" height="74" viewBox="0 0 74 74">
  <g id="Group_73154" data-name="Group 73154" transform="translate(0)">
    <circle id="Ellipse_635" data-name="Ellipse 635" cx="37" cy="37" r="37" transform="translate(0)" fill="#8ae4f6"/>
    <g id="Group_73494" data-name="Group 73494" transform="translate(17.713 17.713)">
      <path id="Path_23555" data-name="Path 23555" d="M15.625,21.1a.565.565,0,0,0-.565-.565H2.377A1.248,1.248,0,0,1,1.13,19.287V2.377A1.248,1.248,0,0,1,2.377,1.13h16.91a1.248,1.248,0,0,1,1.247,1.247V15.059a.565.565,0,0,0,1.13,0V2.377A2.379,2.379,0,0,0,19.287,0H2.377A2.379,2.379,0,0,0,0,2.377v16.91a2.379,2.379,0,0,0,2.377,2.377H15.059A.565.565,0,0,0,15.625,21.1Z" fill="#5a5a5a"/>
      <path id="Path_23556" data-name="Path 23556" d="M243.739,224.452h-4.831a.565.565,0,1,0,0,1.13h4.831a1.248,1.248,0,0,1,1.247,1.247v16.91a1.248,1.248,0,0,1-1.247,1.247h-16.91a1.248,1.248,0,0,1-1.247-1.247v-16.91a1.248,1.248,0,0,1,1.247-1.247h9.663a.565.565,0,0,0,0-1.13h-9.663a2.379,2.379,0,0,0-2.377,2.377v16.91a2.38,2.38,0,0,0,2.377,2.377h16.91a2.38,2.38,0,0,0,2.377-2.377v-16.91A2.38,2.38,0,0,0,243.739,224.452Z" transform="translate(-207.542 -207.542)" fill="#5a5a5a"/>
      <path id="Path_23557" data-name="Path 23557" d="M75.565,65.337h-4.87v-.643a.565.565,0,1,0-1.13,0v.643h-4.87a.565.565,0,0,0,0,1.13h8.321a15.768,15.768,0,0,1-2.888,5.257,15.906,15.906,0,0,1-2.269-3.641.565.565,0,1,0-1.031.463,17.029,17.029,0,0,0,2.539,4.029,15.287,15.287,0,0,1-3.15,2.5.565.565,0,1,0,.581.969,16.442,16.442,0,0,0,3.33-2.637,16.465,16.465,0,0,0,3.336,2.637.565.565,0,0,0,.581-.969,15.335,15.335,0,0,1-3.155-2.506,16.988,16.988,0,0,0,2-2.932,15.684,15.684,0,0,0,1.3-3.175h1.37a.565.565,0,1,0,0-1.13Z" transform="translate(-59.298 -59.298)" fill="#5a5a5a"/>
      <path id="Path_23558" data-name="Path 23558" d="M309.389,289.083a.809.809,0,0,0-.75-.5h0a.809.809,0,0,0-.75.5l-.005.013L303.8,299.815a.565.565,0,1,0,1.056.4l.878-2.305h5.779l.869,2.3a.565.565,0,0,0,1.057-.4L309.395,289.1Zm-3.224,7.7,2.472-6.491,2.45,6.491Z" transform="translate(-280.877 -266.838)" fill="#5a5a5a"/>
      <path id="Path_23559" data-name="Path 23559" d="M96.932,312.581l-2.416-1.812a.565.565,0,1,0-.678.9l1.06.795H92.97a3.667,3.667,0,0,1-3.663-3.663v-3.623a.565.565,0,0,0-1.13,0v3.623A4.8,4.8,0,0,0,92.97,313.6H94.9l-1.06.795a.565.565,0,1,0,.678.9l2.416-1.812a.565.565,0,0,0,0-.9Z" transform="translate(-81.534 -281.667)" fill="#5a5a5a"/>
      <path id="Path_23560" data-name="Path 23560" d="M304.839,66.958l2.416,1.812a.565.565,0,1,0,.678-.9l-1.06-.795H308.8a3.667,3.667,0,0,1,3.662,3.663v3.623a.565.565,0,0,0,1.13,0V70.733A4.8,4.8,0,0,0,308.8,65.94h-1.928l1.06-.795a.565.565,0,1,0-.678-.9l-2.416,1.812a.565.565,0,0,0,0,.9Z" transform="translate(-281.663 -59.297)" fill="#5a5a5a"/>
    </g>
  </g>
</svg>
