<svg id="Group_73153" data-name="Group 73153" xmlns="http://www.w3.org/2000/svg" width="74" height="74" viewBox="0 0 74 74">
  <circle id="Ellipse_635" data-name="Ellipse 635" cx="37" cy="37" r="37" fill="#f8d378"/>
  <g id="XMLID_1_" transform="translate(20.402 20.402)">
    <path id="Path_23529" data-name="Path 23529" d="M23.692,11.5a.692.692,0,0,1,0,1.383H23V11.5Z" transform="translate(8.812 4.406)" fill="#5a5a5a"/>
    <path id="Path_23530" data-name="Path 23530" d="M12.5,11.5H27.023v1.383H12.5Z" transform="translate(4.789 4.406)" fill="#5a5a5a"/>
    <path id="Path_23531" data-name="Path 23531" d="M25.14,28.6H12a.685.685,0,0,0,.692-.692v-.692H25.14a2.072,2.072,0,0,0,2.075-2.075V12.692h.692A.685.685,0,0,0,28.6,12V25.14A3.459,3.459,0,0,1,25.14,28.6Z" transform="translate(4.598 4.598)" fill="#5a5a5a"/>
    <path id="Path_23532" data-name="Path 23532" d="M28.6,3.458V16.6a.685.685,0,0,0-.692-.692h-.692V3.458A2.072,2.072,0,0,0,25.14,1.383H12.692V.692A.685.685,0,0,0,12,0H25.14A3.459,3.459,0,0,1,28.6,3.458Z" transform="translate(4.598)" fill="#5a5a5a"/>
    <path id="Path_23533" data-name="Path 23533" d="M21.724,6a.692.692,0,0,1,0,1.383H16.192a.692.692,0,0,1,0-1.383Z" transform="translate(5.939 2.299)" fill="#5a5a5a"/>
    <path id="Path_23534" data-name="Path 23534" d="M21.724,16a.692.692,0,0,1,0,1.383H16.192a.692.692,0,0,1,0-1.383Z" transform="translate(5.939 6.13)" fill="#5a5a5a"/>
    <path id="Path_23535" data-name="Path 23535" d="M21.724,19a.692.692,0,0,1,0,1.383H16.192a.692.692,0,0,1,0-1.383Z" transform="translate(5.939 7.28)" fill="#5a5a5a"/>
    <path id="Path_23536" data-name="Path 23536" d="M12.883,23v.692a.692.692,0,0,1-1.383,0V23Z" transform="translate(4.406 8.812)" fill="#5a5a5a"/>
    <path id="Path_23537" data-name="Path 23537" d="M11.5,12.5h1.383V27.023H11.5Z" transform="translate(4.406 4.789)" fill="#5a5a5a"/>
    <path id="Path_23538" data-name="Path 23538" d="M11.5,11.5h1.383v1.383H11.5Z" transform="translate(4.406 4.406)" fill="#5a5a5a"/>
    <path id="Path_23539" data-name="Path 23539" d="M11.5,1h1.383V15.523H11.5Z" transform="translate(4.406 0.383)" fill="#5a5a5a"/>
    <path id="Path_23540" data-name="Path 23540" d="M12.883.692v.692H11.5V.692a.692.692,0,0,1,1.383,0Z" transform="translate(4.406)" fill="#5a5a5a"/>
    <path id="Path_23541" data-name="Path 23541" d="M1,11.5H15.523v1.383H1Z" transform="translate(0.383 4.406)" fill="#5a5a5a"/>
    <path id="Path_23542" data-name="Path 23542" d="M8.575,6a.692.692,0,0,1,0,1.383H6.5V6Z" transform="translate(2.49 2.299)" fill="#5a5a5a"/>
    <path id="Path_23543" data-name="Path 23543" d="M8.559,19.591a.669.669,0,0,1,0,.968.669.669,0,0,1-.968,0L6,18.968,6.968,18Z" transform="translate(2.299 6.896)" fill="#5a5a5a"/>
    <path id="Path_23544" data-name="Path 23544" d="M7.591,16.207a.685.685,0,0,1,.968.968L6.968,18.766,6,17.8Z" transform="translate(2.299 6.13)" fill="#5a5a5a"/>
    <path id="Path_23545" data-name="Path 23545" d="M0,0H1.369V1.369H0Z" transform="translate(7.327 24.895) rotate(-45)" fill="#5a5a5a"/>
    <path id="Path_23546" data-name="Path 23546" d="M6.883,7V9.075a.692.692,0,0,1-1.383,0V7Z" transform="translate(2.107 2.682)" fill="#5a5a5a"/>
    <path id="Path_23547" data-name="Path 23547" d="M5.5,6H6.883V7.383H5.5Z" transform="translate(2.107 2.299)" fill="#5a5a5a"/>
    <path id="Path_23548" data-name="Path 23548" d="M6.883,4.692V6.766H5.5V4.692a.692.692,0,0,1,1.383,0Z" transform="translate(2.107 1.533)" fill="#5a5a5a"/>
    <path id="Path_23549" data-name="Path 23549" d="M6.766,17.8l-.968.968L4.207,17.176a.685.685,0,0,1,.968-.968Z" transform="translate(1.533 6.13)" fill="#5a5a5a"/>
    <path id="Path_23550" data-name="Path 23550" d="M6.266,6V7.383H4.192A.692.692,0,0,1,4.192,6Z" transform="translate(1.341 2.299)" fill="#5a5a5a"/>
    <path id="Path_23551" data-name="Path 23551" d="M5.176,20.559a.669.669,0,0,1-.968,0,.669.669,0,0,1,0-.968L5.8,18l.968.968Z" transform="translate(1.533 6.896)" fill="#5a5a5a"/>
    <path id="Path_23552" data-name="Path 23552" d="M1.383,11.5v1.383H.692a.692.692,0,0,1,0-1.383Z" transform="translate(0 4.406)" fill="#5a5a5a"/>
    <path id="Path_23553" data-name="Path 23553" d="M0,3.458A3.459,3.459,0,0,1,3.458,0H16.6a.685.685,0,0,0-.692.692v.692H3.458A2.072,2.072,0,0,0,1.383,3.458V15.906H.692A.685.685,0,0,0,0,16.6Z" fill="#5a5a5a"/>
    <path id="Path_23554" data-name="Path 23554" d="M1.383,25.14a2.072,2.072,0,0,0,2.075,2.075H15.906v.692a.685.685,0,0,0,.692.692H3.458A3.459,3.459,0,0,1,0,25.14V12a.685.685,0,0,0,.692.692h.692Z" transform="translate(0 4.598)" fill="#5a5a5a"/>
  </g>
  <g id="Group_73493" data-name="Group 73493" transform="translate(-21360.488 -11780.489)">
    <g id="Ellipse_1098" data-name="Ellipse 1098" transform="translate(21372.488 11792.489)" fill="none" stroke="#5a5a5a" stroke-width="1.5">
      <circle cx="25.5" cy="25.5" r="25.5" stroke="none"/>
      <circle cx="25.5" cy="25.5" r="24.75" fill="none"/>
    </g>
    <line id="Line_786" data-name="Line 786" x1="33.633" y2="36.691" transform="translate(21381.172 11799.644)" fill="none" stroke="#5a5a5a" stroke-width="1.5"/>
  </g>
</svg>
