<svg width="75" height="75" viewBox="0 0 75 75" fill="none" xmlns="http://www.w3.org/2000/svg">
<g clip-path="url(#clip0_769_4798)">
<path d="M37.5 75C58.2107 75 75 58.2107 75 37.5C75 16.7893 58.2107 0 37.5 0C16.7893 0 0 16.7893 0 37.5C0 58.2107 16.7893 75 37.5 75Z" fill="#FFBA00"/>
<mask id="mask0_769_4798" style="mask-type:luminance" maskUnits="userSpaceOnUse" x="24" y="20" width="29" height="35">
<path d="M52.378 20H24V55H52.378V20Z" fill="white"/>
</mask>
<g mask="url(#mask0_769_4798)">
<path d="M29.0711 47.0982H24.6646V32.7015C24.6582 32.3862 24.7121 32.0726 24.8232 31.7775C24.9326 31.4866 25.0984 31.2202 25.3109 30.9935C25.5183 30.7718 25.7693 30.5954 26.0482 30.4755C26.3226 30.3577 26.6189 30.3 26.9174 30.3063C27.2159 30.3 27.5122 30.3577 27.7866 30.4755C28.062 30.5962 28.3098 30.7721 28.5146 30.9923C28.7271 31.2191 28.8928 31.4855 29.0022 31.7763C29.1134 32.0715 29.1673 32.3851 29.1609 32.7003V51.8967C29.1533 52.213 29.2064 52.5278 29.3172 52.8242C29.4259 53.1162 29.5912 53.3838 29.8037 53.6117C30.0113 53.8343 30.2627 54.0115 30.5422 54.132C30.8173 54.2502 31.1145 54.3079 31.4137 54.3012M31.4137 54.3012C31.714 54.3064 32.0119 54.2475 32.2876 54.1285C32.5677 54.0074 32.8199 53.8298 33.0284 53.607C33.2417 53.3791 33.4081 53.1115 33.5184 52.8195C33.6314 52.5216 33.6864 52.2048 33.6806 51.8862V20.7L35.9346 23.0952L38.1909 20.7L40.4577 23.0952L42.7106 20.7L44.9646 23.0952L47.2151 20.7L49.5542 23.0952L51.7219 20.7V51.9048C51.7283 52.2201 51.6744 52.5337 51.5632 52.8288C51.4538 53.1197 51.2881 53.3861 51.0756 53.6128C50.8681 53.8345 50.6171 54.0109 50.3382 54.1308C50.0639 54.2486 49.7675 54.3063 49.4691 54.3L31.4137 54.3012Z" stroke="#161717" stroke-width="1.5" stroke-linecap="round" stroke-linejoin="round"/>
<path d="M33.4587 30.3052L26.9102 30.2982" stroke="#161717" stroke-width="1.5" stroke-linecap="round" stroke-linejoin="round"/>
<path d="M40.1094 35.967H46.939" stroke="#161717" stroke-width="1.5" stroke-linecap="round" stroke-linejoin="round"/>
<path d="M44.6804 43.17L40.1677 38.3703C40.1677 38.3703 44.6804 38.5617 44.6804 36.0673C44.6804 33.573 40.1094 33.5707 40.1094 33.5707H46.939" stroke="#161717" stroke-width="1.5" stroke-linecap="round" stroke-linejoin="round"/>
</g>
</g>
<defs>
<clipPath id="clip0_769_4798">
<rect width="75" height="75" fill="white"/>
</clipPath>
</defs>
</svg>
