<svg width="75" height="75" viewBox="0 0 75 75" fill="none" xmlns="http://www.w3.org/2000/svg">
<path d="M37.5 75C58.2107 75 75 58.2107 75 37.5C75 16.7893 58.2107 0 37.5 0C16.7893 0 0 16.7893 0 37.5C0 58.2107 16.7893 75 37.5 75Z" fill="#4EEAC2"/>
<path d="M41.8491 46.5814C41.8321 46.5643 41.8142 46.5481 41.7954 46.5329C41.6512 46.4141 41.4679 46.3532 41.2812 46.3621C41.0945 46.3711 40.9178 46.4493 40.7856 46.5814L33.8824 53.4844C33.7413 53.6254 33.6621 53.8167 33.6621 54.0161C33.6621 54.2155 33.7413 54.4068 33.8823 54.5478C34.0234 54.6889 34.2146 54.7681 34.414 54.7681C34.6135 54.7681 34.8047 54.6889 34.9458 54.5479L41.3169 48.1768L47.9204 54.7803C48.0617 54.9198 48.2525 54.9976 48.451 54.997C48.6496 54.9963 48.8398 54.9171 48.9802 54.7767C49.1206 54.6363 49.1998 54.4461 49.2005 54.2475C49.2011 54.049 49.1232 53.8582 48.9838 53.7169L41.8491 46.5814Z" fill="#363636"/>
<path d="M45.2349 44.2592L51.838 37.6557C51.979 37.5146 52.0583 37.3234 52.0583 37.1239C52.0583 36.9245 51.9791 36.7332 51.838 36.5922C51.697 36.4512 51.5058 36.372 51.3063 36.372C51.1069 36.372 50.9156 36.4512 50.7746 36.5922L43.6397 43.7275C43.6304 43.7369 43.6216 43.7466 43.6132 43.7569C43.4843 43.8998 43.4152 44.0868 43.4202 44.2792C43.4251 44.4716 43.5037 44.6548 43.6397 44.7909L50.7746 51.9257C50.916 52.0652 51.1067 52.1431 51.3053 52.1424C51.5038 52.1418 51.6941 52.0626 51.8345 51.9222C51.9749 51.7818 52.054 51.5916 52.0547 51.393C52.0554 51.1944 51.9775 51.0037 51.838 50.8623L45.2349 44.2592Z" fill="#363636"/>
<path d="M43.0068 39.709C43.0057 39.7074 43.0043 39.7057 43.0031 39.704C42.9987 39.6983 42.9947 39.6924 42.99 39.6867C42.9746 39.6676 42.9581 39.6494 42.9407 39.6321L39.8218 36.5132C39.6808 36.3721 39.4895 36.2929 39.2901 36.2929C39.0907 36.2929 38.8994 36.3721 38.7584 36.5132C38.6173 36.6542 38.5381 36.8455 38.5381 37.0449C38.5381 37.2443 38.6173 37.4356 38.7584 37.5766L41.3456 40.1638L35.4077 46.1017L27.2333 37.9272L30.0583 35.1024C30.1993 34.9613 30.2785 34.7701 30.2785 34.5706C30.2785 34.3712 30.1992 34.1799 30.0582 34.0389C29.9172 33.8979 29.7259 33.8187 29.5265 33.8187C29.3271 33.8187 29.1358 33.8979 28.9948 34.039L26.1699 36.8638L24.2232 34.9171C24.0821 34.7761 23.8909 34.6969 23.6914 34.6969C23.492 34.6969 23.3007 34.7761 23.1597 34.9171C23.0187 35.0581 22.9395 35.2494 22.9395 35.4488C22.9395 35.6483 23.0187 35.8396 23.1597 35.9806L34.3443 47.1651L30.9541 50.5553C30.8843 50.6251 30.8289 50.708 30.7911 50.7992C30.7533 50.8905 30.7339 50.9883 30.7339 51.087C30.7339 51.1858 30.7533 51.2835 30.7911 51.3748C30.8289 51.466 30.8843 51.5489 30.9541 51.6187C31.0239 51.6886 31.1068 51.744 31.1981 51.7817C31.2893 51.8195 31.3871 51.839 31.4858 51.839C31.5846 51.839 31.6824 51.8195 31.7736 51.7817C31.8648 51.744 31.9477 51.6886 32.0176 51.6187L42.9405 40.6957C43.0691 40.567 43.1466 40.3962 43.1588 40.2147C43.171 40.0333 43.117 39.8536 43.0068 39.709Z" fill="#363636"/>
<path d="M44.8586 37.7137C44.9996 37.8547 45.1909 37.9339 45.3903 37.9339C45.5897 37.9339 45.781 37.8547 45.922 37.7137L48.9089 34.7269C48.9787 34.657 49.0341 34.5741 49.0719 34.4829C49.1097 34.3917 49.1292 34.2939 49.1292 34.1951C49.1292 34.0964 49.1097 33.9986 49.0719 33.9074C49.0341 33.8161 48.9787 33.7332 48.9089 33.6634C48.8391 33.5936 48.7562 33.5382 48.665 33.5004C48.5737 33.4626 48.4759 33.4431 48.3772 33.4431C48.2784 33.4431 48.1806 33.4626 48.0894 33.5004C47.9982 33.5382 47.9153 33.5936 47.8454 33.6634L45.3903 36.1186L42.8033 33.5314C42.7334 33.4616 42.6505 33.4062 42.5593 33.3684C42.4681 33.3306 42.3703 33.3111 42.2716 33.3111C42.1728 33.3111 42.075 33.3305 41.9838 33.3683C41.8926 33.4061 41.8097 33.4615 41.7398 33.5313C41.67 33.6011 41.6146 33.684 41.5768 33.7752C41.539 33.8665 41.5195 33.9642 41.5195 34.063C41.5195 34.1617 41.539 34.2595 41.5767 34.3508C41.6145 34.442 41.6699 34.5249 41.7397 34.5947L44.8586 37.7137Z" fill="#363636"/>
<path d="M33.994 36.5002C34.0906 36.5953 34.381 36.8811 34.8212 36.8811H34.8336C35.2739 36.8811 35.5643 36.5954 35.6607 36.5004L35.6782 36.4827C38.3215 33.705 43.2411 28.5347 40.5393 23.3936L40.5364 23.3882C39.4359 21.3351 37.2528 20.0368 34.8391 20H34.8277H34.8163C32.4024 20.0367 30.2194 21.3349 29.1161 23.3935C26.4143 28.5345 31.3338 33.7049 33.9765 36.4825L33.994 36.5002ZM30.4446 24.0986C31.2854 22.5297 32.9641 21.5363 34.8277 21.504C36.6901 21.5363 38.368 22.5286 39.2095 24.0959C41.1876 27.8646 38.0459 31.7857 34.8277 35.1944C31.6088 31.7852 28.4662 27.863 30.4446 24.0986Z" fill="#363636"/>
<path d="M38.4387 26.5663C38.4387 25.8523 38.227 25.1543 37.8304 24.5606C37.4337 23.967 36.8699 23.5042 36.2103 23.231C35.5506 22.9578 34.8248 22.8863 34.1245 23.0256C33.4242 23.1649 32.781 23.5087 32.2761 24.0135C31.7712 24.5184 31.4274 25.1617 31.2881 25.8619C31.1488 26.5622 31.2203 27.2881 31.4936 27.9477C31.7668 28.6073 32.2295 29.1712 32.8232 29.5678C33.4169 29.9645 34.1148 30.1762 34.8288 30.1762C35.7859 30.1751 36.7035 29.7944 37.3802 29.1177C38.057 28.4409 38.4376 27.5233 38.4387 26.5663ZM32.7227 26.5663C32.7227 26.1497 32.8462 25.7425 33.0776 25.3962C33.309 25.0498 33.638 24.7799 34.0228 24.6204C34.4076 24.461 34.8311 24.4193 35.2396 24.5006C35.6482 24.5818 36.0235 24.7824 36.318 25.0769C36.6126 25.3715 36.8132 25.7467 36.8944 26.1553C36.9757 26.5638 36.934 26.9873 36.7746 27.3721C36.6152 27.757 36.3452 28.0859 35.9989 28.3173C35.6525 28.5488 35.2454 28.6723 34.8288 28.6723C34.2704 28.6717 33.7351 28.4496 33.3403 28.0548C32.9455 27.6599 32.7234 27.1246 32.7227 26.5663Z" fill="#363636"/>
</svg>
