<svg xmlns="http://www.w3.org/2000/svg" width="74" height="74" viewBox="0 0 74 74">
  <g id="Group_73154" data-name="Group 73154" transform="translate(0.051 0)">
    <circle id="Ellipse_635" data-name="Ellipse 635" cx="37" cy="37" r="37" transform="translate(-0.051 0)" fill="#8ae4f6"/>
    <g id="Group_73172" data-name="Group 73172" transform="translate(16.886 16.937)">
      <path id="Path_23324" data-name="Path 23324" d="M32.93,32.063H4.508A2.511,2.511,0,0,1,2,29.555V12.836A.836.836,0,0,1,2.836,12H34.6a.836.836,0,0,1,.836.836V29.555A2.511,2.511,0,0,1,32.93,32.063ZM3.672,13.672V29.555a.838.838,0,0,0,.836.836H32.93a.838.838,0,0,0,.836-.836V13.672Z" transform="translate(1.344 8.063)" fill="#5a5a5a"/>
      <path id="Path_23325" data-name="Path 23325" d="M37.618,17.031H2.508A2.511,2.511,0,0,1,0,14.524V9.508A2.511,2.511,0,0,1,2.508,7h35.11a2.511,2.511,0,0,1,2.508,2.508v5.016A2.511,2.511,0,0,1,37.618,17.031ZM2.508,8.672a.838.838,0,0,0-.836.836v5.016a.838.838,0,0,0,.836.836h35.11a.838.838,0,0,0,.836-.836V9.508a.838.838,0,0,0-.836-.836Z" transform="translate(0 4.703)" fill="#5a5a5a"/>
      <path id="Path_23326" data-name="Path 23326" d="M12.336,13.375a.836.836,0,0,1-.828-.953C11.527,12.3,13.4,0,23.2,0c4.32,0,5.853,2.334,5.853,4.332,0,3.755-5.188,9.043-16.721,9.043ZM23.2,1.672c-6.875,0-9.219,7.331-9.846,10.015,9.16-.284,14.027-4.374,14.027-7.355a2.175,2.175,0,0,0-.926-1.814A5.449,5.449,0,0,0,23.2,1.672Z" transform="translate(7.727 0)" fill="#5a5a5a"/>
      <path id="Path_23327" data-name="Path 23327" d="M18.721,13.375C7.188,13.375,2,8.087,2,4.332A3.869,3.869,0,0,1,3.593,1.18,7.063,7.063,0,0,1,7.853,0C17.661,0,19.53,12.3,19.548,12.422a.836.836,0,0,1-.828.953ZM7.853,1.672c-2.58,0-4.181,1.018-4.181,2.66,0,2.983,4.87,7.072,14.036,7.356C17.1,8.988,14.815,1.672,7.853,1.672Z" transform="translate(1.344 0)" fill="#5a5a5a"/>
      <path id="Path_23328" data-name="Path 23328" d="M12.336,35.422a.836.836,0,0,1-.836-.836V7.836a.836.836,0,0,1,1.672,0v26.75A.836.836,0,0,1,12.336,35.422Z" transform="translate(7.727 4.703)" fill="#5a5a5a"/>
    </g>
  </g>
</svg>
