<svg xmlns="http://www.w3.org/2000/svg" width="74" height="74" viewBox="0 0 74 74">
  <g id="Group_73150" data-name="Group 73150" transform="translate(0)">
    <circle id="Ellipse_635" data-name="Ellipse 635" cx="37" cy="37" r="37" transform="translate(0)" fill="#eec9ff"/>
    <g id="_x34_4_Promotion" transform="translate(-15.802 15.394)">
      <g id="Group_73090" data-name="Group 73090" transform="translate(32.557 0.032)">
        <g id="Group_73089" data-name="Group 73089" transform="translate(0)">
          <path id="Path_23314" data-name="Path 23314" d="M70.006,13.441l-1.019-2.868.138-.78a3.676,3.676,0,0,0-1.019-3.236L65.859,4.309l2.755-2.755A.674.674,0,0,0,67.66.6L64.905,3.355,62.658,1.108A3.668,3.668,0,0,0,59.422.088L53.215,1.183A3.654,3.654,0,0,0,51.257,2.2L33.634,19.826a3.671,3.671,0,0,0,0,5.195l7.935,7.935-.378,1.369a3.758,3.758,0,0,0,2.622,4.626l14.814,4.1a3.765,3.765,0,0,0,4.627-2.622L70.087,15.7A3.737,3.737,0,0,0,70.006,13.441ZM34.587,20.779,52.21,3.156a2.313,2.313,0,0,1,1.24-.646l6.207-1.095a2.325,2.325,0,0,1,2.048.645l2.247,2.247L61.989,6.271a2.221,2.221,0,0,0-2.5.388,2.17,2.17,0,1,0,3.463.56l1.957-1.957,2.248,2.247A2.327,2.327,0,0,1,67.8,9.557L66.7,15.763A2.321,2.321,0,0,1,66.058,17L48.435,34.627a2.38,2.38,0,0,1-3.287,0l-10.56-10.56a2.324,2.324,0,0,1,0-3.288ZM61.6,7.612a.822.822,0,1,1-1.163,0A.824.824,0,0,1,61.6,7.612Zm7.185,7.729L61.953,40.063a2.417,2.417,0,0,1-2.967,1.682l-14.814-4.1a2.41,2.41,0,0,1-1.682-2.967l.175-.632,1.529,1.529a3.67,3.67,0,0,0,5.194,0L67.011,17.957A3.657,3.657,0,0,0,68.031,16l.482-2.733.223.627A2.4,2.4,0,0,1,68.787,15.341Z" transform="translate(-32.557 -0.032)" fill="#5a5a5a"/>
          <path id="Path_23315" data-name="Path 23315" d="M169.466,226.914a.675.675,0,0,0-.674-.675l-11.5-.005a.674.674,0,1,0,0,1.348l11.5.005A.674.674,0,0,0,169.466,226.914Z" transform="translate(-146.158 -207.168)" fill="#5a5a5a"/>
          <path id="Path_23316" data-name="Path 23316" d="M199.392,256.448a1.981,1.981,0,1,0,2.8,0A2.022,2.022,0,0,0,199.392,256.448Zm1.848,1.848h0a.652.652,0,0,1-.894,0,.632.632,0,1,1,.894,0Z" transform="translate(-184.799 -234.319)" fill="#5a5a5a"/>
          <path id="Path_23317" data-name="Path 23317" d="M223.29,169.24h0a1.981,1.981,0,1,0-2.8,0A1.985,1.985,0,0,0,223.29,169.24Zm-1.848-1.848a.626.626,0,0,1,.895,0,.634.634,0,0,1,0,.894.653.653,0,0,1-.895,0A.634.634,0,0,1,221.442,167.392Z" transform="translate(-204.118 -151.882)" fill="#5a5a5a"/>
        </g>
      </g>
    </g>
  </g>
</svg>
