<svg xmlns="http://www.w3.org/2000/svg" width="74" height="74" viewBox="0 0 74 74">
  <g id="Group_73395" data-name="Group 73395" transform="translate(0)">
    <circle id="Ellipse_635" data-name="Ellipse 635" cx="37" cy="37" r="37" transform="translate(0)" fill="#eec9ff"/>
    <g id="integration" transform="translate(12.443 12.435)">
      <path id="Path_14049" data-name="Path 14049" d="M107.123,118.647a11.523,11.523,0,1,1,11.523-11.523A11.531,11.531,0,0,1,107.123,118.647Zm0-22.156a10.633,10.633,0,1,0,10.633,10.633A10.649,10.649,0,0,0,107.123,96.491Z" transform="translate(-82.566 -82.558)" fill="#5a5a5a" stroke="#5a5a5a" stroke-width="0.5"/>
      <path id="Path_14050" data-name="Path 14050" d="M57.444,104.051A4.849,4.849,0,0,1,52.6,99.207V96.045a.445.445,0,0,1,.891,0v3.161a3.956,3.956,0,0,0,3.954,3.954.445.445,0,0,1,0,.891Z" transform="translate(-43.395 -82.558)" fill="#5a5a5a" stroke="#5a5a5a" stroke-width="0.5"/>
      <path id="Path_14051" data-name="Path 14051" d="M338.445,104.051a.445.445,0,1,1,0-.891,3.956,3.956,0,0,0,3.954-3.954V96.045a.445.445,0,0,1,.891,0v3.161A4.85,4.85,0,0,1,338.445,104.051Z" transform="translate(-303.38 -82.558)" fill="#5a5a5a" stroke="#5a5a5a" stroke-width="0.5"/>
      <path id="Path_14052" data-name="Path 14052" d="M342.844,267.951a.441.441,0,0,1-.445-.445v-3.161a3.956,3.956,0,0,0-3.954-3.954.445.445,0,1,1,0-.891,4.849,4.849,0,0,1,4.844,4.844v3.161A.447.447,0,0,1,342.844,267.951Z" transform="translate(-303.38 -231.862)" fill="#5a5a5a" stroke="#5a5a5a" stroke-width="0.5"/>
      <path id="Path_14053" data-name="Path 14053" d="M53.045,267.951a.441.441,0,0,1-.445-.445v-3.161a4.849,4.849,0,0,1,4.844-4.844.445.445,0,0,1,0,.891,3.956,3.956,0,0,0-3.954,3.954v3.161A.452.452,0,0,1,53.045,267.951Z" transform="translate(-43.395 -231.862)" fill="#5a5a5a" stroke="#5a5a5a" stroke-width="0.5"/>
      <path id="Path_14054" data-name="Path 14054" d="M372.541,65.883a1.941,1.941,0,1,1,1.941-1.941A1.946,1.946,0,0,1,372.541,65.883Zm0-2.983a1.051,1.051,0,1,0,1.051,1.051A1.053,1.053,0,0,0,372.541,62.9Z" transform="translate(-333.076 -51.95)" fill="#5a5a5a" stroke="#5a5a5a" stroke-width="0.5"/>
      <path id="Path_14055" data-name="Path 14055" d="M349.93,220.891h-5.085a.445.445,0,0,1,0-.891h5.085a.445.445,0,1,1,0,.891Z" transform="translate(-309.21 -195.879)" fill="#5a5a5a" stroke="#5a5a5a" stroke-width="0.5"/>
      <path id="Path_14056" data-name="Path 14056" d="M44.03,220.891H38.945a.445.445,0,1,1,0-.891H44.03a.445.445,0,1,1,0,.891Z" transform="translate(-30.551 -195.879)" fill="#5a5a5a" stroke="#5a5a5a" stroke-width="0.5"/>
      <path id="Path_14057" data-name="Path 14057" d="M403.407,207.148h-.116a2,2,0,1,1,.116,0Zm-.009-2.992a.988.988,0,1,0,.062,0C403.443,204.165,403.425,204.156,403.4,204.156Z" transform="translate(-361.191 -180.641)" fill="#5a5a5a" stroke="#5a5a5a" stroke-width="0.5"/>
      <path id="Path_14058" data-name="Path 14058" d="M6.907,207.148H6.791a2,2,0,1,1,.116,0Zm0-2.992a1.047,1.047,0,1,0,.7,1.826,1.07,1.07,0,0,0,.347-.721,1.047,1.047,0,0,0-.988-1.1A.145.145,0,0,1,6.907,204.156Z" transform="translate(0 -180.641)" fill="#5a5a5a" stroke="#5a5a5a" stroke-width="0.5"/>
      <path id="Path_14059" data-name="Path 14059" d="M220.445,350.375a.441.441,0,0,1-.445-.445v-5.085a.445.445,0,0,1,.891,0v5.085A.441.441,0,0,1,220.445,350.375Z" transform="translate(-195.888 -309.201)" fill="#5a5a5a" stroke="#5a5a5a" stroke-width="0.5"/>
      <path id="Path_14060" data-name="Path 14060" d="M220.445,44.475A.441.441,0,0,1,220,44.03V38.945a.445.445,0,1,1,.891,0V44.03A.441.441,0,0,1,220.445,44.475Z" transform="translate(-195.888 -30.542)" fill="#5a5a5a" stroke="#5a5a5a" stroke-width="0.5"/>
      <path id="Path_14061" data-name="Path 14061" d="M205.116,405.34H205a2,2,0,1,1,.116,0Zm-1.042-1.995a1.046,1.046,0,0,0,.988,1.1,1.031,1.031,0,0,0,.757-.267,1.07,1.07,0,0,0,.347-.721,1.044,1.044,0,0,0-.267-.757,1.033,1.033,0,0,0-.721-.347,1.044,1.044,0,0,0-.757.267A.969.969,0,0,0,204.074,403.345Z" transform="translate(-180.559 -361.183)" fill="#5a5a5a" stroke="#5a5a5a" stroke-width="0.5"/>
      <path id="Path_14062" data-name="Path 14062" d="M205.116,8.848H205a2,2,0,1,1,.116,0Zm-1.042-1.995a1.048,1.048,0,1,0,2.093.116,1.031,1.031,0,0,0-.267-.757,1.07,1.07,0,0,0-.721-.347A1.047,1.047,0,0,0,204.074,6.853Z" transform="translate(-180.559 0)" fill="#5a5a5a" stroke="#5a5a5a" stroke-width="0.5"/>
      <path id="Path_14063" data-name="Path 14063" d="M372.507,348.24h-.116a2,2,0,1,1,.116,0Zm-.062-.891a1.047,1.047,0,0,0,.837-1.745,1.033,1.033,0,0,0-.721-.347,1.044,1.044,0,0,0-.757.267,1.033,1.033,0,0,0-.347.721,1.044,1.044,0,0,0,.267.757A1.07,1.07,0,0,0,372.445,347.349Z" transform="translate(-333.042 -309.167)" fill="#5a5a5a" stroke="#5a5a5a" stroke-width="0.5"/>
      <path id="Path_14064" data-name="Path 14064" d="M37.707,348.24h-.116a2,2,0,1,1,.116,0Zm-.062-.891a1.048,1.048,0,1,0,.116-2.093,1.031,1.031,0,0,0-.757.267,1.07,1.07,0,0,0-.347.721A1.058,1.058,0,0,0,37.645,347.349Z" transform="translate(-28.057 -309.167)" fill="#5a5a5a" stroke="#5a5a5a" stroke-width="0.5"/>
      <path id="Path_14065" data-name="Path 14065" d="M37.707,65.94h-.116a1.94,1.94,0,0,1,.223-3.874,1.949,1.949,0,0,1,1.826,2.048A1.94,1.94,0,0,1,37.707,65.94Zm-.062-.891a1.046,1.046,0,0,0,1.1-.988,1.031,1.031,0,0,0-.267-.757,1.07,1.07,0,0,0-.721-.347,1.031,1.031,0,0,0-.757.267,1.07,1.07,0,0,0-.347.721A1.058,1.058,0,0,0,37.645,65.049Z" transform="translate(-28.057 -52.007)" fill="#5a5a5a" stroke="#5a5a5a" stroke-width="0.5"/>
      <path id="Path_14066" data-name="Path 14066" d="M187.2,190.4a3.749,3.749,0,1,1,3.7-3.749A3.727,3.727,0,0,1,187.2,190.4Zm0-6.608A2.859,2.859,0,1,0,190,186.649,2.834,2.834,0,0,0,187.2,183.79Z" transform="translate(-162.638 -162.083)" fill="#5a5a5a" stroke="#5a5a5a" stroke-width="0.5"/>
      <path id="Path_14067" data-name="Path 14067" d="M141.156,147.824h-3.2a.441.441,0,0,1-.445-.445V146a6.6,6.6,0,0,1-1.131-.472l-.98.98a.454.454,0,0,1-.312.134.418.418,0,0,1-.312-.134l-2.262-2.262a.454.454,0,0,1-.134-.312.418.418,0,0,1,.134-.312l.98-.98a7.392,7.392,0,0,1-.472-1.131h-1.38a.441.441,0,0,1-.445-.445v-3.206a.441.441,0,0,1,.445-.445h1.38a6.6,6.6,0,0,1,.472-1.131l-.98-.98a.454.454,0,0,1-.134-.312.418.418,0,0,1,.134-.312l2.262-2.262a.457.457,0,0,1,.632,0l.98.98a7.393,7.393,0,0,1,1.131-.472v-1.38a.441.441,0,0,1,.445-.445h3.2a.441.441,0,0,1,.445.445v1.38a6.6,6.6,0,0,1,1.131.472l.98-.98a.453.453,0,0,1,.312-.134.418.418,0,0,1,.312.134l2.262,2.262a.441.441,0,0,1,0,.632l-.98.98a7.392,7.392,0,0,1,.472,1.131h1.38a.441.441,0,0,1,.445.445v3.2a.441.441,0,0,1-.445.445H146.1a6.6,6.6,0,0,1-.472,1.131l.98.98a.441.441,0,0,1,0,.632l-2.271,2.244a.441.441,0,0,1-.632,0l-.98-.98a7.4,7.4,0,0,1-1.131.472v1.38A.441.441,0,0,1,141.156,147.824Zm-2.752-.891h2.306V145.66a.43.43,0,0,1,.338-.427,5.948,5.948,0,0,0,1.541-.641.444.444,0,0,1,.543.071l.9.9,1.63-1.63-.917-.908a.457.457,0,0,1-.071-.543,6,6,0,0,0,.641-1.541.455.455,0,0,1,.427-.338h1.273V138.3h-1.273a.43.43,0,0,1-.427-.338,5.947,5.947,0,0,0-.641-1.541.433.433,0,0,1,.071-.543l.9-.9-1.63-1.63-.9.926a.457.457,0,0,1-.543.071,6,6,0,0,0-1.541-.641.455.455,0,0,1-.338-.427V132h-2.3v1.273a.43.43,0,0,1-.338.427,6.271,6.271,0,0,0-1.541.641.433.433,0,0,1-.543-.071l-.9-.9-1.63,1.63.9.9a.457.457,0,0,1,.071.543,6,6,0,0,0-.641,1.541.455.455,0,0,1-.427.338h-1.273v2.3h1.273a.43.43,0,0,1,.427.338,6.272,6.272,0,0,0,.641,1.541.433.433,0,0,1-.071.543l-.9.9,1.63,1.63.9-.9a.457.457,0,0,1,.543-.071,6,6,0,0,0,1.541.641.455.455,0,0,1,.338.427Z" transform="translate(-114.996 -114.897)" fill="#5a5a5a" stroke="#5a5a5a" stroke-width="0.5"/>
    </g>
  </g>
</svg>
