<svg xmlns="http://www.w3.org/2000/svg" width="74" height="74" viewBox="0 0 74 74">
  <g id="Group_73153" data-name="Group 73153" transform="translate(-0.082)">
    <circle id="Ellipse_635" data-name="Ellipse 635" cx="37" cy="37" r="37" transform="translate(0.082)" fill="#f8d378"/>
    <g id="Group_73171" data-name="Group 73171" transform="translate(4.345 13.522)">
      <path id="Path_23318" data-name="Path 23318" d="M54.439,26.218a7.221,7.221,0,0,1-.76-2.741,7.222,7.222,0,0,1,.76-2.741,6.233,6.233,0,0,0,.627-4.515,6.232,6.232,0,0,0-3.161-3.282,7.224,7.224,0,0,1-2.226-1.77,7.23,7.23,0,0,1-1-2.665,6.231,6.231,0,0,0-2.147-4.022,6.232,6.232,0,0,0-4.486-.8,7.232,7.232,0,0,1-2.843-.124,7.226,7.226,0,0,1-2.37-1.569A6.234,6.234,0,0,0,32.736,0a6.235,6.235,0,0,0-4.1,1.991,7.226,7.226,0,0,1-2.37,1.568,7.224,7.224,0,0,1-2.842.125,6.236,6.236,0,0,0-4.487.8A6.232,6.232,0,0,0,16.792,8.5a7.224,7.224,0,0,1-1,2.668,7.226,7.226,0,0,1-2.225,1.77,6.233,6.233,0,0,0-3.159,3.282,6.237,6.237,0,0,0,.626,4.515,7.228,7.228,0,0,1,.759,2.741,7.229,7.229,0,0,1-.759,2.741,6.237,6.237,0,0,0-.626,4.515,6.229,6.229,0,0,0,3.159,3.283,7.215,7.215,0,0,1,2.226,1.773,7.213,7.213,0,0,1,1,2.666,6.231,6.231,0,0,0,2.145,4.018,6.237,6.237,0,0,0,4.487.8,7.226,7.226,0,0,1,2.842.124,7.223,7.223,0,0,1,2.37,1.57,6.233,6.233,0,0,0,4.1,1.993,6.233,6.233,0,0,0,4.1-1.993,7.223,7.223,0,0,1,2.37-1.57,7.23,7.23,0,0,1,2.843-.125,6.233,6.233,0,0,0,4.486-.8,6.231,6.231,0,0,0,2.148-4.021,7.216,7.216,0,0,1,1-2.663,7.214,7.214,0,0,1,2.226-1.772,6.229,6.229,0,0,0,3.16-3.283,6.233,6.233,0,0,0-.628-4.515Zm-1.691.71c.492,1.171.917,2.183.574,3.238s-1.28,1.623-2.366,2.281a8.842,8.842,0,0,0-2.76,2.262,8.843,8.843,0,0,0-1.3,3.321c-.291,1.237-.542,2.3-1.44,2.957s-1.989.56-3.255.455a8.858,8.858,0,0,0-3.563.208,8.849,8.849,0,0,0-3,1.925c-.962.83-1.793,1.547-2.9,1.547s-1.94-.717-2.9-1.547a8.848,8.848,0,0,0-3-1.925,6.533,6.533,0,0,0-2.039-.291c-.528,0-1.039.043-1.523.083-1.266.106-2.359.2-3.256-.455s-1.147-1.718-1.437-2.954a8.839,8.839,0,0,0-1.3-3.324,8.842,8.842,0,0,0-2.759-2.262c-1.085-.658-2.023-1.226-2.365-2.281s.082-2.067.573-3.239a8.855,8.855,0,0,0,.9-3.45,8.856,8.856,0,0,0-.9-3.45c-.491-1.171-.916-2.183-.573-3.238s1.28-1.622,2.366-2.281a8.854,8.854,0,0,0,2.758-2.26,8.853,8.853,0,0,0,1.3-3.327c.29-1.236.541-2.3,1.437-2.954s1.991-.561,3.257-.455A8.85,8.85,0,0,0,26.833,5.3a8.852,8.852,0,0,0,3-1.924c.962-.83,1.793-1.546,2.9-1.546s1.94.716,2.9,1.546a8.854,8.854,0,0,0,3,1.924,8.859,8.859,0,0,0,3.562.208c1.266-.106,2.359-.2,3.256.455s1.149,1.72,1.44,2.957a8.857,8.857,0,0,0,1.3,3.323,8.852,8.852,0,0,0,2.759,2.261c1.086.658,2.024,1.227,2.367,2.28s-.082,2.067-.574,3.238a8.849,8.849,0,0,0-.9,3.451,8.849,8.849,0,0,0,.9,3.451Z" transform="translate(0 0)" fill="#5a5a5a"/>
      <path id="Path_23319" data-name="Path 23319" d="M162.029,94.255a.917.917,0,0,0,.875.642H173.7a.917.917,0,0,0,.875-.642l2.54-8.072a.917.917,0,0,0-1.25-1.112L171.774,86.9l-2.691-4.4a.917.917,0,0,0-1.565,0l-2.691,4.4-4.088-1.833a.917.917,0,0,0-1.25,1.112Zm2.785-5.347a.917.917,0,0,0,1.158-.359l2.329-3.812,2.329,3.812a.917.917,0,0,0,1.158.359l2.962-1.328-1.725,5.483h-9.448l-1.725-5.483Z" transform="translate(-135.564 -74.535)" fill="#5a5a5a"/>
      <path id="Path_23320" data-name="Path 23320" d="M302.433,260.442a.917.917,0,0,0-.917.917v7.666a.917.917,0,1,0,1.834,0v-2.417l1.217,0a3.082,3.082,0,1,0,0-6.163h-2.134Zm3.424,3.08a1.287,1.287,0,0,1-1.29,1.248l-1.217,0v-2.5h1.217A1.285,1.285,0,0,1,305.857,263.522Z" transform="translate(-264.604 -236.556)" fill="#5a5a5a"/>
      <path id="Path_23321" data-name="Path 23321" d="M146.019,269.389a.917.917,0,0,0,1.72,0l2.841-7.656a.917.917,0,1,0-1.72-.638l-1.982,5.34-1.984-5.341a.917.917,0,1,0-1.719.639Z" transform="translate(-120.733 -236.606)" fill="#5a5a5a"/>
      <path id="Path_23322" data-name="Path 23322" d="M248.963,261.359v7.666a.917.917,0,1,0,1.834,0v-7.666a.917.917,0,1,0-1.834,0Z" transform="translate(-216.871 -236.556)" fill="#5a5a5a"/>
      <path id="Path_23323" data-name="Path 23323" d="M154.482,386.44H133.718a.917.917,0,0,0,0,1.834h20.763a.917.917,0,0,0,0-1.834Z" transform="translate(-111.362 -350.999)" fill="#5a5a5a"/>
    </g>
  </g>
</svg>
