<svg xmlns="http://www.w3.org/2000/svg" xmlns:xlink="http://www.w3.org/1999/xlink" width="350" height="230" viewBox="0 0 350 230">
  <defs>
    <filter id="Frame-Background" x="0" y="0" width="350" height="230" filterUnits="userSpaceOnUse">
      <feOffset dx="-2" dy="3" input="SourceAlpha"/>
      <feGaussianBlur stdDeviation="5" result="blur"/>
      <feFlood flood-opacity="0.161"/>
      <feComposite operator="in" in2="blur"/>
      <feComposite in="SourceGraphic"/>
    </filter>
  </defs>
  <g id="Group_71827" data-name="Group 71827" transform="translate(-694 -128)">
    <g transform="matrix(1, 0, 0, 1, 694, 128)" filter="url(#Frame-Background)">
      <rect id="Frame-Background-2" data-name="Frame-Background" width="320" height="200" rx="16" transform="translate(17 12)" fill="#fff"/>
    </g>
    <text id="Customers" transform="translate(732.917 193.236)" fill="#404756" font-size="30" font-family="Inter-Bold, Inter" font-weight="700"><tspan x="0" y="0">Customers</tspan></text>
    <g id="Layer_3" transform="translate(951.353 148.747)">
      <g id="Group_69081" data-name="Group 69081" transform="translate(6.999 15.489)">
        <g id="ARC_424_" transform="translate(0 23.226)">
          <g id="Group_69062" data-name="Group 69062">
            <path id="Path_1128" data-name="Path 1128" d="M14.291,42.465a1.031,1.031,0,0,1-.146-.01,20.13,20.13,0,0,1-6.608-2.163A1.015,1.015,0,0,1,8.492,38.5a18.04,18.04,0,0,0,5.941,1.945,1.015,1.015,0,0,1-.143,2.02Z" transform="translate(-6.999 -38.381)" fill="#2a6ab4"/>
          </g>
        </g>
        <g id="ARC_423_" transform="translate(42.426 23.227)">
          <g id="Group_69063" data-name="Group 69063">
            <path id="Path_1129" data-name="Path 1129" d="M49.829,42.465a1.015,1.015,0,0,1-.143-2.019A18.033,18.033,0,0,0,55.627,38.5a1.015,1.015,0,0,1,.956,1.792,20.13,20.13,0,0,1-6.608,2.163A1.2,1.2,0,0,1,49.829,42.465Z" transform="translate(-48.815 -38.382)" fill="#2a6ab4"/>
          </g>
        </g>
        <g id="ARC_422_" transform="translate(31.813 13.112)">
          <g id="Group_69064" data-name="Group 69064">
            <path id="Path_1130" data-name="Path 1130" d="M39.369,33.5a1.015,1.015,0,0,1-.849-1.569,7.733,7.733,0,0,1,6.5-3.522,1.015,1.015,0,1,1,0,2.029,5.706,5.706,0,0,0-4.8,2.6A1.012,1.012,0,0,1,39.369,33.5Z" transform="translate(-38.354 -28.412)" fill="#2a6ab4"/>
          </g>
        </g>
        <g id="CIRCLE_38_" transform="translate(34.091 1.874)">
          <g id="Group_69065" data-name="Group 69065">
            <path id="Path_1131" data-name="Path 1131" d="M47.234,30.6a6.633,6.633,0,1,1,6.633-6.633A6.722,6.722,0,0,1,47.234,30.6Zm0-11.238a4.6,4.6,0,1,0,4.6,4.6A4.667,4.667,0,0,0,47.234,19.365Z" transform="translate(-40.6 -17.336)" fill="#2a6ab4"/>
          </g>
        </g>
        <g id="ARC_421_" transform="translate(41.958 13.113)">
          <g id="Group_69066" data-name="Group 69066">
            <path id="Path_1132" data-name="Path 1132" d="M56.112,37.185A1.014,1.014,0,0,1,55.1,36.171a5.735,5.735,0,0,0-5.728-5.728,1.015,1.015,0,1,1,0-2.029,7.767,7.767,0,0,1,7.758,7.758A1.014,1.014,0,0,1,56.112,37.185Z" transform="translate(-48.354 -28.413)" fill="#2a6ab4"/>
          </g>
        </g>
        <g id="LINE_818_" transform="translate(37.463 13.112)">
          <g id="Group_69067" data-name="Group 69067">
            <path id="Path_1133" data-name="Path 1133" d="M49.433,30.441h-4.5a1.015,1.015,0,1,1,0-2.029h4.5a1.015,1.015,0,0,1,0,2.029Z" transform="translate(-43.923 -28.412)" fill="#2a6ab4"/>
          </g>
        </g>
        <g id="LINE_817_" transform="translate(48.701 19.856)">
          <g id="Group_69068" data-name="Group 69068">
            <path id="Path_1134" data-name="Path 1134" d="M56.015,40.46A1.014,1.014,0,0,1,55,39.445V36.074a1.015,1.015,0,0,1,2.029,0v3.371A1.014,1.014,0,0,1,56.015,40.46Z" transform="translate(-55 -35.059)" fill="#2a6ab4"/>
          </g>
        </g>
        <g id="ARC_420_" transform="translate(12.364 14.986)">
          <g id="Group_69069" data-name="Group 69069">
            <path id="Path_1135" data-name="Path 1135" d="M20.2,41.278a1.014,1.014,0,0,1-1.015-1.015,10.016,10.016,0,0,1,10-10,1.015,1.015,0,0,1,0,2.029,7.984,7.984,0,0,0-7.976,7.976A1.014,1.014,0,0,1,20.2,41.278Z" transform="translate(-19.185 -30.259)" fill="#2a6ab4"/>
          </g>
        </g>
        <g id="LINE_816_" transform="translate(21.354 14.986)">
          <g id="Group_69070" data-name="Group 69070">
            <path id="Path_1136" data-name="Path 1136" d="M35.055,32.288H29.061a1.015,1.015,0,0,1,0-2.029h5.994a1.015,1.015,0,0,1,0,2.029Z" transform="translate(-28.046 -30.259)" fill="#2a6ab4"/>
          </g>
        </g>
        <g id="ARC_419_" transform="translate(11.24 13.112)">
          <g id="Group_69071" data-name="Group 69071" transform="translate(0)">
            <path id="Path_1137" data-name="Path 1137" d="M24.742,33.5a1.015,1.015,0,0,1-.851-.461,5.709,5.709,0,0,0-4.8-2.6,1.015,1.015,0,1,1,0-2.029,7.732,7.732,0,0,1,6.5,3.522,1.015,1.015,0,0,1-.849,1.569Z" transform="translate(-18.078 -28.412)" fill="#2a6ab4"/>
          </g>
        </g>
        <g id="LINE_815_" transform="translate(12.364 23.976)">
          <g id="Group_69072" data-name="Group 69072">
            <path id="Path_1138" data-name="Path 1138" d="M20.2,45.645a1.014,1.014,0,0,1-1.015-1.015v-4.5a1.015,1.015,0,0,1,2.029,0v4.5A1.014,1.014,0,0,1,20.2,45.645Z" transform="translate(-19.185 -39.12)" fill="#2a6ab4"/>
          </g>
        </g>
        <g id="CIRCLE_37_" transform="translate(16.858)">
          <g id="Group_69073" data-name="Group 69073">
            <path id="Path_1139" data-name="Path 1139" d="M32.122,32.5A8.507,8.507,0,1,1,40.63,24,8.622,8.622,0,0,1,32.122,32.5Zm0-14.986A6.478,6.478,0,1,0,38.6,24,6.565,6.565,0,0,0,32.122,17.518Z" transform="translate(-23.615 -15.489)" fill="#2a6ab4"/>
          </g>
        </g>
        <g id="ARC_418_" transform="translate(27.348 14.986)">
          <g id="Group_69074" data-name="Group 69074">
            <path id="Path_1140" data-name="Path 1140" d="M43.959,41.278a1.014,1.014,0,0,1-1.015-1.015,7.984,7.984,0,0,0-7.976-7.976,1.015,1.015,0,1,1,0-2.029,10.016,10.016,0,0,1,10,10A1.014,1.014,0,0,1,43.959,41.278Z" transform="translate(-33.954 -30.259)" fill="#2a6ab4"/>
          </g>
        </g>
        <g id="LINE_814_" transform="translate(36.338 23.976)">
          <g id="Group_69075" data-name="Group 69075">
            <path id="Path_1141" data-name="Path 1141" d="M43.83,45.645a1.014,1.014,0,0,1-1.015-1.015v-4.5a1.015,1.015,0,0,1,2.029,0v4.5A1.014,1.014,0,0,1,43.83,45.645Z" transform="translate(-42.815 -39.12)" fill="#2a6ab4"/>
          </g>
        </g>
        <g id="ARC_417_" transform="translate(12.363 28.471)">
          <g id="Group_69076" data-name="Group 69076" transform="translate(0)">
            <path id="Path_1142" data-name="Path 1142" d="M32.187,48.583a26.475,26.475,0,0,1-12.465-3.122,1.015,1.015,0,1,1,.956-1.792,24.416,24.416,0,0,0,23.02,0,1.015,1.015,0,0,1,.956,1.792,26.493,26.493,0,0,1-12.466,3.122Z" transform="translate(-19.184 -43.551)" fill="#2a6ab4"/>
          </g>
        </g>
        <g id="CIRCLE_36_" transform="translate(3.372 1.874)">
          <g id="Group_69077" data-name="Group 69077">
            <path id="Path_1143" data-name="Path 1143" d="M16.956,30.6a6.633,6.633,0,0,1,0-13.267,6.633,6.633,0,1,1,0,13.267Zm0-11.238a4.6,4.6,0,1,0,4.6,4.6A4.666,4.666,0,0,0,16.956,19.365Z" transform="translate(-10.323 -17.336)" fill="#2a6ab4"/>
          </g>
        </g>
        <g id="ARC_416_" transform="translate(0.001 13.113)">
          <g id="Group_69078" data-name="Group 69078">
            <path id="Path_1144" data-name="Path 1144" d="M8.015,37.185A1.014,1.014,0,0,1,7,36.171a7.767,7.767,0,0,1,7.758-7.758,1.015,1.015,0,1,1,0,2.029,5.734,5.734,0,0,0-5.728,5.728A1.014,1.014,0,0,1,8.015,37.185Z" transform="translate(-7 -28.413)" fill="#2a6ab4"/>
          </g>
        </g>
        <g id="LINE_813_" transform="translate(6.744 13.112)">
          <g id="Group_69079" data-name="Group 69079">
            <path id="Path_1145" data-name="Path 1145" d="M19.156,30.441h-4.5a1.015,1.015,0,1,1,0-2.029h4.5a1.015,1.015,0,1,1,0,2.029Z" transform="translate(-13.646 -28.412)" fill="#2a6ab4"/>
          </g>
        </g>
        <g id="LINE_812_" transform="translate(0.001 19.856)">
          <g id="Group_69080" data-name="Group 69080">
            <path id="Path_1146" data-name="Path 1146" d="M8.015,40.46A1.014,1.014,0,0,1,7,39.445V36.074a1.015,1.015,0,0,1,2.029,0v3.371A1.014,1.014,0,0,1,8.015,40.46Z" transform="translate(-7 -35.059)" fill="#2a6ab4"/>
          </g>
        </g>
      </g>
    </g>
    <g id="Group_69082" data-name="Group 69082" transform="translate(-2.083 -1.764)">
      <text id="_1050" data-name="1050" transform="translate(735 313.528)" fill="#2a6ab4" font-size="18" font-family="Inter-Medium, Inter" font-weight="500"><tspan x="0" y="0">1050</tspan></text>
      <text id="Card-Holder-Rara-Avis" transform="translate(735 289)" fill="#2a6ab4" font-size="12" font-family="Inter-Bold, Inter" font-weight="700"><tspan x="0" y="0">Returning Customer</tspan></text>
    </g>
    <g id="Group_69083" data-name="Group 69083" transform="translate(146.917 -1.764)">
      <text id="_50_" data-name="50%" transform="translate(735 313.528)" fill="#2a6ab4" font-size="18" font-family="Inter-Medium, Inter" font-weight="500"><tspan x="0" y="0">50%</tspan></text>
      <text id="Card-Holder-Rara-Avis-2" data-name="Card-Holder-Rara-Avis" transform="translate(735 289)" fill="#2a6ab4" font-size="12" font-family="Inter-Bold, Inter" font-weight="700"><tspan x="0" y="0">Retention Percentage</tspan></text>
    </g>
    <text id="_2_500" data-name="2,500" transform="translate(732.917 231.236)" fill="#2a6ab4" font-size="22" font-family="Inter-Medium, Inter" font-weight="500"><tspan x="0" y="0">2,500</tspan></text>
  </g>
</svg>
