<svg xmlns="http://www.w3.org/2000/svg" width="74" height="74" viewBox="0 0 74 74">
  <g id="Group_73154" data-name="Group 73154" transform="translate(0)">
    <circle id="Ellipse_635" data-name="Ellipse 635" cx="37" cy="37" r="37" transform="translate(0)" fill="#8ae4f6"/>
    <g id="Group_73789" data-name="Group 73789" transform="translate(14.649 -39.982)">
      <g id="Group_73784" data-name="Group 73784" transform="translate(0 59.858)">
        <g id="Group_73783" data-name="Group 73783">
          <path id="Path_23578" data-name="Path 23578" d="M38.029,59.858H2.193A2.2,2.2,0,0,0,0,62.051V85.942a2.2,2.2,0,0,0,2.193,2.193H14.839l-.572,4.573h-.875a.7.7,0,0,0,0,1.4h3.733a.7.7,0,0,0,0-1.4H15.678l.572-4.573h.875a.7.7,0,0,0,0-1.4H2.193a.794.794,0,0,1-.793-.793V83.655H17.125a.7.7,0,0,0,0-1.4H1.4v-20.2a.794.794,0,0,1,.793-.793H38.029a.794.794,0,0,1,.793.793V76.983a.7.7,0,1,0,1.4,0V62.051A2.2,2.2,0,0,0,38.029,59.858Z" transform="translate(0 -59.858)" fill="#5a5a5a"/>
        </g>
      </g>
      <g id="Group_73786" data-name="Group 73786" transform="translate(19.411 73.297)">
        <g id="Group_73785" data-name="Group 73785">
          <path id="Path_23579" data-name="Path 23579" d="M234.975,213.779H224.523a2.2,2.2,0,0,0-2.193,2.193V232.4a2.2,2.2,0,0,0,2.193,2.193h10.452a2.2,2.2,0,0,0,2.193-2.193V215.972A2.2,2.2,0,0,0,234.975,213.779Zm.793,18.618a.794.794,0,0,1-.793.793H224.523a.794.794,0,0,1-.793-.793V231.6h12.039v.793Zm0-2.193H223.73V218.165h12.039V230.2Zm0-13.439H223.73v-.793a.794.794,0,0,1,.793-.793h10.452a.794.794,0,0,1,.793.793Z" transform="translate(-222.33 -213.779)" fill="#5a5a5a"/>
        </g>
      </g>
      <g id="Group_73788" data-name="Group 73788" transform="translate(35.836 79.269)">
        <g id="Group_73787" data-name="Group 73787">
          <path id="Path_23580" data-name="Path 23580" d="M417.128,282.188h-4.48a2.2,2.2,0,0,0-2.193,2.193v10.452a2.2,2.2,0,0,0,2.193,2.193h4.48a2.2,2.2,0,0,0,2.193-2.193V284.381A2.2,2.2,0,0,0,417.128,282.188Zm.793,12.645a.794.794,0,0,1-.793.793h-4.48a.794.794,0,0,1-.793-.793v-.793h6.066v.793Zm0-2.193h-6.066v-6.066h6.066Zm0-7.466h-6.066v-.793a.794.794,0,0,1,.793-.793h4.48a.794.794,0,0,1,.793.793v.793Z" transform="translate(-410.455 -282.188)" fill="#5a5a5a"/>
        </g>
      </g>
    </g>
  </g>
</svg>
