<svg xmlns="http://www.w3.org/2000/svg" xmlns:xlink="http://www.w3.org/1999/xlink" width="100" height="100" viewBox="0 0 100 100">
  <defs>
    <clipPath id="clip-path">
      <path id="path532" d="M0-682.665H50v50H0Z" transform="translate(0 682.665)"/>
    </clipPath>
  </defs>
  <g id="Group_73082" data-name="Group 73082" transform="translate(-480 -4862)">
    <circle id="Ellipse_568" data-name="Ellipse 568" cx="50" cy="50" r="50" transform="translate(480 4862)" fill="#87f1d5" opacity="0.75"/>
    <g id="g522" transform="translate(505 5569.665)">
      <g id="g524" transform="translate(35.343 -672.813)">
        <path id="path526" d="M0-182.693V-196" transform="translate(0 196)" fill="none" stroke="#000" stroke-linecap="round" stroke-linejoin="round" stroke-width="1.5"/>
      </g>
      <g id="g528" transform="translate(0 -682.665)">
        <g id="g530" clip-path="url(#clip-path)">
          <g id="g536" transform="translate(0.97 18.572)">
            <path id="path538" d="M-.016-21.108-.009,3.483A1.953,1.953,0,0,0,1.944,5.437H29.63" transform="translate(0.016 21.108)" fill="none" stroke="#000" stroke-linecap="round" stroke-linejoin="round" stroke-width="1.5"/>
          </g>
          <g id="g540" transform="translate(0.977 0.977)">
            <path id="path542" d="M-326.115,0h-23.82a1.953,1.953,0,0,0-1.953,1.953V17.676" transform="translate(351.888)" fill="none" stroke="#000" stroke-linecap="round" stroke-linejoin="round" stroke-width="1.5"/>
          </g>
          <g id="g544" transform="translate(26.75 0.977)">
            <path id="path546" d="M-108.739-108.739l-8.594-8.594v6.775a1.819,1.819,0,0,0,1.819,1.819Z" transform="translate(117.333 117.333)" fill="none" stroke="#000" stroke-linecap="round" stroke-linejoin="round" stroke-width="1.5"/>
          </g>
          <g id="g548" transform="translate(6.935 27.732)">
            <path id="path550" d="M-250.727,0h-19.815" transform="translate(270.542)" fill="none" stroke="#000" stroke-linecap="round" stroke-linejoin="round" stroke-width="1.5"/>
          </g>
          <g id="g552" transform="translate(6.935 33.203)">
            <path id="path554" d="M-250.727,0h-19.815" transform="translate(270.542)" fill="none" stroke="#000" stroke-linecap="round" stroke-linejoin="round" stroke-width="1.5"/>
          </g>
          <g id="g556" transform="translate(6.935 38.674)">
            <path id="path558" d="M-148.281,0H-160" transform="translate(160)" fill="none" stroke="#000" stroke-linecap="round" stroke-linejoin="round" stroke-width="1.5"/>
          </g>
          <g id="g560" transform="translate(27.148 23.242)">
            <path id="path562" d="M-138.391,0l10.938,3.415v9.134A13.473,13.473,0,0,1-138.39,25.781h0a13.473,13.473,0,0,1-10.937-13.233V3.415L-138.39,0" transform="translate(149.328)" fill="none" stroke="#000" stroke-linecap="round" stroke-linejoin="round" stroke-width="1.5"/>
          </g>
          <g id="g564" transform="translate(31.055 27.335)">
            <path id="path566" d="M0-27.777v6.261A9.581,9.581,0,0,0,7.031-12.29a9.581,9.581,0,0,0,7.031-9.225v-6.261l-7.031-2.2Z" transform="translate(0 29.972)" fill="none" stroke="#000" stroke-linecap="round" stroke-linejoin="round" stroke-width="1.5"/>
          </g>
          <g id="g568" transform="translate(34.961 33.935)">
            <path id="path570" d="M0-22.143l2.25,2.25,4-4" transform="translate(0 23.893)" fill="none" stroke="#000" stroke-linecap="round" stroke-linejoin="round" stroke-width="1.5"/>
          </g>
          <g id="g572" transform="translate(12.403 10.546)">
            <path id="path574" d="M-158.166-49.427h-3.906v-3.906h-4.687v3.906h-3.906v4.688h3.906v3.906h4.688v-3.906h3.906Z" transform="translate(170.666 53.333)" fill="none" stroke="#000" stroke-linecap="round" stroke-linejoin="round" stroke-width="1.5"/>
          </g>
        </g>
      </g>
    </g>
  </g>
</svg>
