<svg xmlns="http://www.w3.org/2000/svg" width="100" height="100" viewBox="0 0 100 100">
  <g id="Group_73085" data-name="Group 73085" transform="translate(-1260 -5062)">
    <circle id="Ellipse_570" data-name="Ellipse 570" cx="50" cy="50" r="50" transform="translate(1260 5062)" fill="#a4f4df"/>
    <g id="happiness" transform="translate(1285 5087)">
      <g id="Group_70203" data-name="Group 70203" transform="translate(28.611 15.312)">
        <g id="Group_70202" data-name="Group 70202">
          <path id="Path_14682" data-name="Path 14682" d="M294.725,157.066a.99.99,0,0,0-1.38.234l-.019.027a.99.99,0,1,0,1.614,1.145l.019-.027A.99.99,0,0,0,294.725,157.066Z" transform="translate(-293.144 -156.884)"/>
        </g>
      </g>
      <g id="Group_70205" data-name="Group 70205" transform="translate(21.236 17.887)">
        <g id="Group_70204" data-name="Group 70204">
          <path id="Path_14683" data-name="Path 14683" d="M224.7,183.773a.99.99,0,0,0-1.393-.137,12.266,12.266,0,0,1-4.644,2.386.99.99,0,1,0,.511,1.912,14.233,14.233,0,0,0,5.389-2.768A.99.99,0,0,0,224.7,183.773Z" transform="translate(-217.925 -183.411)"/>
        </g>
      </g>
      <g id="Group_70207" data-name="Group 70207" transform="translate(0 5.344)">
        <g id="Group_70206" data-name="Group 70206">
          <path id="Path_14684" data-name="Path 14684" d="M47.07,70.816a2.931,2.931,0,0,0-2.93,2.925v.488a8.3,8.3,0,0,1-6.888,8.165,4.668,4.668,0,0,0,.809-2.631v-.677a4.707,4.707,0,0,0-9.415,0v.677a4.666,4.666,0,0,0,.771,2.573,8.3,8.3,0,0,1-6.578-8.107v-.488a2.93,2.93,0,0,0-5.859,0v.488a14,14,0,0,0,1.181,5.661H11.516V70.07a.975.975,0,0,0-.708-.937A12.247,12.247,0,0,1,1.953,57.413v-.488a.977.977,0,0,1,1.953,0v.488A10.257,10.257,0,0,0,14.16,67.65h4.7A10.257,10.257,0,0,0,29.114,57.413v-.488a.977.977,0,0,1,1.953,0v.488a12.085,12.085,0,0,1-.8,4.351.976.976,0,0,0,1.824.7,14.025,14.025,0,0,0,.933-5.049v-.488a2.93,2.93,0,0,0-5.859,0v.488a8.3,8.3,0,0,1-6.888,8.165,4.668,4.668,0,0,0,.808-2.631V62.27a4.707,4.707,0,0,0-9.415,0v.677a4.665,4.665,0,0,0,.771,2.573,8.3,8.3,0,0,1-6.578-8.107v-.488a2.93,2.93,0,0,0-5.859,0v.488A13.983,13.983,0,0,0,2.915,66a14.308,14.308,0,0,0,6.648,4.789v10.08a.976.976,0,0,0,.977.975h.178V97.681a.977.977,0,0,0,1.953,0V81.84H19.21q.32.5.684.972c.065.084.132.166.2.249v14.62a.977.977,0,0,0,1.953,0V85.053a14.281,14.281,0,0,0,4.5,2.548v10.08a.977.977,0,0,0,1.953,0V86.886a.975.975,0,0,0-.708-.937,12.247,12.247,0,0,1-8.855-11.72v-.488a.977.977,0,0,1,1.953,0v.488A10.257,10.257,0,0,0,31.14,84.466h4.7A10.257,10.257,0,0,0,46.094,74.229v-.488a.977.977,0,0,1,1.953,0v.488a12.209,12.209,0,0,1-9.06,11.777.975.975,0,0,0-.725.942v10.06a.977.977,0,0,0,1.953,0V87.676A14.162,14.162,0,0,0,50,74.229v-.488A2.931,2.931,0,0,0,47.07,70.816ZM13.619,62.269a2.754,2.754,0,0,1,5.509,0v.677a2.754,2.754,0,0,1-5.509,0ZM36.108,79.763a2.754,2.754,0,0,1-5.509,0v-.677a2.754,2.754,0,0,1,5.509,0Z" transform="translate(0 -54)"/>
        </g>
      </g>
      <g id="Group_70209" data-name="Group 70209" transform="translate(38.241 48.021)">
        <g id="Group_70208" data-name="Group 70208">
          <path id="Path_14685" data-name="Path 14685" d="M393.489,492.29a.989.989,0,1,0,.29.7A1,1,0,0,0,393.489,492.29Z" transform="translate(-391.8 -492)"/>
        </g>
      </g>
      <g id="Group_70211" data-name="Group 70211" transform="translate(15.389 36.342)">
        <g id="Group_70210" data-name="Group 70210">
          <path id="Path_14686" data-name="Path 14686" d="M158.657,374a.99.99,0,0,0-.99.99v11.679a.99.99,0,0,0,1.979,0V374.99A.99.99,0,0,0,158.657,374Z" transform="translate(-157.667 -374)"/>
        </g>
      </g>
      <g id="Group_70213" data-name="Group 70213" transform="translate(44.458 8.001)">
        <g id="Group_70212" data-name="Group 70212">
          <path id="Path_14687" data-name="Path 14687" d="M456.99,82a.99.99,0,0,0-.99.99v1.23a.99.99,0,0,0,1.979,0V82.99A.99.99,0,0,0,456.99,82Z" transform="translate(-456 -82)"/>
        </g>
      </g>
      <g id="Group_70215" data-name="Group 70215" transform="translate(44.458 13.813)">
        <g id="Group_70214" data-name="Group 70214">
          <path id="Path_14688" data-name="Path 14688" d="M456.99,141.57a.99.99,0,0,0-.99.99v1.23a.99.99,0,0,0,1.979,0v-1.23A.99.99,0,0,0,456.99,141.57Z" transform="translate(-456 -141.57)"/>
        </g>
      </g>
      <g id="Group_70217" data-name="Group 70217" transform="translate(46.79 11.517)">
        <g id="Group_70216" data-name="Group 70216">
          <path id="Path_14689" data-name="Path 14689" d="M481.79,118h-1.23a.99.99,0,0,0,0,1.979h1.23a.99.99,0,0,0,0-1.979Z" transform="translate(-479.57 -118)"/>
        </g>
      </g>
      <g id="Group_70219" data-name="Group 70219" transform="translate(40.895 11.517)">
        <g id="Group_70218" data-name="Group 70218">
          <path id="Path_14690" data-name="Path 14690" d="M422.22,118h-1.23a.99.99,0,0,0,0,1.979h1.23a.99.99,0,0,0,0-1.979Z" transform="translate(-420 -118)"/>
        </g>
      </g>
      <g id="Group_70221" data-name="Group 70221" transform="translate(20.484)">
        <g id="Group_70220" data-name="Group 70220">
          <path id="Path_14691" data-name="Path 14691" d="M210.863,0a.99.99,0,0,0-.99.99V2.22a.99.99,0,0,0,1.979,0V.99A.99.99,0,0,0,210.863,0Z" transform="translate(-209.873)"/>
        </g>
      </g>
      <g id="Group_70223" data-name="Group 70223" transform="translate(20.484 5.896)">
        <g id="Group_70222" data-name="Group 70222">
          <path id="Path_14692" data-name="Path 14692" d="M210.863,59.57a.99.99,0,0,0-.99.99v1.23a.99.99,0,0,0,1.979,0V60.56A.99.99,0,0,0,210.863,59.57Z" transform="translate(-209.873 -59.57)"/>
        </g>
      </g>
      <g id="Group_70225" data-name="Group 70225" transform="translate(22.776 3.563)">
        <g id="Group_70224" data-name="Group 70224">
          <path id="Path_14693" data-name="Path 14693" d="M235.663,36h-1.23a.99.99,0,1,0,0,1.979h1.23a.99.99,0,0,0,0-1.979Z" transform="translate(-233.443 -36)"/>
        </g>
      </g>
      <g id="Group_70227" data-name="Group 70227" transform="translate(16.964 3.563)">
        <g id="Group_70226" data-name="Group 70226">
          <path id="Path_14694" data-name="Path 14694" d="M176.093,36h-1.23a.99.99,0,0,0,0,1.979h1.23a.99.99,0,0,0,0-1.979Z" transform="translate(-173.873 -36)"/>
        </g>
      </g>
    </g>
  </g>
</svg>
