<svg xmlns="http://www.w3.org/2000/svg" xmlns:xlink="http://www.w3.org/1999/xlink" width="100" height="100" viewBox="0 0 100 100">
  <defs>
    <clipPath id="clip-path">
      <path id="path5205" d="M0-682.665H50v50H0Z" transform="translate(0 682.665)"/>
    </clipPath>
  </defs>
  <g id="Group_73084" data-name="Group 73084" transform="translate(-740 -5062)">
    <circle id="Ellipse_569" data-name="Ellipse 569" cx="50" cy="50" r="50" transform="translate(740 5062)" fill="#8ae4f6"/>
    <g id="g5199" transform="translate(765 5769.665)">
      <g id="g5201" transform="translate(0 -682.665)">
        <g id="g5203" clip-path="url(#clip-path)">
          <g id="g5209" transform="translate(19.898 42.431)">
            <path id="path5211" d="M-138.183-5.8H-144.1a25.648,25.648,0,0,1-3.707-.269l-1.3-.189" transform="translate(149.104 6.261)" fill="none" stroke="#000" stroke-linecap="round" stroke-linejoin="round" stroke-width="1.5"/>
          </g>
          <g id="g5213" transform="translate(3.402 31.336)">
            <path id="path5215" d="M-60.443-108.12v6.757a1.292,1.292,0,0,1-1.292,1.291h-2.194a1.292,1.292,0,0,1-1.292-1.291v-14.01a1.292,1.292,0,0,1,1.292-1.292h2.194a1.292,1.292,0,0,1,1.292,1.292v3.828" transform="translate(65.22 116.665)" fill="none" stroke="#000" stroke-linecap="round" stroke-linejoin="round" stroke-width="1.5"/>
          </g>
          <g id="g5217" transform="translate(8.179 34.118)">
            <path id="path5219" d="M0-146.594l8.316,3.1a7.463,7.463,0,0,0,2.6.469H21.025a7.462,7.462,0,0,0,3.994-1.159l12.654-7.139a2.221,2.221,0,0,0,.362-2.91,2.257,2.257,0,0,0-3.075-.594l-12.32,5.424.015-1.172a3.578,3.578,0,0,0-3.059-3.188l-7.5-.864a9.9,9.9,0,0,1-4.1-1.707,13.446,13.446,0,0,0-6.79-1.84H0" transform="translate(0 158.18)" fill="none" stroke="#000" stroke-linecap="round" stroke-linejoin="round" stroke-width="1.5"/>
          </g>
          <g id="g5221" transform="translate(11.279 0.732)">
            <path id="path5223" d="M-197.941-11.646h0a2.468,2.468,0,0,0,2.813.754A2.468,2.468,0,0,1-191.8-8.97h0a2.468,2.468,0,0,0,2.06,2.06,2.468,2.468,0,0,1,1.922,3.329,2.468,2.468,0,0,0,.754,2.813,2.468,2.468,0,0,1,0,3.845,2.468,2.468,0,0,0-.754,2.813,2.468,2.468,0,0,1-1.922,3.329,2.468,2.468,0,0,0-2.06,2.06h0a2.468,2.468,0,0,1-3.329,1.922,2.468,2.468,0,0,0-2.813.754,2.468,2.468,0,0,1-3.845,0A2.468,2.468,0,0,0-204.6,13.2a2.468,2.468,0,0,1-3.329-1.922,2.468,2.468,0,0,0-2.06-2.06,2.468,2.468,0,0,1-1.922-3.329,2.468,2.468,0,0,0-.754-2.813,2.468,2.468,0,0,1,0-3.845,2.468,2.468,0,0,0,.754-2.813,2.468,2.468,0,0,1,1.922-3.329,2.468,2.468,0,0,0,2.06-2.06,2.468,2.468,0,0,1,3.329-1.922,2.468,2.468,0,0,0,2.813-.754A2.468,2.468,0,0,1-197.941-11.646Z" transform="translate(213.584 12.566)" fill="none" stroke="#000" stroke-linecap="round" stroke-linejoin="round" stroke-width="1.5"/>
          </g>
          <g id="g5225" transform="translate(15.904 5.199)">
            <path id="path5227" d="M0-95.416a9.257,9.257,0,0,1,9.1-7.541A9.254,9.254,0,0,1,18.348-93.7a9.254,9.254,0,0,1-9.254,9.254A9.257,9.257,0,0,1,0-91.991" transform="translate(0.003 102.957)" fill="none" stroke="#000" stroke-linecap="round" stroke-linejoin="round" stroke-width="1.5"/>
          </g>
          <g id="g5229" transform="translate(19.327 8.578)">
            <path id="path5231" d="M-74.064-111.628l2.944,1.946a.326.326,0,0,0,.495-.359l-.941-3.4a.326.326,0,0,1,.111-.342l2.761-2.2a.326.326,0,0,0-.189-.582l-3.526-.156a.327.327,0,0,1-.291-.212l-1.238-3.305a.326.326,0,0,0-.611,0l-1.238,3.305a.327.327,0,0,1-.291.212l-3.526.156a.327.327,0,0,0-.189.582l2.761,2.2a.327.327,0,0,1,.111.342l-.941,3.4a.326.326,0,0,0,.495.359l2.944-1.946A.327.327,0,0,1-74.064-111.628Z" transform="translate(79.917 120.45)" fill="none" stroke="#000" stroke-linecap="round" stroke-linejoin="round" stroke-width="1.5"/>
          </g>
          <g id="g5233" transform="translate(13.115 23.989)">
            <path id="path5235" d="M-46.2,0-49.8,6.99a.4.4,0,0,0,.453.58l4.013-.945a.4.4,0,0,1,.468.241l1.557,3.818a.4.4,0,0,0,.735.033l3.5-6.794" transform="translate(49.85)" fill="none" stroke="#000" stroke-linecap="round" stroke-linejoin="round" stroke-width="1.5"/>
          </g>
          <g id="g5237" transform="translate(26.11 23.989)">
            <path id="path5239" d="M0-49.633l3.5,6.794a.4.4,0,0,0,.735-.033L5.8-46.69a.4.4,0,0,1,.468-.241l4.013.945a.4.4,0,0,0,.453-.58l-3.605-6.99" transform="translate(0 53.556)" fill="none" stroke="#000" stroke-linecap="round" stroke-linejoin="round" stroke-width="1.5"/>
          </g>
        </g>
      </g>
    </g>
  </g>
</svg>
