<svg xmlns="http://www.w3.org/2000/svg" width="100" height="100" viewBox="0 0 100 100">
  <g id="Group_73078" data-name="Group 73078" transform="translate(-220 -4662)">
    <circle id="Ellipse_564" data-name="Ellipse 564" cx="50" cy="50" r="50" transform="translate(220 4662)" fill="#eec9ff"/>
    <g id="transparency" transform="translate(244.796 4686.795)">
      <path id="Path_14671" data-name="Path 14671" d="M36.224,29.32a.976.976,0,0,0-.69-.286.987.987,0,0,0-.69.286l-.69.69-2.244-2.243a17.577,17.577,0,1,0-4.144,4.143l2.244,2.244-.69.69a.977.977,0,0,0,0,1.381L41.665,48.569a4.882,4.882,0,1,0,6.9-6.9Zm-4.834,3.453L29.3,30.681c.243-.218.481-.441.71-.671s.454-.467.671-.71l2.091,2.091ZM6.534,28.629a15.623,15.623,0,1,1,22.095,0A15.614,15.614,0,0,1,6.534,28.629Zm29,2.762L38.3,34.153,34.153,38.3l-2.762-2.761Zm11.655,15.8a2.925,2.925,0,0,1-4.142,0l-7.513-7.513,4.142-4.142,7.513,7.513A2.925,2.925,0,0,1,47.188,47.189Zm0,0" transform="translate(0 0)"/>
      <path id="Path_14672" data-name="Path 14672" d="M62.768,43.961a13.154,13.154,0,0,0-18.782,0,13.6,13.6,0,0,0,0,19.032,13.15,13.15,0,0,0,18.781,0A13.6,13.6,0,0,0,62.768,43.961ZM61.426,61.633a11.271,11.271,0,0,1-16.1,0,11.66,11.66,0,0,1,0-16.314,11.275,11.275,0,0,1,16.1,0A11.657,11.657,0,0,1,61.426,61.633Zm0,0" transform="translate(-36.061 -35.984)"/>
      <path id="Path_14673" data-name="Path 14673" d="M94.45,80.043a10.072,10.072,0,0,0-9.535,6.821,1.008,1.008,0,0,0,1.908.647,8.055,8.055,0,0,1,7.627-5.453,1.008,1.008,0,1,0,0-2.015Zm0,0" transform="translate(-76.641 -72.272)"/>
    </g>
  </g>
</svg>
