<svg xmlns="http://www.w3.org/2000/svg" xmlns:xlink="http://www.w3.org/1999/xlink" width="100" height="100" viewBox="0 0 100 100">
  <defs>
    <clipPath id="clip-path">
      <path id="path1761" d="M0-682.665H60v60H0Z" transform="translate(0 682.665)"/>
    </clipPath>
  </defs>
  <g id="Group_73079" data-name="Group 73079" transform="translate(-740 -4662)">
    <path id="Path_14695" data-name="Path 14695" d="M50,0A50,50,0,1,1,0,50,50,50,0,0,1,50,0Z" transform="translate(740 4662)" fill="#8ae4f6"/>
    <g id="g1755" transform="translate(760 5364.665)">
      <g id="g1757" transform="translate(0 -682.665)">
        <g id="g1759" clip-path="url(#clip-path)">
          <g id="g1765" transform="translate(16.284 30.984)">
            <path id="path1767" d="M0,0H40.623a2.156,2.156,0,1,1,0,4.312H32.794" fill="none" stroke="#000" stroke-linecap="round" stroke-linejoin="round" stroke-width="1.5"/>
          </g>
          <g id="g1769" transform="translate(0.938 30.984)">
            <path id="path1771" d="M-458.646-44.749h-46.924a2.156,2.156,0,0,1-2.156-2.156,2.156,2.156,0,0,1,2.156-2.156h16.39" transform="translate(507.725 49.061)" fill="none" stroke="#000" stroke-linecap="round" stroke-linejoin="round" stroke-width="1.5"/>
          </g>
          <g id="g1773" transform="translate(21.763 35.296)">
            <path id="path1775" d="M-168.918-115.8l-7.063-10.635a1.172,1.172,0,0,0-1.952,0L-185-115.8a1.172,1.172,0,0,0,.976,1.82h14.127A1.172,1.172,0,0,0-168.918-115.8Z" transform="translate(185.195 126.963)" fill="none" stroke="#000" stroke-linecap="round" stroke-linejoin="round" stroke-width="1.5"/>
          </g>
          <g id="g1777" transform="translate(4.357 15.081)">
            <path id="path1779" d="M-192.728-80.424h-15.8a.893.893,0,0,1-.621-.252l-1.88-1.821a.893.893,0,0,1-.272-.641v-3.91a1.125,1.125,0,0,1,1.125-1.125h19.094a1.125,1.125,0,0,1,1.125,1.125v3.91a.893.893,0,0,1-.272.641l-1.88,1.821A.893.893,0,0,1-192.728-80.424Z" transform="translate(211.299 88.173)" fill="none" stroke="#000" stroke-linecap="round" stroke-linejoin="round" stroke-width="1.5"/>
          </g>
          <g id="g1781" transform="translate(24.026 21.028)">
            <path id="path1783" d="M0-103.32a1.125,1.125,0,0,0,1.125-1.125v-8.831" transform="translate(0 113.276)" fill="none" stroke="#000" stroke-linecap="round" stroke-linejoin="round" stroke-width="1.5"/>
          </g>
          <g id="g1785" transform="translate(4.908 21.028)">
            <path id="path1787" d="M0,0V8.831A1.125,1.125,0,0,0,1.125,9.956" fill="none" stroke="#000" stroke-linecap="round" stroke-linejoin="round" stroke-width="1.5"/>
          </g>
          <g id="g1789" transform="translate(11.54 11.745)">
            <path id="path1791" d="M-72.423-34.622v-1.93a1.406,1.406,0,0,0-1.406-1.406H-78A1.406,1.406,0,0,0-79.4-36.553v1.93" transform="translate(79.401 37.959)" fill="none" stroke="#000" stroke-linecap="round" stroke-linejoin="round" stroke-width="1.5"/>
          </g>
          <g id="g1793" transform="translate(13.012 22.831)">
            <path id="path1795" d="M0,0V1.753a2.018,2.018,0,0,0,4.035,0V0" fill="none" stroke="#000" stroke-linecap="round" stroke-linejoin="round" stroke-width="1.5"/>
          </g>
          <g id="g1797" transform="translate(33.411 17.327)">
            <path id="path1799" d="M-40.551,0l-3.405,2.931a1.437,1.437,0,0,0,.937,2.525h1.3v8.2" transform="translate(44.459)" fill="none" stroke="#000" stroke-linecap="round" stroke-linejoin="round" stroke-width="1.5"/>
          </g>
          <g id="g1801" transform="translate(36.534 11.725)">
            <path id="path1803" d="M-136.574-199.865v-8.2h1.3a1.436,1.436,0,0,0,.937-2.525l-9.279-7.986a2.261,2.261,0,0,0-2.949,0l-6.658,5.678" transform="translate(153.228 219.124)" fill="none" stroke="#000" stroke-linecap="round" stroke-linejoin="round" stroke-width="1.5"/>
          </g>
          <g id="g1805" transform="translate(42.014 24.303)">
            <path id="path1807" d="M-55.061-69.331v-4.028a2.653,2.653,0,0,0-2.653-2.653,2.653,2.653,0,0,0-2.653,2.653v4.028" transform="translate(60.367 76.012)" fill="none" stroke="#000" stroke-linecap="round" stroke-linejoin="round" stroke-width="1.5"/>
          </g>
        </g>
      </g>
    </g>
  </g>
</svg>
