<svg width="75" height="75" viewBox="0 0 75 75" fill="none" xmlns="http://www.w3.org/2000/svg">
<g clip-path="url(#clip0_779_5088)">
<path d="M37.5 75C58.2107 75 75 58.2107 75 37.5C75 16.7893 58.2107 0 37.5 0C16.7893 0 0 16.7893 0 37.5C0 58.2107 16.7893 75 37.5 75Z" fill="#4EEAC2"/>
<path d="M59.2024 40.24C58.7698 39.3858 58.5115 38.454 58.4424 37.499C58.5115 36.544 58.7699 35.6123 59.2024 34.758C59.974 33.3861 60.1979 31.7732 59.8294 30.243C59.2278 28.7892 58.0986 27.6168 56.6684 26.961C55.8164 26.5243 55.0598 25.9227 54.4424 25.191C53.9358 24.3777 53.5958 23.4718 53.4424 22.526C53.2605 20.9622 52.4935 19.5253 51.2954 18.504C49.9547 17.6806 48.3521 17.3948 46.8094 17.704C45.8629 17.8514 44.8965 17.8092 43.9664 17.58C43.0803 17.2191 42.2747 16.6857 41.5964 16.011C40.5304 14.855 39.067 14.1446 37.4994 14.022C35.9304 14.1445 34.4658 14.8557 33.3994 16.013C32.721 16.6874 31.9154 17.2204 31.0294 17.581C30.0997 17.8106 29.1336 17.8531 28.1874 17.706C26.6444 17.397 25.0415 17.6827 23.7004 18.506C22.5045 19.5262 21.7383 20.9607 21.5554 22.522C21.4025 23.4689 21.0625 24.3759 20.5554 25.19C19.9383 25.9215 19.182 26.5232 18.3304 26.96C16.901 27.6162 15.7726 28.7886 15.1714 30.242C14.8029 31.7721 15.0266 33.3849 15.7974 34.757C16.2294 35.6114 16.4874 36.5431 16.5564 37.498C16.4874 38.4529 16.2294 39.3846 15.7974 40.239C15.0266 41.6111 14.8029 43.2239 15.1714 44.754C15.772 46.208 16.9006 47.3808 18.3304 48.037C19.1827 48.4744 19.9395 49.0771 20.5564 49.81C21.0636 50.6234 21.4035 51.5297 21.5564 52.476C21.7387 54.038 22.505 55.4733 23.7014 56.494C25.0426 57.3172 26.6454 57.6029 28.1884 57.294C29.1346 57.1466 30.1006 57.1888 31.0304 57.418C31.9166 57.7792 32.7222 58.3128 33.4004 58.988C34.4664 60.1462 35.9311 60.8582 37.5004 60.981C39.0697 60.8582 40.5344 60.1462 41.6004 58.988C42.2786 58.3128 43.0842 57.7792 43.9704 57.418C44.9004 57.1884 45.8668 57.1459 46.8134 57.293C48.3561 57.6021 49.9586 57.3163 51.2994 56.493C52.4976 55.4721 53.265 54.0355 53.4474 52.472C53.6007 51.5268 53.9407 50.6215 54.4474 49.809C55.0644 49.0764 55.8211 48.474 56.6734 48.037C58.1036 47.381 59.2325 46.2082 59.8334 44.754C60.2016 43.2237 59.9773 41.6107 59.2054 40.239L59.2024 40.24ZM57.5114 40.95C58.0034 42.121 58.4284 43.133 58.0854 44.188C57.7424 45.243 56.8054 45.811 55.7194 46.469C54.6552 47.0276 53.7161 47.7973 52.9594 48.731C52.305 49.7382 51.8627 50.8682 51.6594 52.052C51.3684 53.289 51.1174 54.352 50.2194 55.009C49.3214 55.666 48.2304 55.569 46.9644 55.464C45.7749 55.2909 44.5626 55.3616 43.4014 55.672C42.2812 56.1035 41.2605 56.7585 40.4014 57.597C39.4394 58.427 38.6084 59.144 37.5014 59.144C36.3944 59.144 35.5614 58.427 34.6014 57.597C33.7423 56.7585 32.7216 56.1035 31.6014 55.672C30.9414 55.4678 30.2532 55.3696 29.5624 55.381C29.0344 55.381 28.5234 55.424 28.0394 55.464C26.7734 55.57 25.6804 55.664 24.7834 55.009C23.8864 54.354 23.6364 53.291 23.3464 52.055C23.1436 50.8701 22.7013 49.7391 22.0464 48.731C21.29 47.7974 20.3512 47.0277 19.2874 46.469C18.2024 45.811 17.2644 45.243 16.9224 44.188C16.5804 43.133 17.0044 42.121 17.4954 40.949C18.0262 39.8719 18.3324 38.6981 18.3954 37.499C18.3324 36.2999 18.0262 35.1261 17.4954 34.049C17.0044 32.878 16.5794 31.866 16.9224 30.811C17.2654 29.756 18.2024 29.189 19.2884 28.53C20.3515 27.9715 21.2898 27.2026 22.0464 26.27C22.7013 25.2608 23.1436 24.1288 23.3464 22.943C23.6364 21.707 23.8874 20.643 24.7834 19.989C25.6794 19.335 26.7744 19.428 28.0404 19.534C29.2278 19.7051 30.4377 19.633 31.5964 19.322C32.7165 18.8907 33.7372 18.2361 34.5964 17.398C35.5584 16.568 36.3894 15.852 37.4964 15.852C38.6034 15.852 39.4364 16.568 40.3964 17.398C41.2556 18.236 42.2763 18.8906 43.3964 19.322C44.5573 19.6322 45.7692 19.703 46.9584 19.53C48.2244 19.424 49.3174 19.33 50.2144 19.985C51.1114 20.64 51.3634 21.705 51.6544 22.942C51.8578 24.1264 52.3001 25.257 52.9544 26.265C53.7111 27.1981 54.6498 27.9674 55.7134 28.526C56.7994 29.184 57.7374 29.753 58.0804 30.806C58.4234 31.859 57.9984 32.873 57.5064 34.044C56.9753 35.1213 56.6691 36.2955 56.6064 37.495C56.6691 38.6945 56.9753 39.8687 57.5064 40.946L57.5114 40.95Z" fill="#161717"/>
<path d="M31.2288 33.742C31.2873 33.9282 31.4037 34.0909 31.5611 34.2063C31.7185 34.3218 31.9086 34.384 32.1038 34.384H42.8998C43.095 34.384 43.2851 34.3218 43.4425 34.2063C43.5998 34.0909 43.7163 33.9282 43.7748 33.742L46.3148 25.67C46.3679 25.5014 46.3711 25.321 46.324 25.1506C46.277 24.9802 46.1817 24.827 46.0496 24.7095C45.9175 24.5921 45.7543 24.5152 45.5796 24.4883C45.4049 24.4615 45.2261 24.4856 45.0648 24.558L40.9738 26.387L38.2828 21.987C38.2009 21.8529 38.0859 21.7422 37.9489 21.6653C37.8119 21.5885 37.6574 21.5481 37.5003 21.5481C37.3432 21.5481 37.1887 21.5885 37.0517 21.6653C36.9147 21.7422 36.7997 21.8529 36.7178 21.987L34.0268 26.387L29.9388 24.554C29.7775 24.4817 29.5987 24.4575 29.424 24.4844C29.2493 24.5112 29.0861 24.588 28.954 24.7055C28.8219 24.823 28.7266 24.9762 28.6796 25.1466C28.6325 25.317 28.6357 25.4974 28.6888 25.666L31.2288 33.742ZM34.0138 28.395C34.2174 28.4863 34.4474 28.5003 34.6606 28.4342C34.8738 28.3681 35.0555 28.2265 35.1718 28.036L37.5008 24.224L39.8298 28.036C39.9461 28.2265 40.1278 28.3681 40.341 28.4342C40.5542 28.5003 40.7841 28.4863 40.9878 28.395L43.9498 27.067L42.2248 32.55H32.7768L31.0518 27.067L34.0138 28.395Z" fill="#161717"/>
<path d="M42.5928 37.908C42.3496 37.908 42.1163 38.0046 41.9444 38.1766C41.7724 38.3485 41.6758 38.5818 41.6758 38.825V46.491C41.6758 46.7342 41.7724 46.9675 41.9444 47.1394C42.1163 47.3114 42.3496 47.408 42.5928 47.408C42.836 47.408 43.0692 47.3114 43.2412 47.1394C43.4132 46.9675 43.5098 46.7342 43.5098 46.491V44.074H44.7268C45.1361 44.0814 45.5428 44.0071 45.9232 43.8556C46.3035 43.704 46.6498 43.4782 46.9419 43.1913C47.234 42.9045 47.466 42.5623 47.6244 42.1847C47.7827 41.8072 47.8643 41.4019 47.8643 40.9925C47.8643 40.5831 47.7827 40.1778 47.6244 39.8003C47.466 39.4227 47.234 39.0805 46.9419 38.7937C46.6498 38.5068 46.3035 38.281 45.9232 38.1294C45.5428 37.9779 45.1361 37.9036 44.7268 37.911H42.5928V37.908ZM46.0168 40.988C46.0066 41.3231 45.8662 41.6409 45.6252 41.874C45.3843 42.1071 45.062 42.2369 44.7268 42.236H43.5098V39.736H44.7268C45.0628 39.7346 45.386 39.8648 45.6272 40.0989C45.8683 40.3329 46.0082 40.6521 46.0168 40.988Z" fill="#161717"/>
<path d="M30.0489 46.805C30.1139 46.9807 30.2312 47.1323 30.385 47.2393C30.5387 47.3463 30.7216 47.4037 30.9089 47.4037C31.0963 47.4037 31.2791 47.3463 31.4329 47.2393C31.5866 47.1323 31.7039 46.9807 31.7689 46.805L34.6099 39.149C34.6945 38.9209 34.685 38.6686 34.5836 38.4475C34.4821 38.2264 34.297 38.0546 34.0689 37.97C33.8408 37.8854 33.5885 37.8949 33.3674 37.9963C33.1463 38.0978 32.9745 38.2829 32.8899 38.511L30.9079 43.851L28.9239 38.51C28.8827 38.3961 28.8194 38.2915 28.7376 38.2022C28.6557 38.1129 28.557 38.0407 28.4471 37.9898C28.3372 37.9388 28.2184 37.9102 28.0973 37.9054C27.9763 37.9007 27.8555 37.92 27.742 37.9622C27.6285 38.0044 27.5244 38.0687 27.4359 38.1513C27.3473 38.234 27.276 38.3333 27.2261 38.4436C27.1762 38.554 27.1486 38.6731 27.1449 38.7942C27.1413 38.9153 27.1617 39.0359 27.2049 39.149L30.0489 46.805Z" fill="#161717"/>
<path d="M36.8555 38.825V46.491C36.8555 46.7342 36.9521 46.9675 37.1241 47.1394C37.296 47.3114 37.5293 47.408 37.7725 47.408C38.0157 47.408 38.2489 47.3114 38.4209 47.1394C38.5929 46.9675 38.6895 46.7342 38.6895 46.491V38.825C38.6895 38.5818 38.5929 38.3485 38.4209 38.1766C38.2489 38.0046 38.0157 37.908 37.7725 37.908C37.5293 37.908 37.296 38.0046 37.1241 38.1766C36.9521 38.3485 36.8555 38.5818 36.8555 38.825Z" fill="#161717"/>
<path d="M47.8841 49.463H27.1201C26.8769 49.463 26.6437 49.5596 26.4717 49.7316C26.2997 49.9036 26.2031 50.1368 26.2031 50.38C26.2031 50.6232 26.2997 50.8565 26.4717 51.0284C26.6437 51.2004 26.8769 51.297 27.1201 51.297H47.8831C48.1263 51.297 48.3596 51.2004 48.5315 51.0284C48.7035 50.8565 48.8001 50.6232 48.8001 50.38C48.8001 50.1368 48.7035 49.9036 48.5315 49.7316C48.3596 49.5596 48.1273 49.463 47.8841 49.463Z" fill="#161717"/>
</g>
<defs>
<clipPath id="clip0_779_5088">
<rect width="75" height="75" fill="white"/>
</clipPath>
</defs>
</svg>
