<svg width="75" height="75" viewBox="0 0 75 75" fill="none" xmlns="http://www.w3.org/2000/svg">
<path d="M37.5 75C58.2107 75 75 58.2107 75 37.5C75 16.7893 58.2107 0 37.5 0C16.7893 0 0 16.7893 0 37.5C0 58.2107 16.7893 75 37.5 75Z" fill="#EEC9FF"/>
<mask id="mask0_781_5180" style="mask-type:luminance" maskUnits="userSpaceOnUse" x="19" y="19" width="36" height="38">
<path d="M19 19H55V57H19V19Z" fill="white"/>
</mask>
<g mask="url(#mask0_781_5180)">
<path d="M30.9485 37.9048C30.9485 39.3006 30.3862 40.6392 29.3852 41.6262C28.3842 42.6132 27.0266 43.1677 25.611 43.1677C24.1954 43.1677 22.8378 42.6132 21.8368 41.6262C20.8358 40.6392 20.2734 39.3006 20.2734 37.9048C20.2734 36.509 20.8358 35.1704 21.8368 34.1834C22.8378 33.1964 24.1954 32.642 25.611 32.642C27.0266 32.642 28.3842 33.1964 29.3852 34.1834C30.3862 35.1704 30.9485 36.509 30.9485 37.9048Z" stroke="black" stroke-width="1.15" stroke-miterlimit="10" stroke-linecap="round" stroke-linejoin="round"/>
<path d="M41.3926 29.5806C43.0093 30.4474 44.3408 31.7521 45.2299 33.3407" stroke="black" stroke-width="1.15" stroke-miterlimit="10" stroke-linecap="round" stroke-linejoin="round"/>
<path d="M28.4648 33.2343C29.3334 31.7277 30.603 30.4836 32.1364 29.6365" stroke="black" stroke-width="1.15" stroke-miterlimit="10" stroke-linecap="round" stroke-linejoin="round"/>
<path d="M32.2409 46.2291C30.6319 45.3664 29.3053 44.07 28.416 42.4913" stroke="black" stroke-width="1.15" stroke-miterlimit="10" stroke-linecap="round" stroke-linejoin="round"/>
<path d="M45.2684 42.3995C44.3992 43.9836 43.0917 45.2918 41.498 46.172" stroke="black" stroke-width="1.15" stroke-miterlimit="10" stroke-linecap="round" stroke-linejoin="round"/>
<path d="M53.3528 37.9048C53.3528 39.3006 52.7905 40.6392 51.7895 41.6262C50.7885 42.6132 49.4309 43.1677 48.0153 43.1677C46.5997 43.1677 45.2421 42.6132 44.2411 41.6262C43.2401 40.6392 42.6777 39.3006 42.6777 37.9048C42.6777 36.509 43.2401 35.1704 44.2411 34.1834C45.2421 33.1964 46.5997 32.642 48.0153 32.642C49.4309 32.642 50.7885 33.1964 51.7895 34.1834C52.7905 35.1704 53.3528 36.509 53.3528 37.9048Z" stroke="black" stroke-width="1.15" stroke-miterlimit="10" stroke-linecap="round" stroke-linejoin="round"/>
<path d="M35.4844 28.0107C35.4844 28.5045 36.0817 28.9065 36.8176 28.9065C37.5535 28.9065 38.1509 28.5056 38.1509 28.0107C38.1509 27.3713 37.6171 27.1148 36.8176 26.8607C36.0181 26.6065 35.4844 26.3489 35.4844 25.7096C35.4844 25.2157 36.0817 24.8138 36.8176 24.8138C37.5535 24.8138 38.1509 25.2146 38.1509 25.7096" stroke="black" stroke-width="1.15" stroke-miterlimit="10" stroke-linecap="round" stroke-linejoin="round"/>
<path d="M36.8184 24.2304V24.8149" stroke="black" stroke-width="1.15" stroke-miterlimit="10" stroke-linecap="round" stroke-linejoin="round"/>
<path d="M36.8184 28.9053V29.4898" stroke="black" stroke-width="1.15" stroke-miterlimit="10" stroke-linecap="round" stroke-linejoin="round"/>
<path d="M27.2178 39.7267C26.8937 39.9114 26.5258 40.0083 26.1515 40.0077C25.5855 40.0077 25.0428 39.786 24.6426 39.3915C24.2424 38.9969 24.0176 38.4617 24.0176 37.9037C24.0176 37.6274 24.0728 37.3538 24.18 37.0985C24.2872 36.8433 24.4444 36.6113 24.6426 36.4159C24.8407 36.2205 25.076 36.0656 25.3349 35.9598C25.5937 35.8541 25.8712 35.7997 26.1515 35.7997C26.5253 35.7989 26.8928 35.8955 27.2167 36.0796" stroke="black" stroke-width="1.15" stroke-miterlimit="10" stroke-linecap="round" stroke-linejoin="round"/>
<path d="M22.9492 37.9048H26.1495" stroke="black" stroke-width="1.15" stroke-miterlimit="10" stroke-linecap="round" stroke-linejoin="round"/>
<path d="M35.2168 46.8461L36.8169 48.9501L38.417 46.8461" stroke="black" stroke-width="1.15" stroke-miterlimit="10" stroke-linecap="round" stroke-linejoin="round"/>
<path d="M36.8184 51.5793V48.9501" stroke="black" stroke-width="1.15" stroke-miterlimit="10" stroke-linecap="round" stroke-linejoin="round"/>
<path d="M35.75 50.0015H37.8839" stroke="black" stroke-width="1.15" stroke-miterlimit="10" stroke-linecap="round" stroke-linejoin="round"/>
<path d="M49.6196 40.0088H46.9531V36.8534C46.9531 36.4349 47.1217 36.0336 47.4218 35.7377C47.7219 35.4418 48.1289 35.2756 48.5533 35.2756C48.9776 35.2756 49.3846 35.4418 49.6847 35.7377C49.9848 36.0336 50.1534 36.4349 50.1534 36.8534" stroke="black" stroke-width="1.15" stroke-miterlimit="10" stroke-linecap="round" stroke-linejoin="round"/>
<path d="M45.8867 37.9048H48.5532" stroke="black" stroke-width="1.15" stroke-miterlimit="10" stroke-linecap="round" stroke-linejoin="round"/>
<path d="M41.267 23.9605C40.8063 23.2107 40.1503 22.5963 39.3672 22.1812C38.5841 21.7661 37.7025 21.5654 36.8141 21.6001C35.3985 21.6001 34.0409 22.1545 33.0399 23.1415C32.0389 24.1285 31.4766 25.4671 31.4766 26.8629C31.4766 28.2587 32.0389 29.5973 33.0399 30.5843C34.0409 31.5713 35.3985 32.1258 36.8141 32.1258C38.2297 32.1258 39.5873 31.5713 40.5883 30.5843C41.5893 29.5973 42.1517 28.2587 42.1517 26.8629C42.1526 25.8316 41.8444 24.823 41.2658 23.9639" stroke="black" stroke-width="1.15" stroke-miterlimit="10" stroke-linecap="round" stroke-linejoin="round"/>
<path d="M41.267 46.051C40.7768 45.3288 40.1146 44.7361 39.3384 44.3246C38.5621 43.9131 37.6954 43.6954 36.8141 43.6906C35.3985 43.6906 34.0409 44.2451 33.0399 45.232C32.0389 46.219 31.4766 47.5576 31.4766 48.9534C31.4766 50.3492 32.0389 51.6879 33.0399 52.6748C34.0409 53.6618 35.3985 54.2163 36.8141 54.2163C38.2297 54.2163 39.5873 53.6618 40.5883 52.6748C41.5893 51.6879 42.1517 50.3492 42.1517 48.9534C42.1526 47.9221 41.8444 46.9135 41.2658 46.0544" stroke="black" stroke-width="1.15" stroke-miterlimit="10" stroke-linecap="round" stroke-linejoin="round"/>
</g>
</svg>
