<svg width="46" height="47" viewBox="0 0 46 47" fill="none" xmlns="http://www.w3.org/2000/svg">
<path d="M43.4123 11.642L36.4961 3.5491C35.2093 2.04382 33.3334 1.17949 31.349 1.17949H7.44081C3.70835 1.17949 0.671875 4.21758 0.671875 7.95005V39.4089C0.671875 43.1414 3.70835 46.1795 7.44081 46.1795H38.2668C41.9993 46.1795 45.0374 43.1414 45.0374 39.4089V16.0414C45.0358 14.4309 44.4596 12.8689 43.4123 11.642ZM32.1437 43.2628H13.5607V30.0341C13.5607 29.0127 14.3926 28.1824 15.414 28.1824H30.2904C31.3118 28.1824 32.1437 29.0127 32.1437 30.0341V43.2628ZM42.1207 39.4073C42.1207 41.5325 40.392 43.2628 38.2652 43.2628H35.0588V30.0341C35.0588 27.4071 32.9206 25.2689 30.292 25.2689H15.4156C12.787 25.2689 10.6489 27.4071 10.6489 30.0341V43.2628H7.44081C5.31561 43.2628 3.58533 41.5341 3.58533 39.4073V7.94843C3.58533 5.82322 5.31561 4.09295 7.44081 4.09295H31.349C32.4788 4.09295 33.547 4.585 34.2802 5.44285L41.1965 13.5342C41.7937 14.2334 42.1207 15.1236 42.1207 16.0414V39.4073Z" fill="#101010" stroke="#ECF8FF"/>
<path d="M12.1052 12.8495H21.7568C22.5612 12.8495 23.2135 12.1972 23.2135 11.3927C23.2135 10.5883 22.5612 9.936 21.7568 9.936H12.1052C11.3007 9.936 10.6484 10.5883 10.6484 11.3927C10.6484 12.1972 11.3007 12.8495 12.1052 12.8495Z" fill="#171717" stroke="#ECF8FF"/>
<path d="M33.6033 16.5107H12.1052C11.3007 16.5107 10.6484 17.163 10.6484 17.9675C10.6484 18.7719 11.3007 19.4242 12.1052 19.4242H33.6016C34.4061 19.4242 35.0584 18.7719 35.0584 17.9675C35.0584 17.163 34.4077 16.5107 33.6033 16.5107Z" fill="#171717" stroke="#ECF8FF"/>
</svg>
