<svg width="75" height="75" viewBox="0 0 75 75" fill="none" xmlns="http://www.w3.org/2000/svg">
<path d="M37.5 75C58.2107 75 75 58.2107 75 37.5C75 16.7893 58.2107 0 37.5 0C16.7893 0 0 16.7893 0 37.5C0 58.2107 16.7893 75 37.5 75Z" fill="#EEC9FF"/>
<g clip-path="url(#clip0_415_4365)">
<path d="M54.775 45.2158H25.9596C25.6975 45.2152 25.4464 45.111 25.261 44.9259C25.0757 44.7408 24.9713 44.4899 24.9707 44.2282V23.0462C24.9701 22.7845 24.8657 22.5336 24.6803 22.3486C24.495 22.1635 24.2438 22.0592 23.9818 22.0586H21.2272C20.9649 22.0586 20.7134 22.1626 20.5279 22.3479C20.3425 22.5331 20.2383 22.7843 20.2383 23.0462C20.2383 23.3082 20.3425 23.5594 20.5279 23.7446C20.7134 23.9298 20.9649 24.0339 21.2272 24.0339H23.0059V44.2365C23.0059 45.0217 23.3182 45.7747 23.8741 46.3299C24.4301 46.8851 25.1841 47.197 25.9703 47.197H54.7845C55.0468 47.197 55.2983 47.093 55.4838 46.9077C55.6693 46.7225 55.7735 46.4713 55.7735 46.2094C55.7735 45.9474 55.6693 45.6962 55.4838 45.511C55.2983 45.3258 55.0468 45.2218 54.7845 45.2218L54.775 45.2158Z" fill="#363636" stroke="#EEC9FF" stroke-width="0.5" stroke-linecap="round"/>
<path d="M48.1191 47.7813C47.3288 47.7812 46.5562 48.0153 45.899 48.4538C45.2419 48.8923 44.7297 49.5156 44.4272 50.2448C44.1248 50.9741 44.0456 51.7765 44.1998 52.5506C44.354 53.3247 44.7346 54.0358 45.2935 54.594C45.8523 55.1521 46.5643 55.5322 47.3395 55.6861C48.1147 55.8401 48.9181 55.7611 49.6483 55.459C50.3785 55.157 51.0026 54.6455 51.4417 53.9892C51.8808 53.3329 52.1151 52.5613 52.1151 51.772C52.1111 50.7149 51.6888 49.7021 50.9402 48.9546C50.1917 48.2071 49.1777 47.7853 48.1191 47.7813ZM48.1191 53.7473C47.7188 53.7473 47.3274 53.6287 46.9946 53.4066C46.6617 53.1845 46.4023 52.8688 46.2491 52.4994C46.0959 52.1301 46.0558 51.7236 46.1339 51.3315C46.212 50.9394 46.4048 50.5792 46.6878 50.2965C46.9709 50.0138 47.3316 49.8212 47.7242 49.7432C48.1169 49.6653 48.5238 49.7053 48.8937 49.8583C49.2635 50.0113 49.5797 50.2704 49.8021 50.6028C50.0245 50.9352 50.1432 51.3261 50.1432 51.7259C50.1311 52.2582 49.914 52.7654 49.537 53.1419C49.16 53.5184 48.6521 53.7352 48.1191 53.7473Z" fill="#363636" stroke="#EEC9FF" stroke-width="0.5" stroke-linecap="round"/>
<path d="M49.0998 20.2363H30.4488C29.6626 20.2363 28.9086 20.5482 28.3526 21.1034C27.7967 21.6587 27.4844 22.4117 27.4844 23.1969V40.2921C27.4844 41.0773 27.7967 41.8303 28.3526 42.3855C28.9086 42.9407 29.6626 43.2526 30.4488 43.2526H49.101C49.8872 43.2526 50.6412 42.9407 51.1971 42.3855C51.7531 41.8303 52.0654 41.0773 52.0654 40.2921V23.1969C52.0654 22.808 51.9887 22.4229 51.8396 22.0636C51.6906 21.7044 51.4721 21.378 51.1967 21.103C50.9213 20.8281 50.5944 20.6101 50.2346 20.4613C49.8748 20.3126 49.4892 20.2362 49.0998 20.2363ZM50.0887 40.2921C50.0881 40.5539 49.9837 40.8047 49.7984 40.9898C49.6131 41.1749 49.3619 41.2791 49.0998 41.2798H30.4488C30.1875 41.2779 29.9376 41.1731 29.7533 40.9881C29.569 40.8032 29.4652 40.553 29.4646 40.2921V36.6969H31.5836C31.7135 36.6969 31.8421 36.6713 31.962 36.6217C32.082 36.572 32.191 36.4993 32.2829 36.4076C32.3747 36.3159 32.4475 36.207 32.4972 36.0872C32.5469 35.9673 32.5725 35.8389 32.5725 35.7092C32.5725 35.5795 32.5469 35.4511 32.4972 35.3313C32.4475 35.2114 32.3747 35.1026 32.2829 35.0109C32.191 34.9192 32.082 34.8464 31.962 34.7968C31.8421 34.7471 31.7135 34.7216 31.5836 34.7216H29.4646V32.7499H33.5615C33.8237 32.7499 34.0753 32.6458 34.2607 32.4606C34.4462 32.2754 34.5504 32.0242 34.5504 31.7622C34.5504 31.5003 34.4462 31.2491 34.2607 31.0639C34.0753 30.8787 33.8237 30.7746 33.5615 30.7746H29.4646V23.1969C29.4652 22.9351 29.5696 22.6843 29.755 22.4992C29.9403 22.3141 30.1915 22.2098 30.4535 22.2092H35.0911V27.3309C35.0917 27.499 35.135 27.6643 35.217 27.8111C35.299 27.9579 35.4171 28.0815 35.56 28.1702C35.703 28.259 35.8661 28.3101 36.0343 28.3186C36.2024 28.3272 36.3699 28.2929 36.5211 28.2191L38.6935 27.1379L40.4721 28.4192C40.5943 28.5014 40.7323 28.5569 40.8774 28.5822C41.0225 28.6075 41.1712 28.602 41.314 28.5661L43.7804 27.878C43.9918 27.8294 44.1803 27.7104 44.315 27.5406C44.4496 27.3708 44.5225 27.1603 44.5215 26.9437V22.2069H49.1128C49.3745 22.2087 49.6248 22.3139 49.8092 22.4993C49.9936 22.6848 50.097 22.9355 50.097 23.1969V40.2921H50.0887ZM42.4903 22.2057V26.1491L41.2037 26.5434L39.3302 25.21C39.1799 25.1076 39.006 25.0447 38.8248 25.0274C38.6437 25.01 38.461 25.0386 38.2939 25.1105L37.0535 25.7559V22.2033L42.4903 22.2057Z" fill="#363636" stroke="#EEC9FF" stroke-width="0.5" stroke-linecap="round"/>
<path d="M31.4824 47.7813C30.692 47.7812 29.9194 48.0153 29.2623 48.4538C28.6051 48.8923 28.093 49.5156 27.7905 50.2448C27.4881 50.9741 27.4089 51.7765 27.5631 52.5506C27.7173 53.3247 28.0979 54.0358 28.6567 54.594C29.2156 55.1521 29.9276 55.5322 30.7028 55.6861C31.4779 55.8401 32.2814 55.7611 33.0116 55.459C33.7418 55.157 34.3659 54.6455 34.805 53.9892C35.2441 53.3329 35.4784 52.5613 35.4784 51.772C35.4744 50.7149 35.0521 49.7021 34.3035 48.9546C33.555 48.2071 32.5409 47.7853 31.4824 47.7813ZM31.4824 53.7473C31.082 53.7473 30.6907 53.6287 30.3578 53.4066C30.025 53.1845 29.7655 52.8688 29.6123 52.4994C29.4591 52.1301 29.4191 51.7236 29.4972 51.3315C29.5753 50.9394 29.768 50.5792 30.0511 50.2965C30.3342 50.0138 30.6949 49.8212 31.0875 49.7432C31.4801 49.6653 31.8871 49.7053 32.257 49.8583C32.6268 50.0113 32.943 50.2704 33.1654 50.6028C33.3878 50.9352 33.5065 51.3261 33.5065 51.7259C33.4965 52.2588 33.28 52.7672 32.9025 53.1442C32.5251 53.5211 32.0161 53.7373 31.4824 53.7473Z" fill="#363636" stroke="#EEC9FF" stroke-width="0.5" stroke-linecap="round"/>
</g>
<defs>
<clipPath id="clip0_415_4365">
<rect width="36" height="36" fill="white" transform="translate(20 20)"/>
</clipPath>
</defs>
</svg>
