<svg width="35" height="47" viewBox="0 0 35 47" fill="none" xmlns="http://www.w3.org/2000/svg">
<path d="M30.5547 9.01981H28.3572V3.74475C28.3571 3.25826 28.2417 2.77874 28.0203 2.34554C27.799 1.91233 27.478 1.5378 27.0838 1.25269C26.6897 0.967584 26.2335 0.780022 25.7528 0.705407C25.272 0.630791 24.7805 0.671249 24.3184 0.82346L2.78441 7.9248C2.16911 8.12698 1.63348 8.51849 1.25407 9.04338C0.874653 9.56827 0.670881 10.1997 0.671879 10.8473V42.5977C0.674193 43.4124 0.999205 44.193 1.57576 44.7687C2.15232 45.3443 2.93345 45.668 3.74816 45.669H30.5547C31.3703 45.668 32.1522 45.3436 32.7289 44.7669C33.3056 44.1902 33.63 43.4083 33.631 42.5927V12.0948C33.6297 11.2795 33.3051 10.4979 32.7285 9.92149C32.1518 9.34506 31.3701 9.0208 30.5547 9.01981ZM30.9948 42.594C30.9948 42.7107 30.9484 42.8226 30.8659 42.9051C30.7834 42.9876 30.6714 43.034 30.5547 43.034H3.74816C3.69038 43.034 3.63317 43.0226 3.57978 43.0005C3.5264 42.9784 3.47789 42.946 3.43703 42.9051C3.39618 42.8642 3.36377 42.8157 3.34166 42.7624C3.31954 42.709 3.30816 42.6518 3.30816 42.594V12.0948C3.30816 12.0371 3.31954 11.9798 3.34166 11.9265C3.36377 11.8731 3.39618 11.8246 3.43703 11.7837C3.47789 11.7429 3.5264 11.7104 3.57978 11.6883C3.63317 11.6662 3.69038 11.6548 3.74816 11.6548H30.5547C30.6714 11.6548 30.7834 11.7012 30.8659 11.7837C30.9484 11.8662 30.9948 11.9782 30.9948 12.0948V42.594ZM25.1434 3.32724C25.2095 3.30551 25.2797 3.29975 25.3485 3.31042C25.4172 3.32109 25.4824 3.34789 25.5387 3.38863C25.5951 3.42937 25.641 3.48288 25.6726 3.54478C25.7043 3.60668 25.7209 3.67521 25.7209 3.74475V9.01981H7.88572L25.1434 3.32724Z" fill="#171717" stroke="#EEF9FF" stroke-linecap="round"/>
<path d="M8.4452 27.0013H25.8579C26.2057 26.9907 26.5357 26.8451 26.778 26.5953C27.0203 26.3455 27.1558 26.0112 27.1558 25.6632C27.1558 25.3152 27.0203 24.9809 26.778 24.7311C26.5357 24.4813 26.2057 24.3357 25.8579 24.3251H25.4829C25.2215 22.5381 24.4013 20.8797 23.1399 19.5872C21.8785 18.2948 20.2404 17.4347 18.4603 17.13V16.46C18.4603 16.1135 18.3227 15.7813 18.0777 15.5363C17.8328 15.2913 17.5005 15.1537 17.154 15.1537C16.8076 15.1537 16.4754 15.2913 16.2304 15.5363C15.9854 15.7813 15.8478 16.1135 15.8478 16.46V17.13C14.0677 17.4347 12.4297 18.2948 11.1682 19.5872C9.90678 20.8797 9.08663 22.5381 8.8252 24.3251H8.4502C8.10238 24.3357 7.77237 24.4813 7.5301 24.7311C7.28783 24.9809 7.15234 25.3152 7.15234 25.6632C7.15234 26.0112 7.28783 26.3455 7.5301 26.5953C7.77237 26.8451 8.10238 26.9907 8.4502 27.0013H8.4452ZM17.1516 19.7025C18.4812 19.7158 19.7668 20.1808 20.7972 21.0213C21.8276 21.8618 22.5415 23.0277 22.8216 24.3276H11.4827C11.7629 23.0279 12.4766 21.8622 13.5067 21.0217C14.5368 20.1812 15.8221 19.716 17.1516 19.7025Z" fill="#171717" stroke="#EEF9FF" stroke-linecap="round"/>
<path d="M8.85767 30.4363C8.50277 30.4363 8.16241 30.5773 7.91146 30.8282C7.66051 31.0792 7.51953 31.4195 7.51953 31.7744C7.51953 32.1293 7.66051 32.4697 7.91146 32.7206C8.16241 32.9716 8.50277 33.1126 8.85767 33.1126H15.2802C15.6351 33.1126 15.9755 32.9716 16.2265 32.7206C16.4774 32.4697 16.6184 32.1293 16.6184 31.7744C16.6184 31.4195 16.4774 31.0792 16.2265 30.8282C15.9755 30.5773 15.6351 30.4363 15.2802 30.4363H8.85767Z" fill="#171717" stroke="#EEF9FF" stroke-linecap="round"/>
<path d="M25.5207 35.7051H8.77051C8.42269 35.7158 8.09268 35.8614 7.85041 36.1112C7.60814 36.361 7.47266 36.6953 7.47266 37.0433C7.47266 37.3913 7.60814 37.7256 7.85041 37.9754C8.09268 38.2252 8.42269 38.3708 8.77051 38.3814H25.5207C25.8685 38.3708 26.1986 38.2252 26.4408 37.9754C26.6831 37.7256 26.8186 37.3913 26.8186 37.0433C26.8186 36.6953 26.6831 36.361 26.4408 36.1112C26.1986 35.8614 25.8685 35.7158 25.5207 35.7051Z" fill="#171717" stroke="#EEF9FF" stroke-linecap="round"/>
</svg>
