<svg width="46" height="46" viewBox="0 0 46 46" fill="none" xmlns="http://www.w3.org/2000/svg">
<g clip-path="url(#clip0_1689_9674)">
<path d="M44.9062 35.7422L44.2642 30.6066L43.5625 1.11121L43.5449 1.11191C43.5414 0.962849 43.5077 0.815193 43.4134 0.695662C43.2805 0.524099 43.0759 0.424255 42.8594 0.424255H14.7344C14.4116 0.424255 14.1304 0.644334 14.0523 0.957224L12.6461 6.58222C12.5934 6.79246 12.6412 7.01465 12.7741 7.1848C12.8964 7.3416 13.0806 7.42879 13.2775 7.44355L12.3775 20.1118H3.85C3.21156 20.1118 2.64906 20.5386 2.48383 21.1475L0.727422 27.47C0.607188 27.8918 0.690156 28.3348 0.955938 28.6871C1.22664 29.0464 1.64078 29.2524 2.09219 29.2524H2.1393L2.71656 35.5805H2.07812C1.30258 35.5805 0.671875 36.2112 0.671875 36.9868V44.018C0.671875 44.7936 1.30258 45.4243 2.07812 45.4243H44.2656C45.0412 45.4243 45.6719 44.7936 45.6719 44.018V36.9868C45.6719 36.4432 45.359 35.9764 44.9062 35.7422ZM42.2807 6.34246L42.8594 30.6748C42.8594 30.6987 42.8615 30.7219 42.8643 30.7458L43.469 35.5805H39.4366L40.0455 30.7001L41.413 7.45551H41.4531C41.7759 7.45551 42.0571 7.23543 42.1352 6.92254L42.2807 6.34246ZM40.904 6.04926H30.9062V1.83051H41.9587L40.904 6.04926ZM25.2812 1.83051H29.5V7.7241L29.1112 7.53004C28.9136 7.4309 28.6802 7.4309 28.4819 7.53004L27.3906 8.07566L26.2987 7.53004C26.1011 7.4309 25.8677 7.4309 25.6694 7.53004L25.2812 7.7241V1.83051ZM14.6866 7.45551H22.4688C22.8569 7.45551 23.1719 7.14121 23.1719 6.75238C23.1719 6.36355 22.8569 6.04926 22.4688 6.04926H14.2288L15.2835 1.83051H23.875V8.86176C23.875 9.10574 24.0016 9.33144 24.2083 9.46011C24.4157 9.58879 24.6752 9.59933 24.8924 9.49105L25.9844 8.94472L27.0763 9.49035C27.2739 9.58949 27.5073 9.58949 27.7056 9.49035L28.7969 8.94472L29.8888 9.49035C29.988 9.54027 30.0955 9.56488 30.2031 9.56488C30.3318 9.56488 30.4598 9.52972 30.573 9.46011C30.7797 9.33144 30.9062 9.10574 30.9062 8.86176V7.45551H40.0047L38.6462 30.5714L38.0198 35.5805H22.5341L23.1114 29.2524H23.1585C23.6099 29.2524 24.0241 29.0464 24.2955 28.6871C24.5605 28.3348 24.6442 27.8911 24.5254 27.4749L22.7683 21.1503C22.6009 20.5386 22.0384 20.1118 21.4 20.1118H13.788L14.6866 7.45551ZM3.85 21.518L21.412 21.5236L23.1578 27.8461H15.4375H9.8125H2.78125L2.08023 27.8518L3.85 21.518ZM10.5156 29.2524H14.7344V30.6586H10.5156V29.2524ZM9.10938 29.2524V30.6586C9.10938 31.4342 9.74008 32.0649 10.5156 32.0649H14.7344C15.5099 32.0649 16.1406 31.4342 16.1406 30.6586V29.2524H21.6918L21.0625 35.5805L4.12844 35.5798L3.55188 29.2524H9.10938ZM44.2656 44.018H2.07812V36.9868H4.12422H21.1258H26.6875V39.7993H19.6562V38.393C19.6562 38.0042 19.3412 37.6899 18.9531 37.6899C18.565 37.6899 18.25 38.0042 18.25 38.393V39.7993C18.25 40.5748 18.8807 41.2055 19.6562 41.2055H26.6875C27.463 41.2055 28.0938 40.5748 28.0938 39.7993V36.9868H44.2656V44.018Z" fill="black"/>
</g>
<defs>
<clipPath id="clip0_1689_9674">
<rect width="45" height="45" fill="white" transform="translate(0.671875 0.424255)"/>
</clipPath>
</defs>
</svg>
