<svg width="48" height="46" viewBox="0 0 48 46" fill="none" xmlns="http://www.w3.org/2000/svg">
<path d="M15.3342 11.5492V21.5892C15.3342 21.7219 15.3869 21.849 15.4807 21.9428C15.5744 22.0366 15.7016 22.0892 15.8342 22.0892H32.4842C32.6168 22.0892 32.744 22.0366 32.8378 21.9428C32.9315 21.849 32.9842 21.7219 32.9842 21.5892V11.5492C33.5504 11.4186 34.0559 11.1007 34.4189 10.647C34.7819 10.1933 34.9811 9.63029 34.9842 9.04925C34.9841 8.99127 34.974 8.93375 34.9542 8.87925L33.0292 3.29925V3.26925V0.924255C33.0292 0.791647 32.9765 0.66447 32.8828 0.570702C32.789 0.476934 32.6618 0.424255 32.5292 0.424255H15.7542C15.6216 0.424255 15.4944 0.476934 15.4007 0.570702C15.3069 0.66447 15.2542 0.791647 15.2542 0.924255V3.47425L13.3542 8.86425C13.3344 8.91875 13.3243 8.97627 13.3242 9.03425C13.3245 9.61924 13.5236 10.1868 13.8888 10.6437C14.254 11.1007 14.7637 11.42 15.3342 11.5492ZM20.8342 21.0492V14.5042H27.5042V21.0742L20.8342 21.0492ZM31.9742 21.0492H28.5392V13.9842C28.5392 13.8516 28.4865 13.7245 28.3928 13.6307C28.299 13.5369 28.1718 13.4842 28.0392 13.4842H20.3142C20.1816 13.4842 20.0544 13.5369 19.9607 13.6307C19.8669 13.7245 19.8142 13.8516 19.8142 13.9842V21.0742H16.3692V11.5742C17.0108 11.4577 17.5834 11.0999 17.9692 10.5742C18.21 10.8951 18.5222 11.1555 18.881 11.3349C19.2399 11.5142 19.6355 11.6076 20.0367 11.6076C20.4379 11.6076 20.8335 11.5142 21.1924 11.3349C21.5512 11.1555 21.8634 10.8951 22.1042 10.5742C22.3445 10.8951 22.6562 11.1555 23.0147 11.3348C23.3731 11.5142 23.7684 11.6076 24.1692 11.6076C24.57 11.6076 24.9653 11.5142 25.3238 11.3348C25.6822 11.1555 25.9939 10.8951 26.2342 10.5742C26.475 10.8951 26.7872 11.1555 27.146 11.3349C27.5049 11.5142 27.9005 11.6076 28.3017 11.6076C28.7029 11.6076 29.0985 11.5142 29.4574 11.3349C29.8162 11.1555 30.1284 10.8951 30.3692 10.5742C30.7551 11.0999 31.3276 11.4577 31.9692 11.5742L31.9742 21.0492ZM16.2692 1.44925H31.9792V2.94925H16.2692V1.44925ZM16.1692 3.98925H32.1692L33.9742 9.11925C33.9435 9.51581 33.7616 9.88541 33.466 10.1516C33.1704 10.4177 32.7839 10.5601 32.3863 10.5491C31.9887 10.5382 31.6105 10.3749 31.33 10.0929C31.0495 9.81092 30.8881 9.4319 30.8792 9.03425C30.8792 8.897 30.8247 8.76537 30.7276 8.66832C30.6306 8.57127 30.499 8.51675 30.3617 8.51675C30.2245 8.51675 30.0928 8.57127 29.9958 8.66832C29.8987 8.76537 29.8442 8.897 29.8442 9.03425C29.8442 9.44534 29.6809 9.83958 29.3902 10.1303C29.0995 10.4209 28.7053 10.5842 28.2942 10.5842C27.8831 10.5842 27.4889 10.4209 27.1982 10.1303C26.9075 9.83958 26.7442 9.44534 26.7442 9.03425C26.7442 8.89766 26.69 8.76667 26.5934 8.67009C26.4968 8.57351 26.3658 8.51925 26.2292 8.51925C26.0926 8.51925 25.9616 8.57351 25.8651 8.67009C25.7685 8.76667 25.7142 8.89766 25.7142 9.03425C25.7142 9.44534 25.5509 9.83958 25.2602 10.1303C24.9695 10.4209 24.5753 10.5842 24.1642 10.5842C23.7531 10.5842 23.3589 10.4209 23.0682 10.1303C22.7775 9.83958 22.6142 9.44534 22.6142 9.03425C22.6142 8.89766 22.56 8.76667 22.4634 8.67009C22.3668 8.57351 22.2358 8.51925 22.0992 8.51925C21.9626 8.51925 21.8316 8.57351 21.7351 8.67009C21.6385 8.76667 21.5842 8.89766 21.5842 9.03425C21.5842 9.44534 21.4209 9.83958 21.1302 10.1303C20.8395 10.4209 20.4453 10.5842 20.0342 10.5842C19.6231 10.5842 19.2289 10.4209 18.9382 10.1303C18.6475 9.83958 18.4842 9.44534 18.4842 9.03425C18.4842 8.897 18.4297 8.76537 18.3326 8.66832C18.2356 8.57127 18.104 8.51675 17.9667 8.51675C17.8295 8.51675 17.6978 8.57127 17.6008 8.66832C17.5037 8.76537 17.4492 8.897 17.4492 9.03425C17.4404 9.4319 17.279 9.81092 16.9985 10.0929C16.7179 10.3749 16.3398 10.5382 15.9422 10.5491C15.5446 10.5601 15.158 10.4177 14.8624 10.1516C14.5668 9.88541 14.3849 9.51581 14.3542 9.11925L16.1692 3.98925Z" fill="black"/>
<path d="M14.7669 32.0643V30.4543C14.7669 30.3216 14.7142 30.1945 14.6204 30.1007C14.5267 30.0069 14.3995 29.9543 14.2669 29.9543H2.52687C2.39427 29.9543 2.26709 30.0069 2.17332 30.1007C2.07955 30.1945 2.02687 30.3216 2.02687 30.4543V32.2343L0.701875 35.9593C0.682094 36.0138 0.671943 36.0713 0.671875 36.1293C0.672371 36.551 0.809561 36.9611 1.06287 37.2983C1.31619 37.6354 1.67197 37.8814 2.07687 37.9993V44.9242C2.07687 45.0569 2.12955 45.184 2.22332 45.2778C2.31709 45.3716 2.44427 45.4242 2.57687 45.4242H14.2419C14.3745 45.4242 14.5017 45.3716 14.5954 45.2778C14.6892 45.184 14.7419 45.0569 14.7419 44.9242V38.0043C15.151 37.8885 15.5115 37.6432 15.7694 37.3051C16.0272 36.967 16.1684 36.5544 16.1719 36.1293C16.1718 36.0713 16.1616 36.0138 16.1419 35.9593L14.7669 32.0643ZM3.04187 30.9693H13.7319V31.7193H3.04187V30.9693ZM6.23687 44.4242V40.1093H10.6019V44.4242H6.23687ZM13.7369 44.4242H11.6319V39.5942C11.6319 39.4616 11.5792 39.3345 11.4854 39.2407C11.3917 39.1469 11.2645 39.0942 11.1319 39.0942H5.71687C5.58426 39.0942 5.45709 39.1469 5.36332 39.2407C5.26955 39.3345 5.21687 39.4616 5.21687 39.5942V44.4242H3.11187V38.0293C3.48366 37.9346 3.82038 37.735 4.08187 37.4542C4.26549 37.6546 4.48877 37.8146 4.73753 37.9241C4.98629 38.0335 5.2551 38.09 5.52687 38.09C5.79865 38.09 6.06745 38.0335 6.31621 37.9241C6.56497 37.8146 6.78825 37.6546 6.97187 37.4542C7.15594 37.6547 7.37965 37.8148 7.62882 37.9243C7.87799 38.0338 8.1472 38.0904 8.41937 38.0904C8.69154 38.0904 8.96075 38.0338 9.20992 37.9243C9.45909 37.8148 9.6828 37.6547 9.86687 37.4542C10.0505 37.6546 10.2738 37.8146 10.5225 37.9241C10.7713 38.0335 11.0401 38.09 11.3119 38.09C11.5836 38.09 11.8524 38.0335 12.1012 37.9241C12.35 37.8146 12.5732 37.6546 12.7569 37.4542C13.0154 37.7351 13.3511 37.9333 13.7219 38.0242L13.7369 44.4242ZM14.2369 37.0843C13.9906 37.0829 13.7548 36.9845 13.5807 36.8104C13.4066 36.6363 13.3082 36.4005 13.3069 36.1543C13.3069 36.0177 13.2526 35.8867 13.156 35.7901C13.0594 35.6935 12.9285 35.6393 12.7919 35.6393C12.6553 35.6393 12.5243 35.6935 12.4277 35.7901C12.3311 35.8867 12.2769 36.0177 12.2769 36.1543C12.2769 36.4009 12.1789 36.6375 12.0045 36.8119C11.8301 36.9863 11.5935 37.0843 11.3469 37.0843C11.1002 37.0843 10.8637 36.9863 10.6893 36.8119C10.5148 36.6375 10.4169 36.4009 10.4169 36.1543C10.4169 36.017 10.3623 35.8854 10.2653 35.7883C10.1682 35.6913 10.0366 35.6368 9.89937 35.6368C9.76212 35.6368 9.63049 35.6913 9.53344 35.7883C9.43639 35.8854 9.38187 36.017 9.38187 36.1543C9.38187 36.4009 9.28389 36.6375 9.10948 36.8119C8.93507 36.9863 8.69852 37.0843 8.45187 37.0843C8.20522 37.0843 7.96867 36.9863 7.79426 36.8119C7.61985 36.6375 7.52187 36.4009 7.52187 36.1543C7.52187 36.0177 7.46761 35.8867 7.37103 35.7901C7.27445 35.6935 7.14346 35.6393 7.00687 35.6393C6.87028 35.6393 6.73929 35.6935 6.64271 35.7901C6.54613 35.8867 6.49187 36.0177 6.49187 36.1543C6.49187 36.4009 6.39389 36.6375 6.21948 36.8119C6.04507 36.9863 5.80852 37.0843 5.56187 37.0843C5.31522 37.0843 5.07867 36.9863 4.90426 36.8119C4.72985 36.6375 4.63187 36.4009 4.63187 36.1543C4.63187 36.017 4.57735 35.8854 4.4803 35.7883C4.38325 35.6913 4.25162 35.6368 4.11437 35.6368C3.97712 35.6368 3.8455 35.6913 3.74845 35.7883C3.6514 35.8854 3.59687 36.017 3.59687 36.1543C3.59302 36.3913 3.49876 36.618 3.33337 36.7879C3.16798 36.9577 2.94395 37.0581 2.70707 37.0683C2.47019 37.0785 2.23835 36.9978 2.05895 36.8428C1.87954 36.6878 1.76612 36.4701 1.74187 36.2343L2.92187 32.7493H13.9219L15.1419 36.2093C15.1217 36.4435 15.0135 36.6614 14.8391 36.8191C14.6647 36.9769 14.437 37.0626 14.2019 37.0592L14.2369 37.0843Z" fill="black"/>
<path d="M47.6414 35.9593L46.2714 32.0643V30.4543C46.2714 30.3216 46.2187 30.1945 46.1249 30.1007C46.0312 30.0069 45.904 29.9543 45.7714 29.9543H34.0314C33.8988 29.9543 33.7716 30.0069 33.6779 30.1007C33.5841 30.1945 33.5314 30.3216 33.5314 30.4543V32.2343L32.2214 35.9593C32.2016 36.0138 32.1915 36.0713 32.1914 36.1293C32.1922 36.5516 32.3301 36.9623 32.5844 37.2995C32.8387 37.6367 33.1956 37.8823 33.6014 37.9993V44.9242C33.6014 45.0569 33.6541 45.184 33.7479 45.2778C33.8416 45.3716 33.9688 45.4242 34.1014 45.4242H45.7464C45.879 45.4242 46.0062 45.3716 46.1 45.2778C46.1937 45.184 46.2464 45.0569 46.2464 44.9242V38.0043C46.6546 37.8876 47.014 37.6419 47.2709 37.3039C47.5278 36.9659 47.6683 36.5538 47.6714 36.1293C47.6713 36.0713 47.6612 36.0138 47.6414 35.9593ZM34.5464 30.9593H45.2364V31.7093H34.5464V30.9593ZM37.7414 44.4242V40.1093H42.1064V44.4242H37.7414ZM45.2414 44.4242H43.1364V39.5942C43.1364 39.4616 43.0837 39.3345 42.99 39.2407C42.8962 39.1469 42.769 39.0942 42.6364 39.0942H37.2264C37.0938 39.0942 36.9666 39.1469 36.8728 39.2407C36.7791 39.3345 36.7264 39.4616 36.7264 39.5942V44.4242H34.6164V38.0293C34.9882 37.9346 35.3249 37.735 35.5864 37.4542C35.77 37.6546 35.9933 37.8146 36.2421 37.9241C36.4908 38.0335 36.7596 38.09 37.0314 38.09C37.3032 38.09 37.572 38.0335 37.8207 37.9241C38.0695 37.8146 38.2928 37.6546 38.4764 37.4542C38.6605 37.6547 38.8842 37.8148 39.1333 37.9243C39.3825 38.0338 39.6517 38.0904 39.9239 38.0904C40.1961 38.0904 40.4653 38.0338 40.7145 37.9243C40.9636 37.8148 41.1873 37.6547 41.3714 37.4542C41.555 37.6546 41.7783 37.8146 42.0271 37.9241C42.2758 38.0335 42.5446 38.09 42.8164 38.09C43.0882 38.09 43.357 38.0335 43.6057 37.9241C43.8545 37.8146 44.0778 37.6546 44.2614 37.4542C44.52 37.7351 44.8557 37.9333 45.2264 38.0242L45.2414 44.4242ZM45.7414 37.0843C45.4952 37.0829 45.2594 36.9845 45.0852 36.8104C44.9111 36.6363 44.8127 36.4005 44.8114 36.1543C44.8114 36.0177 44.7571 35.8867 44.6606 35.7901C44.564 35.6935 44.433 35.6393 44.2964 35.6393C44.1598 35.6393 44.0288 35.6935 43.9322 35.7901C43.8357 35.8867 43.7814 36.0177 43.7814 36.1543C43.7814 36.4009 43.6834 36.6375 43.509 36.8119C43.3346 36.9863 43.0981 37.0843 42.8514 37.0843C42.6047 37.0843 42.3682 36.9863 42.1938 36.8119C42.0194 36.6375 41.9214 36.4009 41.9214 36.1543C41.9214 36.017 41.8669 35.8854 41.7698 35.7883C41.6728 35.6913 41.5411 35.6368 41.4039 35.6368C41.2666 35.6368 41.135 35.6913 41.038 35.7883C40.9409 35.8854 40.8864 36.017 40.8864 36.1543C40.8958 36.2818 40.8787 36.4099 40.8364 36.5305C40.794 36.6512 40.7272 36.7618 40.6402 36.8555C40.5531 36.9491 40.4477 37.0238 40.3305 37.0749C40.2133 37.126 40.0868 37.1524 39.9589 37.1524C39.831 37.1524 39.7045 37.126 39.5873 37.0749C39.4701 37.0238 39.3647 36.9491 39.2776 36.8555C39.1906 36.7618 39.1238 36.6512 39.0814 36.5305C39.0391 36.4099 39.022 36.2818 39.0314 36.1543C39.0314 36.017 38.9769 35.8854 38.8798 35.7883C38.7828 35.6913 38.6511 35.6368 38.5139 35.6368C38.3767 35.6368 38.245 35.6913 38.148 35.7883C38.0509 35.8854 37.9964 36.017 37.9964 36.1543C37.9964 36.4009 37.8984 36.6375 37.724 36.8119C37.5496 36.9863 37.3131 37.0843 37.0664 37.0843C36.8198 37.0843 36.5832 36.9863 36.4088 36.8119C36.2344 36.6375 36.1364 36.4009 36.1364 36.1543C36.1364 36.0177 36.0821 35.8867 35.9856 35.7901C35.889 35.6935 35.758 35.6393 35.6214 35.6393C35.4848 35.6393 35.3538 35.6935 35.2572 35.7901C35.1607 35.8867 35.1064 36.0177 35.1064 36.1543C35.117 36.4009 35.0292 36.6417 34.8623 36.8236C34.6954 37.0055 34.4631 37.1136 34.2164 37.1243C33.9698 37.1349 33.729 37.0471 33.5471 36.8801C33.3652 36.7132 33.257 36.4809 33.2464 36.2343L34.4614 32.7743H45.4614L46.6764 36.2343C46.65 36.4693 46.5349 36.6855 46.3547 36.8388C46.1745 36.9921 45.9427 37.0709 45.7064 37.0592L45.7414 37.0843Z" fill="black"/>
<path d="M8.3567 29.1443C8.4893 29.1443 8.61648 29.0916 8.71025 28.9978C8.80402 28.9041 8.85669 28.7769 8.85669 28.6443V12.6443H12.0717C12.2089 12.6443 12.3406 12.5898 12.4376 12.4927C12.5347 12.3957 12.5892 12.264 12.5892 12.1268C12.5892 11.9895 12.5347 11.8579 12.4376 11.7609C12.3406 11.6638 12.2089 11.6093 12.0717 11.6093H8.3567C8.22409 11.6093 8.09691 11.662 8.00314 11.7557C7.90937 11.8495 7.8567 11.9767 7.8567 12.1093V28.6093C7.85189 28.6778 7.86125 28.7466 7.88422 28.8114C7.90718 28.8761 7.94325 28.9355 7.99017 28.9857C8.03709 29.0359 8.09385 29.0759 8.15691 29.1032C8.21997 29.1304 8.28798 29.1444 8.3567 29.1443Z" fill="black"/>
<path d="M36.2441 12.6393H39.4641V28.6392C39.4641 28.7765 39.5186 28.9081 39.6156 29.0052C39.7127 29.1022 39.8443 29.1567 39.9816 29.1567C40.1188 29.1567 40.2504 29.1022 40.3475 29.0052C40.4445 28.9081 40.4991 28.7765 40.4991 28.6392V12.1393C40.4991 12.0066 40.4464 11.8795 40.3526 11.7857C40.2588 11.6919 40.1317 11.6393 39.9991 11.6393H36.2441C36.1068 11.6393 35.9752 11.6938 35.8781 11.7908C35.7811 11.8879 35.7266 12.0195 35.7266 12.1568C35.7266 12.294 35.7811 12.4256 35.8781 12.5227C35.9752 12.6197 36.1068 12.6743 36.2441 12.6743V12.6393Z" fill="black"/>
</svg>
