<svg width="46" height="46" viewBox="0 0 46 46" fill="none" xmlns="http://www.w3.org/2000/svg">
<g clip-path="url(#clip0_1689_9811)">
<path d="M32.5301 4.90021H11.5107C11.1467 4.90021 10.8516 5.19526 10.8516 5.55939C10.8516 5.92352 11.1467 6.21857 11.5107 6.21857H32.53C32.8941 6.21857 33.1892 5.92352 33.1892 5.55939C33.1892 5.19526 32.8942 4.90021 32.5301 4.90021Z" fill="#212529"/>
<path d="M29.2909 8.66123C29.2909 8.2971 28.9958 8.00205 28.6318 8.00205H15.4053C15.0412 8.00205 14.7461 8.2971 14.7461 8.66123C14.7461 9.02536 15.0412 9.32041 15.4053 9.32041H28.6318C28.9958 9.32041 29.2909 9.02536 29.2909 8.66123Z" fill="#212529"/>
<path d="M11.0845 15.1086L12.7338 16.5063C12.8533 16.6075 13.0045 16.6625 13.16 16.6625C13.1786 16.6625 13.1973 16.6617 13.2161 16.6602C13.3909 16.6452 13.5526 16.5613 13.6653 16.4268L16.7719 12.7196C17.0057 12.4405 16.9692 12.0248 16.6901 11.791C16.411 11.557 15.9953 11.5938 15.7615 11.8728L13.0805 15.072L11.937 14.1029C11.6593 13.8675 11.2433 13.9019 11.0079 14.1796C10.7725 14.4573 10.8068 14.8732 11.0845 15.1086Z" fill="#212529"/>
<path d="M11.0846 21.3994L12.7338 22.797C12.8534 22.8983 13.0045 22.9533 13.16 22.9533C13.1787 22.9533 13.1974 22.9525 13.2161 22.9509C13.3909 22.936 13.5526 22.852 13.6653 22.7176L16.772 19.0103C17.0058 18.7313 16.9692 18.3156 16.6902 18.0818C16.411 17.8477 15.9953 17.8846 15.7615 18.1636L13.0806 21.3627L11.937 20.3937C11.6593 20.1584 11.2433 20.1926 11.0079 20.4704C10.7725 20.7481 10.8068 21.164 11.0846 21.3994Z" fill="#212529"/>
<path d="M11.0845 27.6902L12.7338 29.0878C12.8533 29.189 13.0045 29.2441 13.16 29.2441C13.1786 29.2441 13.1973 29.2433 13.2161 29.2417C13.3909 29.2268 13.5526 29.1428 13.6653 29.0083L16.7719 25.3011C17.0057 25.0221 16.9692 24.6063 16.6901 24.3726C16.411 24.1385 15.9953 24.1754 15.7615 24.4544L13.0805 27.6535L11.937 26.6844C11.6593 26.4491 11.2433 26.4834 11.0079 26.7612C10.7725 27.0389 10.8068 27.4548 11.0845 27.6902Z" fill="#212529"/>
<path d="M11.0841 33.978L12.7334 35.3782C12.853 35.4797 13.0043 35.5348 13.16 35.5348C13.1785 35.5348 13.1973 35.534 13.2159 35.5325C13.3909 35.5176 13.5527 35.4335 13.6654 35.2989L16.772 31.5893C17.0058 31.3101 16.969 30.8944 16.6899 30.6607C16.4107 30.4272 15.9951 30.4637 15.7613 30.7429L13.0806 33.9438L11.9373 32.9731C11.6597 32.7375 11.2438 32.7715 11.0083 33.049C10.7726 33.3264 10.8066 33.7424 11.0841 33.978Z" fill="#212529"/>
<path d="M27.168 15.0428H19.6592C19.2951 15.0428 19 15.3378 19 15.702C19 16.0661 19.2951 16.3611 19.6592 16.3611H27.168C27.5321 16.3611 27.8272 16.0661 27.8272 15.702C27.8272 15.3378 27.5321 15.0428 27.168 15.0428Z" fill="#212529"/>
<path d="M32.4702 11.9384H24.6748C24.3108 11.9384 24.0156 12.2335 24.0156 12.5976C24.0156 12.9617 24.3108 13.2568 24.6748 13.2568H32.4702C32.8342 13.2568 33.1294 12.9617 33.1294 12.5976C33.1294 12.2335 32.8342 11.9384 32.4702 11.9384Z" fill="#212529"/>
<path d="M21.56 11.9384H19.6592C19.2951 11.9384 19 12.2335 19 12.5976C19 12.9617 19.2951 13.2568 19.6592 13.2568H21.56C21.924 13.2568 22.2192 12.9617 22.2192 12.5976C22.2192 12.2335 21.924 11.9384 21.56 11.9384Z" fill="#212529"/>
<path d="M19.6592 21.3336C19.2951 21.3336 19 21.6286 19 21.9927C19 22.3569 19.2951 22.6519 19.6592 22.6519H27.168C27.5321 22.6519 27.8272 22.3569 27.8272 21.9927C27.8272 21.6286 27.5321 21.3336 27.168 21.3336H19.6592Z" fill="#212529"/>
<path d="M33.1312 25.1792C33.1312 24.8151 32.8361 24.52 32.4721 24.52H19.6592C19.2951 24.52 19 24.8151 19 25.1792C19 25.5433 19.2951 25.8384 19.6592 25.8384H32.4721C32.8361 25.8384 33.1312 25.5433 33.1312 25.1792Z" fill="#212529"/>
<path d="M19.6592 33.915C19.2951 33.915 19 34.2101 19 34.5742C19 34.9383 19.2951 35.2334 19.6592 35.2334H25.5587C25.9227 35.2334 26.2178 34.9383 26.2178 34.5742C26.2178 34.2101 25.9227 33.915 25.5587 33.915H19.6592Z" fill="#212529"/>
<path d="M32.4702 18.2293H30.5693C30.2053 18.2293 29.9102 18.5243 29.9102 18.8884C29.9102 19.2526 30.2053 19.5476 30.5693 19.5476H32.4702C32.8343 19.5476 33.1294 19.2526 33.1294 18.8884C33.1294 18.5243 32.8343 18.2293 32.4702 18.2293Z" fill="#212529"/>
<path d="M28.1162 18.8884C28.1162 18.5243 27.8211 18.2293 27.457 18.2293H19.6592C19.2951 18.2293 19 18.5243 19 18.8884C19 19.2526 19.2951 19.5476 19.6592 19.5476H27.457C27.8211 19.5476 28.1162 19.2525 28.1162 18.8884Z" fill="#212529"/>
<path d="M19.6592 28.9426H21.2286C21.5927 28.9426 21.8878 28.6476 21.8878 28.2834C21.8878 27.9193 21.5927 27.6242 21.2286 27.6242H19.6592C19.2951 27.6242 19 27.9193 19 28.2834C19 28.6476 19.295 28.9426 19.6592 28.9426Z" fill="#212529"/>
<path d="M27.1679 28.9426C27.5319 28.9426 27.8271 28.6476 27.8271 28.2834C27.8271 27.9193 27.5319 27.6242 27.1679 27.6242H23.5654C23.2014 27.6242 22.9062 27.9193 22.9062 28.2834C22.9062 28.6476 23.2014 28.9426 23.5654 28.9426H27.1679Z" fill="#212529"/>
<path d="M28.9359 31.47C28.9359 31.1059 28.6407 30.8108 28.2767 30.8108H19.6592C19.2951 30.8108 19 31.1059 19 31.47C19 31.8341 19.2951 32.1292 19.6592 32.1292H28.2767C28.6407 32.1292 28.9359 31.8341 28.9359 31.47Z" fill="#212529"/>
<path d="M37.6216 36.5886C37.3381 36.3603 36.9231 36.405 36.6948 36.6885L34.6411 39.2382L33.8377 38.5288C33.5648 38.2878 33.1483 38.3138 32.9073 38.5867C32.6663 38.8595 32.6922 39.2761 32.9651 39.5171L34.2855 40.683C34.4064 40.7898 34.5617 40.8481 34.7218 40.8481C34.7403 40.8481 34.7589 40.8473 34.7776 40.8457C34.957 40.8305 35.1223 40.7426 35.2352 40.6024L37.7216 37.5156C37.9498 37.232 37.9052 36.8171 37.6216 36.5886Z" fill="#212529"/>
<path d="M37.2793 32.2012V18.3029C37.2793 17.9388 36.9841 17.6437 36.6201 17.6437C36.256 17.6437 35.9609 17.9388 35.9609 18.3029V31.9457C35.7499 31.9261 35.5375 31.9144 35.3246 31.9144C31.6118 31.9144 28.5866 34.9069 28.5295 38.6064H8.33847C8.19749 38.6064 8.0784 38.4861 8.0784 38.3437V2.08894C8.0784 1.94796 8.19749 1.82878 8.33847 1.82878H35.7007C35.8417 1.82878 35.9609 1.94788 35.9609 2.08894V18.3029C35.9609 18.667 36.256 18.9621 36.6201 18.9621C36.9841 18.9621 37.2793 18.667 37.2793 18.3029V2.08894C37.2793 1.21856 36.5711 0.510426 35.7007 0.510426H8.33847C7.46809 0.510426 6.75995 1.21856 6.75995 2.08894V3.91118H4.9378C4.06742 3.91118 3.35938 4.61931 3.35938 5.48969V24.489C3.35938 24.8531 3.65451 25.1482 4.01855 25.1482C4.3826 25.1482 4.67773 24.8531 4.67773 24.489V5.48969C4.67773 5.34872 4.79683 5.22954 4.9378 5.22954H6.75995V38.3437C6.75995 39.2155 7.46809 39.9247 8.33838 39.9247H28.6357C28.7671 40.6582 29.0166 41.3596 29.3763 42.007H4.9378C4.79683 42.007 4.67773 41.8868 4.67773 41.7444V24.489C4.67773 24.1249 4.3826 23.8298 4.01855 23.8298C3.65451 23.8298 3.35938 24.1249 3.35938 24.489V41.7444C3.35938 42.6162 4.06751 43.3254 4.9378 43.3254H30.2846C30.2999 43.3254 30.3149 43.3241 30.3299 43.3231C31.6169 44.7168 33.4197 45.5104 35.3245 45.5104C39.0728 45.5104 42.1223 42.4609 42.1223 38.7124C42.1224 35.7106 40.115 33.0542 37.2793 32.2012ZM35.3245 44.1921C33.7057 44.1921 32.1776 43.481 31.1324 42.2414C30.4046 41.3783 29.9672 40.3289 29.867 39.2028C29.8523 39.049 29.8451 38.8887 29.8451 38.7125C29.8451 35.691 32.3032 33.2329 35.3246 33.2329C35.716 33.2329 36.1051 33.274 36.4815 33.3552C38.9862 33.894 40.804 36.1471 40.804 38.7125C40.804 41.7339 38.3459 44.1921 35.3245 44.1921Z" fill="#212529"/>
</g>
<defs>
<clipPath id="clip0_1689_9811">
<rect width="45" height="45" fill="white" transform="translate(0.242188 0.510426)"/>
</clipPath>
</defs>
</svg>
