<svg width="48" height="34" viewBox="0 0 48 34" fill="none" xmlns="http://www.w3.org/2000/svg">
<path d="M47.1878 14.0205C47.4717 11.1802 46.7347 8.32334 45.1128 5.97662C44.3576 4.88304 42.8224 4.64255 41.7626 5.46006C41.2519 5.85393 40.9343 6.42367 40.8679 7.06384C40.6976 8.6997 40.2826 10.2324 39.6322 11.6492C37.8186 9.09117 34.5873 7.86476 31.4857 8.67997C31.3373 8.10221 31.0934 7.55274 30.7652 7.05794C32.5876 6.79985 33.9234 5.32585 34.1085 3.59072C34.1347 3.34461 34.0274 3.10329 33.8271 2.95793C32.7902 2.20522 31.448 2.01192 30.2491 2.42137L30.7674 1.07301C30.9044 0.716657 30.7266 0.316611 30.3701 0.179637C30.0134 0.0426622 29.6137 0.220471 29.4768 0.576918C29.4731 0.586228 27.7973 4.90405 27.7943 4.91336C25.2706 4.23006 22.4631 5.5208 21.496 8.25587C21.2173 9.06444 20.7544 9.76867 20.1419 10.3264C19.7902 8.07824 18.8091 6.28864 17.3882 5.32723C17.575 4.45534 17.5497 3.55284 17.3096 2.6873C17.2435 2.44902 17.0551 2.26412 16.8157 2.20254C14.7619 1.67437 12.4749 2.25296 10.953 3.86144V2.2077C10.953 1.82582 10.6435 1.51638 10.2616 1.51638C9.87976 1.51638 9.57032 1.82582 9.57032 2.2077V6.24835C6.70502 3.69635 3.38509 4.10295 1.56885 6.98494C-0.878623 10.8688 0.179564 17.7247 3.6843 21.4168L4.67345 22.619L2.66473 22.4238C1.49326 22.3111 0.465311 23.1675 0.352579 24.3262C0.23911 25.4946 1.09552 26.5254 2.25501 26.6383L4.26372 26.8335L2.62722 28.18C1.72158 28.9253 1.59539 30.2593 2.33751 31.1597C3.08368 32.0667 4.41904 32.1888 5.31739 31.4495L8.14785 29.1205C8.70691 28.6611 9.34209 28.2979 10.0189 28.0472L10.018 28.0557C9.75643 30.7479 11.8608 33.1339 14.6393 33.1339C16.594 33.1285 37.6301 33.0705 42.5463 33.057C44.9351 33.0504 46.9108 31.2524 47.1419 28.8748C47.3732 26.4972 45.7808 24.3524 43.4378 23.8858L40.9933 23.399C41.892 22.8529 42.7317 22.2164 43.5027 21.4952C45.5931 19.5385 46.9017 16.8839 47.1878 14.0205ZM38.8849 13.059C37.0349 16.1027 34.1234 18.2804 30.8329 19.3623C31.2819 18.0097 31.35 16.5193 30.9535 15.0574C30.6948 14.1009 30.7888 13.0338 31.2183 12.0523C31.5015 11.4038 31.6388 10.7316 31.6499 10.0694C34.4645 9.23202 37.4922 10.5044 38.8849 13.059ZM32.6542 3.85849C32.2264 5.3866 30.522 6.16245 29.0831 5.4549C29.0922 5.44633 30.075 2.57715 32.6542 3.85849ZM22.8017 8.71122C23.4914 6.74887 25.6101 5.53445 27.9646 6.43317C29.8834 7.27972 30.8039 9.54588 29.9515 11.4986C29.3965 12.7669 29.2782 14.1589 29.619 15.4188C30.1549 17.3961 29.6477 19.4232 28.432 20.8974L26.4947 20.5116C27.1119 20.0238 27.6006 19.3734 27.8942 18.6098C28.7806 16.3047 27.6319 13.7226 25.3272 12.8367C23.0222 11.9502 20.4401 13.0991 19.5541 15.4037C19.0663 16.6721 19.2038 18.0567 19.8305 19.1844L17.8971 18.7994C17.1093 16.2565 18.0521 13.4527 20.326 11.9341C21.4858 11.1594 22.3424 10.0434 22.8017 8.71122ZM22.1205 19.6404C20.8596 18.876 20.311 17.2874 20.8446 15.8998C21.4524 14.3187 23.2055 13.5391 24.7712 14.1042C27.7338 15.1733 27.3566 19.5739 24.199 20.0544L22.1205 19.6404ZM16.0674 3.45679C16.1403 3.87545 16.148 4.30122 16.0915 4.72117C14.322 4.22047 12.5351 4.90562 11.1146 6.10797C11.9117 4.19337 13.9889 3.11362 16.0674 3.45679ZM2.73875 7.72217C4.5409 4.8622 7.60798 5.69271 9.71366 8.43248C9.98788 8.79021 10.5328 8.7939 10.8099 8.43248C12.2348 6.57862 14.003 5.67151 15.5397 6.00704C15.7933 6.06253 16.0398 6.15092 16.2727 6.27002C17.6932 6.99517 18.6708 8.9082 18.8663 11.3081C16.7707 13.0881 15.8508 15.8571 16.3942 18.5L16.0685 18.4351C13.3792 17.8999 10.8202 19.808 10.5557 22.5281L10.5547 22.5382C9.95737 22.1736 9.40164 21.7006 8.92582 21.1232L6.59662 18.2924C5.70886 17.2135 4.02729 17.2684 3.22001 18.4359C2.67561 17.4528 2.24883 16.341 1.97138 15.1614C1.30384 12.3249 1.59079 9.54376 2.73875 7.72217ZM7.26987 28.0526L4.43904 30.3819C4.12426 30.6411 3.66162 30.5923 3.40556 30.2819C3.14857 29.9705 3.19069 29.5071 3.50594 29.2478L6.43125 26.8409C6.64713 26.6631 6.73479 26.373 6.65321 26.1054C6.57173 25.838 6.33714 25.646 6.05886 25.6189L2.38894 25.2622C1.99074 25.2234 1.68923 24.8673 1.72896 24.46C1.76749 24.064 2.11887 23.7609 2.53108 23.8001L6.20099 24.1568C6.48029 24.1841 6.74659 24.0406 6.87803 23.7938C7.00957 23.5469 6.97942 23.2453 6.8018 23.0294L4.39489 20.1041C4.13689 19.7905 4.18141 19.3283 4.49591 19.0701C4.80636 18.8141 5.26937 18.8552 5.52903 19.171L7.85851 22.0022C8.58025 22.8783 9.45805 23.5612 10.409 24.0364L10.1649 26.5486C9.11008 26.8417 8.11771 27.3559 7.26987 28.0526ZM45.766 28.7412C45.6039 30.4088 44.2182 31.6698 42.5427 31.6744C42.7368 31.6744 38.8796 31.6852 33.9744 31.6987L34.1626 29.7619C34.1995 29.3819 33.9215 29.0439 33.5415 29.007C33.161 28.97 32.8234 29.2481 32.7865 29.6282L32.5849 31.7025C31.1753 31.7064 29.7065 31.7105 28.2425 31.7144L28.486 29.2101C28.5229 28.8301 28.2449 28.4921 27.8649 28.4552C27.4863 28.4171 27.1469 28.6963 27.1099 29.0763L26.8531 31.7182C25.3552 31.7223 23.8844 31.7263 22.5108 31.73L22.8095 28.6582C22.8463 28.2782 22.5683 27.9402 22.1883 27.9033C21.8087 27.8657 21.4703 28.1445 21.4333 28.5245L21.1213 31.7339C19.408 31.7386 17.9063 31.7426 16.779 31.7457L17.1328 28.1064C17.1696 27.7264 16.8916 27.3884 16.5116 27.3515C16.131 27.3144 15.7936 27.5927 15.7567 27.9727L15.3895 31.7494C14.9697 31.7506 14.707 31.7513 14.6358 31.7515C12.6842 31.7515 11.2112 30.075 11.3945 28.1896C11.4316 27.8076 11.9334 22.6468 11.9319 22.662C12.1175 20.7518 13.9152 19.416 15.7984 19.7911L19.3485 20.4981L19.0089 23.991C18.972 24.3709 19.2501 24.709 19.6301 24.7459C20.0075 24.7832 20.3479 24.5066 20.385 24.1247L20.7112 20.7695C21.4302 20.9126 24.5125 21.5265 24.9699 21.6176L24.6855 24.5428C24.6487 24.9228 24.9267 25.2609 25.3067 25.2977C25.6841 25.3351 26.0245 25.0584 26.0616 24.6766L26.3326 21.889L30.5914 22.7371L30.3621 25.0947C30.3252 25.4746 30.6033 25.8126 30.9833 25.8496C31.3607 25.8869 31.7011 25.6103 31.7382 25.2284L31.9541 23.0084L36.2127 23.8566L36.0388 25.6464C36.0019 26.0265 36.2799 26.3645 36.66 26.4014C37.0374 26.4387 37.3778 26.1621 37.4149 25.7802L37.5755 24.1279C38.8799 24.3877 41.415 24.8925 43.1679 25.2417C44.8112 25.5692 45.9282 27.0735 45.766 28.7412ZM42.5583 20.4857C41.4637 21.5096 40.2158 22.3456 38.8522 22.9725C32.801 21.7674 37.1185 22.6272 29.9323 21.1961C29.9698 21.1404 30.0064 21.0843 30.0424 21.0277C34.367 19.9568 38.0868 17.2378 40.2645 13.4409C40.2668 13.4372 40.269 13.4334 40.2712 13.4297C41.3455 11.553 42.0079 9.46826 42.2434 7.20662C42.2703 6.9465 42.3995 6.71504 42.6072 6.55484C43.0546 6.20955 43.6792 6.33362 43.9754 6.76261C46.9409 11.0533 46.3315 16.953 42.5583 20.4857Z" fill="black"/>
</svg>
