<svg width="46" height="46" viewBox="0 0 46 46" fill="none" xmlns="http://www.w3.org/2000/svg">
<g clip-path="url(#clip0_1689_9591)">
<path d="M29.9503 24.4833C29.8336 24.4085 29.7001 24.364 29.5618 24.3538C29.4236 24.3436 29.285 24.3681 29.1586 24.425L26.1669 25.7417L21.5169 23.425C21.3606 23.3449 21.1829 23.3163 21.0093 23.3432C20.8357 23.3702 20.675 23.4513 20.5503 23.575L17.6753 26.45L14.0669 24.2833C13.9216 24.1979 13.7539 24.1585 13.5857 24.1704C13.4176 24.1824 13.2571 24.245 13.1253 24.35L9.50026 27.2917L3.34193 23.0333C3.21969 22.9524 3.07828 22.9052 2.93197 22.8964C2.78566 22.8877 2.63962 22.9176 2.50859 22.9833C2.37397 23.0531 2.26093 23.1582 2.18163 23.2874C2.10234 23.4166 2.0598 23.565 2.05859 23.7167V44.1667C2.05859 44.3877 2.14639 44.5996 2.30267 44.7559C2.45895 44.9122 2.67091 45 2.89193 45H29.5003C29.7213 45 29.9332 44.9122 30.0895 44.7559C30.2458 44.5996 30.3336 44.3877 30.3336 44.1667V25.1833C30.3334 25.0439 30.2981 24.9067 30.2312 24.7844C30.1642 24.6621 30.0676 24.5586 29.9503 24.4833ZM28.6669 43.3333H3.66693V25.3083L9.02526 29.0167C9.16951 29.1248 9.34495 29.1833 9.52526 29.1833C9.70557 29.1833 9.88101 29.1248 10.0253 29.0167L13.7336 26.0417L17.4086 28.25C17.5678 28.3453 17.7542 28.3848 17.9384 28.3621C18.1226 28.3395 18.2939 28.256 18.4253 28.125L21.3336 25.2166L25.7919 27.4417C25.9039 27.495 26.0263 27.5226 26.1503 27.5226C26.2742 27.5226 26.3967 27.495 26.5086 27.4417L28.6669 26.4666V43.3333Z" fill="black"/>
<path d="M29.5 0H2.83333C2.61232 0 2.40036 0.0877975 2.24408 0.244078C2.0878 0.400358 2 0.61232 2 0.833333V18.7167C2.00022 18.851 2.03292 18.9833 2.09532 19.1023C2.15771 19.2213 2.24795 19.3234 2.35833 19.4L9.025 24.0167C9.16434 24.1139 9.33008 24.1663 9.5 24.1667C9.69083 24.1675 9.87615 24.1028 10.025 23.9833L13.7333 21.0167L17.4083 23.2167C17.5675 23.312 17.754 23.3515 17.9381 23.3288C18.1223 23.3062 18.2936 23.2227 18.425 23.0917L21.3333 20.1833L25.7917 22.4083C25.9036 22.4616 26.026 22.4893 26.15 22.4893C26.274 22.4893 26.3964 22.4616 26.5083 22.4083L29.8417 20.9333C29.9892 20.867 30.1142 20.7592 30.2015 20.6231C30.2888 20.487 30.3346 20.3284 30.3333 20.1667V0.833333C30.3333 0.61232 30.2455 0.400358 30.0893 0.244078C29.933 0.0877975 29.721 0 29.5 0ZM28.6667 19.6417L26.1667 20.7417L21.5167 18.425C21.3603 18.3449 21.1826 18.3163 21.009 18.3432C20.8354 18.3702 20.6747 18.4513 20.55 18.575L17.675 21.45L14.0667 19.2833C13.9214 19.1979 13.7536 19.1586 13.5855 19.1705C13.4174 19.1824 13.2568 19.245 13.125 19.35L9.5 22.2917L3.66667 18.2833V1.66667H28.6667V19.6417Z" fill="black"/>
<path d="M8.66536 8.33334H24.4987C24.7197 8.33334 24.9317 8.24554 25.088 8.08926C25.2442 7.93298 25.332 7.72102 25.332 7.50001C25.332 7.27899 25.2442 7.06703 25.088 6.91075C24.9317 6.75447 24.7197 6.66667 24.4987 6.66667H8.66536C8.44435 6.66667 8.23239 6.75447 8.07611 6.91075C7.91983 7.06703 7.83203 7.27899 7.83203 7.50001C7.83203 7.72102 7.91983 7.93298 8.07611 8.08926C8.23239 8.24554 8.44435 8.33334 8.66536 8.33334Z" fill="black"/>
<path d="M8.66536 13.3333H24.4987C24.7197 13.3333 24.9317 13.2455 25.088 13.0893C25.2442 12.933 25.332 12.721 25.332 12.5C25.332 12.279 25.2442 12.067 25.088 11.9107C24.9317 11.7545 24.7197 11.6667 24.4987 11.6667H8.66536C8.44435 11.6667 8.23239 11.7545 8.07611 11.9107C7.91983 12.067 7.83203 12.279 7.83203 12.5C7.83203 12.721 7.91983 12.933 8.07611 13.0893C8.23239 13.2455 8.44435 13.3333 8.66536 13.3333Z" fill="black"/>
<path d="M24.4987 32.5H8.66536C8.44435 32.5 8.23239 32.5878 8.07611 32.7441C7.91983 32.9004 7.83203 33.1123 7.83203 33.3333C7.83203 33.5543 7.91983 33.7663 8.07611 33.9226C8.23239 34.0789 8.44435 34.1667 8.66536 34.1667H24.4987C24.7197 34.1667 24.9317 34.0789 25.088 33.9226C25.2442 33.7663 25.332 33.5543 25.332 33.3333C25.332 33.1123 25.2442 32.9004 25.088 32.7441C24.9317 32.5878 24.7197 32.5 24.4987 32.5Z" fill="black"/>
<path d="M24.4987 37.5H8.66536C8.44435 37.5 8.23239 37.5878 8.07611 37.7441C7.91983 37.9004 7.83203 38.1123 7.83203 38.3333C7.83203 38.5543 7.91983 38.7663 8.07611 38.9226C8.23239 39.0789 8.44435 39.1667 8.66536 39.1667H24.4987C24.7197 39.1667 24.9317 39.0789 25.088 38.9226C25.2442 38.7663 25.332 38.5543 25.332 38.3333C25.332 38.1123 25.2442 37.9004 25.088 37.7441C24.9317 37.5878 24.7197 37.5 24.4987 37.5Z" fill="black"/>
</g>
<defs>
<clipPath id="clip0_1689_9591">
<rect width="45" height="45" fill="white" transform="translate(0.671875 0.179489)"/>
</clipPath>
</defs>
</svg>
