<svg width="75" height="75" viewBox="0 0 75 75" fill="none" xmlns="http://www.w3.org/2000/svg">
<path d="M37.5 75C58.2107 75 75 58.2107 75 37.5C75 16.7893 58.2107 0 37.5 0C16.7893 0 0 16.7893 0 37.5C0 58.2107 16.7893 75 37.5 75Z" fill="#8AE4F6"/>
<path d="M56.2165 27.6975L56.2156 27.6989C56.0373 27.961 55.7982 28.1758 55.5186 28.3251C55.2395 28.4741 54.9285 28.5532 54.6121 28.5557H42.7321L42.7321 28.0904L42.732 28.0862C42.7307 27.9279 42.7039 27.7723 42.654 27.6251H54.614H54.6809L54.7455 27.6075C55.1245 27.5042 55.4364 27.3135 55.5676 26.9716C55.6657 26.7158 55.6155 26.4434 55.5991 26.3544C55.5974 26.3449 55.596 26.3375 55.5952 26.3324L55.5869 26.2766L55.5663 26.2241C55.2454 25.4044 54.6857 24.7001 53.9597 24.2023C53.2338 23.7045 52.3751 23.4362 51.4948 23.4323H51.4926L22.5624 23.4322L22.5601 23.4323C21.6799 23.4362 20.8212 23.7045 20.0952 24.2023C19.3693 24.7001 18.8096 25.4044 18.4886 26.2241L18.4649 26.2848L18.4575 26.3496C18.4129 26.7398 18.4713 27.1036 18.7425 27.3536C18.9468 27.5419 19.2226 27.5928 19.3122 27.6093C19.3215 27.611 19.3289 27.6124 19.3339 27.6135L19.3868 27.6251H19.4409H39.324C39.2743 27.7737 39.2482 27.9307 39.2482 28.0904C39.2482 28.2454 39.2728 28.398 39.3198 28.5427H33.7389H33.2389V29.0427V31.254V31.2549C33.2396 31.6276 33.3879 31.9848 33.6515 32.2484C33.915 32.5119 34.2723 32.6603 34.6449 32.6609H34.6458L39.3994 32.6609L39.4003 32.6609C39.773 32.6603 40.1302 32.5119 40.3938 32.2484C40.6573 31.9848 40.8056 31.6276 40.8063 31.2549V31.254V29.5557H41.7321V31.2664C41.7314 31.8863 41.4848 32.4806 41.0465 32.9189C40.6081 33.3573 40.0138 33.6038 39.394 33.6045H37.9831H37.4831V34.1045V47.0478V47.288L37.6705 47.4381L42.1953 51.0625L42.1953 51.0625L42.1997 51.0659C42.3545 51.1871 42.4684 51.353 42.5259 51.541C42.5835 51.7291 42.5819 51.9303 42.5214 52.1174C42.4608 52.3045 42.3443 52.4685 42.1876 52.5873C42.0331 52.7043 41.847 52.7718 41.6536 52.781H32.385C32.1916 52.772 32.0054 52.7047 31.8508 52.5878C31.694 52.4693 31.5774 52.3055 31.5167 52.1185C31.4559 51.9316 31.454 51.7305 31.5113 51.5425C31.5685 51.3544 31.682 51.1884 31.8366 51.067L31.8366 51.067L31.8411 51.0634L36.3675 47.4212L36.5541 47.2711V47.0316V34.1013V33.6013H36.0541H34.6432C34.0233 33.6006 33.429 33.354 32.9907 32.9157C32.5523 32.4774 32.3058 31.8831 32.3051 31.2632V29.0525V28.5525H31.8051H19.4457C19.1312 28.5439 18.823 28.4613 18.5464 28.3112C18.268 28.1602 18.0295 27.9453 17.8505 27.6841C17.6714 27.4229 17.5569 27.1229 17.5164 26.8089C17.4762 26.4972 17.5101 26.1804 17.6152 25.8842C18.0058 24.8918 18.6847 24.0391 19.5645 23.4359C20.4459 22.8315 21.4884 22.5055 22.5572 22.5H51.4848C52.5536 22.5055 53.5961 22.8315 54.4775 23.4359C55.3589 24.0402 56.0386 24.895 56.429 25.8897C56.5425 26.1855 56.5825 26.5044 56.5457 26.8191C56.5088 27.1342 56.3958 27.4357 56.2165 27.6975ZM41.2643 27.6251C41.3879 27.6265 41.506 27.6763 41.5934 27.7637C41.6809 27.8511 41.7306 27.9693 41.7321 28.0928V28.5557H40.8063V28.5427H40.6044C40.5218 28.5228 40.4455 28.4805 40.3845 28.4194C40.2972 28.3322 40.2482 28.2138 40.2482 28.0904C40.2482 27.967 40.2972 27.8486 40.3845 27.7614C40.4718 27.6741 40.5901 27.6251 40.7135 27.6251H41.2643ZM33.4546 50.9528L32.3488 51.843L33.7684 51.8423L40.2709 51.839L41.694 51.8383L40.5831 50.9487L37.3254 48.34L37.0121 48.089L36.6993 48.3408L33.4546 50.9528Z" stroke="#363636"/>
</svg>
