<svg width="59" height="46" viewBox="0 0 59 46" fill="none" xmlns="http://www.w3.org/2000/svg">
<path d="M57.1436 8.5449L57.1448 8.54315C57.4091 8.15723 57.5756 7.71286 57.63 7.24829C57.6844 6.78449 57.6253 6.31445 57.458 5.8785C56.8915 4.43435 55.9047 3.19338 54.6252 2.31611M57.1436 8.5449L54.6252 2.31611M57.1436 8.5449C56.8809 8.93117 56.5284 9.24789 56.1163 9.46787C55.7048 9.68751 55.2463 9.80415 54.7799 9.80781H37.62M57.1436 8.5449L37.62 9.80781M54.6252 2.31611C53.3457 1.43879 51.8324 0.965579 50.281 0.957663M54.6252 2.31611L50.281 0.957663M50.281 0.957663H8.66607C7.1147 0.965579 5.60138 1.43879 4.32185 2.31611C3.04457 3.1919 2.05894 4.43015 1.49193 5.87115C1.33679 6.30777 1.2868 6.77484 1.34607 7.23448C1.40573 7.69714 1.5744 8.13904 1.83819 8.52381C2.10198 8.90857 2.45335 9.2252 2.8634 9.44765C3.27125 9.6689 3.72556 9.79069 4.18933 9.80314H21.97H22.62V10.4531V13.6335C22.6211 14.5436 22.9831 15.4161 23.6266 16.0597C24.2702 16.7032 25.1427 17.0652 26.0528 17.0663H28.0825H28.7325V17.7163V36.3175V36.6287L28.49 36.8239L21.9784 42.0635L21.9726 42.0682L21.9725 42.0681C21.7391 42.2516 21.5675 42.5024 21.4811 42.7865C21.3947 43.0706 21.3975 43.3744 21.4892 43.6568C21.581 43.9392 21.7572 44.1867 21.9941 44.3658C22.228 44.5426 22.5099 44.6443 22.8026 44.6577H36.1395C36.4323 44.644 36.7141 44.542 36.9479 44.3649C37.1847 44.1855 37.3607 43.9377 37.4521 43.655C37.5435 43.3724 37.5459 43.0684 37.459 42.7843C37.3721 42.5002 37.2 42.2497 36.9661 42.0666L36.9604 42.0621L36.9604 42.0621L30.4512 36.8481L30.2075 36.653V36.3408V17.7209V17.0709H30.8575H32.8873C33.7974 17.0699 34.6699 16.7079 35.3135 16.0643C35.9568 15.421 36.3188 14.5487 36.32 13.6389C36.32 13.6387 36.32 13.6384 36.32 13.6382M50.281 0.957663L36.97 13.6389L36.32 13.6382M36.32 13.6382L36.32 11.1078M36.32 13.6382L36.32 11.1078M36.32 11.1078H34.8497V13.6203V13.6214C34.8488 14.1392 34.6427 14.6356 34.2765 15.0017C33.9104 15.3679 33.414 15.574 32.8962 15.5749L32.895 15.5749L26.0567 15.5749H26.0555C25.5377 15.574 25.0414 15.3679 24.6752 15.0017C24.3091 14.6356 24.103 14.1392 24.1021 13.6214L24.1021 13.6203L24.1021 10.4391V9.78915H24.7521H32.8782C32.7921 9.56119 32.7468 9.3175 32.7468 9.06913C32.7468 8.81398 32.7947 8.56376 32.8853 8.33046H4.18335H4.11296L4.04419 8.31539C4.03581 8.31355 4.02411 8.31136 4.00953 8.30863C3.87629 8.28366 3.50261 8.21366 3.22554 7.95826C2.85896 7.62034 2.77439 7.12426 2.83737 6.5728L2.847 6.48854L2.87791 6.40958C3.3345 5.24338 4.13086 4.2412 5.16375 3.53295C6.19665 2.82469 7.41848 2.443 8.67086 2.43735L8.67379 2.43734L50.292 2.43735H50.2949C51.5473 2.443 52.7691 2.82469 53.802 3.53295C54.8349 4.2412 55.6312 5.24338 56.0878 6.40958L56.1146 6.47784L56.1254 6.55035C56.1267 6.55888 56.1288 6.57071 56.1315 6.58549C56.1556 6.71812 56.2226 7.08771 56.0894 7.43485C55.912 7.89726 55.4885 8.16174 54.9533 8.30759L54.8694 8.33046H54.7824H37.4779C37.5689 8.56197 37.6179 8.81026 37.62 9.06374L37.6201 9.06913L37.62 9.80781M36.32 11.1078L37.62 9.80781M35.5783 8.33046C35.7743 8.33269 35.9617 8.41154 36.1003 8.55019C36.239 8.68885 36.3178 8.87622 36.32 9.0722V9.80781H34.8497V9.78915H34.6205C34.4862 9.75838 34.3621 9.6904 34.2632 9.59146L34.0655 9.78915L34.2632 9.59146C34.1246 9.45293 34.0468 9.26504 34.0468 9.06913C34.0468 8.87323 34.1246 8.68536 34.2632 8.54683C34.4017 8.40829 34.5896 8.33046 34.7855 8.33046H35.5783ZM24.3865 42.0123L22.9489 43.1696L24.7944 43.1686L34.1487 43.164L35.9987 43.1631L34.5546 42.0066L29.8682 38.2537L29.4608 37.9275L29.0543 38.2547L24.3865 42.0123Z" stroke="black" stroke-width="1.3"/>
</svg>
