<svg width="38" height="46" viewBox="0 0 38 46" fill="none" xmlns="http://www.w3.org/2000/svg">
<path d="M15.7516 0.669006C12.0948 0.669006 9.11982 3.64882 9.11982 7.30874V9.09452H7.33804C5.54537 9.09452 4.72186 10.3452 4.45762 11.8351L0.720275 36.1748C0.372116 38.1555 1.96103 39.225 3.60069 39.225H13.1368C13.7017 39.225 14.1595 38.7671 14.1595 38.2023C14.1595 37.6375 13.7017 37.1796 13.1368 37.1796H3.60069C2.99988 37.179 2.68026 36.8346 2.74176 36.4864L6.48111 12.1447C6.58622 11.4994 6.96285 11.14 7.33804 11.14H9.11982V15.7343C9.11982 16.2991 9.57771 16.757 10.1425 16.757C10.7074 16.757 11.1653 16.2991 11.1653 15.7343V11.14H20.3359V15.7343C20.3359 16.2991 20.7938 16.757 21.3586 16.757C21.9234 16.757 22.3813 16.2991 22.3813 15.7343V11.14H24.1631C24.8051 11.1487 24.9341 11.6451 25.022 12.1447L26.4223 21.2654C26.5084 21.8236 27.0306 22.2063 27.5888 22.1203C28.147 22.0342 28.5298 21.512 28.4438 20.9538L27.0435 11.8351C26.7135 10.1291 25.6653 9.09452 24.1631 9.09452H22.3813V7.30874C22.3813 3.64882 19.4083 0.669006 15.7516 0.669006ZM15.7516 2.71446C18.3087 2.71446 20.3359 4.74487 20.3359 7.30874V9.09452H11.1653V7.30874C11.1653 4.74487 13.1944 2.71446 15.7516 2.71446Z" fill="black"/>
<path d="M26.6302 24.2936C20.7371 24.2936 15.9375 29.0916 15.9375 34.9823C15.9375 40.873 20.7371 45.669 26.6302 45.669C32.5232 45.669 37.3229 40.873 37.3229 34.9823C37.3229 29.0916 32.5232 24.2936 26.6302 24.2936ZM26.6302 26.339C31.4184 26.339 35.2774 30.1976 35.2774 34.9823C35.2774 39.7669 31.4184 43.6235 26.6302 43.6235C21.842 43.6235 17.983 39.7669 17.983 34.9823C17.983 30.1976 21.842 26.339 26.6302 26.339Z" fill="black"/>
<path d="M29.9125 31.2809L25.522 36.5064L23.2908 34.2392C22.8947 33.8366 22.2473 33.8312 21.8446 34.2272C21.442 34.6233 21.4366 35.2707 21.8326 35.6734L24.8528 38.7416C25.276 39.1713 25.9771 39.1435 26.365 38.6817L31.4786 32.5972C31.8426 32.1644 31.7863 31.5183 31.3527 31.155C30.8547 30.7616 30.3181 30.832 29.9125 31.2809Z" fill="black"/>
</svg>
