<svg xmlns="http://www.w3.org/2000/svg" xmlns:xlink="http://www.w3.org/1999/xlink" width="75" height="75" viewBox="0 0 75 75">
  <defs>
    <clipPath id="clip-path">
      <rect id="Rectangle_15084" data-name="Rectangle 15084" width="30" height="37" fill="#171717"/>
    </clipPath>
  </defs>
  <g id="Group_73400" data-name="Group 73400" transform="translate(0.232 0.232)">
    <circle id="Ellipse_38" data-name="Ellipse 38" cx="37.5" cy="37.5" r="37.5" transform="translate(-0.232 -0.232)" fill="#c9f6ff"/>
    <g id="billingicon" transform="translate(19.768 18.768)" clip-path="url(#clip-path)">
      <path id="Path_23489" data-name="Path 23489" d="M5.359,28.647H.7V13.427a2.621,2.621,0,0,1,.168-.977,2.5,2.5,0,0,1,.515-.829,2.325,2.325,0,0,1,.78-.548,2.21,2.21,0,0,1,.919-.178A2.21,2.21,0,0,1,4,11.073a2.325,2.325,0,0,1,.78.548,2.5,2.5,0,0,1,.515.829,2.621,2.621,0,0,1,.168.977V33.719a2.619,2.619,0,0,0,.165.98,2.5,2.5,0,0,0,.514.832,2.326,2.326,0,0,0,.781.55,2.208,2.208,0,0,0,.921.179m0,0a2.233,2.233,0,0,0,.924-.182,2.351,2.351,0,0,0,.783-.551,2.523,2.523,0,0,0,.518-.833,2.645,2.645,0,0,0,.171-.982V.74l2.383,2.532L15,.74l2.4,2.532L19.778.74l2.381,2.532L24.54.74l2.473,2.532L29.3.74V33.728a2.621,2.621,0,0,1-.168.977,2.5,2.5,0,0,1-.515.829,2.328,2.328,0,0,1-.78.548,2.21,2.21,0,0,1-.919.178Z" fill="none" stroke="#161717" stroke-linecap="round" stroke-linejoin="round" stroke-width="1.5"/>
      <path id="Path_23490" data-name="Path 23490" d="M10,10.893l-6.922-.007" fill="none" stroke="#161717" stroke-linecap="round" stroke-linejoin="round" stroke-width="1.5"/>
      <path id="Path_23491" data-name="Path 23491" d="M17.027,16.88h7.22" fill="none" stroke="#161717" stroke-linecap="round" stroke-linejoin="round" stroke-width="1.5"/>
      <path id="Path_23492" data-name="Path 23492" d="M21.859,24.494,17.089,19.42s4.771.2,4.771-2.435-4.832-2.639-4.832-2.639h7.22" fill="none" stroke="#161717" stroke-linecap="round" stroke-linejoin="round" stroke-width="1.5"/>
    </g>
  </g>
</svg>
