<svg xmlns="http://www.w3.org/2000/svg" width="75" height="75" viewBox="0 0 75 75">
  <g id="Group_73404" data-name="Group 73404" transform="translate(-0.037 0.232)">
    <circle id="Ellipse_38" data-name="Ellipse 38" cx="37.5" cy="37.5" r="37.5" transform="translate(0.037 -0.232)" fill="#87f1d5"/>
    <g id="estore" transform="translate(7950.016 -10742.105)">
      <path id="Path" d="M38.243,0H1.653A1.877,1.877,0,0,0,0,2.041v28.58C0,34,2.225,36.746,4.959,36.746H34.936c2.735,0,4.959-2.747,4.959-6.124V2.041A1.877,1.877,0,0,0,38.243,0Z" transform="translate(-7932.427 10761)" fill="none" stroke="#161717" stroke-linecap="round" stroke-width="1.5"/>
      <path id="Path-2" data-name="Path" d="M24.746,2.714a2.373,2.373,0,0,1,1.651.663,2.282,2.282,0,0,1,.7,1.649h0V6.207a8.067,8.067,0,0,1-2.5,5.823,8.662,8.662,0,0,1-11.959,0,8.067,8.067,0,0,1-2.5-5.823h0V5.026a2.282,2.282,0,0,1,.7-1.649,2.389,2.389,0,0,1,3.3,0,2.282,2.282,0,0,1,.7,1.649h0V6.207a3.5,3.5,0,0,0,1.091,2.525,3.891,3.891,0,0,0,5.356,0A3.5,3.5,0,0,0,22.39,6.207h0V5.026a2.282,2.282,0,0,1,.7-1.649A2.373,2.373,0,0,1,24.746,2.714Z" transform="translate(-7931.1 10761.354)" fill="none" stroke="#161717" stroke-linecap="round" stroke-width="1.5"/>
      <path id="Shape" d="M16.08,11.775A5.781,5.781,0,0,1,10.426,5.9L10.417.908h0A.865.865,0,1,1,12.145.823q0,.043,0,.085l.01.623.1.042h0A5.5,5.5,0,0,1,16.091,0,5.784,5.784,0,0,1,21.735,5.9a5.777,5.777,0,0,1-5.655,5.879Zm.008-1.792A4.022,4.022,0,0,0,20.02,5.888,4.015,4.015,0,0,0,16.089,1.8,4.018,4.018,0,0,0,12.157,5.9a4.012,4.012,0,0,0,3.929,4.088Z" transform="translate(-7917.415 10782.859)" fill="#161717"/>
      <path id="Shape-2" data-name="Shape" d="M5.655,11.775A5.777,5.777,0,0,1,0,5.9,5.788,5.788,0,0,1,5.655,0a5.647,5.647,0,0,1,5.173,3.52h0A6.067,6.067,0,0,1,9.809,9.873l.044.1.594.009h0a.9.9,0,0,1,0,1.8h0Zm0-9.974A4.021,4.021,0,0,0,1.728,5.885h0a4.082,4.082,0,0,0,2.424,3.78h0a3.769,3.769,0,0,0,1.507.315h0a3.835,3.835,0,0,0,2.782-1.2h0a4.2,4.2,0,0,0,.85-4.457A3.919,3.919,0,0,0,5.66,1.8Z" transform="translate(-7918.779 10782.86)" fill="#161717"/>
    </g>
  </g>
</svg>
