<svg xmlns="http://www.w3.org/2000/svg" width="75" height="75" viewBox="0 0 75 75">
  <g id="Group_73404" data-name="Group 73404" transform="translate(-0.037 0.232)">
    <circle id="Ellipse_38" data-name="Ellipse 38" cx="37.5" cy="37.5" r="37.5" transform="translate(0.037 -0.232)" fill="#f8d378"/>
    <g id="Analysis-report-document-develop-infromation" transform="translate(12.691 14.427)">
      <path id="Path_23473" data-name="Path 23473" d="M43.482,9.843,35.841,2.2a.718.718,0,0,0-.493-.2H17.98A2.09,2.09,0,0,0,15.9,4.084v4.2a14.57,14.57,0,0,0,0,29.107v4.2a2.09,2.09,0,0,0,2.084,2.084H41.6A2.09,2.09,0,0,0,43.684,41.6V10.336A.718.718,0,0,0,43.482,9.843Zm-7.44-5.474,5.273,5.273H36.737a.7.7,0,0,1-.695-.695ZM3.392,22.84A13.215,13.215,0,0,1,15.9,9.662V22.556l-9.1,9.1a13.115,13.115,0,0,1-3.4-8.816Zm4.383,9.8,9.1-9.1H29.769a13.173,13.173,0,0,1-21.994,9.1ZM42.294,41.6a.7.7,0,0,1-.695.695H17.98a.7.7,0,0,1-.695-.695v-4.2A14.6,14.6,0,0,0,31.179,22.84a.7.7,0,0,0-.695-.695h-13.2V4.084a.7.7,0,0,1,.695-.695H34.653V8.947a2.09,2.09,0,0,0,2.084,2.084h5.557Z" fill="#161717"/>
      <path id="Path_23474" data-name="Path 23474" d="M26.695,7A.7.7,0,0,0,26,7.695V21.588a.7.7,0,0,0,.695.695H40.588a.7.7,0,0,0,.695-.695A14.6,14.6,0,0,0,26.695,7Zm.695,13.894V8.41A13.211,13.211,0,0,1,39.873,20.894Z" transform="translate(-7.325 -1.527)" fill="#161717"/>
      <path id="Path_23475" data-name="Path 23475" d="M46.252,40A6.252,6.252,0,1,0,52.5,46.252,6.252,6.252,0,0,0,46.252,40Zm0,11.115a4.863,4.863,0,1,1,4.863-4.863A4.863,4.863,0,0,1,46.252,51.115Z" transform="translate(-11.599 -11.602)" fill="#161717"/>
      <path id="Path_23476" data-name="Path 23476" d="M45.868,48.97l-1.593-1.593-.982.982,2.084,2.084a.7.7,0,0,0,.982,0l4.168-4.168-.982-.982Z" transform="translate(-12.605 -13.218)" fill="#161717"/>
      <path id="Path_23477" data-name="Path 23477" d="M50,19h5.557v1.389H50Z" transform="translate(-14.653 -5.19)" fill="#161717"/>
      <path id="Path_23478" data-name="Path 23478" d="M50,25h5.557v1.389H50Z" transform="translate(-14.653 -7.022)" fill="#161717"/>
      <path id="Path_23479" data-name="Path 23479" d="M50,31h5.557v1.389H50Z" transform="translate(-14.653 -8.854)" fill="#161717"/>
    </g>
  </g>
</svg>
