<svg width="60" height="60" viewBox="0 0 60 60" fill="none" xmlns="http://www.w3.org/2000/svg">
<path d="M30 60C46.5685 60 60 46.5685 60 30C60 13.4315 46.5685 0 30 0C13.4315 0 0 13.4315 0 30C0 46.5685 13.4315 60 30 60Z" fill="#EEC9FF"/>
<path d="M18.2555 38.074C18.1591 38.074 18.0636 38.055 17.9746 38.0182C17.8855 37.9813 17.8046 37.9272 17.7365 37.859C17.6683 37.7909 17.6142 37.71 17.5774 37.6209C17.5405 37.5319 17.5215 37.4364 17.5215 37.34V22.66C17.5215 22.4654 17.5988 22.2787 17.7365 22.141C17.8741 22.0034 18.0608 21.926 18.2555 21.926C18.4502 21.926 18.6368 22.0034 18.7745 22.141C18.9121 22.2787 18.9895 22.4654 18.9895 22.66V37.34C18.9895 37.4364 18.9705 37.5319 18.9336 37.6209C18.8967 37.71 18.8427 37.7909 18.7745 37.859C18.7063 37.9272 18.6254 37.9813 18.5364 38.0182C18.4473 38.055 18.3519 38.074 18.2555 38.074Z" fill="#343434"/>
<path d="M21.191 35.138C21.0946 35.138 20.9992 35.119 20.9101 35.0822C20.8211 35.0453 20.7402 34.9912 20.672 34.923C20.6039 34.8549 20.5498 34.774 20.5129 34.6849C20.476 34.5959 20.457 34.5004 20.457 34.404V22.66C20.457 22.4654 20.5344 22.2787 20.672 22.141C20.8097 22.0034 20.9964 21.926 21.191 21.926C21.3857 21.926 21.5724 22.0034 21.71 22.141C21.8477 22.2787 21.925 22.4654 21.925 22.66V34.404C21.925 34.5004 21.906 34.5959 21.8692 34.6849C21.8323 34.774 21.7782 34.8549 21.71 34.923C21.6419 34.9912 21.561 35.0453 21.4719 35.0822C21.3829 35.119 21.2874 35.138 21.191 35.138Z" fill="#343434"/>
<path d="M24.1266 35.138C24.0302 35.138 23.9348 35.119 23.8457 35.0822C23.7567 35.0453 23.6757 34.9912 23.6076 34.923C23.5394 34.8549 23.4853 34.774 23.4485 34.6849C23.4116 34.5959 23.3926 34.5004 23.3926 34.404V22.66C23.3926 22.4654 23.4699 22.2787 23.6076 22.141C23.7452 22.0034 23.9319 21.926 24.1266 21.926C24.3213 21.926 24.5079 22.0034 24.6456 22.141C24.7833 22.2787 24.8606 22.4654 24.8606 22.66V34.404C24.8606 34.5987 24.7833 34.7854 24.6456 34.923C24.5079 35.0607 24.3213 35.138 24.1266 35.138Z" fill="#343434"/>
<path d="M27.0641 35.138C26.9677 35.138 26.8722 35.119 26.7832 35.0822C26.6941 35.0453 26.6132 34.9912 26.5451 34.923C26.4769 34.8549 26.4228 34.774 26.386 34.6849C26.3491 34.5959 26.3301 34.5004 26.3301 34.404V22.66C26.3301 22.4654 26.4074 22.2787 26.5451 22.141C26.6827 22.0034 26.8694 21.926 27.0641 21.926C27.2587 21.926 27.4454 22.0034 27.5831 22.141C27.7208 22.2787 27.7981 22.4654 27.7981 22.66V34.404C27.7981 34.5987 27.7208 34.7854 27.5831 34.923C27.4454 35.0607 27.2587 35.138 27.0641 35.138Z" fill="#343434"/>
<path d="M29.9996 38.074C29.9032 38.074 29.8078 38.055 29.7187 38.0182C29.6297 37.9813 29.5488 37.9272 29.4806 37.859C29.4124 37.7909 29.3584 37.71 29.3215 37.6209C29.2846 37.5319 29.2656 37.4364 29.2656 37.34V22.66C29.2656 22.4654 29.343 22.2787 29.4806 22.141C29.6183 22.0034 29.8049 21.926 29.9996 21.926C30.1943 21.926 30.381 22.0034 30.5186 22.141C30.6563 22.2787 30.7336 22.4654 30.7336 22.66V37.34C30.7336 37.5347 30.6563 37.7214 30.5186 37.859C30.381 37.9967 30.1943 38.074 29.9996 38.074Z" fill="#343434"/>
<path d="M32.9352 35.138C32.8388 35.138 32.7433 35.119 32.6543 35.0822C32.5652 35.0453 32.4843 34.9912 32.4161 34.923C32.348 34.8549 32.2939 34.774 32.257 34.6849C32.2202 34.5959 32.2012 34.5004 32.2012 34.404V22.66C32.2012 22.4654 32.2785 22.2787 32.4161 22.141C32.5538 22.0034 32.7405 21.926 32.9352 21.926C33.1298 21.926 33.3165 22.0034 33.4542 22.141C33.5918 22.2787 33.6692 22.4654 33.6692 22.66V34.404C33.6692 34.5004 33.6502 34.5959 33.6133 34.6849C33.5764 34.774 33.5224 34.8549 33.4542 34.923C33.386 34.9912 33.3051 35.0453 33.2161 35.0822C33.127 35.119 33.0315 35.138 32.9352 35.138Z" fill="#343434"/>
<path d="M35.8707 35.138C35.7743 35.138 35.6789 35.119 35.5898 35.0822C35.5008 35.0453 35.4199 34.9912 35.3517 34.923C35.2836 34.8549 35.2295 34.774 35.1926 34.6849C35.1557 34.5959 35.1367 34.5004 35.1367 34.404V22.66C35.1367 22.4654 35.2141 22.2787 35.3517 22.141C35.4894 22.0034 35.6761 21.926 35.8707 21.926C36.0654 21.926 36.2521 22.0034 36.3897 22.141C36.5274 22.2787 36.6047 22.4654 36.6047 22.66V34.404C36.6047 34.5987 36.5274 34.7854 36.3897 34.923C36.2521 35.0607 36.0654 35.138 35.8707 35.138Z" fill="#343434"/>
<path d="M38.8082 35.138C38.7118 35.138 38.6164 35.119 38.5273 35.0822C38.4383 35.0453 38.3574 34.9912 38.2892 34.923C38.2211 34.8549 38.167 34.774 38.1301 34.6849C38.0932 34.5959 38.0742 34.5004 38.0742 34.404V22.66C38.0742 22.4654 38.1516 22.2787 38.2892 22.141C38.4269 22.0034 38.6136 21.926 38.8082 21.926C39.0029 21.926 39.1896 22.0034 39.3272 22.141C39.4649 22.2787 39.5422 22.4654 39.5422 22.66V34.404C39.5422 34.5987 39.4649 34.7854 39.3272 34.923C39.1896 35.0607 39.0029 35.138 38.8082 35.138Z" fill="#343434"/>
<path d="M41.7437 38.074C41.5491 38.074 41.3624 37.9967 41.2247 37.859C41.0871 37.7214 41.0098 37.5347 41.0098 37.34V22.66C41.0098 22.4654 41.0871 22.2787 41.2247 22.141C41.3624 22.0034 41.5491 21.926 41.7437 21.926C41.9384 21.926 42.1251 22.0034 42.2628 22.141C42.4004 22.2787 42.4778 22.4654 42.4778 22.66V37.34C42.4778 37.4364 42.4588 37.5319 42.4219 37.6209C42.385 37.71 42.3309 37.7909 42.2628 37.859C42.1946 37.9272 42.1137 37.9813 42.0247 38.0182C41.9356 38.055 41.8401 38.074 41.7437 38.074Z" fill="#343434"/>
<path d="M21.1941 38.0741C21.0977 38.0771 21.002 38.0569 20.9151 38.0151C20.8233 37.9844 20.7419 37.9286 20.6801 37.8541C20.5446 37.7245 20.4658 37.5467 20.4612 37.3593C20.4565 37.1718 20.5262 36.9902 20.6551 36.8541L20.6801 36.8291C20.7419 36.7545 20.8233 36.6988 20.9151 36.6681C21.0483 36.6131 21.1949 36.599 21.3361 36.6277C21.4774 36.6563 21.6069 36.7264 21.7081 36.8291C21.8087 36.9317 21.8771 37.0616 21.9046 37.2026C21.9321 37.3437 21.9176 37.4898 21.8628 37.6227C21.8081 37.7556 21.7156 37.8695 21.5967 37.9503C21.4778 38.031 21.3378 38.0751 21.1941 38.0771V38.0741Z" fill="#343434"/>
<path d="M24.1277 38.0751C24.0313 38.0781 23.9356 38.0579 23.8487 38.0161C23.7569 37.9853 23.6755 37.9296 23.6137 37.8551C23.4782 37.7256 23.3994 37.5476 23.3948 37.3602C23.3901 37.1728 23.4598 36.9912 23.5887 36.8551L23.6137 36.83C23.6754 36.7555 23.7568 36.6997 23.8487 36.6691C23.9817 36.6132 24.1286 36.5987 24.27 36.6274C24.4114 36.6561 24.5409 36.7267 24.6417 36.83C24.7162 36.8919 24.7719 36.9733 24.8027 37.0651C24.8415 37.153 24.8615 37.248 24.8615 37.3441C24.8615 37.4401 24.8415 37.5352 24.8027 37.6231C24.7723 37.715 24.7164 37.7965 24.6417 37.8581C24.5759 37.9282 24.4962 37.9837 24.4077 38.0211C24.3192 38.0585 24.2238 38.0769 24.1277 38.0751Z" fill="#343434"/>
<path d="M27.0652 38.0751C26.9688 38.0781 26.8731 38.0579 26.7862 38.0161C26.6944 37.9853 26.613 37.9296 26.5512 37.8551C26.4157 37.7256 26.3369 37.5476 26.3323 37.3602C26.3276 37.1728 26.3973 36.9912 26.5262 36.8551L26.5512 36.83C26.6129 36.7555 26.6943 36.6997 26.7862 36.6691C26.9192 36.6132 27.066 36.5987 27.2075 36.6274C27.3489 36.6561 27.4784 36.7267 27.5792 36.83C27.654 36.8917 27.7101 36.9732 27.7412 37.0651C27.7799 37.153 27.7999 37.248 27.7999 37.3441C27.7999 37.4401 27.7799 37.5352 27.7412 37.6231C27.7104 37.7151 27.6543 37.7966 27.5792 37.8581C27.5134 37.9282 27.4337 37.9837 27.3452 38.0211C27.2567 38.0585 27.1613 38.0769 27.0652 38.0751Z" fill="#343434"/>
<path d="M32.9374 38.075C32.8175 38.075 32.6993 38.0456 32.5935 37.9891C32.4876 37.9326 32.3973 37.851 32.3306 37.7513C32.2638 37.6517 32.2226 37.5371 32.2107 37.4177C32.1987 37.2984 32.2164 37.1779 32.2621 37.067C32.3077 36.9561 32.38 36.8581 32.4726 36.7818C32.5651 36.7055 32.675 36.6531 32.7926 36.6294C32.9102 36.6057 33.0319 36.6113 33.1468 36.6457C33.2617 36.6802 33.3663 36.7425 33.4514 36.827C33.5259 36.8888 33.5816 36.9702 33.6124 37.062C33.6511 37.1499 33.6711 37.2449 33.6711 37.341C33.6711 37.4371 33.6511 37.5321 33.6124 37.62C33.5819 37.7119 33.5262 37.7934 33.4514 37.855C33.386 37.9256 33.3064 37.9817 33.2178 38.0196C33.1293 38.0576 33.0337 38.0764 32.9374 38.075Z" fill="#343434"/>
<path d="M35.8731 38.074C35.7024 38.0773 35.5359 38.021 35.4023 37.9148C35.2687 37.8086 35.1762 37.6591 35.1409 37.4921C35.1056 37.3251 35.1296 37.1509 35.2088 36.9997C35.2879 36.8485 35.4174 36.7296 35.5748 36.6635C35.7322 36.5974 35.9077 36.5882 36.0711 36.6375C36.2346 36.6869 36.3757 36.7916 36.4702 36.9338C36.5647 37.0759 36.6068 37.2466 36.589 37.4164C36.5713 37.5862 36.495 37.7445 36.3731 37.8641C36.2394 37.9953 36.0605 38.0704 35.8731 38.074Z" fill="#343434"/>
<path d="M38.808 38.0741C38.7116 38.0755 38.6161 38.0566 38.5276 38.0187C38.439 37.9808 38.3594 37.9247 38.2939 37.8541C38.2191 37.7925 38.1633 37.7111 38.133 37.6191C38.0942 37.5312 38.0742 37.4362 38.0742 37.3401C38.0742 37.244 38.0942 37.149 38.133 37.0611C38.1637 36.9692 38.2194 36.8879 38.2939 36.8261C38.3791 36.7432 38.4833 36.6825 38.5974 36.6492C38.7115 36.6159 38.832 36.6111 38.9484 36.6352C39.0647 36.6593 39.1734 36.7116 39.2649 36.7874C39.3564 36.8633 39.4279 36.9604 39.4732 37.0702C39.5184 37.1801 39.5361 37.2994 39.5245 37.4177C39.513 37.536 39.4726 37.6497 39.407 37.7487C39.3413 37.8478 39.2524 37.9292 39.148 37.986C39.0436 38.0427 38.9268 38.0729 38.808 38.0741Z" fill="#343434"/>
<path d="M13.8512 23.394C13.6565 23.394 13.4698 23.3166 13.3322 23.179C13.1945 23.0413 13.1172 22.8546 13.1172 22.66V18.26C13.1167 18.1632 13.1353 18.0674 13.1719 17.9779C13.2086 17.8883 13.2626 17.8069 13.3308 17.7384C13.399 17.6698 13.4801 17.6154 13.5694 17.5782C13.6587 17.5411 13.7545 17.522 13.8512 17.522H18.2512C18.4459 17.522 18.6326 17.5993 18.7702 17.737C18.9079 17.8746 18.9852 18.0613 18.9852 18.256C18.9852 18.4506 18.9079 18.6373 18.7702 18.775C18.6326 18.9126 18.4459 18.99 18.2512 18.99H14.5852V22.66C14.5852 22.8546 14.5079 23.0413 14.3702 23.179C14.2326 23.3166 14.0459 23.394 13.8512 23.394Z" fill="#343434"/>
<path d="M18.2552 42.478H13.8512C13.6565 42.478 13.4698 42.4007 13.3322 42.263C13.1945 42.1253 13.1172 41.9387 13.1172 41.744V37.344C13.1172 37.1493 13.1945 36.9626 13.3322 36.825C13.4698 36.6873 13.6565 36.61 13.8512 36.61C14.0459 36.61 14.2326 36.6873 14.3702 36.825C14.5079 36.9626 14.5852 37.1493 14.5852 37.344V41.014H18.2552C18.4499 41.014 18.6366 41.0913 18.7742 41.229C18.9119 41.3666 18.9892 41.5533 18.9892 41.748C18.9892 41.9427 18.9119 42.1293 18.7742 42.267C18.6366 42.4047 18.4499 42.482 18.2552 42.482V42.478Z" fill="#343434"/>
<path d="M46.1478 23.394C45.9531 23.394 45.7664 23.3166 45.6288 23.179C45.4911 23.0413 45.4138 22.8546 45.4138 22.66V18.99H41.7437C41.5491 18.99 41.3624 18.9126 41.2247 18.775C41.0871 18.6373 41.0098 18.4506 41.0098 18.256C41.0098 18.0613 41.0871 17.8746 41.2247 17.737C41.3624 17.5993 41.5491 17.522 41.7437 17.522H46.1438C46.3384 17.522 46.5251 17.5993 46.6628 17.737C46.8004 17.8746 46.8777 18.0613 46.8777 18.256V22.656C46.8783 22.7524 46.8598 22.8479 46.8234 22.9372C46.787 23.0264 46.7334 23.1076 46.6656 23.1762C46.5978 23.2447 46.5172 23.2992 46.4283 23.3366C46.3395 23.3739 46.2442 23.3935 46.1478 23.394Z" fill="#343434"/>
<path d="M46.1477 42.4779H41.7477C41.553 42.4779 41.3663 42.4006 41.2286 42.263C41.091 42.1253 41.0137 41.9386 41.0137 41.744C41.0137 41.5493 41.091 41.3626 41.2286 41.2249C41.3663 41.0873 41.553 41.0099 41.7477 41.0099H45.4177V37.3399C45.4177 37.1453 45.495 36.9586 45.6327 36.8209C45.7703 36.6833 45.957 36.606 46.1517 36.606C46.3463 36.606 46.533 36.6833 46.6707 36.8209C46.8083 36.9586 46.8857 37.1453 46.8857 37.3399V41.74C46.8862 41.837 46.8675 41.9332 46.8306 42.023C46.7937 42.1128 46.7393 42.1943 46.6707 42.263C46.602 42.3316 46.5205 42.386 46.4307 42.4229C46.3409 42.4598 46.2447 42.4785 46.1477 42.4779Z" fill="#343434"/>
<path d="M18.2555 38.074C18.1591 38.074 18.0636 38.055 17.9746 38.0182C17.8855 37.9813 17.8046 37.9272 17.7365 37.859C17.6683 37.7909 17.6142 37.71 17.5774 37.6209C17.5405 37.5319 17.5215 37.4364 17.5215 37.34V22.66C17.5215 22.4654 17.5988 22.2787 17.7365 22.141C17.8741 22.0034 18.0608 21.926 18.2555 21.926C18.4502 21.926 18.6368 22.0034 18.7745 22.141C18.9121 22.2787 18.9895 22.4654 18.9895 22.66V37.34C18.9895 37.4364 18.9705 37.5319 18.9336 37.6209C18.8967 37.71 18.8427 37.7909 18.7745 37.859C18.7063 37.9272 18.6254 37.9813 18.5364 38.0182C18.4473 38.055 18.3519 38.074 18.2555 38.074Z" fill="#343434"/>
<path d="M21.191 35.138C21.0946 35.138 20.9992 35.119 20.9101 35.0822C20.8211 35.0453 20.7402 34.9912 20.672 34.923C20.6039 34.8549 20.5498 34.774 20.5129 34.6849C20.476 34.5959 20.457 34.5004 20.457 34.404V22.66C20.457 22.4654 20.5344 22.2787 20.672 22.141C20.8097 22.0034 20.9964 21.926 21.191 21.926C21.3857 21.926 21.5724 22.0034 21.71 22.141C21.8477 22.2787 21.925 22.4654 21.925 22.66V34.404C21.925 34.5004 21.906 34.5959 21.8692 34.6849C21.8323 34.774 21.7782 34.8549 21.71 34.923C21.6419 34.9912 21.561 35.0453 21.4719 35.0822C21.3829 35.119 21.2874 35.138 21.191 35.138Z" fill="#343434"/>
<path d="M24.1266 35.138C24.0302 35.138 23.9348 35.119 23.8457 35.0822C23.7567 35.0453 23.6757 34.9912 23.6076 34.923C23.5394 34.8549 23.4853 34.774 23.4485 34.6849C23.4116 34.5959 23.3926 34.5004 23.3926 34.404V22.66C23.3926 22.4654 23.4699 22.2787 23.6076 22.141C23.7452 22.0034 23.9319 21.926 24.1266 21.926C24.3213 21.926 24.5079 22.0034 24.6456 22.141C24.7833 22.2787 24.8606 22.4654 24.8606 22.66V34.404C24.8606 34.5987 24.7833 34.7854 24.6456 34.923C24.5079 35.0607 24.3213 35.138 24.1266 35.138Z" fill="#343434"/>
<path d="M27.0641 35.138C26.9677 35.138 26.8722 35.119 26.7832 35.0822C26.6941 35.0453 26.6132 34.9912 26.5451 34.923C26.4769 34.8549 26.4228 34.774 26.386 34.6849C26.3491 34.5959 26.3301 34.5004 26.3301 34.404V22.66C26.3301 22.4654 26.4074 22.2787 26.5451 22.141C26.6827 22.0034 26.8694 21.926 27.0641 21.926C27.2587 21.926 27.4454 22.0034 27.5831 22.141C27.7208 22.2787 27.7981 22.4654 27.7981 22.66V34.404C27.7981 34.5987 27.7208 34.7854 27.5831 34.923C27.4454 35.0607 27.2587 35.138 27.0641 35.138Z" fill="#343434"/>
<path d="M29.9996 38.074C29.9032 38.074 29.8078 38.055 29.7187 38.0182C29.6297 37.9813 29.5488 37.9272 29.4806 37.859C29.4124 37.7909 29.3584 37.71 29.3215 37.6209C29.2846 37.5319 29.2656 37.4364 29.2656 37.34V22.66C29.2656 22.4654 29.343 22.2787 29.4806 22.141C29.6183 22.0034 29.8049 21.926 29.9996 21.926C30.1943 21.926 30.381 22.0034 30.5186 22.141C30.6563 22.2787 30.7336 22.4654 30.7336 22.66V37.34C30.7336 37.5347 30.6563 37.7214 30.5186 37.859C30.381 37.9967 30.1943 38.074 29.9996 38.074Z" fill="#343434"/>
<path d="M32.9352 35.138C32.8388 35.138 32.7433 35.119 32.6543 35.0822C32.5652 35.0453 32.4843 34.9912 32.4161 34.923C32.348 34.8549 32.2939 34.774 32.257 34.6849C32.2202 34.5959 32.2012 34.5004 32.2012 34.404V22.66C32.2012 22.4654 32.2785 22.2787 32.4161 22.141C32.5538 22.0034 32.7405 21.926 32.9352 21.926C33.1298 21.926 33.3165 22.0034 33.4542 22.141C33.5918 22.2787 33.6692 22.4654 33.6692 22.66V34.404C33.6692 34.5004 33.6502 34.5959 33.6133 34.6849C33.5764 34.774 33.5224 34.8549 33.4542 34.923C33.386 34.9912 33.3051 35.0453 33.2161 35.0822C33.127 35.119 33.0315 35.138 32.9352 35.138Z" fill="#343434"/>
<path d="M35.8707 35.138C35.7743 35.138 35.6789 35.119 35.5898 35.0822C35.5008 35.0453 35.4199 34.9912 35.3517 34.923C35.2836 34.8549 35.2295 34.774 35.1926 34.6849C35.1557 34.5959 35.1367 34.5004 35.1367 34.404V22.66C35.1367 22.4654 35.2141 22.2787 35.3517 22.141C35.4894 22.0034 35.6761 21.926 35.8707 21.926C36.0654 21.926 36.2521 22.0034 36.3897 22.141C36.5274 22.2787 36.6047 22.4654 36.6047 22.66V34.404C36.6047 34.5987 36.5274 34.7854 36.3897 34.923C36.2521 35.0607 36.0654 35.138 35.8707 35.138Z" fill="#343434"/>
<path d="M38.8063 35.138C38.7099 35.138 38.6144 35.119 38.5254 35.0822C38.4363 35.0453 38.3554 34.9912 38.2873 34.923C38.2191 34.8549 38.165 34.774 38.1281 34.6849C38.0913 34.5959 38.0723 34.5004 38.0723 34.404V22.66C38.0723 22.4654 38.1496 22.2787 38.2873 22.141C38.4249 22.0034 38.6116 21.926 38.8063 21.926C39.0009 21.926 39.1876 22.0034 39.3253 22.141C39.4629 22.2787 39.5403 22.4654 39.5403 22.66V34.404C39.5403 34.5987 39.4629 34.7854 39.3253 34.923C39.1876 35.0607 39.0009 35.138 38.8063 35.138Z" fill="#343434"/>
<path d="M41.7437 38.074C41.5491 38.074 41.3624 37.9967 41.2247 37.859C41.0871 37.7214 41.0098 37.5347 41.0098 37.34V22.66C41.0098 22.4654 41.0871 22.2787 41.2247 22.141C41.3624 22.0034 41.5491 21.926 41.7437 21.926C41.9384 21.926 42.1251 22.0034 42.2628 22.141C42.4004 22.2787 42.4778 22.4654 42.4778 22.66V37.34C42.4778 37.4364 42.4588 37.5319 42.4219 37.6209C42.385 37.71 42.3309 37.7909 42.2628 37.859C42.1946 37.9272 42.1137 37.9813 42.0247 38.0182C41.9356 38.055 41.8401 38.074 41.7437 38.074Z" fill="#343434"/>
<path d="M21.1903 38.074C21.0939 38.077 20.9982 38.0568 20.9113 38.015C20.8196 37.984 20.7382 37.9283 20.6763 37.854C20.5415 37.7239 20.4635 37.546 20.4592 37.3587C20.4549 37.1715 20.5246 36.9901 20.6533 36.854L20.6763 36.831C20.7382 36.7566 20.8195 36.7009 20.9113 36.67C21.09 36.5965 21.2905 36.5965 21.4693 36.67C21.5612 36.7005 21.6426 36.7563 21.7043 36.831C21.8049 36.9336 21.8733 37.0635 21.9008 37.2045C21.9283 37.3456 21.9138 37.4916 21.859 37.6246C21.8043 37.7575 21.7117 37.8714 21.5929 37.9522C21.474 38.0329 21.334 38.077 21.1903 38.079V38.074Z" fill="#343434"/>
<path d="M24.1274 38.075C23.9836 38.0732 23.8435 38.0293 23.7244 37.9485C23.6054 37.8678 23.5127 37.7539 23.4578 37.621C23.403 37.4881 23.3884 37.3419 23.4159 37.2008C23.4433 37.0596 23.5117 36.9296 23.6124 36.827C23.7129 36.7233 23.8425 36.6524 23.984 36.6237C24.1255 36.595 24.2724 36.6097 24.4054 36.666C24.4973 36.6965 24.5788 36.7523 24.6404 36.827C24.741 36.9294 24.8093 37.0592 24.8369 37.2C24.8644 37.3409 24.8501 37.4868 24.7956 37.6197C24.7411 37.7525 24.6489 37.8664 24.5303 37.9473C24.4117 38.0283 24.272 38.0727 24.1284 38.075H24.1274Z" fill="#343434"/>
<path d="M27.063 38.074C26.9192 38.0723 26.779 38.0283 26.66 37.9476C26.541 37.8669 26.4483 37.753 26.3934 37.6201C26.3385 37.4871 26.3239 37.341 26.3514 37.1998C26.3789 37.0587 26.4472 36.9287 26.548 36.826C26.6099 36.7516 26.6912 36.6959 26.783 36.665C26.9162 36.61 27.0628 36.5959 27.204 36.6246C27.3453 36.6533 27.4748 36.7234 27.576 36.826C27.6766 36.9286 27.745 37.0585 27.7725 37.1996C27.8 37.3407 27.7855 37.4867 27.7307 37.6196C27.676 37.7525 27.5834 37.8664 27.4646 37.9472C27.3457 38.028 27.2057 38.0721 27.062 38.074H27.063Z" fill="#343434"/>
<path d="M32.9368 38.074C32.8405 38.0754 32.7452 38.0552 32.6578 38.015C32.5661 37.984 32.4847 37.9283 32.4228 37.854C32.2878 37.7241 32.2096 37.546 32.2053 37.3587C32.201 37.1714 32.2709 36.99 32.3998 36.854L32.4228 36.831C32.4847 36.7566 32.5661 36.7009 32.6578 36.67C32.8365 36.5965 33.037 36.5965 33.2158 36.67C33.3077 36.7005 33.3891 36.7563 33.4508 36.831C33.5514 36.9336 33.6198 37.0635 33.6473 37.2045C33.6748 37.3456 33.6603 37.4916 33.6055 37.6246C33.5508 37.7575 33.4582 37.8714 33.3394 37.9522C33.2205 38.0329 33.0805 38.077 32.9368 38.079V38.074Z" fill="#343434"/>
<path d="M35.8723 38.074C35.776 38.0755 35.6807 38.0553 35.5933 38.015C35.5016 37.984 35.4202 37.9283 35.3583 37.854C35.2233 37.7241 35.1451 37.5461 35.1408 37.3587C35.1365 37.1714 35.2064 36.99 35.3353 36.854L35.3583 36.831C35.4955 36.6964 35.6801 36.621 35.8723 36.621C36.0645 36.621 36.2491 36.6964 36.3863 36.831C36.5223 36.9601 36.6016 37.1379 36.6066 37.3254C36.6117 37.5129 36.5422 37.6947 36.4133 37.831L36.3863 37.858C36.3246 37.9326 36.2431 37.9884 36.1513 38.019C36.0636 38.0581 35.9682 38.0769 35.8723 38.074Z" fill="#343434"/>
<path d="M38.8125 38.074C38.7163 38.0754 38.621 38.0553 38.5336 38.015C38.4419 37.9841 38.3605 37.9283 38.2985 37.854C38.228 37.7885 38.172 37.7089 38.1341 37.6203C38.0962 37.5318 38.0772 37.4363 38.0785 37.34C38.0749 37.2436 38.0952 37.1477 38.1376 37.061C38.1678 36.9692 38.2233 36.8878 38.2976 36.826C38.3595 36.7516 38.4408 36.6959 38.5325 36.665C38.6658 36.61 38.8123 36.5959 38.9536 36.6246C39.0948 36.6533 39.2243 36.7234 39.3255 36.826C39.3995 36.8883 39.4552 36.9695 39.4866 37.061C39.5289 37.1477 39.5491 37.2436 39.5455 37.34C39.5402 37.533 39.4612 37.7167 39.3247 37.8532C39.1882 37.9897 39.0045 38.0687 38.8115 38.074H38.8125Z" fill="#343434"/>
<path d="M13.8512 23.394C13.6565 23.394 13.4698 23.3166 13.3322 23.179C13.1945 23.0413 13.1172 22.8546 13.1172 22.66V18.26C13.1167 18.1632 13.1353 18.0674 13.1719 17.9779C13.2086 17.8883 13.2626 17.8069 13.3308 17.7384C13.399 17.6698 13.4801 17.6154 13.5694 17.5782C13.6587 17.5411 13.7545 17.522 13.8512 17.522H18.2512C18.4459 17.522 18.6326 17.5993 18.7702 17.737C18.9079 17.8746 18.9852 18.0613 18.9852 18.256C18.9852 18.4506 18.9079 18.6373 18.7702 18.775C18.6326 18.9126 18.4459 18.99 18.2512 18.99H14.5852V22.66C14.5852 22.8546 14.5079 23.0413 14.3702 23.179C14.2326 23.3166 14.0459 23.394 13.8512 23.394Z" fill="#343434"/>
<path d="M18.2552 42.478H13.8512C13.6565 42.478 13.4698 42.4007 13.3322 42.263C13.1945 42.1253 13.1172 41.9387 13.1172 41.744V37.344C13.1172 37.1493 13.1945 36.9626 13.3322 36.825C13.4698 36.6873 13.6565 36.61 13.8512 36.61C14.0459 36.61 14.2326 36.6873 14.3702 36.825C14.5079 36.9626 14.5852 37.1493 14.5852 37.344V41.014H18.2552C18.4499 41.014 18.6366 41.0913 18.7742 41.229C18.9119 41.3666 18.9892 41.5533 18.9892 41.748C18.9892 41.9427 18.9119 42.1293 18.7742 42.267C18.6366 42.4047 18.4499 42.482 18.2552 42.482V42.478Z" fill="#343434"/>
<path d="M46.1478 23.394C45.9531 23.394 45.7664 23.3166 45.6288 23.179C45.4911 23.0413 45.4138 22.8546 45.4138 22.66V18.99H41.7437C41.5491 18.99 41.3624 18.9126 41.2247 18.775C41.0871 18.6373 41.0098 18.4506 41.0098 18.256C41.0098 18.0613 41.0871 17.8746 41.2247 17.737C41.3624 17.5993 41.5491 17.522 41.7437 17.522H46.1438C46.3384 17.522 46.5251 17.5993 46.6628 17.737C46.8004 17.8746 46.8777 18.0613 46.8777 18.256V22.656C46.8783 22.7524 46.8598 22.8479 46.8234 22.9372C46.787 23.0264 46.7334 23.1076 46.6656 23.1762C46.5978 23.2447 46.5172 23.2992 46.4283 23.3366C46.3395 23.3739 46.2442 23.3935 46.1478 23.394Z" fill="#343434"/>
<path d="M46.1477 42.4779H41.7477C41.553 42.4779 41.3663 42.4006 41.2286 42.263C41.091 42.1253 41.0137 41.9386 41.0137 41.744C41.0137 41.5493 41.091 41.3626 41.2286 41.2249C41.3663 41.0873 41.553 41.0099 41.7477 41.0099H45.4177V37.3399C45.4177 37.1453 45.495 36.9586 45.6327 36.8209C45.7703 36.6833 45.957 36.606 46.1517 36.606C46.3463 36.606 46.533 36.6833 46.6707 36.8209C46.8083 36.9586 46.8857 37.1453 46.8857 37.3399V41.74C46.8862 41.837 46.8675 41.9332 46.8306 42.023C46.7937 42.1128 46.7393 42.1943 46.6707 42.263C46.602 42.3316 46.5205 42.386 46.4307 42.4229C46.3409 42.4598 46.2447 42.4785 46.1477 42.4779Z" fill="#343434"/>
</svg>
