<svg width="60" height="60" viewBox="0 0 60 60" fill="none" xmlns="http://www.w3.org/2000/svg">
<path d="M30 60C46.5685 60 60 46.5685 60 30C60 13.4315 46.5685 0 30 0C13.4315 0 0 13.4315 0 30C0 46.5685 13.4315 60 30 60Z" fill="#8AE4F6"/>
<path d="M18.4857 48H41.1881C43.1481 48 44.7813 46.4212 44.7813 44.4068V31.5584C44.7813 30.4151 43.8558 29.4896 42.7125 29.4896H39.446V21.7043C39.446 19.7444 37.8671 18.1112 35.8528 18.1112H31.8785V12.6125C31.8785 12.1225 31.3341 11.9592 31.0074 12.1769L29.3197 13.4291L27.5775 12.1225C27.3598 11.9592 27.142 11.9592 26.9242 12.1225L25.1821 13.4291L23.4399 12.1225C23.1133 11.8503 22.5689 12.0681 22.5689 12.558V18.0567H18.5946C16.6346 18.0567 15.0014 19.6355 15.0014 21.6499V44.3524C14.9469 46.4212 16.5258 48 18.4857 48ZM42.767 30.5785C43.3114 30.5785 43.7469 31.014 43.7469 31.5584V44.4613C43.7469 45.8223 42.6581 46.9656 41.2426 46.9656H39.5004V30.5785H42.767ZM25.4543 14.5724L27.1965 13.2658L28.9386 14.5724C29.1564 14.7357 29.3741 14.7357 29.5919 14.5724L30.8441 13.7013V21.1599H23.6033V13.7013L24.801 14.5724C25.0188 14.6813 25.2365 14.6813 25.4543 14.5724ZM16.0358 21.7043C16.0358 20.3433 17.1246 19.2 18.5401 19.2H22.5144V21.1599H21.5344C21.2078 21.1599 20.99 21.3777 20.99 21.7043C20.99 22.031 21.2078 22.2488 21.5344 22.2488H32.9129C33.2395 22.2488 33.4573 22.031 33.4573 21.7043C33.4573 21.3777 33.2395 21.1599 32.9129 21.1599H31.9329V19.2H35.9072C37.2683 19.2 38.4116 20.2888 38.4116 21.7043V46.9112H18.4857C17.1246 46.9112 15.9813 45.8223 15.9813 44.4068V21.7043H16.0358Z" fill="black"/>
<path d="M20.7729 41.054H33.6758C34.0024 41.054 34.2202 40.8363 34.2202 40.5096V24.6987C34.2202 24.372 34.0024 24.1542 33.6758 24.1542H20.7729C20.4463 24.1542 20.2285 24.372 20.2285 24.6987V40.5096C20.2285 40.8363 20.4463 41.054 20.7729 41.054ZM21.3174 25.2975H33.1314V40.0196H21.3174V25.2975Z" fill="black"/>
<path d="M20.7729 44.189H21.5896C21.9162 44.189 22.134 43.9712 22.134 43.6446C22.134 43.3179 21.9162 43.1002 21.5896 43.1002H20.7729C20.4463 43.1002 20.2285 43.3179 20.2285 43.6446C20.2285 43.9712 20.4463 44.189 20.7729 44.189Z" fill="black"/>
<path d="M25.6169 43.1002H24.8003C24.4736 43.1002 24.2559 43.3179 24.2559 43.6446C24.2559 43.9712 24.4736 44.189 24.8003 44.189H25.6169C25.9436 44.189 26.1613 43.9712 26.1613 43.6446C26.1613 43.3179 25.8891 43.1002 25.6169 43.1002Z" fill="black"/>
<path d="M29.6462 43.1002H28.8296C28.5029 43.1002 28.2852 43.3179 28.2852 43.6446C28.2852 43.9712 28.5029 44.189 28.8296 44.189H29.6462C29.9729 44.189 30.1906 43.9712 30.1906 43.6446C30.1906 43.3179 29.9184 43.1002 29.6462 43.1002Z" fill="black"/>
<path d="M33.6755 43.1002H32.8589C32.5322 43.1002 32.3145 43.3179 32.3145 43.6446C32.3145 43.9712 32.5322 44.189 32.8589 44.189H33.6755C34.0022 44.189 34.2199 43.9712 34.2199 43.6446C34.2199 43.3179 33.9477 43.1002 33.6755 43.1002Z" fill="black"/>
<path d="M41.6772 44.1891C42.0039 44.1891 42.2217 43.9713 42.2217 43.6446V33.0828C42.2217 32.7562 42.0039 32.5384 41.6772 32.5384C41.3506 32.5384 41.1328 32.7562 41.1328 33.0828V43.6446C41.1328 43.9713 41.3506 44.1891 41.6772 44.1891Z" fill="black"/>
</svg>
