<svg id="Group_73153" data-name="Group 73153" xmlns="http://www.w3.org/2000/svg" width="74" height="74" viewBox="0 0 74 74">
  <circle id="Ellipse_635" data-name="Ellipse 635" cx="37" cy="37" r="37" fill="#f8d378"/>
  <g id="Group_73484" data-name="Group 73484" transform="translate(-9.492 14.108)">
    <g id="Group_73484-2" data-name="Group 73484" transform="translate(26.48)">
      <path id="Path_23522" data-name="Path 23522" d="M62.154,15.662a15.662,15.662,0,0,0-31.323,0A4.724,4.724,0,0,0,26.48,20.8v8.179c0,3.828,2.68,5.221,5.221,5.221h2.523a.87.87,0,0,0,.87-.87V16.48a.87.87,0,0,0-.87-.87H32.571a13.922,13.922,0,0,1,27.843,0H58.761a.87.87,0,0,0-.87.87V33.3a.87.87,0,0,0,.87.87h1.653c-.244,5.978-3.115,7.378-8.849,7.631v-.583a1.74,1.74,0,0,0-1.74-1.74H44.352a1.74,1.74,0,0,0-1.74,1.74v2.828a1.74,1.74,0,0,0,1.74,1.74h5.49a1.74,1.74,0,0,0,1.74-1.74v-.5c5.516-.252,10.285-1.392,10.572-9.423a4.724,4.724,0,0,0,4.35-5.134V20.8C66.5,17.393,64.4,15.94,62.154,15.662Zm-28.8,1.627v15.14h-1.7a3.159,3.159,0,0,1-3.48-3.48V20.769a3.163,3.163,0,0,1,3.48-3.48ZM49.842,42.73v1.323h-5.49V41.225h5.49ZM64.764,28.974a3.163,3.163,0,0,1-3.48,3.48H59.631V17.35h1.7a3.159,3.159,0,0,1,3.48,3.48Z" transform="translate(-26.48)" fill="#5a5a5a"/>
    </g>
  </g>
</svg>
