<svg id="Group_73150" data-name="Group 73150" xmlns="http://www.w3.org/2000/svg" width="74" height="74" viewBox="0 0 74 74">
  <circle id="Ellipse_635" data-name="Ellipse 635" cx="37" cy="37" r="37" fill="#eec9ff"/>
  <g id="Layer_2" data-name="Layer 2" transform="translate(10.869 9.134)">
    <path id="Path_23518" data-name="Path 23518" d="M19,27.848c0,4.879,3.248,8.848,7.239,8.848,9.6-.473,9.6-17.226,0-17.7C22.248,19,19,22.969,19,27.848Zm12.87,0c0,3.992-2.526,7.239-5.631,7.239-7.45-.333-7.447-14.148,0-14.479C29.344,20.609,31.87,23.856,31.87,27.848Z" transform="translate(-3.326 -1.565)" fill="#5a5a5a" stroke="#eec9ff" stroke-width="0.5"/>
    <path id="Path_23519" data-name="Path 23519" d="M2,38.75a2.819,2.819,0,0,0,2.815,2.815h7.239a2.805,2.805,0,0,0,2.775-3.217H29.606a.8.8,0,1,0,0-1.609H14.019a2.832,2.832,0,0,0,0-4.022,2.826,2.826,0,0,0-1.964-4.826H6.826V15.826H39V23.9a.8.8,0,0,0,1.609,0V15.826A1.61,1.61,0,0,0,39,14.217H10.044V12.609H42.218V24.127a.8.8,0,1,0,1.609,0V12.609A1.61,1.61,0,0,0,42.218,11H10.044a1.61,1.61,0,0,0-1.609,1.609v1.609H6.826a1.61,1.61,0,0,0-1.609,1.609V27.892a2.84,2.84,0,0,0-2.366,4.826,2.832,2.832,0,0,0,0,4.022A2.8,2.8,0,0,0,2,38.75Zm1.609-8.044A1.208,1.208,0,0,1,4.815,29.5h7.239a1.207,1.207,0,1,1,0,2.413H4.815a1.208,1.208,0,0,1-1.207-1.207Zm0,4.022a1.208,1.208,0,0,1,1.207-1.207h7.239a1.207,1.207,0,1,1,0,2.413H4.815a1.208,1.208,0,0,1-1.207-1.207Zm8.446,2.815a1.207,1.207,0,1,1,0,2.413H4.815a1.207,1.207,0,1,1,0-2.413Z" transform="translate(0 0)" fill="#5a5a5a" stroke="#eec9ff" stroke-width="0.5"/>
    <path id="Path_23520" data-name="Path 23520" d="M47.652,29A9.663,9.663,0,0,0,38,38.652c.53,12.805,18.776,12.8,19.3,0A9.663,9.663,0,0,0,47.652,29Zm0,17.7a8.053,8.053,0,0,1-8.044-8.044c.442-10.671,15.647-10.668,16.087,0A8.053,8.053,0,0,1,47.652,46.7Z" transform="translate(-7.043 -3.521)" fill="#5a5a5a" stroke="#eec9ff" stroke-width="0.5"/>
    <path id="Path_23521" data-name="Path 23521" d="M52.808,36.236a.8.8,0,0,0-1.137,0l-2.649,2.649-2.649-2.649a.8.8,0,1,0-1.137,1.137l2.649,2.649-2.649,2.649a.8.8,0,1,0,1.137,1.137l2.649-2.649,2.649,2.649a.8.8,0,1,0,1.137-1.137l-2.649-2.649,2.649-2.649A.8.8,0,0,0,52.808,36.236Z" transform="translate(-8.412 -4.891)" fill="#5a5a5a" stroke="#eec9ff" stroke-width="0.5"/>
  </g>
</svg>
