<svg width="40" height="34" viewBox="0 0 40 34" fill="none" xmlns="http://www.w3.org/2000/svg">
<path d="M24.2268 33.8229C23.7 33.8229 23.2874 33.4103 23.2874 32.8835V22.8611V22.499L23.0313 22.755L21.6369 24.1494L21.6341 24.1522L21.6315 24.1552C21.4706 24.3339 21.2452 24.4323 20.9967 24.4323C20.7453 24.4323 20.5063 24.3319 20.3239 24.1494L20.3211 24.1466L20.3182 24.144C20.1459 23.989 20.0476 23.7721 20.0413 23.5332C20.0346 23.2767 20.1376 23.0227 20.3239 22.8364L23.5485 19.6118L23.5513 19.609L23.5539 19.6061C23.7148 19.4274 23.9402 19.3289 24.1887 19.3289C24.4401 19.3289 24.6791 19.4294 24.8615 19.6118L28.1747 22.8378L28.1768 22.8399L28.179 22.8418C28.3513 22.9969 28.4496 23.2138 28.4559 23.4527C28.4626 23.7091 28.3596 23.9631 28.1733 24.1494C27.9952 24.3276 27.7796 24.4105 27.495 24.4105C27.2104 24.4105 26.9948 24.3276 26.8167 24.1494L25.4223 22.755L25.1662 22.499V22.8611V32.8835C25.1662 33.4103 24.7536 33.8229 24.2268 33.8229Z" fill="#5A5A5A"/>
<path d="M24.1883 19.479C23.9829 19.479 23.7971 19.5598 23.665 19.7065L23.6542 19.7179L20.4296 22.9425C20.2722 23.0999 20.1852 23.3137 20.1909 23.5293C20.1961 23.7266 20.2768 23.9053 20.4181 24.0325L20.4296 24.0434C20.5837 24.1975 20.7849 24.2823 20.9964 24.2823C21.2017 24.2823 21.3876 24.2015 21.5196 24.0548L21.5305 24.0434L23.437 22.1368V32.8835C23.437 33.3262 23.7838 33.6729 24.2264 33.6729C24.6691 33.6729 25.0158 33.3262 25.0158 32.8835V22.1368L26.9224 24.0434C27.0726 24.1936 27.249 24.2606 27.4946 24.2606C27.7402 24.2606 27.9166 24.1936 28.0668 24.0434C28.2242 23.886 28.3112 23.6722 28.3055 23.4566C28.3003 23.2593 28.2196 23.0806 28.0783 22.9534L28.0697 22.9453L24.7551 19.7179C24.601 19.5638 24.3997 19.479 24.1883 19.479ZM24.1883 19.179C24.4661 19.179 24.7493 19.2879 24.9672 19.5058L28.279 22.7304C28.7147 23.1226 28.7147 23.8198 28.279 24.2555C28.0611 24.4734 27.7996 24.5606 27.4946 24.5606C27.1896 24.5606 26.9281 24.4734 26.7102 24.2555L25.3158 22.8611V32.8835C25.3158 33.4936 24.8365 33.9729 24.2264 33.9729C23.6164 33.9729 23.137 33.4936 23.137 32.8835V22.8611L21.7426 24.2555C21.3504 24.6913 20.6532 24.6913 20.2174 24.2555C19.7817 23.8633 19.7817 23.1661 20.2174 22.7304L23.442 19.5058C23.6381 19.2879 23.9105 19.179 24.1883 19.179Z" fill="white"/>
<path d="M15.7737 33.8222C15.4891 33.8222 15.2735 33.7392 15.0954 33.5611L11.8708 30.3365L11.868 30.3337L11.8651 30.331C11.6928 30.176 11.5945 29.9591 11.5882 29.7202C11.5815 29.4637 11.6845 29.2098 11.8708 29.0234L11.8736 29.0207L11.8762 29.0177C12.0371 28.839 12.2625 28.7406 12.5109 28.7406C12.7624 28.7406 13.0014 28.841 13.1838 29.0234L14.5782 30.4179L14.8343 30.6739V30.3118V20.2894C14.8343 19.7626 15.2469 19.35 15.7737 19.35C16.3005 19.35 16.7131 19.7626 16.7131 20.2894V30.3118V30.6739L16.9692 30.4179L18.3636 29.0234C18.546 28.841 18.7849 28.7406 19.0364 28.7406C19.2849 28.7406 19.5103 28.839 19.6712 29.0177L19.6765 29.0236L19.6823 29.0289C19.8546 29.1839 19.9529 29.4008 19.9592 29.6397C19.9659 29.8962 19.8629 30.1501 19.6766 30.3365L16.452 33.5611C16.2739 33.7392 16.0583 33.8222 15.7737 33.8222Z" fill="#5A5A5A"/>
<path d="M15.7733 33.6722C16.0189 33.6722 16.1953 33.6052 16.3455 33.455L19.5701 30.2304C19.7275 30.073 19.8145 29.8591 19.8088 29.6436C19.8036 29.4463 19.7229 29.2676 19.5816 29.1403L19.5593 29.118C19.4272 28.9713 19.2414 28.8905 19.036 28.8905C18.8246 28.8905 18.6233 28.9754 18.4692 29.1295L16.5627 31.0361V20.2894C16.5627 19.8467 16.2159 19.5 15.7733 19.5C15.3306 19.5 14.9839 19.8467 14.9839 20.2894V31.036L13.0773 29.1295C12.9233 28.9754 12.722 28.8905 12.5106 28.8905C12.3052 28.8905 12.1194 28.9713 11.9873 29.118L11.9764 29.1295C11.8191 29.2868 11.7321 29.5007 11.7378 29.7163C11.743 29.9136 11.8237 30.0923 11.965 30.2195L11.9764 30.2304L15.2011 33.455C15.3513 33.6052 15.5277 33.6722 15.7733 33.6722ZM15.7733 33.9721C15.4683 33.9721 15.2068 33.885 14.9889 33.6671L11.7643 30.4425C11.3286 30.0503 11.3286 29.3531 11.7643 28.9174C12.1565 28.4816 12.8537 28.4816 13.2895 28.9174L14.6839 30.3118V20.2894C14.6839 19.6793 15.1632 19.2 15.7733 19.2C16.3834 19.2 16.8627 19.6793 16.8627 20.2894V30.3118L18.2571 28.9174C18.6929 28.4816 19.3901 28.4816 19.7823 28.9174C20.218 29.3095 20.218 30.0067 19.7823 30.4425L16.5577 33.6671C16.3398 33.885 16.0783 33.9721 15.7733 33.9721Z" fill="white"/>
<path d="M32.5935 23.713H31.3734C30.8466 23.713 30.434 23.3003 30.434 22.7736C30.434 22.2468 30.8466 21.8342 31.3734 21.8342H32.5935C35.3433 21.8342 37.5804 19.5971 37.5804 16.8473C37.5804 14.3022 35.6695 12.178 33.1351 11.9051C32.8919 11.8696 32.658 11.731 32.4928 11.5245C32.3396 11.3329 32.2698 11.0664 32.3063 10.8114C32.3525 10.4419 32.3949 10.0484 32.3949 9.65725C32.3949 7.63612 31.6017 5.72978 30.1613 4.28941C28.7209 2.84904 26.8146 2.05579 24.7935 2.05579C21.847 2.05579 19.1423 3.80056 17.9029 6.5008L17.9018 6.50322L17.9008 6.50568C17.7561 6.85287 17.4267 7.07721 17.0615 7.07721C16.966 7.07721 16.8711 7.0617 16.7794 7.03113C16.2436 6.85253 15.6558 6.76198 15.0325 6.76198C12.2997 6.76198 9.89273 8.59942 9.17929 11.2303C9.07784 11.636 8.70732 11.9173 8.27753 11.9173C8.22854 11.9173 8.17887 11.9135 8.12983 11.9061C7.8986 11.8603 7.67055 11.8603 7.40672 11.8603C4.65693 11.8603 2.41981 14.0975 2.41981 16.8473C2.41981 19.5971 4.65693 21.8342 7.40672 21.8342H8.62685C9.15361 21.8342 9.56623 22.2468 9.56623 22.7736C9.56623 23.3003 9.15361 23.713 8.62685 23.713H7.40672C5.57109 23.713 3.84649 22.9993 2.5506 21.7034C1.2547 20.4075 0.541016 18.6829 0.541016 16.8473C0.541016 13.0615 3.60141 9.98155 7.36315 9.98155H7.49388H7.59543L7.63315 9.88726C8.22352 8.41133 9.23107 7.15791 10.5469 6.26251C11.8729 5.36015 13.424 4.88318 15.0325 4.88318C15.5006 4.88318 15.9754 4.92635 16.4437 5.01149L16.5479 5.03044L16.6006 4.93854C18.2851 2.00151 21.4244 0.177002 24.7935 0.177002C30.0209 0.177002 34.2737 4.42982 34.2737 9.65725V10.093V10.2089L34.3859 10.2382C37.373 11.0174 39.4592 13.7352 39.4592 16.8473C39.4592 18.6829 38.7456 20.4075 37.4497 21.7034C36.1538 22.9993 34.4292 23.713 32.5935 23.713Z" fill="#5A5A5A"/>
<path d="M24.7931 0.326977C21.4776 0.326977 18.3881 2.12261 16.7303 5.01314L16.6249 5.19696L16.4164 5.15905C15.957 5.07552 15.4912 5.03316 15.0321 5.03316C13.4538 5.03316 11.9319 5.50114 10.6309 6.3865C9.33984 7.26504 8.35128 8.49484 7.77203 9.94295L7.69659 10.1315H7.36275C3.68373 10.1315 0.690624 13.1442 0.690624 16.8472C0.690624 18.6428 1.38871 20.3297 2.65627 21.5973C3.92382 22.8649 5.61076 23.5629 7.40633 23.5629H8.62645C9.0691 23.5629 9.41584 23.2162 9.41584 22.7735C9.41584 22.3309 9.0691 21.9841 8.62645 21.9841H7.40633C4.57383 21.9841 2.26941 19.6797 2.26941 16.8472C2.26941 14.0147 4.57383 11.7103 7.40633 11.7103C7.67674 11.7103 7.91066 11.7103 8.15498 11.7583C8.19562 11.7642 8.23668 11.7672 8.27713 11.7672C8.63797 11.7672 8.94865 11.5327 9.03262 11.1968L9.03413 11.191C9.76525 8.49494 12.2317 6.61196 15.0321 6.61196C15.6716 6.61196 16.2753 6.7051 16.8264 6.8888C16.9028 6.91427 16.9818 6.92719 17.0611 6.92719C17.3655 6.92719 17.6406 6.73908 17.7619 6.44797L17.7662 6.4382C19.03 3.68485 21.7882 1.90577 24.7931 1.90577C26.8543 1.90577 28.7983 2.71462 30.267 4.18332C31.7357 5.65203 32.5445 7.59603 32.5445 9.65723C32.5445 10.0565 32.5015 10.4556 32.4551 10.8274L32.4544 10.8326C32.4237 11.0474 32.4817 11.2709 32.6095 11.4307C32.7506 11.6071 32.9488 11.7256 33.1538 11.7562C35.7631 12.0387 37.7301 14.2263 37.7301 16.8472C37.7301 19.6797 35.4256 21.9841 32.5931 21.9841H31.373C30.9304 21.9841 30.5836 22.3309 30.5836 22.7735C30.5836 23.2162 30.9304 23.5629 31.373 23.5629H32.5931C34.3887 23.5629 36.0756 22.8649 37.3432 21.5973C38.6108 20.3297 39.3088 18.6428 39.3088 16.8472C39.3088 13.8034 37.2687 11.1453 34.3476 10.3833L34.1233 10.3248V9.65723C34.1233 4.51251 29.9378 0.326977 24.7931 0.326977ZM24.7931 0.0269775C30.1093 0.0269775 34.4233 4.34098 34.4233 9.65723C34.4233 9.78796 34.4233 9.96226 34.4233 10.093C37.4301 10.8773 39.6088 13.6226 39.6088 16.8472C39.6088 20.7255 36.4714 23.8629 32.5931 23.8629H31.373C30.763 23.8629 30.2836 23.3836 30.2836 22.7735C30.2836 22.1635 30.763 21.6841 31.373 21.6841H32.5931C35.2513 21.6841 37.4301 19.5054 37.4301 16.8472C37.4301 14.3634 35.5563 12.3153 33.1161 12.0539C32.811 12.0103 32.5496 11.836 32.3753 11.6181C32.201 11.4003 32.1138 11.0952 32.1574 10.7902C32.201 10.4416 32.2445 10.0494 32.2445 9.65723C32.2445 5.56111 28.8892 2.20577 24.7931 2.20577C21.9171 2.20577 19.2589 3.90522 18.0388 6.56335C17.8209 7.08626 17.2545 7.34771 16.7316 7.17341C16.2086 6.99911 15.6422 6.91196 15.0321 6.91196C12.374 6.91196 10.0209 8.69856 9.32367 11.2695C9.19294 11.7924 8.67002 12.1411 8.10355 12.0539C7.88567 12.0103 7.66779 12.0103 7.40633 12.0103C4.7482 12.0103 2.56942 14.1891 2.56942 16.8472C2.56942 19.5054 4.7482 21.6841 7.40633 21.6841H8.62645C9.23652 21.6841 9.71584 22.1635 9.71584 22.7735C9.71584 23.3836 9.23652 23.8629 8.62645 23.8629H7.40633C3.52808 23.8629 0.390625 20.7255 0.390625 16.8472C0.390625 12.969 3.52808 9.83153 7.36275 9.83153C7.40633 9.83153 7.44991 9.83153 7.49348 9.83153C8.7136 6.78123 11.6768 4.73316 15.0321 4.73316C15.5114 4.73316 15.9908 4.77674 16.4701 4.86389C18.1696 1.90074 21.3506 0.0269775 24.7931 0.0269775Z" fill="white"/>
</svg>
