<svg width="46" height="47" viewBox="0 0 46 47" fill="none" xmlns="http://www.w3.org/2000/svg">
<path d="M23.2317 36.5573C20.6224 36.5573 18.0718 35.7836 15.9023 34.334C13.7327 32.8843 12.0418 30.8239 11.0433 28.4133C10.0448 26.0027 9.78352 23.3501 10.2926 20.791C10.8016 18.2318 12.0581 15.8811 13.9031 14.0361C15.7481 12.1911 18.0988 10.9346 20.6579 10.4256C23.217 9.91655 25.8696 10.1778 28.2803 11.1763C30.6909 12.1748 32.7513 13.8658 34.2009 16.0353C35.6506 18.2048 36.4243 20.7555 36.4243 23.3647C36.422 26.8629 35.0314 30.2172 32.5578 32.6908C30.0842 35.1644 26.7299 36.5551 23.2317 36.5573ZM23.2317 11.1916C20.8241 11.1916 18.4705 11.9055 16.4686 13.2431C14.4668 14.5807 12.9065 16.4819 11.9852 18.7062C11.0638 20.9306 10.8227 23.3782 11.2925 25.7396C11.7622 28.1009 12.9215 30.27 14.624 31.9724C16.3264 33.6749 18.4955 34.8342 20.8568 35.3039C23.2182 35.7736 25.6658 35.5326 27.8901 34.6112C30.1145 33.6899 32.0157 32.1296 33.3533 30.1277C34.6909 28.1259 35.4048 25.7723 35.4048 23.3647C35.4 20.1377 34.1159 17.0442 31.834 14.7624C29.5522 12.4805 26.4587 11.1964 23.2317 11.1916Z" fill="#212529" stroke="#212529" stroke-width="0.5"/>
<path d="M11.2027 19.8473C9.73216 19.8458 8.32227 19.261 7.28243 18.2212C6.24259 17.1813 5.65775 15.7714 5.65625 14.3009V10.6818C5.65625 10.5466 5.70996 10.417 5.80555 10.3214C5.90115 10.2258 6.0308 10.1721 6.16599 10.1721C6.30119 10.1721 6.43084 10.2258 6.52644 10.3214C6.62204 10.417 6.67574 10.5466 6.67574 10.6818V14.3009C6.67649 15.5013 7.15367 16.6523 8.00248 17.5011C8.85129 18.3499 10.0023 18.8271 11.2027 18.8279C11.3379 18.8279 11.4676 18.8815 11.5632 18.9771C11.6587 19.0727 11.7125 19.2024 11.7125 19.3376C11.7125 19.4728 11.6587 19.6024 11.5632 19.698C11.4676 19.7936 11.3379 19.8473 11.2027 19.8473Z" fill="#212529" stroke="#212529" stroke-width="0.5"/>
<path d="M35.2636 19.8473C35.1284 19.8473 34.9988 19.7936 34.9032 19.698C34.8076 19.6024 34.7539 19.4728 34.7539 19.3376C34.7539 19.2024 34.8076 19.0727 34.9032 18.9771C34.9988 18.8815 35.1284 18.8279 35.2636 18.8279C36.464 18.8271 37.6151 18.3499 38.4639 17.5011C39.3127 16.6523 39.7899 15.5013 39.7906 14.3009V10.6818C39.7906 10.5466 39.8443 10.417 39.9399 10.3214C40.0355 10.2258 40.1652 10.1721 40.3004 10.1721C40.4356 10.1721 40.5652 10.2258 40.6608 10.3214C40.7564 10.417 40.8101 10.5466 40.8101 10.6818V14.3009C40.8086 15.7714 40.2238 17.1813 39.184 18.2212C38.1441 19.261 36.7342 19.8458 35.2636 19.8473Z" fill="#212529" stroke="#212529" stroke-width="0.5"/>
<path d="M40.3004 36.5573C40.2333 36.5579 40.1667 36.5451 40.1046 36.5197C40.0425 36.4943 39.9861 36.4567 39.9387 36.4093C39.8912 36.3618 39.8537 36.3054 39.8283 36.2433C39.8028 36.1812 39.79 36.1147 39.7906 36.0476V32.4286C39.7899 31.2282 39.3127 30.0771 38.4639 29.2283C37.6151 28.3795 36.464 27.9023 35.2636 27.9015C35.1967 27.9015 35.1304 27.8884 35.0686 27.8628C35.0067 27.8371 34.9506 27.7996 34.9032 27.7523C34.8559 27.7049 34.8183 27.6487 34.7927 27.5869C34.7671 27.525 34.7539 27.4588 34.7539 27.3918C34.7539 27.3249 34.7671 27.2586 34.7927 27.1967C34.8183 27.1349 34.8559 27.0787 34.9032 27.0314C34.9506 26.9841 35.0067 26.9465 35.0686 26.9209C35.1304 26.8952 35.1967 26.8821 35.2636 26.8821C36.7342 26.8836 38.1441 27.4684 39.184 28.5082C40.2238 29.5481 40.8086 30.958 40.8101 32.4286V36.0476C40.8097 36.1827 40.7559 36.3121 40.6604 36.4076C40.5649 36.5031 40.4355 36.5569 40.3004 36.5573Z" fill="#212529" stroke="#212529" stroke-width="0.5"/>
<path d="M6.16601 36.5573C6.09891 36.5579 6.03238 36.5451 5.97028 36.5197C5.90818 36.4943 5.85176 36.4567 5.80431 36.4093C5.75686 36.3618 5.71934 36.3054 5.69392 36.2433C5.6685 36.1812 5.6557 36.1147 5.65627 36.0476V32.4286C5.65776 30.958 6.2426 29.5481 7.28244 28.5082C8.32228 27.4684 9.73218 26.8836 11.2027 26.8821C11.2697 26.8821 11.336 26.8952 11.3978 26.9209C11.4596 26.9465 11.5158 26.9841 11.5632 27.0314C11.6105 27.0787 11.6481 27.1349 11.6737 27.1967C11.6993 27.2586 11.7125 27.3249 11.7125 27.3918C11.7125 27.4588 11.6993 27.525 11.6737 27.5869C11.6481 27.6487 11.6105 27.7049 11.5632 27.7523C11.5158 27.7996 11.4596 27.8371 11.3978 27.8628C11.336 27.8884 11.2697 27.9015 11.2027 27.9015C10.0023 27.9023 8.85131 28.3795 8.0025 29.2283C7.15369 30.0771 6.6765 31.2282 6.67575 32.4286V36.0476C6.67357 36.1821 6.61917 36.3105 6.52404 36.4056C6.42892 36.5007 6.30052 36.5551 6.16601 36.5573Z" fill="#212529" stroke="#212529" stroke-width="0.5"/>
<path d="M40.3007 11.1916C39.8611 11.1916 39.4314 11.0612 39.0659 10.817C38.7004 10.5728 38.4155 10.2257 38.2473 9.81958C38.0791 9.41346 38.0351 8.96658 38.1208 8.53545C38.2066 8.10432 38.4182 7.7083 38.7291 7.39747C39.0399 7.08665 39.4359 6.87497 39.867 6.78921C40.2982 6.70346 40.7451 6.74747 41.1512 6.91569C41.5573 7.08391 41.9044 7.36877 42.1486 7.73427C42.3928 8.09976 42.5232 8.52947 42.5232 8.96905C42.5217 9.55804 42.2871 10.1225 41.8706 10.539C41.4541 10.9555 40.8897 11.1901 40.3007 11.1916ZM40.3007 7.77588C40.0627 7.77588 39.8301 7.84644 39.6323 7.97863C39.4344 8.11082 39.2802 8.29872 39.1892 8.51854C39.0981 8.73837 39.0743 8.98026 39.1207 9.21363C39.1672 9.447 39.2817 9.66137 39.45 9.82962C39.6182 9.99787 39.8326 10.1124 40.066 10.1589C40.2993 10.2053 40.5412 10.1815 40.7611 10.0904C40.9809 9.99935 41.1688 9.84515 41.301 9.64731C41.4332 9.44947 41.5037 9.21687 41.5037 8.97893C41.503 8.66009 41.376 8.35452 41.1505 8.12907C40.9251 7.90362 40.6195 7.77663 40.3007 7.77588Z" fill="#212529" stroke="#212529" stroke-width="0.5"/>
<path d="M41.7378 23.8759H35.916C35.7808 23.8759 35.6512 23.8222 35.5556 23.7266C35.46 23.631 35.4062 23.5013 35.4062 23.3661C35.4062 23.2309 35.46 23.1013 35.5556 23.0057C35.6512 22.9101 35.7808 22.8564 35.916 22.8564H41.7378C41.873 22.8564 42.0026 22.9101 42.0982 23.0057C42.1938 23.1013 42.2475 23.2309 42.2475 23.3661C42.2475 23.5013 42.1938 23.631 42.0982 23.7266C42.0026 23.8222 41.873 23.8759 41.7378 23.8759Z" fill="#212529" stroke="#212529" stroke-width="0.5"/>
<path d="M10.5503 23.8759H4.72849C4.5933 23.8759 4.46365 23.8222 4.36805 23.7266C4.27246 23.631 4.21875 23.5013 4.21875 23.3661C4.21875 23.2309 4.27246 23.1013 4.36805 23.0057C4.46365 22.9101 4.5933 22.8564 4.72849 22.8564H10.5503C10.6855 22.8564 10.8151 22.9101 10.9107 23.0057C11.0063 23.1013 11.06 23.2309 11.06 23.3661C11.06 23.5013 11.0063 23.631 10.9107 23.7266C10.8151 23.8222 10.6855 23.8759 10.5503 23.8759Z" fill="#212529" stroke="#212529" stroke-width="0.5"/>
<path d="M43.4515 25.5886H43.3188C42.7181 25.5712 42.1484 25.3181 41.7329 24.8841C41.3173 24.45 41.0892 23.8698 41.0979 23.269C41.1066 22.6681 41.3514 22.0948 41.7794 21.6729C42.2074 21.2511 42.7842 21.0146 43.3852 21.0146C43.9861 21.0146 44.5629 21.2511 44.9909 21.6729C45.4189 22.0948 45.6637 22.6681 45.6724 23.269C45.6811 23.8698 45.4531 24.45 45.0375 24.8841C44.6219 25.3181 44.0522 25.5712 43.4515 25.5886ZM43.4417 22.1631C43.1453 22.1725 42.8646 22.2981 42.66 22.5127C42.4554 22.7273 42.3434 23.0137 42.3482 23.3101C42.3529 23.6066 42.474 23.8893 42.6853 24.0972C42.8966 24.3052 43.1812 24.4217 43.4776 24.4217C43.7741 24.4217 44.0587 24.3052 44.27 24.0972C44.4813 23.8893 44.6024 23.6066 44.6071 23.3101C44.6118 23.0137 44.4998 22.7273 44.2953 22.5127C44.0907 22.2981 43.81 22.1725 43.5137 22.1631C43.4925 22.1786 43.4727 22.1631 43.4417 22.1631Z" fill="#212529" stroke="#212529" stroke-width="0.5"/>
<path d="M3.02573 25.5886H2.893C2.29232 25.5712 1.72263 25.3181 1.30705 24.8841C0.891475 24.45 0.663398 23.8698 0.672116 23.269C0.680834 22.6681 0.925648 22.0948 1.35364 21.6729C1.78164 21.2511 2.35843 21.0146 2.95937 21.0146C3.5603 21.0146 4.1371 21.2511 4.56509 21.6729C4.99309 22.0948 5.2379 22.6681 5.24662 23.269C5.25534 23.8698 5.02726 24.45 4.61168 24.8841C4.19611 25.3181 3.62641 25.5712 3.02573 25.5886ZM3.02573 22.1631C2.83137 22.1635 2.64003 22.2112 2.4682 22.3021C2.29637 22.3929 2.14921 22.5242 2.0394 22.6846C1.92958 22.8449 1.86041 23.0296 1.83784 23.2226C1.81526 23.4157 1.83997 23.6114 1.90983 23.7927C1.97968 23.9741 2.09259 24.1358 2.23883 24.2638C2.38506 24.3919 2.56024 24.4824 2.74925 24.5277C2.93827 24.573 3.13547 24.5716 3.32384 24.5238C3.51222 24.4759 3.68613 24.3829 3.83059 24.2529C4.06521 24.0394 4.20794 23.7433 4.22878 23.4268C4.23852 23.2691 4.21698 23.111 4.16541 22.9617C4.11383 22.8123 4.03323 22.6746 3.92825 22.5565C3.82327 22.4384 3.69598 22.3422 3.55369 22.2735C3.4114 22.2048 3.25693 22.1648 3.09916 22.156C3.07552 22.1638 3.05043 22.1662 3.02573 22.1631Z" fill="#212529" stroke="#212529" stroke-width="0.5"/>
<path d="M23.2324 42.3805C23.1653 42.3811 23.0988 42.3683 23.0367 42.3429C22.9746 42.3174 22.9182 42.28 22.8707 42.2325C22.8233 42.1851 22.7858 42.1286 22.7603 42.0665C22.7349 42.0044 22.7221 41.9379 22.7227 41.8708V36.049C22.7227 35.9138 22.7764 35.7841 22.872 35.6885C22.9676 35.5929 23.0972 35.5392 23.2324 35.5392C23.3676 35.5392 23.4973 35.5929 23.5929 35.6885C23.6885 35.7841 23.7422 35.9138 23.7422 36.049V41.8708C23.7427 41.9379 23.7299 42.0044 23.7045 42.0665C23.6791 42.1286 23.6416 42.1851 23.5941 42.2325C23.5467 42.28 23.4903 42.3174 23.4282 42.3429C23.3661 42.3683 23.2995 42.3811 23.2324 42.3805Z" fill="#212529" stroke="#212529" stroke-width="0.5"/>
<path d="M23.2324 11.1916C23.1653 11.1921 23.0988 11.1793 23.0367 11.1539C22.9746 11.1285 22.9182 11.091 22.8707 11.0435C22.8233 10.9961 22.7858 10.9397 22.7603 10.8776C22.7349 10.8155 22.7221 10.7489 22.7227 10.6818V4.86003C22.7227 4.72484 22.7764 4.59519 22.872 4.49959C22.9676 4.404 23.0972 4.35029 23.2324 4.35029C23.3676 4.35029 23.4973 4.404 23.5929 4.49959C23.6885 4.59519 23.7422 4.72484 23.7422 4.86003V10.6818C23.7427 10.7489 23.7299 10.8155 23.7045 10.8776C23.6791 10.9397 23.6416 10.9961 23.5941 11.0435C23.5467 11.091 23.4903 11.1285 23.4282 11.1539C23.3661 11.1793 23.2995 11.1921 23.2324 11.1916Z" fill="#212529" stroke="#212529" stroke-width="0.5"/>
<path d="M23.2328 45.7948H23.1C22.4994 45.7774 21.9297 45.5243 21.5141 45.0902C21.0985 44.6562 20.8704 44.076 20.8791 43.4751C20.8879 42.8742 21.1327 42.3009 21.5607 41.8791C21.9887 41.4573 22.5655 41.2208 23.1664 41.2208C23.7673 41.2208 24.3441 41.4573 24.7721 41.8791C25.2001 42.3009 25.4449 42.8742 25.4536 43.4751C25.4624 44.076 25.2343 44.6562 24.8187 45.0902C24.4031 45.5243 23.8334 45.7774 23.2328 45.7948ZM22.0396 43.5116C22.0297 43.6694 22.0511 43.8275 22.1026 43.9769C22.1541 44.1264 22.2347 44.2642 22.3397 44.3823C22.4447 44.5005 22.5721 44.5966 22.7144 44.6653C22.8568 44.734 23.0114 44.7738 23.1692 44.7824C23.3269 44.7919 23.4848 44.7697 23.6338 44.7171C23.7827 44.6645 23.9195 44.5825 24.0362 44.476C24.2708 44.2625 24.4135 43.9665 24.4344 43.65C24.4431 43.4924 24.4205 43.3346 24.3679 43.1858C24.3154 43.037 24.2338 42.9001 24.128 42.783C24.0237 42.665 23.897 42.569 23.7551 42.5006C23.6133 42.4322 23.4592 42.3929 23.3019 42.3848C23.1444 42.3761 22.9866 42.3987 22.8378 42.4513C22.689 42.5039 22.5521 42.5854 22.435 42.6912C22.3139 42.7917 22.2157 42.9169 22.1468 43.0584C22.0779 43.1998 22.0399 43.3543 22.0353 43.5116H22.0396Z" fill="#212529" stroke="#212529" stroke-width="0.5"/>
<path d="M23.2328 5.37119H23.1C22.4994 5.35375 21.9297 5.10065 21.5141 4.66658C21.0985 4.23251 20.8704 3.65234 20.8791 3.05147C20.8879 2.4506 21.1327 1.8773 21.5607 1.45547C21.9887 1.03364 22.5655 0.797169 23.1664 0.797169C23.7673 0.797169 24.3441 1.03364 24.7721 1.45547C25.2001 1.8773 25.4449 2.4506 25.4536 3.05147C25.4624 3.65234 25.2343 4.23251 24.8187 4.66658C24.4031 5.10065 23.8334 5.35375 23.2328 5.37119ZM22.0353 3.09076C22.0266 3.24837 22.0491 3.40616 22.1013 3.55512C22.1536 3.70407 22.2347 3.84127 22.34 3.95888C22.4452 4.0765 22.5727 4.17222 22.715 4.24059C22.8572 4.30896 23.0116 4.34863 23.1692 4.35735C23.3268 4.36607 23.4846 4.34365 23.6336 4.29138C23.7825 4.23912 23.9197 4.15803 24.0373 4.05274C24.155 3.94745 24.2507 3.82003 24.3191 3.67774C24.3874 3.53546 24.4271 3.3811 24.4358 3.22349C24.4453 3.06583 24.4231 2.90786 24.3705 2.75893C24.3179 2.61001 24.2359 2.47316 24.1294 2.3565C23.9162 2.12358 23.6213 1.98195 23.3062 1.96113C23.1485 1.95139 22.9904 1.97293 22.841 2.02451C22.6916 2.07608 22.5539 2.15668 22.4358 2.26166C22.3177 2.36664 22.2216 2.49394 22.1528 2.63623C22.0841 2.77851 22.0442 2.93299 22.0353 3.09076Z" fill="#212529" stroke="#212529" stroke-width="0.5"/>
<path d="M40.3031 39.9744H40.1704C39.5697 39.957 39 39.7039 38.5844 39.2698C38.1688 38.8357 37.9407 38.2556 37.9495 37.6547C37.9582 37.0539 38.203 36.4805 38.631 36.0587C39.059 35.6369 39.6358 35.4004 40.2367 35.4004C40.8377 35.4004 41.4145 35.6369 41.8425 36.0587C42.2705 36.4805 42.5152 37.0539 42.524 37.6547C42.5327 38.2556 42.3046 38.8357 41.889 39.2698C41.4735 39.7039 40.9038 39.957 40.3031 39.9744ZM40.2311 38.9549C40.468 38.9682 40.7036 38.9108 40.9079 38.79C41.1122 38.6693 41.2761 38.4906 41.3788 38.2766C41.4815 38.0627 41.5183 37.8231 41.4847 37.5881C41.451 37.3532 41.3484 37.1335 41.1898 36.9569C41.0856 36.8389 40.9588 36.7429 40.817 36.6746C40.6751 36.6062 40.5211 36.5668 40.3638 36.5587C40.2062 36.55 40.0484 36.5726 39.8996 36.6252C39.7508 36.6778 39.6139 36.7593 39.4968 36.8651C39.3788 36.9694 39.2828 37.0962 39.2145 37.238C39.1461 37.3799 39.1067 37.5339 39.0986 37.6912C39.0899 37.8488 39.1125 38.0065 39.1651 38.1553C39.2177 38.3041 39.2992 38.441 39.405 38.5582C39.619 38.7926 39.9143 38.9348 40.2311 38.9549Z" fill="#212529" stroke="#212529" stroke-width="0.5"/>
<path d="M6.16636 39.9744H6.03363C5.43295 39.957 4.86325 39.7039 4.44768 39.2698C4.0321 38.8357 3.80402 38.2556 3.81274 37.6547C3.82146 37.0539 4.06628 36.4805 4.49427 36.0587C4.92226 35.6369 5.49906 35.4004 6.09999 35.4004C6.70093 35.4004 7.27772 35.6369 7.70572 36.0587C8.13371 36.4805 8.37853 37.0539 8.38725 37.6547C8.39596 38.2556 8.16789 38.8357 7.75231 39.2698C7.33673 39.7039 6.76704 39.957 6.16636 39.9744ZM6.09434 38.9549C6.25196 38.9637 6.40975 38.9412 6.55871 38.889C6.70766 38.8367 6.84486 38.7556 6.96247 38.6503C7.08008 38.545 7.17581 38.4176 7.24418 38.2753C7.31255 38.1331 7.35222 37.9787 7.36094 37.8211C7.36966 37.6635 7.34724 37.5057 7.29497 37.3567C7.24271 37.2078 7.16162 37.0706 7.05633 36.9529C6.95104 36.8353 6.82362 36.7396 6.68133 36.6712C6.53905 36.6029 6.38469 36.5632 6.22708 36.5545C6.06941 36.545 5.91144 36.5672 5.76252 36.6198C5.6136 36.6724 5.47675 36.7544 5.36009 36.8609C5.12548 37.0743 4.98274 37.3704 4.9619 37.6869C4.94643 38.0049 5.0567 38.3161 5.26887 38.5534C5.48105 38.7907 5.77808 38.9349 6.09576 38.9549H6.09434Z" fill="#212529" stroke="#212529" stroke-width="0.5"/>
<path d="M6.16763 11.1916H6.03489C5.44675 11.1577 4.89616 10.8915 4.50425 10.4517C4.11233 10.0119 3.9112 9.43434 3.94509 8.84619C3.97898 8.25805 4.24512 7.70746 4.68497 7.31555C5.12481 6.92363 5.70233 6.7225 6.29047 6.75639C6.87768 6.79279 7.42674 7.05967 7.81814 7.49893C8.20953 7.93819 8.41157 8.51427 8.38028 9.10178C8.34684 9.66634 8.09931 10.1969 7.68815 10.5852C7.27699 10.9735 6.73318 11.1904 6.16763 11.1916ZM6.09561 10.1721C6.25333 10.1818 6.41142 10.1603 6.56078 10.1087C6.71015 10.0571 6.84784 9.97654 6.96595 9.87156C7.08405 9.76658 7.18024 9.63928 7.24897 9.497C7.3177 9.35471 7.35762 9.20024 7.36644 9.04247C7.37597 8.8848 7.35376 8.72684 7.30113 8.57791C7.24849 8.42899 7.16651 8.29214 7.06003 8.17548C6.84658 7.94086 6.55049 7.79813 6.23399 7.77729C6.07633 7.76776 5.91836 7.78997 5.76944 7.8426C5.62052 7.89523 5.48367 7.97722 5.367 8.0837C5.13239 8.29715 4.98966 8.59324 4.96881 8.90974C4.95481 9.2258 5.065 9.5348 5.27582 9.77069C5.48665 10.0066 5.78138 10.1506 6.09703 10.1721H6.09561Z" fill="#212529" stroke="#212529" stroke-width="0.5"/>
<path d="M23.2397 27.6587C22.3884 27.6699 21.553 27.4277 20.8397 26.9629C20.1264 26.4981 19.5674 25.8316 19.2338 25.0483C18.9003 24.265 18.8071 23.4002 18.9663 22.5638C19.1255 21.7275 19.5298 20.9573 20.1279 20.3513C20.7259 19.7454 21.4906 19.3309 22.3248 19.1606C23.159 18.9904 24.0249 19.072 24.8126 19.3952C25.6002 19.7183 26.274 20.2684 26.7482 20.9755C27.2225 21.6826 27.4757 22.5147 27.4758 23.3661C27.4825 24.4969 27.0402 25.5841 26.2459 26.3889C25.4517 27.1938 24.3704 27.6505 23.2397 27.6587ZM23.2397 20.093C22.5898 20.0807 21.951 20.2621 21.4046 20.6142C20.8583 20.9663 20.4291 21.473 20.1718 22.0699C19.9145 22.6668 19.8408 23.3268 19.96 23.9657C20.0792 24.6047 20.3859 25.1937 20.8411 25.6577C21.2962 26.1217 21.8793 26.4396 22.5158 26.571C23.1524 26.7024 23.8136 26.6413 24.4153 26.3955C25.017 26.1497 25.5319 25.7304 25.8944 25.1908C26.2569 24.6513 26.4505 24.0161 26.4506 23.3661C26.4574 22.5067 26.1233 21.6797 25.5214 21.0662C24.9196 20.4526 24.0991 20.1027 23.2397 20.093Z" fill="#212529" stroke="#212529" stroke-width="0.5"/>
<path d="M25.0673 32.9383H21.4073C21.3402 32.9389 21.2737 32.9261 21.2116 32.9006C21.1495 32.8752 21.0931 32.8377 21.0456 32.7903C20.9982 32.7428 20.9606 32.6864 20.9352 32.6243C20.9098 32.5622 20.897 32.4956 20.8976 32.4285V30.8485C20.4501 30.7088 20.0166 30.5277 19.6027 30.3077L18.4816 31.4288C18.3867 31.5239 18.2587 31.5786 18.1243 31.5813C18.0574 31.5823 17.9911 31.5692 17.9296 31.5429C17.868 31.5167 17.8127 31.4778 17.7671 31.4288L15.1774 28.8392C15.0823 28.7443 15.0277 28.6162 15.0249 28.4819C15.024 28.415 15.0371 28.3487 15.0633 28.2871C15.0896 28.2256 15.1285 28.1703 15.1774 28.1247L16.2986 27.0035C16.0828 26.5876 15.9019 26.1545 15.7578 25.7087H14.1777C14.1106 25.7092 14.0441 25.6965 13.982 25.671C13.9199 25.6456 13.8635 25.6081 13.816 25.5606C13.7686 25.5132 13.731 25.4568 13.7056 25.3947C13.6802 25.3326 13.6674 25.266 13.668 25.1989V21.5277C13.6674 21.4606 13.6802 21.394 13.7056 21.3319C13.731 21.2698 13.7686 21.2134 13.816 21.166C13.8635 21.1185 13.9199 21.081 13.982 21.0556C14.0441 21.0301 14.1106 21.0174 14.1777 21.0179H15.7578C15.8975 20.5705 16.0785 20.137 16.2986 19.7231L15.1774 18.6019C15.0823 18.507 15.0277 18.379 15.0249 18.2447C15.024 18.1778 15.0371 18.1114 15.0633 18.0499C15.0896 17.9884 15.1285 17.933 15.1774 17.8875L17.7671 15.2978C17.8646 15.2045 17.9944 15.1524 18.1293 15.1524C18.2642 15.1524 18.394 15.2045 18.4915 15.2978L19.6126 16.4189C20.0285 16.2031 20.4616 16.0222 20.9075 15.8781V14.2981C20.9069 14.231 20.9197 14.1644 20.9451 14.1023C20.9705 14.0402 21.0081 13.9838 21.0555 13.9364C21.103 13.8889 21.1594 13.8514 21.2215 13.826C21.2836 13.8006 21.3501 13.7878 21.4172 13.7883H25.0772C25.1444 13.7876 25.211 13.8002 25.2732 13.8256C25.3354 13.8509 25.3918 13.8885 25.4393 13.9359C25.4868 13.9834 25.5243 14.0399 25.5497 14.1021C25.575 14.1643 25.5877 14.2309 25.5869 14.2981V15.8781C26.0344 16.0178 26.4679 16.1989 26.8818 16.4189L28.0029 15.2978C28.0978 15.2027 28.2259 15.148 28.3602 15.1453C28.4271 15.1443 28.4934 15.1574 28.5549 15.1837C28.6165 15.2099 28.6718 15.2488 28.7174 15.2978L31.3071 17.886C31.3556 17.933 31.3942 17.9893 31.4206 18.0515C31.447 18.1138 31.4606 18.1806 31.4606 18.2482C31.4606 18.3158 31.447 18.3827 31.4206 18.4449C31.3942 18.5071 31.3556 18.5634 31.3071 18.6104L30.1859 19.7316C30.4017 20.1475 30.5826 20.5806 30.7267 21.0264H32.3082C32.3753 21.0258 32.4418 21.0386 32.5039 21.0641C32.566 21.0895 32.6225 21.127 32.6699 21.1744C32.7174 21.2219 32.7549 21.2783 32.7803 21.3404C32.8057 21.4025 32.8185 21.469 32.818 21.5361V25.1961C32.8185 25.2632 32.8057 25.3298 32.7803 25.3919C32.7549 25.454 32.7174 25.5104 32.6699 25.5578C32.6225 25.6053 32.566 25.6428 32.5039 25.6682C32.4418 25.6936 32.3753 25.7064 32.3082 25.7059H30.7267C30.587 26.1533 30.406 26.5868 30.1859 27.0007L31.3071 28.1218C31.3556 28.1688 31.3942 28.2251 31.4206 28.2874C31.447 28.3496 31.4606 28.4165 31.4606 28.484C31.4606 28.5516 31.447 28.6185 31.4206 28.6807C31.3942 28.7429 31.3556 28.7992 31.3071 28.8462L28.7075 31.4161C28.6605 31.4647 28.6042 31.5033 28.542 31.5296C28.4798 31.556 28.4129 31.5696 28.3453 31.5696C28.2778 31.5696 28.2109 31.556 28.1487 31.5296C28.0864 31.5033 28.0302 31.4647 27.9832 31.4161L26.862 30.295C26.4461 30.5107 26.013 30.6916 25.5672 30.8358V32.4158C25.5694 32.4832 25.5582 32.5503 25.5342 32.6132C25.5101 32.6761 25.4738 32.7336 25.4272 32.7823C25.3806 32.831 25.3248 32.8698 25.263 32.8966C25.2012 32.9234 25.1347 32.9376 25.0673 32.9383ZM21.9171 31.9188H24.5576V30.4602C24.5553 30.3463 24.5926 30.2352 24.6632 30.1458C24.7338 30.0565 24.8332 29.9944 24.9445 29.9702C25.5639 29.8095 26.1576 29.5623 26.7081 29.2359C26.8059 29.1782 26.9202 29.1549 27.0329 29.1698C27.1455 29.1846 27.2499 29.2367 27.3294 29.3178L28.3588 30.3472L30.224 28.4819L29.1735 27.4427C29.0947 27.3618 29.0442 27.2576 29.0294 27.1456C29.0147 27.0337 29.0365 26.9199 29.0916 26.8214C29.4173 26.2706 29.6645 25.6769 29.8259 25.0577C29.8548 24.949 29.9181 24.8525 30.0065 24.7828C30.0948 24.713 30.2033 24.6738 30.3158 24.6708H31.7745V22.0303H30.3158C30.202 22.0326 30.0909 21.9953 30.0015 21.9247C29.9121 21.8541 29.85 21.7547 29.8259 21.6434C29.6652 21.024 29.418 20.4303 29.0916 19.8798C29.0316 19.7827 29.007 19.6678 29.0219 19.5546C29.0368 19.4414 29.0904 19.3368 29.1735 19.2585L30.2029 18.2292L28.3376 16.3639L27.3082 17.4243C27.2273 17.5031 27.1231 17.5536 27.0112 17.5684C26.8992 17.5831 26.7855 17.5613 26.6869 17.5062C26.1361 17.1805 25.5425 16.9333 24.9233 16.7719C24.8145 16.743 24.7181 16.6796 24.6483 16.5913C24.5786 16.503 24.5393 16.3945 24.5364 16.282V14.8233H21.9058V16.282C21.9081 16.3958 21.8707 16.5069 21.8001 16.5963C21.7296 16.6857 21.6302 16.7477 21.5189 16.7719C20.9009 16.937 20.3078 17.184 19.7552 17.5062C19.6581 17.5662 19.5432 17.5908 19.43 17.5759C19.3168 17.561 19.2122 17.5074 19.134 17.4243L18.1046 16.3949L16.2393 18.2602L17.2686 19.2896C17.3474 19.3705 17.398 19.4747 17.4127 19.5867C17.4275 19.6986 17.4057 19.8123 17.3506 19.9109C17.0248 20.4617 16.7777 21.0553 16.6163 21.6745C16.5874 21.7833 16.524 21.8797 16.4357 21.9495C16.3474 22.0192 16.2388 22.0585 16.1263 22.0614H14.6677V24.692H16.1263C16.2402 24.6898 16.3513 24.7271 16.4407 24.7977C16.53 24.8682 16.5921 24.9676 16.6163 25.0789C16.7814 25.6969 17.0284 26.29 17.3506 26.8426C17.4106 26.9397 17.4352 27.0546 17.4203 27.1678C17.4053 27.281 17.3518 27.3856 17.2686 27.4639L16.2393 28.4932L18.1046 30.3585L19.134 29.3291C19.2149 29.2503 19.319 29.1998 19.431 29.185C19.543 29.1703 19.6567 29.1921 19.7552 29.2472C20.306 29.573 20.8997 29.8201 21.5189 29.9815C21.6276 30.0104 21.7241 30.0738 21.7938 30.1621C21.8636 30.2505 21.9029 30.359 21.9058 30.4715L21.9171 31.9188Z" fill="#212529" stroke="#212529" stroke-width="0.5"/>
</svg>
