<svg width="39" height="40" viewBox="0 0 39 40" fill="none" xmlns="http://www.w3.org/2000/svg">
<path fill-rule="evenodd" clip-rule="evenodd" d="M32.0621 27.3871V21.8839L27.2983 24.6358V30.139L32.0621 27.3871ZM21.366 27.3871L26.1347 30.1389V24.6357L21.366 21.8838V27.3871ZM26.7165 18.1256L31.4803 20.877L26.7165 23.6288L21.9477 20.877L26.7165 18.1256ZM33.2257 20.8769V27.7226C33.2257 27.9305 33.1163 28.1229 32.9323 28.2268L27.0049 31.649C26.8231 31.7545 26.6028 31.7533 26.4232 31.649L20.4958 28.2268C20.3168 28.1229 20.2024 27.9305 20.2024 27.7226V20.8769C20.2024 20.669 20.3168 20.4776 20.4958 20.3737L26.4232 16.95C26.6022 16.8461 26.8259 16.8461 27.0049 16.95L32.9323 20.3737C33.1163 20.4776 33.2257 20.669 33.2257 20.8769ZM11.7788 18.1256L7.01497 20.877L11.7788 23.6288L16.5426 20.877L11.7788 18.1256ZM17.1244 27.3871L12.3606 30.1389V24.6357L17.1244 21.8838V27.3871ZM6.43322 27.3871V21.8839L11.197 24.6358V30.139L6.43322 27.3871ZM5.26963 27.7227V20.8769C5.26963 20.669 5.37905 20.4776 5.55806 20.3737L11.4904 16.95C11.6694 16.8461 11.8882 16.8461 12.0722 16.95L17.9995 20.3737C18.1786 20.4776 18.288 20.669 18.288 20.8769V27.7226C18.288 27.9305 18.1786 28.1229 17.9995 28.2268L12.0722 31.649C11.8922 31.7534 11.6712 31.7539 11.4904 31.649L5.55806 28.2268C5.37905 28.123 5.26963 27.9306 5.26963 27.7227ZM19.2476 5.24743L14.4838 7.9983L19.2476 10.7501L24.0114 7.9983L19.2476 5.24743ZM24.5933 14.5085V9.00578L19.8295 11.7576V17.2603L24.5933 14.5085ZM13.9021 14.5085L18.6659 17.2603V11.7576L13.9021 9.00578V14.5085ZM13.0269 15.3483L18.9543 18.7709C19.1376 18.874 19.3547 18.8757 19.5361 18.7709L25.4684 15.3483C25.6474 15.2444 25.7568 15.052 25.7568 14.8446V7.9983C25.7568 7.79143 25.6474 7.59902 25.4684 7.49509L19.5361 4.07248C19.3571 3.96855 19.1383 3.96855 18.9543 4.07248L13.0269 7.49509C12.8479 7.59902 12.7385 7.79143 12.7385 7.9983V14.8446C12.7385 15.052 12.8479 15.2444 13.0269 15.3483ZM31.3013 34.5446L31.2764 34.7455L30.0034 38.5347C29.9189 38.7773 29.6951 38.931 29.4515 38.931C29.0572 38.931 28.7755 38.5394 28.8995 38.1642L29.6007 36.0722C22.0727 40.9091 12.0914 39.8947 5.67743 33.4815C-1.18484 26.6203 -1.84611 15.6989 4.13594 8.07738C4.33483 7.8248 4.70287 7.78051 4.95643 7.97895C5.20511 8.17784 5.24984 8.54287 5.05086 8.79545C-0.568207 15.9545 0.0533929 26.214 6.49792 32.659C12.5993 38.7605 22.1169 39.6426 29.188 34.9524L26.6868 34.6297C26.3685 34.589 26.1448 34.2971 26.1845 33.9793C26.2243 33.6605 26.5177 33.4348 26.8359 33.4766L30.7942 33.9858V33.9863C30.991 34.0255 30.9865 34.0421 31.1273 34.1454L31.1721 34.1932L31.182 34.2041C31.2495 34.3155 31.3013 34.396 31.3013 34.5446ZM34.3544 31.7455C34.1552 31.9994 33.794 32.0406 33.5389 31.844C33.2854 31.6455 33.2405 31.2796 33.4394 31.0265C39.0635 23.8684 38.4419 13.6095 31.9924 7.16344C25.8959 1.06202 16.3734 0.179407 9.3023 4.8706L11.8085 5.19232C12.1267 5.23359 12.3505 5.52495 12.3107 5.84374C12.269 6.16359 11.9715 6.38803 11.6593 6.34597L7.69612 5.83575C7.58225 5.80691 7.51383 5.79998 7.40271 5.70893C7.39277 5.69952 7.38283 5.68851 7.36793 5.67857L7.31822 5.62035C7.27678 5.6121 7.18892 5.38765 7.18892 5.25631L7.21874 5.07428L8.49176 1.28815C8.59124 0.983297 8.92441 0.818756 9.22775 0.921172C9.5311 1.02359 9.69519 1.35329 9.59571 1.65806L8.89459 3.74908C16.3982 -1.07435 26.3882 -0.0882609 32.8178 6.34029C39.6802 13.2022 40.3415 24.124 34.3544 31.7455Z" fill="black"/>
</svg>
