<svg xmlns="http://www.w3.org/2000/svg" width="63.161" height="65.984" viewBox="0 0 63.161 65.984">
  <path id="curved-arrow" d="M50.964,28.379c-1.079-.778-2.1-1.617-3.15-2.433-1.1-.853-2.652.68-1.543,1.543.448.348.892.7,1.336,1.052a57.334,57.334,0,0,0-23.362,7.213A52.927,52.927,0,0,0,6.2,54.02a41.074,41.074,0,0,0-6.2,16.307c-.171,1.395,2.013,1.378,2.182,0,.68-5.558,3.148-10.721,6.044-15.445a54.776,54.776,0,0,1,8.2-10.394A48.1,48.1,0,0,1,38.286,32.357a61.492,61.492,0,0,1,8.793-1.579q-.4.336-.807.667c-1.093.887.46,2.421,1.543,1.543,1.152-.934,2.261-1.912,3.371-2.9a1.105,1.105,0,0,0-.221-1.714Z" transform="translate(64.681 -10.858) rotate(65)" fill="#2a6ab4"/>
</svg>
