<svg xmlns="http://www.w3.org/2000/svg" width="30.426" height="30.446" viewBox="0 0 30.426 30.446">
  <g id="Layer_32" data-name="Layer 32" transform="translate(-2.537 0)">
    <path id="Path_23364" data-name="Path 23364" d="M29.506,20.66V10.871a.525.525,0,0,0-.262-.457L16.515,3.066a.525.525,0,0,0-.525,0L3.262,10.414A.525.525,0,0,0,3,10.871v14.7a.525.525,0,0,0,.262.457L15.99,33.372a.525.525,0,0,0,.525,0L21.3,30.611a6.687,6.687,0,1,0,8.209-9.972ZM16.253,4.127l11.678,6.744-5.857,3.38L11.23,7.029Zm0,13.489L4.575,10.871l5.642-3.259,10.838,7.227ZM4.05,11.779l11.678,6.744V32.007L4.05,25.263ZM16.778,32.007V18.524L21.5,15.779v4.089a.525.525,0,0,0,1.05,0V15.175l5.878-3.4v8.508a6.529,6.529,0,0,0-1.706-.231,6.682,6.682,0,0,0-5.968,9.652Zm9.972.383a5.642,5.642,0,1,1,5.642-5.642A5.642,5.642,0,0,1,26.75,32.39Z" transform="translate(-0.463 -2.996)" fill="#222"/>
    <path id="Path_23365" data-name="Path 23365" d="M48.042,42.739,44.578,46.7l-1.816-1.849a.625.625,0,0,0-.793-.063.445.445,0,0,0-.073.687l2.235,2.313a.6.6,0,0,0,.425.169.589.589,0,0,0,.43-.194l3.882-4.438a.455.455,0,0,0,.23-.528.546.546,0,0,0-.5-.357A.57.57,0,0,0,48.042,42.739Z" transform="translate(-19.124 -21.031)" fill="#222"/>
  </g>
</svg>
