<svg xmlns="http://www.w3.org/2000/svg" width="24.645" height="30.946" viewBox="0 0 24.645 30.946">
  <g id="shopping-bag" transform="translate(1.037 0.25)">
    <g id="Group_73191" data-name="Group 73191" transform="translate(-0.785 0)">
      <g id="Group_73190" data-name="Group 73190">
        <path id="Path_23357" data-name="Path 23357" d="M77.146,25.107,75.786,7.974a2.141,2.141,0,0,0-2.125-1.968H70.976V5.885a5.885,5.885,0,0,0-11.77,0v.121H56.52a2.141,2.141,0,0,0-2.125,1.966L53.034,25.11a4.957,4.957,0,0,0,4.943,5.337H72.2a4.957,4.957,0,0,0,4.943-5.339ZM60.989,5.885a4.1,4.1,0,1,1,8.2,0v.121h-8.2Zm13.543,21.76A3.141,3.141,0,0,1,72.2,28.663H57.977a3.174,3.174,0,0,1-3.165-3.414l1.36-17.138a.35.35,0,0,1,.347-.321h2.686v2.2a.892.892,0,1,0,1.783,0v-2.2h8.2v2.2a.892.892,0,0,0,1.783,0v-2.2h2.686a.35.35,0,0,1,.347.324l1.36,17.133A3.142,3.142,0,0,1,74.532,27.646Z" transform="translate(-53.02)" stroke="#fefeff" stroke-linecap="round" stroke-linejoin="round" stroke-width="0.5"/>
      </g>
    </g>
  </g>
</svg>
