<svg xmlns="http://www.w3.org/2000/svg" width="34.571" height="32" viewBox="0 0 34.571 32">
  <g id="estore" transform="translate(7933.427 -10760)">
    <path id="Path" d="M31.222,0H1.35A1.533,1.533,0,0,0,0,1.667V25c0,2.757,1.816,5,4.049,5H28.522c2.233,0,4.049-2.243,4.049-5V1.667A1.533,1.533,0,0,0,31.222,0Z" transform="translate(-7932.427 10761)" fill="none" stroke="#5a5a5a" stroke-linecap="round" stroke-width="2"/>
    <path id="Path-2" data-name="Path" d="M22.064,2.714a1.937,1.937,0,0,1,1.348.541A1.863,1.863,0,0,1,23.988,4.6h0v.964a6.586,6.586,0,0,1-2.042,4.754,7.072,7.072,0,0,1-9.763,0,6.586,6.586,0,0,1-2.042-4.754h0V4.6a1.863,1.863,0,0,1,.575-1.347,1.95,1.95,0,0,1,2.7,0A1.863,1.863,0,0,1,13.988,4.6h0v.964a2.858,2.858,0,0,0,.89,2.062,3.177,3.177,0,0,0,4.373,0,2.858,2.858,0,0,0,.89-2.062h0V4.6a1.863,1.863,0,0,1,.575-1.347A1.937,1.937,0,0,1,22.064,2.714Z" transform="translate(-7933.205 10760.791)" fill="none" stroke="#5a5a5a" stroke-linecap="round" stroke-width="2"/>
    <path id="Shape" d="M15.04,9.613a4.72,4.72,0,0,1-4.617-4.8L10.417.741h0a.706.706,0,1,1,1.411-.07q0,.035,0,.07l.009.508.086.034h0A4.49,4.49,0,0,1,15.049,0a4.722,4.722,0,0,1,4.608,4.809,4.717,4.717,0,0,1-4.617,4.8Zm.007-1.463a3.284,3.284,0,0,0,3.21-3.343,3.213,3.213,0,1,0-6.42.006,3.276,3.276,0,0,0,3.207,3.338Z" transform="translate(-7922.083 10778.847)" fill="#5a5a5a"/>
    <path id="Shape-2" data-name="Shape" d="M4.617,9.614A4.717,4.717,0,0,1,0,4.814,4.725,4.725,0,0,1,4.617,0,4.61,4.61,0,0,1,8.84,2.878h0a4.953,4.953,0,0,1-.831,5.183l.036.086.485.008h0a.736.736,0,0,1,0,1.472h0Zm0-8.143A3.283,3.283,0,0,0,1.411,4.805h0A3.333,3.333,0,0,0,3.39,7.891h0a3.077,3.077,0,0,0,1.23.257h0a3.131,3.131,0,0,0,2.271-.979h0a3.429,3.429,0,0,0,.694-3.639A3.2,3.2,0,0,0,4.621,1.473Z" transform="translate(-7921.285 10778.847)" fill="#5a5a5a"/>
  </g>
</svg>
