<svg xmlns="http://www.w3.org/2000/svg" width="27.663" height="32" viewBox="0 0 27.663 32">
  <path id="flag" d="M21.14,6H12.727a.627.627,0,0,0-.625.625V32.138H10.709A1.22,1.22,0,0,0,9.49,33.356v2.019a.627.627,0,0,0,.625.625H15.34a.627.627,0,0,0,.625-.625V33.356a1.22,1.22,0,0,0-1.219-1.219H13.352V18.231h8.769v1.6a2.233,2.233,0,0,0,2.231,2.231H34.509a.623.623,0,0,0,.5-.994l-4.081-5.556,4.081-5.556a.623.623,0,0,0-.5-.994H23.371V8.231A2.233,2.233,0,0,0,21.14,6ZM14.715,34.75H10.74V33.388l1.919-.013c.025,0,.044.013.069.013s.05-.013.075-.013l1.913-.013ZM13.352,16.981V7.25H21.14a.979.979,0,0,1,.981.981v8.75Zm19.919-6.775-3.625,4.931a.619.619,0,0,0,0,.738l3.625,4.931H24.353a.979.979,0,0,1-.981-.981V10.206Z" transform="translate(-8.49 -5)" stroke="#5a5a5a" stroke-width="2"/>
</svg>
