<svg xmlns="http://www.w3.org/2000/svg" width="30.506" height="30.501" viewBox="0 0 30.506 30.501">
  <g id="integration" transform="translate(-4.71 -4.721)">
    <path id="Path_14049" data-name="Path 14049" d="M104.422,113.244a8.822,8.822,0,1,1,8.822-8.822A8.828,8.828,0,0,1,104.422,113.244Zm0-16.963a8.14,8.14,0,1,0,8.14,8.14A8.153,8.153,0,0,0,104.422,96.282Z" transform="translate(-84.458 -84.449)" fill="#5a5a5a" stroke="#5a5a5a" stroke-width="0.5"/>
    <path id="Path_14050" data-name="Path 14050" d="M56.309,102.07A3.713,3.713,0,0,1,52.6,98.361v-2.42a.341.341,0,0,1,.682,0v2.42a3.029,3.029,0,0,0,3.027,3.027.341.341,0,0,1,0,.682Z" transform="translate(-44.39 -84.449)" fill="#5a5a5a" stroke="#5a5a5a" stroke-width="0.5"/>
    <path id="Path_14051" data-name="Path 14051" d="M338.341,102.07a.341.341,0,1,1,0-.682,3.029,3.029,0,0,0,3.027-3.027v-2.42a.341.341,0,0,1,.682,0v2.42A3.713,3.713,0,0,1,338.341,102.07Z" transform="translate(-310.332 -84.449)" fill="#5a5a5a" stroke="#5a5a5a" stroke-width="0.5"/>
    <path id="Path_14052" data-name="Path 14052" d="M341.709,265.97a.338.338,0,0,1-.341-.341v-2.42a3.029,3.029,0,0,0-3.027-3.027.341.341,0,1,1,0-.682,3.713,3.713,0,0,1,3.709,3.709v2.42A.342.342,0,0,1,341.709,265.97Z" transform="translate(-310.332 -237.175)" fill="#5a5a5a" stroke="#5a5a5a" stroke-width="0.5"/>
    <path id="Path_14053" data-name="Path 14053" d="M52.941,265.97a.338.338,0,0,1-.341-.341v-2.42a3.713,3.713,0,0,1,3.709-3.709.341.341,0,1,1,0,.682,3.029,3.029,0,0,0-3.027,3.027v2.42A.346.346,0,0,1,52.941,265.97Z" transform="translate(-44.39 -237.175)" fill="#5a5a5a" stroke="#5a5a5a" stroke-width="0.5"/>
    <path id="Path_14054" data-name="Path 14054" d="M372.086,64.973a1.486,1.486,0,1,1,1.486-1.486A1.49,1.49,0,0,1,372.086,64.973Zm0-2.284a.8.8,0,1,0,.8.8A.806.806,0,0,0,372.086,62.689Z" transform="translate(-340.709 -53.14)" fill="#5a5a5a" stroke="#5a5a5a" stroke-width="0.5"/>
    <path id="Path_14055" data-name="Path 14055" d="M348.634,220.682h-3.893a.341.341,0,0,1,0-.682h3.893a.341.341,0,0,1,0,.682Z" transform="translate(-316.296 -200.368)" fill="#5a5a5a" stroke="#5a5a5a" stroke-width="0.5"/>
    <path id="Path_14056" data-name="Path 14056" d="M42.734,220.682H38.841a.341.341,0,1,1,0-.682h3.893a.341.341,0,1,1,0,.682Z" transform="translate(-31.251 -200.368)" fill="#5a5a5a" stroke="#5a5a5a" stroke-width="0.5"/>
    <path id="Path_14057" data-name="Path 14057" d="M402.951,206.24h-.089a1.529,1.529,0,1,1,.089,0Zm-.007-2.291a.756.756,0,1,0,.048,0C402.979,203.956,402.965,203.949,402.945,203.949Z" transform="translate(-369.468 -184.78)" fill="#5a5a5a" stroke="#5a5a5a" stroke-width="0.5"/>
    <path id="Path_14058" data-name="Path 14058" d="M6.451,206.24H6.363a1.529,1.529,0,1,1,.089,0Zm0-2.291a.8.8,0,1,0,.539,1.4.819.819,0,0,0,.266-.552.8.8,0,0,0-.757-.845A.111.111,0,0,1,6.451,203.949Z" transform="translate(0 -184.78)" fill="#5a5a5a" stroke="#5a5a5a" stroke-width="0.5"/>
    <path id="Path_14059" data-name="Path 14059" d="M220.341,348.975a.338.338,0,0,1-.341-.341v-3.893a.341.341,0,0,1,.682,0v3.893A.338.338,0,0,1,220.341,348.975Z" transform="translate(-200.377 -316.287)" fill="#5a5a5a" stroke="#5a5a5a" stroke-width="0.5"/>
    <path id="Path_14060" data-name="Path 14060" d="M220.341,43.075a.338.338,0,0,1-.341-.341V38.841a.341.341,0,1,1,.682,0v3.893A.338.338,0,0,1,220.341,43.075Z" transform="translate(-200.377 -31.242)" fill="#5a5a5a" stroke="#5a5a5a" stroke-width="0.5"/>
    <path id="Path_14061" data-name="Path 14061" d="M204.66,404.431h-.089a1.529,1.529,0,1,1,.089,0Zm-.8-1.527a.8.8,0,0,0,.757.845.789.789,0,0,0,.58-.2.819.819,0,0,0,.266-.552.8.8,0,0,0-.2-.579.791.791,0,0,0-.552-.266.8.8,0,0,0-.58.2A.742.742,0,0,0,203.862,402.9Z" transform="translate(-184.696 -369.459)" fill="#5a5a5a" stroke="#5a5a5a" stroke-width="0.5"/>
    <path id="Path_14062" data-name="Path 14062" d="M204.66,7.94h-.089a1.529,1.529,0,1,1,.089,0Zm-.8-1.527a.8.8,0,0,0,1.6.089.789.789,0,0,0-.2-.58.819.819,0,0,0-.552-.266A.8.8,0,0,0,203.862,6.412Z" transform="translate(-184.696 0)" fill="#5a5a5a" stroke="#5a5a5a" stroke-width="0.5"/>
    <path id="Path_14063" data-name="Path 14063" d="M372.051,347.331h-.089a1.529,1.529,0,1,1,.089,0Zm-.048-.682a.8.8,0,0,0,.641-1.336.791.791,0,0,0-.552-.266.8.8,0,0,0-.579.2.791.791,0,0,0-.266.552.8.8,0,0,0,.2.579A.819.819,0,0,0,372,346.649Z" transform="translate(-340.674 -316.251)" fill="#5a5a5a" stroke="#5a5a5a" stroke-width="0.5"/>
    <path id="Path_14064" data-name="Path 14064" d="M37.251,347.331h-.089a1.529,1.529,0,1,1,.089,0Zm-.048-.682a.8.8,0,1,0,.089-1.6.789.789,0,0,0-.58.2.819.819,0,0,0-.266.552A.81.81,0,0,0,37.2,346.649Z" transform="translate(-28.7 -316.251)" fill="#5a5a5a" stroke="#5a5a5a" stroke-width="0.5"/>
    <path id="Path_14065" data-name="Path 14065" d="M37.251,65.031h-.089a1.485,1.485,0,0,1,.17-2.966,1.492,1.492,0,0,1,1.4,1.568A1.485,1.485,0,0,1,37.251,65.031Zm-.048-.682a.8.8,0,0,0,.845-.757.789.789,0,0,0-.2-.58.819.819,0,0,0-.552-.266.789.789,0,0,0-.58.2.819.819,0,0,0-.266.552A.81.81,0,0,0,37.2,64.349Z" transform="translate(-28.7 -53.198)" fill="#5a5a5a" stroke="#5a5a5a" stroke-width="0.5"/>
    <path id="Path_14066" data-name="Path 14066" d="M186.329,188.641a2.871,2.871,0,1,1,2.829-2.87A2.853,2.853,0,0,1,186.329,188.641Zm0-5.059a2.189,2.189,0,1,0,2.148,2.188A2.169,2.169,0,0,0,186.329,183.582Z" transform="translate(-166.365 -165.797)" fill="#5a5a5a" stroke="#5a5a5a" stroke-width="0.5"/>
    <path id="Path_14067" data-name="Path 14067" d="M138.822,143.9h-2.448a.338.338,0,0,1-.341-.341v-1.057a5.051,5.051,0,0,1-.866-.361l-.75.75a.347.347,0,0,1-.239.1.32.32,0,0,1-.239-.1l-1.732-1.732a.347.347,0,0,1-.1-.239.32.32,0,0,1,.1-.239l.75-.75a5.659,5.659,0,0,1-.361-.866h-1.057a.338.338,0,0,1-.341-.341v-2.454a.338.338,0,0,1,.341-.341H132.6a5.051,5.051,0,0,1,.361-.866l-.75-.75a.347.347,0,0,1-.1-.239.32.32,0,0,1,.1-.239l1.732-1.732a.35.35,0,0,1,.484,0l.75.75a5.66,5.66,0,0,1,.866-.361v-1.057a.338.338,0,0,1,.341-.341h2.448a.338.338,0,0,1,.341.341V132.5a5.05,5.05,0,0,1,.866.361l.75-.75a.347.347,0,0,1,.239-.1.32.32,0,0,1,.239.1l1.732,1.732a.338.338,0,0,1,0,.484l-.75.75a5.66,5.66,0,0,1,.361.866h1.057a.338.338,0,0,1,.341.341v2.448a.338.338,0,0,1-.341.341h-1.057a5.051,5.051,0,0,1-.361.866l.75.75a.338.338,0,0,1,0,.484l-1.739,1.718a.338.338,0,0,1-.484,0l-.75-.75a5.661,5.661,0,0,1-.866.361v1.057A.338.338,0,0,1,138.822,143.9Zm-2.107-.682h1.766v-.975a.329.329,0,0,1,.259-.327,4.553,4.553,0,0,0,1.179-.491.34.34,0,0,1,.416.055l.689.689,1.248-1.248-.7-.7a.35.35,0,0,1-.055-.416,4.592,4.592,0,0,0,.491-1.179.348.348,0,0,1,.327-.259h.975v-1.766h-.975a.329.329,0,0,1-.327-.259,4.553,4.553,0,0,0-.491-1.179.331.331,0,0,1,.055-.416l.689-.689-1.248-1.248-.689.709a.35.35,0,0,1-.416.055,4.592,4.592,0,0,0-1.179-.491.348.348,0,0,1-.259-.327v-.975h-1.759v.975a.329.329,0,0,1-.259.327,4.8,4.8,0,0,0-1.179.491.331.331,0,0,1-.416-.055l-.689-.689-1.248,1.248.689.689a.35.35,0,0,1,.055.416,4.592,4.592,0,0,0-.491,1.179.348.348,0,0,1-.327.259h-.975v1.759h.975a.329.329,0,0,1,.327.259,4.8,4.8,0,0,0,.491,1.179.331.331,0,0,1-.055.416l-.689.689,1.248,1.248.689-.689a.35.35,0,0,1,.416-.055,4.592,4.592,0,0,0,1.179.491.348.348,0,0,1,.259.327Z" transform="translate(-117.631 -117.529)" fill="#5a5a5a" stroke="#5a5a5a" stroke-width="0.5"/>
  </g>
</svg>
