<svg xmlns="http://www.w3.org/2000/svg" width="33.573" height="30.001" viewBox="0 0 33.573 30.001">
  <g id="khata" transform="translate(9114.979 -10762.935)">
    <path id="Shape" d="M30.775,4.888h-.293V3.169a.928.928,0,0,0-.564-.857,16.981,16.981,0,0,0-13.143-.149,16.981,16.981,0,0,0-13.143.149.925.925,0,0,0-.564.857v1.72H2.8A2.8,2.8,0,0,0,0,7.691V28.116a2.8,2.8,0,0,0,2.8,2.8H30.775a2.8,2.8,0,0,0,2.8-2.8V7.691A2.8,2.8,0,0,0,30.775,4.888ZM2.8,29.045a.933.933,0,0,1-.934-.934V7.691A.933.933,0,0,1,2.8,6.757h.293V27.165a.936.936,0,0,0,1.3.857,9.443,9.443,0,0,1,3.682-.7,11.928,11.928,0,0,1,6.193,1.725Zm13.054-1.189a13.562,13.562,0,0,0-7.779-2.405,11.9,11.9,0,0,0-3.118.4V3.8a15.115,15.115,0,0,1,10.9,0V27.856ZM17.721,3.8a15.115,15.115,0,0,1,10.9,0V25.855a11.9,11.9,0,0,0-3.118-.4,13.549,13.549,0,0,0-7.779,2.405V3.8ZM31.709,28.116a.933.933,0,0,1-.934.934H19.3a11.944,11.944,0,0,1,6.193-1.725,9.343,9.343,0,0,1,3.682.7.928.928,0,0,0,1.3-.857V6.751h.293a.933.933,0,0,1,.934.934v20.43Z" transform="translate(-9114.979 10762.021)" fill="#5a5a5a"/>
    <g id="Group" transform="translate(-9107.677 10768.898)">
      <path id="Shape-2" data-name="Shape" d="M.573.368A.7.7,0,0,0,.9,1.722a10.232,10.232,0,0,1,4.506-.044A.692.692,0,0,0,5.687.324,11.56,11.56,0,0,0,.573.368Z" transform="translate(-0.034 -0.056)" fill="#5a5a5a"/>
      <path id="Shape-3" data-name="Shape" d="M5.709,5.046A11.59,11.59,0,0,0,.6,4.847.7.7,0,1,0,.86,6.213a10.263,10.263,0,0,1,4.5.177.694.694,0,0,0,.348-1.344Z" transform="translate(-0.033 -0.36)" fill="#5a5a5a"/>
      <path id="Shape-4" data-name="Shape" d="M.833,10.713a10.2,10.2,0,0,1,4.49.376.693.693,0,0,0,.415-1.321,11.61,11.61,0,0,0-5.1-.42.69.69,0,1,0,.194,1.366Z" transform="translate(-0.034 -0.664)" fill="#5a5a5a"/>
      <path id="Shape-5" data-name="Shape" d="M5.732,14.383a11.61,11.61,0,0,0-5.1-.359A.694.694,0,0,0,.838,15.4a10.207,10.207,0,0,1,4.5.315.693.693,0,0,0,.4-1.327Z" transform="translate(-0.034 -0.973)" fill="#5a5a5a"/>
      <path id="Shape-6" data-name="Shape" d="M14.545,1.678a10.316,10.316,0,0,1,4.506.044A.7.7,0,0,0,19.377.368,11.641,11.641,0,0,0,14.263.312a.7.7,0,0,0,.282,1.366Z" transform="translate(-0.94 -0.055)" fill="#5a5a5a"/>
      <path id="Shape-7" data-name="Shape" d="M14.584,6.39a10.18,10.18,0,0,1,4.5-.177.7.7,0,1,0,.26-1.366,11.673,11.673,0,0,0-5.109.2.694.694,0,0,0-.5.846A.685.685,0,0,0,14.584,6.39Z" transform="translate(-0.941 -0.36)" fill="#5a5a5a"/>
      <path id="Shape-8" data-name="Shape" d="M19.306,9.341a11.611,11.611,0,0,0-5.1.42.692.692,0,1,0,.415,1.321,10.2,10.2,0,0,1,4.49-.376.693.693,0,0,0,.785-.586A.683.683,0,0,0,19.306,9.341Z" transform="translate(-0.941 -0.663)" fill="#5a5a5a"/>
      <path id="Shape-9" data-name="Shape" d="M19.9,14.82a.689.689,0,0,0-.581-.791,11.534,11.534,0,0,0-5.1.359.691.691,0,0,0,.387,1.327,10.2,10.2,0,0,1,4.5-.315A.7.7,0,0,0,19.9,14.82Z" transform="translate(-0.941 -0.973)" fill="#5a5a5a"/>
    </g>
  </g>
</svg>
