<svg xmlns="http://www.w3.org/2000/svg" width="26.369" height="30.4" viewBox="0 0 26.369 30.4">
  <g id="Layer_2_00000070094912104080191440000008426906082289936021_" transform="translate(-34.2 0.2)">
    <g id="Social_Icon" transform="translate(34.4)">
      <g id="Avatar">
        <path id="Path_14667" data-name="Path 14667" d="M56.964,264.458H37.8a3.408,3.408,0,0,1-3.4-3.4v-1.5a13.014,13.014,0,0,1,4.254-9.633,3.379,3.379,0,0,1,4.1-.34,8.806,8.806,0,0,0,9.27,0,3.379,3.379,0,0,1,4.1.34,12.993,12.993,0,0,1,4.254,9.633v1.5A3.406,3.406,0,0,1,56.964,264.458ZM40.921,250.22a2.2,2.2,0,0,0-1.482.574,11.857,11.857,0,0,0-3.873,8.766v1.5a2.233,2.233,0,0,0,2.227,2.227H56.959a2.226,2.226,0,0,0,2.227-2.227v-1.5a11.866,11.866,0,0,0-3.873-8.766,2.206,2.206,0,0,0-2.672-.223,9.966,9.966,0,0,1-10.535,0A2.156,2.156,0,0,0,40.921,250.22Z" transform="translate(-34.4 -234.458)" fill="#5a5a5a" stroke="#5a5a5a" stroke-width="0.4"/>
        <path id="Path_14668" data-name="Path 14668" d="M134.559,15.117a7.559,7.559,0,1,1,7.559-7.559A7.569,7.569,0,0,1,134.559,15.117Zm0-13.939a6.387,6.387,0,1,0,6.387,6.387A6.387,6.387,0,0,0,134.559,1.178Z" transform="translate(-121.574)" fill="#5a5a5a" stroke="#5a5a5a" stroke-width="0.4"/>
      </g>
    </g>
  </g>
</svg>
