<svg xmlns="http://www.w3.org/2000/svg" width="41.525" height="32.003" viewBox="0 0 41.525 32.003">
  <g id="payments" transform="translate(1 1.003)">
    <path id="Path_14042" data-name="Path 14042" d="M43.245,170.346v5.745a2.553,2.553,0,0,1-2.553,2.553H10.053A2.553,2.553,0,0,1,7.5,176.091V158.218a2.553,2.553,0,0,1,2.553-2.553H40.692a2.553,2.553,0,0,1,2.553,2.553v9.575" transform="translate(-7.5 -148.644)" fill="none" stroke="#5a5a5a" stroke-linecap="round" stroke-linejoin="round" stroke-width="2"/>
    <path id="Path_14043" data-name="Path 14043" d="M38.972,71.838a2.544,2.544,0,0,1,1.67-.907l30.433-3.544a2.553,2.553,0,0,1,2.831,2.241l2.067,17.752a2.553,2.553,0,0,1-2.241,2.831l-1.519.177" transform="translate(-36.469 -67.37)" fill="none" stroke="#5a5a5a" stroke-linecap="round" stroke-linejoin="round" stroke-width="2"/>
    <line id="Line_384" data-name="Line 384" x2="5.106" transform="translate(3.83 22.34)" fill="none" stroke="#5a5a5a" stroke-linecap="round" stroke-linejoin="round" stroke-width="2"/>
    <line id="Line_385" data-name="Line 385" x2="12.766" transform="translate(3.83 25.532)" fill="none" stroke="#5a5a5a" stroke-linecap="round" stroke-linejoin="round" stroke-width="2"/>
    <line id="Line_386" data-name="Line 386" x2="5.106" transform="translate(11.489 22.34)" fill="none" stroke="#5a5a5a" stroke-linecap="round" stroke-linejoin="round" stroke-width="2"/>
    <line id="Line_387" data-name="Line 387" x2="5.106" transform="translate(19.149 22.34)" fill="none" stroke="#5a5a5a" stroke-linecap="round" stroke-linejoin="round" stroke-width="2"/>
    <line id="Line_388" data-name="Line 388" x2="5.106" transform="translate(26.809 22.34)" fill="none" stroke="#5a5a5a" stroke-linecap="round" stroke-linejoin="round" stroke-width="2"/>
    <path id="Path_14044" data-name="Path 14044" d="M60.767,249.065h-3.83a1.277,1.277,0,0,1-1.277-1.277v-2.553a1.277,1.277,0,0,1,1.277-1.277h3.83a1.277,1.277,0,0,1,1.277,1.277v2.553A1.277,1.277,0,0,1,60.767,249.065Z" transform="translate(-51.831 -229.917)" fill="none" stroke="#5a5a5a" stroke-linecap="round" stroke-linejoin="round" stroke-width="2"/>
    <line id="Line_389" data-name="Line 389" x2="1.277" transform="translate(6.383 16.596)" fill="none" stroke="#5a5a5a" stroke-linecap="round" stroke-linejoin="round" stroke-width="2"/>
    <path id="Path_14045" data-name="Path 14045" d="M384.253,217.6a6.418,6.418,0,0,0,0-5.745" transform="translate(-354.293 -200.363)" fill="none" stroke="#5a5a5a" stroke-linecap="round" stroke-linejoin="round" stroke-width="2"/>
    <path id="Path_14046" data-name="Path 14046" d="M355.467,229.786a3.773,3.773,0,0,0,0-3.44" transform="translate(-327.796 -213.705)" fill="none" stroke="#5a5a5a" stroke-linecap="round" stroke-linejoin="round" stroke-width="2"/>
    <path id="Path_14047" data-name="Path 14047" d="M326.795,241.928a1.225,1.225,0,0,0,0-1.143" transform="translate(-301.404 -226.995)" fill="none" stroke="#5a5a5a" stroke-linecap="round" stroke-linejoin="round" stroke-width="2"/>
  </g>
</svg>
