<svg xmlns="http://www.w3.org/2000/svg" width="31.012" height="31" viewBox="0 0 31.012 31">
  <g id="Layer_1_1_" transform="translate(0.5 0.493)">
    <g id="Group_70178" data-name="Group 70178" transform="translate(0 0.007)">
      <g id="Group_70176" data-name="Group 70176">
        <path id="Path_14665" data-name="Path 14665" d="M17.62,30.007H12.4l-.332-3.31a11.934,11.934,0,0,1-3.252-1.351l-2.578,2.11L2.55,23.772l2.112-2.581a11.965,11.965,0,0,1-1.349-3.249L0,17.61V12.4l3.314-.332A11.976,11.976,0,0,1,4.663,8.822L2.55,6.241,6.233,2.557,8.811,4.668a11.906,11.906,0,0,1,3.251-1.351l.332-3.31h5.225l.332,3.31A11.934,11.934,0,0,1,21.2,4.668L23.78,2.556,27.463,6.24,25.35,8.822A11.982,11.982,0,0,1,26.7,12.07l3.314.331v5.208l-3.314.333a11.978,11.978,0,0,1-1.348,3.247l2.113,2.582-3.683,3.684L21.2,25.344a11.93,11.93,0,0,1-3.25,1.352Zm-4.377-.938h3.529l.315-3.136.331-.073a11.045,11.045,0,0,0,3.57-1.486l.287-.184,2.445,2L26.2,23.71l-2-2.448.182-.286a11.011,11.011,0,0,0,1.48-3.567l.073-.332,3.14-.316V13.25l-3.142-.313-.073-.332a11.04,11.04,0,0,0-1.481-3.568L24.2,8.751l2-2.448L23.716,3.821l-2.445,2-.287-.184a11,11,0,0,0-3.568-1.486l-.333-.073L16.77.944H13.241L12.929,4.08l-.333.073a11.012,11.012,0,0,0-3.57,1.485l-.286.184-2.444-2L3.814,6.3l2,2.448-.182.286a11.062,11.062,0,0,0-1.481,3.569l-.073.332-3.142.313v3.511l3.142.313.073.332a10.993,10.993,0,0,0,1.481,3.57l.182.286-2,2.446L6.3,26.191l2.444-2,.287.183A11,11,0,0,0,12.6,25.859l.332.073Z" transform="translate(0 -0.007)" fill="#5a5a5a" stroke="#5a5a5a" stroke-width="1"/>
      </g>
      <g id="Group_70177" data-name="Group 70177" transform="translate(8.781 8.777)">
        <path id="Path_14666" data-name="Path 14666" d="M16,22.222A6.223,6.223,0,1,1,22.226,16,6.23,6.23,0,0,1,16,22.222Zm0-11.445A5.223,5.223,0,1,0,21.226,16,5.23,5.23,0,0,0,16,10.777Z" transform="translate(-9.775 -9.777)" fill="#5a5a5a" stroke="#5a5a5a" stroke-width="1"/>
      </g>
    </g>
  </g>
</svg>
