<svg xmlns="http://www.w3.org/2000/svg" width="80" height="80" viewBox="0 0 80 80">
  <g id="Group_70106" data-name="Group 70106" transform="translate(-666 -2362)">
    <g id="Group_2324" data-name="Group 2324" transform="translate(666 2362)">
      <circle id="Ellipse_4" data-name="Ellipse 4" cx="40" cy="40" r="40" fill="#498bdc"/>
      <g id="crm_loyalty" data-name="crm &amp; loyalty" transform="translate(20 20)">
        <g id="Group">
          <path id="Shape" d="M22,12.694a1.113,1.113,0,0,0-1.574,0,2.89,2.89,0,0,1-4.084,0,1.113,1.113,0,0,0-1.574,1.574,5.151,5.151,0,0,0,7.227,0A1.119,1.119,0,0,0,22,12.694Z" transform="translate(1.623 1.383)" fill="#feffff"/>
          <path id="Shape-2" data-name="Shape" d="M36.1,22.76c-1.331-1.515-4.572-2.958-9.644-4.308A11.092,11.092,0,0,0,29.6,10.619C29.608,4.769,25.3.007,20,.007s-9.6,4.763-9.6,10.613a11.092,11.092,0,0,0,3.149,7.833C8.481,19.8,5.24,21.245,3.91,22.76,1.2,25.856.128,37.477.01,38.794a1.126,1.126,0,0,0,1.113,1.212H38.9A1.11,1.11,0,0,0,40.01,38.8C39.885,37.477,38.817,25.856,36.1,22.76ZM20,2.233A7.535,7.535,0,0,1,26.98,7.918c-5.817.474-7.3-2.47-7.365-2.589a1.1,1.1,0,0,0-1.021-.672H18.58a1.111,1.111,0,0,0-1.015.7,5.058,5.058,0,0,1-4.69,3.129C13.712,4.888,16.584,2.233,20,2.233ZM12.632,10.7c.165.013.323.026.481.026A6.952,6.952,0,0,0,18.745,7.78c1.3,1.278,3.88,2.793,8.623,2.365.007.165.026.323.026.487,0,4.625-3.307,8.386-7.378,8.386C15.965,19.012,12.671,15.29,12.632,10.7Zm.165,10.27c.942-.277,1.963-.54,3.037-.8a8.7,8.7,0,0,0,8.327,0c1.087.257,2.1.527,3.037.8V26.3l-6.482-4.677a1.341,1.341,0,0,0-1.449,0L12.783,26.3V20.975Zm9.947,4.842-2.813,2.53-2.675-2.51,2.754-1.983ZM14.153,37.78H2.342c.494-4.763,1.693-11.785,3.234-13.551.711-.8,2.451-1.686,5-2.556v6.812a1.113,1.113,0,0,0,1.765.9l3.076-2.22.9.843Zm2.273,0L18.2,29.769h0l.955.9a1.093,1.093,0,0,0,1.5.013l1.133-1.015,1.8,8.116H16.426Zm9.434,0-2.174-9.822.9-.8,3.09,2.227a1.112,1.112,0,0,0,1.765-.9V21.673c2.543.876,4.289,1.759,5,2.556,1.541,1.765,2.74,8.788,3.234,13.551Z" transform="translate(0 -0.007)" fill="#feffff"/>
        </g>
      </g>
    </g>
  </g>
</svg>
