<svg xmlns="http://www.w3.org/2000/svg" width="80" height="80" viewBox="0 0 80 80">
  <g id="Group_70130" data-name="Group 70130" transform="translate(-666 -2362)">
    <circle id="Ellipse_4" data-name="Ellipse 4" cx="40" cy="40" r="40" transform="translate(666 2362)" fill="#498bdc"/>
    <g id="Layer_1" data-name="Layer 1" transform="translate(682.991 2387.58)">
      <g id="Group_70129" data-name="Group 70129" transform="translate(0.009 -0.449)">
        <path id="Path_14653" data-name="Path 14653" d="M0,0,17.973.39l.565,24.817L.565,24.817Z" transform="translate(0.072 6.641) rotate(-21.43)" fill="none"/>
        <circle id="Ellipse_647" data-name="Ellipse 647" cx="2.98" cy="2.98" r="2.98" transform="translate(34.205 20.428)" fill="#feffff"/>
        <path id="Path_14642" data-name="Path 14642" d="M62.066,25.654H39.44L32.55,6.64H55.021l3.517,6.33,1.77,8.315Z" transform="translate(-16.268 -2.235)" fill="none"/>
        <g id="vqbT2h" transform="translate(0 1.004)">
          <g id="Group_70128" data-name="Group 70128">
            <g id="Group_70123" data-name="Group 70123">
              <path id="Path_14643" data-name="Path 14643" d="M41.322,22.507c.33,3.017-.843,4.89-3.061,5.035A3.616,3.616,0,0,1,35.049,26.2a3.951,3.951,0,0,1-.648-3.44c-3.111-.117-6.155-.234-9.227-.351.006,1.606-1.039,2.253-2.346,2.743-4,1.494-7.982,3.039-11.981,4.539a2.515,2.515,0,0,1-3.323-1.578c-.782-2-1.53-4.015-2.3-6.022Q2.908,16.006.587,9.917c-.743-1.94-.2-3.173,1.726-3.909Q8.3,3.733,14.288,1.458a2.528,2.528,0,0,1,3.658,1.628.837.837,0,0,0,.922.636c2.7.05,5.407.156,8.11.184,3.77.033,7.546.017,11.316.017a3.19,3.19,0,0,1,3.368,2.219c.871,2.08,1.743,4.154,2.569,6.251a4.755,4.755,0,0,1,.285,1.584c.039,1.249.017,2.5,0,3.747,0,.379.039.613.514.7a2.049,2.049,0,0,1,1.609,2.124,1.989,1.989,0,0,1-1.826,1.935c-1.145.072-2.29.017-3.5.017ZM15.344,2.389a4.674,4.674,0,0,0-.475.123Q8.653,4.871,2.442,7.24A1.334,1.334,0,0,0,1.587,9.17Q4.5,16.814,7.413,24.465c.408,1.071.81,2.147,1.229,3.212a1.317,1.317,0,0,0,1.882.859q6.133-2.317,12.254-4.656c1.223-.468,1.435-1.02.961-2.258Q21.5,15.758,19.265,9.889,18.025,6.644,16.791,3.4a1.378,1.378,0,0,0-1.452-1.015Zm3.39,2.543a2.157,2.157,0,0,0,.056.318q2.974,7.812,5.965,15.613a.7.7,0,0,0,.508.362c1.005.067,2.011.078,3.016.128,1.346.061,1.346.067,1.346-1.243V7.424a2,2,0,0,0-2.234-2.3c-2.681-.078-5.362-.128-8.043-.19h-.62Zm24.6,12.513c-.916,0-1.765-.061-2.6.017A1.923,1.923,0,0,1,38.5,15.984c-.045-.134-.112-.262-.156-.39A1.741,1.741,0,0,0,36.691,14.4c-.6-.039-1.206-.078-1.81-.128a1.486,1.486,0,0,1-1.447-1.545q-.017-2.476,0-4.957a1.521,1.521,0,0,1,1.731-1.634c1.53.017,3.066.011,4.6.006a3.926,3.926,0,0,0,.519-.072,1.976,1.976,0,0,0-1.9-.942l-7.624.033c-.145,0-.3.022-.553.039a4.252,4.252,0,0,1,.6,2.855q-.017,6.373-.028,12.741c0,.424.084.664.6.664,1.05,0,2.095.095,3.145.084a1.605,1.605,0,0,0,.961-.335,3.678,3.678,0,0,1,4.591-.151,1.114,1.114,0,0,0,.525.262c1.352.017,2.7.028,4.055-.011.514-.017.771-.39.76-.914-.017-.558-.374-.831-1.089-.848-.821-.022-.983-.184-.989-1v-1.11Zm.073-1.2a14.685,14.685,0,0,0-.263-3.262c-.57-1.8-1.391-3.507-2.128-5.247a.717.717,0,0,0-.5-.379c-1.793-.028-3.586-.011-5.379-.022-.369,0-.492.145-.486.507.011,1.567.011,3.139,0,4.706,0,.379.145.546.531.558.564.017,1.123.072,1.687.117a2.8,2.8,0,0,1,2.5,1.712c.145.312.251.641.419.937.089.156.268.357.408.362,1.022.033,2.044.017,3.217.017Zm-3.1,7.784a2.422,2.422,0,1,0-4.843-.061,2.422,2.422,0,0,0,4.843.061Z" transform="translate(-0.113 -1.038)" fill="#feffff"/>
              <path id="Path_14644" data-name="Path 14644" d="M9.788,29.931a2.706,2.706,0,0,1-2.509-1.853c-.531-1.35-1.051-2.729-1.553-4.062-.246-.653-.5-1.311-.743-1.964L3.96,19.362c-1.185-3.114-2.414-6.333-3.621-9.5A3.244,3.244,0,0,1,.211,7.332,3.187,3.187,0,0,1,2.155,5.764l3.414-1.3C8.375,3.4,11.28,2.293,14.136,1.211a3.027,3.027,0,0,1,2.38-.061,2.949,2.949,0,0,1,1.47,1.78.7.7,0,0,0,.788.541c1.062.022,2.146.05,3.191.078,1.615.045,3.28.089,4.917.106,2.671.022,5.381.022,8.007.022H38.2a3.334,3.334,0,0,1,3.5,2.31l.112.268c.821,1.959,1.665,3.984,2.459,5.993a5.028,5.028,0,0,1,.3,1.635c.034,1.116.022,2.249.011,3.342v.413c-.011.357.022.485.391.552a2.218,2.218,0,0,1,1.732,2.282,2.132,2.132,0,0,1-1.961,2.076c-.8.05-1.581.039-2.414.028-.307,0-.615-.011-.928-.011a5.274,5.274,0,0,1-.9,3.928,3.2,3.2,0,0,1-2.313,1.11,3.76,3.76,0,0,1-3.342-1.395,3.992,3.992,0,0,1-.71-3.393l-8.913-.34c-.061,1.618-1.207,2.265-2.442,2.729-2.14.8-4.314,1.629-6.415,2.427-1.822.7-3.71,1.412-5.566,2.109a2.837,2.837,0,0,1-1.006.19Zm5.7-28.7a3.534,3.534,0,0,0-1.257.257C11.375,2.567,8.475,3.666,5.664,4.737L2.25,6.038A2.955,2.955,0,0,0,.468,7.449,2.972,2.972,0,0,0,.6,9.759c1.213,3.164,2.436,6.383,3.621,9.5l1.023,2.69c.251.653.5,1.311.743,1.964.5,1.334,1.023,2.712,1.553,4.057a2.369,2.369,0,0,0,3.135,1.5c1.855-.7,3.744-1.417,5.566-2.109,2.1-.8,4.275-1.629,6.415-2.427,1.358-.508,2.257-1.144,2.252-2.606v-.151l9.555.363-.034.167a3.756,3.756,0,0,0,.62,3.32,3.482,3.482,0,0,0,3.09,1.289,2.878,2.878,0,0,0,2.107-1.01,5.1,5.1,0,0,0,.816-3.872l-.017-.162h.162c.369,0,.732,0,1.1.011.827.011,1.6.022,2.392-.028a1.847,1.847,0,0,0,1.688-1.8A1.912,1.912,0,0,0,44.9,18.47c-.592-.106-.643-.458-.637-.843v-.413c.017-1.094.028-2.221,0-3.331a4.633,4.633,0,0,0-.274-1.54c-.788-2-1.637-4.029-2.459-5.987l-.112-.268A3.044,3.044,0,0,0,38.18,3.956H34.867c-2.626,0-5.342,0-8.007-.022-1.643-.017-3.314-.061-4.923-.106-1.045-.028-2.123-.056-3.191-.078a1,1,0,0,1-1.056-.737A2.652,2.652,0,0,0,16.376,1.4a2.183,2.183,0,0,0-.9-.19ZM9.772,28.72A1.458,1.458,0,0,1,8.4,27.632c-.291-.742-.576-1.5-.855-2.226-.123-.329-.251-.658-.374-.988L5.681,20.5Q3.51,14.809,1.345,9.118A1.478,1.478,0,0,1,2.284,7C6.335,5.446,10.308,3.94,14.717,2.266a2.7,2.7,0,0,1,.408-.112q.05-.008.084-.017h.067a1.514,1.514,0,0,1,1.559,1.1q.914,2.377,1.816,4.765L20.59,13.1q1.593,4.185,3.191,8.37c.508,1.339.246,1.953-1.045,2.45C19.008,25.35,15,26.873,10.476,28.58a2,2,0,0,1-.7.139Zm5.487-26.3s-.045.011-.078.017a2.427,2.427,0,0,0-.363.1C10.414,4.213,6.441,5.72,2.39,7.271a1.194,1.194,0,0,0-.771,1.741Q3.79,14.7,5.955,20.395l1.492,3.917c.123.329.251.658.374.988.274.731.564,1.484.849,2.226a1.172,1.172,0,0,0,1.693.776c4.521-1.707,8.533-3.231,12.26-4.659,1.129-.435,1.324-.9.877-2.07Q21.9,17.387,20.31,13.2L18.371,8.1c-.6-1.59-1.207-3.175-1.816-4.765a1.224,1.224,0,0,0-1.285-.921h-.017ZM37.8,26.432h-.011a2.607,2.607,0,0,1-2.565-2.561,2.6,2.6,0,0,1,4.37-1.892,2.66,2.66,0,0,1,.771,1.953,2.6,2.6,0,0,1-2.559,2.5Zm.039-4.849h-.061a2.225,2.225,0,0,0-2.269,2.288,2.307,2.307,0,0,0,2.274,2.265h.011a2.3,2.3,0,0,0,2.263-2.21h0a2.411,2.411,0,0,0-.682-1.741,2.172,2.172,0,0,0-1.542-.608Zm-3.548.017c-.5,0-1.017-.022-1.509-.045s-1-.045-1.5-.045h0a.786.786,0,0,1-.564-.179.864.864,0,0,1-.184-.636c.011-2.7.011-5.39.017-8.085,0-1.557.006-3.108.011-4.665V7.661a3.675,3.675,0,0,0-.576-2.483l-.162-.212.268-.022c.089-.006.168-.011.235-.022.129-.011.229-.022.33-.022l3.817-.017c1.274,0,2.542-.011,3.817-.017a2.1,2.1,0,0,1,2.028,1.01l.117.19-.224.033-.2.033a1.879,1.879,0,0,1-.341.039H39.1c-1.319,0-2.688,0-4.029-.006a1.682,1.682,0,0,0-1.173.368,1.494,1.494,0,0,0-.414,1.116c-.011,1.529-.011,3.147,0,4.955a1.338,1.338,0,0,0,1.313,1.4c.548.045,1.106.084,1.643.117l.162.011a1.873,1.873,0,0,1,1.783,1.289l.067.167a1.62,1.62,0,0,1,.089.229A1.792,1.792,0,0,0,40.628,17.2a15.534,15.534,0,0,1,1.771-.028c.274.006.553.011.844.011h.145v1.255c0,.742.095.837.844.859.8.017,1.218.352,1.235.993a.925.925,0,0,1-.9,1.066c-1.386.045-2.766.028-4.062.011a1.1,1.1,0,0,1-.581-.268l-.028-.017a3.552,3.552,0,0,0-4.414.145,1.83,1.83,0,0,1-1.056.368h-.134Zm-3.006-.379c.5,0,1.017.022,1.509.045.536.022,1.09.045,1.632.039A1.482,1.482,0,0,0,35.3,21a3.845,3.845,0,0,1,4.772-.156l.028.017a.89.89,0,0,0,.413.212c1.291.017,2.671.028,4.051-.011a.656.656,0,0,0,.62-.764c-.006-.318-.123-.686-.95-.709-.905-.022-1.129-.246-1.129-1.149v-.96c-.24,0-.475-.006-.7-.011a14.909,14.909,0,0,0-1.738.028,2.075,2.075,0,0,1-2.392-1.579,2,2,0,0,0-.084-.206c-.028-.061-.05-.123-.073-.184a1.585,1.585,0,0,0-1.525-1.1l-.162-.011c-.542-.033-1.1-.073-1.648-.117A1.635,1.635,0,0,1,33.2,12.611c-.011-1.808-.011-3.432,0-4.961a1.738,1.738,0,0,1,.508-1.328,1.9,1.9,0,0,1,1.375-.446c1.341.011,2.71.011,4.029.011h.57a1.754,1.754,0,0,0,.268-.033A1.869,1.869,0,0,0,38.3,5.167l-3.817.017c-1.274,0-2.542.011-3.817.017a2.845,2.845,0,0,0-.285.017,4.189,4.189,0,0,1,.486,2.45v.285c0,1.557-.006,3.108-.011,4.665,0,2.7-.011,5.39-.017,8.085,0,.229.028.357.095.424a.5.5,0,0,0,.352.095h0Zm-2.5.19c-.162,0-.358-.011-.587-.017h-.017c-.374-.017-.749-.028-1.123-.045-.62-.022-1.268-.039-1.9-.084a.844.844,0,0,1-.637-.458c-1.9-4.938-3.811-9.96-5.661-14.82l-.307-.8a1,1,0,0,1-.045-.2.84.84,0,0,0-.022-.145l-.028-.173h.793l2.235.05c1.905.039,3.872.084,5.811.139A2.137,2.137,0,0,1,29.67,7.3V20c0,.692,0,1.038-.212,1.239a.943.943,0,0,1-.687.173ZM18.8,4.961a.432.432,0,0,0,.022.117l.307.8c1.85,4.86,3.761,9.882,5.661,14.82a.57.57,0,0,0,.386.268c.626.045,1.268.061,1.889.084.374.011.749.022,1.123.039h.017c.581.028.939.045,1.056-.073s.117-.458.117-1.027V7.3c0-1.468-.626-2.109-2.09-2.154-1.939-.056-3.906-.1-5.811-.139l-2.235-.05H18.8Zm22.9,11.333c-.553,0-1.09,0-1.62-.022-.229-.006-.441-.279-.531-.435a5.316,5.316,0,0,1-.279-.6c-.045-.117-.095-.229-.145-.34a2.629,2.629,0,0,0-2.38-1.624l-.436-.033c-.408-.033-.833-.067-1.246-.084a.609.609,0,0,1-.671-.709c.011-1.752.011-3.292,0-4.709a.689.689,0,0,1,.156-.5.638.638,0,0,1,.481-.151h1.978c1.118,0,2.269,0,3.409.017a.819.819,0,0,1,.637.469c.173.407.352.809.531,1.216A42.332,42.332,0,0,1,43.2,12.828a7.516,7.516,0,0,1,.235,2.215c0,.352.011.72.034,1.088l.011.156h-1.76ZM35.023,7.377a.372.372,0,0,0-.263.067.439.439,0,0,0-.067.29c.011,1.417.011,2.957,0,4.709,0,.307.089.4.386.413.425.017.849.05,1.263.084l.43.033a2.956,2.956,0,0,1,2.626,1.8c.056.117.1.24.151.352a5.335,5.335,0,0,0,.263.569c.095.162.235.285.285.285.766.022,1.548.022,2.369.017h.687c-.017-.324-.022-.636-.022-.949a7.48,7.48,0,0,0-.224-2.132,40.348,40.348,0,0,0-1.6-4.018c-.179-.407-.358-.809-.531-1.216a.612.612,0,0,0-.374-.29c-1.134-.017-2.285-.017-3.4-.017H35.018Z" transform="translate(-0.009 -0.934)" fill="#feffff"/>
            </g>
            <g id="Group_70124" data-name="Group 70124" transform="translate(7.644 13.141)">
              <path id="Path_14645" data-name="Path 14645" d="M25.411,25.16c.155.149.507.346.489.5a1.067,1.067,0,0,1-.447.781c-1.132.513-2.307.948-3.463,1.407-2.2.87-4.4,1.734-6.592,2.617-.441.179-.87.28-1.091-.244s.173-.763.608-.936c3.3-1.3,6.6-2.611,9.894-3.91.161-.066.322-.113.6-.2Z" transform="translate(-14.089 -24.981)" fill="#feffff"/>
              <path id="Path_14646" data-name="Path 14646" d="M14.727,30.642a.681.681,0,0,1-.668-.489.733.733,0,0,1-.024-.59,1.184,1.184,0,0,1,.721-.548q3.111-1.225,6.223-2.462c1.222-.483,2.45-.972,3.672-1.454.107-.042.215-.077.358-.125.072-.024.155-.054.25-.083l.089-.03.066.066c.042.036.1.083.161.131.2.149.393.3.376.495a1.208,1.208,0,0,1-.536.906c-.864.387-1.758.739-2.629,1.079-.28.107-.566.221-.846.334-.668.262-1.335.525-2,.793-1.508.6-3.064,1.21-4.59,1.824a1.817,1.817,0,0,1-.626.155Zm10.544-5.424c-.06.018-.119.042-.173.054a3.466,3.466,0,0,0-.334.119c-1.222.483-2.45.966-3.672,1.454q-3.111,1.234-6.223,2.462c-.232.089-.477.209-.548.381a.441.441,0,0,0,.03.352c.137.334.352.376.888.161,1.526-.614,3.088-1.228,4.6-1.824.668-.262,1.335-.525,2-.793.28-.113.566-.221.846-.334.864-.334,1.758-.685,2.611-1.073a.968.968,0,0,0,.358-.644,1.2,1.2,0,0,0-.25-.226c-.042-.03-.083-.06-.119-.089Z" transform="translate(-13.984 -24.86)" fill="#feffff"/>
            </g>
            <g id="Group_70125" data-name="Group 70125" transform="translate(6.741 9.372)">
              <path id="Path_14647" data-name="Path 14647" d="M12.089,23.711c-.161-.137-.489-.286-.513-.477a.852.852,0,0,1,.316-.727,12.242,12.242,0,0,1,1.6-.679q4.283-1.7,8.571-3.391l.238-.089a.589.589,0,0,1,.864.3.612.612,0,0,1-.4.882L18.812,21.1l-5.99,2.378c-.2.077-.405.137-.727.238Z" transform="translate(-11.421 -18.107)" fill="#feffff"/>
              <path id="Path_14648" data-name="Path 14648" d="M11.957,23.781l-.066-.06c-.042-.036-.1-.072-.155-.113-.179-.119-.381-.256-.411-.459a1.02,1.02,0,0,1,.387-.888,8.539,8.539,0,0,1,1.222-.536c.131-.048.268-.1.4-.155q3.326-1.314,6.658-2.635l1.913-.757.1-.036.137-.054a.865.865,0,0,1,.626-.054.738.738,0,0,1,.441.435.81.81,0,0,1,.03.632.878.878,0,0,1-.513.459c-1.2.483-2.414.96-3.624,1.442l-.972.387q-2.673,1.064-5.352,2.122c-.137.054-.268.1-.441.149l-.292.1-.083.03Zm10.586-5.466a.706.706,0,0,0-.274.066,1.552,1.552,0,0,1-.149.06c-.03.012-.06.024-.1.036l-1.913.757q-3.326,1.314-6.658,2.635c-.131.054-.268.1-.405.155a7.95,7.95,0,0,0-1.174.513.737.737,0,0,0-.238.572c.012.066.173.179.274.244.042.03.077.054.113.077.077-.024.149-.048.221-.072.167-.054.3-.1.423-.143q2.682-1.055,5.352-2.122l.972-.387c1.21-.477,2.414-.96,3.624-1.442a.577.577,0,0,0,.34-.286.475.475,0,0,0-.03-.387.429.429,0,0,0-.256-.262.4.4,0,0,0-.125-.018Z" transform="translate(-11.319 -17.998)" fill="#feffff"/>
            </g>
            <g id="Group_70126" data-name="Group 70126" transform="translate(9.321 17.012)">
              <path id="Path_14649" data-name="Path 14649" d="M17.931,37.293s-.042.137-.161.495c-.226-.376-.519-.65-.465-.817a1.253,1.253,0,0,1,.614-.7c1.776-.751,3.57-1.454,5.364-2.17,1.478-.59,2.956-1.174,4.429-1.77.441-.179.876-.262,1.085.28.2.513-.185.727-.59.888q-4.372,1.734-8.738,3.469c-.334.131-.656.322-1,.429-.137.042-.328-.06-.536-.107Z" transform="translate(-17.148 -32.044)" fill="#feffff"/>
              <path id="Path_14650" data-name="Path 14650" d="M17.716,38.063l-.179-.292c-.077-.125-.161-.238-.232-.34-.173-.232-.3-.417-.244-.6a1.414,1.414,0,0,1,.7-.8c1.383-.584,2.8-1.144,4.16-1.693.4-.161.8-.322,1.2-.477.56-.226,1.127-.447,1.687-.674q1.377-.545,2.742-1.1A1.164,1.164,0,0,1,28.445,32a.775.775,0,0,1,.4.459c.274.715-.393.978-.679,1.091q-4.372,1.734-8.738,3.469-.2.08-.393.179a4.3,4.3,0,0,1-.614.256.735.735,0,0,1-.435-.048c-.018,0-.03-.012-.048-.018-.024.077-.066.2-.113.352l-.107.328Zm10.449-5.805a1.347,1.347,0,0,0-.489.125c-.912.37-1.83.733-2.742,1.1-.56.227-1.127.447-1.687.674l-1.2.483c-1.365.542-2.778,1.109-4.154,1.687a1.093,1.093,0,0,0-.525.6,1.306,1.306,0,0,0,.2.322.854.854,0,0,0,.066.089.986.986,0,0,1,.066-.2l.048-.125.131.03c.077.018.149.042.215.06a.541.541,0,0,0,.244.048,5.082,5.082,0,0,0,.572-.238,4.3,4.3,0,0,1,.411-.185q4.372-1.734,8.738-3.469c.5-.2.626-.37.5-.685a.453.453,0,0,0-.232-.28.353.353,0,0,0-.161-.03Z" transform="translate(-17.046 -31.943)" fill="#feffff"/>
            </g>
            <g id="Group_70127" data-name="Group 70127" transform="translate(6.557 5.673)">
              <path id="Path_14651" data-name="Path 14651" d="M11.721,15.489c-.137-.137-.447-.31-.441-.471a1.034,1.034,0,0,1,.364-.775c.662-.346,1.383-.584,2.08-.864,1.478-.584,2.956-1.162,4.429-1.752.435-.173.858-.274,1.085.268.215.525-.173.733-.566.894-2.134.852-4.268,1.693-6.4,2.539-.137.054-.286.083-.542.161Z" transform="translate(-11.119 -11.326)" fill="#feffff"/>
              <path id="Path_14652" data-name="Path 14652" d="M11.564,15.552l-.066-.066a1.075,1.075,0,0,0-.143-.119c-.167-.131-.352-.28-.346-.471a1.167,1.167,0,0,1,.447-.906,14.577,14.577,0,0,1,1.55-.662c.179-.072.364-.137.542-.209.566-.221,1.127-.447,1.693-.668q1.368-.536,2.736-1.085c.316-.125.978-.393,1.287.352a.729.729,0,0,1,.024.578,1.131,1.131,0,0,1-.679.519c-2.182.87-4.363,1.729-6.4,2.539-.1.036-.2.066-.322.1-.066.018-.143.042-.232.066l-.089.024ZM18.6,11.528a1.324,1.324,0,0,0-.495.131q-1.368.545-2.736,1.085c-.566.221-1.127.447-1.693.668-.179.072-.364.143-.548.209a14.162,14.162,0,0,0-1.52.644.906.906,0,0,0-.28.644,1,1,0,0,0,.226.209,1.146,1.146,0,0,0,.1.077c.06-.018.107-.03.155-.042.119-.036.209-.06.292-.089,2.044-.8,4.22-1.669,6.4-2.539.226-.089.441-.191.507-.352a.424.424,0,0,0-.03-.334C18.89,11.63,18.782,11.528,18.6,11.528Z" transform="translate(-11.01 -11.216)" fill="#feffff"/>
            </g>
          </g>
        </g>
        <path id="Path_14654" data-name="Path 14654" d="M-3691.753,5065.314l-1.921,2.041" transform="translate(3732 -5041.132)" fill="none" stroke="#feffff" stroke-width="1"/>
      </g>
    </g>
  </g>
</svg>
