<svg xmlns="http://www.w3.org/2000/svg" width="80" height="80" viewBox="0 0 80 80">
  <g id="Group_70131" data-name="Group 70131" transform="translate(-262 -848)">
    <circle id="Ellipse_2" data-name="Ellipse 2" cx="40" cy="40" r="40" transform="translate(262 848)" fill="#498bdc"/>
    <g id="Layer_1" data-name="Layer 1" transform="translate(279.166 868.209)">
      <g id="Group_70122" data-name="Group 70122" transform="translate(0 0)">
        <path id="Path_14633" data-name="Path 14633" d="M41.231,36.806H11.3A1.485,1.485,0,0,1,9.92,35.231V12.525A1.485,1.485,0,0,1,11.3,10.95H41.231a1.485,1.485,0,0,1,1.381,1.575V35.231A1.485,1.485,0,0,1,41.231,36.806Z" transform="translate(-3.272 -3.611)" fill="none"/>
        <rect id="Rectangle_7716" data-name="Rectangle 7716" width="20.2" height="22.418" transform="translate(12.968 1.984)" fill="none"/>
        <rect id="Rectangle_7717" data-name="Rectangle 7717" width="43.361" height="5.797" rx="2.48" transform="translate(1.153 32.142)" fill="none"/>
        <g id="sBk4FV.tif">
          <g id="Group_70121" data-name="Group 70121">
            <g id="Group_70117" data-name="Group 70117">
              <path id="Path_14634" data-name="Path 14634" d="M41.082,39.514H4.69c-.127-.027-.255-.054-.389-.074A4.445,4.445,0,0,1,.4,36.365C.3,36.09.24,35.8.16,35.52V31.794C.669,31,1.514,31.459,2.2,31.258V8.418A4.479,4.479,0,0,1,6.849,3.78H11.64c.154,0,.308-.013.489-.027,0-.891.007-1.729,0-2.574,0-.409.034-.791.469-.952S13.316.315,13.6.61c.422.429.865.824,1.273,1.206.362-.342.744-.69,1.106-1.059.784-.791.992-.791,1.763-.013.369.375.764.731,1.126,1.072.422-.409.878-.831,1.32-1.267.516-.509.871-.509,1.394.013.436.436.878.858,1.28,1.247.442-.416.891-.818,1.32-1.24.543-.529.878-.529,1.421.007.442.429.9.838,1.273,1.186.449-.409.925-.831,1.387-1.267a.788.788,0,0,1,1.267,0c.469.449.945.891,1.367,1.3.409-.382.865-.784,1.293-1.213.288-.295.583-.523,1.012-.342.409.168.449.536.442.925-.013.851,0,1.709,0,2.614h.523c1.582,0,3.163-.007,4.745,0a5.027,5.027,0,0,1,1.186.127A4.431,4.431,0,0,1,43.575,8.4V31.318c.429,0,.811-.013,1.193,0,.576.02.844.288.844.851.007.978.02,1.95,0,2.929a4.488,4.488,0,0,1-3.472,4.236c-.342.08-.7.121-1.045.174ZM38.341,9.275H33.663V23.986c.69,0,1.354-.013,2.017,0a.734.734,0,0,1,.744.724.748.748,0,0,1-.684.744,2.63,2.63,0,0,1-.4.013H10.407a2.024,2.024,0,0,1-.529-.047.67.67,0,0,1-.536-.717.7.7,0,0,1,.617-.71,2.8,2.8,0,0,1,.529-.013H12.1V9.275H7.425V31.311h.556c2.828,0,5.65.034,8.478-.02a2.281,2.281,0,0,1,2.057.911A2.972,2.972,0,0,0,21,33.355h3.773a3.129,3.129,0,0,0,2.433-1.079,5.391,5.391,0,0,0,.416-.462,1.3,1.3,0,0,1,1.159-.509c3,.013,6,.007,9.007.007h.556V9.282ZM13.624,23.953H32.115V2.741c-.255.275-.416.462-.583.637a.774.774,0,0,1-1.26.007c-.469-.449-.938-.9-1.394-1.34-.4.382-.824.791-1.24,1.206-.583.59-.911.6-1.488.013L24.944,2.037c-.476.442-.911.838-1.334,1.253-.563.556-.9.563-1.454.007-.429-.429-.878-.831-1.28-1.22-.429.4-.891.838-1.347,1.28A.8.8,0,0,1,18.2,3.351c-.449-.442-.918-.865-1.36-1.287-.382.369-.8.764-1.206,1.173-.623.623-.925.623-1.555-.013-.127-.127-.255-.248-.456-.442V23.959ZM1.688,32.786a22.016,22.016,0,0,0,.02,2.667,3.019,3.019,0,0,0,3.2,2.54H41.156a2.924,2.924,0,0,0,2.862-2.386,18.694,18.694,0,0,0,.027-2.815h-.5q-7.077,0-14.154-.013a1.273,1.273,0,0,0-1.066.456,4.492,4.492,0,0,1-3.646,1.6c-1.126-.02-2.252-.034-3.371,0a4.734,4.734,0,0,1-3.988-1.742.862.862,0,0,0-.724-.315q-7.208.01-14.423,0H1.695ZM12.1,7.761V5.268H6.916A2.983,2.983,0,0,0,3.692,8.5v22.3c0,.154.013.315.02.462h2.2V9.1c0-1.26.08-1.34,1.367-1.34H12.1Zm27.753,23.5H42.06c.007-.107.013-.168.013-.228V8.29a2.945,2.945,0,0,0-3.036-3.023c-1.521-.013-3.049,0-4.571,0h-.8V7.761h5.12c.871,0,1.059.194,1.059,1.072V31.264Z" transform="translate(-0.053 -0.054)" fill="#fff"/>
              <path id="Path_14635" data-name="Path 14635" d="M41.036,39.568H4.618c-.04-.007-.08-.02-.127-.027-.087-.02-.174-.034-.255-.047A4.572,4.572,0,0,1,.248,36.351c-.074-.194-.121-.4-.174-.59-.02-.087-.047-.181-.074-.268V31.707l.02-.027A1.357,1.357,0,0,1,1.4,31.144a2.887,2.887,0,0,0,.643-.027V8.357A4.6,4.6,0,0,1,6.8,3.612h4.792c.1,0,.208-.007.315-.013h.067V1.126c0-.409.034-.865.543-1.052a1.026,1.026,0,0,1,1.119.4c.295.3.6.583.9.858.1.094.2.181.295.275.087-.08.174-.168.268-.248.255-.235.516-.483.764-.737.4-.409.677-.623.965-.623h0c.288,0,.556.214.952.617.255.261.523.509.777.751.087.087.181.168.268.248l.322-.3c.3-.288.617-.583.925-.885.563-.556.978-.55,1.541.013.3.3.61.6.9.885.1.1.2.194.295.288.114-.1.221-.208.335-.308.3-.281.617-.57.911-.858.583-.576.978-.57,1.575.007.308.3.637.6.925.865l.275.255c.107-.1.221-.2.335-.3.322-.288.65-.59.972-.891a.886.886,0,0,1,1.414,0c.328.315.657.63.978.932l.315.295c.1-.094.2-.181.3-.275.3-.275.617-.563.911-.865A.97.97,0,0,1,33.181.1c.483.2.516.637.509,1.025-.007.6,0,1.2,0,1.823v.677H35.4c1.133,0,2.305,0,3.451.007a5.33,5.33,0,0,1,1.206.127,4.551,4.551,0,0,1,3.559,4.6V31.171h1.092a.861.861,0,0,1,.952.958v.4c.007.831.013,1.689,0,2.533A4.592,4.592,0,0,1,42.1,39.4c-.241.054-.483.094-.724.127-.107.013-.221.034-.328.054h-.007ZM4.644,39.354H41.022c.107-.02.214-.034.322-.047.235-.034.476-.067.7-.121a4.378,4.378,0,0,0,3.391-4.135c.02-.844.013-1.7.007-2.527v-.4c0-.5-.228-.731-.744-.744-.261-.007-.516-.007-.791,0h-.5V8.357a4.343,4.343,0,0,0-3.391-4.39,4.97,4.97,0,0,0-1.159-.121c-1.153-.013-2.319-.007-3.451-.007H33.483V1.119c0-.422-.054-.69-.375-.824-.342-.141-.583.013-.891.322s-.617.6-.925.871c-.127.114-.248.228-.369.342l-.074.067-.074-.067-.389-.369c-.322-.3-.65-.617-.978-.932a.69.69,0,0,0-1.119,0c-.322.308-.657.61-.978.9L26.9,1.8l-.074.067L26.754,1.8c-.107-.1-.228-.208-.349-.322-.288-.261-.617-.563-.925-.865-.5-.5-.777-.5-1.273-.007-.3.295-.61.583-.918.865-.134.127-.275.255-.409.382l-.074.074-.074-.074c-.121-.114-.241-.235-.369-.355-.295-.288-.6-.583-.911-.891-.476-.476-.764-.476-1.24-.013-.308.3-.623.6-.925.891-.134.127-.261.255-.4.375l-.074.074-.074-.074L18.4,1.535c-.261-.241-.529-.5-.784-.757-.342-.348-.583-.55-.8-.55h0c-.214,0-.462.208-.811.563-.255.255-.516.5-.771.737-.114.107-.228.214-.335.322l-.074.074-.074-.067c-.121-.114-.241-.228-.369-.342-.3-.281-.61-.563-.9-.865C13.2.369,12.961.161,12.593.295c-.348.127-.409.4-.4.851.007.6.007,1.18,0,1.8V3.82h-.1a1.532,1.532,0,0,1-.168.013c-.114.007-.221.013-.328.013H6.8A4.583,4.583,0,0,0,3.539,5.12a4.556,4.556,0,0,0-1.28,3.25V31.291l-.074.02a2.57,2.57,0,0,1-.784.06c-.469-.013-.878-.027-1.18.409V35.46c.027.087.047.174.067.255a5.433,5.433,0,0,0,.168.563,4.37,4.37,0,0,0,3.813,3.009c.094.013.188.027.275.047l.114.02Zm18.2-1.307H4.852a3.126,3.126,0,0,1-3.3-2.634A11.664,11.664,0,0,1,1.515,33.6c.007-.281.02-.57.02-.858v-.107H16.54a.966.966,0,0,1,.8.348,4.612,4.612,0,0,0,3.9,1.7c1.106-.04,2.185-.027,3.378,0a4.431,4.431,0,0,0,3.565-1.562,1.361,1.361,0,0,1,1.139-.5h.007c3.693.013,7.453.013,11.085.013h3.673v.107c0,.3.013.6.02.9a9.769,9.769,0,0,1-.054,1.937A3.044,3.044,0,0,1,41.1,38.06H22.84Zm-21.1-5.207c0,.255-.007.509-.013.757a12.056,12.056,0,0,0,.034,1.783,2.915,2.915,0,0,0,3.09,2.446H41.1a2.825,2.825,0,0,0,2.761-2.3,9.8,9.8,0,0,0,.047-1.89c-.007-.261-.02-.529-.02-.8H40.426c-3.632,0-7.392,0-11.092-.013h-.007a1.15,1.15,0,0,0-.978.422,4.608,4.608,0,0,1-3.733,1.635c-1.193-.02-2.265-.034-3.364,0a4.886,4.886,0,0,1-4.075-1.776.738.738,0,0,0-.643-.275h0c-3.907.007-7.881.007-11.722,0H1.742Zm19.194.57a3.038,3.038,0,0,1-2.553-1.193,2.148,2.148,0,0,0-1.97-.871c-2.037.04-4.115.034-6.119.027H7.272V9.115h4.892V24.04H10.3a3.267,3.267,0,0,0-.369.013.591.591,0,0,0-.529.6.567.567,0,0,0,.456.61,2.013,2.013,0,0,0,.5.04H35.386a2.123,2.123,0,0,0,.295-.013.645.645,0,0,0,.59-.637.629.629,0,0,0-.637-.623c-.462-.013-.918-.007-1.4,0H33.51V9.115H38.4v22.25H35.487c-2.212,0-4.5,0-6.756-.007a1.186,1.186,0,0,0-1.072.462,2.435,2.435,0,0,1-.275.308c-.047.054-.1.1-.147.154A3.248,3.248,0,0,1,24.73,33.4H20.943ZM16.493,31.13a2.342,2.342,0,0,1,2.057.952,2.838,2.838,0,0,0,2.386,1.106h3.787a3.008,3.008,0,0,0,2.346-1.045c.047-.054.1-.107.154-.161a2.531,2.531,0,0,0,.255-.288,1.379,1.379,0,0,1,1.233-.55h.013c2.252.013,4.544.007,6.756.007h2.7V9.336H33.717v14.5h1.917a.848.848,0,0,1,.851.831.867.867,0,0,1-.777.858,2.691,2.691,0,0,1-.328.013H10.354a2.2,2.2,0,0,1-.556-.047.771.771,0,0,1-.617-.824.809.809,0,0,1,.7-.811,1.746,1.746,0,0,1,.416-.02h1.642V9.336H7.479V31.157h2.808c2,0,4.075.013,6.112-.027h.087Zm-10.522.194H3.559v-.1c-.007-.047-.007-.094-.013-.141,0-.107-.013-.214-.013-.322V8.451A3.1,3.1,0,0,1,6.863,5.107h5.288V7.814H7.231c-1.22,0-1.26.034-1.26,1.233ZM3.76,31.11h2V9.048c0-1.327.121-1.448,1.474-1.448h4.7V5.321H6.863a2.872,2.872,0,0,0-3.116,3.13V30.762a2.53,2.53,0,0,0,.013.315v.04Zm38.348.208H39.689V8.773c0-.818-.141-.958-.952-.965H33.5V5.1h5.469a3.05,3.05,0,0,1,3.143,3.13c.007,5.7,0,11.494,0,17.1v5.656a.992.992,0,0,1-.007.134.579.579,0,0,1-.007.1v.1ZM39.9,31.1h2c0-.047.007-.08.007-.114V8.237a2.843,2.843,0,0,0-2.929-2.915c-1.059-.007-2.138,0-3.177,0H33.724V7.6h5.013c.925,0,1.166.241,1.166,1.18V31.1Zm-7.727-7.091H13.464V2.466l.369.362c.1.1.188.181.268.268.315.315.516.442.7.442h0c.188,0,.389-.127.69-.436.281-.281.57-.563.851-.831.121-.114.241-.228.355-.342l.074-.074.074.074c.134.127.275.255.409.382.315.295.637.6.952.9.442.436.737.436,1.18.007.322-.308.643-.617.952-.9.134-.127.268-.248.4-.375l.074-.074.074.067.375.355c.295.281.6.57.9.865.509.509.777.509,1.3-.007.288-.288.583-.563.9-.851.141-.134.288-.268.436-.409l.074-.074.416.422c.275.281.57.583.865.878.275.281.469.4.657.4h0c.188,0,.389-.121.677-.416s.583-.576.871-.851c.127-.121.248-.241.369-.355l.074-.074.074.074.422.4c.322.308.65.617.972.932a.673.673,0,0,0,1.113-.007c.114-.114.214-.228.349-.375l.235-.255.188-.2V23.986ZM13.685,23.8H31.961V2.969s-.027.034-.04.047c-.134.147-.241.268-.362.389a.879.879,0,0,1-1.414.007c-.322-.315-.65-.623-.972-.932-.114-.114-.235-.221-.348-.335-.094.094-.194.188-.295.288-.281.275-.576.556-.865.844-.335.335-.583.483-.831.476a1.206,1.206,0,0,1-.811-.462c-.295-.3-.59-.6-.865-.878l-.268-.275c-.121.114-.241.228-.362.335-.315.288-.61.563-.891.844-.6.6-1.012.6-1.608.007-.295-.295-.6-.583-.9-.858-.1-.094-.208-.194-.3-.288l-.322.3c-.308.295-.63.6-.952.9a.905.905,0,0,1-1.481-.007c-.315-.308-.637-.61-.952-.9-.114-.107-.228-.208-.335-.315-.094.087-.188.181-.281.268-.275.268-.563.543-.851.824-.355.355-.6.5-.844.5h0c-.248,0-.5-.147-.858-.509-.08-.08-.168-.161-.268-.261h0V23.792Z" transform="translate(0 0)" fill="#fff"/>
            </g>
            <g id="Group_70118" data-name="Group 70118" transform="translate(15.371 20.213)">
              <path id="Path_14636" data-name="Path 14636" d="M30.43,31.808c-2.125,0-4.256,0-6.38-.007a1.26,1.26,0,0,1-.663-.174.706.706,0,0,1,.194-1.24,1.754,1.754,0,0,1,.563-.067H36.951a.774.774,0,0,1,.838.777.764.764,0,0,1-.851.71H30.424Z" transform="translate(-22.988 -30.213)" fill="#fff"/>
              <path id="Path_14637" data-name="Path 14637" d="M35.069,31.862H28.957c-1.629,0-3.3,0-4.959-.007a1.344,1.344,0,0,1-.724-.194.767.767,0,0,1-.328-.757.833.833,0,0,1,.55-.67,1.841,1.841,0,0,1,.6-.074H36.912a.857.857,0,1,1-.013,1.7H35.076Zm-2.252-.214H36.9a.66.66,0,0,0,.744-.61c.013-.375-.281-.643-.737-.663H24.1a1.533,1.533,0,0,0-.529.06.611.611,0,0,0-.409.5.569.569,0,0,0,.241.55,1.112,1.112,0,0,0,.6.154c1.655.007,3.331.007,4.959.007h3.86Z" transform="translate(-22.936 -30.16)" fill="#fff"/>
            </g>
            <g id="Group_70119" data-name="Group 70119" transform="translate(18.604 17.251)">
              <path id="Path_14638" data-name="Path 14638" d="M32.035,25.9h3.23c.55,0,.871.261.885.71.013.469-.308.764-.878.764H28.8c-.57,0-.9-.295-.885-.757s.328-.71.878-.717h3.23Z" transform="translate(-27.812 -25.793)" fill="#fff"/>
              <path id="Path_14639" data-name="Path 14639" d="M31.975,27.436H28.752a1.046,1.046,0,0,1-.777-.275.789.789,0,0,1-.214-.6c.013-.509.382-.818.985-.824h6.467c.6,0,.978.308.992.818a.815.815,0,0,1-.214.6,1.04,1.04,0,0,1-.771.275Zm-1.87-1.481H28.752c-.281,0-.757.08-.771.61a.615.615,0,0,0,.154.442.862.862,0,0,0,.623.208h6.467a.856.856,0,0,0,.617-.208A.588.588,0,0,0,36,26.564c-.013-.523-.5-.6-.777-.6H30.105Z" transform="translate(-27.759 -25.74)" fill="#fff"/>
            </g>
            <g id="Group_70120" data-name="Group 70120" transform="translate(18.792 5.207)">
              <path id="Path_14640" data-name="Path 14640" d="M34.238,10.637h1.508l-.389,1.474H34.218a3.5,3.5,0,0,1-.228.777,2.752,2.752,0,0,1-.938,1.139,4.4,4.4,0,0,1-1.662.677l-.087.034,3.244,3.974v.094h-2.5l-3.626-4.316V13.164h1.8a2.084,2.084,0,0,0,1.005-.221,1.453,1.453,0,0,0,.6-.6,1.561,1.561,0,0,0,.094-.221H28.24l.382-1.474h3.23a1.693,1.693,0,0,0-.248-.369,1.8,1.8,0,0,0-1.387-.462H28.24l.436-1.863h7.077l-.4,1.495H33.8l.04.06a3.179,3.179,0,0,1,.409,1.133Z" transform="translate(-28.106 -7.829)" fill="#fff"/>
              <path id="Path_14641" data-name="Path 14641" d="M34.588,18.855H31.934l-3.686-4.39V12.991h1.9a2.039,2.039,0,0,0,.952-.208,1.341,1.341,0,0,0,.563-.563.623.623,0,0,0,.034-.067H28.04l.436-1.689h3.13a1.3,1.3,0,0,0-.147-.188,1.72,1.72,0,0,0-1.307-.429H28.04l.489-2.078h7.305l-.456,1.709H33.924a3.3,3.3,0,0,1,.348.985h1.555l-.442,1.689H34.253a3.824,3.824,0,0,1-.221.71,2.912,2.912,0,0,1-.972,1.186,4.387,4.387,0,0,1-1.629.677l3.17,3.88v.241Zm-2.553-.214h2.3l-3.277-4.008.241-.087a4.413,4.413,0,0,0,1.622-.663,2.722,2.722,0,0,0,.9-1.092,3.261,3.261,0,0,0,.221-.751l.013-.087H35.2l.328-1.26H34.078l-.013-.087a3.072,3.072,0,0,0-.4-1.1l-.013-.02a.193.193,0,0,0-.027-.04l-.114-.168H35.2L35.546,8H28.7l-.382,1.649h1.836a1.9,1.9,0,0,1,1.468.5,1.643,1.643,0,0,1,.268.4l.074.154H28.643l-.328,1.26h3.693l-.047.141a1.764,1.764,0,0,1-.1.235,1.6,1.6,0,0,1-.65.65,2.2,2.2,0,0,1-1.052.235H28.469V14.4l3.565,4.249Z" transform="translate(-28.04 -7.77)" fill="#fff"/>
            </g>
          </g>
        </g>
      </g>
    </g>
  </g>
</svg>
