<svg xmlns="http://www.w3.org/2000/svg" width="80" height="80" viewBox="0 0 80 80">
  <g id="Group_70103" data-name="Group 70103" transform="translate(-262 -848)">
    <circle id="Ellipse_2" data-name="Ellipse 2" cx="40" cy="40" r="40" transform="translate(262 848)" fill="#498bdc"/>
    <g id="estore" transform="translate(280.665 868)">
      <path id="Path" d="M41.629,0H1.8A2.043,2.043,0,0,0,0,2.222V33.333C0,37.009,2.422,40,5.4,40H38.03c2.977,0,5.4-2.991,5.4-6.667V2.222A2.043,2.043,0,0,0,41.629,0Z" transform="translate(0 0)" fill="none" stroke="#fff" stroke-linecap="round" stroke-width="1.5"/>
      <path id="Path-2" data-name="Path" d="M26.039,2.714a2.583,2.583,0,0,1,1.8.721,2.484,2.484,0,0,1,.767,1.8h0V6.516a8.781,8.781,0,0,1-2.722,6.338,9.429,9.429,0,0,1-13.017,0,8.781,8.781,0,0,1-2.722-6.338h0V5.23a2.484,2.484,0,0,1,.767-1.8,2.6,2.6,0,0,1,3.595,0,2.484,2.484,0,0,1,.767,1.8h0V6.516a3.811,3.811,0,0,0,1.187,2.749,4.235,4.235,0,0,0,5.831,0,3.811,3.811,0,0,0,1.187-2.749h0V5.23a2.484,2.484,0,0,1,.767-1.8A2.583,2.583,0,0,1,26.039,2.714Z" transform="translate(2.343 0.626)" fill="none" stroke="#fff" stroke-linecap="round" stroke-width="1.5"/>
      <path id="Shape" d="M16.582,12.818a6.293,6.293,0,0,1-6.155-6.4L10.417.988h0A.942.942,0,1,1,12.3.9q0,.046,0,.093l.011.678.114.046h0A5.986,5.986,0,0,1,16.593.005a6.3,6.3,0,0,1,6.144,6.413,6.289,6.289,0,0,1-6.155,6.4Zm.009-1.951a4.378,4.378,0,0,0,4.28-4.457,4.37,4.37,0,0,0-4.28-4.449,4.374,4.374,0,0,0-4.28,4.457,4.368,4.368,0,0,0,4.277,4.45Z" transform="translate(17.264 23.796)" fill="#fff"/>
      <path id="Shape-2" data-name="Shape" d="M6.155,12.817A6.289,6.289,0,0,1,0,6.417,6.3,6.3,0,0,1,6.155,0a6.147,6.147,0,0,1,5.631,3.832h0a6.6,6.6,0,0,1-1.109,6.911l.048.114.647.01h0a.982.982,0,0,1,0,1.962h0Zm0-10.857A4.377,4.377,0,0,0,1.881,6.405h0A4.443,4.443,0,0,0,4.52,10.52h0a4.1,4.1,0,0,0,1.64.343h0A4.175,4.175,0,0,0,9.189,9.557h0a4.571,4.571,0,0,0,.926-4.851A4.266,4.266,0,0,0,6.161,1.963Z" transform="translate(14.856 23.797)" fill="#fff"/>
    </g>
  </g>
</svg>
