<svg xmlns="http://www.w3.org/2000/svg" xmlns:xlink="http://www.w3.org/1999/xlink" width="80" height="80" viewBox="0 0 80 80">
  <defs>
    <clipPath id="clip-path">
      <path id="path1488" d="M0-682.665H40v40H0Z" transform="translate(0 682.665)" fill="#fff"/>
    </clipPath>
  </defs>
  <g id="Group_70115" data-name="Group 70115" transform="translate(8037 -468)">
    <path id="Path_14632" data-name="Path 14632" d="M40,0A40,40,0,1,1,0,40,40,40,0,0,1,40,0Z" transform="translate(-8037 468)" fill="#498bdc"/>
    <g id="report" transform="translate(-8017 488)">
      <g id="g1486" clip-path="url(#clip-path)">
        <g id="Group_69003" data-name="Group 69003" transform="translate(0.781 0.781)">
          <path id="path1494" d="M-12.552,0a.782.782,0,0,1,.781.781.782.782,0,0,1-.781.781.782.782,0,0,1-.781-.781A.782.782,0,0,1-12.552,0" transform="translate(31.303 11.719)" fill="#fff"/>
          <path id="path1498" d="M-12.552,0a.782.782,0,0,1,.781.781.782.782,0,0,1-.781.781.782.782,0,0,1-.781-.781A.782.782,0,0,1-12.552,0" transform="translate(31.303 14.844)" fill="#fff"/>
          <path id="path1502" d="M-125.521-125.521h-7.812v-7.812" transform="translate(163.958 133.333)" fill="none" stroke="#fff" stroke-linecap="round" stroke-linejoin="round" stroke-width="2"/>
          <path id="path1506" d="M0,0H8.281" transform="translate(19.219 4.688)" fill="none" stroke="#fff" stroke-linecap="round" stroke-linejoin="round" stroke-width="2"/>
          <path id="path1510" d="M0,0H8.281" transform="translate(19.219 7.813)" fill="none" stroke="#fff" stroke-linecap="round" stroke-linejoin="round" stroke-width="2"/>
          <path id="path1514" d="M-251.041-125.521a7.815,7.815,0,0,1-6.25,7.656,7.857,7.857,0,0,1-1.562.156,7.812,7.812,0,0,1-7.812-7.812,7.812,7.812,0,0,1,7.813-7.812,7.857,7.857,0,0,1,1.563.156A7.815,7.815,0,0,1-251.041-125.521Z" transform="translate(266.666 138.021)" fill="none" stroke="#fff" stroke-linecap="round" stroke-linejoin="round" stroke-width="2"/>
          <path id="path1518" d="M-75.312-75.312A4.692,4.692,0,0,1-80-80" transform="translate(83.125 92.5)" fill="none" stroke="#fff" stroke-linecap="round" stroke-linejoin="round" stroke-width="2"/>
          <path id="path1522" d="M0,0V7.813H7.813" transform="translate(7.813 4.688)" fill="none" stroke="#fff" stroke-linecap="round" stroke-linejoin="round" stroke-width="2"/>
          <path id="path1526" d="M0-323.843v16.719a1.562,1.562,0,0,0,1.563,1.563H27.5a1.562,1.562,0,0,0,1.563-1.562v-29.062L21.25-344H1.563A1.562,1.562,0,0,0,0-342.437v3.281" transform="translate(9.375 343.999)" fill="none" stroke="#fff" stroke-linecap="round" stroke-linejoin="round" stroke-width="2"/>
          <path id="path1530" d="M-50.208-25.1a1.562,1.562,0,0,1-1.562,1.563A1.562,1.562,0,0,1-53.333-25.1a1.562,1.562,0,0,1,1.563-1.562,1.558,1.558,0,0,1,1.1.458A1.558,1.558,0,0,1-50.208-25.1Z" transform="translate(65.834 56.823)" fill="none" stroke="#fff" stroke-linecap="round" stroke-linejoin="round" stroke-width="2"/>
          <path id="path1534" d="M-7.356-42.853a1.558,1.558,0,0,1-.458-1.1A1.562,1.562,0,0,1-6.251-45.52a1.562,1.562,0,0,1,1.563,1.563,1.558,1.558,0,0,1-.458,1.1,1.558,1.558,0,0,1-1.1.458A1.558,1.558,0,0,1-7.356-42.853Z" transform="translate(26.25 69.426)" fill="none" stroke="#fff" stroke-linecap="round" stroke-linejoin="round" stroke-width="2"/>
          <path id="path1538" d="M-50.208-25.1a1.562,1.562,0,0,1-1.562,1.563A1.562,1.562,0,0,1-53.333-25.1a1.558,1.558,0,0,1,.458-1.1,1.558,1.558,0,0,1,1.1-.458A1.562,1.562,0,0,1-50.208-25.1Z" transform="translate(77.241 56.823)" fill="none" stroke="#fff" stroke-linecap="round" stroke-linejoin="round" stroke-width="2"/>
          <path id="path1542" d="M-50.208-25.1a1.562,1.562,0,0,1-1.562,1.563A1.562,1.562,0,0,1-53.333-25.1a1.562,1.562,0,0,1,1.563-1.562A1.562,1.562,0,0,1-50.208-25.1Z" transform="translate(85.286 47.448)" fill="none" stroke="#fff" stroke-linecap="round" stroke-linejoin="round" stroke-width="2"/>
          <path id="path1546" d="M0-64.919,3.728-68.96" transform="translate(15.167 95.533)" fill="none" stroke="#fff" stroke-linecap="round" stroke-linejoin="round" stroke-width="2"/>
          <path id="path1550" d="M0,0,3.259,4.041" transform="translate(21.104 26.574)" fill="none" stroke="#fff" stroke-linecap="round" stroke-linejoin="round" stroke-width="2"/>
          <path id="path1554" d="M0-108.851l6.313-6.775" transform="translate(26.336 139.271)" fill="none" stroke="#fff" stroke-linecap="round" stroke-linejoin="round" stroke-width="2"/>
          <path id="path1558" d="M0,0H11.875" transform="translate(21.875 12.5)" fill="none" stroke="#fff" stroke-linecap="round" stroke-linejoin="round" stroke-width="2"/>
          <path id="path1562" d="M0,0H11.875" transform="translate(21.875 15.625)" fill="none" stroke="#fff" stroke-linecap="round" stroke-linejoin="round" stroke-width="2"/>
        </g>
      </g>
    </g>
  </g>
</svg>
