<svg xmlns="http://www.w3.org/2000/svg" width="75" height="75" viewBox="0 0 75 75">
  <g id="Group_73404" data-name="Group 73404" transform="translate(-0.037 0.232)">
    <circle id="Ellipse_38" data-name="Ellipse 38" cx="37.5" cy="37.5" r="37.5" transform="translate(0.037 -0.232)" fill="#ffc3c3"/>
    <g id="_01" data-name="01" transform="translate(18.758 19.268)">
      <path id="Path_24392" data-name="Path 24392" d="M12.75,14.716a.75.75,0,0,1-.75.75H9a.75.75,0,0,1,0-1.5h3A.75.75,0,0,1,12.75,14.716ZM9,9.466h3a.75.75,0,0,0,0-1.5H9a.75.75,0,0,0,0,1.5Z" transform="translate(3.579 4.881)" fill="#363636" stroke="#ffc3c3" stroke-width="0.3"/>
      <path id="Path_24393" data-name="Path 24393" d="M34.029,3.219A7.763,7.763,0,0,0,28.592.958H8.994C4.072.958,1.25,3.78,1.25,8.7V33.155a2.848,2.848,0,0,0,4.565,2.282L8.6,33.35a.416.416,0,0,1,.544.039l2.709,2.724a2.859,2.859,0,0,0,4.049.008l2.739-2.737a.4.4,0,0,1,.522-.033l2.789,2.087a2.855,2.855,0,0,0,4.565-2.282V18.075h4.361A5.13,5.13,0,0,0,36.3,12.656V8.7a7.76,7.76,0,0,0-2.271-5.482ZM24.073,33.153a.4.4,0,0,1-.227.367.388.388,0,0,1-.425-.039L20.65,31.4a2.843,2.843,0,0,0-3.728.251l-2.739,2.739a.419.419,0,0,1-.293.119h0a.419.419,0,0,1-.293-.119l-2.709-2.719A2.876,2.876,0,0,0,7.132,31.4L4.343,33.486a.375.375,0,0,1-.421.042.4.4,0,0,1-.227-.373V8.7c0-3.616,1.684-5.3,5.3-5.3h15.57c-.029.055-.039.119-.065.176a4.3,4.3,0,0,0-.2.523c-.039.126-.086.245-.114.375a4.437,4.437,0,0,0-.108.9c0,.023-.008.042-.008.065V33.155Zm9.781-20.5a2.708,2.708,0,0,1-2.975,2.974H26.518V5.456A2.059,2.059,0,0,1,28.571,3.4h.01a5.29,5.29,0,0,1,5.274,5.3Zm-23.281.949a1.63,1.63,0,1,1-1.63-1.63A1.63,1.63,0,0,1,10.573,13.605Zm0,6.521a1.63,1.63,0,1,1-1.63-1.63A1.63,1.63,0,0,1,10.573,20.126Z" fill="#161717" stroke="#ffc3c3" stroke-width="1"/>
    </g>
  </g>
</svg>
