<svg xmlns="http://www.w3.org/2000/svg" width="80" height="80" viewBox="0 0 80 80">
  <g id="Group_69237" data-name="Group 69237" transform="translate(-100 -1609)">
    <circle id="Ellipse_40" data-name="Ellipse 40" cx="40" cy="40" r="40" transform="translate(100 1609)" fill="#d5e5ff"/>
    <g id="bank_and_brand_emi" data-name="bank and brand emi" transform="translate(-0.015 1508.205)">
      <g id="Group_68097" data-name="Group 68097" transform="translate(122.014 122.796)">
        <path id="Path_14028" data-name="Path 14028" d="M155.585,137.292c0,.615,0,1.192,0,1.769,0,.681-.1.791-.773.821-.061,0-.121.014-.2.024v10.943c.974.182.973.182.974,1.206,0,.442.005.884.01,1.326,0,.022.02.044.049.1.546,0,1.111,0,1.676,0,.6,0,.752.16.753.77q0,1.876,0,3.752c0,.622-.165.787-.785.787H122.88c-.723,0-.861-.138-.861-.862q0-1.819,0-3.638c0-.664.141-.808.791-.809.553,0,1.1,0,1.7,0v-1.77c0-.679.1-.786.776-.82.06,0,.121-.016.2-.026V139.928c-.974-.17-.974-.17-.974-1.169v-1.466c-.633,0-1.224,0-1.815,0-.484,0-.67-.181-.673-.657q-.009-1.118,0-2.236c0-.457.191-.645.643-.66.236-.008.473,0,.724,0V132.36c-.265,0-.5,0-.742,0-.429-.009-.62-.193-.625-.629-.008-.682.008-1.365-.006-2.046a.678.678,0,0,1,.526-.724c1.974-.7,3.944-1.4,5.916-2.107q5.613-2,11.229-4a1.162,1.162,0,0,1,.72-.006q8.576,3.04,17.144,6.1a.7.7,0,0,1,.528.764c-.016.644,0,1.288-.005,1.932,0,.532-.176.7-.7.708-.214,0-.427,0-.667,0v1.379c.263,0,.513-.01.761,0a.552.552,0,0,1,.6.621q.014,1.156,0,2.312c-.005.431-.2.615-.635.619C156.834,137.3,156.231,137.292,155.585,137.292Zm-23.648,16.167h16.22v-1.612c0-.855.04-.9.871-.959a.329.329,0,0,0,.1-.04V139.917c-.967-.125-.967-.125-.967-1.1v-1.5h-16.22v1.41c0,1.026,0,1.026-.975,1.205v10.94c.078.011.138.023.2.026.674.033.776.139.777.818C131.937,152.291,131.937,152.868,131.937,153.459Zm25.076-22.184c0-.333-.02-.648.006-.959a.474.474,0,0,0-.386-.566q-8.127-2.886-16.248-5.787a1.1,1.1,0,0,0-.681.006q-5.083,1.793-10.156,3.616-3.082,1.1-6.162,2.207c-.119.043-.284.168-.292.267-.034.4-.014.8-.014,1.216Zm-.02,23.306H123.106v3.127h33.887Zm0-19.761H123.1v1.389h33.89ZM124.5,133.7h31.092v-1.325H124.5C124.5,132.82,124.5,133.244,124.5,133.7Zm5.351,17.175V139.911h-3.26v10.968Zm23.649,0V139.911H150.24v10.968ZM125.587,138.79h5.257v-1.475h-5.257Zm28.921-1.466h-5.27V138.8h5.27Zm-28.916,14.651v1.485h5.259v-1.485Zm23.643,1.478H154.5v-1.472h-5.271Z" transform="translate(-122.014 -122.796)" fill="#5a5a5a" stroke="#5a5a5a" stroke-linecap="round" stroke-width="0.6"/>
        <path id="Path_14029" data-name="Path 14029" d="M420.524,522.361a4.657,4.657,0,1,1-4.683-4.672A4.647,4.647,0,0,1,420.524,522.361Zm-4.65,3.755a3.769,3.769,0,1,0-3.776-3.768A3.753,3.753,0,0,0,415.874,526.117Z" transform="translate(-397.835 -499.424)" fill="#5a5a5a" stroke="#5a5a5a" stroke-linecap="round" stroke-width="0.4"/>
      </g>
      <g id="Group_68099" data-name="Group 68099" transform="translate(138.613 143.624)">
        <g id="Group_68098" data-name="Group 68098" transform="translate(0)">
          <path id="Path_14030" data-name="Path 14030" d="M501.843,597.46l-1.439-1.731,0-.456h.711a.955.955,0,0,0,.426-.085.6.6,0,0,0,.261-.241.718.718,0,0,0,.089-.365.7.7,0,0,0-.185-.506.794.794,0,0,0-.592-.191h-.773l.16-.635h.612a2.027,2.027,0,0,1,.858.159,1.119,1.119,0,0,1,.51.449,1.321,1.321,0,0,1,.17.678,1.434,1.434,0,0,1-.125.612,1.046,1.046,0,0,1-.395.442,1.717,1.717,0,0,1-.705.23l-.025.008,1.3,1.593v.037h-.857Zm1.371-3.182-.146.539H500.34l.148-.539Zm0-1.028-.15.547-2.212-.008.15-.539h2.212Z" transform="translate(-500.34 -593.25)" fill="#5a5a5a"/>
        </g>
      </g>
    </g>
  </g>
</svg>
