<svg xmlns="http://www.w3.org/2000/svg" width="80" height="80" viewBox="0 0 80 80">
  <g id="Group_69240" data-name="Group 69240" transform="translate(-1295 -1609)">
    <circle id="Ellipse_40" data-name="Ellipse 40" cx="40" cy="40" r="40" transform="translate(1295 1609)" fill="#d5e5ff"/>
    <g id="crm_loyalty" data-name="crm &amp; loyalty" transform="translate(10431.863 -9309)">
      <g id="Group" transform="translate(-9114.863 10940)">
        <path id="Shape" d="M21.241,12.662a1,1,0,0,0-1.417,0,2.6,2.6,0,0,1-3.676,0,1,1,0,0,0-1.417,1.417,4.636,4.636,0,0,0,6.5,0A1.007,1.007,0,0,0,21.241,12.662Z" transform="translate(0.017 0.008)" fill="#5a5a5a"/>
        <path id="Shape-2" data-name="Shape" d="M32.487,20.485c-1.2-1.364-4.115-2.662-8.68-3.877a9.983,9.983,0,0,0,2.834-7.049C26.647,4.293,22.77.007,18,.007S9.365,4.293,9.365,9.558A9.983,9.983,0,0,0,12.2,16.607c-4.565,1.209-7.482,2.514-8.68,3.877C1.082,23.271.116,33.73.009,34.916a1.014,1.014,0,0,0,1,1.091h34a1,1,0,0,0,1-1.085C35.9,33.73,34.936,23.271,32.487,20.485ZM18,2.011a6.781,6.781,0,0,1,6.279,5.117c-5.235.427-6.569-2.223-6.628-2.33a.992.992,0,0,0-.919-.6h-.012a1,1,0,0,0-.913.629,4.552,4.552,0,0,1-4.221,2.816A6.857,6.857,0,0,1,18,2.011ZM11.369,9.635c.148.012.291.024.433.024A6.257,6.257,0,0,0,16.871,7c1.168,1.15,3.492,2.514,7.761,2.128.006.148.024.291.024.439,0,4.162-2.976,7.547-6.64,7.547C14.369,17.111,11.4,13.762,11.369,9.635Zm.148,9.243c.848-.249,1.767-.486,2.733-.723a7.832,7.832,0,0,0,7.494,0c.978.231,1.891.474,2.733.723v4.8l-5.834-4.209a1.207,1.207,0,0,0-1.3,0L11.5,23.675v-4.8Zm8.953,4.358-2.532,2.277-2.407-2.259,2.478-1.785ZM12.738,34H2.108c.445-4.287,1.524-10.607,2.911-12.2.64-.723,2.205-1.518,4.5-2.3v6.13a1,1,0,0,0,1.589.806l2.769-2,.806.759Zm2.045,0,1.595-7.209h0l.86.806a.983.983,0,0,0,1.352.012l1.02-.913L21.228,34H14.784Zm8.49,0-1.956-8.84.806-.723,2.781,2a1,1,0,0,0,1.589-.806v-6.13a11.923,11.923,0,0,1,4.5,2.3C32.38,23.4,33.459,29.716,33.9,34Z" transform="translate(0 -0.007)" fill="#5a5a5a" stroke="#5a5a5a" stroke-linecap="round" stroke-width="0.4"/>
      </g>
    </g>
  </g>
</svg>
