<svg width="75" height="75" viewBox="0 0 75 75" fill="none" xmlns="http://www.w3.org/2000/svg">
<path d="M37.5 75C58.2107 75 75 58.2107 75 37.5C75 16.7893 58.2107 0 37.5 0C16.7893 0 0 16.7893 0 37.5C0 58.2107 16.7893 75 37.5 75Z" fill="#FFBA00"/>
<path fill-rule="evenodd" clip-rule="evenodd" d="M37.9425 39.3197C37.8377 39.1227 37.6329 39 37.4102 39C37.1875 39 36.9828 39.1227 36.878 39.3197L35.7844 41.3686L33.4978 41.7752C33.2785 41.8145 33.0985 41.9712 33.0296 42.1827C32.9607 42.3948 33.0141 42.6271 33.1688 42.7877L34.7796 44.4611L34.4599 46.7613C34.4293 46.9821 34.5225 47.2018 34.703 47.3328C34.883 47.4638 35.1207 47.4847 35.3211 47.3872L37.4102 46.3722L39.4994 47.3872C39.6997 47.4847 39.9375 47.4638 40.1175 47.3328C40.298 47.2018 40.3911 46.9821 40.3606 46.7613L40.0408 44.4611L41.6516 42.7877C41.8064 42.6271 41.8597 42.3948 41.7908 42.1827C41.7219 41.9712 41.542 41.8145 41.3227 41.7752L39.036 41.3686L37.9425 39.3197ZM37.4102 40.8854L38.1094 42.1953C38.1962 42.3588 38.3539 42.4733 38.5358 42.5054L39.9976 42.7654L38.9681 43.8352C38.8395 43.9682 38.7794 44.1535 38.8051 44.3369L39.0093 45.8075L37.6742 45.1583C37.5073 45.0773 37.3132 45.0773 37.1463 45.1583L35.8111 45.8075L36.0154 44.3369C36.0411 44.1535 35.9809 43.9682 35.8523 43.8352L34.8228 42.7654L36.2846 42.5054C36.4666 42.4733 36.6242 42.3588 36.7111 42.1953L37.4102 40.8854Z" fill="black"/>
<path d="M32.6037 49.0495C32.935 49.0495 33.2036 48.781 33.2036 48.4497C33.2036 48.1184 32.935 47.8499 32.6037 47.8499C32.2725 47.8499 32.0039 48.1184 32.0039 48.4497C32.0039 48.781 32.2725 49.0495 32.6037 49.0495Z" fill="black"/>
<path fill-rule="evenodd" clip-rule="evenodd" d="M51.0957 33.9517C51.8035 33.3374 52.2519 32.4304 52.2519 31.4203C52.2519 29.5707 50.7499 28.0687 48.9003 28.0687C47.0502 28.0687 45.5482 29.5707 45.5482 31.4203C45.5482 32.431 45.9965 33.3374 46.7044 33.9517C44.8886 34.6179 43.4946 36.0849 42.9974 37.8886C42.1827 37.3733 41.2824 36.969 40.3217 36.6992C41.7875 35.7651 42.7603 34.1255 42.7603 32.2603C42.7603 29.3571 40.4032 27 37.5 27C34.5968 27 32.2397 29.3571 32.2397 32.2603C32.2397 34.1255 33.2125 35.7651 34.6783 36.6992C33.7176 36.969 32.8173 37.3733 32.0026 37.8886C31.5054 36.0849 30.1114 34.6179 28.2956 33.9517C29.0035 33.3374 29.4518 32.4304 29.4518 31.4203C29.4518 29.5707 27.9498 28.0687 26.0997 28.0687C24.2501 28.0687 22.7481 29.5707 22.7481 31.4203C22.7481 32.4304 23.1965 33.3374 23.9043 33.9517C21.6172 34.7899 20 36.8984 20 39.352C20 40.1829 20.6185 40.9028 21.709 41.3711C23.3678 42.0832 26.1739 42.2727 28.4187 41.9269C27.881 43.0825 27.5829 44.3588 27.5829 45.6997C27.5829 46.5916 28.053 47.3724 28.9105 48.003C29.1784 48.2009 29.5568 48.143 29.7541 47.8751C29.9515 47.6065 29.8941 47.2288 29.6256 47.0315C29.1187 46.6579 28.7898 46.2271 28.7898 45.6997C28.7898 41.175 32.702 37.5205 37.5 37.5205C42.298 37.5205 46.2102 41.175 46.2102 45.6997C46.2102 46.1836 45.9308 46.5873 45.4933 46.9397C44.9484 47.3784 44.1693 47.7278 43.2503 48.0024C40.3199 48.8792 36.0143 48.9655 32.7997 48.2703C32.4745 48.2003 32.1529 48.4073 32.0829 48.7326C32.0122 49.0585 32.2192 49.3795 32.5451 49.4501C36.526 50.3112 42.0826 50.0179 45.0588 48.6077C46.5499 47.9016 47.4171 46.8933 47.4171 45.6997C47.4171 44.3588 47.119 43.0819 46.5813 41.9269C48.8261 42.2727 51.6322 42.0832 53.291 41.3711C54.3815 40.9028 55 40.1829 55 39.352C55 37.9478 54.472 36.6582 53.591 35.6541C53.3713 35.4036 52.9899 35.3783 52.7395 35.5979C52.4891 35.8176 52.4643 36.199 52.6834 36.4494C53.3755 37.2381 53.7931 38.2495 53.7931 39.352C53.7931 39.5867 53.6308 39.7678 53.4063 39.9343C53.0593 40.1914 52.5651 40.3881 51.99 40.5396C50.1724 41.0181 47.5818 41.0163 45.7763 40.5305C45.2929 39.839 44.716 39.2114 44.0619 38.6646C44.4173 36.4542 46.457 34.7724 48.9003 34.7724C49.7832 34.7724 50.6123 34.9915 51.3292 35.3765C51.6225 35.534 51.9888 35.4235 52.1463 35.1303C52.3038 34.837 52.194 34.4707 51.9001 34.3132C51.643 34.175 51.3745 34.0543 51.0957 33.9517ZM30.9381 38.6646C30.5827 36.4542 28.543 34.7724 26.0997 34.7724C23.4089 34.7724 21.2069 36.8139 21.2069 39.352C21.2069 39.5867 21.3692 39.7678 21.5937 39.9343C21.9407 40.1914 22.4349 40.3881 23.01 40.5396C24.8276 41.0181 27.4182 41.0163 29.2237 40.5305C29.7071 39.839 30.284 39.212 30.9381 38.6646ZM37.5 28.2069C39.737 28.2069 41.5534 30.0233 41.5534 32.2603C41.5534 34.4972 39.737 36.3136 37.5 36.3136C35.263 36.3136 33.4466 34.4972 33.4466 32.2603C33.4466 30.0233 35.263 28.2069 37.5 28.2069ZM48.9003 29.2756C50.0837 29.2756 51.045 30.2369 51.045 31.4203C51.045 32.6042 50.0837 33.5655 48.9003 33.5655C47.7164 33.5655 46.7551 32.6042 46.7551 31.4203C46.7551 30.2369 47.7164 29.2756 48.9003 29.2756ZM26.0997 29.2756C27.2836 29.2756 28.2449 30.2369 28.2449 31.4203C28.2449 32.6042 27.2836 33.5655 26.0997 33.5655C24.9163 33.5655 23.955 32.6042 23.955 31.4203C23.955 30.2369 24.9163 29.2756 26.0997 29.2756Z" fill="black"/>
</svg>
