<svg xmlns="http://www.w3.org/2000/svg" width="80" height="80" viewBox="0 0 80 80">
  <g id="Group_70217" data-name="Group 70217" transform="translate(-100 -1422)">
    <circle id="Ellipse_38" data-name="Ellipse 38" cx="40" cy="40" r="40" transform="translate(100 1422)" fill="#eff9ec"/>
    <g id="khata" transform="translate(9234.979 -9318.934)">
      <g id="Group" transform="translate(-9109.04 10765.177)">
        <path id="Shape" d="M13.759,30.156a16.275,16.275,0,0,1,9.335-2.886,14.279,14.279,0,0,1,3.742.484V1.288a18.138,18.138,0,0,0-13.084,0V30.156Z" transform="translate(1.568 -0.067)" fill="#fff"/>
        <path id="Shape-2" data-name="Shape" d="M6.621.067A18.05,18.05,0,0,0,.079,1.288V27.754a14.278,14.278,0,0,1,3.742-.484,16.259,16.259,0,0,1,9.335,2.886V1.288A17.964,17.964,0,0,0,6.621.067Z" transform="translate(-0.079 -0.067)" fill="#fff"/>
      </g>
      <g id="Group-2" data-name="Group" transform="translate(-9106.798 10767.426)">
        <path id="Shape-3" data-name="Shape" d="M13.738.643A15.644,15.644,0,0,1,18.045.059a16.164,16.164,0,0,1,4.306.584V22.85a15.949,15.949,0,0,0-8.605,1.314V.643Z" transform="translate(1.581 -0.059)" fill="#eff9ec"/>
        <path id="Shape-4" data-name="Shape" d="M8.67,24.157c-4.91-1.818-5-1.387-8.605-1.314V.643A15.644,15.644,0,0,1,4.371.059,16.164,16.164,0,0,1,8.677.643V24.157Z" transform="translate(-0.065 -0.059)" fill="#eff9ec"/>
      </g>
      <path id="Shape-5" data-name="Shape" d="M36.93,5.683h-.352V3.62A1.113,1.113,0,0,0,35.9,2.591,20.377,20.377,0,0,0,20.13,2.412a20.377,20.377,0,0,0-15.771.179A1.11,1.11,0,0,0,3.682,3.62V5.683H3.357A3.362,3.362,0,0,0,0,9.047V33.556a3.361,3.361,0,0,0,3.357,3.357H36.93a3.361,3.361,0,0,0,3.357-3.357V9.047A3.362,3.362,0,0,0,36.93,5.683ZM3.357,34.671A1.12,1.12,0,0,1,2.236,33.55V9.047A1.12,1.12,0,0,1,3.357,7.926h.352V32.415a1.123,1.123,0,0,0,1.559,1.028A11.331,11.331,0,0,1,9.687,32.6a14.314,14.314,0,0,1,7.431,2.07Zm15.665-1.426a16.275,16.275,0,0,0-9.335-2.886,14.279,14.279,0,0,0-3.742.484V4.376a18.138,18.138,0,0,1,13.084,0V33.244ZM21.265,4.376a18.138,18.138,0,0,1,13.084,0V30.843a14.279,14.279,0,0,0-3.742-.484,16.259,16.259,0,0,0-9.335,2.886V4.376Zm16.786,29.18a1.12,1.12,0,0,1-1.121,1.121H23.162a14.332,14.332,0,0,1,7.431-2.07,11.212,11.212,0,0,1,4.419.843,1.114,1.114,0,0,0,1.559-1.028V7.919h.352A1.12,1.12,0,0,1,38.044,9.04V33.556Z" transform="translate(-9114.979 10762.021)" fill="#5a5a5a"/>
      <g id="Group-3" data-name="Group" transform="translate(-9112.735 10769.94)">
        <path id="Shape-6" data-name="Shape" d="M32.516.013h-.352V24.5a1.118,1.118,0,0,1-1.559,1.028,11.331,11.331,0,0,0-4.419-.843,14.314,14.314,0,0,0-7.431,2.07H32.516a1.12,1.12,0,0,0,1.121-1.121V1.141A1.13,1.13,0,0,0,32.516.013Z" transform="translate(2.171 -0.013)" fill="#fff"/>
        <path id="Shape-7" data-name="Shape" d="M7.529,24.7a11.212,11.212,0,0,0-4.419.843,1.118,1.118,0,0,1-1.559-1.028V.013H1.2A1.12,1.12,0,0,0,.078,1.135V25.644A1.12,1.12,0,0,0,1.2,26.765H14.96A14.387,14.387,0,0,0,7.529,24.7Z" transform="translate(-0.078 -0.013)" fill="#fff"/>
      </g>
      <g id="Group-4" data-name="Group" transform="translate(-9106.218 10770.09)">
        <path id="Shape-8" data-name="Shape" d="M.68.43a.836.836,0,0,0,.391,1.626A12.278,12.278,0,0,1,6.479,2,.83.83,0,1,0,6.817.376,13.872,13.872,0,0,0,.68.43Z" transform="translate(-0.033 -0.055)" fill="#5a5a5a"/>
        <path id="Shape-9" data-name="Shape" d="M6.844,5.125A13.908,13.908,0,0,0,.714,4.886a.834.834,0,1,0,.312,1.639,12.316,12.316,0,0,1,5.4.212.833.833,0,0,0,.418-1.612Z" transform="translate(-0.033 0.498)" fill="#5a5a5a"/>
        <path id="Shape-10" data-name="Shape" d="M.991,11.009a12.245,12.245,0,0,1,5.388.451.831.831,0,0,0,.5-1.586,13.931,13.931,0,0,0-6.117-.5.828.828,0,1,0,.232,1.639Z" transform="translate(-0.032 1.05)" fill="#5a5a5a"/>
        <path id="Shape-11" data-name="Shape" d="M6.87,14.482a13.933,13.933,0,0,0-6.124-.431A.832.832,0,0,0,1,15.7a12.248,12.248,0,0,1,5.394.378.831.831,0,0,0,.478-1.592Z" transform="translate(-0.033 1.611)" fill="#5a5a5a"/>
        <path id="Shape-12" data-name="Shape" d="M14.712,2a12.379,12.379,0,0,1,5.407.053A.836.836,0,0,0,20.51.43,13.97,13.97,0,0,0,14.373.364.837.837,0,0,0,14.712,2Z" transform="translate(1.614 -0.055)" fill="#5a5a5a"/>
        <path id="Shape-13" data-name="Shape" d="M14.758,6.737a12.216,12.216,0,0,1,5.4-.212.834.834,0,1,0,.312-1.639,14.007,14.007,0,0,0-6.131.239.832.832,0,0,0-.6,1.015A.822.822,0,0,0,14.758,6.737Z" transform="translate(1.614 0.498)" fill="#5a5a5a"/>
        <path id="Shape-14" data-name="Shape" d="M20.423,9.364a13.933,13.933,0,0,0-6.117.5.831.831,0,1,0,.5,1.586A12.245,12.245,0,0,1,20.191,11a.832.832,0,0,0,.942-.7A.82.82,0,0,0,20.423,9.364Z" transform="translate(1.615 1.049)" fill="#5a5a5a"/>
        <path id="Shape-15" data-name="Shape" d="M21.134,15.006a.827.827,0,0,0-.7-.949,13.841,13.841,0,0,0-6.124.431.829.829,0,0,0,.464,1.592,12.241,12.241,0,0,1,5.394-.378A.84.84,0,0,0,21.134,15.006Z" transform="translate(1.614 1.611)" fill="#5a5a5a"/>
      </g>
    </g>
  </g>
</svg>
