<svg xmlns="http://www.w3.org/2000/svg" xmlns:xlink="http://www.w3.org/1999/xlink" width="103.549" height="18" viewBox="0 0 103.549 18">
  <defs>
    <clipPath id="clip-path">
      <rect id="Rectangle_8845" data-name="Rectangle 8845" width="17" height="18" transform="translate(-4.367 -0.41)" fill="#fff" stroke="#707070" stroke-width="1"/>
    </clipPath>
  </defs>
  <g id="Layer_1" transform="translate(-61.94 -218.437)">
    <g id="Group_71788" data-name="Group 71788" transform="translate(61.94 218.844)">
      <g id="Group_71787" data-name="Group 71787">
        <path id="Path_14733" data-name="Path 14733" d="M70.942,219.371l1.788,3.622a.945.945,0,0,0,.711.517l4,.581a.945.945,0,0,1,.524,1.612l-2.893,2.82a.945.945,0,0,0-.272.837l.683,3.981a.945.945,0,0,1-1.371,1l-3.576-1.88a.946.946,0,0,0-.88,0l-3.575,1.88a.945.945,0,0,1-1.371-1l.683-3.981a.945.945,0,0,0-.272-.837l-2.893-2.82a.945.945,0,0,1,.524-1.612l4-.581a.945.945,0,0,0,.711-.517l1.788-3.622A.945.945,0,0,1,70.942,219.371Z" transform="translate(-61.94 -218.844)" fill="#fce340" fill-rule="evenodd"/>
        <path id="Path_14734" data-name="Path 14734" d="M148.523,219.371l1.788,3.622a.945.945,0,0,0,.711.517l4,.581a.945.945,0,0,1,.524,1.612l-2.893,2.82a.945.945,0,0,0-.272.837l.683,3.981a.945.945,0,0,1-1.371,1l-3.576-1.88a.946.946,0,0,0-.88,0l-3.576,1.88a.945.945,0,0,1-1.371-1l.683-3.981a.945.945,0,0,0-.272-.837l-2.893-2.82a.945.945,0,0,1,.524-1.612l4-.581a.945.945,0,0,0,.711-.517l1.788-3.622A.945.945,0,0,1,148.523,219.371Z" transform="translate(-117.824 -218.844)" fill="#fce340" fill-rule="evenodd"/>
        <path id="Path_14735" data-name="Path 14735" d="M226.1,219.371l1.788,3.622a.945.945,0,0,0,.711.517l4,.581a.945.945,0,0,1,.524,1.612l-2.893,2.82a.945.945,0,0,0-.272.837l.683,3.981a.945.945,0,0,1-1.371,1l-3.576-1.88a.946.946,0,0,0-.88,0l-3.576,1.88a.945.945,0,0,1-1.371-1l.683-3.981a.945.945,0,0,0-.272-.837l-2.893-2.82a.945.945,0,0,1,.524-1.612l4-.581a.945.945,0,0,0,.711-.517l1.788-3.622A.945.945,0,0,1,226.1,219.371Z" transform="translate(-173.708 -218.844)" fill="#fce340" fill-rule="evenodd"/>
        <path id="Path_14736" data-name="Path 14736" d="M303.685,219.371l1.788,3.622a.945.945,0,0,0,.711.517l4,.581a.945.945,0,0,1,.524,1.612l-2.893,2.82a.945.945,0,0,0-.272.837l.683,3.981a.945.945,0,0,1-1.371,1l-3.576-1.88a.946.946,0,0,0-.88,0l-3.576,1.88a.945.945,0,0,1-1.371-1l.683-3.981a.945.945,0,0,0-.272-.837l-2.893-2.82a.945.945,0,0,1,.524-1.612l4-.581a.945.945,0,0,0,.711-.517l1.788-3.622a.945.945,0,0,1,1.7,0Z" transform="translate(-229.591 -218.844)" fill="#fce340" fill-rule="evenodd"/>
        <path id="Path_14737" data-name="Path 14737" d="M381.267,219.371l1.788,3.622a.945.945,0,0,0,.711.517l4,.581a.945.945,0,0,1,.524,1.612l-2.893,2.82a.945.945,0,0,0-.272.837l.683,3.981a.945.945,0,0,1-1.371,1l-3.576-1.88a.946.946,0,0,0-.88,0l-3.576,1.88a.945.945,0,0,1-1.371-1l.683-3.981a.945.945,0,0,0-.272-.837l-2.893-2.82a.945.945,0,0,1,.524-1.612l4-.581a.945.945,0,0,0,.711-.517l1.788-3.622A.945.945,0,0,1,381.267,219.371Z" transform="translate(-285.476 -218.844)" fill="#fce340" fill-rule="evenodd"/>
        <g id="Mask_Group_308" data-name="Mask Group 308" transform="translate(90.916 0.003)" clip-path="url(#clip-path)">
          <path id="Path_14738" data-name="Path 14738" d="M381.267,219.371l1.788,3.622a.945.945,0,0,0,.711.517l4,.581a.945.945,0,0,1,.524,1.612l-2.893,2.82a.945.945,0,0,0-.272.837l.683,3.981a.945.945,0,0,1-1.371,1l-3.576-1.88a.946.946,0,0,0-.88,0l-3.576,1.88a.945.945,0,0,1-1.371-1l.683-3.981a.945.945,0,0,0-.272-.837l-2.893-2.82a.945.945,0,0,1,.524-1.612l4-.581a.945.945,0,0,0,.711-.517l1.788-3.622A.945.945,0,0,1,381.267,219.371Z" transform="translate(-376.392 -218.847)" fill="#ededed" fill-rule="evenodd"/>
        </g>
      </g>
    </g>
  </g>
</svg>
