<svg id="Group_70151" data-name="Group 70151" xmlns="http://www.w3.org/2000/svg" width="600" height="600" viewBox="0 0 600 600">
  <path id="Path_12" data-name="Path 12" d="M662.63,1004.17H172.09a54.718,54.718,0,0,1-54.73-54.73V458.9a54.718,54.718,0,0,1,54.73-54.73H662.63a54.718,54.718,0,0,1,54.73,54.73V949.44A54.732,54.732,0,0,1,662.63,1004.17Z" transform="translate(-117.36 -404.17)" fill="#2a6ab4"/>
  <g id="Group_116" data-name="Group 116" transform="translate(52.064 179.816)">
    <path id="Path_13" data-name="Path 13" d="M495.8,604.531c-.088-3.025-.221-6.073-.331-9.1-.022-.288-.022-.6-.066-.884-.287-2.208-.287-4.439-.685-6.626-.221-2.518-.64-4.992-1.082-7.465-.685-3.865-1.524-7.686-2.562-11.463A112.875,112.875,0,0,0,463.2,519.918a108.446,108.446,0,0,0-57.491-31.54c-2.032-.419-4.064-.794-6.118-1.1-1.457-.221-2.915-.464-4.395-.619-2.143-.22-4.263-.529-6.405-.618-.376-.022-.729-.066-1.1-.089-.95-.067-1.922-.155-2.871-.2-2.96-.111-5.919-.2-8.879-.155a104.967,104.967,0,0,0-10.866.464c-.508.066-1.038.066-1.546.11-.441.022-.883.044-1.325.11-2.716.354-5.433.663-8.128,1.126-3.71.619-8.481,1.68-12.125,2.673a109.874,109.874,0,0,0-41.236,21.446c-1.656,1.369-3.268,2.783-4.859,4.241-.375.353-.751.706-1.148,1.038a1.247,1.247,0,0,1-.354.243.913.913,0,0,1-.419.022.331.331,0,0,1-.243-.331c-.022-.508-.045-1.039-.045-1.546V504.524c0-.817-.044-1.635-.066-2.451a14.245,14.245,0,0,0-.662-3.71,17.99,17.99,0,0,0-12.059-12.06,13.932,13.932,0,0,0-3.71-.685c-.972-.045-1.921-.045-2.894,0a13.191,13.191,0,0,0-3.71.663,18.014,18.014,0,0,0-11.684,10.734,12.512,12.512,0,0,0-.862,2.982,22.7,22.7,0,0,0-.42,4.417c.022.442,0,.883,0,1.325V611.2c.022.507.022,1.037.089,1.545a30.481,30.481,0,0,1,.309,3.755c.022.507.088,1.038.132,1.545.089.95.177,1.922.265,2.872.045.442.045.883.111,1.325.287,1.678.42,3.38.662,5.057.331,2.187.685,4.4,1.127,6.559a121.782,121.782,0,0,0,2.959,11.838,111.581,111.581,0,0,0,11.883,26.438,115.17,115.17,0,0,0,17.448,21.778,107.29,107.29,0,0,0,46.713,27.122q5.333,1.524,10.8,2.54c2.253.419,4.506.8,6.8,1.082,1.546.2,3.092.353,4.638.53q1.988.232,3.976.331c.729.044,1.48.111,2.209.155,1.1.067,2.209.155,3.335.177,1.767.044,3.556.066,4.462.088,4.263,0,7.686-.022,11.065-.354.287-.022.6-.044.884-.044,2.231-.066,4.417-.375,6.626-.618,2.43-.287,4.837-.663,7.245-1.1,3.865-.706,7.664-1.59,11.441-2.673a109.564,109.564,0,0,0,34.565-16.764,124.022,124.022,0,0,0,22.175-20.717,108.04,108.04,0,0,0,19.083-33.35,117.48,117.48,0,0,0,4.2-14.71c.619-2.827,1.127-5.654,1.524-8.525.177-1.325.332-2.651.508-3.954.155-1.037.243-2.053.331-3.092.044-.663.132-1.325.177-1.988.066-.817.155-1.612.176-2.429.111-2.43.2-4.881.287-7.333C495.819,607.049,495.841,605.769,495.8,604.531Zm-37.834,5.1c-.022.508-.089,1.038-.089,1.546a84.3,84.3,0,0,1-2.143,14.025,81.74,81.74,0,0,1-65.906,61.113,39.674,39.674,0,0,1-4.837.619,86.541,86.541,0,0,1-13.738.332c-.729-.022-1.48-.11-2.209-.177-.375-.044-.729-.111-1.1-.132a60.878,60.878,0,0,1-7.465-1.1,81.729,81.729,0,0,1-61.709-54.819,78.681,78.681,0,0,1-2.738-10.955c-.354-2.032-.619-4.086-.862-6.14a86.151,86.151,0,0,1-.31-12.634c.022-.883.133-1.767.221-2.65.022-.376.088-.729.11-1.1a74.564,74.564,0,0,1,1.3-8.547,79.536,79.536,0,0,1,3.6-12.323,83.552,83.552,0,0,1,4.218-9.277c.663-1.237,1.347-2.474,2.054-3.689.729-1.281,1.524-2.54,2.364-3.754a88.251,88.251,0,0,1,9.917-11.927,81.238,81.238,0,0,1,36.443-21.093,78.962,78.962,0,0,1,8.459-1.811,73.649,73.649,0,0,1,7.929-.862l2.65-.133c1.414-.066,2.805-.066,4.219-.022,1.7.089,3.4.133,5.1.288,1.546.132,3.092.286,4.638.529,1.966.309,3.932.663,5.9,1.083A81.751,81.751,0,0,1,453.7,579.331a77.359,77.359,0,0,1,2.849,10.712c.486,2.473.795,4.969,1.148,7.443l.066.662c.11,1.7.221,3.4.309,5.1.044.817.044,1.635.066,2.827C458.074,606.984,458.03,608.309,457.964,609.634Z" transform="translate(0.037 -485.585)" fill="#fff"/>
    <path id="Path_14" data-name="Path 14" d="M369.852,688.977a13.667,13.667,0,0,0-2.761-.817,27.013,27.013,0,0,0-4.638-.442c-3.335.045-6.67.022-9.983,0-.663,0-1.325,0-1.988-.022a.836.836,0,0,1-.42-.089c-.11-.066-.155-.22-.221-.331a3.223,3.223,0,0,1,.64-.905c1.656-1.79,3.291-3.623,4.837-5.5a110.8,110.8,0,0,0,18.972-33.151,115.76,115.76,0,0,0,4.064-14.047q.928-4.108,1.524-8.282c.2-1.325.353-2.651.53-3.953.132-.949.243-1.9.309-2.871.022-.442.044-.883.11-1.325.221-1.546.265-3.093.331-4.639.044-1.192.088-2.363.155-3.556.111-2.076.133-4.152.089-6.207-.089-2.959-.221-5.919-.331-8.878-.022-.287-.022-.6-.066-.884-.287-2.12-.376-4.262-.662-6.4-.486-3.6-.685-5.036-1.326-8.548a117.1,117.1,0,0,0-2.761-11.661,108.892,108.892,0,0,0-8.282-20.541,105.833,105.833,0,0,0-13.76-20.1,114.421,114.421,0,0,0-30.236-24.8,117.046,117.046,0,0,0-40.109-13.65c-1.325-.2-2.65-.353-3.953-.552-1.988-.286-3.976-.441-5.963-.64-2.275-.221-4.572-.332-6.869-.419a166.662,166.662,0,0,0-19.083.419c-.155.022-.287.022-.442.044-1.9.287-3.843.31-5.742.663-2.363.221-4.682.64-7.023,1.082a120.925,120.925,0,0,0-13.981,3.468,109.2,109.2,0,0,0-34.433,17.978,124.655,124.655,0,0,0-16.9,16.013,113.47,113.47,0,0,0-8.084,10.293,110.591,110.591,0,0,0-17.493,40.462c-.53,2.451-.994,4.925-1.369,7.421-.353,2.341-.685,4.682-.861,7.046-.022.22-.044.442-.066.662-.2,1.325-.265,2.651-.331,3.976-.066,1.192-.133,2.364-.2,3.556-.044.884-.088,1.766-.11,2.673-.066,3.49-.066,6.957.177,10.425.176,2.584.176,5.169.552,7.753.088,1.855.375,3.688.618,5.522.309,2.275.707,4.527,1.126,6.78a119.159,119.159,0,0,0,4.108,15.66,106.161,106.161,0,0,0,17.89,32.754,115.613,115.613,0,0,0,17.36,17.426,111.606,111.606,0,0,0,28.138,16.742,121.879,121.879,0,0,0,33.262,8.3c.442.045.884.111,1.325.156.729.066,1.48.154,2.209.221,1.48.11,2.96.2,4.417.353a49.321,49.321,0,0,0,5.1.221h104.6c.971,0,1.921-.022,2.893-.044a13.226,13.226,0,0,0,2.628-.376,18.009,18.009,0,0,0,13.915-15.482,18.239,18.239,0,0,0-.508-6.825A18.044,18.044,0,0,0,369.852,688.977Zm-26.945-80.461a28.7,28.7,0,0,1-.221,3.092c-.044.287-.066.6-.088.884a80.608,80.608,0,0,1-6.493,25.245,82.278,82.278,0,0,1-50.777,45.586,81.175,81.175,0,0,1-11.22,2.673c-2.562.42-5.124.729-7.708.906-1.921.11-3.843.287-5.367.242a48.467,48.467,0,0,1-5.279-.2l-.883-.067a79.963,79.963,0,0,1-26.835-6.515A82.294,82.294,0,0,1,182.913,631.9a84.558,84.558,0,0,1-3.026-11.131c-.486-2.473-.817-4.969-1.148-7.465-.066-.508-.088-1.038-.11-1.546-.044-.729-.089-1.48-.155-2.208a57.386,57.386,0,0,1,0-9.542c.022-.286.044-.6.066-.883a78.274,78.274,0,0,1,2.827-16.586A82.324,82.324,0,0,1,246.212,523.7c2.253-.4,4.528-.685,6.825-.928a89.922,89.922,0,0,1,12.192-.265c.6.022,1.171.089,1.767.132.442.044.884.111,1.325.133a73.013,73.013,0,0,1,8.989,1.325,79.448,79.448,0,0,1,13.8,4.13,82.313,82.313,0,0,1,46.47,47.176,79.8,79.8,0,0,1,3.887,13.627,60.144,60.144,0,0,1,1.083,7.686A78.211,78.211,0,0,1,342.907,608.516Z" transform="translate(-140.933 -485.504)" fill="#fff"/>
  </g>
</svg>
