<svg xmlns="http://www.w3.org/2000/svg" width="100" height="100" viewBox="0 0 100 100">
  <g id="Group_70242" data-name="Group 70242" transform="translate(-220 -5762)">
    <circle id="Ellipse_571" data-name="Ellipse 571" cx="50" cy="50" r="50" transform="translate(220 5762)" fill="#3165f5"/>
    <g id="work-from-home" transform="translate(245 5787)">
      <path id="Path_14678" data-name="Path 14678" d="M21.83,23.481V21.915a3.915,3.915,0,0,0-7.83,0v1.566a3.915,3.915,0,1,0,7.83,0Zm-6.264,0V21.915a2.349,2.349,0,1,1,4.7,0v1.566a2.349,2.349,0,1,1-4.7,0Z" transform="translate(-3.067 -3.945)" fill="#fff"/>
      <path id="Path_14679" data-name="Path 14679" d="M44.691,55.321a.782.782,0,0,0,.781-.783V38.877a.782.782,0,0,0-.781-.783H32.981V34.962h5.465a.781.781,0,0,0,.77-.654l1.561-9.4a.782.782,0,0,0-.77-.912H25.955a.781.781,0,0,0-.77.654l-1.561,9.4a.782.782,0,0,0,.77.912H31.42v3.132H27.863a3.107,3.107,0,0,0,.434-1.566.782.782,0,0,0-.695-.778L20.889,35l-3.7-4.456a.78.78,0,0,0-.6-.282H15.026a3.914,3.914,0,0,0-3.9,3.915v9.4a3.882,3.882,0,0,0,.8,2.349H9.561V32.613a.781.781,0,1,0-1.561,0V46.708a.782.782,0,0,0,.781.783h3.9v6.264H10.342a.783.783,0,0,0,0,1.566h6.245a.783.783,0,0,0,0-1.566H14.245V47.491h5.792l3.523,6.186a.692.692,0,0,0,.053.078,3.919,3.919,0,0,0,3.123,1.566h2.342a.783.783,0,0,0,.689-1.15l-6.1-11.5a.783.783,0,0,0-.112-.157,3.907,3.907,0,0,0-2.888-1.284H18.149V39.66H43.91V54.538A.782.782,0,0,0,44.691,55.321ZM26.616,25.566H39.085l-1.3,7.83H25.316ZM15.636,34.473a.782.782,0,1,0-1.219.979l2.171,2.721v3.837a.782.782,0,0,0,.781.783h3.3a2.349,2.349,0,0,1,1.671.7l5.437,10.258H26.736a2.353,2.353,0,0,1-1.846-.9l-3.721-6.535a.78.78,0,0,0-.678-.392H15.026a2.346,2.346,0,0,1-2.342-2.349v-9.4a2.346,2.346,0,0,1,2.342-2.349h1.2l3.669,4.416a.78.78,0,0,0,.514.277l6.174.688a1.561,1.561,0,0,1-1.4.882H18.523Z" transform="translate(-1.736 -5.321)" fill="#fff"/>
      <path id="Path_14680" data-name="Path 14680" d="M1.259,20.195,25,1.774l11.241,8.719,6.25,4.856,6.25,4.847a.782.782,0,0,0,.956-1.239L43.75,14.344c-3.342-2.744-1.14-.935-7.812-6.067L25.478.164a.78.78,0,0,0-.956,0L.3,18.956a.782.782,0,0,0,.956,1.239Z" transform="translate(0 0)" fill="#fff"/>
      <path id="Path_14681" data-name="Path 14681" d="M39.783,54.481a.783.783,0,0,0-.772.912l.783,4.7a.783.783,0,0,0,.772.654h4.7a.783.783,0,0,0,.772-.654l.783-4.7a.783.783,0,0,0-.772-.912H43.7V53.334L45.7,52a.783.783,0,1,0-.869-1.3l-1.131.752V49.783a.783.783,0,0,0-1.566,0v1.669L41,50.7a.783.783,0,1,0-.869,1.3l2,1.333v1.147Zm4.818,4.7H41.229l-.521-3.132h4.415Z" transform="translate(-8.544 -10.745)" fill="#fff"/>
    </g>
  </g>
</svg>
