<svg xmlns="http://www.w3.org/2000/svg" version="1.1" xmlns:xlink="http://www.w3.org/1999/xlink" xmlns:svgjs="http://svgjs.com/svgjs" width="35" height="35" x="0" y="0" viewBox="0 0 100 100" style="enable-background:new 0 0 512 512" xml:space="preserve" class=""><g><path d="M50 76.207c-14.474 0-26.207-11.733-26.207-26.207S35.526 23.793 50 23.793 76.207 35.526 76.207 50 64.474 76.207 50 76.207z" fill="#f4f5fe" data-original="#000000" class=""></path><path fill="#2a6ab4" d="M44.161 62.678a.997.997 0 0 1-.707-.293L31.776 50.707a1 1 0 1 1 1.414-1.414l10.971 10.97 22.65-22.648a1 1 0 1 1 1.413 1.414L44.868 62.385a.997.997 0 0 1-.707.293z" data-original="#ffffff" class=""></path></g></svg>