<svg xmlns="http://www.w3.org/2000/svg" width="134.946" height="29.823" viewBox="0 0 134.946 29.823">
  <g id="capterra-inc-vector-logo" transform="translate(-20.4 -254.3)">
    <path id="Path_14741" data-name="Path 14741" d="M20.4,277.345H40.282V269.9Z" transform="translate(0 -12.091)" fill="#ff9d28"/>
    <path id="Path_14742" data-name="Path 14742" d="M108.8,257.809v26.314l9.4-29.823Z" transform="translate(-68.518)" fill="#68c5ed"/>
    <path id="Path_14743" data-name="Path 14743" d="M82.912,303H75.4l7.512,18.847Z" transform="translate(-42.63 -37.747)" fill="#044d80"/>
    <path id="Path_14744" data-name="Path 14744" d="M20.4,303l14.3,4.836L32.77,303Z" transform="translate(0 -37.747)" fill="#e54747"/>
    <g id="Group_71804" data-name="Group 71804" transform="translate(52.405 259.63)">
      <path id="Path_14745" data-name="Path 14745" d="M176.262,295.543a3.31,3.31,0,0,1-.54.4,5.753,5.753,0,0,1-.99.495,8.256,8.256,0,0,1-1.507.427,10.741,10.741,0,0,1-2.024.18,9.915,9.915,0,0,1-3.823-.7,6.926,6.926,0,0,1-2.654-1.979,8.031,8.031,0,0,1-1.529-2.991,13.522,13.522,0,0,1-.495-3.8,12.983,12.983,0,0,1,.54-3.823,8.518,8.518,0,0,1,1.6-3.036,7.154,7.154,0,0,1,2.654-2,9.171,9.171,0,0,1,3.756-.72,9.866,9.866,0,0,1,1.912.18,10.081,10.081,0,0,1,1.507.45,6.521,6.521,0,0,1,1.057.54,4.983,4.983,0,0,1,.63.472,1.946,1.946,0,0,1,.427.517,1.356,1.356,0,0,1,.18.652,1.8,1.8,0,0,1-.4,1.08,7.631,7.631,0,0,1-.9,1.012q-.337-.337-.742-.675a5.454,5.454,0,0,0-.922-.607,5.286,5.286,0,0,0-1.147-.427,5.594,5.594,0,0,0-1.439-.18,4.267,4.267,0,0,0-3.846,2.024,6.1,6.1,0,0,0-.81,2.047,11.684,11.684,0,0,0-.247,2.362,12.413,12.413,0,0,0,.247,2.452,5.672,5.672,0,0,0,.855,2.069,4.405,4.405,0,0,0,1.574,1.439,4.883,4.883,0,0,0,2.407.54,5.367,5.367,0,0,0,1.394-.18,5.83,5.83,0,0,0,1.125-.472,7.05,7.05,0,0,0,.855-.562c.247-.2.45-.382.607-.517.112.135.225.292.382.472a4.393,4.393,0,0,1,.4.562c.135.2.225.4.337.607a1.355,1.355,0,0,1,.135.54,1.274,1.274,0,0,1-.135.607,3.683,3.683,0,0,1-.427.54Zm14.034-2.092a5.952,5.952,0,0,0,.63,3.149,4.177,4.177,0,0,1-.922.27,5.806,5.806,0,0,1-.9.09,2.489,2.489,0,0,1-1.484-.382,1.728,1.728,0,0,1-.652-1.1,4.744,4.744,0,0,1-1.6,1.08,5.908,5.908,0,0,1-2.407.427,5.621,5.621,0,0,1-1.484-.2,3.81,3.81,0,0,1-1.349-.675,3.648,3.648,0,0,1-.99-1.237,4.349,4.349,0,0,1-.382-1.889,3.636,3.636,0,0,1,.675-2.272,4.783,4.783,0,0,1,1.687-1.372,7.981,7.981,0,0,1,2.182-.7,21.239,21.239,0,0,1,2.159-.247,6.32,6.32,0,0,1,.652-.022h.585v-.495a1.828,1.828,0,0,0-.562-1.507,3.009,3.009,0,0,0-1.822-.45,5.506,5.506,0,0,0-2.092.382,14.731,14.731,0,0,0-1.8.877,3.682,3.682,0,0,1-.607-1.035,2.412,2.412,0,0,1-.225-.832,1,1,0,0,1,.427-.742,4.329,4.329,0,0,1,1.17-.652,9.79,9.79,0,0,1,1.709-.472,11.486,11.486,0,0,1,2.024-.18,8.842,8.842,0,0,1,2.5.292,4.112,4.112,0,0,1,1.664.922,3.572,3.572,0,0,1,.922,1.574,8.1,8.1,0,0,1,.27,2.2l.022,5.2Zm-3.509-3.171h-.382a2.182,2.182,0,0,0-.382.022c-.45.045-.9.09-1.349.157a3.712,3.712,0,0,0-1.192.382,2.655,2.655,0,0,0-.855.72,1.806,1.806,0,0,0-.337,1.125,1.981,1.981,0,0,0,.427,1.3,1.811,1.811,0,0,0,1.484.54,3.623,3.623,0,0,0,.99-.135,3.1,3.1,0,0,0,.832-.36,2.48,2.48,0,0,0,.562-.472.833.833,0,0,0,.2-.472V290.28Zm10.323-5.4a5.274,5.274,0,0,1,1.372-1.057,4.615,4.615,0,0,1,2.339-.54,5.554,5.554,0,0,1,1.934.337,4.332,4.332,0,0,1,1.619,1.1,5.462,5.462,0,0,1,1.125,2.024,9.483,9.483,0,0,1,.427,3.1,10.508,10.508,0,0,1-.495,3.531,5.937,5.937,0,0,1-1.26,2.182,4.488,4.488,0,0,1-1.732,1.147,5.712,5.712,0,0,1-1.912.337,4.949,4.949,0,0,1-1.372-.18,4.526,4.526,0,0,1-.99-.4,3.046,3.046,0,0,1-.63-.427,2.272,2.272,0,0,1-.27-.292v6.747h-3.734v-18.8a1.357,1.357,0,0,1,.337-.045c.112-.022.247-.022.382-.045.157,0,.315-.023.517-.023a3.607,3.607,0,0,1,1.552.292,1.456,1.456,0,0,1,.787,1.012Zm4.948,5.06a8.234,8.234,0,0,0-.135-1.529,4.028,4.028,0,0,0-.45-1.237,2.278,2.278,0,0,0-.855-.81,2.6,2.6,0,0,0-1.3-.292,2.383,2.383,0,0,0-1.6.427,1.345,1.345,0,0,0-.45.967v5.825a2.925,2.925,0,0,0,.787.517,2.72,2.72,0,0,0,1.3.292,2.217,2.217,0,0,0,2.047-1.1A6,6,0,0,0,202.059,289.943Zm6.747,4.723a4.728,4.728,0,0,1-.247-1.147,10.964,10.964,0,0,1-.045-1.214V279.6a2.478,2.478,0,0,1,.4-.045c.135-.023.27-.023.4-.045.135,0,.292-.022.427-.022a3.872,3.872,0,0,1,.877.09,1.652,1.652,0,0,1,.787.337,1.727,1.727,0,0,1,.585.675,2.588,2.588,0,0,1,.225,1.1v1.957h3.846v2.766h-3.823v5.848c0,1.282.517,1.912,1.552,1.912a2.536,2.536,0,0,0,.72-.112q.337-.135.607-.27a2.467,2.467,0,0,0,.472-.315c.135-.112.225-.2.292-.247a8.525,8.525,0,0,1,.63,1.035,2.01,2.01,0,0,1,.225.832,1.009,1.009,0,0,1-.292.7,2.976,2.976,0,0,1-.81.63,4.33,4.33,0,0,1-1.259.472,7.283,7.283,0,0,1-1.619.18,4.722,4.722,0,0,1-2.654-.652,4.054,4.054,0,0,1-1.3-1.754Zm16.711-.36a4.077,4.077,0,0,0,1.215-.157,5.873,5.873,0,0,0,.945-.36,4.427,4.427,0,0,0,.72-.472q.3-.27.54-.472a7.827,7.827,0,0,1,.7,1.057,2.248,2.248,0,0,1,.36,1.057,1.4,1.4,0,0,1-.675,1.1,5.339,5.339,0,0,1-1.642.765,8.94,8.94,0,0,1-2.474.315,9.741,9.741,0,0,1-2.541-.337,5.542,5.542,0,0,1-3.8-3.351,8.728,8.728,0,0,1-.607-3.486,7.445,7.445,0,0,1,.54-2.969,6.036,6.036,0,0,1,1.417-2.069,5.793,5.793,0,0,1,2.024-1.214,7.218,7.218,0,0,1,2.294-.382,6.514,6.514,0,0,1,2.609.472,4.593,4.593,0,0,1,1.732,1.282,5,5,0,0,1,.967,1.844,7.743,7.743,0,0,1,.292,2.182v.382a3.487,3.487,0,0,1-.022.472c0,.157-.023.315-.023.472a1.409,1.409,0,0,1-.045.36h-8.074a4.25,4.25,0,0,0,.945,2.519,3.214,3.214,0,0,0,2.609.99Zm1.26-5.555a4,4,0,0,0-.517-2.137,1.987,1.987,0,0,0-1.822-.832,2.253,2.253,0,0,0-1.8.787,3.207,3.207,0,0,0-.675,2.182Zm9.851-3.8a6.3,6.3,0,0,1,.427-.54,2.74,2.74,0,0,1,.675-.54,5.222,5.222,0,0,1,.877-.4,3.029,3.029,0,0,1,1.035-.157c.225,0,.45.022.7.045a2.958,2.958,0,0,1,.675.2,1.3,1.3,0,0,1,.517.4,1,1,0,0,1,.2.63,3.766,3.766,0,0,1-.292,1.372,10.776,10.776,0,0,1-.607,1.327,4.794,4.794,0,0,0-.922-.585,2.754,2.754,0,0,0-1.1-.2,2.057,2.057,0,0,0-1.417.495,1.534,1.534,0,0,0-.585,1.192v8.861h-3.733V283.668a1.363,1.363,0,0,1,.337-.045c.112-.022.247-.022.382-.045.135,0,.315-.022.517-.022a3.264,3.264,0,0,1,1.529.337,1.639,1.639,0,0,1,.787,1.057Zm10.593,0a6.292,6.292,0,0,1,.427-.54,2.74,2.74,0,0,1,.675-.54,5.222,5.222,0,0,1,.877-.4,3.029,3.029,0,0,1,1.035-.157c.225,0,.45.022.7.045a2.957,2.957,0,0,1,.675.2,1.3,1.3,0,0,1,.517.4,1.006,1.006,0,0,1,.2.63,3.767,3.767,0,0,1-.292,1.372,10.783,10.783,0,0,1-.607,1.327,4.8,4.8,0,0,0-.922-.585,2.755,2.755,0,0,0-1.1-.2,2.057,2.057,0,0,0-1.417.495,1.534,1.534,0,0,0-.585,1.192v8.861h-3.734V283.668a1.363,1.363,0,0,1,.337-.045c.112-.022.247-.022.382-.045.135,0,.315-.022.517-.022a3.264,3.264,0,0,1,1.529.337,1.639,1.639,0,0,1,.787,1.057Zm17.79,8.5a5.952,5.952,0,0,0,.63,3.149,4.177,4.177,0,0,1-.922.27,5.805,5.805,0,0,1-.9.09,2.489,2.489,0,0,1-1.484-.382,1.728,1.728,0,0,1-.652-1.1,4.744,4.744,0,0,1-1.6,1.08,5.908,5.908,0,0,1-2.407.427,5.621,5.621,0,0,1-1.484-.2,3.811,3.811,0,0,1-1.349-.675,3.648,3.648,0,0,1-.99-1.237,4.349,4.349,0,0,1-.382-1.889,3.636,3.636,0,0,1,.675-2.272,4.783,4.783,0,0,1,1.687-1.372,7.982,7.982,0,0,1,2.182-.7,21.241,21.241,0,0,1,2.159-.247,6.321,6.321,0,0,1,.652-.022h.585v-.495a1.828,1.828,0,0,0-.562-1.507,3.009,3.009,0,0,0-1.822-.45,5.506,5.506,0,0,0-2.092.382,14.734,14.734,0,0,0-1.8.877,3.684,3.684,0,0,1-.607-1.035,2.413,2.413,0,0,1-.225-.832,1,1,0,0,1,.427-.742,4.329,4.329,0,0,1,1.17-.652,9.789,9.789,0,0,1,1.709-.472,11.485,11.485,0,0,1,2.024-.18,8.842,8.842,0,0,1,2.5.292,4.111,4.111,0,0,1,1.664.922,3.572,3.572,0,0,1,.922,1.574,8.1,8.1,0,0,1,.27,2.2l.022,5.2ZM261.5,290.28h-.382a2.182,2.182,0,0,0-.382.022c-.45.045-.9.09-1.349.157a3.712,3.712,0,0,0-1.192.382,2.656,2.656,0,0,0-.855.72,1.807,1.807,0,0,0-.337,1.125,1.981,1.981,0,0,0,.427,1.3,1.811,1.811,0,0,0,1.484.54,3.623,3.623,0,0,0,.99-.135,3.1,3.1,0,0,0,.832-.36,2.479,2.479,0,0,0,.562-.472.833.833,0,0,0,.2-.472V290.28Z" transform="translate(-162.7 -278)" fill="#044d80"/>
    </g>
  </g>
</svg>
