<svg xmlns="http://www.w3.org/2000/svg" width="36" height="25" viewBox="0 0 36 25">
  <g id="Group_71766" data-name="Group 71766" transform="translate(0 -80)">
    <g id="Group_71759" data-name="Group 71759" transform="translate(23.741 84.609)">
      <g id="Group_71758" data-name="Group 71758">
        <path id="Path_14727" data-name="Path 14727" d="M339.392,152.973l12.259,7.75V144.9Z" transform="translate(-339.392 -144.896)" fill="#5a5a5a"/>
      </g>
    </g>
    <g id="Group_71761" data-name="Group 71761" transform="translate(0 84.609)">
      <g id="Group_71760" data-name="Group 71760">
        <path id="Path_14728" data-name="Path 14728" d="M0,144.9v15.827l12.259-7.75Z" transform="translate(0 -144.896)" fill="#5a5a5a"/>
      </g>
    </g>
    <g id="Group_71763" data-name="Group 71763" transform="translate(0.068 80)">
      <g id="Group_71762" data-name="Group 71762">
        <path id="Path_14729" data-name="Path 14729" d="M34.641,80H3.142A2.23,2.23,0,0,0,.96,81.934L18.892,93.868,36.824,81.934A2.23,2.23,0,0,0,34.641,80Z" transform="translate(-0.96 -80)" fill="#5a5a5a"/>
      </g>
    </g>
    <g id="Group_71765" data-name="Group 71765" transform="translate(0.073 94.057)">
      <g id="Group_71764" data-name="Group 71764">
        <path id="Path_14730" data-name="Path 14730" d="M22.754,277.922,19.57,280.04a1.12,1.12,0,0,1-1.237,0l-3.184-2.12L1.024,286.945A2.226,2.226,0,0,0,3.2,288.863H34.7a2.226,2.226,0,0,0,2.178-1.918Z" transform="translate(-1.024 -277.92)" fill="#5a5a5a"/>
      </g>
    </g>
  </g>
</svg>
