<svg id="correct" xmlns="http://www.w3.org/2000/svg" width="24" height="24" viewBox="0 0 24 24">
  <path id="Path_13945" data-name="Path 13945" d="M12,0A12,12,0,1,0,24,12,12.011,12.011,0,0,0,12,0Z" fill="#f4f5fe" fill-rule="evenodd"/>
  <path id="Path_13946" data-name="Path 13946" d="M140.932,165.278a1.189,1.189,0,0,1,0,1.45l-7.958,9.626a.747.747,0,0,1-1.2,0l-3.979-4.813a1.189,1.189,0,0,1,0-1.45.751.751,0,0,1,1.2,0l3.379,4.088,7.358-8.9A.744.744,0,0,1,140.932,165.278Z" transform="translate(-122.364 -158.816)" fill="#2a6ab4" fill-rule="evenodd"/>
</svg>
