<svg xmlns="http://www.w3.org/2000/svg" width="80" height="80" viewBox="0 0 80 80">
  <g id="Group_69050" data-name="Group 69050" transform="translate(-200 -11393)">
    <circle id="Ellipse_446" data-name="Ellipse 446" cx="40" cy="40" r="40" transform="translate(200 11393)" fill="rgba(159,133,236,0.1)"/>
    <g id="Download" transform="translate(221 11413)">
      <path id="Path_8441" data-name="Path 8441" d="M31.25,27.5a1.25,1.25,0,0,0,1.25-1.25v-20A6.25,6.25,0,0,0,26.25,0h-15A6.25,6.25,0,0,0,5,6.25v27.5A6.25,6.25,0,0,0,11.25,40h15a6.25,6.25,0,0,0,6.25-6.25v-2.5a1.25,1.25,0,0,0-2.5,0v2.5a3.75,3.75,0,0,1-3.75,3.75h-15A3.75,3.75,0,0,1,7.5,33.75V6.25A3.75,3.75,0,0,1,10,2.725v.788A3.988,3.988,0,0,0,13.988,7.5h9.525A3.988,3.988,0,0,0,27.5,3.512V2.725A3.75,3.75,0,0,1,30,6.25v20A1.25,1.25,0,0,0,31.25,27.5ZM25,3.512A1.487,1.487,0,0,1,23.512,5H13.988A1.488,1.488,0,0,1,12.5,3.512V2.5H25Z" transform="translate(0)" fill="#5a5a5a"/>
      <g id="Group_65998" data-name="Group 65998" transform="translate(12.857 13.125)">
        <path id="Path_8442" data-name="Path 8442" d="M20.8,18a.982.982,0,0,0-.982.982v.982a.982.982,0,0,1-.982.982H12.946a.982.982,0,0,1-.982-.982v-.982a.982.982,0,1,0-1.964,0v.982a2.946,2.946,0,0,0,2.946,2.946h5.893a2.946,2.946,0,0,0,2.946-2.946v-.982A.982.982,0,0,0,20.8,18Z" transform="translate(-10 -9.161)" fill="#5a5a5a"/>
        <path id="Path_8443" data-name="Path 8443" d="M15.231,18.537a.982.982,0,0,0,1.395,0l2.946-2.946A.986.986,0,1,0,18.178,14.2l-1.267,1.277V9.982a.982.982,0,0,0-1.964,0v5.49L13.679,14.2a.986.986,0,0,0-1.395,1.395Z" transform="translate(-10.036 -9)" fill="#5a5a5a"/>
      </g>
    </g>
  </g>
</svg>
