<svg xmlns="http://www.w3.org/2000/svg" width="163.143" height="32.029" viewBox="0 0 163.143 32.029">
  <path id="Glassdoor_New_2023" data-name="Glassdoor New 2023" d="M229.968,240.158h6.17a.087.087,0,0,0,.084-.091v-6.086a4.437,4.437,0,0,0-1.491-3.542A6.8,6.8,0,0,0,230.6,229.1a.083.083,0,0,0-.084.087v2.3a.086.086,0,0,0,.075.087c1.613.113,2.841.633,2.841,2.448l-3.467,0a.087.087,0,0,0-.084.091v5.962A.09.09,0,0,0,229.968,240.158ZM96.491,245.084H89.008a.2.2,0,0,0-.192.209v4.018a.2.2,0,0,0,.192.209h2.659v3.235c0,2.405-.588,3.7-2.659,3.7-1.73,0-2.956-1.048-2.956-4.309v-9.4c0-3.12.931-4.583,2.989-4.583,1.857,0,2.614,1.142,2.614,3.27v1.21a.2.2,0,0,0,.192.206h4.6a.2.2,0,0,0,.192-.206v-1.418c.042-5.054-2.647-7.727-7.514-7.727s-8.037,2.891-8.037,8.972v10.053c0,5.988,3.692,8.592,7.79,8.592,4.59,0,7.79-1.807,7.79-8.5v-7.338a.2.2,0,0,0-.181-.206h0A.041.041,0,0,1,96.491,245.084Zm14.324,10.709H103.62V234.21a.2.2,0,0,0-.192-.209H98.9a.2.2,0,0,0-.19.209v26.224a.2.2,0,0,0,.19.206h11.9a.2.2,0,0,0,.192-.206v-4.421a.2.2,0,0,0-.192-.209h.012Zm67.607-13.253c0-6.046,3.106-9,7.856-9,4.686,0,7.835,2.959,7.814,9v9.581c0,6.128-2.914,8.948-7.814,8.948s-7.856-2.764-7.856-8.948Zm7.856,13.935c1.986,0,2.809-1.451,2.809-4.536v-9.181c0-3.085-.8-4.583-2.809-4.583s-2.809,1.554-2.809,4.583v9.181C183.472,255.035,184.292,256.475,186.278,256.475Zm17.583-22.93c-4.75,0-7.856,2.949-7.856,9v9.581c0,6.187,2.956,8.948,7.856,8.948s7.814-2.82,7.814-8.948V242.54C211.7,236.506,208.545,233.545,203.861,233.545Zm2.806,18.394c0,3.085-.823,4.536-2.809,4.536s-2.809-1.439-2.809-4.536v-9.181c0-3.029.8-4.583,2.809-4.583s2.809,1.5,2.809,4.583Zm-44.829-17.944h6.787v.023c4.59,0,8.048,2.523,8.048,8.742v9.134c0,6.161-3.374,8.742-8.1,8.742h-6.733a.2.2,0,0,1-.192-.209v-26.2A.21.21,0,0,1,161.838,233.995Zm6.52,21.789c2.049,0,3.331-1.407,3.331-4.689l.009.012v-8c0-3.317-1.346-4.654-3.383-4.654h-1.868v17.334ZM137.084,233.5h-.075c-4.675,0-7.141,2.879-7.141,7.2,0,4.5,2.9,6.588,5.3,8.313l.464.335.556.4,0,0,0,0c1.69,1.224,3,2.166,3,4.246a2.212,2.212,0,0,1-2.307,2.464,2.361,2.361,0,0,1-2.358-2.511V251.66a.258.258,0,0,0-.256-.263h-4.377a.253.253,0,0,0-.256.265v2.326c0,4.595,2.583,7.141,7.132,7.141s7.3-2.6,7.3-7.176c0-4.761-2.82-6.817-5.277-8.613l-.082-.061c-.267-.2-.539-.389-.811-.581-1.683-1.2-3.247-2.307-3.247-4.037A2.276,2.276,0,0,1,137,238.137a2.3,2.3,0,0,1,2.316,2.431v2.026a.26.26,0,0,0,.258.265h4.377a.253.253,0,0,0,.256-.265v-1.969C144.215,236.114,141.494,233.521,137.084,233.5Zm15.721,0h.075c4.41.023,7.12,2.614,7.12,7.129V242.6a.251.251,0,0,1-.256.263h-4.377a.259.259,0,0,1-.256-.263h0v-2.028a2.3,2.3,0,0,0-2.316-2.431,2.277,2.277,0,0,0-2.349,2.523c0,1.728,1.564,2.839,3.247,4.037.27.19.542.384.811.581l.082.061c2.457,1.793,5.277,3.852,5.277,8.613,0,4.572-2.755,7.176-7.3,7.176s-7.132-2.546-7.132-7.141V251.66a.254.254,0,0,1,.256-.265h4.377a.26.26,0,0,1,.256.265v2.29a2.36,2.36,0,0,0,2.358,2.511A2.214,2.214,0,0,0,154.985,254c0-2.079-1.306-3.022-3-4.246-.183-.131-.37-.267-.558-.408l-.459-.331,0,0c-2.4-1.725-5.3-3.817-5.3-8.313,0-4.321,2.466-7.2,7.141-7.2Zm75.411,8.7V240a5.819,5.819,0,0,0-5.551-5.988h-8.817a.2.2,0,0,0-.192.206v26.2a.2.2,0,0,0,.192.206h4.311a.2.2,0,0,0,.192-.206V249.512h2.115c1.965,0,2.583.783,2.583,2.776V260.4a.2.2,0,0,0,.192.206h4.452a.206.206,0,0,0,.2-.206v-7.959c0-2.719-.694-4.459-2.464-5.172C227.213,246.481,228.217,244.915,228.217,242.2Zm-4.825.921a1.893,1.893,0,0,1-1.815,1.969H218.3V238.43h3.277a1.888,1.888,0,0,1,1.815,1.958Zm-104.819-9.11h4.59a.207.207,0,0,1,.192.173l5.957,26.168a.21.21,0,0,1-.192.288h-4.4a.218.218,0,0,1-.192-.173l-.94-4.686H118.1l-.938,4.686a.2.2,0,0,1-.192.173h-4.4a.223.223,0,0,1-.192-.286l6-26.168A.194.194,0,0,1,118.573,234.009Zm2.232,8.315-1.815,9.054h3.671l-1.815-9.054-.021.127ZM79.335,234h-6.17a.087.087,0,0,0-.084.089v5.962a.089.089,0,0,0,.084.091h3.467c0,1.815-1.228,2.335-2.841,2.448a.083.083,0,0,0-.075.087v2.3a.084.084,0,0,0,.084.084,6.806,6.806,0,0,0,4.131-1.339,4.441,4.441,0,0,0,1.491-3.542v-6.086a.087.087,0,0,0-.087-.089Z" transform="translate(-73.08 -229.1)" fill="#00a264" fill-rule="evenodd"/>
</svg>
