<svg id="google_play_download_btn" data-name="google play download btn" xmlns="http://www.w3.org/2000/svg" width="200" height="60" viewBox="0 0 200 60">
  <g id="Group_69016" data-name="Group 69016">
    <path id="Path_14264" data-name="Path 14264" d="M271.424,194.314l-7.517-4.338-6.182,5.976,5.65,5.462,8.049-4.646a1.417,1.417,0,0,0,0-2.454" transform="translate(-223.95 -165.08)" fill="#ffd109"/>
    <path id="Path_14265" data-name="Path 14265" d="M120.111,91.093l-8.272-4.775L93.71,77.028l20.476,19.793Z" transform="translate(-81.429 -66.933)" fill="#06ef79"/>
    <path id="Path_14266" data-name="Path 14266" d="M96.006,262.6l17.859-9.838,7.709-4.45L116.18,243.1Z" transform="translate(-83.424 -211.24)" fill="#f93646"/>
    <path id="Path_14267" data-name="Path 14267" d="M84.351,83.139l-.019,39.973,20.685-20Z" transform="translate(-73.28 -72.243)" fill="#05d5fb"/>
    <path id="Path_14268" data-name="Path 14268" d="M192.269,1.31a6.367,6.367,0,0,1,6.4,6.316V52.373a6.367,6.367,0,0,1-6.4,6.316H7.731a6.367,6.367,0,0,1-6.4-6.316V7.626a6.367,6.367,0,0,1,6.4-6.316Zm0-1.31H7.731A7.679,7.679,0,0,0,0,7.626V52.373A7.679,7.679,0,0,0,7.731,60H192.269A7.679,7.679,0,0,0,200,52.373V7.626A7.679,7.679,0,0,0,192.269,0"/>
    <path id="Path_14269" data-name="Path 14269" d="M415.078,224.351h2.752v6.241a8.739,8.739,0,0,1-2.819,1.476,10.818,10.818,0,0,1-3.311.515,8.928,8.928,0,0,1-4.317-1.04,7.724,7.724,0,0,1-3.02-2.875,8.36,8.36,0,0,1,0-8.277,7.708,7.708,0,0,1,3.031-2.875,9.041,9.041,0,0,1,4.351-1.04,9.5,9.5,0,0,1,3.579.649,7.027,7.027,0,0,1,2.707,1.9l-1.834,1.79a5.885,5.885,0,0,0-4.317-1.79,6.1,6.1,0,0,0-2.942.694,5.055,5.055,0,0,0-2.013,1.946,5.6,5.6,0,0,0-.727,2.863,5.51,5.51,0,0,0,.727,2.819,5.208,5.208,0,0,0,2.013,1.968,5.9,5.9,0,0,0,2.919.716,6.3,6.3,0,0,0,3.221-.805Z" transform="translate(-350.419 -188.108)"/>
    <path id="Path_14270" data-name="Path 14270" d="M537.109,256.95a5.7,5.7,0,0,1-2.271-2.181,6.522,6.522,0,0,1,0-6.32,5.733,5.733,0,0,1,2.271-2.17,7.251,7.251,0,0,1,6.554,0,5.737,5.737,0,0,1,2.271,2.17,6.522,6.522,0,0,1,0,6.32,5.709,5.709,0,0,1-2.271,2.181,7.251,7.251,0,0,1-6.554,0m5.816-2.64a4.142,4.142,0,0,0,0-5.414,3.417,3.417,0,0,0-2.55-1.029,3.38,3.38,0,0,0-2.539,1.029,4.178,4.178,0,0,0,0,5.414,3.379,3.379,0,0,0,2.539,1.029,3.416,3.416,0,0,0,2.55-1.029" transform="translate(-464.039 -213.324)"/>
    <path id="Path_14271" data-name="Path 14271" d="M647.209,256.95a5.7,5.7,0,0,1-2.271-2.181,6.522,6.522,0,0,1,0-6.32,5.733,5.733,0,0,1,2.271-2.17,7.251,7.251,0,0,1,6.554,0,5.737,5.737,0,0,1,2.271,2.17,6.522,6.522,0,0,1,0,6.32,5.709,5.709,0,0,1-2.271,2.181,7.251,7.251,0,0,1-6.554,0m5.816-2.64a4.143,4.143,0,0,0,0-5.414,3.417,3.417,0,0,0-2.55-1.029,3.38,3.38,0,0,0-2.539,1.029,4.177,4.177,0,0,0,0,5.414,3.379,3.379,0,0,0,2.539,1.029,3.416,3.416,0,0,0,2.55-1.029" transform="translate(-559.71 -213.324)"/>
    <path id="Path_14272" data-name="Path 14272" d="M767.063,245.631v10.134q0,6.308-6.443,6.308a11.955,11.955,0,0,1-3.266-.436,6.932,6.932,0,0,1-2.55-1.264l1.253-2.1a5.985,5.985,0,0,0,1.98,1.04,7.767,7.767,0,0,0,2.427.391,4.008,4.008,0,0,0,2.886-.895,3.658,3.658,0,0,0,.917-2.729v-.626a4.6,4.6,0,0,1-1.745,1.186,6.149,6.149,0,0,1-2.259.4,6.48,6.48,0,0,1-3.076-.727,5.458,5.458,0,0,1-2.17-2.047,6.118,6.118,0,0,1,0-6.029,5.408,5.408,0,0,1,2.17-2.024,6.564,6.564,0,0,1,3.076-.716,6.307,6.307,0,0,1,2.36.425,4.358,4.358,0,0,1,1.779,1.3v-1.588Zm-3.77,8.087a3.227,3.227,0,0,0,1.018-2.472,3.167,3.167,0,0,0-1.018-2.438,4.115,4.115,0,0,0-5.235,0,3.166,3.166,0,0,0-1.018,2.438,3.227,3.227,0,0,0,1.018,2.472,4.078,4.078,0,0,0,5.235,0" transform="translate(-655.382 -213.325)"/>
    <rect id="Rectangle_6740" data-name="Rectangle 6740" width="2.796" height="16.599" transform="translate(115.349 27.653)"/>
    <path id="Path_14273" data-name="Path 14273" d="M934.185,252.5h-9.373a3.247,3.247,0,0,0,1.286,2.092,4.216,4.216,0,0,0,2.583.772,4.354,4.354,0,0,0,3.244-1.3l1.5,1.723a5.047,5.047,0,0,1-2.036,1.454,8.068,8.068,0,0,1-6.241-.291,5.635,5.635,0,0,1-2.315-2.181,6.158,6.158,0,0,1-.816-3.165,6.248,6.248,0,0,1,.794-3.143,5.632,5.632,0,0,1,2.2-2.181,6.43,6.43,0,0,1,3.176-.783,6.268,6.268,0,0,1,3.121.772,5.467,5.467,0,0,1,2.148,2.17,6.58,6.58,0,0,1,.772,3.232q0,.291-.045.828m-8.266-3.971a3.341,3.341,0,0,0-1.13,2.114h6.778a3.3,3.3,0,0,0-1.1-2.1,3.335,3.335,0,0,0-2.282-.805,3.374,3.374,0,0,0-2.271.794" transform="translate(-801.186 -213.324)"/>
    <path id="Path_14274" data-name="Path 14274" d="M1094.849,218.855a5.155,5.155,0,0,1,2.315,1.924,5.878,5.878,0,0,1,0,5.939,5.129,5.129,0,0,1-2.315,1.935,8.67,8.67,0,0,1-3.546.671h-3.535v4.519h-2.908V218.184h6.443a8.668,8.668,0,0,1,3.546.671m-.794,7.2a3.189,3.189,0,0,0,0-4.608,4.467,4.467,0,0,0-2.886-.805h-3.4v6.219h3.4a4.467,4.467,0,0,0,2.886-.805" transform="translate(-942.69 -189.591)"/>
    <rect id="Rectangle_6741" data-name="Rectangle 6741" width="2.796" height="16.599" transform="translate(158.143 27.653)"/>
    <path id="Path_14275" data-name="Path 14275" d="M1259.034,246.761a4.886,4.886,0,0,1,1.4,3.814v7h-2.64v-1.454a3.254,3.254,0,0,1-1.465,1.2,5.732,5.732,0,0,1-2.293.414,5.619,5.619,0,0,1-2.349-.459,3.626,3.626,0,0,1-1.555-1.275,3.232,3.232,0,0,1-.548-1.846,3.163,3.163,0,0,1,1.2-2.584,5.943,5.943,0,0,1,3.77-.973h3.087v-.179a2.449,2.449,0,0,0-.749-1.924,3.242,3.242,0,0,0-2.226-.671,6.431,6.431,0,0,0-1.98.313,4.877,4.877,0,0,0-1.644.873l-1.1-2.036a6.791,6.791,0,0,1,2.26-1.1,10.056,10.056,0,0,1,2.8-.38,5.826,5.826,0,0,1,4.038,1.264m-2.55,8.456a2.617,2.617,0,0,0,1.152-1.376v-1.387h-2.886q-2.416,0-2.416,1.588a1.425,1.425,0,0,0,.6,1.208,2.768,2.768,0,0,0,1.678.447,3.609,3.609,0,0,0,1.868-.481" transform="translate(-1085.826 -213.325)"/>
    <path id="Path_14276" data-name="Path 14276" d="M1354.478,246.52l-5.593,12.908a6.01,6.01,0,0,1-1.9,2.74,4.556,4.556,0,0,1-2.707.794,5.565,5.565,0,0,1-1.767-.291,3.912,3.912,0,0,1-1.432-.805l1.119-2.058a3.043,3.043,0,0,0,.951.6,2.911,2.911,0,0,0,1.107.224,1.906,1.906,0,0,0,1.219-.38,3.366,3.366,0,0,0,.884-1.275l.2-.47-5.212-11.99h2.908l3.758,8.836,3.781-8.836Z" transform="translate(-1165.33 -214.214)"/>
    <path id="Path_14277" data-name="Path 14277" d="M407.747,87.246a3.865,3.865,0,0,1-1.766-.413,4.669,4.669,0,0,1-1.428-1.11,5.249,5.249,0,0,1-.947-1.57,4.954,4.954,0,0,1-.338-1.807,5.092,5.092,0,0,1,1.279-3.4,4.383,4.383,0,0,1,1.421-1.062,4.123,4.123,0,0,1,1.78-.386,4.187,4.187,0,0,1,2.3.582,3.741,3.741,0,0,1,1.367,1.516l-.934.649a2.813,2.813,0,0,0-1.15-1.245,3.259,3.259,0,0,0-1.61-.406,2.82,2.82,0,0,0-1.326.311,3.178,3.178,0,0,0-1.022.846,3.872,3.872,0,0,0-.649,1.211,4.461,4.461,0,0,0-.223,1.407,4.191,4.191,0,0,0,.25,1.455,3.747,3.747,0,0,0,.71,1.2,3.416,3.416,0,0,0,1.069.819,2.947,2.947,0,0,0,1.313.3,3.149,3.149,0,0,0,1.57-.419,4.753,4.753,0,0,0,1.407-1.285V85.7a3.907,3.907,0,0,1-3.072,1.543m2.923-3.938H408.6v-.92h3.1v4.79H410.67Z" transform="translate(-350.42 -67.346)"/>
    <path id="Path_14278" data-name="Path 14278" d="M488.266,86.545v1.083h-6.522V78.02h6.4V79.1h-5.183v3.112h4.506v1.015h-4.506v3.315Z" transform="translate(-418.611 -67.795)"/>
    <path id="Path_14279" data-name="Path 14279" d="M545.042,79.1h-3.315v8.525h-1.218V79.1h-3.315V78.019h7.849Z" transform="translate(-466.794 -67.795)"/>
    <path id="Path_14280" data-name="Path 14280" d="M657.042,79.1h-3.315v8.525h-1.218V79.1h-3.315V78.019h7.849Z" transform="translate(-564.117 -67.795)"/>
    <rect id="Rectangle_6742" data-name="Rectangle 6742" width="1.218" height="9.608" transform="translate(82.645 10.224)"/>
    <path id="Path_14281" data-name="Path 14281" d="M745.892,87.246a4.113,4.113,0,0,1-1.84-.406,4.48,4.48,0,0,1-1.428-1.1,5.17,5.17,0,0,1-1.252-3.363,4.941,4.941,0,0,1,.345-1.834,5.108,5.108,0,0,1,.961-1.556,4.644,4.644,0,0,1,1.441-1.083,4.08,4.08,0,0,1,1.8-.4,4,4,0,0,1,1.84.419,4.538,4.538,0,0,1,1.421,1.123,5.29,5.29,0,0,1,.92,1.57,5.056,5.056,0,0,1-.968,5.163,4.554,4.554,0,0,1-1.441,1.076,4.136,4.136,0,0,1-1.8.392M742.6,82.375a4.288,4.288,0,0,0,.237,1.414A3.9,3.9,0,0,0,743.51,85a3.24,3.24,0,0,0,1.042.839,2.928,2.928,0,0,0,1.353.311,2.886,2.886,0,0,0,1.38-.325,3.249,3.249,0,0,0,1.035-.866,3.949,3.949,0,0,0,.649-1.218,4.33,4.33,0,0,0,.223-1.367,4.233,4.233,0,0,0-.237-1.407,3.942,3.942,0,0,0-.676-1.211,3.223,3.223,0,0,0-1.042-.839,3.113,3.113,0,0,0-2.713.013,3.178,3.178,0,0,0-1.035.859A4.087,4.087,0,0,0,742.833,81a4.194,4.194,0,0,0-.23,1.374" transform="translate(-644.216 -67.346)"/>
    <path id="Path_14282" data-name="Path 14282" d="M824.576,80.266v7.361h-1.218V78.019h1.028l5.873,7.51v-7.5h1.218v9.594h-1.11Z" transform="translate(-715.458 -67.795)"/>
  </g>
</svg>
