<svg xmlns="http://www.w3.org/2000/svg" width="145.579" height="32.632" viewBox="0 0 145.579 32.632">
  <g id="Group_69016" data-name="Group 69016" transform="translate(-11.052 -10.094)">
    <g id="Group_71783" data-name="Group 71783" transform="translate(11.052 10.094)">
      <path id="Path_14264" data-name="Path 14264" d="M268.558,193.406l-5.944-3.43-4.889,4.726,4.468,4.319,6.365-3.674a1.121,1.121,0,0,0,0-1.941" transform="translate(-239.757 -178.271)" fill="#ffd109"/>
      <path id="Path_14265" data-name="Path 14265" d="M114.587,88.15l-6.542-3.776L93.71,77.028,109.9,92.68Z" transform="translate(-92.739 -77.028)" fill="#06ef79"/>
      <path id="Path_14266" data-name="Path 14266" d="M96.006,258.519l14.122-7.78,6.1-3.519-4.264-4.123Z" transform="translate(-94.796 -225.887)" fill="#f93646"/>
      <path id="Path_14267" data-name="Path 14267" d="M84.347,83.139l-.015,31.61,16.358-15.813Z" transform="translate(-84.331 -82.505)" fill="#05d5fb"/>
    </g>
    <g id="Group_71782" data-name="Group 71782" transform="translate(48.847 17.653)">
      <path id="Path_14269" data-name="Path 14269" d="M412.607,222.7h2.176v4.935a6.91,6.91,0,0,1-2.229,1.168,8.554,8.554,0,0,1-2.618.407,7.06,7.06,0,0,1-3.414-.823,6.108,6.108,0,0,1-2.388-2.273,6.611,6.611,0,0,1,0-6.545,6.1,6.1,0,0,1,2.4-2.273,7.149,7.149,0,0,1,3.441-.823,7.514,7.514,0,0,1,2.83.513,5.557,5.557,0,0,1,2.141,1.5l-1.451,1.415a4.653,4.653,0,0,0-3.414-1.415,4.825,4.825,0,0,0-2.326.548,4,4,0,0,0-1.592,1.539,4.426,4.426,0,0,0-.575,2.264,4.356,4.356,0,0,0,.575,2.229,4.118,4.118,0,0,0,1.592,1.557,4.663,4.663,0,0,0,2.308.566,4.982,4.982,0,0,0,2.547-.637Z" transform="translate(-403.267 -215.911)"/>
      <path id="Path_14270" data-name="Path 14270" d="M536.463,254.553a4.511,4.511,0,0,1-1.8-1.725,5.158,5.158,0,0,1,0-5,4.534,4.534,0,0,1,1.8-1.716,5.734,5.734,0,0,1,5.183,0,4.537,4.537,0,0,1,1.8,1.716,5.157,5.157,0,0,1,0,5,4.514,4.514,0,0,1-1.8,1.725,5.734,5.734,0,0,1-5.183,0m4.6-2.087a3.276,3.276,0,0,0,0-4.281,2.7,2.7,0,0,0-2.017-.814,2.673,2.673,0,0,0-2.008.814,3.3,3.3,0,0,0,0,4.281,2.672,2.672,0,0,0,2.008.814,2.7,2.7,0,0,0,2.017-.814" transform="translate(-520.471 -241.923)"/>
      <path id="Path_14271" data-name="Path 14271" d="M646.563,254.553a4.51,4.51,0,0,1-1.8-1.725,5.157,5.157,0,0,1,0-5,4.533,4.533,0,0,1,1.8-1.716,5.734,5.734,0,0,1,5.183,0,4.537,4.537,0,0,1,1.8,1.716,5.158,5.158,0,0,1,0,5,4.515,4.515,0,0,1-1.8,1.725,5.734,5.734,0,0,1-5.183,0m4.6-2.087a3.276,3.276,0,0,0,0-4.281,2.7,2.7,0,0,0-2.017-.814,2.673,2.673,0,0,0-2.008.814,3.3,3.3,0,0,0,0,4.281,2.672,2.672,0,0,0,2.008.814,2.7,2.7,0,0,0,2.017-.814" transform="translate(-619.162 -241.923)"/>
      <path id="Path_14272" data-name="Path 14272" d="M764.376,245.6v8.013q0,4.989-5.095,4.989a9.454,9.454,0,0,1-2.583-.345,5.482,5.482,0,0,1-2.017-1l.991-1.663a4.733,4.733,0,0,0,1.566.823,6.142,6.142,0,0,0,1.919.31,3.169,3.169,0,0,0,2.282-.708,2.892,2.892,0,0,0,.725-2.158v-.5a3.635,3.635,0,0,1-1.38.938,4.862,4.862,0,0,1-1.787.318,5.124,5.124,0,0,1-2.432-.575,4.316,4.316,0,0,1-1.716-1.619,4.838,4.838,0,0,1,0-4.767,4.276,4.276,0,0,1,1.716-1.6A5.191,5.191,0,0,1,759,245.5a4.988,4.988,0,0,1,1.866.336,3.446,3.446,0,0,1,1.406,1.026V245.6ZM761.4,252a2.552,2.552,0,0,0,.8-1.955,2.5,2.5,0,0,0-.8-1.928,3.254,3.254,0,0,0-4.139,0,2.5,2.5,0,0,0-.8,1.928,2.551,2.551,0,0,0,.8,1.955,3.225,3.225,0,0,0,4.139,0" transform="translate(-717.851 -241.923)"/>
      <rect id="Rectangle_6740" data-name="Rectangle 6740" width="2.211" height="13.126" transform="translate(49.426 0)"/>
      <path id="Path_14273" data-name="Path 14273" d="M931.639,251.033h-7.412a2.568,2.568,0,0,0,1.017,1.654,3.334,3.334,0,0,0,2.043.61,3.443,3.443,0,0,0,2.565-1.026l1.185,1.362a3.991,3.991,0,0,1-1.61,1.15,6.38,6.38,0,0,1-4.935-.23,4.456,4.456,0,0,1-1.831-1.725,4.87,4.87,0,0,1-.646-2.5,4.941,4.941,0,0,1,.628-2.485,4.454,4.454,0,0,1,1.742-1.725,5.085,5.085,0,0,1,2.512-.619,4.956,4.956,0,0,1,2.468.61,4.323,4.323,0,0,1,1.7,1.716,5.2,5.2,0,0,1,.61,2.556q0,.23-.035.655m-6.536-3.14a2.641,2.641,0,0,0-.893,1.672h5.36a2.609,2.609,0,0,0-.867-1.663,2.637,2.637,0,0,0-1.8-.637,2.668,2.668,0,0,0-1.8.628" transform="translate(-868.256 -241.923)"/>
      <path id="Path_14274" data-name="Path 14274" d="M1092.759,218.715a4.077,4.077,0,0,1,1.831,1.521,4.648,4.648,0,0,1,0,4.7,4.057,4.057,0,0,1-1.831,1.53,6.855,6.855,0,0,1-2.8.531h-2.8v3.573h-2.3V218.184h5.095a6.853,6.853,0,0,1,2.8.531m-.628,5.7a2.522,2.522,0,0,0,0-3.644,3.533,3.533,0,0,0-2.282-.637h-2.689v4.918h2.689a3.533,3.533,0,0,0,2.282-.637" transform="translate(-1014.225 -217.441)"/>
      <rect id="Rectangle_6741" data-name="Rectangle 6741" width="2.211" height="13.126" transform="translate(83.265 0)"/>
      <path id="Path_14275" data-name="Path 14275" d="M1257.057,246.5a3.864,3.864,0,0,1,1.106,3.016v5.537h-2.088V253.9a2.573,2.573,0,0,1-1.159.946,4.533,4.533,0,0,1-1.813.327,4.443,4.443,0,0,1-1.857-.363,2.867,2.867,0,0,1-1.229-1.008,2.556,2.556,0,0,1-.433-1.459,2.5,2.5,0,0,1,.946-2.043,4.7,4.7,0,0,1,2.981-.77h2.441v-.141a1.936,1.936,0,0,0-.593-1.521,2.564,2.564,0,0,0-1.76-.531,5.084,5.084,0,0,0-1.566.248,3.856,3.856,0,0,0-1.3.69l-.867-1.61a5.371,5.371,0,0,1,1.787-.867,7.952,7.952,0,0,1,2.211-.3,4.607,4.607,0,0,1,3.193,1m-2.017,6.687a2.07,2.07,0,0,0,.911-1.088V251h-2.282q-1.911,0-1.911,1.256a1.127,1.127,0,0,0,.478.955,2.189,2.189,0,0,0,1.327.354,2.854,2.854,0,0,0,1.477-.38" transform="translate(-1161.878 -241.923)"/>
      <path id="Path_14276" data-name="Path 14276" d="M1351.674,246.52l-4.423,10.207a4.751,4.751,0,0,1-1.5,2.167,3.6,3.6,0,0,1-2.14.628,4.4,4.4,0,0,1-1.4-.23,3.1,3.1,0,0,1-1.132-.637l.885-1.628a2.4,2.4,0,0,0,.752.478,2.3,2.3,0,0,0,.876.177,1.508,1.508,0,0,0,.964-.3,2.662,2.662,0,0,0,.7-1.008l.159-.372-4.122-9.482h2.3l2.972,6.988,2.99-6.988Z" transform="translate(-1243.891 -242.841)"/>
    </g>
  </g>
</svg>
