<svg id="instagram_1_" data-name="instagram (1)" xmlns="http://www.w3.org/2000/svg" width="30" height="30" viewBox="0 0 30 30">
  <path id="Path_9024" data-name="Path 9024" d="M216.273,213.637A2.637,2.637,0,1,1,213.637,211,2.637,2.637,0,0,1,216.273,213.637Zm0,0" transform="translate(-198.637 -198.637)" fill="#2a6ab4"/>
  <path id="Path_9025" data-name="Path 9025" d="M132.422,120h-8.906A3.519,3.519,0,0,0,120,123.516v8.906a3.519,3.519,0,0,0,3.516,3.516h8.906a3.519,3.519,0,0,0,3.516-3.516v-8.906A3.519,3.519,0,0,0,132.422,120Zm-4.453,12.363a4.395,4.395,0,1,1,4.395-4.395A4.4,4.4,0,0,1,127.969,132.363Zm5.039-8.555a.879.879,0,1,1,.879-.879A.879.879,0,0,1,133.008,123.809Zm0,0" transform="translate(-112.969 -112.969)" fill="#2a6ab4"/>
  <path id="Path_9026" data-name="Path 9026" d="M22.09,0H7.91A7.919,7.919,0,0,0,0,7.91V22.09A7.919,7.919,0,0,0,7.91,30H22.09A7.919,7.919,0,0,0,30,22.09V7.91A7.919,7.919,0,0,0,22.09,0Zm2.637,19.453a5.28,5.28,0,0,1-5.273,5.273H10.547a5.28,5.28,0,0,1-5.273-5.273V10.547a5.279,5.279,0,0,1,5.273-5.273h8.906a5.28,5.28,0,0,1,5.273,5.273Zm0,0" fill="#2a6ab4"/>
</svg>
