<svg xmlns="http://www.w3.org/2000/svg" width="30" height="30" viewBox="0 0 30 30">
  <g id="InterfaceIcon" transform="translate(-0.156 -0.157)">
    <g id="_20.Telephone" data-name="20.Telephone">
      <rect id="Background" width="30" height="30" rx="15" transform="translate(30.156 0.157) rotate(90)" fill="#2c6bb3"/>
      <g id="_20.Telephone-2" data-name="20.Telephone" transform="translate(6.275 6.276)">
        <path id="Path_23175" data-name="Path 23175" d="M122.654,128.576c.584.826.877,2.387-.689,3.952-2.884,2.884-7.886.5-11.528-3.162-3.659-3.642-6.046-8.644-3.162-11.528,1.566-1.566,3.127-1.272,3.952-.689,1.283.908,2.986,2.806,1.355,4.848-.236.295-.5.615-.723.871a1.039,1.039,0,0,0-.139,1.142,9.174,9.174,0,0,0,4.071,4.071,1.04,1.04,0,0,0,1.142-.139c.256-.219.577-.487.871-.723C119.849,125.589,121.747,127.292,122.654,128.576Z" transform="translate(-105.995 -116.049)" fill="#fff"/>
        <path id="Path_23176" data-name="Path 23176" d="M261.731,108.247a7.384,7.384,0,0,1,2.214,5.9.846.846,0,1,1-1.688-.108,5.927,5.927,0,0,0-6.319-6.319.846.846,0,1,1-.108-1.688A7.385,7.385,0,0,1,261.731,108.247Z" transform="translate(-246.215 -106.002)" fill="#fff"/>
        <path id="Path_23177" data-name="Path 23177" d="M261.906,165.722A4.2,4.2,0,0,1,263.135,169a.846.846,0,0,1-1.688-.111,2.541,2.541,0,0,0-2.707-2.707.846.846,0,1,1-.111-1.688A4.2,4.2,0,0,1,261.906,165.722Z" transform="translate(-248.849 -161.018)" fill="#fff"/>
      </g>
    </g>
  </g>
</svg>
