<svg xmlns="http://www.w3.org/2000/svg" width="100.488" height="102.402" viewBox="0 0 100.488 102.402">
  <g id="ISO_27001_Information_Security" data-name="ISO 27001 Information Security" transform="translate(0)">
    <path id="Path_14420" d="M285.055,122.51a35.6,35.6,0,1,1-.077,0Zm-11.968,53.881a35.653,35.653,0,0,1,23.87,0l1.11-4.175c.512,0,.981-.012,1.454,0a5.2,5.2,0,0,1,1.456.085,51.371,51.371,0,0,1-1.265,5.135c1.315.726,2.621,1.383,3.864,2.146s2.418,1.62,3.619,2.435a32.476,32.476,0,0,0-.056-47.844,37.021,37.021,0,0,1-7.445,4.55c.5,1.786.985,3.5,1.3,5.261H298.04c-.18-.711-.344-1.392-.525-2.066a14.654,14.654,0,0,0-.618-2.07,35.593,35.593,0,0,1-23.81-.012l-1.114,4.187c-.512,0-.985,0-1.456,0s-.962-.012-1.535-.021l1.342-5.295a36.342,36.342,0,0,1-7.42-4.546,32.478,32.478,0,0,0,0,47.884,37.361,37.361,0,0,1,7.458-4.558,51,51,0,0,1-1.321-5.257h2.947Zm22.848-39.321a2.816,2.816,0,0,0-.073-.344,28.034,28.034,0,0,0-3.681-6.829,13.039,13.039,0,0,0-3.675-3.443,6.375,6.375,0,0,0-6.641-.183,11.809,11.809,0,0,0-3.461,2.945,25.17,25.17,0,0,0-3.7,6.246c-.218.5-.417,1.016-.649,1.584a32.482,32.482,0,0,0,21.883.023Zm-21.848,42.081c.05.17.07.27.106.361a28.452,28.452,0,0,0,3.358,6.379,14.88,14.88,0,0,0,3.287,3.412,6.637,6.637,0,0,0,8.26.075,13.171,13.171,0,0,0,2.48-2.31,26.523,26.523,0,0,0,4.295-7.6,1.9,1.9,0,0,0,.058-.321A32.557,32.557,0,0,0,274.087,179.151Zm19.262,10.473a31.261,31.261,0,0,0,11.514-5.6,31.382,31.382,0,0,0-6.056-3.691c-.817,1.665-1.568,3.289-2.4,4.869a25.689,25.689,0,0,1-3.057,4.424Zm-16.622.012a24.325,24.325,0,0,1-3.071-4.4c-.85-1.593-1.6-3.237-2.416-4.907a31.462,31.462,0,0,0-6.06,3.694,31.465,31.465,0,0,0,11.547,5.614ZM298.7,135.878c1.574-.531,5.523-2.978,6.072-3.758a31.2,31.2,0,0,0-11.448-5.539,31.129,31.129,0,0,1,5.375,9.3ZM276.668,126.6a31.155,31.155,0,0,0-11.456,5.564,24.759,24.759,0,0,0,6.147,3.685A31.766,31.766,0,0,1,276.668,126.6Z" transform="translate(-234.816 -107.576)"/>
    <path id="Path_14421" d="M466.931,488.725a7.391,7.391,0,0,1-.674,3.125,5.461,5.461,0,0,1-4.766,3.225,6.366,6.366,0,0,1-2.2-.18,5.415,5.415,0,0,1-3.866-3.665,7.88,7.88,0,0,1-.025-5.039,5.534,5.534,0,0,1,4.973-3.918,6.1,6.1,0,0,1,3.582.711,5.6,5.6,0,0,1,2.764,3.907C466.835,487.491,466.862,488.114,466.931,488.725Zm-7.719-.068.1.008c0,.473-.031.948.006,1.419a6.024,6.024,0,0,0,.516,2.393,1.214,1.214,0,0,0,1.074.715,1.161,1.161,0,0,0,1.143-.7,4.031,4.031,0,0,0,.357-1.043,16.606,16.606,0,0,0,.091-4.975,6.49,6.49,0,0,0-.411-1.539,1.122,1.122,0,0,0-1.085-.771,1.233,1.233,0,0,0-1.178.745,2.566,2.566,0,0,0-.282.811c-.133.977-.228,1.956-.336,2.935Z" transform="translate(-397.758 -392.701)"/>
    <path id="Path_14422" d="M404.217,488.793a6.381,6.381,0,0,1-.624,3.175,5.47,5.47,0,0,1-4.919,3.188,6.165,6.165,0,0,1-2.781-.44,5.415,5.415,0,0,1-3.113-3.4,7.93,7.93,0,0,1-.05-4.981,5.528,5.528,0,0,1,5.17-3.994,5.693,5.693,0,0,1,4.826,1.879,6.154,6.154,0,0,1,1.483,3.652C404.238,488.173,404.217,488.484,404.217,488.793Zm-4.181.112c-.056-.871-.058-1.535-.151-2.182a8.368,8.368,0,0,0-.409-1.667,1.159,1.159,0,0,0-1.12-.825,1.208,1.208,0,0,0-1.195.819,4.235,4.235,0,0,0-.361,1.3c-.077,1.331-.122,2.669-.1,4a4.72,4.72,0,0,0,.5,2.209,1.209,1.209,0,0,0,2.186.054,3.039,3.039,0,0,0,.384-1.1c.127-.937.193-1.879.261-2.611Z" transform="translate(-348.107 -392.773)"/>
    <path id="Path_14423" d="M271.179,485.129a1.276,1.276,0,0,0,.214.066,1.3,1.3,0,0,1,1.319,1.282c0,.044,0,.087,0,.129a1.675,1.675,0,0,1-1.336,1.761,3.756,3.756,0,0,1-.863.044,1.773,1.773,0,0,1-1.725-1.632,3.5,3.5,0,0,1,1.147-3.121,5.537,5.537,0,0,1,3.366-1.389,6.8,6.8,0,0,1,4.347.859,3.678,3.678,0,0,1,1.725,4.146,3.106,3.106,0,0,1-1.508,1.954,11.628,11.628,0,0,1-2.727,1.147c-.689.212-1.387.4-2.061.651a2.631,2.631,0,0,0-1.522,1.149,3.813,3.813,0,0,0,.4-.12,5.2,5.2,0,0,1,3.555-.321,11.429,11.429,0,0,0,1.147.251c.836.124,1.17-.151,1.269-1.01.014-.122.021-.245.039-.446a13.252,13.252,0,0,1,1.925.008,5.6,5.6,0,0,1-.475,3.2,2.72,2.72,0,0,1-2.377,1.321,7.655,7.655,0,0,1-2.806-.338c-.593-.17-1.184-.361-1.788-.485s-1.211-.2-1.582.456h-2.047a4.97,4.97,0,0,1,.508-2.713,6.461,6.461,0,0,1,2.229-2.356c.695-.479,1.425-.908,2.134-1.365a8.042,8.042,0,0,0,.761-.529,2.069,2.069,0,0,0,.8-1.73,1.509,1.509,0,0,0-.921-1.419A2.783,2.783,0,0,0,271.179,485.129Z" transform="translate(-250.136 -392.674)"/>
    <path id="Path_14424" d="M336.271,483.04c.025.4.044.711.066,1.105a2.034,2.034,0,0,0,.23-.214,2.842,2.842,0,0,1,3.02-1.08,14.7,14.7,0,0,1,1.775.512c.353.108.7.23,1.051.353a.775.775,0,0,0,.836-.17l.207-.481h1.56a1.471,1.471,0,0,1-.048,1.035c-.363.827-.722,1.659-1.145,2.455-.541,1.016-1.163,1.991-1.717,3a10.977,10.977,0,0,0-1.222,4.932c-.008.2-.021.4-.033.639h-3.988a4.017,4.017,0,0,1-.044-1.408,7.177,7.177,0,0,1,2.153-4.664c.838-.823,1.709-1.611,2.561-2.418.191-.182.367-.379.655-.678-.245.056-.348.068-.446.1a5.363,5.363,0,0,1-2.625.112,12.329,12.329,0,0,0-1.4-.189,1.179,1.179,0,0,0-1.313,1.029c0,.006,0,.012,0,.017a6.79,6.79,0,0,0-.112.917c-.019.2-.019.4-.031.635H334.12v-5.514c.355-.008.7-.021,1.039-.027Z" transform="translate(-301.951 -393.134)"/>
    <path id="Path_14425" d="M528,485.7c1.147-.183,2.287-.355,2.87-1.549h3.094c.01.228.025.446.027.666q0,4.2,0,8.4c0,.145,0,.288,0,.433.021.63.216.84.859.879.3.019.612,0,.95,0a8.969,8.969,0,0,1,.052,1.618c-.491.122-6.827.164-7.841.056v-1.6c.568-.183,1.228.091,1.871-.33a2.754,2.754,0,0,0,.162-.68c.017-1.956.01-3.913.008-5.869a1.624,1.624,0,0,0-.064-.3H528Z" transform="translate(-455.623 -394.217)"/>
    <path id="Path_14426" d="M409.25,50.5l.908,3.706.133,0,1.006-3.646h2.484v6.3h-1.541V52.4c-.56,1.441-.9,2.943-1.356,4.44h-1.419l-1.1-4.533-.131,0c-.006.367-.015.734-.019,1.1s-.006.742-.01,1.114c0,.392,0,.784-.014,1.176-.017.365-.058.73-.093,1.151l-1.371-.075a48.977,48.977,0,0,1,0-6.276Z" transform="translate(-359.424 -50.5)"/>
    <path id="Path_14427" d="M557.057,112.33l-1.348-1.207.549-4.1-.108-.046-2.269,2.484-1.331-1.228,4.285-4.724,1.329,1.24-.57,4.106.1.056,2.3-2.505,1.352,1.211Z" transform="translate(-475.081 -92.516)"/>
    <path id="Path_14428" d="M270.841,92.76l-1.962-2.671L270.331,89l3.785,5.118-1.456,1.095L268.6,93.805c.693,1.047,1.4,1.91,2.068,2.862l-1.45,1.083-3.791-5.118,1.456-1.078,3.849,1.334Z" transform="translate(-247.506 -81.016)"/>
    <path id="Path_14429" d="M635.167,289.189a6,6,0,0,1-2.876,1.769v-2.093l2.018-1.033a1.043,1.043,0,0,0,.651-.695,2.273,2.273,0,0,0,0-.375h-2.514a9.994,9.994,0,0,1-.008-1.945c2.122-.075,4.2.133,6.329.106,0,.622.01,1.174,0,1.725-.017.68-.054,1.358-.085,2.037a3.7,3.7,0,0,1-.027.369,1.587,1.587,0,0,1-1.419,1.545,1.706,1.706,0,0,1-1.989-1.184C635.225,289.347,635.2,289.274,635.167,289.189Zm2.007-.6a1.911,1.911,0,0,0,.23-1.719l-1.161-.077a2.014,2.014,0,0,0-.081,1.155c.131.662.286.765,1.012.641Z" transform="translate(-538.284 -236.21)"/>
    <path id="Path_14430" d="M368.38,53.449c1.122-.187,2.171-.365,3.225-.531a6.761,6.761,0,0,1,1.041-.106,1.561,1.561,0,0,1,1.628,1.155,1.773,1.773,0,0,1-.67,2.024c-.112.079-.228.149-.361.234A5.756,5.756,0,0,1,375.52,58.7c-.355.066-.689.133-1.024.191s-.689.112-1.072.174c-.475-.61-.956-1.224-1.433-1.84a.828.828,0,0,0-1.066-.338l.386,2.52-1.9.317Zm4.083,1.47c-.058-.506-.284-.776-.689-.749a2.766,2.766,0,0,0-1.275.265l.23,1.23c.7-.108,1.389-.044,1.734-.747Z" transform="translate(-329.106 -52.329)"/>
    <path id="Path_14431" d="M331.56,64.85c.01-2.157,1.983-3.063,3.629-3.1,2.051-.052,3.047,1.781,3.1,3.613.062,2.032-1.7,3.034-3.679,3.1C332.719,68.523,331.655,66.736,331.56,64.85Zm4.842.776a3.466,3.466,0,0,0-.62-1.84,1.257,1.257,0,0,0-1.489-.413,1.229,1.229,0,0,0-.857,1.228,3.285,3.285,0,0,0,.682,1.879,1.184,1.184,0,0,0,1.441.363A1.16,1.16,0,0,0,336.4,65.626Z" transform="translate(-299.922 -59.413)"/>
    <path id="Path_14432" d="M533.305,88.078a3.99,3.99,0,0,1-2.072,3.293,2.548,2.548,0,0,1-2.041.145,4.5,4.5,0,0,1-2.012-1.275,2.651,2.651,0,0,1-.639-2.528,4.143,4.143,0,0,1,1.321-2.186,2.71,2.71,0,0,1,2.825-.55,4.346,4.346,0,0,1,2.01,1.381A2.544,2.544,0,0,1,533.305,88.078Zm-1.8-.245c0-.9-1.041-1.773-1.912-1.232a2.7,2.7,0,0,0-1.311,2.061,1.293,1.293,0,0,0,1.773,1.259A2.963,2.963,0,0,0,531.505,87.833Z" transform="translate(-454.393 -77.684)"/>
    <path id="Path_14433" d="M183.431,313.752a2.8,2.8,0,0,1-3.026-2.285,4.945,4.945,0,0,1-.135-1.647,2.662,2.662,0,0,1,2.248-2.522,4.6,4.6,0,0,1,1.771-.129,2.677,2.677,0,0,1,2.3,1.885,4.628,4.628,0,0,1,.241,2.072,2.689,2.689,0,0,1-1.62,2.246A3.836,3.836,0,0,1,183.431,313.752Zm.475-4.706a3.3,3.3,0,0,0-1.607.369,1.28,1.28,0,0,0-.579,1.331,1.18,1.18,0,0,0,.993,1.043,3.24,3.24,0,0,0,1.933-.228,1.194,1.194,0,0,0,.751-1.232c-.037-.836-.55-1.28-1.491-1.284Z" transform="translate(-179.993 -253.913)"/>
    <path id="Path_14434" d="M636.805,250.5c-.454.077-.852.149-1.253.207-.854.124-1.711.255-2.567.361a2.437,2.437,0,0,1-2.868-1.927,8.8,8.8,0,0,1-.193-1.833,2.05,2.05,0,0,1,1.431-2.034,11.765,11.765,0,0,1,1.983-.427c.832-.137,1.669-.23,2.505-.342a4.147,4.147,0,0,1,.288,1.883c-.879.129-1.771.255-2.665.386-.388.056-.78.085-1.159.17a1.091,1.091,0,0,0-.939,1.224,1.061,1.061,0,0,0,.122.377.916.916,0,0,0,.971.614c.533-.044,1.062-.116,1.593-.189.672-.091,1.344-.2,2.016-.29a3.717,3.717,0,0,1,.456,0Z" transform="translate(-536.408 -204.267)"/>
    <path id="Path_14435" d="M610.1,180.65l-1.377-2.76-1.168.577,1.5,3.04-1.215.62a2.084,2.084,0,0,1-.158-.224c-.742-1.5-1.481-2.991-2.261-4.563l5.724-2.82,2.321,4.712-1.168.591-1.493-2.961-.946.458,1.35,2.762Z" transform="translate(-516.987 -148.8)"/>
    <path id="Path_14436" d="M597.113,152.242l-1.041-1.321c.342-.817.255-1.358-.247-1.651-.278-.162-.4-.116-.732.3l.276.836c.168.508.367,1.008.5,1.524a1.72,1.72,0,0,1-.5,1.81,1.95,1.95,0,0,1-2.016.419,2.478,2.478,0,0,1-.749-.415,4.706,4.706,0,0,1-1.526-2.277,2.016,2.016,0,0,1,.83-2.267l1.078,1.358c-.288.417-.572.838-.332,1.36a1.083,1.083,0,0,0,.861.715c.554-.214.695-.438.558-.966-.083-.317-.247-.614-.323-.931a9.555,9.555,0,0,1-.292-1.566,1.573,1.573,0,0,1,2-1.51,1.936,1.936,0,0,1,.622.261,4.307,4.307,0,0,1,1.784,2.721A1.71,1.71,0,0,1,597.113,152.242Z" transform="translate(-505.549 -127.47)"/>
    <path id="Path_14437" d="M188.807,344.278l.61,1.655a1.011,1.011,0,0,0-.45,1.334c.153.336.268.4.728.388.332-.255.241-.616.236-.962a17.669,17.669,0,0,1,.019-1.9,1.872,1.872,0,0,1,3.044-1.151,2.376,2.376,0,0,1,.585.628,4.594,4.594,0,0,1,.7,2.951,2.084,2.084,0,0,1-1.425,1.62l-.626-1.653c1-.865.989-1.732-.01-2.175-.55.162-.655.27-.674.792-.015.411.029.825.01,1.236a5.617,5.617,0,0,1-.133,1.161,1.615,1.615,0,0,1-1.949,1.186,1.657,1.657,0,0,1-.56-.257,2.05,2.05,0,0,1-.566-.56,4.35,4.35,0,0,1-.734-2.876A1.714,1.714,0,0,1,188.807,344.278Z" transform="translate(-185.809 -282.523)"/>
    <path id="Path_14438" d="M451.329,60.9l-1.937-.373c-.062-.406-.112-.745-.166-1.1l-2.2-.419-.581.968L444.56,59.6l3.532-5.794,2.072.394C450.585,56.4,450.954,58.6,451.329,60.9Zm-2.25-2.854a7.849,7.849,0,0,0-.367-2.285l-1.047,1.991Z" transform="translate(-389.487 -53.124)"/>
    <path id="Path_14439" d="M209.691,176.229c-.338-.079-.684-.131-1.014-.241a7,7,0,0,1-2.2-1.217,2.089,2.089,0,0,1-.709-2.636,4.259,4.259,0,0,1,.566-1.018,1.964,1.964,0,0,1,2.068-.79,6.31,6.31,0,0,1,2.988,1.52,2.014,2.014,0,0,1,.541,2.611,5.132,5.132,0,0,1-.649,1.039A2.038,2.038,0,0,1,209.691,176.229Zm.241-1.62c.454.017.7-.106.821-.392a.746.746,0,0,0-.228-.894,6.764,6.764,0,0,0-2.688-1.445.713.713,0,0,0-.852.342.7.7,0,0,0,.068.807,1.022,1.022,0,0,0,.209.224,8.592,8.592,0,0,0,2.362,1.3,1.539,1.539,0,0,0,.307.056Z" transform="translate(-200.052 -145.434)"/>
    <path id="Path_14440" d="M624.919,214.38v1.587a2.234,2.234,0,0,1-2.578-1.211,4.782,4.782,0,0,1-.523-1.891,2.658,2.658,0,0,1,1.383-2.578,4.325,4.325,0,0,1,2.414-.653,2.493,2.493,0,0,1,1.862.834,3.984,3.984,0,0,1,1.012,2.841,2.44,2.44,0,0,1-1.194,1.974l-.848-1.466c.079-.089.149-.162.214-.238a1.232,1.232,0,0,0-1.072-2.051,6.63,6.63,0,0,0-1.686.56,1.025,1.025,0,0,0-.568,1.244,1.18,1.18,0,0,0,.985.979C624.5,214.343,624.681,214.351,624.919,214.38Z" transform="translate(-529.976 -176.629)"/>
    <path id="Path_14441" d="M196.685,204.6a6.568,6.568,0,0,1-3.2-1.242,1.846,1.846,0,0,1-.74-1.962,5.877,5.877,0,0,1,.415-1.28,1.965,1.965,0,0,1,2.124-1.157,6.377,6.377,0,0,1,3.04,1.1,2.019,2.019,0,0,1,.9,2.462,5.3,5.3,0,0,1-.3.807A2.166,2.166,0,0,1,196.685,204.6Zm.425-1.6c.5,0,.761-.17.875-.485a.691.691,0,0,0-.263-.819,2.74,2.74,0,0,0-.616-.4c-.489-.209-.993-.394-1.5-.57a3.9,3.9,0,0,0-.72-.166.823.823,0,0,0-.906.483c-.12.3-.029.579.311.857a1.8,1.8,0,0,0,.467.3q.946.37,1.9.707a3.018,3.018,0,0,0,.452.1Z" transform="translate(-189.85 -168.149)"/>
    <path id="Path_14442" d="M181.081,263.489l-.292,1.616a1.937,1.937,0,0,1-1.784-2.184,6.515,6.515,0,0,1,.218-1.522,1.788,1.788,0,0,1,2.852-.991,4.35,4.35,0,0,1,1.128,1.373c.238.38.477.759.753,1.2.3-.465.164-.906.23-1.313.068-.423.1-.852.149-1.358l1.381.075c-.162,1.792-.315,3.507-.473,5.288a3.154,3.154,0,0,1-1.605-.875c-.411-.458-.767-.966-1.132-1.462-.22-.3-.411-.618-.618-.923a2.207,2.207,0,0,0-.232-.288.911.911,0,0,0-.944-.313.776.776,0,0,0-.516.705.831.831,0,0,0,.554.813C180.843,263.367,180.932,263.414,181.081,263.489Z" transform="translate(-179.004 -216.568)"/>
    <path id="Path_14443" d="M303.889,74.832l.57,1.08-2.186,1.182,1.19,2.306-1.7.908L298.8,74.668l4.285-2.248.635,1.151-2.551,1.365.518,1.033Z" transform="translate(-273.956 -67.874)"/>
    <path id="Path_14444" d="M615.607,376.235l-2.437-1.066.767-1.759,2.468,1.047,4.368-.774-.852,1.935-2.516.344,1.458,2.07-.842,1.956Z" transform="translate(-523.13 -306.443)"/>
    <path id="Path_14445" d="M485.267,65.968l-1.815-.618,1.522-4.5a20.1,20.1,0,0,0-1.875-.765l.489-1.41,5.651,1.922-.489,1.437-1.918-.622Z" transform="translate(-420.034 -56.976)"/>
    <path id="Path_14446" d="M625.127,339.48l4.664,1.219.543-1.939,1.462.384-1.5,5.755-1.483-.361.5-1.956-4.658-1.242Z" transform="translate(-532.229 -278.979)"/>
    <path id="Path_14447" d="M183.437,232.238l-1.377-.328,1.126-5,1.118.245a7.783,7.783,0,0,0,4.573,3.443l-.369,1.645a8.44,8.44,0,0,1-4.3-3.071C183.862,230.216,183.761,231.215,183.437,232.238Z" transform="translate(-181.426 -190.325)"/>
    <path id="Path_14448" d="M226.937,146.311c-.122.614-.224,1.136-.334,1.657a1.7,1.7,0,0,1-.139.307l-1.1-.8a3.276,3.276,0,0,0-.085-2.773l.857-1.168,5.207,3.839-1.024,1.414Z" transform="translate(-215.683 -124.237)"/>
    <path id="Path_14449" d="M256.469,118.569l-1.329,1.423-4.38-4.606,1.342-1.4Z" transform="translate(-235.879 -100.823)"/>
    <path id="Path_14450" d="M509.012,78.247l-1.742-.838,2.715-5.749,1.759.817Z" transform="translate(-439.192 -67.272)"/>
    <path id="Path_14451" d="M202.584,372.43l.763,1.777-5.842,2.524-.765-1.775Z" transform="translate(-193.062 -305.666)"/>
    <path id="Path_14452" d="M629.91,320.529l.276-1.869c2.1.253,4.152.568,6.278.888l-.259,1.877C634.083,321.163,632.021,320.86,629.91,320.529Z" transform="translate(-536.398 -263.047)"/>
    <path id="Path_14453" d="M472.608,256.868a10.681,10.681,0,0,1-1.074,4.786,8.365,8.365,0,0,1-4.392,3.982,13.03,13.03,0,0,1-4.33.906,13.922,13.922,0,0,1-5.129-.554,8.511,8.511,0,0,1-6.288-7.341,11.835,11.835,0,0,1,.321-5.141,8.339,8.339,0,0,1,5.1-5.521,14.081,14.081,0,0,1,6.682-.819,11.466,11.466,0,0,1,3.766.91,8.432,8.432,0,0,1,5.16,6.823C472.523,255.551,472.55,256.213,472.608,256.868Zm-7.051,0c-.058-.881-.087-1.769-.185-2.646a7.5,7.5,0,0,0-.788-2.837,2.824,2.824,0,0,0-2.621-1.553,2.875,2.875,0,0,0-2.694,1.545,6.576,6.576,0,0,0-.7,2.225,21.886,21.886,0,0,0-.1,5.786,8.188,8.188,0,0,0,.626,2.567,3.078,3.078,0,0,0,5.606.12,6.485,6.485,0,0,0,.442-1.28,18.532,18.532,0,0,0,.419-3.928Z" transform="translate(-394.789 -206.301)"/>
    <path id="Path_14454" d="M372.147,253.937c-.122-.338-.216-.61-.315-.879a4.348,4.348,0,0,0-3.915-2.943,5.241,5.241,0,0,0-2.146.116,2.628,2.628,0,0,0-1.2.736,1.252,1.252,0,0,0,.253,2.093,6.217,6.217,0,0,0,1.587.66c1.17.321,2.366.554,3.54.869a13.27,13.27,0,0,1,3.862,1.611,4.707,4.707,0,0,1,2.211,3.673,5.552,5.552,0,0,1-1.186,4.283,6.283,6.283,0,0,1-2.785,1.883,11.526,11.526,0,0,1-4.5.572,13.533,13.533,0,0,1-5.168-1.336c-.07-.033-.149-.054-.27-.1l-.689.969h-2.431v-6.721a5.775,5.775,0,0,1,1.269-.052c.411-.01.821,0,1.284,0,.085.222.16.429.245.633a5.858,5.858,0,0,0,4.459,3.787,4.482,4.482,0,0,0,2.2-.048,3.307,3.307,0,0,0,1.087-.554,1.4,1.4,0,0,0,0-2.281A6.406,6.406,0,0,0,367.8,260c-1.2-.419-2.447-.726-3.662-1.114a24.693,24.693,0,0,1-2.5-.9,4.845,4.845,0,0,1-3.028-3.511,5.648,5.648,0,0,1,3.086-6.4,8.3,8.3,0,0,1,3.441-.9,13.437,13.437,0,0,1,6.618,1.2c.075.035.153.06.288.112l.5-.842h2.559v6.273c-.475,0-.96.012-1.443.014S372.673,253.937,372.147,253.937Z" transform="translate(-321.257 -206.362)"/>
    <path id="Path_14455" d="M309.161,265.728v2.528H298.35v-2.528c.334,0,.66.006.981,0a4.109,4.109,0,0,0,.676-.056.732.732,0,0,0,.655-.645,5.716,5.716,0,0,0,.1-.794q.009-5.133,0-10.268c0-1.211-.29-1.487-1.5-1.508-.286,0-.574,0-.906,0V249.94h10.736a7.92,7.92,0,0,1,.035,2.474c-.149.015-.307.033-.467.044s-.33,0-.5,0c-1.1.039-1.365.276-1.365,1.365q-.016,5.257,0,10.514c0,1.124.268,1.367,1.4,1.387C308.5,265.733,308.8,265.728,309.161,265.728Z" transform="translate(-273.599 -208.579)"/>
  </g>
</svg>
