<svg xmlns="http://www.w3.org/2000/svg" width="40.017" height="40.002" viewBox="0 0 40.017 40.002">
  <path id="Path_9023" data-name="Path 9023" d="M1227.086,9600.315h-5.931v-9.273c0-2.226-.032-5.064-3.076-5.064-3.092,0-3.565,2.4-3.565,4.89v9.448H1208.6V9581.23h5.678v2.6h.079a6.223,6.223,0,0,1,5.615-3.073c6.01,0,7.114,3.942,7.114,9.085Zm-25.19-21.7a3.439,3.439,0,1,1,3.454-3.437A3.435,3.435,0,0,1,1201.9,9578.611Zm2.965,21.7h-5.931V9581.23h5.931Zm25.19-34.085h-34.1a2.92,2.92,0,0,0-2.95,2.885v34.229a2.912,2.912,0,0,0,2.95,2.886h34.1a2.924,2.924,0,0,0,2.965-2.886v-34.229a2.925,2.925,0,0,0-2.965-2.885" transform="translate(-1193 -9566.229)" fill="#272928"/>
</svg>
