<svg xmlns="http://www.w3.org/2000/svg" width="30.011" height="29.998" viewBox="0 0 30.011 29.998">
  <path id="Path_9023" data-name="Path 9023" d="M1218.564,9591.793h-4.448v-6.955c0-1.669-.024-3.8-2.307-3.8-2.319,0-2.673,1.8-2.673,3.667v7.086H1204.7V9577.48h4.259v1.949h.059a4.669,4.669,0,0,1,4.211-2.3c4.507,0,5.335,2.957,5.335,6.814Zm-18.892-16.277a2.579,2.579,0,1,1,2.591-2.577A2.576,2.576,0,0,1,1199.672,9575.516Zm2.224,16.277h-4.448V9577.48h4.448Zm18.892-25.562h-25.575a2.191,2.191,0,0,0-2.212,2.164v25.67a2.183,2.183,0,0,0,2.212,2.164h25.575a2.192,2.192,0,0,0,2.224-2.164v-25.67a2.194,2.194,0,0,0-2.224-2.164" transform="translate(-1193 -9566.23)" fill="#2a6ab4"/>
</svg>
