<svg xmlns="http://www.w3.org/2000/svg" width="310.183" height="50" fontSize="inherit" viewBox="0 0 310.183 50">
  <g id="Group_68152" data-name="Group 68152" transform="translate(-90.71 -23.998)">
    <g id="QueueBuster_Logo-01" data-name="QueueBuster Logo-01" transform="translate(90.71 23.998)">
      <g id="Group_115" data-name="Group 115" transform="translate(60.623 10.038)">
        <path id="Path_1" data-name="Path 1" d="M446.742,473.381a14.91,14.91,0,0,1,15.151-14.664c.237-.007.479-.009.716-.006a14.614,14.614,0,0,1,14.352,14.87v.009a14.99,14.99,0,0,1-2.741,8.709l1.524,1.292a2.783,2.783,0,0,1,1.047,2.192,2.716,2.716,0,0,1-4.653,1.9l-1.8-1.633a15.105,15.105,0,0,1-8.525,2.569c-.237.007-.479.009-.716.006A14.612,14.612,0,0,1,446.74,473.76v-.015c0-.12,0-.241,0-.364m20.559,8.262a8.791,8.791,0,0,0,2.437-2.706,10.519,10.519,0,0,0,1.4-5.262c.006-.145.011-.291.011-.438a9.3,9.3,0,0,0-9.278-9.308c-5.238,0-9.184,4.2-9.184,9.742a9.319,9.319,0,0,0,14.614,7.964Z" transform="translate(-446.737 -458.71)" fill="#2c6bb3" fill-rule="evenodd"/>
        <path id="Path_2" data-name="Path 2" d="M646.182,497.539h0a2.777,2.777,0,0,0-2.8,2.752h0v9.915c0,3.02-1.7,4.872-4.471,4.872s-4.215-1.717-4.215-4.872v-9.819a2.777,2.777,0,0,0-5.555,0v11.358c0,5.262,3.033,8.525,7.918,8.525a7.781,7.781,0,0,0,6.322-3.07v.074a2.8,2.8,0,0,0,5.6,0V500.389a2.813,2.813,0,0,0-2.777-2.849h-.024Z" transform="translate(-595.568 -490.393)" fill="#2c6bb3" fill-rule="evenodd"/>
        <path id="Path_3" data-name="Path 3" d="M753.521,508.28c0-6.65,4.666-11.52,10.756-11.52,6.8,0,10.464,5.579,10.464,10.865v.061A2.626,2.626,0,0,1,772.1,510.3H759.175a5.59,5.59,0,0,0,5.665,4.738,7.311,7.311,0,0,0,4.872-1.778,2.117,2.117,0,0,1,1.461-.523,2.278,2.278,0,0,1,2.277,2.279,2.435,2.435,0,0,1-.742,1.73,11.34,11.34,0,0,1-7.918,2.923c-.248.007-.5.006-.745,0a10.963,10.963,0,0,1-10.524-11.387m10.706-6.854c-2.619,0-4.6,1.925-5.141,4.949h10.171c-.366-2.516-1.852-4.949-5.03-4.949" transform="translate(-697.049 -489.757)" fill="#2c6bb3" fill-rule="evenodd"/>
        <path id="Path_4" data-name="Path 4" d="M901.632,497.532h0a2.777,2.777,0,0,0-2.8,2.752h0V510.2c0,3.02-1.7,4.872-4.458,4.872s-4.228-1.717-4.228-4.872v-9.819a2.777,2.777,0,0,0-5.555,0v11.354c0,5.262,3.033,8.525,7.918,8.525a7.781,7.781,0,0,0,6.322-3.07v.074a2.8,2.8,0,1,0,5.6,0V500.379a2.813,2.813,0,0,0-2.777-2.849h-.024Z" transform="translate(-804.002 -490.385)" fill="#2c6bb3" fill-rule="evenodd"/>
        <path id="Path_5" data-name="Path 5" d="M1008.971,508.28c0-6.65,4.653-11.52,10.743-11.52,6.8,0,10.474,5.579,10.474,10.865v.061a2.626,2.626,0,0,1-2.639,2.617h-12.965a5.588,5.588,0,0,0,5.7,4.738,7.4,7.4,0,0,0,4.872-1.778,2.109,2.109,0,0,1,1.461-.523,2.278,2.278,0,0,1,2.277,2.279,2.436,2.436,0,0,1-.742,1.73,11.34,11.34,0,0,1-7.918,2.923c-.248.007-.5.006-.745,0a10.962,10.962,0,0,1-10.519-11.387h0m10.706-6.854c-2.619,0-4.605,1.925-5.141,4.949h10.171c-.364-2.516-1.852-4.949-5.03-4.949" transform="translate(-905.483 -489.757)" fill="#2c6bb3" fill-rule="evenodd"/>
        <path id="Path_6" data-name="Path 6" d="M1163.45,475.362a6.871,6.871,0,0,0,3.582-6.309,6.625,6.625,0,0,0-2-4.872,10.51,10.51,0,0,0-7.625-2.606h-10.171a2.813,2.813,0,0,0-2.838,2.788v23.3a2.813,2.813,0,0,0,2.777,2.849h10.635c6.758,0,10.793-3.033,10.793-8.172,0-3.374-1.646-5.639-5.153-6.979m-13.471-8.757h6.81c2.938,0,4.629,1.218,4.629,3.337,0,3.044-3.131,3.5-4.993,3.5h-6.444V466.6Zm0,18.783h7.868c1.876,0,5.141-.585,5.141-3.532s-2.972-3.545-5.481-3.545h-7.528Z" transform="translate(-1015.991 -461.03)" fill="#2c6bb3" fill-rule="evenodd"/>
        <path id="Path_7" data-name="Path 7" d="M1308.913,497.539h0a2.778,2.778,0,0,0-2.8,2.753v9.915c0,3.02-1.717,4.872-4.471,4.872s-4.226-1.717-4.226-4.872v-9.819a2.777,2.777,0,1,0-5.555,0v11.354c0,5.262,3.033,8.525,7.929,8.525a7.782,7.782,0,0,0,6.322-3.07v.074a2.8,2.8,0,0,0,5.59,0V500.391a2.8,2.8,0,0,0-2.752-2.849h-.037Z" transform="translate(-1136.312 -490.393)" fill="#2c6bb3" fill-rule="evenodd"/>
        <path id="Path_8" data-name="Path 8" d="M1423.771,506.269l-.414-.134c-2.231-.718-4.154-1.34-4.154-2.656,0-1.071,1.047-1.765,2.656-1.765a11.177,11.177,0,0,1,4.872,1.414,2.267,2.267,0,0,0,1.121.28,2.3,2.3,0,0,0,2.35-2.251v-.063a2.432,2.432,0,0,0-1.414-2.155,15,15,0,0,0-6.858-1.778c-4.664,0-7.929,2.814-7.929,6.919s3.569,5.639,6.895,6.589l.512.145c2.155.657,4.02,1.218,4.02,2.593s-1.108,1.96-2.973,1.96a10.966,10.966,0,0,1-5.969-2.01,2.57,2.57,0,0,0-1.219-.329,2.29,2.29,0,0,0-2.314,2.266v.048a2.222,2.222,0,0,0,1.071,1.973,14.991,14.991,0,0,0,8.306,2.606c5.091,0,8.246-2.706,8.246-7.127.05-3.86-3.25-5.417-6.806-6.525Z" transform="translate(-1235.118 -490.083)" fill="#2c6bb3" fill-rule="evenodd"/>
        <path id="Path_9" data-name="Path 9" d="M1525.656,477.145a2.436,2.436,0,0,0,0-4.87h-3.5v-3.293a2.776,2.776,0,0,0-5.553,0v3.289h-.475a2.436,2.436,0,0,0,0,4.87h.475v10.89c0,4.373,2.181,6.589,6.468,6.589a10.128,10.128,0,0,0,3.484-.585,2.351,2.351,0,0,0-1.145-4.531h-.074a5.163,5.163,0,0,1-.891.085c-1.583,0-2.29-.718-2.29-2.326V477.143h3.5Z" transform="translate(-1317.367 -464.83)" fill="#2c6bb3" fill-rule="evenodd"/>
        <path id="Path_10" data-name="Path 10" d="M1597.762,508.28c0-6.65,4.653-11.52,10.743-11.52,6.8,0,10.474,5.579,10.474,10.865v.061a2.626,2.626,0,0,1-2.639,2.617h-12.963a5.591,5.591,0,0,0,5.7,4.7,7.4,7.4,0,0,0,4.872-1.778,2.117,2.117,0,0,1,1.461-.523h.037a2.277,2.277,0,0,1,2.242,2.314v0a2.436,2.436,0,0,1-.742,1.73,11.34,11.34,0,0,1-7.918,2.923c-.248.007-.495.005-.744,0a10.962,10.962,0,0,1-10.524-11.384v-.006m10.708-6.854c-2.619,0-4.6,1.925-5.141,4.949H1613.5c-.37-2.516-1.852-4.949-5.03-4.949" transform="translate(-1385.905 -489.757)" fill="#2c6bb3" fill-rule="evenodd"/>
        <path id="Path_11" data-name="Path 11" d="M1740.7,497.518c-1.865,0-3.74,1.377-5.043,3.654v-.755a2.777,2.777,0,0,0-5.554-.009v16.845a2.716,2.716,0,0,0,2.678,2.753h.086a2.778,2.778,0,0,0,2.79-2.753v-6.335c0-4.531,1.984-7.309,5.579-7.99a2.736,2.736,0,0,0-.249-5.409c-.1,0-.193,0-.287,0Z" transform="translate(-1493.891 -490.373)" fill="#2c6bb3" fill-rule="evenodd"/>
      </g>
      <g id="Group_117" data-name="Group 117" transform="translate(0 0)">
        <path id="Path_12" data-name="Path 12" d="M162.8,454.17H121.921a4.56,4.56,0,0,1-4.561-4.561V408.731a4.56,4.56,0,0,1,4.561-4.561H162.8a4.56,4.56,0,0,1,4.561,4.561v40.878A4.561,4.561,0,0,1,162.8,454.17Z" transform="translate(-117.36 -404.17)" fill="#2a6ab4"/>
        <g id="Group_116" data-name="Group 116" transform="translate(4.339 14.985)">
          <path id="Path_13" data-name="Path 13" d="M277.42,495.5c-.007-.252-.018-.506-.028-.758,0-.024,0-.05-.005-.074-.024-.184-.024-.37-.057-.552-.018-.21-.053-.416-.09-.622-.057-.322-.127-.641-.214-.955a9.406,9.406,0,0,0-2.323-4.09,9.037,9.037,0,0,0-4.791-2.628c-.169-.035-.339-.066-.51-.092-.121-.018-.243-.039-.366-.052-.179-.018-.355-.044-.534-.052l-.092-.007c-.079-.006-.16-.013-.239-.017-.247-.009-.493-.017-.74-.013a8.759,8.759,0,0,0-.906.039c-.042.005-.087.005-.129.009s-.074,0-.11.009c-.226.029-.453.055-.677.094-.309.052-.707.14-1.01.223a9.156,9.156,0,0,0-3.436,1.787c-.138.114-.272.232-.4.353-.031.029-.063.059-.1.086a.1.1,0,0,1-.029.02.075.075,0,0,1-.035,0,.028.028,0,0,1-.02-.028c0-.042,0-.087,0-.129v-.889c0-.068,0-.136-.005-.2a1.188,1.188,0,0,0-.055-.309,1.5,1.5,0,0,0-1-1,1.16,1.16,0,0,0-.309-.057c-.081,0-.16,0-.241,0a1.1,1.1,0,0,0-.309.055,1.5,1.5,0,0,0-.974.894,1.043,1.043,0,0,0-.072.248,1.892,1.892,0,0,0-.035.368c0,.037,0,.074,0,.11v8.789c0,.042,0,.086.007.129a2.539,2.539,0,0,1,.026.313c0,.042.007.086.011.129l.022.239c0,.037,0,.074.009.11.024.14.035.282.055.421.028.182.057.366.094.547a10.152,10.152,0,0,0,.247.987,9.3,9.3,0,0,0,.99,2.2,9.6,9.6,0,0,0,1.454,1.815,8.941,8.941,0,0,0,3.893,2.26q.444.127.9.212c.188.035.375.066.567.09.129.017.258.029.386.044q.166.019.331.028l.184.013c.092.006.184.013.278.015l.372.007c.355,0,.641,0,.922-.029.024,0,.05,0,.074,0,.186-.005.368-.031.552-.052.2-.024.4-.055.6-.092.322-.059.639-.133.953-.223a9.131,9.131,0,0,0,2.88-1.4,10.335,10.335,0,0,0,1.848-1.726,9,9,0,0,0,1.59-2.779,9.789,9.789,0,0,0,.35-1.226c.052-.236.094-.471.127-.71.015-.11.028-.221.042-.329.013-.086.02-.171.028-.258,0-.055.011-.11.015-.166s.013-.134.015-.2c.009-.2.017-.407.024-.611C277.422,495.707,277.424,495.6,277.42,495.5Zm-3.153.425c0,.042-.007.086-.007.129a7.027,7.027,0,0,1-.179,1.169,6.812,6.812,0,0,1-5.492,5.093,3.31,3.31,0,0,1-.4.052,7.213,7.213,0,0,1-1.145.028c-.061,0-.123-.009-.184-.015-.031,0-.061-.009-.092-.011a5.073,5.073,0,0,1-.622-.092A6.811,6.811,0,0,1,261,497.706a6.556,6.556,0,0,1-.228-.913c-.029-.169-.052-.341-.072-.512a7.177,7.177,0,0,1-.026-1.053c0-.074.011-.147.018-.221,0-.031.007-.061.009-.092a6.211,6.211,0,0,1,.109-.712,6.628,6.628,0,0,1,.3-1.027,6.957,6.957,0,0,1,.352-.773c.055-.1.112-.206.171-.307s.127-.212.2-.313a7.353,7.353,0,0,1,.826-.994,6.769,6.769,0,0,1,3.037-1.758,6.579,6.579,0,0,1,.7-.151,6.145,6.145,0,0,1,.661-.072l.221-.011c.118-.005.234-.005.352,0,.142.007.283.011.425.024s.258.024.386.044c.164.026.328.055.491.09a6.813,6.813,0,0,1,4.977,4.443,6.443,6.443,0,0,1,.237.893c.04.206.066.414.1.62l.006.055c.009.142.018.283.026.425,0,.068,0,.136.006.236C274.276,495.7,274.273,495.812,274.267,495.922Z" transform="translate(-236.1 -485.585)" fill="#fff"/>
          <path id="Path_14" data-name="Path 14" d="M160.01,502.595a1.142,1.142,0,0,0-.23-.068,2.253,2.253,0,0,0-.387-.037c-.278,0-.556,0-.832,0-.055,0-.11,0-.166,0a.07.07,0,0,1-.035-.007c-.009-.005-.013-.018-.018-.028a.269.269,0,0,1,.053-.075c.138-.149.274-.3.4-.458a9.234,9.234,0,0,0,1.581-2.763,9.646,9.646,0,0,0,.339-1.171q.077-.342.127-.69c.017-.11.029-.221.044-.329.011-.079.02-.158.026-.239,0-.037,0-.074.009-.11.018-.129.022-.258.028-.387,0-.1.007-.2.013-.3.009-.173.011-.346.007-.517-.007-.247-.018-.493-.028-.74,0-.024,0-.05-.006-.074-.024-.177-.031-.355-.055-.534-.04-.3-.057-.42-.11-.712a9.758,9.758,0,0,0-.23-.972,9.073,9.073,0,0,0-.69-1.712A8.821,8.821,0,0,0,158.706,489a9.536,9.536,0,0,0-2.52-2.067,9.754,9.754,0,0,0-3.342-1.137c-.11-.017-.221-.029-.329-.046-.166-.024-.331-.037-.5-.053-.19-.018-.381-.028-.572-.035a13.887,13.887,0,0,0-1.59.035l-.037,0c-.158.024-.32.026-.479.055-.2.018-.39.053-.585.09a10.076,10.076,0,0,0-1.165.289,9.1,9.1,0,0,0-2.869,1.5,10.389,10.389,0,0,0-1.408,1.334,9.457,9.457,0,0,0-.674.858,9.216,9.216,0,0,0-1.458,3.372c-.044.2-.083.41-.114.618s-.057.39-.072.587l-.006.055c-.017.11-.022.221-.028.331l-.017.3c0,.074-.007.147-.009.223-.006.291-.006.58.015.869.015.215.015.431.046.646.007.155.031.307.052.46.026.19.059.377.094.565a9.931,9.931,0,0,0,.342,1.3,8.847,8.847,0,0,0,1.491,2.729,9.635,9.635,0,0,0,1.447,1.452,9.3,9.3,0,0,0,2.345,1.4,10.156,10.156,0,0,0,2.772.692l.11.013.184.018c.123.009.247.017.368.029a4.11,4.11,0,0,0,.425.018h8.717c.081,0,.16,0,.241,0a1.1,1.1,0,0,0,.219-.031,1.5,1.5,0,0,0,1.16-1.29,1.52,1.52,0,0,0-.042-.569A1.5,1.5,0,0,0,160.01,502.595Zm-2.245-6.705a2.4,2.4,0,0,1-.018.258c0,.024-.006.05-.007.074a6.717,6.717,0,0,1-.541,2.1,6.856,6.856,0,0,1-4.231,3.8,6.762,6.762,0,0,1-.935.223c-.214.035-.427.061-.642.076-.16.009-.32.024-.447.02a4.042,4.042,0,0,1-.44-.017l-.074-.006a6.664,6.664,0,0,1-2.236-.543,6.858,6.858,0,0,1-3.76-4.038,7.045,7.045,0,0,1-.252-.928c-.04-.206-.068-.414-.1-.622-.006-.042-.007-.086-.009-.129,0-.061-.007-.123-.013-.184a4.781,4.781,0,0,1,0-.8l.006-.074a6.523,6.523,0,0,1,.236-1.382,6.86,6.86,0,0,1,5.4-4.9c.188-.033.377-.057.569-.077a7.5,7.5,0,0,1,1.016-.022c.05,0,.1.007.147.011s.074.009.11.011a6.083,6.083,0,0,1,.749.11,6.619,6.619,0,0,1,1.15.344,6.859,6.859,0,0,1,3.872,3.931,6.65,6.65,0,0,1,.324,1.136,5.011,5.011,0,0,1,.09.641A6.518,6.518,0,0,1,157.764,495.89Z" transform="translate(-140.933 -485.639)" fill="#fff"/>
        </g>
      </g>
    </g>
  </g>
</svg>
