<svg xmlns="http://www.w3.org/2000/svg" width="176.387" height="28.433" viewBox="0 0 176.387 28.433">
  <g id="Group_75945" data-name="Group 75945" transform="translate(-90.71 -23.998)" style="isolation: isolate">
    <g id="QueueBuster_Logo-01" data-name="QueueBuster Logo-01" transform="translate(90.71 23.998)">
      <g id="Group_115" data-name="Group 115" transform="translate(34.474 5.708)">
        <path id="Path_1" data-name="Path 1" d="M446.74,467.053a8.479,8.479,0,0,1,8.616-8.338c.135,0,.272-.005.407,0a8.31,8.31,0,0,1,8.162,8.456v.005a8.524,8.524,0,0,1-1.558,4.953l.867.735a1.583,1.583,0,0,1,.6,1.247,1.545,1.545,0,0,1-2.646,1.081l-1.026-.928a8.59,8.59,0,0,1-4.848,1.461c-.135,0-.272.005-.407,0a8.309,8.309,0,0,1-8.163-8.455v-.008c0-.068,0-.137,0-.207m11.691,4.7a5,5,0,0,0,1.386-1.539,5.982,5.982,0,0,0,.8-2.992c0-.083.006-.165.006-.249a5.2,5.2,0,1,0-2.189,4.776Z" transform="translate(-446.737 -458.71)" fill="#bfbfbf" fill-rule="evenodd"/>
        <path id="Path_2" data-name="Path 2" d="M638.831,497.539h0a1.579,1.579,0,0,0-1.593,1.565h0v5.638a2.464,2.464,0,0,1-2.542,2.77c-1.573,0-2.4-.977-2.4-2.77v-5.584a1.579,1.579,0,0,0-3.159,0v6.459c0,2.992,1.725,4.848,4.5,4.848a4.425,4.425,0,0,0,3.6-1.746v.042a1.593,1.593,0,1,0,3.186,0v-9.6a1.6,1.6,0,0,0-1.579-1.62h-.014Z" transform="translate(-610.049 -493.475)" fill="#bfbfbf" fill-rule="evenodd"/>
        <path id="Path_3" data-name="Path 3" d="M753.517,503.311c0-3.781,2.653-6.551,6.117-6.551a5.943,5.943,0,0,1,5.95,6.178v.035a1.494,1.494,0,0,1-1.5,1.488h-7.35a3.179,3.179,0,0,0,3.221,2.694,4.157,4.157,0,0,0,2.77-1.011,1.2,1.2,0,0,1,.831-.3,1.3,1.3,0,0,1,1.295,1.3,1.385,1.385,0,0,1-.422.984,6.449,6.449,0,0,1-4.5,1.662c-.141,0-.283,0-.424,0a6.234,6.234,0,0,1-5.985-6.475m6.088-3.9a3.042,3.042,0,0,0-2.923,2.814h5.784a2.907,2.907,0,0,0-2.86-2.814" transform="translate(-721.405 -492.778)" fill="#bfbfbf" fill-rule="evenodd"/>
        <path id="Path_4" data-name="Path 4" d="M894.281,497.531h0a1.579,1.579,0,0,0-1.593,1.565h0v5.637a2.462,2.462,0,0,1-2.535,2.77c-1.566,0-2.4-.977-2.4-2.77v-5.584a1.579,1.579,0,0,0-3.159,0v6.457c0,2.992,1.725,4.848,4.5,4.848a4.425,4.425,0,0,0,3.6-1.746v.042a1.593,1.593,0,1,0,3.186,0v-9.6a1.6,1.6,0,0,0-1.579-1.62h-.014Z" transform="translate(-838.763 -493.467)" fill="#bfbfbf" fill-rule="evenodd"/>
        <path id="Path_5" data-name="Path 5" d="M1008.967,503.311c0-3.781,2.646-6.551,6.109-6.551a5.948,5.948,0,0,1,5.956,6.178v.035a1.493,1.493,0,0,1-1.5,1.488h-7.372a3.178,3.178,0,0,0,3.241,2.694,4.206,4.206,0,0,0,2.77-1.011,1.2,1.2,0,0,1,.831-.3,1.3,1.3,0,0,1,1.295,1.3,1.385,1.385,0,0,1-.422.984,6.449,6.449,0,0,1-4.5,1.662c-.141,0-.283,0-.424,0a6.234,6.234,0,0,1-5.982-6.475h0m6.088-3.9a3.042,3.042,0,0,0-2.923,2.814h5.784a2.906,2.906,0,0,0-2.86-2.814" transform="translate(-950.118 -492.778)" fill="#bfbfbf" fill-rule="evenodd"/>
        <path id="Path_6" data-name="Path 6" d="M1155.232,469.406a3.907,3.907,0,0,0,2.037-3.588,3.767,3.767,0,0,0-1.137-2.77,5.976,5.976,0,0,0-4.336-1.482h-5.784a1.6,1.6,0,0,0-1.614,1.586V476.4a1.6,1.6,0,0,0,1.579,1.62h6.047c3.843,0,6.137-1.725,6.137-4.647a3.966,3.966,0,0,0-2.931-3.969m-7.66-4.98h3.872c1.671,0,2.632.693,2.632,1.9,0,1.731-1.78,1.988-2.839,1.988h-3.664v-3.885Zm0,10.681h4.474c1.067,0,2.923-.333,2.923-2.008s-1.69-2.016-3.117-2.016h-4.281Z" transform="translate(-1071.379 -461.255)" fill="#bfbfbf" fill-rule="evenodd"/>
        <path id="Path_7" data-name="Path 7" d="M1301.557,497.539h0a1.58,1.58,0,0,0-1.593,1.566v5.638a2.468,2.468,0,0,1-2.542,2.771c-1.566,0-2.4-.977-2.4-2.771V499.16a1.579,1.579,0,1,0-3.159,0v6.457c0,2.992,1.725,4.848,4.509,4.848a4.425,4.425,0,0,0,3.6-1.746v.042a1.593,1.593,0,0,0,3.179,0v-9.6a1.591,1.591,0,0,0-1.565-1.62h-.021Z" transform="translate(-1203.407 -493.475)" fill="#bfbfbf" fill-rule="evenodd"/>
        <path id="Path_8" data-name="Path 8" d="M1419.105,502.34l-.235-.076c-1.268-.408-2.362-.762-2.362-1.51,0-.609.6-1,1.51-1a6.356,6.356,0,0,1,2.771.8,1.289,1.289,0,0,0,.637.159,1.308,1.308,0,0,0,1.337-1.28h0V499.4a1.383,1.383,0,0,0-.8-1.226,8.531,8.531,0,0,0-3.9-1.011c-2.652,0-4.509,1.6-4.509,3.934s2.029,3.207,3.921,3.747l.291.083c1.226.374,2.286.693,2.286,1.475s-.63,1.115-1.69,1.115a6.236,6.236,0,0,1-3.394-1.143,1.462,1.462,0,0,0-.693-.187,1.3,1.3,0,0,0-1.316,1.288v.027a1.263,1.263,0,0,0,.609,1.122,8.525,8.525,0,0,0,4.724,1.482c2.9,0,4.689-1.539,4.689-4.053.028-2.195-1.848-3.08-3.87-3.71Z" transform="translate(-1311.827 -493.136)" fill="#bfbfbf" fill-rule="evenodd"/>
        <path id="Path_9" data-name="Path 9" d="M1520.523,472.428a1.385,1.385,0,0,0,0-2.769h-1.989v-1.872a1.579,1.579,0,0,0-3.158,0v1.87h-.27a1.385,1.385,0,0,0,0,2.769h.27v6.193c0,2.487,1.24,3.747,3.678,3.747a5.758,5.758,0,0,0,1.981-.333,1.337,1.337,0,0,0-.651-2.577h-.042a2.935,2.935,0,0,1-.507.048c-.9,0-1.3-.408-1.3-1.323v-5.754h1.989Z" transform="translate(-1402.079 -465.425)" fill="#bfbfbf" fill-rule="evenodd"/>
        <path id="Path_10" data-name="Path 10" d="M1597.758,503.311c0-3.781,2.646-6.551,6.109-6.551a5.948,5.948,0,0,1,5.956,6.178v.035a1.493,1.493,0,0,1-1.5,1.488h-7.371a3.179,3.179,0,0,0,3.241,2.674,4.207,4.207,0,0,0,2.771-1.011,1.2,1.2,0,0,1,.831-.3h.021a1.3,1.3,0,0,1,1.275,1.316h0a1.385,1.385,0,0,1-.422.984,6.449,6.449,0,0,1-4.5,1.662c-.141,0-.281,0-.423,0a6.234,6.234,0,0,1-5.985-6.473v0m6.089-3.9a3.042,3.042,0,0,0-2.923,2.814h5.784a2.908,2.908,0,0,0-2.86-2.814" transform="translate(-1477.285 -492.778)" fill="#bfbfbf" fill-rule="evenodd"/>
        <path id="Path_11" data-name="Path 11" d="M1736.125,497.517a3.581,3.581,0,0,0-2.868,2.078v-.429a1.579,1.579,0,0,0-3.159-.005v9.579a1.544,1.544,0,0,0,1.523,1.566h.049a1.58,1.58,0,0,0,1.587-1.566v-3.6c0-2.577,1.128-4.156,3.172-4.543a1.556,1.556,0,0,0-.141-3.076c-.054,0-.11,0-.163,0Z" transform="translate(-1595.779 -493.454)" fill="#bfbfbf" fill-rule="evenodd"/>
      </g>
      <g id="Group_117" data-name="Group 117" transform="translate(0 0)">
        <path id="Path_12" data-name="Path 12" d="M143.2,432.6H119.954a2.593,2.593,0,0,1-2.594-2.594V406.763a2.593,2.593,0,0,1,2.594-2.594H143.2a2.593,2.593,0,0,1,2.594,2.594v23.246A2.594,2.594,0,0,1,143.2,432.6Z" transform="translate(-117.36 -404.17)" fill="#bfbfbf"/>
        <g id="Group_116" data-name="Group 116" transform="translate(2.467 8.521)">
          <path id="Path_13" data-name="Path 13" d="M268.857,491.221c0-.143-.01-.288-.016-.431,0-.014,0-.028,0-.042-.014-.1-.014-.21-.032-.314-.01-.119-.03-.237-.051-.354-.032-.183-.072-.364-.121-.543a5.349,5.349,0,0,0-1.321-2.326,5.139,5.139,0,0,0-2.724-1.495c-.1-.02-.193-.038-.29-.052-.069-.01-.138-.022-.208-.029-.1-.01-.2-.025-.3-.029l-.052,0c-.045,0-.091-.007-.136-.009-.14-.005-.28-.009-.421-.007a4.976,4.976,0,0,0-.515.022c-.024,0-.049,0-.073.005s-.042,0-.063.005c-.129.017-.257.031-.385.053-.176.029-.4.08-.575.127a5.206,5.206,0,0,0-1.954,1.016c-.078.065-.155.132-.23.2-.018.017-.036.033-.054.049a.059.059,0,0,1-.017.012.043.043,0,0,1-.02,0,.016.016,0,0,1-.012-.016c0-.024,0-.049,0-.073v-.505c0-.039,0-.077,0-.116a.677.677,0,0,0-.031-.176.852.852,0,0,0-.571-.571.659.659,0,0,0-.176-.032c-.046,0-.091,0-.137,0a.626.626,0,0,0-.176.031.854.854,0,0,0-.554.509.594.594,0,0,0-.041.141,1.074,1.074,0,0,0-.02.209c0,.021,0,.042,0,.063v5c0,.024,0,.049,0,.073a1.446,1.446,0,0,1,.015.178c0,.024,0,.049.006.073l.013.136c0,.021,0,.042.005.063.014.079.02.16.031.24.016.1.032.208.053.311a5.771,5.771,0,0,0,.14.561,5.288,5.288,0,0,0,.563,1.253,5.457,5.457,0,0,0,.827,1.032,5.084,5.084,0,0,0,2.214,1.285c.168.048.339.088.512.12.107.02.214.038.322.051.073.009.147.017.22.025s.126.013.188.016l.1.007c.052,0,.1.007.158.008l.211,0c.2,0,.364,0,.524-.017l.042,0c.106,0,.209-.018.314-.029s.229-.031.343-.052c.183-.033.363-.075.542-.127a5.193,5.193,0,0,0,1.638-.794,5.877,5.877,0,0,0,1.051-.982,5.12,5.12,0,0,0,.9-1.58,5.567,5.567,0,0,0,.2-.7c.029-.134.053-.268.072-.4.008-.063.016-.126.024-.187s.012-.1.016-.147c0-.031.006-.063.008-.094s.007-.076.008-.115c.005-.115.009-.231.014-.347C268.858,491.341,268.859,491.28,268.857,491.221Zm-1.793.242c0,.024,0,.049,0,.073a4,4,0,0,1-.1.665,3.874,3.874,0,0,1-3.123,2.9,1.878,1.878,0,0,1-.229.029,4.1,4.1,0,0,1-.651.016c-.035,0-.07-.005-.1-.008-.018,0-.035-.005-.052-.006a2.89,2.89,0,0,1-.354-.052,3.873,3.873,0,0,1-2.924-2.6,3.727,3.727,0,0,1-.13-.519c-.017-.1-.029-.194-.041-.291a4.084,4.084,0,0,1-.015-.6c0-.042.006-.084.01-.126,0-.018,0-.035.005-.052a3.533,3.533,0,0,1,.062-.405,3.769,3.769,0,0,1,.171-.584,3.953,3.953,0,0,1,.2-.44c.031-.059.064-.117.1-.175s.072-.12.112-.178a4.182,4.182,0,0,1,.47-.565,3.85,3.85,0,0,1,1.727-1,3.734,3.734,0,0,1,.4-.086,3.493,3.493,0,0,1,.376-.041l.126-.006c.067,0,.133,0,.2,0s.161.006.242.014.147.014.22.025c.093.015.186.031.279.051a3.874,3.874,0,0,1,2.83,2.527,3.666,3.666,0,0,1,.135.508c.023.117.038.235.054.353l0,.031c.005.081.01.161.015.242,0,.039,0,.077,0,.134S267.067,491.4,267.064,491.463Z" transform="translate(-245.36 -485.585)" fill="#fff"/>
          <path id="Path_14" data-name="Path 14" d="M151.781,495.286a.649.649,0,0,0-.131-.039,1.283,1.283,0,0,0-.22-.021c-.158,0-.316,0-.473,0h-.094a.04.04,0,0,1-.02,0c-.005,0-.007-.01-.01-.016a.152.152,0,0,1,.03-.043c.078-.085.156-.172.229-.261a5.251,5.251,0,0,0,.9-1.571,5.482,5.482,0,0,0,.193-.666q.044-.195.072-.392c.009-.063.017-.126.025-.187.006-.045.012-.09.015-.136,0-.021,0-.042.005-.063.01-.073.013-.147.016-.22,0-.056,0-.112.007-.168.005-.1.006-.2,0-.294,0-.14-.01-.28-.016-.421,0-.014,0-.028,0-.042-.014-.1-.018-.2-.031-.3-.023-.171-.032-.239-.063-.405a5.549,5.549,0,0,0-.131-.553,5.159,5.159,0,0,0-.392-.973,5.016,5.016,0,0,0-.652-.952,5.423,5.423,0,0,0-1.433-1.175,5.547,5.547,0,0,0-1.9-.647l-.187-.026c-.094-.014-.188-.021-.283-.03s-.217-.016-.326-.02a7.9,7.9,0,0,0-.9.02l-.021,0c-.09.014-.182.015-.272.031-.112.01-.222.03-.333.051a5.732,5.732,0,0,0-.663.164,5.175,5.175,0,0,0-1.632.852,5.908,5.908,0,0,0-.8.759,5.372,5.372,0,0,0-.383.488,5.241,5.241,0,0,0-.829,1.917c-.025.116-.047.233-.065.352s-.032.222-.041.334l0,.031c-.009.063-.013.126-.016.188l-.009.169c0,.042,0,.084-.005.127,0,.165,0,.33.008.494.008.122.008.245.026.367,0,.088.018.175.029.262.015.108.033.215.053.321a5.645,5.645,0,0,0,.195.742,5.031,5.031,0,0,0,.848,1.552,5.479,5.479,0,0,0,.823.826,5.288,5.288,0,0,0,1.333.793,5.775,5.775,0,0,0,1.576.394l.063.007.1.01c.07.005.14.009.209.017a2.338,2.338,0,0,0,.242.01H151.4l.137,0a.628.628,0,0,0,.125-.018.853.853,0,0,0,.659-.734.864.864,0,0,0-.024-.323A.855.855,0,0,0,151.781,495.286Zm-1.277-3.813a1.359,1.359,0,0,1-.01.147c0,.014,0,.028,0,.042a3.82,3.82,0,0,1-.308,1.2,3.9,3.9,0,0,1-2.406,2.16,3.838,3.838,0,0,1-.532.127c-.121.02-.243.035-.365.043-.091.005-.182.014-.254.012a2.3,2.3,0,0,1-.25-.009l-.042,0a3.79,3.79,0,0,1-1.272-.309,3.9,3.9,0,0,1-2.138-2.3,4.006,4.006,0,0,1-.143-.527c-.023-.117-.039-.235-.054-.354,0-.024,0-.049-.005-.073s0-.07-.007-.1a2.718,2.718,0,0,1,0-.452l0-.042a3.709,3.709,0,0,1,.134-.786,3.9,3.9,0,0,1,3.073-2.788c.107-.019.215-.032.323-.044a4.262,4.262,0,0,1,.578-.013c.028,0,.055,0,.084.006s.042.005.063.006a3.455,3.455,0,0,1,.426.063,3.764,3.764,0,0,1,.654.2,3.9,3.9,0,0,1,2.2,2.236,3.782,3.782,0,0,1,.184.646,2.851,2.851,0,0,1,.051.364A3.705,3.705,0,0,1,150.5,491.473Z" transform="translate(-140.933 -485.644)" fill="#fff"/>
        </g>
      </g>
    </g>
  </g>
</svg>
