<svg xmlns="http://www.w3.org/2000/svg" width="20.397" height="20.395" viewBox="0 0 20.397 20.395">
  <g id="_x32_7-Phone" transform="translate(-9.689 -9.691)">
    <path id="Path_14731" data-name="Path 14731" d="M29.1,24.77,26.136,22.7a2.284,2.284,0,0,0-3.183.566l-.687.985A25.465,25.465,0,0,1,18.6,21.175a25.433,25.433,0,0,1-3.077-3.663l.985-.687a2.283,2.283,0,0,0,.566-3.183L15.008,10.68a2.288,2.288,0,0,0-1.867-.988,2.144,2.144,0,0,0-.744.133,4.1,4.1,0,0,0-.77.378l-.409.288a3.1,3.1,0,0,0-.288.258,4.107,4.107,0,0,0-1.053,1.876c-.852,3.2,1.259,8.027,5.254,12.022,3.355,3.355,7.386,5.439,10.519,5.44h0a5.836,5.836,0,0,0,1.5-.186,4.107,4.107,0,0,0,1.877-1.053,3.109,3.109,0,0,0,.27-.306l.288-.411a4.117,4.117,0,0,0,.365-.75A2.25,2.25,0,0,0,29.1,24.77Z" transform="translate(0)" fill="#000d4b"/>
  </g>
</svg>
