<svg xmlns="http://www.w3.org/2000/svg" width="25.003" height="25" viewBox="0 0 25.003 25">
  <g id="_x32_7-Phone" transform="translate(-9.689 -9.691)">
    <path id="Path_14731" data-name="Path 14731" d="M33.48,28.174l-3.63-2.536a2.8,2.8,0,0,0-3.9.694l-.843,1.208a31.215,31.215,0,0,1-4.491-3.772,31.175,31.175,0,0,1-3.771-4.49l1.207-.843a2.8,2.8,0,0,0,.694-3.9L16.209,10.9A2.8,2.8,0,0,0,13.92,9.691a2.628,2.628,0,0,0-.912.163,5.026,5.026,0,0,0-.944.463l-.5.353a3.8,3.8,0,0,0-.353.316,5.035,5.035,0,0,0-1.29,2.3c-1.045,3.917,1.544,9.84,6.441,14.737,4.113,4.113,9.054,6.668,12.894,6.668h0a7.153,7.153,0,0,0,1.843-.228,5.034,5.034,0,0,0,2.3-1.29,3.811,3.811,0,0,0,.331-.375l.353-.5a5.047,5.047,0,0,0,.447-.919A2.758,2.758,0,0,0,33.48,28.174Z" transform="translate(0)" fill="#5a5a5a"/>
  </g>
</svg>
