<svg xmlns="http://www.w3.org/2000/svg" width="50" height="50" viewBox="0 0 50 50">
  <path id="Path_14723" data-name="Path 14723" d="M35.928,20.679,29.517,27l6.411,6.321a1.812,1.812,0,1,1-2.518,2.607L27,29.518l-6.321,6.411a1.78,1.78,0,0,1-2.518-2.518L24.481,27,18.16,20.679a1.786,1.786,0,0,1,2.518-2.518L27,24.482l6.321-6.321a1.812,1.812,0,0,1,2.607,2.518Zm8.75,24a25,25,0,1,1,0-35.357,25,25,0,0,1,0,35.357ZM42.16,11.839a21.429,21.429,0,1,0,6.3,15.179,21.429,21.429,0,0,0-6.3-15.179Z" transform="translate(-2.001 -2)" fill="#f04d65"/>
</svg>
