<svg xmlns="http://www.w3.org/2000/svg" width="62" height="92" viewBox="0 0 62 92">
  <g id="Group_74789" data-name="Group 74789" transform="translate(-880 -2552)">
    <path id="Path_24118" data-name="Path 24118" d="M31,0A31,31,0,0,1,62,31c0,17.121-31,61-31,61S0,48.121,0,31A31,31,0,0,1,31,0Z" transform="translate(880 2552)" fill="#2a6ab4"/>
    <g id="Group_74788" data-name="Group 74788" transform="translate(890.339 2573.984)">
      <path id="Path_13" data-name="Path 13" d="M277.42,495.5c-.007-.252-.018-.506-.028-.758,0-.024,0-.05-.005-.074-.024-.184-.024-.37-.057-.552-.018-.21-.053-.416-.09-.622-.057-.322-.127-.641-.214-.955a9.406,9.406,0,0,0-2.323-4.09,9.037,9.037,0,0,0-4.791-2.628c-.169-.035-.339-.066-.51-.092-.121-.018-.243-.039-.366-.052-.179-.018-.355-.044-.534-.052l-.092-.007c-.079-.006-.16-.013-.239-.017-.247-.009-.493-.017-.74-.013a8.759,8.759,0,0,0-.906.039c-.042.005-.087.005-.129.009s-.074,0-.11.009c-.226.029-.453.055-.677.094-.309.052-.707.14-1.01.223a9.156,9.156,0,0,0-3.436,1.787c-.138.114-.272.232-.4.353-.031.029-.063.059-.1.086a.1.1,0,0,1-.029.02.075.075,0,0,1-.035,0,.028.028,0,0,1-.02-.028c0-.042,0-.087,0-.129v-.889c0-.068,0-.136-.005-.2a1.188,1.188,0,0,0-.055-.309,1.5,1.5,0,0,0-1-1,1.16,1.16,0,0,0-.309-.057c-.081,0-.16,0-.241,0a1.1,1.1,0,0,0-.309.055,1.5,1.5,0,0,0-.974.894,1.043,1.043,0,0,0-.072.248,1.892,1.892,0,0,0-.035.368c0,.037,0,.074,0,.11v8.789c0,.042,0,.086.007.129a2.539,2.539,0,0,1,.026.313c0,.042.007.086.011.129l.022.239c0,.037,0,.074.009.11.024.14.035.282.055.421.028.182.057.366.094.547a10.152,10.152,0,0,0,.247.987,9.3,9.3,0,0,0,.99,2.2,9.6,9.6,0,0,0,1.454,1.815,8.941,8.941,0,0,0,3.893,2.26q.444.127.9.212c.188.035.375.066.567.09.129.017.258.029.386.044q.166.019.331.028l.184.013c.092.006.184.013.278.015l.372.007c.355,0,.641,0,.922-.029.024,0,.05,0,.074,0,.186-.005.368-.031.552-.052.2-.024.4-.055.6-.092.322-.059.639-.133.953-.223a9.131,9.131,0,0,0,2.88-1.4,10.335,10.335,0,0,0,1.848-1.726,9,9,0,0,0,1.59-2.779,9.789,9.789,0,0,0,.35-1.226c.052-.236.094-.471.127-.71.015-.11.028-.221.042-.329.013-.086.02-.171.028-.258,0-.055.011-.11.015-.166s.013-.134.015-.2c.009-.2.017-.407.024-.611C277.422,495.707,277.424,495.6,277.42,495.5Zm-3.153.425c0,.042-.007.086-.007.129a7.027,7.027,0,0,1-.179,1.169,6.812,6.812,0,0,1-5.492,5.093,3.31,3.31,0,0,1-.4.052,7.213,7.213,0,0,1-1.145.028c-.061,0-.123-.009-.184-.015-.031,0-.061-.009-.092-.011a5.073,5.073,0,0,1-.622-.092A6.811,6.811,0,0,1,261,497.706a6.556,6.556,0,0,1-.228-.913c-.029-.169-.052-.341-.072-.512a7.177,7.177,0,0,1-.026-1.053c0-.074.011-.147.018-.221,0-.031.007-.061.009-.092a6.211,6.211,0,0,1,.109-.712,6.628,6.628,0,0,1,.3-1.027,6.957,6.957,0,0,1,.352-.773c.055-.1.112-.206.171-.307s.127-.212.2-.313a7.353,7.353,0,0,1,.826-.994,6.769,6.769,0,0,1,3.037-1.758,6.579,6.579,0,0,1,.7-.151,6.145,6.145,0,0,1,.661-.072l.221-.011c.118-.005.234-.005.352,0,.142.007.283.011.425.024s.258.024.386.044c.164.026.328.055.491.09a6.813,6.813,0,0,1,4.977,4.443,6.443,6.443,0,0,1,.237.893c.04.206.066.414.1.62l.006.055c.009.142.018.283.026.425,0,.068,0,.136.006.236C274.276,495.7,274.273,495.812,274.267,495.922Z" transform="translate(-236.1 -485.585)" fill="#fff"/>
      <path id="Path_14" data-name="Path 14" d="M160.01,502.595a1.142,1.142,0,0,0-.23-.068,2.253,2.253,0,0,0-.387-.037c-.278,0-.556,0-.832,0-.055,0-.11,0-.166,0a.07.07,0,0,1-.035-.007c-.009-.005-.013-.018-.018-.028a.269.269,0,0,1,.053-.075c.138-.149.274-.3.4-.458a9.234,9.234,0,0,0,1.581-2.763,9.646,9.646,0,0,0,.339-1.171q.077-.342.127-.69c.017-.11.029-.221.044-.329.011-.079.02-.158.026-.239,0-.037,0-.074.009-.11.018-.129.022-.258.028-.387,0-.1.007-.2.013-.3.009-.173.011-.346.007-.517-.007-.247-.018-.493-.028-.74,0-.024,0-.05-.006-.074-.024-.177-.031-.355-.055-.534-.04-.3-.057-.42-.11-.712a9.758,9.758,0,0,0-.23-.972,9.073,9.073,0,0,0-.69-1.712A8.821,8.821,0,0,0,158.706,489a9.536,9.536,0,0,0-2.52-2.067,9.754,9.754,0,0,0-3.342-1.137c-.11-.017-.221-.029-.329-.046-.166-.024-.331-.037-.5-.053-.19-.018-.381-.028-.572-.035a13.887,13.887,0,0,0-1.59.035l-.037,0c-.158.024-.32.026-.479.055-.2.018-.39.053-.585.09a10.076,10.076,0,0,0-1.165.289,9.1,9.1,0,0,0-2.869,1.5,10.389,10.389,0,0,0-1.408,1.334,9.457,9.457,0,0,0-.674.858,9.216,9.216,0,0,0-1.458,3.372c-.044.2-.083.41-.114.618s-.057.39-.072.587l-.006.055c-.017.11-.022.221-.028.331l-.017.3c0,.074-.007.147-.009.223-.006.291-.006.58.015.869.015.215.015.431.046.646.007.155.031.307.052.46.026.19.059.377.094.565a9.931,9.931,0,0,0,.342,1.3,8.847,8.847,0,0,0,1.491,2.729,9.635,9.635,0,0,0,1.447,1.452,9.3,9.3,0,0,0,2.345,1.4,10.156,10.156,0,0,0,2.772.692l.11.013.184.018c.123.009.247.017.368.029a4.11,4.11,0,0,0,.425.018h8.717c.081,0,.16,0,.241,0a1.1,1.1,0,0,0,.219-.031,1.5,1.5,0,0,0,1.16-1.29,1.52,1.52,0,0,0-.042-.569A1.5,1.5,0,0,0,160.01,502.595Zm-2.245-6.705a2.4,2.4,0,0,1-.018.258c0,.024-.006.05-.007.074a6.717,6.717,0,0,1-.541,2.1,6.856,6.856,0,0,1-4.231,3.8,6.762,6.762,0,0,1-.935.223c-.214.035-.427.061-.642.076-.16.009-.32.024-.447.02a4.042,4.042,0,0,1-.44-.017l-.074-.006a6.664,6.664,0,0,1-2.236-.543,6.858,6.858,0,0,1-3.76-4.038,7.045,7.045,0,0,1-.252-.928c-.04-.206-.068-.414-.1-.622-.006-.042-.007-.086-.009-.129,0-.061-.007-.123-.013-.184a4.781,4.781,0,0,1,0-.8l.006-.074a6.523,6.523,0,0,1,.236-1.382,6.86,6.86,0,0,1,5.4-4.9c.188-.033.377-.057.569-.077a7.5,7.5,0,0,1,1.016-.022c.05,0,.1.007.147.011s.074.009.11.011a6.083,6.083,0,0,1,.749.11,6.619,6.619,0,0,1,1.15.344,6.859,6.859,0,0,1,3.872,3.931,6.65,6.65,0,0,1,.324,1.136,5.011,5.011,0,0,1,.09.641A6.518,6.518,0,0,1,157.764,495.89Z" transform="translate(-140.933 -485.639)" fill="#fff"/>
    </g>
  </g>
</svg>
