<svg xmlns="http://www.w3.org/2000/svg" width="340" height="340" viewBox="0 0 340 340">
  <g id="Group_68736" data-name="Group 68736" opacity="0.055">
    <path id="Path_12" data-name="Path 12" d="M426.346,744.17H148.374a31.007,31.007,0,0,1-31.014-31.014V435.184a31.007,31.007,0,0,1,31.014-31.013H426.346a31.006,31.006,0,0,1,31.014,31.013V713.157A31.015,31.015,0,0,1,426.346,744.17Z" transform="translate(-117.36 -404.17)" fill="#2a6ab4"/>
    <g id="Group_116" data-name="Group 116" transform="translate(29.503 101.896)">
      <path id="Path_13" data-name="Path 13" d="M392.564,552.988c-.05-1.714-.125-3.441-.188-5.156-.012-.163-.012-.338-.037-.5-.163-1.251-.163-2.516-.388-3.755-.125-1.427-.363-2.828-.613-4.231-.388-2.19-.864-4.355-1.452-6.5a63.964,63.964,0,0,0-15.795-27.81,61.452,61.452,0,0,0-32.578-17.872c-1.151-.238-2.3-.451-3.467-.625-.826-.126-1.652-.263-2.49-.351-1.214-.125-2.416-.3-3.63-.35-.213-.012-.413-.037-.626-.05-.538-.038-1.089-.088-1.627-.113-1.677-.063-3.354-.112-5.032-.088a59.557,59.557,0,0,0-6.157.263c-.288.037-.588.037-.876.063-.25.013-.5.025-.751.062-1.539.2-3.079.375-4.606.638-2.1.351-4.806.952-6.871,1.515a62.261,62.261,0,0,0-23.367,12.153c-.939.776-1.852,1.577-2.753,2.4-.213.2-.425.4-.651.588a.7.7,0,0,1-.2.138.509.509,0,0,1-.238.012.187.187,0,0,1-.137-.187c-.013-.288-.025-.589-.025-.876v-6.045c0-.463-.025-.926-.037-1.389a8.078,8.078,0,0,0-.375-2.1,10.194,10.194,0,0,0-6.834-6.834,7.886,7.886,0,0,0-2.1-.388c-.551-.025-1.089-.025-1.64,0a7.481,7.481,0,0,0-2.1.376,10.208,10.208,0,0,0-6.621,6.082,7.092,7.092,0,0,0-.488,1.69,12.88,12.88,0,0,0-.238,2.5c.013.25,0,.5,0,.751v59.763c.013.288.013.588.05.876a17.247,17.247,0,0,1,.175,2.128c.012.288.05.588.075.876.05.538.1,1.089.15,1.627.025.25.025.5.063.751.162.951.238,1.915.375,2.866.188,1.239.388,2.491.639,3.717a69.047,69.047,0,0,0,1.677,6.708,63.231,63.231,0,0,0,6.733,14.981,65.247,65.247,0,0,0,9.887,12.341,60.8,60.8,0,0,0,26.471,15.369q3.022.863,6.12,1.439c1.277.238,2.553.451,3.855.614.876.113,1.752.2,2.628.3q1.126.131,2.253.188c.413.025.838.063,1.252.088.626.038,1.251.088,1.89.1,1,.025,2.015.037,2.528.05,2.416,0,4.356-.012,6.27-.2.163-.012.338-.025.5-.025,1.264-.037,2.5-.213,3.755-.35,1.377-.163,2.741-.376,4.105-.626,2.19-.4,4.343-.9,6.483-1.514a62.1,62.1,0,0,0,19.587-9.5,70.285,70.285,0,0,0,12.566-11.74,61.222,61.222,0,0,0,10.814-18.9,66.543,66.543,0,0,0,2.378-8.336c.351-1.6.638-3.2.863-4.831.1-.751.188-1.5.288-2.24.088-.588.137-1.164.188-1.753.025-.375.075-.751.1-1.126.038-.463.088-.914.1-1.377.063-1.377.113-2.766.163-4.155C392.577,554.415,392.589,553.689,392.564,552.988Zm-21.439,2.891c-.013.288-.05.588-.05.876a47.789,47.789,0,0,1-1.214,7.948,46.321,46.321,0,0,1-37.347,34.63,22.546,22.546,0,0,1-2.741.35,49.006,49.006,0,0,1-7.785.188c-.413-.013-.839-.063-1.252-.1-.213-.025-.413-.063-.626-.075a34.4,34.4,0,0,1-4.23-.625,46.31,46.31,0,0,1-34.969-31.064,44.6,44.6,0,0,1-1.552-6.208c-.2-1.152-.35-2.316-.488-3.48a48.793,48.793,0,0,1-.175-7.159c.013-.5.075-1,.125-1.5.012-.213.05-.413.062-.626a42.249,42.249,0,0,1,.739-4.844,45.089,45.089,0,0,1,2.04-6.983,47.289,47.289,0,0,1,2.39-5.257c.376-.7.764-1.4,1.164-2.09.413-.726.864-1.439,1.339-2.127a50.026,50.026,0,0,1,5.619-6.758,46.034,46.034,0,0,1,20.651-11.953,44.739,44.739,0,0,1,4.793-1.026,41.818,41.818,0,0,1,4.493-.488l1.5-.075c.8-.037,1.59-.037,2.391-.012.963.05,1.927.075,2.891.163.876.075,1.752.162,2.628.3,1.114.175,2.228.375,3.342.613a46.325,46.325,0,0,1,33.842,30.213,43.823,43.823,0,0,1,1.615,6.07c.275,1.4.45,2.816.651,4.218l.038.375c.062.964.125,1.927.175,2.891.025.463.025.926.037,1.6C371.188,554.378,371.163,555.128,371.125,555.879Z" transform="translate(-111.592 -485.585)" fill="#fff"/>
      <path id="Path_14" data-name="Path 14" d="M270.654,600.869a7.773,7.773,0,0,0-1.564-.463,15.311,15.311,0,0,0-2.628-.25c-1.89.025-3.78.013-5.657,0-.376,0-.751,0-1.126-.012a.474.474,0,0,1-.238-.05c-.063-.037-.088-.125-.125-.188a1.821,1.821,0,0,1,.363-.513c.939-1.014,1.865-2.053,2.741-3.117a62.789,62.789,0,0,0,10.751-18.786,65.6,65.6,0,0,0,2.3-7.96q.526-2.328.864-4.693c.113-.751.2-1.5.3-2.24.075-.538.138-1.076.175-1.627.012-.25.025-.5.063-.751.125-.876.15-1.752.188-2.628.025-.676.05-1.339.088-2.015.063-1.176.075-2.352.05-3.517-.05-1.677-.125-3.354-.188-5.031-.012-.163-.012-.338-.038-.5-.163-1.2-.213-2.416-.375-3.63-.275-2.04-.388-2.854-.751-4.844a66.366,66.366,0,0,0-1.564-6.608,61.71,61.71,0,0,0-4.693-11.64,59.986,59.986,0,0,0-7.8-11.389,64.842,64.842,0,0,0-17.134-14.055,66.33,66.33,0,0,0-22.728-7.735c-.751-.113-1.5-.2-2.24-.313-1.126-.162-2.253-.25-3.379-.363-1.289-.125-2.591-.188-3.892-.238a94.425,94.425,0,0,0-10.813.238c-.088.012-.163.012-.25.025-1.076.163-2.178.176-3.254.376-1.339.125-2.653.363-3.98.613a68.48,68.48,0,0,0-7.922,1.965,61.882,61.882,0,0,0-19.512,10.188,70.655,70.655,0,0,0-9.574,9.074,64.353,64.353,0,0,0-4.581,5.833,62.672,62.672,0,0,0-9.912,22.929c-.3,1.389-.563,2.791-.776,4.2-.2,1.327-.388,2.654-.488,3.993l-.038.376c-.113.751-.15,1.5-.188,2.253-.038.676-.075,1.339-.113,2.015-.025.5-.05,1-.063,1.514-.038,1.978-.038,3.942.1,5.907.1,1.464.1,2.929.313,4.393.05,1.051.213,2.09.35,3.129.175,1.289.4,2.565.638,3.842a67.525,67.525,0,0,0,2.328,8.874,60.156,60.156,0,0,0,10.138,18.561,65.53,65.53,0,0,0,9.837,9.875,63.25,63.25,0,0,0,15.945,9.487,69.07,69.07,0,0,0,18.849,4.706c.25.025.5.063.751.088.413.037.839.088,1.252.125.839.062,1.677.112,2.5.2a27.944,27.944,0,0,0,2.891.125h59.274c.551,0,1.089-.013,1.64-.025a7.491,7.491,0,0,0,1.489-.213,10.2,10.2,0,0,0,7.885-8.773,10.333,10.333,0,0,0-.288-3.868A10.225,10.225,0,0,0,270.654,600.869Zm-15.269-45.595a16.282,16.282,0,0,1-.125,1.753c-.025.162-.038.338-.05.5a45.676,45.676,0,0,1-3.68,14.306,46.624,46.624,0,0,1-28.773,25.832,45.992,45.992,0,0,1-6.358,1.514c-1.452.238-2.9.413-4.368.513-1.089.063-2.178.163-3.041.137a27.432,27.432,0,0,1-2.991-.113l-.5-.038a45.3,45.3,0,0,1-15.207-3.692,46.632,46.632,0,0,1-25.569-27.46,47.9,47.9,0,0,1-1.715-6.308c-.275-1.4-.463-2.816-.651-4.23-.038-.288-.05-.588-.063-.876-.025-.413-.05-.839-.088-1.251a32.511,32.511,0,0,1,0-5.407c.012-.162.025-.338.038-.5a44.361,44.361,0,0,1,1.6-9.4,46.652,46.652,0,0,1,36.746-33.342c1.277-.225,2.566-.388,3.867-.526a50.974,50.974,0,0,1,6.909-.15c.338.012.663.05,1,.075.25.025.5.063.751.075a41.332,41.332,0,0,1,5.094.751,45.015,45.015,0,0,1,7.822,2.34,46.644,46.644,0,0,1,26.333,26.733,45.224,45.224,0,0,1,2.2,7.722,34.09,34.09,0,0,1,.613,4.355A44.322,44.322,0,0,1,255.385,555.274Z" transform="translate(-140.933 -485.568)" fill="#fff"/>
    </g>
  </g>
</svg>
