<?xml version="1.0" encoding="UTF-8"?>
<svg width="18px" height="18px" viewBox="0 0 18 18" version="1.1" xmlns="http://www.w3.org/2000/svg" xmlns:xlink="http://www.w3.org/1999/xlink">
    <!-- Generator: Sketch 63.1 (92452) - https://sketch.com -->
    <title>serach_grey</title>
    <desc>Created with Sketch.</desc>
    <g id="Page-1" stroke="none" stroke-width="1" fill="none" fill-rule="evenodd">
        <g id="Artboard" transform="translate(-73.000000, -49.000000)" fill="#CFCFD4">
            <path d="M85.502,55.491 L84.708,55.491 L84.432,55.765 C85.407,56.902 86,58.376 86,59.991 C86,63.581 83.09,66.491 79.5,66.491 C75.91,66.491 73,63.581 73,59.991 C73,56.401 75.91,53.491 79.5,53.491 C81.115,53.491 82.588,54.083 83.725,55.057 L84.001,54.783 L84.001,53.991 L88.999,49 L90.49,50.491 L85.502,55.491 L85.502,55.491 Z M79.5,55.491 C77.014,55.491 75,57.505 75,59.991 C75,62.476 77.014,64.491 79.5,64.491 C81.985,64.491 84,62.476 84,59.991 C84,57.505 81.985,55.491 79.5,55.491 L79.5,55.491 Z" id="serach_grey" transform="translate(81.745000, 57.745500) scale(1, -1) translate(-81.745000, -57.745500) "></path>
        </g>
    </g>
</svg>