<svg xmlns="http://www.w3.org/2000/svg" width="120.256" height="37.6" viewBox="0 0 120.256 37.6">
  <g id="softwaresuggest-logo-vector" transform="translate(-21 -226.7)">
    <path id="Path_23263" data-name="Path 23263" d="M30.781,260.452a23.594,23.594,0,0,1-6.514-1.483h-.3a1.886,1.886,0,0,1-1.483-1.784L21.3,252.735l-.3-1.483v-.3l.3-.3h.6l.3.882a8.977,8.977,0,0,0,1.784,3.267,11.381,11.381,0,0,0,6.514,3.848,10.485,10.485,0,0,0,5.933-1.483,5.57,5.57,0,0,0,2.966-3.848,5.228,5.228,0,0,0-2.966-6.213L31.1,244.738a23.064,23.064,0,0,1-5.331-2.365,7.535,7.535,0,0,1-3.267-3.548,8.621,8.621,0,0,1-.6-3.848,8.082,8.082,0,0,1,5.331-7.115,12.346,12.346,0,0,1,8.6-.3l1.784.6H39.1l.3-.3.6.3v.6l.6,4.149.3,1.784v.3l-.3.3H40l-.3-.882a8.326,8.326,0,0,0-2.966-4.149A13.371,13.371,0,0,0,32,228.484a5.858,5.858,0,0,0-4.449.6,4.621,4.621,0,0,0-2.966,3.548,4.743,4.743,0,0,0,1.183,4.449,5.263,5.263,0,0,0,2.365,2.064l5.893,2.064c2.064.882,3.848,1.483,5.031,2.966a6.02,6.02,0,0,1,2.666,4.73,9.119,9.119,0,0,1-3.548,9.18,12.8,12.8,0,0,1-5.632,2.064Zm55.077-20.423-.3,1.483-.6,1.183a1.551,1.551,0,0,1-2.666.3l-.6-1.483-2.666-8.3h2.365l1.183,3.848,1.183,4.73.3.3.3-.3,1.183-3.267v-.3l-1.483-4.73v-.6h2.064l.3.3,1.183,4.149,1.183,4.449.3.3h.3v-.6c1-2.866,1.984-5.712,2.966-8.6h.6l-.6,2.064-2.064,6.514-.6,1.183a1.445,1.445,0,0,1-2.666,0l-.882-1.784-.3-1.183v.341Zm31.708,3.247H114.9l-2.365-5.031.882-.3c.882,0,1.183-.6,1.483-1.483l-.3-1.483c0-.6-.6-.882-1.483-1.183h-1.483v9.48h-2.365V232.913h4.149l2.064.3c1.784.882,2.064,2.365,1.483,3.548l-1.483,1.483h-.6Zm-47.7,8.6-.882.6-.3-.882a3.345,3.345,0,0,0-3.267-.882,2.458,2.458,0,0,0-1.483,1.483l-.6,2.064a5.84,5.84,0,0,0,.6,3.267,1.641,1.641,0,0,0,.882,1.483,1.839,1.839,0,0,0,2.064.6c.6,0,.882-.6,1.183-1.182l.3-1.483v-1.824h1.784v9.18H68.361v-4.73l-.3.3a4.072,4.072,0,0,1-4.449,0,4.706,4.706,0,0,1-2.365-4.149,5.015,5.015,0,0,1,.6-3.548,5.282,5.282,0,0,1,3.267-2.365c1.784-.3,3.267,0,4.149,1.183Zm15.994,0-.882.6-.3-.6a2.433,2.433,0,0,0-2.966-1.183c-.882,0-1.183.6-1.784,1.183l-.3,2.064V257.2l.882,1.784,2.064.6a1.985,1.985,0,0,0,1.483-1.183l.3-1.183v-2.1h1.784v9.18H84.355v-4.73h-.3c-1.483,1.483-3.548.882-5.031,0a5.65,5.65,0,0,1,.6-9.18,4.756,4.756,0,0,1,4.449-.3A2.616,2.616,0,0,1,85.858,251.874Zm-34.053-8.3a5.2,5.2,0,0,1-5.331-4.73,4.833,4.833,0,0,1,.3-2.966c.6-2.064,2.365-2.966,4.449-2.966a5.07,5.07,0,0,1,5.031,3.848v3.848A4.579,4.579,0,0,1,51.806,243.576Zm-3.267-5.331.3,1.183.882,2.666a2.348,2.348,0,0,0,3.267,0l.882-1.483.3-4.149L52.988,234.1a2.348,2.348,0,0,0-3.267,0l-.6,1.183Zm14.812-5.031h2.365v.6l-.3.3H63.631l-.3.3V243.3H61.286V228.484A2.694,2.694,0,0,1,63.07,226.7h2.365l.3.3c0,.6,0,.6-.6.6h-.882c-.6.3-.882.3-.882,1.183v4.429ZM46.474,250.09h2.064V256.6l.3,1.183c.3.882.882,1.183,1.784,1.483l.6-.3c.882,0,1.483-.6,1.784-1.784V250.39l.3-.3c.6,0,.6,0,.6.6v5.933l-.3,1.784a2.844,2.844,0,0,1-2.365,2.064l-2.365-.3a3.224,3.224,0,0,1-2.365-2.365V250.09Zm58.344-6.815h-2.064l-.882-2.365-.3-.882H98.3l-.6.3-.6,2.666-.3.3H95.92l.6-1.483,2.064-7.4v-.6a1.952,1.952,0,0,1,3.267-.3l.6,1.183,2.365,8.3Zm-3.247-4.149h-.3l-.3-1.483-.6-2.666-.6-.6-.3.6h-.3l-.6,2.365-.6,1.784Zm26.957-5.913v.6h-3.548c-.882,0-.882.3-.882,1.183v2.365h3.267l.3.3c0,.6,0,.6-.6.6H124.1v3.267c0,.6,0,.882.6.882h3.848v.882h-5.632c-.882-.3-1.183-.6-1.183-1.183v-8c.3-.6.6-.882,1.183-.882l.6-.3h4.71ZM99.788,254.239v.882H96.24v3.548c0,.3,0,.6.6.6h3.848v.882H95.058c-.6-.3-.882-.3-.882-.882v-8.318c0-.6.3-.882,1.183-.882h5.331v.6H98.325l-1.183.3c-.6,0-.882,0-.882.6v2.365l.3.3Zm8.3,5.031h3.267a1.328,1.328,0,0,0,.6-2.365l-1.183-.882-2.064-1.483a2.657,2.657,0,0,1-.882-2.064,2.824,2.824,0,0,1,2.365-2.365l2.966-.3.3.3h.3v.6h-1.483l-1.483.3a1.073,1.073,0,0,0-.6,1.784l1.183.882,2.064,1.483c1.784.882,1.483,3.848-.3,4.73a4.125,4.125,0,0,1-2.666.3h-2.084l-.3-.3ZM73.432,243.275H71.067v-8.9l-.3-.6H68.982v-.6H75.5v.6H73.432v9.5Zm52.131,16.9H123.5v-9.18h-1.784l-.3-.3c0-.882-.3-.6.6-.6h5.933v.6l-.3.3h-1.483c-.6,0-.3-.3-.3.3v8.6Z" fill="#135893"/>
    <path id="Path_23264" data-name="Path 23264" d="M575.831,232.6a5.031,5.031,0,1,1-5.031,5.031,5.021,5.021,0,0,1,5.031-5.031Zm-4.449,5.031a4.289,4.289,0,1,0,4.289-4.289A4.294,4.294,0,0,0,571.381,237.631Z" transform="translate(-439.605 -4.717)" fill="#135893"/>
    <path id="Path_23265" data-name="Path 23265" d="M589.666,248.846l.882,1.784h-.6l-1.183-1.784h-.882v1.784H587V245.9h2.064l.6.3h.6l.3.882.3.3-.3.6v.3l-.6.6h-.3Zm-1.784-.581h1.182l.3-.3h.3l.3-.3v-.9h-.3l-.3-.3h-1.483Z" transform="translate(-452.558 -15.352)" fill="#135893"/>
  </g>
</svg>
