<svg xmlns="http://www.w3.org/2000/svg" width="653.504" height="260.001" viewBox="0 0 653.504 260.001">
  <g id="Group_69749" data-name="Group 69749" transform="translate(-633 -199.999)">
    <path id="Path_14407" data-name="Path 14407" d="M70.562,35.416q-5.453,1.369-12.418,3T44,41.41q-7.178,1.366-14.01,2.452a78.636,78.636,0,0,1-12.28,1.09q-4.635,0-6.538-1.21T5.449,40.658c-.367-.537-.817-1.295-1.362-2.283S2.955,36.32,2.316,35.152,1.138,32.918.682,31.931A6.242,6.242,0,0,1,0,29.916c0-2.323.911-3.49,2.726-3.49h4.9A40.792,40.792,0,0,0,15.8,25.6q4.085-.821,8.173-1.65L55.85,17.066Q82.273,11.286,108.7,5.644A256.271,256.271,0,0,1,162.374,0q2.452,0,6.811.411t8.854.952a74.542,74.542,0,0,1,8.446,1.5,30.289,30.289,0,0,1,6.13,2.043l3.541,8.718,2.453.818.272.543-4.632,1.108a43.715,43.715,0,0,1-7.764.97,72.142,72.142,0,0,0-7.764.69q-9.54,1.111-18.935,1.942T140.851,21.9q-10.9,1.387-21.659,3.326T97.806,29.381a5.516,5.516,0,0,1,1.09,3.537,20.612,20.612,0,0,1-.818,4.764,65.026,65.026,0,0,1-2.043,6.4q-1.227,3.269-2.452,6.394t-1.771,5.036l-13.35,41.64q-2.182,6.264-3.813,12.792t-3.27,12.792q-3.544,13.34-6.948,26.4T58.847,175.8q-1.365,8.442-2.451,16.878t-2.179,17.142a94.584,94.584,0,0,0-.818,12.251,88.56,88.56,0,0,0,1.771,18.232A171.945,171.945,0,0,0,59.937,258l-.273.546a26.018,26.018,0,0,0-4.086-1.364A24.442,24.442,0,0,1,49.946,255a19.046,19.046,0,0,1-4.282-4.086,41.1,41.1,0,0,1-10.085-19.889,119.568,119.568,0,0,1-2.069-22.34,250.432,250.432,0,0,1,2.482-33.918q2.484-18.117,6.351-36.644t8.547-36.371q4.687-17.839,9.319-33.1.815-2.72,2.451-7.492t3.406-9.672q1.77-4.9,3.133-9.4a25.822,25.822,0,0,0,1.362-6.676" transform="translate(633 200)" fill="#414042"/>
    <path id="Path_14408" data-name="Path 14408" d="M192.423,100.274a50.248,50.248,0,0,1-1.444,11.777q-1.449,6-2.556,11.777-2.448,13.782-5.333,27.667a136.5,136.5,0,0,0-2.889,27.889,40.884,40.884,0,0,0,.223,4.334,23.489,23.489,0,0,0,.888,4.334.445.445,0,0,0,.111.332.46.46,0,0,1,.111.335,1.583,1.583,0,0,1-.111.665,1.5,1.5,0,0,0-.111.667,11.966,11.966,0,0,1-2.667.222,13.274,13.274,0,0,1-8.666-3.334,11.6,11.6,0,0,1-4.445-8,37.1,37.1,0,0,1-.222-4.111v-4.111q0-3.782.111-7.667t.556-7.667q1.776-15.109,3.889-28.888a204.925,204.925,0,0,1,6.555-28.445l-.444-.445-6.889,5.779a39.459,39.459,0,0,0-6.222,7,85.948,85.948,0,0,0-5.111,7.89A154.787,154.787,0,0,0,147.2,140.051a140.812,140.812,0,0,0-6.778,23.111q-.447,2.218-.889,3.777a22.917,22.917,0,0,1-9.111-2.666,12.813,12.813,0,0,1-5-5.333,21.914,21.914,0,0,1-2.112-7.556,87.562,87.562,0,0,1-.445-9.111A182.646,182.646,0,0,1,126.2,107.5q3.333-17.219,7.111-34.333,1.552-6.886,3.111-13.778A140.148,140.148,0,0,1,140.2,45.829q2-6.442,4.555-12.667t5-12.444c.445-1.034.889-2.112,1.334-3.222a11.014,11.014,0,0,1,1.778-3c.739.445,1.333.777,1.778,1a4,4,0,0,0,1.778.333,6.36,6.36,0,0,1,3.556,1.445,26.831,26.831,0,0,1,3.111,2.556,7.953,7.953,0,0,1,1.444,1.778,7.909,7.909,0,0,1,.556,2.222v1.777a39.716,39.716,0,0,1-.888,7.556q-.891,4.449-2.223,9.223T159.2,51.718q-1.449,4.555-2.333,7.888Q154.42,68.722,152.2,77.5t-4.444,17.889q-.448,1.781-1.222,4.778t-1.667,6.222q-.89,3.225-1.444,6.111a25.322,25.322,0,0,0-.556,4.444.939.939,0,0,0,.111.445,1.022,1.022,0,0,1,.111.445q3.334-4.885,6.222-8.889a67.621,67.621,0,0,1,6.223-7.444,85.653,85.653,0,0,1,7.111-6.557,99.825,99.825,0,0,1,8.889-6.444,13.851,13.851,0,0,1,2.444-1.333,7.215,7.215,0,0,1,2.667-.444,12.455,12.455,0,0,1,6.111,1.666,53.436,53.436,0,0,1,5.445,3.445,10.549,10.549,0,0,1,3.333,3.556,11.126,11.126,0,0,1,.889,4.89m-59.111-6.445h-.222v.444h.222Zm.445-1.778a1.529,1.529,0,0,1,.111-.667,1.547,1.547,0,0,0,.111-.667l-.667,1.111Zm.222-1.554a2.51,2.51,0,0,0,.222-1.112h-.222Zm.666-4.223a2.469,2.469,0,0,0-.222,1.111h.445a1.751,1.751,0,0,1-.222-1.111m.222,49.556a.892.892,0,0,0-.111-.557c-.077-.073-.111-.256-.111-.555a2.475,2.475,0,0,0-.222,1.111Zm.445-6a12.084,12.084,0,0,0-.445,2.667h.445Zm4.89-29.555q-1.558,7.332-2.89,14.665t-2,14.667a52.42,52.42,0,0,0,1.556-5.889q.666-3.218,1.222-6.778t1.111-6.888q.552-3.334,1.223-6.223Q144.2,86.5,148.867,69.384t9.112-34.444l-.445.222q-2.448,7.556-4.778,14.889t-4.333,14.888q-2.447,8.891-4.444,17.667T140.2,100.274m-4-20.223a1.289,1.289,0,0,0-.222.888h.222Zm0-.222a1.28,1.28,0,0,0,.445-.888l-.445-.223Zm.668-3.111.444.222a13.884,13.884,0,0,1,.111-1.779,14.5,14.5,0,0,0,.111-1.777l.445-.222q.668-2.442,1.222-4.556t1-4.555a20.856,20.856,0,0,0-1.668,4.555q-.557,2.334-1,4.778Zm.888,16h.222v-.889h-.222Zm1.555-7.111a1.547,1.547,0,0,1-.111.667,1.516,1.516,0,0,0-.11.666l-.445,1.555h.445l.666-2.667Zm14.445,32a26.242,26.242,0,0,0-4.222,6.221q-2.226,4.225-4.333,9t-3.667,9.444q-1.558,4.667-2.223,7.334a1.77,1.77,0,0,0-.111,1.11,1.817,1.817,0,0,1-.11,1.111,5.107,5.107,0,0,0,1.111-2q1.775-5.332,3.666-10.666a106.19,106.19,0,0,1,4.334-10.444l5.556-10.668Zm-14-33.778a.624.624,0,0,0,.222.443v-.443Zm0,56h.222v-.222Zm.667-58.89a2.471,2.471,0,0,0-.222,1.112l.444.222a3.062,3.062,0,0,1-.222-1.334m.445,47.78h.444l2-4.224ZM147.311,54.5q-1.556,5.112-2.887,10.332t-2.444,10.333a10.724,10.724,0,0,0,1.222-3.334q.775-2.885,1.666-6.444t1.556-6.666q.666-3.109.888-4.22l.445-1.335.222-.889a1.284,1.284,0,0,0-.222.889,3.378,3.378,0,0,0-.445,1.335m-2.444,86.666-.222-.222v.222Zm0-95.334a.644.644,0,0,0,.445-.223v-.222Zm1.111-3.334h.222v-.223Zm.666,93.334h-.222l.222.222Zm1.556-14a.636.636,0,0,1,.222-.443H148.2Zm.222-70.887.222-.668h-.222Zm.222,28.443-.222.222h.222Zm.222-30.445h.222V48.5h-.222Zm.445-2h.223v-.222Zm1.557,23.779a.64.64,0,0,1,.222-.445h-.222Zm2.666-9.112h-.222v.222Zm.888-3.556H154.2v.222Zm-.222,59.111a2.522,2.522,0,0,1,.445-.665.908.908,0,0,0,.222-.667,2.6,2.6,0,0,1-.445.667.9.9,0,0,0-.222.665m.667-60.666a.2.2,0,0,0-.222.222h.222Zm4-26.223q-.448,1.781-.889,4.445.443-1.111.889-2.111a5.159,5.159,0,0,0,.445-2.112Zm.666-1.556h.222a1.3,1.3,0,0,0-.222-.888l.668-.889-.223-.222a3.907,3.907,0,0,1-.445,1.111Zm18.446,123.556h-.223v.888l.223-.222Zm.888-6.666h-.222c0,.149.034.222.11.222s.111.076.111.222Zm1.111-7.111-.444,1.555h.444Zm3.334-14.89q1.11-4.667,2-9.221t1.555-9.223q-2.221,7.558-3.665,15t-2.778,15.222a27.626,27.626,0,0,0,1.666-5.89q.552-3.217,1.222-5.888m4-20.222h-.445v1.11Z" transform="translate(604.313 196.615)" fill="#414042"/>
    <path id="Path_14409" data-name="Path 14409" d="M281.146,164.631a6.73,6.73,0,0,1,1.111-1.889,13.51,13.51,0,0,0,1.335-1.889q-1.783,4.449-4.667,10t-6.333,11q-3.449,5.449-7.221,10.334a47.406,47.406,0,0,1-7.335,7.776,47.739,47.739,0,0,1-6.111-2.555q-2.333-1.223-2.334-5.889a95.728,95.728,0,0,1,1.667-17.888q1.667-8.777,3.444-17.668l-7.556,7.777q-1.781,1.783-3.888,4.222t-4.445,4.667a26.762,26.762,0,0,1-5,3.778,10.869,10.869,0,0,1-5.557,1.555,13.089,13.089,0,0,1-4.444-.888,17.83,17.83,0,0,1-4.556-2.444,14.155,14.155,0,0,1-3.445-3.555,7.836,7.836,0,0,1-1.333-4.444,34.9,34.9,0,0,1,2.333-11.444,77.706,77.706,0,0,1,6-12.89,96.854,96.854,0,0,1,8-11.778,44.119,44.119,0,0,1,8.333-8.333,44.64,44.64,0,0,1,7.334-4.332,19.064,19.064,0,0,1,8.221-1.889,15.012,15.012,0,0,1,7.668,2,37.031,37.031,0,0,1,6.555,4.89,2.575,2.575,0,0,1,.889,1.777,3.393,3.393,0,0,1-.445,1.334l-6.444-1.777a28.67,28.67,0,0,0-10.555,6.223,59.279,59.279,0,0,0-8.222,9.443,74.939,74.939,0,0,0-6.445,11.111q-2.781,5.891-5.223,11.223l.445.445,3.556-2.667,21.333-19.113a20.858,20.858,0,0,0,4.445-5.665,9.952,9.952,0,0,1,5.333-4.556l.222,2.223-.666.221q-.448.669-.333.78c.073.077-.111.333-.555.776l.666-.222.222-1.111.666-.444a1.426,1.426,0,0,1,1.333-.889,1.819,1.819,0,0,1,1.112.667l-.222,1.555.888-.445v-.222l1.111.444q-1.333,4.223-2.778,8.222t-3,8l-.222.222a.2.2,0,0,0,.222-.222c.444-.445.666-.741.666-.891q1.775-3.776,3.222-7.444t3.222-7.223q2,.45,2,2a7.673,7.673,0,0,1-.333,2.222q-.333,1.114-.779,2.221-1.113,3.115-3.222,9.113t-4.222,12.554q-2.114,6.558-3.667,12.444a38.181,38.181,0,0,0-1.555,8.556,14.289,14.289,0,0,0,3.889-3.444,44.886,44.886,0,0,1,3.445-3.889h.444a73.754,73.754,0,0,1-4.777,6,24.4,24.4,0,0,0-4.111,6.444h-.222v.222a.2.2,0,0,0,.222-.222,69,69,0,0,0,5.778-6.556q2.666-3.444,5.333-6.778a22.6,22.6,0,0,0,1.332-2,10.438,10.438,0,0,1,1.555-2l1.112-1.111a92.843,92.843,0,0,1-8.223,11.667,62.972,62.972,0,0,0-7.778,11.889l7.112-8.222-2,3.778,1.556-1.111.222.889a4.954,4.954,0,0,1,.888-1.779,11.643,11.643,0,0,0,1.111-1.777h.223v-.222l-.223.222h-.444a16.8,16.8,0,0,1,.888-2.223,5.549,5.549,0,0,1,1.555-1.777v.888l.445-.888.668-.445.444-.889a6.913,6.913,0,0,1,1.444-2.444,6.91,6.91,0,0,0,1.445-2.444,12.531,12.531,0,0,1,1-1.666,12.755,12.755,0,0,0,1-1.666H276.7l.445-.889h-.222l1.334-2.444.222.889a7.5,7.5,0,0,1,.555-1.556,12,12,0,0,1,.777-1.334h-.222l.667-.444a8.9,8.9,0,0,0,.888-2Zm-59.333-10.89a.449.449,0,0,1-.111.333.45.45,0,0,0-.111.333h.222Zm.667-1.777c.445-.445.667-.74.667-.889q2.218-3.776,4.221-7.556a74.179,74.179,0,0,1,4.445-7.333q.443-.667,1.555-2.112a4.314,4.314,0,0,0,1.112-2.333l-.445.89a28.526,28.526,0,0,0-2.889,3.666,64.381,64.381,0,0,0-3.445,5.557q-1.667,3-3.111,5.778t-2.111,4.333a1.5,1.5,0,0,0-.445,1.111Zm2.889,3.555.667-1.555a.711.711,0,0,0-.445.666,1.275,1.275,0,0,1-.444.889Zm.444,10.445a1.278,1.278,0,0,0-.222.888h.222Zm.889-2a138.033,138.033,0,0,1,7.444-16.666,85.355,85.355,0,0,1,10.111-15.111,18.433,18.433,0,0,0-4.779,4.667,77.1,77.1,0,0,0-4.889,7.222,86.449,86.449,0,0,0-4.11,7.666q-1.781,3.783-2.667,6.223a27.872,27.872,0,0,0-1.111,3.778q-.448,2-.889,3.777a4.784,4.784,0,0,0,.889-1.556m7.334-24.444q-2.225,3.115-4,6a51.932,51.932,0,0,0-3.334,6.445q1.776-3.11,3.667-6t3.667-6Zm1.111-8.446.667-.444h-.223Zm1.556,5.112a.647.647,0,0,1-.445.223h.445Zm.888-1.556a.2.2,0,0,0-.222.222h.222Zm22,39.779h.222v-.445h-.222Zm.89,20.888a.391.391,0,0,0-.445.445Zm0-25.333.222.443v-.665Zm.222,25.11a4.99,4.99,0,0,1,1-.777,1.314,1.314,0,0,0,.556-1.223Zm1.11-30a2.457,2.457,0,0,0-.222,1.111h.222Zm0-.89.445-.888h-.222Zm2-5.555a30.792,30.792,0,0,0-1.556,4.444,5.251,5.251,0,0,0,1.111-2.223q.22-1.108.445-2.221m-1.556,35.333c.146,0,.222-.038.222-.11s.073-.112.222-.112c0,.146-.149.222-.444.222m1.334-1.777a1.512,1.512,0,0,1,.11-.668,1.558,1.558,0,0,0,.112-.666l-1.334,2Zm1.778-56.223a6.605,6.605,0,0,0-1.778,3.334Zm-1.556,56,.222-.223a.2.2,0,0,1-.222.223m.444-35.111a.9.9,0,0,0-.221.665Zm.667,34.665c-.149,0-.222.035-.222.111s-.076.112-.223.112h.445Zm0-36.889a1.766,1.766,0,0,0-.222,1.112l.222-.446Zm1.555,34.89h-.222l-.667.443h.222Zm1.778-51.778c-.743.3-1.111.666-1.111,1.111v.222a.633.633,0,0,0,.222.445Zm.222-1.332a2.455,2.455,0,0,0-.222,1.109,2.484,2.484,0,0,0,.222-1.109m1.778,47.332a1.294,1.294,0,0,0,.222-.888,1.294,1.294,0,0,0-.222.888" transform="translate(582.922 172.925)" fill="#414042"/>
    <path id="Path_14410" data-name="Path 14410" d="M317.461,189.8a13.047,13.047,0,0,1-9-3.775,11.7,11.7,0,0,1-4.112-8.891,64.632,64.632,0,0,1,1.239-11.223q1.241-6.774,3.156-14t3.833-14q1.918-6.776,3.27-11.443,1.353-4.22,2.594-9a36.674,36.674,0,0,0,1.24-9.223,6.194,6.194,0,0,0-.221-1.666q-.226-.775-.445-1.667.442-1.108,2.2-1.11a4.258,4.258,0,0,1,1.528.555c.729.372,1.239.632,1.531.777a16.261,16.261,0,0,1,6.45,6,16,16,0,0,1,2.514,8.667,62.1,62.1,0,0,1-1.445,12q-1.446,7.114-3.444,14.556t-4.333,14.555q-2.334,7.115-3.89,12l.445.222q9.334-12.886,18.445-25.665t19.556-24.779l8-9.333q4-4.667,8.222-9.112,1.333-1.331,2.667-2.554a7.118,7.118,0,0,1,3.111-1.668,15.586,15.586,0,0,1,3.667,1.111,21.032,21.032,0,0,1,4.11,2.333,16.974,16.974,0,0,1,3.334,3.112,5.737,5.737,0,0,1,1.334,3.667,12.6,12.6,0,0,1-.556,3.111q-.558,2-1.333,4.334t-1.555,4.443q-.782,2.116-1.223,3.223-2.224,5.779-6,16.222t-7.333,21.777q-3.556,11.335-6.111,21.666t-2.556,15.89q0,3.777,2.666,5.333a1.966,1.966,0,0,1-2.221,2.223,14.888,14.888,0,0,1-7.667-1.778,12.579,12.579,0,0,1-4.666-4.778,19.68,19.68,0,0,1-2.222-6.778,53.259,53.259,0,0,1-.556-7.779,62.156,62.156,0,0,1,1.111-11.332q1.11-6,2.778-12.112t3.666-12.112q2-6,3.556-11.111a94.589,94.589,0,0,1,3.556-9.778q2-4.667,3.777-9.556a2.9,2.9,0,0,1-1,.668,2.944,2.944,0,0,0-1,.667,137.789,137.789,0,0,0-13.556,16.333q-6.223,8.782-11.778,17.665-1.781,2.893-4.555,7.447t-5.889,9.332q-3.114,4.781-6.112,8.889a40.969,40.969,0,0,1-5.222,6.112,5.318,5.318,0,0,1-3.555,1.331m6.889-10.222.444-.888a1.275,1.275,0,0,0-.444.888m7.333-18.222a13.746,13.746,0,0,0-1.889,2.333c-.521.816-1,1.594-1.444,2.334a10.256,10.256,0,0,0,1.778-2.334,16.153,16.153,0,0,1,1.556-2.333M329.905,171.8l.89-1.111a6.751,6.751,0,0,1,.443-.777,7.707,7.707,0,0,0,.445-.779,9.644,9.644,0,0,0-1,1.223,5.511,5.511,0,0,0-.778,1.445m1.333-4.223-.222.222a.2.2,0,0,0,.222-.222m2.445-8.889a3.745,3.745,0,0,1,1-1.556A7.412,7.412,0,0,0,335.9,155.8a23.486,23.486,0,0,0,2.334-3.223q1-1.665,2.112-3.444a165.569,165.569,0,0,1,16.666-21.112q9.107-9.777,17.555-20.445l.667-.888-.445-.445q-8.447,9.115-16.555,18.444a229.994,229.994,0,0,0-15.222,19.555q-2.666,3.782-5.445,7.556a48.773,48.773,0,0,0-4.778,8Zm-.445,6.223v-.222l-.222.222Zm.445,1.111a31.939,31.939,0,0,0,2-2.668q.885-1.333,1.778-2.888a24.6,24.6,0,0,0-3.778,5.557m3.334-8h-.668a1.279,1.279,0,0,1-.445.89h1.112l.222-.668Zm3.334-2.444a20.339,20.339,0,0,1-1.556,2.222,7.872,7.872,0,0,0-1.333,2.444,18.188,18.188,0,0,0,2.889-4.666m-2,.668-.445-.223v.665a.9.9,0,0,0,.222.668,1.3,1.3,0,0,0,.222-.888h.889a1.306,1.306,0,0,0-.889-.221m-.445,5.554v.445l.222-.222Zm1.334-7.111h-.445v.444a.9.9,0,0,0,.222.668v.445a.2.2,0,0,0,.222.221v-1.334a.909.909,0,0,0,.666-.222h-.445a.2.2,0,0,1-.222-.222m1.111-1.335-.445-.221v.665a1.278,1.278,0,0,0,.222.89c0-.74.3-1.111.889-1.111a.923.923,0,0,0-.666-.223m.666-1.555h-.222v.445a3.131,3.131,0,0,1,.222,1.333,3.125,3.125,0,0,0,.222-1.333l.445-.222h-.445a.2.2,0,0,1-.222-.223m.889,2,.222-.888-.667,1.332Zm10.444-14,.89-1.334h.444l1.111-1.111a16.385,16.385,0,0,1,1.334-1.889,22.8,22.8,0,0,1,1.555-1.888A20.894,20.894,0,0,1,358.8,131.8a21.67,21.67,0,0,1,2.11-2.665q1.219-1.335,2.333-2.556a7.521,7.521,0,0,1,1.556-1.444l-.444-.222v-.89q-1.782,2-3.445,4a19.839,19.839,0,0,1-3.889,3.555,24.06,24.06,0,0,1,2.444-3.333q2-2.442,4.334-5.222t4.555-5.332q2.218-2.555,3.111-3.669a231.051,231.051,0,0,0-15.778,17.446q-7.334,9-14,18.777v.667l.222.888a46.922,46.922,0,0,1,2.888-4.109q1.335-1.668,3.112-3.891a17.758,17.758,0,0,1-.89,2.224l1.556-.889h.445q.666-.886,1.223-1.667a9.207,9.207,0,0,0,1-1.889l.667-.445a2.4,2.4,0,0,1,.888-1.111Zm-6.888,8.444-1.778,2.667a5.213,5.213,0,0,1,1.333-.889V149.8a2.168,2.168,0,0,0,.445-1.556m0,1.556-.223.222v.445a.906.906,0,0,0,.223-.666m17.555,36.665h.222V185.8h-.222Zm1.778-7.776-1.556,5.555.668.223a15.42,15.42,0,0,0,.556-2.89q.108-1.333.333-2.888m24-68-.666-.222q-3.557,7.114-6.889,15.666t-6.333,17.556q-3,9-5.556,18t-4.556,16.557a5.232,5.232,0,0,0,.888-1.335,141.915,141.915,0,0,0,4.89-15.333q2-7.776,4.667-15.332,3.11-9.11,6.778-17.779t6.778-17.778m-22,11.778a9.064,9.064,0,0,0,1.111-1.334,3.349,3.349,0,0,1,1.333-1.111,3.37,3.37,0,0,1,1.111-1.334,1.728,1.728,0,0,0,.667-1.554l2.444-3.334-8.667,9.555a3.466,3.466,0,0,1,.888-.667,2.5,2.5,0,0,1,1.112-.222m3.555,10.222.222-.222h-.222Zm1.556-4.223c0,.149-.038.223-.11.223s-.112.077-.112.222h.222Zm.888-2.889-.667,1.555.667.223Zm0,0,.667-.444q1.552-3.333,3.222-6.667t3.445-6.666v-1.111a57.786,57.786,0,0,0-3.889,7.334q-1.667,3.78-3.445,7.555m10-10.889a27.426,27.426,0,0,0-1.889,3.556q-.781,1.78-1.444,3.778.885-1.776,1.778-3.667t1.555-3.667m1.555-3.555-.222-.223v.89Z" transform="translate(561.939 176.647)" fill="#414042"/>
    <path id="Path_14411" data-name="Path 14411" d="M450.137,147.944a72.237,72.237,0,0,0,6.556,11.111,87.037,87.037,0,0,0,9.888,11.778,68.654,68.654,0,0,0,11.667,9.444,22.159,22.159,0,0,0,11.889,3.89,28.949,28.949,0,0,0,5.668-.557,28.84,28.84,0,0,1,10.667-.11q2.551.442,5,.891a13.238,13.238,0,0,1-4.22,4.11,28.97,28.97,0,0,1-5.891,2.777,34.262,34.262,0,0,1-6.445,1.555,43.321,43.321,0,0,1-5.888.445,52.414,52.414,0,0,1-16-2.555,69.706,69.706,0,0,1-15.111-6.89,79.093,79.093,0,0,1-13.222-10.11,64.986,64.986,0,0,1-10.333-12.444,6.939,6.939,0,0,0-.778-1,2.7,2.7,0,0,0-1.222-.556v4.223a55.866,55.866,0,0,0,.445,7.221,56.766,56.766,0,0,1,.445,7.222q0,1.11-.111,2.334c-.077.811-.111,1.591-.111,2.333a13.507,13.507,0,0,0-3-.111,8.525,8.525,0,0,1-3-.334,7.2,7.2,0,0,1-3.334-1.334q-5.78-3.779-7.333-9.22a43.124,43.124,0,0,1-1.555-11.889,127.047,127.047,0,0,1,2.777-26.444q2.776-13.11,5.888-26,6.218-26.218,13.335-52.667.883-3.333,2.331-8.222t2.89-10.111q1.443-5.219,2.445-10.111a41.706,41.706,0,0,0,1-8,29.374,29.374,0,0,0-.335-4.555,29.3,29.3,0,0,1-.332-4.555,5.923,5.923,0,0,0,1.22-.113,6.46,6.46,0,0,1,1.223-.11,3.426,3.426,0,0,1,1.334.445,5.418,5.418,0,0,1,1.113.668,15.16,15.16,0,0,1,6.666,7.776,27.1,27.1,0,0,1,2.221,10.445,78.609,78.609,0,0,1-2.443,19.555q-2.447,9.557-4.89,19.333-3.331,14-6.889,28t-6,28.222a103.061,103.061,0,0,1,14.556-18.112,87.727,87.727,0,0,1,19-13.666,6.365,6.365,0,0,1,3.334-1.111,6.87,6.87,0,0,1,3.222.889,17.982,17.982,0,0,1,3.223,2.221,12.306,12.306,0,0,1,2.555,3,6.274,6.274,0,0,1,1,3.222,16.308,16.308,0,0,1-3.556,9.555q-3.559,4.891-6.445,8.223-6.448,7.556-12.667,15t-12.445,15m-14.887-6h.222v-.222Zm.222-1.111a20.588,20.588,0,0,0,4.223-6.111q1.552-3.442,3.334-6.778a53.8,53.8,0,0,1,3.776-6.111q2-2.776,4.223-5.889l.222-.444a23.97,23.97,0,0,0-4.666,5.333q-2.224,3.332-4.223,6.889t-3.777,7.111q-1.783,3.556-3.112,6m1.556-11.111.444-.222q1.774-3.109,3.555-6.111a58.7,58.7,0,0,1,4-5.888c.589-.741,1.184-1.479,1.777-2.222a20.26,20.26,0,0,0,1.557-2.223,7.87,7.87,0,0,0,1.556-1.555,56.793,56.793,0,0,1,8.331-8q4.553-3.552,9-7.333A41.694,41.694,0,0,0,453.8,106.5q-5.667,6.557-10.777,13.222-1.783,2.447-3.334,4.778a26.375,26.375,0,0,0-2.667,5.222m.22,10.666.224.223v-.223Zm.891-7.555.222.444.445-.444Zm1.335,9.778,1.331-1.334,17.777-20.888q4.67-5.552,9.334-11.223T476.8,97.5l-.665-.445a75.034,75.034,0,0,0-22.556,18.889,116.715,116.715,0,0,0-15.224,25.334Zm.444-12.223h-.444v.668Zm.222,4.669h-.222l.222.221Zm0-5.557v.668l.445-.668Zm1.11-1.555q-.889,0-.888.667v.222l.223.445Zm.224-1.111a2.459,2.459,0,0,0-.224,1.111,1.274,1.274,0,0,0,.445-.888Zm.444-.888v.888l.667-.666a.891.891,0,0,1-.667-.222m.667-.888v1.111a1.283,1.283,0,0,0,.445-.888Zm.668-.89v.668l.443-.668Zm.443,0a1.275,1.275,0,0,0,.445-.889h-.222a1.28,1.28,0,0,0-.223.889m.667-2v.666l.445-.666Zm1.112-2.445-.445.888a.918.918,0,0,1-.222.668v.888a1.51,1.51,0,0,0,.444-1.111,1.2,1.2,0,0,0,.556-.445,3.2,3.2,0,0,1,.556-.666l-.224-.222Zm1.776-1.333h-.665v1.333a1.279,1.279,0,0,0,.444-.888,1.292,1.292,0,0,1,.888-.223.915.915,0,0,0-.667-.222m0,24-.222-.223v.223Zm.667,2.667q2.67-2.443,5.112-5.111l25.334-30.668a10.289,10.289,0,0,0,1.222-2.222c.368-.889.7-1.7,1-2.444q-.891,1.558-1.889,3c-.666.966-1.37,1.889-2.109,2.778L448.8,143.722Zm.445-28.223h-.445v1.556a2.471,2.471,0,0,0,.222-1.111,1.3,1.3,0,0,0,.891-.222.9.9,0,0,1-.668-.223m1.111-1.333-.222-.222-.222.222v1.556l.443-1.112a.91.91,0,0,1,.666-.222.916.916,0,0,0-.666-.222m1.111-1.555h-.445v1.777l.445-1.332a.9.9,0,0,0,.667-.223.9.9,0,0,1-.667-.222m1.778-1.778a.913.913,0,0,0-.666-.222v1.111l.444-.666a1.287,1.287,0,0,0,.889-.222Zm4.222,14.889a.2.2,0,0,0-.221.222Zm4-4.889a8.824,8.824,0,0,0-2.223,2.667,4.765,4.765,0,0,0,1.223-1.222q.553-.778,1-1.445m1.334-1.334v-.223h-.222l-.669,1.112Zm1.111-17.111-.222-.223-.889.668Zm1.111,14-1.111,1.555a4.4,4.4,0,0,0,1.111-1.555m1.777-1.779h-.222l-.889,1.112Zm5.556-6.666a5.328,5.328,0,0,1,1.444-2,5.3,5.3,0,0,0,1.444-2,50.638,50.638,0,0,0-6.89,8.666,19.682,19.682,0,0,0,2-2.334,19.512,19.512,0,0,1,2-2.333m4.444-6a4.31,4.31,0,0,0-1.111,1.557Zm6.222-1.11h-.222v.665a.908.908,0,0,0,.222-.665" transform="translate(536.15 197.834)" fill="#414042"/>
    <path id="Path_14412" data-name="Path 14412" d="M626.982,110.581a39.718,39.718,0,0,0,2.777,3.334,42.243,42.243,0,0,1,2.778,3.334l-1.779,9.332q-.447,2.225-.888,4.334t-.888,4.334q-1.115,6-1.778,12.11t-1.112,12.112q-.667,7.333-1.222,14.555t-1.444,14.555q-.668,7.111-1.554,14.111t-2.223,13.889q-1.556,7.777-4,16.334a132.275,132.275,0,0,1-6.112,16.889,108.051,108.051,0,0,1-8.556,15.778,63.883,63.883,0,0,1-10.888,12.777,32.336,32.336,0,0,1-6.889,4.888,17.3,17.3,0,0,1-8.222,2,19.236,19.236,0,0,1-7-1.334,38.58,38.58,0,0,1-6.333-3.111,13.249,13.249,0,0,1-5.779-7.221,31.245,31.245,0,0,1-1.332-9.222q0-3.783.333-7.667a34.943,34.943,0,0,1,1.445-7.444,46.686,46.686,0,0,1,2-6q1.557-4,3.555-9t4.556-10.111q2.551-5.114,5.111-9.444a35.023,35.023,0,0,1,5.221-7q2.667-2.668,4.89-2.667a11.031,11.031,0,0,1,4.333,1.334,14.788,14.788,0,0,1,3.89,2.444,21.883,21.883,0,0,0-7.445,7.555,94.412,94.412,0,0,0-4.778,9.556q-3.334,7.553-5.888,14.223a103.635,103.635,0,0,0-4.335,14.666.457.457,0,0,1-.111.333.442.442,0,0,0-.111.334q-.446,2.22-.776,4.223a25.56,25.56,0,0,0-.333,4.221,17.569,17.569,0,0,0,1.11,6.557,54.291,54.291,0,0,1,2,6.11l4.888-4a36.811,36.811,0,0,0,4.445-4.89,53.729,53.729,0,0,0,4.112-6.222q1.883-3.332,3.555-6.666t2.777-6a172.9,172.9,0,0,0,10.889-36.778q3.332-18.782,6.666-37.889a73.389,73.389,0,0,0,1.334-14q-1.558,2.665-4.778,7.444a117.415,117.415,0,0,1-7.112,9.445,68.9,68.9,0,0,1-7.888,8.111q-4,3.442-7.112,3.443a3.3,3.3,0,0,1-1.666-.332,12.185,12.185,0,0,0-1.667-.778l-2.223-1.111a41.747,41.747,0,0,1-8.777-5.667q-3.448-3-3.445-10.333a49.239,49.239,0,0,1,2.487-14.779q2.488-7.885,4.523-14.555,1.812-5.553,3.732-11.557a38.423,38.423,0,0,0,1.924-11.777,26.339,26.339,0,0,0-.333-4.111,26.352,26.352,0,0,1-.332-4.112,12.943,12.943,0,0,1,6.454,3.111,21.065,21.065,0,0,1,4.486,5.667,25.125,25.125,0,0,1,2.514,6.889,35.3,35.3,0,0,1,.767,7.223,72.627,72.627,0,0,1-2.444,18.889q-2.448,9.114-4.667,18.444v2.444a145.444,145.444,0,0,0,18.223-23.666,265.267,265.267,0,0,0,14-26.11,49.7,49.7,0,0,1,3.222-6.223,35.847,35.847,0,0,1,4.112-5.556l2.665-2.444.445,3.555a.872.872,0,0,0-.666.888,2.49,2.49,0,0,1,.333-.555c.073-.074.185-.184.333-.333a3.547,3.547,0,0,0,2-1.111M558.315,253.692a.9.9,0,0,0,.222-.665,1.279,1.279,0,0,0-.222-.889Zm.445-3.334a.454.454,0,0,1,.11-.333.446.446,0,0,0,.111-.333c0-.151-.035-.222-.111-.222s-.11-.151-.11-.445Zm2.221-5.776a3.364,3.364,0,0,0,.445-1.333,1.07,1.07,0,0,1-.222.555,7.7,7.7,0,0,0-.445.778c-.3,0-.444.3-.444.888a.89.89,0,0,0,.444-.888Zm.445-3.556a3.1,3.1,0,0,0,.222,1.334,2.32,2.32,0,0,0-.222-1.334m1.111-1.111a1.771,1.771,0,0,0,.223-1.111Zm.445-1.334a5.857,5.857,0,0,0,.222-1.777Zm2-4.667a2.513,2.513,0,0,0,.222-1.109c-.149.294-.3.628-.445,1a3.058,3.058,0,0,1-.667,1Zm-.445,17.334a.452.452,0,0,0-.111-.333.454.454,0,0,1-.111-.334v.889Zm3.334-22.666a3.413,3.413,0,0,0-2.223,1.222,5.415,5.415,0,0,0-.444,2.556,5.467,5.467,0,0,1,1.223-1.889,9.979,9.979,0,0,0,1.444-1.889M565.2,246.8a.589.589,0,0,0,.666-.667.991.991,0,0,0-.111-.445,1.525,1.525,0,0,1-.111-.667,3.918,3.918,0,0,0-.444,1.778m2.888-20.667a1.74,1.74,0,0,0-.221,1.111,1.512,1.512,0,0,1,.11-.667,1.013,1.013,0,0,0,.111-.444,3.6,3.6,0,0,0,.445-1.556,3.546,3.546,0,0,0-.445,1.556m-.221,14.444a1.3,1.3,0,0,0,.221-.888,1.275,1.275,0,0,0-.221.888m1.778-5.777-.445,1.111a6.96,6.96,0,0,1-.89,2.888l.668-.667Zm0-10.667a1.273,1.273,0,0,0-.888.222,1.3,1.3,0,0,0,.888-.222m1.333-2.667a1.373,1.373,0,0,0-1.555,1.557,1.278,1.278,0,0,0,.222.888Zm-.222,11.779-.444.222Zm2.89-16.668a3.341,3.341,0,0,0-.668.889,2.537,2.537,0,0,1-.889.888.9.9,0,0,0,.557-.11c.073-.077.258-.112.555-.112Zm-1.111,13.334a.456.456,0,0,0-.111-.334.446.446,0,0,1-.111-.333v.89Zm2.444-16.223a.886.886,0,0,0-.222.666Zm0-.666.444-.223a.391.391,0,0,1,.445-.444,1.264,1.264,0,0,0-.888.444Zm3.333,5.332a.649.649,0,0,1-.445.222c-.149,0-.3.146-.444.445.3,0,.478-.075.555-.222s.257-.223.556-.223a1.945,1.945,0,0,1,.222-.888,2.005,2.005,0,0,0,.222-.888Zm3.556-6a.7.7,0,0,0-.667.444.392.392,0,0,1,.445.445v-.666a.2.2,0,0,1,.222-.222m8-43.557c-.3.3-.446.522-.446.668Zm1.777,7.111a1.5,1.5,0,0,0,1.111-.443.638.638,0,0,1-.444.222,1.764,1.764,0,0,0-.667.221m.89,76.224a.9.9,0,0,1,.221-.668,1.268,1.268,0,0,0-.444.889Zm3.777-81.112a3.952,3.952,0,0,0,.445-1.778c-.15.3-.333.632-.555,1a8.306,8.306,0,0,1-1.668,1.666l-.221.222c-.3.3-.445.522-.445.667,0-.145.111-.3.334-.444a3.509,3.509,0,0,0,.556-.445,1.281,1.281,0,0,0,.889-.222Zm-.445-11.111a1.283,1.283,0,0,0-.222.89Zm-.222,84.444c.294-.595.556-1.149.777-1.667s.479-1.075.778-1.666a5.018,5.018,0,0,0-.889,1.334,7.607,7.607,0,0,0-.666,2M599.2,156.8a2.375,2.375,0,0,1,.112-.778,2.491,2.491,0,0,0,.111-.778l.888-.444a1.287,1.287,0,0,0-.888.223l-.445,1.555-.888.444a5.4,5.4,0,0,0-1.111,2.445,7.4,7.4,0,0,1,.89-1.667q.666-1,1.332-1m-.888,81.556q.444-1.781.777-3.667c.223-1.26.48-2.482.779-3.667l-2.221,7.334a1.492,1.492,0,0,0-.445,1.111,1.26,1.26,0,0,1,.445-.89Zm-.222,20.889a3.154,3.154,0,0,0,.222-1.334,3.071,3.071,0,0,0-.222,1.334m.444-91.778a.955.955,0,0,1,.113-.445,1.57,1.57,0,0,0,.11-.667,2.475,2.475,0,0,0-.223,1.111m1.111-1.557a6.333,6.333,0,0,0,.89-.666c-.15,0-.445.223-.89.666m.445,89.112q2-1.114,4.111-6.112a110.37,110.37,0,0,0,3.889-10.887q1.775-5.891,3-11.335t1.667-7.221a33.908,33.908,0,0,0-1.888,4.777q-1.45,4.11-3,8.889t-3,9.332q-1.447,4.553-2.11,6.335c-.445,1.035-.855,2.073-1.223,3.111a20.085,20.085,0,0,1-1.444,3.111m1.778-102.445a1.811,1.811,0,0,0,.222-.777,1.215,1.215,0,0,1,.445-.778l.666-.444a.638.638,0,0,1-.443.222,1.726,1.726,0,0,0-.668.222,2.471,2.471,0,0,1-.111.778,2.419,2.419,0,0,0-.11.777,1.54,1.54,0,0,0-.667.112,1.541,1.541,0,0,1-.666.11,3.084,3.084,0,0,0-.223,1.334.964.964,0,0,1,.111-.445,1.533,1.533,0,0,0,.112-.667,1.828,1.828,0,0,1,.777-.222.748.748,0,0,0,.556-.222m-.889,11.111a.758.758,0,0,1,.556-.223c.221,0,.406-.144.555-.443l-1.111.443a3.554,3.554,0,0,0-.444,1.556,1.072,1.072,0,0,1,.222-.555,1.391,1.391,0,0,0,.221-.778m.667,62.888c-.3.3-.445.517-.445.667a.9.9,0,0,0,.222.666,3.14,3.14,0,0,0,.222-1.333m.667-2.444c0,.146-.038.222-.112.222s-.111.074-.111.223v.222a.2.2,0,0,0,.223.223Zm1.778-64.666a.458.458,0,0,1-.111.333.872.872,0,0,0-.111.556c-.594,0-.888.149-.888.445v.221c.145-.3.294-.444.444-.444a.644.644,0,0,0,.445-.222Zm.888-12.444a1.825,1.825,0,0,1,.779-.222c.222,0,.406-.146.555-.445a1.3,1.3,0,0,0-.889.223l-.445.445c-.149.3-.26.52-.332.667a3.327,3.327,0,0,1-.557.668h.667a1.517,1.517,0,0,1,.11-.668,1.537,1.537,0,0,0,.111-.667m-.221,84.666-.667,2,.667-.888Zm.444-73.777a1.428,1.428,0,0,0,.89-1.334,3.162,3.162,0,0,0-.556.667c-.077.149-.186.371-.333.667m2-14.445q.22-.443.334-.667a3.227,3.227,0,0,1,.556-.667l-1.334,1.112a2.463,2.463,0,0,1-.112.777,2.415,2.415,0,0,0-.111.778Zm.445,10a3.49,3.49,0,0,1,.889-.666l.223-.222.444-1.555a3.56,3.56,0,0,0-.444,1.555l-1.112.222Zm1.112-13.777a3.7,3.7,0,0,1-.111.889,3.544,3.544,0,0,0-.112.888,2,2,0,0,0,.223-.888,1.278,1.278,0,0,1,.444-.889v-.89Zm2.666-3.112a3.538,3.538,0,0,0-1.334.89Zm1.556-4.666a3.379,3.379,0,0,1-.779,2.11,3.685,3.685,0,0,0-.777,2.334,4.237,4.237,0,0,1,1.333-2.444,5.083,5.083,0,0,1,.111-1,5.24,5.24,0,0,0,.112-1m-.223,87.11a16.746,16.746,0,0,1,.888-2.221c-.742,0-1.11.294-1.11.888a1.523,1.523,0,0,0,.11.666,1.548,1.548,0,0,1,.111.667m.445-4.667a4.146,4.146,0,0,0,.444,2.222Z" transform="translate(503.525 174.752)" fill="#414042"/>
    <path id="Path_14413" data-name="Path 14413" d="M677.452,126.427l4,1.779q2-2.669,4.557-6a74.621,74.621,0,0,1,5.556-6.444,34.491,34.491,0,0,1,6.331-5.223,13.063,13.063,0,0,1,7.113-2.11,15.654,15.654,0,0,1,7.333,2,26.8,26.8,0,0,1,6.777,5.112,27.851,27.851,0,0,1,4.889,6.889,16.394,16.394,0,0,1,1.89,7.333,42.3,42.3,0,0,1-2.445,13.777,85.978,85.978,0,0,1-6.222,13.889,83.145,83.145,0,0,1-8.668,12.667,120.711,120.711,0,0,1-9.555,10.335,53.746,53.746,0,0,1-5.777,4.666,16.8,16.8,0,0,1-6.889,2.667q-1.116.217-2.334.332t-2.333.11a23.472,23.472,0,0,1-17.444-7.444,24.464,24.464,0,0,1-5-8.111,27.177,27.177,0,0,1-1.777-9.778V160.2a35.192,35.192,0,0,1,1.666-9.112,69.073,69.073,0,0,1,4.333-11.222,39.732,39.732,0,0,1,6.334-9.444q3.665-4,7.667-4m-7.555,9.112,3.555-4a5.532,5.532,0,0,0-2.11,1.778c-.523.742-1,1.482-1.445,2.223m2,12.444h-.444v.445Zm1.557,29.778a37.591,37.591,0,0,0,14.222-7.445,65.435,65.435,0,0,0,11.778-12.554,83.3,83.3,0,0,0,8.666-15.224,69.735,69.735,0,0,0,4.89-15.444c.146-.739.3-1.479.444-2.221a11.366,11.366,0,0,0,.221-2.224,6.382,6.382,0,0,0-.665-2.888q-2.668,0-6.555,3a51.181,51.181,0,0,0-7.445,7.112,57.642,57.642,0,0,0-6.111,8.444q-2.559,4.332-2.556,7a6.437,6.437,0,0,0,3.111,5.333,2.611,2.611,0,0,1-2.222,1.333,9.308,9.308,0,0,1-7.332-3q-2.67-3-5.112-6.111-2.449,6.224-4.444,12.556a42.879,42.879,0,0,0-2,13,45.822,45.822,0,0,0,.223,4.668,28.27,28.27,0,0,0,.888,4.666m5.11-42.889.223-.444a18.722,18.722,0,0,0-3.555,4.888q-1.333,2.669-2.445,5.556.443-.666,1.333-2t1.89-3q1-1.667,1.777-3a4.631,4.631,0,0,0,.777-2m-4.889,1.555a5.011,5.011,0,0,0,2-3.111Zm13.555-9.778a8.637,8.637,0,0,1,1.556-2.222q1.335-1.551,3-3.222t3.223-3.222c1.033-1.035,1.777-1.779,2.221-2.222h-.445a57.521,57.521,0,0,0-10.222,11.332Zm1.556,10.445q3.335-4.443,6.555-8.666a79.712,79.712,0,0,1,7-8V120.2h-.222c-.149,0-.223.038-.223.111s-.074.111-.222.111q-1.781,1.334-3.889,3.222a30.275,30.275,0,0,0-3.889,4.221q-1.78,2.335-3.222,4.667a13.823,13.823,0,0,0-1.89,4.557m1.335-8.666a21.141,21.141,0,0,1,1.889-2.446q1-1.108,1.888-2.221-.667.666-2.223,2.334t-1.554,2.333m25.555,21.332a94.834,94.834,0,0,1-7,11.444q-3.89,5.45-8.111,10.777a5.2,5.2,0,0,0-.778,1,5.88,5.88,0,0,0-.555,1.222,65,65,0,0,1,4.444-5,70.293,70.293,0,0,0,5.555-6.556,64.662,64.662,0,0,0,4.557-6.889,12.483,12.483,0,0,0,1.889-6m-16,13.334a13.643,13.643,0,0,0,2.666-3.111q1.11-1.775,2.223-3.778-.892,1.115-2.891,3.668t-2,3.222m1.112,4-.224-.222a.2.2,0,0,0,.224.222m2.442-2.667q1.11-1.776,2.444-3.554t2.444-3.557l-5.11,6.889v.222Zm5.112-7.778a.9.9,0,0,0-.224.667Zm3.333,5.555h.222v-.222Z" transform="translate(479.498 174.685)" fill="#414042"/>
    <path id="Path_14414" data-name="Path 14414" d="M825.2,158.466l.666.445a3.924,3.924,0,0,1-1.111,1.108c-.445.3-.888.595-1.332.891v.445h.222v-.222a2.438,2.438,0,0,1,1.666-.333,1.692,1.692,0,0,0,1.445-.333,19.458,19.458,0,0,1-2.113,3.334,37.761,37.761,0,0,0-2.333,3.332,11.908,11.908,0,0,0,3.334-3.332l.221.222V163.8h-.221l.888-1.556a3.639,3.639,0,0,1,1.111-2.667l.89.666a37.888,37.888,0,0,1-2.446,4.555q-1.331,2.119-2.665,4.336-1.782,3.115-4.223,7.007a70.919,70.919,0,0,1-5.333,7.4,34.128,34.128,0,0,1-6.333,6,12.487,12.487,0,0,1-7.445,2.486q-5.78,0-9.111-3.445a12.691,12.691,0,0,1-3.333-9.222q0-3.551.222-7.111t.222-7.111q-3.782,5.558-7.891,10.89a75.676,75.676,0,0,1-9,9.778,8.441,8.441,0,0,1-6.223,2.444,16.682,16.682,0,0,1-9.776-3.111,10.92,10.92,0,0,1-4.668-6.335,34.367,34.367,0,0,1-.888-8.11,90.1,90.1,0,0,1,1.221-13.444,125.172,125.172,0,0,1,3.557-15.89,118.889,118.889,0,0,1,5.555-15.222,40.6,40.6,0,0,1,7.223-11.445,3.637,3.637,0,0,1,2.222-1.333,6.209,6.209,0,0,1,1.778.555,11.813,11.813,0,0,0,2.664.778v1.993a1.5,1.5,0,0,1,1.335-.663,3.093,3.093,0,0,0,1.334-.222l-.667,2.435,2-.886,1.777.886a3.589,3.589,0,0,1,.445,1.551,16.838,16.838,0,0,1-1,3.545q-1,2.88-2.224,6.422t-2.333,6.755q-1.114,3.208-1.555,4.316a117.289,117.289,0,0,0-4.112,16.722q-1.448,8.527-2.556,16.942a148.554,148.554,0,0,0,13.445-14.838q6.108-7.75,12.11-15.727a35.138,35.138,0,0,0,3.556-5.867q1.551-3.208,3-6.424t3-6.42a28.42,28.42,0,0,1,3.777-5.872,8.622,8.622,0,0,1,2.223-1.883,5.206,5.206,0,0,1,2.666-1,5.912,5.912,0,0,1,2.89.886,14.037,14.037,0,0,0,3.11,1.329l-.666,2.438,1.555-1.552h.445a1.025,1.025,0,0,0,1.111.668l.667-.889v.445a.2.2,0,0,0,.221.222,15.874,15.874,0,0,1-1.554,6.2q-1.558,3.54-2.667,6.2a165.436,165.436,0,0,0-6.112,21.041q-2.333,10.631-5.222,21.262a6.175,6.175,0,0,1-.333,1.214,6.1,6.1,0,0,0-.333,1.22,10.029,10.029,0,0,0,.11,1.441c.074.517.48.773,1.223.773q1.554,0,4.223-2.222a58.784,58.784,0,0,0,5.445-5.223q2.774-3,5.111-6t3.445-4.332v.222l.667-.889-.223.222Zm-65.111-21.112h-.222v.222h.222Zm2,25.557.445.222a10.67,10.67,0,0,0-.223-2.445,7.937,7.937,0,0,1-.221,2.224m.445-2.668a1.273,1.273,0,0,0,.444-.887,135.381,135.381,0,0,1,5.334-19.556q3.333-9.334,7.333-18.889a1.829,1.829,0,0,0,.333-1.332,7.845,7.845,0,0,1-.111-1.335q-2.225,4.225-4.445,9.445t-4.111,10.887a106.973,106.973,0,0,0-3.111,11.335,89.218,89.218,0,0,0-1.666,10.332m.444-31.333,4.445-8.666a22.975,22.975,0,0,0-4.445,8.666m3.112,3.112h.221v-.667a.9.9,0,0,0-.221.667m1.333-11.778a3.256,3.256,0,0,0,.556-.665,1.2,1.2,0,0,1,.555-.445l-.445-.222a.392.392,0,0,0-.444.444,1.99,1.99,0,0,1-.222.889m3.334,1.556a6.287,6.287,0,0,0,1.111-1.334h-.221c-.6,0-.889.445-.889,1.334m4,6h.222v-.222Zm2.444-6v.222h.221Zm5.11,38.888.222.223v-.223ZM793.2,146.021a2.242,2.242,0,0,0-1.778,1.112q-.446.89-.889,2Zm1.554,10.224a.647.647,0,0,0-.444.22l.223.445Zm16-24.444a35.174,35.174,0,0,0-3.888,8.554q-2.114,6.113-4,13.334t-3.222,13.888a84.26,84.26,0,0,0-1.555,10,55.952,55.952,0,0,0,1.777-6.667,55.443,55.443,0,0,1,1.778-6.666q2.443-8.22,4.778-16.223t4.333-16.221m-12.223,26h-.221v.444h.221Zm2.445-8.667h-.221v.667Zm1.111-3.112a.657.657,0,0,0-.445-.222v.888Zm8.889-14.666h-.223v.445a.64.64,0,0,1,.223-.445m1.11-4.445v-.443c0,.149-.038.222-.11.222s-.112.076-.112.221Zm.223-1.111q1.552-1.11,1.778-1.221a6.018,6.018,0,0,0,.889-1.89Zm3.777-1.334.221-.222h-.221Zm4.224,46.223v-.222l-.223.222Z" transform="translate(457.973 173.534)" fill="#414042"/>
    <path id="Path_14423" data-name="Path 14423" d="M635.89,301.817l1.184-1.392,1.445-1.646q.43-.484.924-1.035l1.119-1.121c.791-.793,1.675-1.676,2.667-2.605,1.007-.9,2.124-1.85,3.314-2.882,1.227-.98,2.572-1.981,4-3.045.732-.5,1.5-1,2.277-1.516l1.188-.782c.409-.251.831-.489,1.255-.739a64.378,64.378,0,0,1,11.555-5.409,71.761,71.761,0,0,1,13.908-3.4c1.223-.152,2.461-.359,3.7-.465s2.5-.238,3.751-.3,2.522-.166,3.777-.2,2.531-.072,3.788-.069c5.052-.064,10.084.142,15.028.235,4.945.154,9.8.182,14.532.039,1.189-.02,2.357-.107,3.521-.177,1.173-.04,2.326-.14,3.472-.24l1.719-.145,1.695-.208,1.686-.2c.562-.058,1.111-.16,1.666-.239s1.1-.166,1.652-.249,1.094-.166,1.632-.28c1.075-.218,2.149-.416,3.212-.609l3.124-.717c1.039-.215,2.033-.54,3.038-.79l1.492-.4.37-.1a1.129,1.129,0,0,1,.153-.038l.19-.057.756-.23q1.463-.448,2.879-.886c.928-.276,1.829-.6,2.72-.9.865-.327,1.742-.627,2.557-.965a39.047,39.047,0,0,0,8.506-4.476,35.775,35.775,0,0,0,5.666-5.028c1.425-1.607,2.49-2.973,3.182-3.929l1.075-1.473s-.181.612-.519,1.758c-.161.58-.425,1.268-.739,2.086-.287.831-.732,1.733-1.213,2.769a31.745,31.745,0,0,1-4.666,6.9,34.886,34.886,0,0,1-3.764,3.615c-.72.56-1.455,1.173-2.248,1.7q-.594.412-1.2.834l-1.25.793c-.838.56-1.729,1.014-2.623,1.538-.906.475-1.817.98-2.776,1.447l-1.449.709-1.423.658-.717.33-.179.084-.222.091-.38.162-1.542.646c-2.059.914-4.26,1.627-6.494,2.425-2.261.709-4.594,1.377-7,1.93-1.2.307-2.412.56-3.646.78l-1.853.347q-.934.139-1.873.281c-2.5.4-5.052.669-7.612.847-5.123.407-10.3.391-15.376.29l-14.874-.565c-2.411-.066-4.775-.118-7.1-.123s-4.594.09-6.822.2a83,83,0,0,0-12.668,1.692l-1.487.307-1.45.38c-.955.261-1.915.471-2.831.776l-2.729.839-2.595.945c-.425.153-.85.3-1.266.455l-1.216.512-2.363.98-4.312,2.017c-1.332.689-2.576,1.354-3.753,1.941L641.9,298.3l-1.361.757-1.187.717c-.74.443-1.37.819-1.879,1.124l-1.583.914" transform="translate(484.531 140.89)" fill="#414042"/>
  </g>
</svg>
