<svg xmlns="http://www.w3.org/2000/svg" xmlns:xlink="http://www.w3.org/1999/xlink" width="40" height="40" viewBox="0 0 40 40">
  <defs>
    <clipPath id="clip-path">
      <rect id="Rectangle_5562" data-name="Rectangle 5562" width="40" height="40" transform="translate(0)" fill="#272928"/>
    </clipPath>
  </defs>
  <g id="Group_66088" data-name="Group 66088" transform="translate(0)" clip-path="url(#clip-path)">
    <path id="Path_8793" data-name="Path 8793" d="M1178.907,9574.905c.026.344.026.705.026,1.052,0,10.854-8.266,23.36-23.36,23.36v-.014a23.119,23.119,0,0,1-12.573-3.682,15.717,15.717,0,0,0,1.96.122,16.5,16.5,0,0,0,10.187-3.521,8.205,8.205,0,0,1-7.667-5.693,8.272,8.272,0,0,0,3.707-.146,8.2,8.2,0,0,1-6.587-8.04v-.106a8.12,8.12,0,0,0,3.72,1.028,8.216,8.216,0,0,1-2.533-10.961,23.27,23.27,0,0,0,16.907,8.587,8.216,8.216,0,0,1,13.987-7.5,16.609,16.609,0,0,0,5.213-1.986,8.244,8.244,0,0,1-3.613,4.534,16.165,16.165,0,0,0,4.72-1.293A16.855,16.855,0,0,1,1178.907,9574.905Z" transform="translate(-1143 -9563.063)" fill="#272928"/>
  </g>
</svg>
