<svg xmlns="http://www.w3.org/2000/svg" xmlns:xlink="http://www.w3.org/1999/xlink" width="30" height="30" viewBox="0 0 30 30">
  <defs>
    <clipPath id="clip-path">
      <rect id="Rectangle_5562" data-name="Rectangle 5562" width="30" height="30" transform="translate(0)" fill="#2a6ab4"/>
    </clipPath>
  </defs>
  <g id="Group_66088" data-name="Group 66088" transform="translate(0)" clip-path="url(#clip-path)">
    <path id="Path_8793" data-name="Path 8793" d="M1169.93,9572.881c.02.258.02.529.02.789,0,8.14-6.2,17.521-17.52,17.521v-.011a17.339,17.339,0,0,1-9.43-2.761,11.787,11.787,0,0,0,1.47.091,12.374,12.374,0,0,0,7.64-2.64,6.155,6.155,0,0,1-5.75-4.271,6.208,6.208,0,0,0,2.78-.109,6.146,6.146,0,0,1-4.94-6.03v-.08a6.083,6.083,0,0,0,2.79.771,6.162,6.162,0,0,1-1.9-8.221,17.454,17.454,0,0,0,12.68,6.44,6.162,6.162,0,0,1,10.49-5.622,12.45,12.45,0,0,0,3.91-1.489,6.184,6.184,0,0,1-2.71,3.4,12.109,12.109,0,0,0,3.54-.97A12.639,12.639,0,0,1,1169.93,9572.881Z" transform="translate(-1143 -9563.999)" fill="#2a6ab4"/>
  </g>
</svg>
