<svg id="google_play_download_btn" data-name="google play download btn" xmlns="http://www.w3.org/2000/svg" width="106.667" height="32" viewBox="0 0 106.667 32">
  <g id="Group_69016" data-name="Group 69016">
    <path id="Path_14264" data-name="Path 14264" d="M265.031,192.29l-4.009-2.314-3.3,3.187,3.013,2.913,4.293-2.478a.756.756,0,0,0,0-1.309" transform="translate(-239.712 -176.698)" fill="#ffd109"/>
    <path id="Path_14265" data-name="Path 14265" d="M107.79,84.529l-4.412-2.547L93.71,77.028l10.92,10.556Z" transform="translate(-87.16 -71.644)" fill="#06ef79"/>
    <path id="Path_14266" data-name="Path 14266" d="M96.006,253.5l9.525-5.247,4.111-2.373-2.876-2.781Z" transform="translate(-89.295 -226.107)" fill="#f93646"/>
    <path id="Path_14267" data-name="Path 14267" d="M84.342,83.139l-.01,21.319L95.364,93.793Z" transform="translate(-78.437 -77.328)" fill="#05d5fb"/>
    <path id="Path_14268" data-name="Path 14268" d="M102.544.7a3.4,3.4,0,0,1,3.414,3.368V27.933a3.4,3.4,0,0,1-3.414,3.369H4.123A3.4,3.4,0,0,1,.709,27.933V4.067A3.4,3.4,0,0,1,4.123.7Zm0-.7H4.123A4.1,4.1,0,0,0,0,4.067V27.933A4.1,4.1,0,0,0,4.123,32h98.42a4.1,4.1,0,0,0,4.123-4.067V4.067A4.1,4.1,0,0,0,102.544,0" fill="#fff"/>
    <path id="Path_14269" data-name="Path 14269" d="M409.567,220.677h1.467v3.329a4.66,4.66,0,0,1-1.5.787,5.769,5.769,0,0,1-1.766.274,4.762,4.762,0,0,1-2.3-.555,4.119,4.119,0,0,1-1.611-1.533,4.458,4.458,0,0,1,0-4.414,4.11,4.11,0,0,1,1.617-1.533,4.822,4.822,0,0,1,2.321-.555,5.067,5.067,0,0,1,1.909.346,3.747,3.747,0,0,1,1.444,1.014l-.978.954a3.139,3.139,0,0,0-2.3-.954,3.255,3.255,0,0,0-1.569.37,2.7,2.7,0,0,0-1.074,1.038,2.986,2.986,0,0,0-.388,1.527,2.939,2.939,0,0,0,.388,1.5,2.778,2.778,0,0,0,1.074,1.05,3.145,3.145,0,0,0,1.557.382,3.36,3.36,0,0,0,1.718-.43Z" transform="translate(-375.081 -201.347)" fill="#fff"/>
    <path id="Path_14270" data-name="Path 14270" d="M535.668,251.6a3.042,3.042,0,0,1-1.211-1.163,3.478,3.478,0,0,1,0-3.37,3.058,3.058,0,0,1,1.211-1.157,3.867,3.867,0,0,1,3.5,0,3.061,3.061,0,0,1,1.211,1.157,3.478,3.478,0,0,1,0,3.37,3.045,3.045,0,0,1-1.211,1.163,3.867,3.867,0,0,1-3.5,0m3.1-1.408a2.209,2.209,0,0,0,0-2.887,1.822,1.822,0,0,0-1.36-.549,1.8,1.8,0,0,0-1.354.549,2.228,2.228,0,0,0,0,2.887,1.8,1.8,0,0,0,1.354.549,1.822,1.822,0,0,0,1.36-.549" transform="translate(-496.698 -228.337)" fill="#fff"/>
    <path id="Path_14271" data-name="Path 14271" d="M645.768,251.6a3.042,3.042,0,0,1-1.211-1.163,3.478,3.478,0,0,1,0-3.37,3.058,3.058,0,0,1,1.211-1.157,3.867,3.867,0,0,1,3.5,0,3.062,3.062,0,0,1,1.211,1.157,3.478,3.478,0,0,1,0,3.37,3.046,3.046,0,0,1-1.211,1.163,3.867,3.867,0,0,1-3.5,0m3.1-1.408a2.209,2.209,0,0,0,0-2.887,1.822,1.822,0,0,0-1.36-.549,1.8,1.8,0,0,0-1.354.549,2.228,2.228,0,0,0,0,2.887,1.8,1.8,0,0,0,1.354.549,1.822,1.822,0,0,0,1.36-.549" transform="translate(-599.102 -228.337)" fill="#fff"/>
    <path id="Path_14272" data-name="Path 14272" d="M761.07,245.569v5.4q0,3.364-3.436,3.365a6.377,6.377,0,0,1-1.742-.233,3.7,3.7,0,0,1-1.36-.674l.668-1.122a3.192,3.192,0,0,0,1.056.555,4.143,4.143,0,0,0,1.295.209,2.137,2.137,0,0,0,1.539-.477,1.951,1.951,0,0,0,.489-1.456v-.334a2.452,2.452,0,0,1-.931.632,3.279,3.279,0,0,1-1.2.215,3.456,3.456,0,0,1-1.641-.388,2.912,2.912,0,0,1-1.157-1.092,3.263,3.263,0,0,1,0-3.215,2.885,2.885,0,0,1,1.157-1.08,3.5,3.5,0,0,1,1.641-.382,3.363,3.363,0,0,1,1.259.227,2.324,2.324,0,0,1,.949.692v-.847Zm-2.01,4.313a1.721,1.721,0,0,0,.543-1.318,1.689,1.689,0,0,0-.543-1.3,2.195,2.195,0,0,0-2.792,0,1.688,1.688,0,0,0-.543,1.3,1.721,1.721,0,0,0,.543,1.318,2.175,2.175,0,0,0,2.792,0" transform="translate(-701.507 -228.338)" fill="#fff"/>
    <rect id="Rectangle_6740" data-name="Rectangle 6740" width="1.491" height="8.853" transform="translate(61.52 14.748)" fill="#fff"/>
    <path id="Path_14273" data-name="Path 14273" d="M928.506,249.23h-5a1.732,1.732,0,0,0,.686,1.116,2.248,2.248,0,0,0,1.378.412,2.322,2.322,0,0,0,1.73-.692l.8.919a2.693,2.693,0,0,1-1.086.776,4.3,4.3,0,0,1-3.329-.155,3,3,0,0,1-1.235-1.163,3.284,3.284,0,0,1-.435-1.688,3.331,3.331,0,0,1,.424-1.676,3,3,0,0,1,1.175-1.163,3.429,3.429,0,0,1,1.694-.418,3.343,3.343,0,0,1,1.664.412,2.916,2.916,0,0,1,1.145,1.157,3.51,3.51,0,0,1,.412,1.724q0,.155-.024.441m-4.408-2.118a1.781,1.781,0,0,0-.6,1.127h3.615a1.76,1.76,0,0,0-.585-1.121,1.779,1.779,0,0,0-1.217-.43,1.8,1.8,0,0,0-1.211.424" transform="translate(-857.573 -228.337)" fill="#fff"/>
    <path id="Path_14274" data-name="Path 14274" d="M1090.188,218.542a2.75,2.75,0,0,1,1.235,1.026,3.135,3.135,0,0,1,0,3.168,2.737,2.737,0,0,1-1.235,1.032,4.624,4.624,0,0,1-1.891.358h-1.885v2.41h-1.551v-8.352h3.436a4.622,4.622,0,0,1,1.891.358m-.423,3.842a1.7,1.7,0,0,0,0-2.458,2.383,2.383,0,0,0-1.539-.43h-1.814v3.317h1.814a2.383,2.383,0,0,0,1.539-.43" transform="translate(-1009.037 -202.934)" fill="#fff"/>
    <rect id="Rectangle_6741" data-name="Rectangle 6741" width="1.491" height="8.853" transform="translate(84.343 14.748)" fill="#fff"/>
    <path id="Path_14275" data-name="Path 14275" d="M1254.624,246.171a2.606,2.606,0,0,1,.746,2.034v3.734h-1.408v-.776a1.736,1.736,0,0,1-.781.638,3.058,3.058,0,0,1-1.223.221,3,3,0,0,1-1.253-.245,1.935,1.935,0,0,1-.829-.68,1.725,1.725,0,0,1-.292-.984,1.686,1.686,0,0,1,.638-1.378,3.169,3.169,0,0,1,2.01-.519h1.646v-.1a1.306,1.306,0,0,0-.4-1.026,1.729,1.729,0,0,0-1.187-.358,3.431,3.431,0,0,0-1.056.167,2.605,2.605,0,0,0-.877.465l-.585-1.086a3.624,3.624,0,0,1,1.205-.585,5.362,5.362,0,0,1,1.492-.2,3.107,3.107,0,0,1,2.153.674m-1.36,4.51a1.4,1.4,0,0,0,.614-.734v-.74h-1.539q-1.289,0-1.288.847a.76.76,0,0,0,.322.644,1.476,1.476,0,0,0,.895.239,1.924,1.924,0,0,0,1-.257" transform="translate(-1162.246 -228.338)" fill="#fff"/>
    <path id="Path_14276" data-name="Path 14276" d="M1348.225,246.52l-2.983,6.884a3.206,3.206,0,0,1-1.014,1.461,2.429,2.429,0,0,1-1.443.424,2.968,2.968,0,0,1-.943-.155,2.085,2.085,0,0,1-.764-.43l.6-1.1a1.62,1.62,0,0,0,.507.322,1.552,1.552,0,0,0,.59.119,1.017,1.017,0,0,0,.65-.2,1.8,1.8,0,0,0,.471-.68l.107-.251-2.78-6.395h1.551l2,4.713,2.016-4.713Z" transform="translate(-1247.346 -229.29)" fill="#fff"/>
    <path id="Path_14277" data-name="Path 14277" d="M405.657,82.7a2.061,2.061,0,0,1-.942-.22,2.49,2.49,0,0,1-.761-.592,2.8,2.8,0,0,1-.505-.837,2.642,2.642,0,0,1-.18-.964,2.716,2.716,0,0,1,.682-1.811,2.337,2.337,0,0,1,.758-.567,2.2,2.2,0,0,1,.949-.206,2.233,2.233,0,0,1,1.227.31,2,2,0,0,1,.729.808l-.5.346a1.5,1.5,0,0,0-.613-.664,1.738,1.738,0,0,0-.859-.217,1.5,1.5,0,0,0-.707.166,1.7,1.7,0,0,0-.545.451,2.066,2.066,0,0,0-.346.646,2.38,2.38,0,0,0-.119.751,2.235,2.235,0,0,0,.133.776,2,2,0,0,0,.379.642,1.821,1.821,0,0,0,.57.437,1.572,1.572,0,0,0,.7.159,1.68,1.68,0,0,0,.837-.224,2.536,2.536,0,0,0,.751-.686v.671a2.084,2.084,0,0,1-1.638.823m1.559-2.1h-1.1v-.491h1.653v2.555h-.549Z" transform="translate(-375.082 -72.086)" fill="#fff"/>
    <path id="Path_14278" data-name="Path 14278" d="M485.222,82.566v.577h-3.479V78.02h3.414V78.6h-2.764v1.66h2.4V80.8h-2.4v1.768Z" transform="translate(-448.073 -72.567)" fill="#fff"/>
    <path id="Path_14279" data-name="Path 14279" d="M541.379,78.6h-1.768v4.547h-.649V78.6h-1.768v-.577h4.186Z" transform="translate(-499.647 -72.566)" fill="#fff"/>
    <path id="Path_14280" data-name="Path 14280" d="M653.379,78.6h-1.768v4.547h-.65V78.6h-1.768v-.577h4.186Z" transform="translate(-603.819 -72.566)" fill="#fff"/>
    <rect id="Rectangle_6742" data-name="Rectangle 6742" width="0.65" height="5.124" transform="translate(44.078 5.453)" fill="#fff"/>
    <path id="Path_14281" data-name="Path 14281" d="M743.783,82.7a2.194,2.194,0,0,1-.982-.216,2.389,2.389,0,0,1-.761-.588,2.757,2.757,0,0,1-.667-1.793,2.635,2.635,0,0,1,.184-.978,2.725,2.725,0,0,1,.512-.83,2.477,2.477,0,0,1,.769-.577,2.176,2.176,0,0,1,.96-.213,2.136,2.136,0,0,1,.981.224,2.419,2.419,0,0,1,.758.6,2.82,2.82,0,0,1,.491.837,2.7,2.7,0,0,1-.516,2.753,2.431,2.431,0,0,1-.769.574,2.206,2.206,0,0,1-.96.209m-1.754-2.6a2.284,2.284,0,0,0,.126.754,2.08,2.08,0,0,0,.357.646,1.729,1.729,0,0,0,.556.448,1.562,1.562,0,0,0,.722.166,1.54,1.54,0,0,0,.736-.173,1.735,1.735,0,0,0,.552-.462,2.105,2.105,0,0,0,.346-.65,2.307,2.307,0,0,0,.119-.729,2.255,2.255,0,0,0-.126-.751,2.1,2.1,0,0,0-.361-.646,1.718,1.718,0,0,0-.556-.447,1.66,1.66,0,0,0-1.447.007,1.694,1.694,0,0,0-.552.458,2.182,2.182,0,0,0-.35.646,2.238,2.238,0,0,0-.123.733" transform="translate(-689.555 -72.086)" fill="#fff"/>
    <path id="Path_14282" data-name="Path 14282" d="M824.008,79.217v3.926h-.65V78.019h.549l3.132,4.006v-4h.649v5.117H827.1Z" transform="translate(-765.811 -72.566)" fill="#fff"/>
  </g>
</svg>
