<svg xmlns="http://www.w3.org/2000/svg" width="42.349" height="30" viewBox="0 0 42.349 30">
  <g id="youtube" transform="translate(0 -59.72)">
    <g id="Group_68225" data-name="Group 68225" transform="translate(0 59.72)">
      <path id="Path_14014" data-name="Path 14014" d="M41.759,64.63a4.73,4.73,0,0,0-3.8-3.871,136.1,136.1,0,0,0-33.57,0,4.729,4.729,0,0,0-3.8,3.871,86.525,86.525,0,0,0,0,20.18,4.728,4.728,0,0,0,3.8,3.871,136.1,136.1,0,0,0,33.57,0,4.727,4.727,0,0,0,3.8-3.871A86.514,86.514,0,0,0,41.759,64.63ZM17.646,81.779V67.662l10.588,7.059Z" transform="translate(0 -59.72)" fill="#2a6ab4"/>
    </g>
  </g>
</svg>
