<svg xmlns="http://www.w3.org/2000/svg" width="56.466" height="40" viewBox="0 0 56.466 40">
  <g id="youtube" transform="translate(0 -59.721)">
    <g id="Group_68225" data-name="Group 68225" transform="translate(0 59.72)">
      <path id="Path_14014" data-name="Path 14014" d="M55.679,66.266a6.307,6.307,0,0,0-5.064-5.161,181.467,181.467,0,0,0-44.761,0A6.306,6.306,0,0,0,.787,66.266a115.367,115.367,0,0,0,0,26.907,6.3,6.3,0,0,0,5.066,5.161,181.466,181.466,0,0,0,44.761,0,6.3,6.3,0,0,0,5.064-5.161A115.352,115.352,0,0,0,55.679,66.266ZM23.527,89.132V70.31l14.117,9.412Z" transform="translate(0 -59.72)"/>
    </g>
  </g>
</svg>
