<svg width="75" height="75" viewBox="0 0 75 75" fill="none" xmlns="http://www.w3.org/2000/svg">
<path d="M37.5 75C58.2107 75 75 58.2107 75 37.5C75 16.7893 58.2107 0 37.5 0C16.7893 0 0 16.7893 0 37.5C0 58.2107 16.7893 75 37.5 75Z" fill="#EEC9FF"/>
<g clip-path="url(#clip0_763_3689)">
<path fill-rule="evenodd" clip-rule="evenodd" d="M37.0866 54.825C37.1894 54.9366 37.3349 55 37.4869 55C37.6389 55 37.7844 54.9366 37.8883 54.825L41.0383 51.4289L44.1894 54.825C44.2933 54.9366 44.4377 55 44.5908 55C44.7428 55 44.8872 54.9366 44.9911 54.825L48.1422 51.4289L51.2922 54.825C51.4453 54.9902 51.6837 55.0448 51.8927 54.9617C52.1027 54.8797 52.2405 54.6784 52.2405 54.4531V20.5469C52.2405 20.245 51.9955 20 51.6936 20H23.2812C22.9794 20 22.7344 20.245 22.7344 20.5469V54.4531C22.7344 54.6784 22.8722 54.8797 23.0811 54.9617C23.2911 55.0448 23.5295 54.9902 23.6827 54.825L26.8327 51.4289L29.9837 54.825C30.0866 54.9366 30.232 55 30.384 55C30.5361 55 30.6816 54.9366 30.7855 54.825L33.9355 51.4289L37.0866 54.825ZM37.4869 53.6492L34.3369 50.2531C34.233 50.1416 34.0875 50.0781 33.9355 50.0781C33.7834 50.0781 33.638 50.1416 33.5352 50.2531L30.384 53.6492L27.2341 50.2531C27.1302 50.1416 26.9847 50.0781 26.8327 50.0781C26.6806 50.0781 26.5352 50.1416 26.4324 50.2531L23.8281 53.0597V21.0938H51.1467V53.0597L48.5425 50.2531C48.4397 50.1416 48.2942 50.0781 48.1422 50.0781C47.9902 50.0781 47.8447 50.1416 47.7408 50.2531L44.5908 53.6492L41.4397 50.2531C41.3358 50.1416 41.1914 50.0781 41.0383 50.0781C40.8862 50.0781 40.7419 50.1416 40.638 50.2531L37.4869 53.6492ZM44.0625 41.3281H46.7969C47.0988 41.3281 47.3438 41.0831 47.3438 40.7812C47.3438 40.4794 47.0988 40.2344 46.7969 40.2344H44.0625C43.7606 40.2344 43.5156 40.4794 43.5156 40.7812C43.5156 41.0831 43.7606 41.3281 44.0625 41.3281ZM28.2031 41.3281H40.7812C41.0831 41.3281 41.3281 41.0831 41.3281 40.7812C41.3281 40.4794 41.0831 40.2344 40.7812 40.2344H28.2031C27.9013 40.2344 27.6562 40.4794 27.6562 40.7812C27.6562 41.0831 27.9013 41.3281 28.2031 41.3281ZM44.0625 33.6719H46.7969C47.0988 33.6719 47.3438 33.4269 47.3438 33.125C47.3438 32.8231 47.0988 32.5781 46.7969 32.5781H44.0625C43.7606 32.5781 43.5156 32.8231 43.5156 33.125C43.5156 33.4269 43.7606 33.6719 44.0625 33.6719ZM28.2031 33.6631H40.7812C41.0831 33.6631 41.3281 33.4181 41.3281 33.1163C41.3281 32.8144 41.0831 32.5694 40.7812 32.5694H28.2031C27.9013 32.5694 27.6562 32.8144 27.6562 33.1163C27.6562 33.4181 27.9013 33.6631 28.2031 33.6631ZM31.4844 26.5625H43.5156C43.8175 26.5625 44.0625 26.3175 44.0625 26.0156C44.0625 25.7137 43.8175 25.4688 43.5156 25.4688H31.4844C31.1825 25.4688 30.9375 25.7137 30.9375 26.0156C30.9375 26.3175 31.1825 26.5625 31.4844 26.5625Z" fill="black"/>
</g>
<defs>
<clipPath id="clip0_763_3689">
<rect width="35" height="35" fill="white" transform="translate(20 20)"/>
</clipPath>
</defs>
</svg>
