<svg width="34" height="26" viewBox="0 0 34 26" fill="none" xmlns="http://www.w3.org/2000/svg">
<path d="M5.25549 21.074C5.1591 21.074 5.06365 21.055 4.97459 21.0182C4.88554 20.9813 4.80462 20.9272 4.73647 20.859C4.66831 20.7909 4.61424 20.71 4.57735 20.6209C4.54047 20.5319 4.52148 20.4364 4.52148 20.34V5.66002C4.52148 5.46535 4.59881 5.27866 4.73647 5.14101C4.87412 5.00335 5.06082 4.92603 5.25549 4.92603C5.45015 4.92603 5.63685 5.00335 5.7745 5.14101C5.91215 5.27866 5.98949 5.46535 5.98949 5.66002V20.34C5.98949 20.4364 5.9705 20.5319 5.93361 20.6209C5.89672 20.71 5.84266 20.7909 5.7745 20.859C5.70634 20.9272 5.62543 20.9813 5.53638 21.0182C5.44732 21.055 5.35188 21.074 5.25549 21.074Z" fill="#5A5A5A"/>
<path d="M8.19103 18.138C8.09464 18.138 7.99919 18.119 7.91014 18.0822C7.82109 18.0453 7.74017 17.9912 7.67201 17.923C7.60385 17.8549 7.54979 17.774 7.5129 17.6849C7.47601 17.5959 7.45703 17.5004 7.45703 17.404V5.66002C7.45703 5.46535 7.53436 5.27866 7.67201 5.14101C7.80966 5.00335 7.99636 4.92603 8.19103 4.92603C8.3857 4.92603 8.57239 5.00335 8.71004 5.14101C8.8477 5.27866 8.92503 5.46535 8.92503 5.66002V17.404C8.92503 17.5004 8.90604 17.5959 8.86916 17.6849C8.83227 17.774 8.7782 17.8549 8.71004 17.923C8.64189 17.9912 8.56098 18.0453 8.47192 18.0822C8.38287 18.119 8.28742 18.138 8.19103 18.138Z" fill="#5A5A5A"/>
<path d="M11.1266 18.138C11.0302 18.138 10.9348 18.119 10.8457 18.0822C10.7567 18.0453 10.6757 17.9912 10.6076 17.923C10.5394 17.8549 10.4853 17.774 10.4485 17.6849C10.4116 17.5959 10.3926 17.5004 10.3926 17.404V5.66002C10.3926 5.46535 10.4699 5.27866 10.6076 5.14101C10.7452 5.00335 10.9319 4.92603 11.1266 4.92603C11.3213 4.92603 11.5079 5.00335 11.6456 5.14101C11.7833 5.27866 11.8606 5.46535 11.8606 5.66002V17.404C11.8606 17.5987 11.7833 17.7854 11.6456 17.923C11.5079 18.0607 11.3213 18.138 11.1266 18.138Z" fill="#5A5A5A"/>
<path d="M14.0641 18.138C13.9677 18.138 13.8722 18.119 13.7832 18.0822C13.6941 18.0453 13.6132 17.9912 13.5451 17.923C13.4769 17.8549 13.4228 17.774 13.386 17.6849C13.3491 17.5959 13.3301 17.5004 13.3301 17.404V5.66002C13.3301 5.46535 13.4074 5.27866 13.5451 5.14101C13.6827 5.00335 13.8694 4.92603 14.0641 4.92603C14.2587 4.92603 14.4454 5.00335 14.5831 5.14101C14.7208 5.27866 14.7981 5.46535 14.7981 5.66002V17.404C14.7981 17.5987 14.7208 17.7854 14.5831 17.923C14.4454 18.0607 14.2587 18.138 14.0641 18.138Z" fill="#5A5A5A"/>
<path d="M16.9996 21.074C16.9032 21.074 16.8078 21.055 16.7187 21.0182C16.6297 20.9813 16.5488 20.9272 16.4806 20.859C16.4124 20.7909 16.3584 20.71 16.3215 20.6209C16.2846 20.5319 16.2656 20.4364 16.2656 20.34V5.66002C16.2656 5.46535 16.343 5.27866 16.4806 5.14101C16.6183 5.00335 16.8049 4.92603 16.9996 4.92603C17.1943 4.92603 17.381 5.00335 17.5186 5.14101C17.6563 5.27866 17.7336 5.46535 17.7336 5.66002V20.34C17.7336 20.5347 17.6563 20.7214 17.5186 20.859C17.381 20.9967 17.1943 21.074 16.9996 21.074Z" fill="#5A5A5A"/>
<path d="M19.9352 18.138C19.8388 18.138 19.7433 18.119 19.6543 18.0822C19.5652 18.0453 19.4843 17.9912 19.4161 17.923C19.348 17.8549 19.2939 17.774 19.257 17.6849C19.2202 17.5959 19.2012 17.5004 19.2012 17.404V5.66002C19.2012 5.46535 19.2785 5.27866 19.4161 5.14101C19.5538 5.00335 19.7405 4.92603 19.9352 4.92603C20.1298 4.92603 20.3165 5.00335 20.4542 5.14101C20.5918 5.27866 20.6692 5.46535 20.6692 5.66002V17.404C20.6692 17.5004 20.6502 17.5959 20.6133 17.6849C20.5764 17.774 20.5224 17.8549 20.4542 17.923C20.386 17.9912 20.3051 18.0453 20.2161 18.0822C20.127 18.119 20.0315 18.138 19.9352 18.138Z" fill="#5A5A5A"/>
<path d="M22.8707 18.138C22.7743 18.138 22.6789 18.119 22.5898 18.0822C22.5008 18.0453 22.4199 17.9912 22.3517 17.923C22.2836 17.8549 22.2295 17.774 22.1926 17.6849C22.1557 17.5959 22.1367 17.5004 22.1367 17.404V5.66002C22.1367 5.46535 22.2141 5.27866 22.3517 5.14101C22.4894 5.00335 22.6761 4.92603 22.8707 4.92603C23.0654 4.92603 23.2521 5.00335 23.3897 5.14101C23.5274 5.27866 23.6047 5.46535 23.6047 5.66002V17.404C23.6047 17.5987 23.5274 17.7854 23.3897 17.923C23.2521 18.0607 23.0654 18.138 22.8707 18.138Z" fill="#5A5A5A"/>
<path d="M25.8082 18.138C25.7118 18.138 25.6164 18.119 25.5273 18.0822C25.4383 18.0453 25.3574 17.9912 25.2892 17.923C25.2211 17.8549 25.167 17.774 25.1301 17.6849C25.0932 17.5959 25.0742 17.5004 25.0742 17.404V5.66002C25.0742 5.46535 25.1516 5.27866 25.2892 5.14101C25.4269 5.00335 25.6136 4.92603 25.8082 4.92603C26.0029 4.92603 26.1896 5.00335 26.3272 5.14101C26.4649 5.27866 26.5422 5.46535 26.5422 5.66002V17.404C26.5422 17.5987 26.4649 17.7854 26.3272 17.923C26.1896 18.0607 26.0029 18.138 25.8082 18.138Z" fill="#5A5A5A"/>
<path d="M28.7437 21.074C28.5491 21.074 28.3624 20.9967 28.2247 20.859C28.0871 20.7214 28.0098 20.5347 28.0098 20.34V5.66002C28.0098 5.46535 28.0871 5.27866 28.2247 5.14101C28.3624 5.00335 28.5491 4.92603 28.7437 4.92603C28.9384 4.92603 29.1251 5.00335 29.2628 5.14101C29.4004 5.27866 29.4778 5.46535 29.4778 5.66002V20.34C29.4778 20.4364 29.4588 20.5319 29.4219 20.6209C29.385 20.71 29.3309 20.7909 29.2628 20.859C29.1946 20.9272 29.1137 20.9813 29.0247 21.0182C28.9356 21.055 28.8401 21.074 28.7437 21.074Z" fill="#5A5A5A"/>
<path d="M8.19408 21.0741C8.09769 21.0771 8.00198 21.0569 7.91508 21.0151C7.82326 20.9844 7.74186 20.9286 7.68008 20.8541C7.54456 20.7245 7.46584 20.5467 7.46116 20.3593C7.45647 20.1718 7.5262 19.9902 7.65508 19.8541L7.68008 19.8291C7.74186 19.7545 7.82326 19.6988 7.91508 19.6681C8.04829 19.6131 8.19488 19.599 8.33613 19.6277C8.47738 19.6563 8.60687 19.7264 8.70808 19.8291C8.80874 19.9317 8.87707 20.0616 8.90458 20.2026C8.93209 20.3437 8.91758 20.4898 8.86285 20.6227C8.80811 20.7556 8.71556 20.8695 8.59667 20.9503C8.47779 21.031 8.3378 21.0751 8.19408 21.0771V21.0741Z" fill="#5A5A5A"/>
<path d="M11.1277 21.0751C11.0313 21.0781 10.9356 21.0579 10.8487 21.0161C10.7569 20.9853 10.6755 20.9296 10.6137 20.8551C10.4782 20.7256 10.3994 20.5476 10.3948 20.3602C10.3901 20.1728 10.4598 19.9912 10.5887 19.8551L10.6137 19.83C10.6754 19.7555 10.7568 19.6997 10.8487 19.6691C10.9817 19.6132 11.1286 19.5987 11.27 19.6274C11.4114 19.6561 11.5409 19.7267 11.6417 19.83C11.7162 19.8919 11.7719 19.9733 11.8027 20.0651C11.8415 20.153 11.8615 20.248 11.8615 20.3441C11.8615 20.4401 11.8415 20.5352 11.8027 20.6231C11.7723 20.715 11.7164 20.7965 11.6417 20.8581C11.5759 20.9282 11.4962 20.9837 11.4077 21.0211C11.3192 21.0585 11.2238 21.0769 11.1277 21.0751Z" fill="#5A5A5A"/>
<path d="M14.0652 21.0751C13.9688 21.0781 13.8731 21.0579 13.7862 21.0161C13.6944 20.9853 13.613 20.9296 13.5512 20.8551C13.4157 20.7256 13.3369 20.5476 13.3323 20.3602C13.3276 20.1728 13.3973 19.9912 13.5262 19.8551L13.5512 19.83C13.6129 19.7555 13.6943 19.6997 13.7862 19.6691C13.9192 19.6132 14.066 19.5987 14.2075 19.6274C14.3489 19.6561 14.4784 19.7267 14.5792 19.83C14.654 19.8917 14.7101 19.9732 14.7412 20.0651C14.7799 20.153 14.7999 20.248 14.7999 20.3441C14.7999 20.4401 14.7799 20.5352 14.7412 20.6231C14.7104 20.7151 14.6543 20.7966 14.5792 20.8581C14.5134 20.9282 14.4337 20.9837 14.3452 21.0211C14.2567 21.0585 14.1613 21.0769 14.0652 21.0751Z" fill="#5A5A5A"/>
<path d="M19.9374 21.075C19.8175 21.075 19.6993 21.0456 19.5935 20.9891C19.4876 20.9326 19.3973 20.851 19.3306 20.7513C19.2638 20.6517 19.2226 20.5371 19.2107 20.4177C19.1987 20.2984 19.2164 20.1779 19.2621 20.067C19.3077 19.9561 19.38 19.8581 19.4726 19.7818C19.5651 19.7055 19.675 19.6531 19.7926 19.6294C19.9102 19.6057 20.0319 19.6113 20.1468 19.6457C20.2617 19.6802 20.3663 19.7425 20.4514 19.827C20.5259 19.8888 20.5816 19.9702 20.6124 20.062C20.6511 20.1499 20.6711 20.2449 20.6711 20.341C20.6711 20.4371 20.6511 20.5321 20.6124 20.62C20.5819 20.7119 20.5262 20.7934 20.4514 20.855C20.386 20.9256 20.3064 20.9817 20.2178 21.0196C20.1293 21.0576 20.0337 21.0764 19.9374 21.075Z" fill="#5A5A5A"/>
<path d="M22.8731 21.074C22.7024 21.0773 22.5359 21.021 22.4023 20.9148C22.2687 20.8086 22.1762 20.6591 22.1409 20.4921C22.1056 20.3251 22.1296 20.1509 22.2088 19.9997C22.2879 19.8485 22.4174 19.7296 22.5748 19.6635C22.7322 19.5974 22.9077 19.5882 23.0711 19.6375C23.2346 19.6869 23.3757 19.7916 23.4702 19.9338C23.5647 20.0759 23.6068 20.2466 23.589 20.4164C23.5713 20.5862 23.495 20.7445 23.3731 20.8641C23.2394 20.9953 23.0605 21.0704 22.8731 21.074Z" fill="#5A5A5A"/>
<path d="M25.808 21.0741C25.7116 21.0755 25.6161 21.0566 25.5276 21.0187C25.439 20.9808 25.3594 20.9247 25.2939 20.8541C25.2191 20.7925 25.1633 20.7111 25.133 20.6191C25.0942 20.5312 25.0742 20.4362 25.0742 20.3401C25.0742 20.244 25.0942 20.149 25.133 20.0611C25.1637 19.9692 25.2194 19.8879 25.2939 19.8261C25.3791 19.7432 25.4833 19.6825 25.5974 19.6492C25.7115 19.6159 25.832 19.6111 25.9484 19.6352C26.0647 19.6593 26.1734 19.7116 26.2649 19.7874C26.3564 19.8633 26.4279 19.9604 26.4732 20.0702C26.5184 20.1801 26.5361 20.2994 26.5245 20.4177C26.513 20.536 26.4726 20.6497 26.407 20.7487C26.3413 20.8478 26.2524 20.9292 26.148 20.986C26.0436 21.0427 25.9268 21.0729 25.808 21.0741Z" fill="#5A5A5A"/>
<path d="M0.851198 6.39397C0.65653 6.39397 0.469834 6.31664 0.332182 6.17899C0.19453 6.04133 0.117198 5.85464 0.117198 5.65997V1.25997C0.116671 1.16325 0.135268 1.06737 0.171919 0.977852C0.208569 0.888337 0.262552 0.806948 0.330763 0.738365C0.398973 0.669783 0.480067 0.615361 0.569382 0.578224C0.658696 0.541087 0.754471 0.521971 0.851198 0.521973H5.2512C5.44587 0.521973 5.63256 0.599302 5.77022 0.736954C5.90787 0.874605 5.9852 1.0613 5.9852 1.25597C5.9852 1.45064 5.90787 1.63733 5.77022 1.77499C5.63256 1.91264 5.44587 1.98997 5.2512 1.98997H1.5852V5.65997C1.5852 5.85464 1.50787 6.04133 1.37021 6.17899C1.23256 6.31664 1.04587 6.39397 0.851198 6.39397Z" fill="#5A5A5A"/>
<path d="M5.25519 25.478H0.851188C0.656519 25.478 0.469823 25.4007 0.332171 25.263C0.194519 25.1253 0.117188 24.9387 0.117188 24.744L0.117188 20.344C0.117188 20.1493 0.194519 19.9626 0.332171 19.825C0.469823 19.6873 0.656519 19.61 0.851188 19.61C1.04586 19.61 1.23255 19.6873 1.3702 19.825C1.50786 19.9626 1.58519 20.1493 1.58519 20.344V24.014H5.25519C5.44986 24.014 5.63655 24.0913 5.7742 24.229C5.91186 24.3666 5.98919 24.5533 5.98919 24.748C5.98919 24.9427 5.91186 25.1293 5.7742 25.267C5.63655 25.4047 5.44986 25.482 5.25519 25.482V25.478Z" fill="#5A5A5A"/>
<path d="M33.1478 6.39397C32.9531 6.39397 32.7664 6.31664 32.6288 6.17899C32.4911 6.04133 32.4138 5.85464 32.4138 5.65997V1.98997H28.7437C28.5491 1.98997 28.3624 1.91264 28.2247 1.77499C28.0871 1.63733 28.0098 1.45064 28.0098 1.25597C28.0098 1.0613 28.0871 0.874605 28.2247 0.736954C28.3624 0.599302 28.5491 0.521973 28.7437 0.521973H33.1438C33.3384 0.521973 33.5251 0.599302 33.6628 0.736954C33.8004 0.874605 33.8777 1.0613 33.8777 1.25597V5.65598C33.8783 5.75237 33.8598 5.84792 33.8234 5.93717C33.787 6.02643 33.7334 6.10763 33.6656 6.17616C33.5978 6.24469 33.5172 6.2992 33.4283 6.33657C33.3395 6.37394 33.2442 6.39345 33.1478 6.39397Z" fill="#5A5A5A"/>
<path d="M33.1477 25.4779H28.7477C28.553 25.4779 28.3663 25.4006 28.2286 25.263C28.091 25.1253 28.0137 24.9386 28.0137 24.744C28.0137 24.5493 28.091 24.3626 28.2286 24.2249C28.3663 24.0873 28.553 24.0099 28.7477 24.0099H32.4177V20.3399C32.4177 20.1453 32.495 19.9586 32.6327 19.8209C32.7703 19.6833 32.957 19.606 33.1517 19.606C33.3463 19.606 33.533 19.6833 33.6707 19.8209C33.8083 19.9586 33.8857 20.1453 33.8857 20.3399V24.74C33.8862 24.837 33.8675 24.9332 33.8306 25.023C33.7937 25.1128 33.7393 25.1943 33.6707 25.263C33.602 25.3316 33.5205 25.386 33.4307 25.4229C33.3409 25.4598 33.2447 25.4785 33.1477 25.4779Z" fill="#5A5A5A"/>
<path d="M5.25549 21.074C5.1591 21.074 5.06365 21.055 4.97459 21.0182C4.88554 20.9813 4.80462 20.9272 4.73647 20.859C4.66831 20.7909 4.61424 20.71 4.57735 20.6209C4.54047 20.5319 4.52148 20.4364 4.52148 20.34V5.66002C4.52148 5.46535 4.59881 5.27866 4.73647 5.14101C4.87412 5.00335 5.06082 4.92603 5.25549 4.92603C5.45015 4.92603 5.63685 5.00335 5.7745 5.14101C5.91215 5.27866 5.98949 5.46535 5.98949 5.66002V20.34C5.98949 20.4364 5.9705 20.5319 5.93361 20.6209C5.89672 20.71 5.84266 20.7909 5.7745 20.859C5.70634 20.9272 5.62543 20.9813 5.53638 21.0182C5.44732 21.055 5.35188 21.074 5.25549 21.074Z" fill="#5A5A5A"/>
<path d="M8.19103 18.138C8.09464 18.138 7.99919 18.119 7.91014 18.0822C7.82109 18.0453 7.74017 17.9912 7.67201 17.923C7.60385 17.8549 7.54979 17.774 7.5129 17.6849C7.47601 17.5959 7.45703 17.5004 7.45703 17.404V5.66002C7.45703 5.46535 7.53436 5.27866 7.67201 5.14101C7.80966 5.00335 7.99636 4.92603 8.19103 4.92603C8.3857 4.92603 8.57239 5.00335 8.71004 5.14101C8.8477 5.27866 8.92503 5.46535 8.92503 5.66002V17.404C8.92503 17.5004 8.90604 17.5959 8.86916 17.6849C8.83227 17.774 8.7782 17.8549 8.71004 17.923C8.64189 17.9912 8.56098 18.0453 8.47192 18.0822C8.38287 18.119 8.28742 18.138 8.19103 18.138Z" fill="#5A5A5A"/>
<path d="M11.1266 18.138C11.0302 18.138 10.9348 18.119 10.8457 18.0822C10.7567 18.0453 10.6757 17.9912 10.6076 17.923C10.5394 17.8549 10.4853 17.774 10.4485 17.6849C10.4116 17.5959 10.3926 17.5004 10.3926 17.404V5.66002C10.3926 5.46535 10.4699 5.27866 10.6076 5.14101C10.7452 5.00335 10.9319 4.92603 11.1266 4.92603C11.3213 4.92603 11.5079 5.00335 11.6456 5.14101C11.7833 5.27866 11.8606 5.46535 11.8606 5.66002V17.404C11.8606 17.5987 11.7833 17.7854 11.6456 17.923C11.5079 18.0607 11.3213 18.138 11.1266 18.138Z" fill="#5A5A5A"/>
<path d="M14.0641 18.138C13.9677 18.138 13.8722 18.119 13.7832 18.0822C13.6941 18.0453 13.6132 17.9912 13.5451 17.923C13.4769 17.8549 13.4228 17.774 13.386 17.6849C13.3491 17.5959 13.3301 17.5004 13.3301 17.404V5.66002C13.3301 5.46535 13.4074 5.27866 13.5451 5.14101C13.6827 5.00335 13.8694 4.92603 14.0641 4.92603C14.2587 4.92603 14.4454 5.00335 14.5831 5.14101C14.7208 5.27866 14.7981 5.46535 14.7981 5.66002V17.404C14.7981 17.5987 14.7208 17.7854 14.5831 17.923C14.4454 18.0607 14.2587 18.138 14.0641 18.138Z" fill="#5A5A5A"/>
<path d="M16.9996 21.074C16.9032 21.074 16.8078 21.055 16.7187 21.0182C16.6297 20.9813 16.5488 20.9272 16.4806 20.859C16.4124 20.7909 16.3584 20.71 16.3215 20.6209C16.2846 20.5319 16.2656 20.4364 16.2656 20.34V5.66002C16.2656 5.46535 16.343 5.27866 16.4806 5.14101C16.6183 5.00335 16.8049 4.92603 16.9996 4.92603C17.1943 4.92603 17.381 5.00335 17.5186 5.14101C17.6563 5.27866 17.7336 5.46535 17.7336 5.66002V20.34C17.7336 20.5347 17.6563 20.7214 17.5186 20.859C17.381 20.9967 17.1943 21.074 16.9996 21.074Z" fill="#5A5A5A"/>
<path d="M19.9352 18.138C19.8388 18.138 19.7433 18.119 19.6543 18.0822C19.5652 18.0453 19.4843 17.9912 19.4161 17.923C19.348 17.8549 19.2939 17.774 19.257 17.6849C19.2202 17.5959 19.2012 17.5004 19.2012 17.404V5.66002C19.2012 5.46535 19.2785 5.27866 19.4161 5.14101C19.5538 5.00335 19.7405 4.92603 19.9352 4.92603C20.1298 4.92603 20.3165 5.00335 20.4542 5.14101C20.5918 5.27866 20.6692 5.46535 20.6692 5.66002V17.404C20.6692 17.5004 20.6502 17.5959 20.6133 17.6849C20.5764 17.774 20.5224 17.8549 20.4542 17.923C20.386 17.9912 20.3051 18.0453 20.2161 18.0822C20.127 18.119 20.0315 18.138 19.9352 18.138Z" fill="#5A5A5A"/>
<path d="M22.8707 18.138C22.7743 18.138 22.6789 18.119 22.5898 18.0822C22.5008 18.0453 22.4199 17.9912 22.3517 17.923C22.2836 17.8549 22.2295 17.774 22.1926 17.6849C22.1557 17.5959 22.1367 17.5004 22.1367 17.404V5.66002C22.1367 5.46535 22.2141 5.27866 22.3517 5.14101C22.4894 5.00335 22.6761 4.92603 22.8707 4.92603C23.0654 4.92603 23.2521 5.00335 23.3897 5.14101C23.5274 5.27866 23.6047 5.46535 23.6047 5.66002V17.404C23.6047 17.5987 23.5274 17.7854 23.3897 17.923C23.2521 18.0607 23.0654 18.138 22.8707 18.138Z" fill="#5A5A5A"/>
<path d="M25.8063 18.138C25.7099 18.138 25.6144 18.119 25.5254 18.0822C25.4363 18.0453 25.3554 17.9912 25.2873 17.923C25.2191 17.8549 25.165 17.774 25.1281 17.6849C25.0913 17.5959 25.0723 17.5004 25.0723 17.404V5.66002C25.0723 5.46535 25.1496 5.27866 25.2873 5.14101C25.4249 5.00335 25.6116 4.92603 25.8063 4.92603C26.0009 4.92603 26.1876 5.00335 26.3253 5.14101C26.4629 5.27866 26.5403 5.46535 26.5403 5.66002V17.404C26.5403 17.5987 26.4629 17.7854 26.3253 17.923C26.1876 18.0607 26.0009 18.138 25.8063 18.138Z" fill="#5A5A5A"/>
<path d="M28.7437 21.074C28.5491 21.074 28.3624 20.9967 28.2247 20.859C28.0871 20.7214 28.0098 20.5347 28.0098 20.34V5.66002C28.0098 5.46535 28.0871 5.27866 28.2247 5.14101C28.3624 5.00335 28.5491 4.92603 28.7437 4.92603C28.9384 4.92603 29.1251 5.00335 29.2628 5.14101C29.4004 5.27866 29.4778 5.46535 29.4778 5.66002V20.34C29.4778 20.4364 29.4588 20.5319 29.4219 20.6209C29.385 20.71 29.3309 20.7909 29.2628 20.859C29.1946 20.9272 29.1137 20.9813 29.0247 21.0182C28.9356 21.055 28.8401 21.074 28.7437 21.074Z" fill="#5A5A5A"/>
<path d="M8.19026 21.074C8.09387 21.077 7.99817 21.0568 7.91126 21.015C7.81956 20.984 7.73822 20.9283 7.67626 20.854C7.54149 20.7239 7.46348 20.546 7.45917 20.3587C7.45487 20.1715 7.52462 19.9901 7.65326 19.854L7.67626 19.831C7.73819 19.7566 7.81954 19.7009 7.91126 19.67C8.09001 19.5965 8.29051 19.5965 8.46926 19.67C8.56117 19.7005 8.64262 19.7563 8.70426 19.831C8.80493 19.9336 8.87326 20.0635 8.90077 20.2045C8.92828 20.3456 8.91377 20.4916 8.85904 20.6246C8.8043 20.7575 8.71174 20.8714 8.59285 20.9522C8.47397 21.0329 8.33398 21.077 8.19026 21.079V21.074Z" fill="#5A5A5A"/>
<path d="M11.1274 21.075C10.9836 21.0732 10.8435 21.0293 10.7244 20.9485C10.6054 20.8678 10.5127 20.7539 10.4578 20.621C10.403 20.4881 10.3884 20.3419 10.4159 20.2008C10.4433 20.0596 10.5117 19.9296 10.6124 19.827C10.7129 19.7233 10.8425 19.6524 10.984 19.6237C11.1255 19.595 11.2724 19.6097 11.4054 19.666C11.4973 19.6965 11.5788 19.7523 11.6404 19.827C11.741 19.9294 11.8093 20.0592 11.8369 20.2C11.8644 20.3409 11.8501 20.4868 11.7956 20.6197C11.7411 20.7525 11.6489 20.8664 11.5303 20.9473C11.4117 21.0283 11.272 21.0727 11.1284 21.075H11.1274Z" fill="#5A5A5A"/>
<path d="M14.063 21.074C13.9192 21.0723 13.779 21.0283 13.66 20.9476C13.541 20.8669 13.4483 20.753 13.3934 20.6201C13.3385 20.4871 13.3239 20.341 13.3514 20.1998C13.3789 20.0587 13.4472 19.9287 13.548 19.826C13.6099 19.7516 13.6912 19.6959 13.783 19.665C13.9162 19.61 14.0628 19.5959 14.204 19.6246C14.3453 19.6533 14.4748 19.7234 14.576 19.826C14.6766 19.9286 14.745 20.0585 14.7725 20.1996C14.8 20.3407 14.7855 20.4867 14.7307 20.6196C14.676 20.7525 14.5834 20.8664 14.4646 20.9472C14.3457 21.028 14.2057 21.0721 14.062 21.074H14.063Z" fill="#5A5A5A"/>
<path d="M19.9368 21.074C19.8405 21.0754 19.7452 21.0552 19.6578 21.015C19.5661 20.984 19.4847 20.9283 19.4228 20.854C19.2878 20.7241 19.2096 20.546 19.2053 20.3587C19.201 20.1714 19.2709 19.99 19.3998 19.854L19.4228 19.831C19.4847 19.7566 19.5661 19.7009 19.6578 19.67C19.8365 19.5965 20.037 19.5965 20.2158 19.67C20.3077 19.7005 20.3891 19.7563 20.4508 19.831C20.5514 19.9336 20.6198 20.0635 20.6473 20.2045C20.6748 20.3456 20.6603 20.4916 20.6055 20.6246C20.5508 20.7575 20.4582 20.8714 20.3394 20.9522C20.2205 21.0329 20.0805 21.077 19.9368 21.079V21.074Z" fill="#5A5A5A"/>
<path d="M22.8723 21.074C22.776 21.0755 22.6807 21.0553 22.5933 21.015C22.5016 20.984 22.4202 20.9283 22.3583 20.854C22.2233 20.7241 22.1451 20.5461 22.1408 20.3587C22.1365 20.1714 22.2064 19.99 22.3353 19.854L22.3583 19.831C22.4955 19.6964 22.6801 19.621 22.8723 19.621C23.0645 19.621 23.2491 19.6964 23.3863 19.831C23.5223 19.9601 23.6016 20.1379 23.6066 20.3254C23.6117 20.5129 23.5422 20.6947 23.4133 20.831L23.3863 20.858C23.3246 20.9326 23.2431 20.9884 23.1513 21.019C23.0636 21.0581 22.9682 21.0769 22.8723 21.074Z" fill="#5A5A5A"/>
<path d="M25.8125 21.074C25.7163 21.0754 25.621 21.0553 25.5336 21.015C25.4419 20.9841 25.3605 20.9283 25.2985 20.854C25.228 20.7885 25.172 20.7089 25.1341 20.6203C25.0962 20.5318 25.0772 20.4363 25.0785 20.34C25.0749 20.2436 25.0952 20.1477 25.1376 20.061C25.1678 19.9692 25.2233 19.8878 25.2976 19.826C25.3595 19.7516 25.4408 19.6959 25.5325 19.665C25.6658 19.61 25.8123 19.5959 25.9536 19.6246C26.0948 19.6533 26.2243 19.7234 26.3255 19.826C26.3995 19.8883 26.4552 19.9695 26.4866 20.061C26.5289 20.1477 26.5491 20.2436 26.5455 20.34C26.5402 20.533 26.4612 20.7167 26.3247 20.8532C26.1882 20.9897 26.0045 21.0687 25.8115 21.074H25.8125Z" fill="#5A5A5A"/>
<path d="M0.851198 6.39397C0.65653 6.39397 0.469834 6.31664 0.332182 6.17899C0.19453 6.04133 0.117198 5.85464 0.117198 5.65997V1.25997C0.116671 1.16325 0.135268 1.06737 0.171919 0.977852C0.208569 0.888337 0.262552 0.806948 0.330763 0.738365C0.398973 0.669783 0.480067 0.615361 0.569382 0.578224C0.658696 0.541087 0.754471 0.521971 0.851198 0.521973H5.2512C5.44587 0.521973 5.63256 0.599302 5.77022 0.736954C5.90787 0.874605 5.9852 1.0613 5.9852 1.25597C5.9852 1.45064 5.90787 1.63733 5.77022 1.77499C5.63256 1.91264 5.44587 1.98997 5.2512 1.98997H1.5852V5.65997C1.5852 5.85464 1.50787 6.04133 1.37021 6.17899C1.23256 6.31664 1.04587 6.39397 0.851198 6.39397Z" fill="#5A5A5A"/>
<path d="M5.25519 25.478H0.851188C0.656519 25.478 0.469823 25.4007 0.332171 25.263C0.194519 25.1253 0.117188 24.9387 0.117188 24.744L0.117188 20.344C0.117188 20.1493 0.194519 19.9626 0.332171 19.825C0.469823 19.6873 0.656519 19.61 0.851188 19.61C1.04586 19.61 1.23255 19.6873 1.3702 19.825C1.50786 19.9626 1.58519 20.1493 1.58519 20.344V24.014H5.25519C5.44986 24.014 5.63655 24.0913 5.7742 24.229C5.91186 24.3666 5.98919 24.5533 5.98919 24.748C5.98919 24.9427 5.91186 25.1293 5.7742 25.267C5.63655 25.4047 5.44986 25.482 5.25519 25.482V25.478Z" fill="#5A5A5A"/>
<path d="M33.1478 6.39397C32.9531 6.39397 32.7664 6.31664 32.6288 6.17899C32.4911 6.04133 32.4138 5.85464 32.4138 5.65997V1.98997H28.7437C28.5491 1.98997 28.3624 1.91264 28.2247 1.77499C28.0871 1.63733 28.0098 1.45064 28.0098 1.25597C28.0098 1.0613 28.0871 0.874605 28.2247 0.736954C28.3624 0.599302 28.5491 0.521973 28.7437 0.521973H33.1438C33.3384 0.521973 33.5251 0.599302 33.6628 0.736954C33.8004 0.874605 33.8777 1.0613 33.8777 1.25597V5.65598C33.8783 5.75237 33.8598 5.84792 33.8234 5.93717C33.787 6.02643 33.7334 6.10763 33.6656 6.17616C33.5978 6.24469 33.5172 6.2992 33.4283 6.33657C33.3395 6.37394 33.2442 6.39345 33.1478 6.39397Z" fill="#5A5A5A"/>
<path d="M33.1477 25.4779H28.7477C28.553 25.4779 28.3663 25.4006 28.2286 25.263C28.091 25.1253 28.0137 24.9386 28.0137 24.744C28.0137 24.5493 28.091 24.3626 28.2286 24.2249C28.3663 24.0873 28.553 24.0099 28.7477 24.0099H32.4177V20.3399C32.4177 20.1453 32.495 19.9586 32.6327 19.8209C32.7703 19.6833 32.957 19.606 33.1517 19.606C33.3463 19.606 33.533 19.6833 33.6707 19.8209C33.8083 19.9586 33.8857 20.1453 33.8857 20.3399V24.74C33.8862 24.837 33.8675 24.9332 33.8306 25.023C33.7937 25.1128 33.7393 25.1943 33.6707 25.263C33.602 25.3316 33.5205 25.386 33.4307 25.4229C33.3409 25.4598 33.2447 25.4785 33.1477 25.4779Z" fill="#5A5A5A"/>
</svg>
