<svg width="26" height="31" viewBox="0 0 26 31" fill="none" xmlns="http://www.w3.org/2000/svg">
<mask id="mask0_765_4484" style="mask-type:luminance" maskUnits="userSpaceOnUse" x="0" y="0" width="26" height="31">
<path d="M25.1619 0.405029H0.837891V30.405H25.1619V0.405029Z" fill="white"/>
</mask>
<g mask="url(#mask0_765_4484)">
<path d="M5.18368 23.632H1.40668V11.292C1.40123 11.0218 1.44739 10.753 1.54268 10.5C1.63646 10.2507 1.77851 10.0223 1.96068 9.828C2.13844 9.63797 2.35363 9.4868 2.59268 9.38401C2.82781 9.28303 3.08184 9.23359 3.33768 9.23901C3.59352 9.23359 3.84755 9.28303 4.08268 9.38401C4.31878 9.48745 4.53116 9.63823 4.70668 9.82701C4.88886 10.0213 5.0309 10.2497 5.12468 10.499C5.21997 10.752 5.26613 11.0208 5.26068 11.291V27.745C5.25416 28.0161 5.29965 28.286 5.39468 28.54C5.48781 28.7903 5.62953 29.0197 5.81168 29.215C5.98956 29.4059 6.20511 29.5577 6.44468 29.661C6.68041 29.7623 6.93517 29.8118 7.19168 29.806M7.19168 29.806C7.44903 29.8105 7.70437 29.76 7.94068 29.658C8.18078 29.5542 8.39693 29.402 8.57568 29.211C8.75847 29.0156 8.90116 28.7863 8.99568 28.536C9.09253 28.2806 9.13971 28.0091 9.13468 27.736V1.005L11.0667 3.058L13.0007 1.005L14.9437 3.058L16.8747 1.005L18.8067 3.058L20.7357 1.005L22.7407 3.058L24.5987 1.005V27.752C24.6041 28.0223 24.558 28.2911 24.4627 28.544C24.3689 28.7933 24.2268 29.0217 24.0447 29.216C23.8669 29.406 23.6517 29.5572 23.4127 29.66C23.1775 29.761 22.9235 29.8104 22.6677 29.805L7.19168 29.806Z" stroke="#5A5A5A" stroke-width="1.5" stroke-linecap="round" stroke-linejoin="round"/>
<path d="M8.94503 9.23806L3.33203 9.23206" stroke="#5A5A5A" stroke-width="1.5" stroke-linecap="round" stroke-linejoin="round"/>
<path d="M14.6445 14.0911H20.4985" stroke="#5A5A5A" stroke-width="1.5" stroke-linecap="round" stroke-linejoin="round"/>
<path d="M18.5625 20.265L14.6945 16.151C14.6945 16.151 18.5625 16.315 18.5625 14.177C18.5625 12.039 14.6445 12.037 14.6445 12.037H20.4985" stroke="#5A5A5A" stroke-width="1.5" stroke-linecap="round" stroke-linejoin="round"/>
</g>
</svg>
