<svg width="46" height="41" viewBox="0 0 46 41" fill="none" xmlns="http://www.w3.org/2000/svg">
<path d="M28.3739 19.6807L17.0703 30.9847L17.9722 31.8865L29.2757 20.5826L28.3739 19.6807Z" fill="black"/>
<path d="M19.0682 24.549C17.4861 24.549 16.1992 23.2621 16.1992 21.68C16.1992 20.0979 17.4861 18.811 19.0682 18.811C20.6504 18.811 21.9373 20.0979 21.9373 21.68C21.9373 23.2621 20.6504 24.549 19.0682 24.549ZM19.0682 20.0864C18.1895 20.0864 17.4746 20.8012 17.4746 21.68C17.4746 22.5587 18.1895 23.2736 19.0682 23.2736C19.947 23.2736 20.6619 22.5587 20.6619 21.68C20.6619 20.8012 19.947 20.0864 19.0682 20.0864ZM27.2755 32.7562C25.6933 32.7562 24.4064 31.4694 24.4064 29.8872C24.4064 28.3051 25.6933 27.0182 27.2755 27.0182C28.8576 27.0182 30.1445 28.3051 30.1445 29.8872C30.1445 31.4694 28.8576 32.7562 27.2755 32.7562ZM27.2755 28.2936C26.3967 28.2936 25.6818 29.0085 25.6818 29.8872C25.6818 30.766 26.3967 31.4808 27.2755 31.4808C28.1542 31.4808 28.8691 30.766 28.8691 29.8872C28.8691 29.0085 28.1542 28.2936 27.2755 28.2936Z" fill="black"/>
<path d="M36.8111 40.0573H3.61423C1.99192 40.0573 0.671875 38.7373 0.671875 37.115V5.89307C0.671875 4.59598 1.72727 3.54123 3.02372 3.54123H10.2827C10.6347 3.54123 10.9204 3.82692 10.9204 4.17893V6.4128H12.7774V4.17829C12.7774 3.82628 13.0631 3.54059 13.4151 3.54059H32.9281C33.2801 3.54059 33.5658 3.82628 33.5658 4.17829V6.41216H35.4228V4.17829C35.4228 3.82628 35.7085 3.54059 36.0605 3.54059H43.3195C44.6165 3.54059 45.6713 4.59598 45.6713 5.89243V31.1958C45.6713 31.3648 45.6043 31.5274 45.4845 31.6467L37.2626 39.8705C37.1427 39.9897 36.9807 40.0573 36.8111 40.0573ZM3.02372 4.81599C2.43002 4.81599 1.94728 5.29873 1.94728 5.89243V37.1143C1.94728 38.0332 2.6953 38.7813 3.61423 38.7813H36.5471L44.3965 30.9318V5.89307C44.3965 5.29937 43.9138 4.81663 43.3201 4.81663H36.6988V7.0505C36.6988 7.40251 36.4132 7.6882 36.0611 7.6882H32.9287C32.5767 7.6882 32.291 7.40251 32.291 7.0505V4.81599H14.0528V7.04986C14.0528 7.40187 13.7671 7.68756 13.4151 7.68756H10.2827C9.93067 7.68756 9.64498 7.40187 9.64498 7.04986V4.81599H3.02372Z" fill="black"/>
<path d="M45.0372 11.8582H1.3125V13.1336H45.0372V11.8582Z" fill="black"/>
<path d="M13.4146 7.68755H10.2822C9.93022 7.68755 9.64453 7.40186 9.64453 7.04985V1.30671C9.64453 0.954697 9.93022 0.669006 10.2822 0.669006H13.4146C13.7666 0.669006 14.0523 0.954697 14.0523 1.30671V7.04985C14.0523 7.40186 13.7673 7.68755 13.4146 7.68755ZM10.9199 6.41215H12.7769V1.94441H10.9199V6.41215ZM36.0607 7.68755H32.9283C32.5763 7.68755 32.2906 7.40186 32.2906 7.04985V1.30671C32.2906 0.954697 32.5763 0.669006 32.9283 0.669006H36.0607C36.4127 0.669006 36.6984 0.954697 36.6984 1.30671V7.04985C36.6984 7.40186 36.4127 7.68755 36.0607 7.68755ZM33.566 6.41215H35.423V1.94441H33.566V6.41215ZM36.8113 40.0573C36.729 40.0573 36.6461 40.0414 36.567 40.0088C36.3285 39.91 36.1736 39.6779 36.1736 39.4196V32.9106C36.1736 31.6135 37.229 30.5587 38.5254 30.5587H45.0338C45.2914 30.5587 45.5242 30.7143 45.623 30.9522C45.7219 31.1907 45.667 31.4649 45.4847 31.6473L37.2621 39.8705C37.1403 39.9923 36.9771 40.0573 36.8113 40.0573ZM38.5254 31.8341C37.9317 31.8341 37.449 32.3169 37.449 32.9106V37.8795L43.4944 31.8341H38.5254Z" fill="black"/>
</svg>
