<svg width="29" height="32" viewBox="0 0 29 32" fill="none" xmlns="http://www.w3.org/2000/svg">
<path fill-rule="evenodd" clip-rule="evenodd" d="M25.9932 5.01201C26.5252 5.01201 27.0355 5.22335 27.4117 5.59955C27.7879 5.97575 27.9992 6.48598 27.9992 7.01801C27.9992 7.55003 27.7879 8.06027 27.4117 8.43646C27.0355 8.81266 26.5252 9.02401 25.9932 9.02401H15.3712C14.8392 9.02401 14.329 8.81266 13.9528 8.43646C13.5766 8.06027 13.3652 7.55003 13.3652 7.01801C13.3652 6.48598 13.5766 5.97575 13.9528 5.59955C14.329 5.22335 14.8392 5.01201 15.3712 5.01201C15.3713 4.17554 15.6327 3.36001 16.119 2.67946C16.6054 1.99891 17.2923 1.48739 18.0836 1.21644C18.875 0.945486 19.7313 0.928658 20.5327 1.16831C21.3341 1.40795 22.0405 1.89209 22.5532 2.55301C22.9445 2.41944 23.362 2.3811 23.771 2.44117C24.18 2.50124 24.5689 2.65799 24.9052 2.89841C25.2415 3.13883 25.5157 3.45599 25.7049 3.82358C25.8941 4.19117 25.993 4.59858 25.9932 5.01201Z" stroke="#5A5A5A" stroke-miterlimit="22.926" stroke-linecap="round" stroke-linejoin="round"/>
<path d="M22.5529 9.02499V13.794C22.5521 14.1173 22.4233 14.4272 22.1947 14.6558C21.9661 14.8844 21.6562 15.0132 21.3329 15.014C21.6561 15.0148 21.9658 15.1434 22.1944 15.3718C22.423 15.6002 22.5519 15.9098 22.5529 16.233V21.788C22.5521 22.1113 22.4233 22.4212 22.1947 22.6498C21.9661 22.8784 21.6562 23.0072 21.3329 23.008C21.6562 23.0088 21.9661 23.1376 22.1947 23.3662C22.4233 23.5948 22.5521 23.9047 22.5529 24.228V29.783C22.5521 30.1063 22.4233 30.4162 22.1947 30.6448C21.9661 30.8734 21.6562 31.0022 21.3329 31.003H2.38992C2.0666 31.0022 1.75675 30.8734 1.52813 30.6448C1.2995 30.4162 1.17071 30.1063 1.16992 29.783V24.225C1.17071 23.9017 1.2995 23.5918 1.52813 23.3632C1.75675 23.1346 2.0666 23.0058 2.38992 23.005C2.0666 23.0042 1.75675 22.8754 1.52813 22.6468C1.2995 22.4182 1.17071 22.1083 1.16992 21.785V16.23C1.17098 15.9068 1.29989 15.5973 1.52848 15.3688C1.75707 15.1404 2.06678 15.0118 2.38992 15.011C2.0666 15.0102 1.75675 14.8814 1.52813 14.6528C1.2995 14.4242 1.17071 14.1143 1.16992 13.791V8.23599C1.17071 7.91267 1.2995 7.60281 1.52813 7.37419C1.75675 7.14557 2.0666 7.01678 2.38992 7.01599H13.3689" stroke="#5A5A5A" stroke-miterlimit="22.926" stroke-linecap="round" stroke-linejoin="round"/>
<path d="M2.39062 15.012H21.3346" stroke="#5A5A5A" stroke-miterlimit="22.926" stroke-linecap="round" stroke-linejoin="round"/>
<path d="M2.39062 23.006H21.3346" stroke="#5A5A5A" stroke-miterlimit="22.926" stroke-linecap="round" stroke-linejoin="round"/>
<path fill-rule="evenodd" clip-rule="evenodd" d="M5.43875 12.234C5.68004 12.234 5.91592 12.1624 6.11655 12.0283C6.31717 11.8943 6.47354 11.7037 6.56588 11.4808C6.65822 11.2579 6.68238 11.0126 6.63531 10.7759C6.58823 10.5393 6.47204 10.3219 6.30142 10.1513C6.1308 9.98066 5.91341 9.86446 5.67676 9.81739C5.4401 9.77031 5.1948 9.79448 4.97188 9.88681C4.74895 9.97915 4.55841 10.1355 4.42435 10.3362C4.2903 10.5368 4.21875 10.7727 4.21875 11.014C4.21928 11.3374 4.34799 11.6473 4.57667 11.876C4.80535 12.1047 5.11535 12.2334 5.43875 12.234Z" stroke="#5A5A5A" stroke-miterlimit="22.926" stroke-linecap="round" stroke-linejoin="round"/>
<path fill-rule="evenodd" clip-rule="evenodd" d="M5.43875 20.2279C5.68004 20.2279 5.91592 20.1564 6.11655 20.0223C6.31717 19.8883 6.47354 19.6978 6.56588 19.4748C6.65822 19.2519 6.68238 19.0066 6.63531 18.7699C6.58823 18.5333 6.47204 18.3159 6.30142 18.1453C6.1308 17.9746 5.91341 17.8585 5.67676 17.8114C5.4401 17.7643 5.1948 17.7885 4.97188 17.8808C4.74895 17.9732 4.55841 18.1295 4.42435 18.3301C4.2903 18.5308 4.21875 18.7666 4.21875 19.0079C4.21928 19.3313 4.34799 19.6414 4.57667 19.87C4.80535 20.0987 5.11535 20.2274 5.43875 20.2279Z" stroke="#5A5A5A" stroke-miterlimit="22.926" stroke-linecap="round" stroke-linejoin="round"/>
<path fill-rule="evenodd" clip-rule="evenodd" d="M5.43975 28.222C5.68104 28.2218 5.91686 28.15 6.11738 28.0158C6.3179 27.8816 6.47411 27.6909 6.56626 27.4679C6.65842 27.2449 6.68238 26.9996 6.63511 26.763C6.58784 26.5264 6.47147 26.3091 6.30071 26.1386C6.12995 25.9681 5.91248 25.8521 5.67578 25.8052C5.43909 25.7584 5.19381 25.7827 4.97096 25.8752C4.74811 25.9677 4.5577 26.1243 4.42381 26.325C4.28991 26.5257 4.21855 26.7617 4.21875 27.003C4.21954 27.3264 4.3485 27.6363 4.57737 27.8648C4.80624 28.0933 5.11635 28.2217 5.43975 28.222Z" stroke="#5A5A5A" stroke-miterlimit="22.926" stroke-linecap="round" stroke-linejoin="round"/>
<circle cx="9.70508" cy="11.015" r="0.5" fill="#5A5A5A"/>
<circle cx="12.7559" cy="11.015" r="0.5" fill="#5A5A5A"/>
<circle cx="9.70508" cy="19.009" r="0.5" fill="#5A5A5A"/>
<circle cx="12.7559" cy="19.009" r="0.5" fill="#5A5A5A"/>
<circle cx="9.70508" cy="27.0031" r="0.5" fill="#5A5A5A"/>
<path d="M15.8047 19.009H19.5057" stroke="#5A5A5A" stroke-miterlimit="22.926" stroke-linecap="round" stroke-linejoin="round"/>
<path d="M16.7608 27.0031H12.7559" stroke="#5A5A5A" stroke-miterlimit="22.926" stroke-linecap="round" stroke-linejoin="round"/>
</svg>
