<svg width="75" height="75" viewBox="0 0 75 75" fill="none" xmlns="http://www.w3.org/2000/svg">
<path d="M37.5 75C58.2107 75 75 58.2107 75 37.5C75 16.7893 58.2107 0 37.5 0C16.7893 0 0 16.7893 0 37.5C0 58.2107 16.7893 75 37.5 75Z" fill="#EEC9FF"/>
<path d="M42.5755 54.8453C42.0324 54.8453 41.607 54.4199 41.607 53.8768V43.5432V43.1698L41.3429 43.4338L39.9052 44.8715L39.9024 44.8744L39.8996 44.8774C39.7338 45.0617 39.5013 45.1632 39.2452 45.1632C38.9859 45.1632 38.7395 45.0596 38.5514 44.8715L38.5486 44.8686L38.5455 44.8659C38.3679 44.7061 38.2666 44.4824 38.2601 44.2362C38.2531 43.9717 38.3593 43.7098 38.5514 43.5177L41.8762 40.193L41.879 40.1901L41.8818 40.1871C42.0476 40.0028 42.28 39.9013 42.5362 39.9013C42.7955 39.9013 43.0419 40.0049 43.23 40.193L46.646 43.5192L46.6482 43.5213L46.6504 43.5233C46.828 43.6832 46.9294 43.9068 46.9359 44.1531C46.9428 44.4176 46.8367 44.6794 46.6446 44.8715C46.4609 45.0552 46.2386 45.1407 45.9452 45.1407C45.6517 45.1407 45.4295 45.0552 45.2458 44.8715L43.8081 43.4338L43.5441 43.1698V43.5432V53.8768C43.5441 54.4199 43.1186 54.8453 42.5755 54.8453Z" fill="black"/>
<path d="M42.5366 40.056C42.3248 40.056 42.1332 40.1393 41.9971 40.2906L41.9859 40.3024L38.6612 43.6271C38.4989 43.7893 38.4092 44.0098 38.4151 44.2321C38.4204 44.4355 38.5036 44.6198 38.6494 44.751L38.6612 44.7622C38.82 44.921 39.0276 45.0085 39.2455 45.0085C39.4573 45.0085 39.6489 44.9252 39.785 44.774L39.7962 44.7622L41.762 42.7964V53.8768C41.762 54.3332 42.1195 54.6907 42.5759 54.6907C43.0323 54.6907 43.3898 54.3332 43.3898 53.8768V42.7964L45.3555 44.7622C45.5104 44.917 45.6924 44.9861 45.9455 44.9861C46.1987 44.9861 46.3807 44.917 46.5356 44.7622C46.6978 44.5999 46.7875 44.3794 46.7816 44.1572C46.7763 43.9537 46.6931 43.7695 46.5474 43.6383L46.5385 43.63L43.121 40.3024C42.9621 40.1435 42.7545 40.056 42.5366 40.056ZM42.5366 39.7467C42.823 39.7467 43.115 39.859 43.3397 40.0836L46.7543 43.4084C47.2036 43.8127 47.2036 44.5316 46.7543 44.9809C46.5296 45.2055 46.2601 45.2954 45.9455 45.2954C45.631 45.2954 45.3615 45.2055 45.1368 44.9809L43.6991 43.5432V53.8768C43.6991 54.5058 43.2049 55 42.5759 55C41.9469 55 41.4527 54.5058 41.4527 53.8768V43.5432L40.0149 44.9809C39.6106 45.4302 38.8917 45.4302 38.4424 44.9809C37.9931 44.5765 37.9931 43.8577 38.4424 43.4084L41.7672 40.0836C41.9693 39.859 42.2501 39.7467 42.5366 39.7467Z" fill="#EEC9FF"/>
<path d="M33.8587 54.8445C33.5653 54.8445 33.343 54.759 33.1594 54.5753L29.8346 51.2506L29.8318 51.2477L29.8287 51.245C29.6511 51.0851 29.5498 50.8615 29.5433 50.6152C29.5363 50.3507 29.6425 50.0889 29.8346 49.8968L29.8375 49.8939L29.8402 49.8909C30.0061 49.7066 30.2385 49.6051 30.4947 49.6051C30.754 49.6051 31.0003 49.7087 31.1884 49.8968L32.6261 51.3345L32.8902 51.5985V51.2251V40.8915C32.8902 40.3484 33.3156 39.923 33.8587 39.923C34.4019 39.923 34.8273 40.3484 34.8273 40.8915V51.2251V51.5985L35.0913 51.3345L36.529 49.8968C36.7171 49.7087 36.9635 49.6051 37.2228 49.6051C37.4789 49.6051 37.7114 49.7066 37.8772 49.8909L37.8827 49.8969L37.8887 49.9024C38.0663 50.0622 38.1677 50.2859 38.1742 50.5322C38.1811 50.7966 38.0749 51.0585 37.8828 51.2506L34.5581 54.5753C34.3744 54.759 34.1522 54.8445 33.8587 54.8445Z" fill="black"/>
<path d="M33.8591 54.6899C34.1123 54.6899 34.2942 54.6208 34.4491 54.466L37.7738 51.1412C37.9361 50.979 38.0258 50.7585 38.0199 50.5362C38.0146 50.3328 37.9314 50.1485 37.7856 50.0173L37.7626 49.9944C37.6265 49.8431 37.4349 49.7598 37.2231 49.7598C37.0052 49.7598 36.7976 49.8473 36.6387 50.0062L34.673 51.9719V40.8915C34.673 40.4351 34.3155 40.0776 33.8591 40.0776C33.4027 40.0776 33.0452 40.4351 33.0452 40.8915V51.9719L31.0794 50.0062C30.9206 49.8473 30.713 49.7598 30.495 49.7598C30.2833 49.7598 30.0917 49.8431 29.9555 49.9944L29.9444 50.0062C29.7821 50.1684 29.6924 50.3889 29.6983 50.6112C29.7036 50.8146 29.7868 50.9989 29.9326 51.13L29.9444 51.1412L33.2691 54.466C33.4239 54.6208 33.6059 54.6899 33.8591 54.6899ZM33.8591 54.9992C33.5446 54.9992 33.275 54.9093 33.0504 54.6847L29.7256 51.3599C29.2763 50.9556 29.2763 50.2367 29.7256 49.7874C30.13 49.3381 30.8489 49.3381 31.2981 49.7874L32.7359 51.2252V40.8915C32.7359 40.2625 33.2301 39.7683 33.8591 39.7683C34.4881 39.7683 34.9823 40.2625 34.9823 40.8915V51.2252L36.42 49.7874C36.8693 49.3381 37.5882 49.3381 37.9925 49.7874C38.4418 50.1918 38.4418 50.9107 37.9925 51.3599L34.6678 54.6847C34.4432 54.9093 34.1736 54.9992 33.8591 54.9992Z" fill="#EEC9FF"/>
<path d="M51.202 44.4214H49.944C49.4009 44.4214 48.9755 43.9959 48.9755 43.4528C48.9755 42.9097 49.4009 42.4843 49.944 42.4843H51.202C54.0372 42.4843 56.3438 40.1777 56.3438 37.3425C56.3438 34.7184 54.3735 32.5283 51.7604 32.2469C51.5097 32.2103 51.2685 32.0674 51.0982 31.8544C50.9402 31.657 50.8683 31.3821 50.9058 31.1193C50.9535 30.7382 50.9973 30.3325 50.9973 29.9293C50.9973 27.8454 50.1794 25.8798 48.6943 24.3947C47.2092 22.9097 45.2437 22.0918 43.1598 22.0918C40.1219 22.0918 37.3332 23.8907 36.0553 26.6748L36.0541 26.6773L36.0531 26.6798C35.9039 27.0378 35.5642 27.2691 35.1877 27.2691C35.0893 27.2691 34.9914 27.2531 34.8969 27.2216C34.3444 27.0375 33.7384 26.9441 33.0957 26.9441C30.278 26.9441 27.7964 28.8386 27.0608 31.5511C26.9562 31.9694 26.5742 32.2594 26.131 32.2594C26.0805 32.2594 26.0293 32.2556 25.9787 32.248C25.7403 32.2008 25.5052 32.2008 25.2332 32.2008C22.398 32.2008 20.0914 34.5073 20.0914 37.3425C20.0914 40.1777 22.398 42.4843 25.2332 42.4843H26.4912C27.0343 42.4843 27.4597 42.9097 27.4597 43.4528C27.4597 43.9959 27.0343 44.4214 26.4912 44.4214H25.2332C23.3405 44.4214 21.5624 43.6855 20.2263 42.3494C18.8901 41.0133 18.1543 39.2351 18.1543 37.3425C18.1543 33.4392 21.3097 30.2636 25.1883 30.2636H25.323H25.4277L25.4666 30.1664C26.0753 28.6447 27.1142 27.3523 28.4708 26.4291C29.838 25.4987 31.4373 25.007 33.0957 25.007C33.5784 25.007 34.0679 25.0515 34.5507 25.1392L34.6582 25.1588L34.7125 25.064C36.4493 22.0358 39.6861 20.1546 43.1598 20.1546C48.5495 20.1546 52.9344 24.5395 52.9344 29.9293V30.3785V30.498L53.05 30.5282C56.1299 31.3316 58.2809 34.1338 58.2809 37.3425C58.2809 39.2351 57.5451 41.0133 56.2089 42.3494C54.8728 43.6855 53.0946 44.4214 51.202 44.4214Z" fill="black"/>
<path d="M43.1601 20.3093C39.7417 20.3093 36.5563 22.1607 34.8471 25.141L34.7383 25.3305L34.5234 25.2914C34.0497 25.2053 33.5695 25.1616 33.0961 25.1616C31.4688 25.1616 29.8996 25.6441 28.5582 26.557C27.2271 27.4628 26.2078 28.7308 25.6106 30.2239L25.5328 30.4183H25.1886C21.3954 30.4183 18.3093 33.5245 18.3093 37.3425C18.3093 39.1938 19.0291 40.9332 20.336 42.2401C21.6429 43.547 23.3822 44.2667 25.2335 44.2667H26.4915C26.9479 44.2667 27.3054 43.9092 27.3054 43.4528C27.3054 42.9964 26.9479 42.6389 26.4915 42.6389H25.2335C22.3131 42.6389 19.9371 40.263 19.9371 37.3425C19.9371 34.4221 22.3131 32.0461 25.2335 32.0461C25.5123 32.0461 25.7535 32.0461 26.0054 32.0955C26.0473 32.1017 26.0897 32.1048 26.1314 32.1048C26.5034 32.1048 26.8237 31.8629 26.9103 31.5166L26.9119 31.5107C27.6657 28.7309 30.2088 26.7894 33.0961 26.7894C33.7555 26.7894 34.3779 26.8855 34.9461 27.0749C35.0249 27.1011 35.1063 27.1145 35.1881 27.1145C35.502 27.1145 35.7856 26.9205 35.9107 26.6204L35.9151 26.6103C37.2181 23.7714 40.062 21.9371 43.1601 21.9371C45.2853 21.9371 47.2897 22.7711 48.804 24.2854C50.3183 25.7997 51.1523 27.8041 51.1523 29.9293C51.1523 30.341 51.1079 30.7524 51.06 31.1358L51.0593 31.1412C51.0277 31.3626 51.0875 31.5931 51.2193 31.7578C51.3648 31.9397 51.5691 32.0618 51.7804 32.0934C54.4708 32.3847 56.4988 34.6402 56.4988 37.3425C56.4988 40.263 54.1228 42.6389 51.2024 42.6389H49.9444C49.488 42.6389 49.1305 42.9964 49.1305 43.4528C49.1305 43.9092 49.488 44.2667 49.9444 44.2667H51.2024C53.0537 44.2667 54.793 43.547 56.0999 42.2401C57.4069 40.9331 58.1266 39.1938 58.1266 37.3425C58.1266 34.2042 56.0231 31.4635 53.0113 30.6779L52.7801 30.6175V29.9293C52.7801 24.6248 48.4646 20.3093 43.1601 20.3093ZM43.1601 20C48.6414 20 53.0894 24.4479 53.0894 29.9293C53.0894 30.0641 53.0894 30.2438 53.0894 30.3786C56.1895 31.1873 58.4359 34.0178 58.4359 37.3425C58.4359 41.3412 55.2011 44.5761 51.2024 44.5761H49.9444C49.3154 44.5761 48.8212 44.0818 48.8212 43.4528C48.8212 42.8238 49.3154 42.3296 49.9444 42.3296H51.2024C53.9431 42.3296 56.1895 40.0832 56.1895 37.3425C56.1895 34.7816 54.2575 32.6699 51.7415 32.4004C51.427 32.3554 51.1575 32.1757 50.9778 31.9511C50.798 31.7264 50.7082 31.4119 50.7531 31.0974C50.798 30.738 50.843 30.3336 50.843 29.9293C50.843 25.706 47.3834 22.2464 43.1601 22.2464C40.1948 22.2464 37.4542 23.9987 36.1962 26.7393C35.9715 27.2785 35.3875 27.548 34.8483 27.3683C34.3092 27.1886 33.7251 27.0988 33.0961 27.0988C30.3554 27.0988 27.9293 28.9408 27.2104 31.5916C27.0756 32.1308 26.5365 32.4902 25.9524 32.4004C25.7278 32.3554 25.5031 32.3554 25.2335 32.3554C22.4929 32.3554 20.2464 34.6019 20.2464 37.3425C20.2464 40.0832 22.4929 42.3296 25.2335 42.3296H26.4915C27.1206 42.3296 27.6148 42.8238 27.6148 43.4528C27.6148 44.0818 27.1206 44.5761 26.4915 44.5761H25.2335C21.2349 44.5761 18 41.3412 18 37.3425C18 33.3439 21.2349 30.109 25.1886 30.109C25.2335 30.109 25.2785 30.109 25.3234 30.109C26.5814 26.964 29.6366 24.8523 33.0961 24.8523C33.5903 24.8523 34.0845 24.8972 34.5787 24.9871C36.331 21.9319 39.6108 20 43.1601 20Z" fill="#EEC9FF"/>
</svg>
