<svg width="40" height="34" viewBox="0 0 40 34" fill="none" xmlns="http://www.w3.org/2000/svg">
<path d="M24.2288 33.8239C23.702 33.8239 23.2894 33.4113 23.2894 32.8846V22.8621V22.5L23.0333 22.756L21.6389 24.1505L21.6361 24.1533L21.6335 24.1562C21.4726 24.3349 21.2472 24.4334 20.9987 24.4334C20.7472 24.4334 20.5083 24.3329 20.3259 24.1505L20.3231 24.1477L20.3201 24.1451C20.1479 23.99 20.0496 23.7731 20.0433 23.5342C20.0365 23.2777 20.1395 23.0238 20.3259 22.8375L23.5505 19.6129L23.5533 19.6101L23.5559 19.6071C23.7168 19.4284 23.9422 19.33 24.1906 19.33C24.4421 19.33 24.6811 19.4304 24.8635 19.6128L28.1767 22.8389L28.1788 22.8409L28.181 22.8429C28.3532 22.9979 28.4515 23.2148 28.4578 23.4537C28.4646 23.7102 28.3616 23.9642 28.1753 24.1505C27.9971 24.3286 27.7816 24.4116 27.497 24.4116C27.2123 24.4116 26.9968 24.3286 26.8186 24.1505L25.4242 22.756L25.1681 22.5V22.8621V32.8846C25.1681 33.4113 24.7555 33.8239 24.2288 33.8239Z" fill="#5A5A5A"/>
<path d="M24.1902 19.4799C23.9849 19.4799 23.799 19.5607 23.667 19.7074L23.6561 19.7189L20.4315 22.9435C20.2742 23.1009 20.1872 23.3147 20.1928 23.5303C20.198 23.7276 20.2787 23.9063 20.4201 24.0335L20.4315 24.0444C20.5856 24.1985 20.7869 24.2833 20.9983 24.2833C21.2037 24.2833 21.3895 24.2025 21.5216 24.0558L21.5324 24.0444L23.439 22.1378V32.8845C23.439 33.3272 23.7857 33.6739 24.2284 33.6739C24.671 33.6739 25.0178 33.3272 25.0178 32.8845V22.1378L26.9243 24.0444C27.0745 24.1946 27.251 24.2615 27.4966 24.2615C27.7421 24.2615 27.9186 24.1946 28.0688 24.0444C28.2261 23.887 28.3131 23.6731 28.3075 23.4576C28.3023 23.2603 28.2216 23.0816 28.0802 22.9544L28.0716 22.9463L24.757 19.7189C24.6029 19.5648 24.4016 19.4799 24.1902 19.4799ZM24.1902 19.1799C24.468 19.1799 24.7513 19.2889 24.9692 19.5068L28.2809 22.7314C28.7167 23.1235 28.7167 23.8207 28.2809 24.2565C28.063 24.4744 27.8016 24.5615 27.4966 24.5615C27.1915 24.5615 26.9301 24.4744 26.7122 24.2565L25.3178 22.8621V32.8845C25.3178 33.4946 24.8384 33.9739 24.2284 33.9739C23.6183 33.9739 23.139 33.4946 23.139 32.8845V22.8621L21.7445 24.2565C21.3524 24.6923 20.6551 24.6923 20.2194 24.2565C19.7836 23.8643 19.7836 23.1671 20.2194 22.7314L23.444 19.5068C23.6401 19.2889 23.9124 19.1799 24.1902 19.1799Z" fill="white"/>
<path d="M15.7756 33.8232C15.491 33.8232 15.2755 33.7402 15.0973 33.5621L11.8727 30.3374L11.8699 30.3347L11.867 30.332C11.6948 30.177 11.5964 29.9601 11.5902 29.7212C11.5834 29.4647 11.6864 29.2107 11.8727 29.0244L11.8755 29.0216L11.8782 29.0187C12.039 28.84 12.2644 28.7415 12.5129 28.7415C12.7644 28.7415 13.0033 28.842 13.1858 29.0244L14.5802 30.4188L14.8362 30.6749V30.3128V20.2904C14.8362 19.7636 15.2489 19.351 15.7756 19.351C16.3024 19.351 16.715 19.7636 16.715 20.2904V30.3128V30.6749L16.9711 30.4188L18.3655 29.0244C18.5479 28.842 18.7869 28.7415 19.0384 28.7415C19.2868 28.7415 19.5123 28.84 19.6731 29.0187L19.6784 29.0246L19.6843 29.0298C19.8565 29.1849 19.9548 29.4018 19.9611 29.6407C19.9679 29.8972 19.8649 30.1511 19.6785 30.3375L16.4539 33.5621C16.2758 33.7402 16.0603 33.8232 15.7756 33.8232Z" fill="#5A5A5A"/>
<path d="M15.7752 33.6731C16.0208 33.6731 16.1973 33.6062 16.3475 33.456L19.5721 30.2314C19.7294 30.074 19.8164 29.8601 19.8108 29.6446C19.8056 29.4473 19.7249 29.2685 19.5835 29.1413L19.5612 29.119C19.4292 28.9723 19.2434 28.8915 19.038 28.8915C18.8266 28.8915 18.6253 28.9764 18.4712 29.1305L16.5646 31.037V20.2903C16.5646 19.8477 16.2179 19.5009 15.7752 19.5009C15.3326 19.5009 14.9859 19.8477 14.9859 20.2903V31.037L13.0793 29.1305C12.9252 28.9764 12.7239 28.8915 12.5125 28.8915C12.3071 28.8915 12.1213 28.9723 11.9893 29.119L11.9784 29.1305C11.821 29.2878 11.734 29.5017 11.7397 29.7173C11.7449 29.9146 11.8256 30.0933 11.967 30.2205L11.9784 30.2314L15.203 33.456C15.3532 33.6062 15.5297 33.6731 15.7752 33.6731ZM15.7752 33.9731C15.4702 33.9731 15.2088 33.886 14.9909 33.6681L11.7663 30.4435C11.3305 30.0513 11.3305 29.3541 11.7663 28.9183C12.1585 28.4826 12.8557 28.4826 13.2914 28.9183L14.6859 30.3128V20.2903C14.6859 19.6803 15.1652 19.2009 15.7752 19.2009C16.3853 19.2009 16.8646 19.6803 16.8646 20.2903V30.3128L18.2591 28.9183C18.6948 28.4826 19.392 28.4826 19.7842 28.9183C20.22 29.3105 20.22 30.0077 19.7842 30.4435L16.5596 33.6681C16.3417 33.886 16.0803 33.9731 15.7752 33.9731Z" fill="white"/>
<path d="M32.5955 23.7139H31.3754C30.8486 23.7139 30.436 23.3013 30.436 22.7745C30.436 22.2478 30.8486 21.8351 31.3754 21.8351H32.5955C35.3453 21.8351 37.5824 19.598 37.5824 16.8482C37.5824 14.3032 35.6714 12.179 33.137 11.906C32.8939 11.8706 32.66 11.7319 32.4947 11.5254C32.3415 11.3339 32.2718 11.0674 32.3082 10.8124C32.3544 10.4428 32.3969 10.0493 32.3969 9.65823C32.3969 7.6371 31.6036 5.73076 30.1633 4.29039C28.7229 2.85002 26.8165 2.05677 24.7954 2.05677C21.849 2.05677 19.1443 3.80154 17.9048 6.50178L17.9037 6.5042L17.9027 6.50666C17.758 6.85385 17.4286 7.07819 17.0634 7.07819C16.968 7.07819 16.8731 7.06268 16.7813 7.03211C16.2455 6.85351 15.6578 6.76296 15.0344 6.76296C12.3016 6.76296 9.89469 8.6004 9.18124 11.2313C9.07979 11.6369 8.70928 11.9182 8.27948 11.9182C8.2305 11.9182 8.18083 11.9145 8.13179 11.9071C7.90055 11.8613 7.6725 11.8613 7.40867 11.8613C4.65888 11.8613 2.42176 14.0984 2.42176 16.8482C2.42176 19.598 4.65888 21.8351 7.40867 21.8351H8.6288C9.15556 21.8351 9.56819 22.2478 9.56819 22.7745C9.56819 23.3013 9.15556 23.7139 8.6288 23.7139H7.40867C5.57304 23.7139 3.84844 23.0003 2.55255 21.7044C1.25665 20.4085 0.542969 18.6839 0.542969 16.8482C0.542969 13.0625 3.60336 9.98253 7.3651 9.98253H7.49583H7.59738L7.6351 9.88824C8.22547 8.41231 9.23302 7.15889 10.5488 6.26349C11.8749 5.36113 13.426 4.88416 15.0344 4.88416C15.5025 4.88416 15.9773 4.92733 16.4456 5.01247L16.5498 5.03142L16.6026 4.93952C18.287 2.00249 21.4263 0.177979 24.7954 0.177979C30.0228 0.177979 34.2757 4.4308 34.2757 9.65823V10.094V10.2099L34.3878 10.2391C37.3749 11.0184 39.4612 13.7361 39.4612 16.8482C39.4612 18.6839 38.7475 20.4085 37.4516 21.7044C36.1557 23.0003 34.4311 23.7139 32.5955 23.7139Z" fill="#5A5A5A"/>
<path d="M24.795 0.327953C21.4796 0.327953 18.3901 2.12358 16.7323 5.01411L16.6269 5.19794L16.4184 5.16002C15.9589 5.07649 15.4932 5.03413 15.034 5.03413C13.4558 5.03413 11.9339 5.50211 10.6328 6.38747C9.34179 7.26601 8.35323 8.49581 7.77398 9.94392L7.69855 10.1325H7.36471C3.68569 10.1325 0.692577 13.1452 0.692577 16.8482C0.692577 18.6438 1.39066 20.3307 2.65822 21.5983C3.92578 22.8658 5.61272 23.5639 7.40828 23.5639H8.6284C9.07105 23.5639 9.4178 23.2172 9.4178 22.7745C9.4178 22.3319 9.07105 21.9851 8.6284 21.9851H7.40828C4.57578 21.9851 2.27137 19.6807 2.27137 16.8482C2.27137 14.0157 4.57578 11.7113 7.40828 11.7113C7.6787 11.7113 7.91261 11.7113 8.15693 11.7592C8.19757 11.7652 8.23863 11.7682 8.27909 11.7682C8.63993 11.7682 8.9506 11.5336 9.03458 11.1977L9.03608 11.192C9.76721 8.49591 12.2337 6.61293 15.034 6.61293C15.6736 6.61293 16.2773 6.70607 16.8284 6.88977C16.9048 6.91525 16.9837 6.92816 17.063 6.92816C17.3675 6.92816 17.6426 6.74006 17.7639 6.44894L17.7681 6.43917C19.032 3.68582 21.7902 1.90675 24.795 1.90675C26.8562 1.90675 28.8002 2.7156 30.2689 4.18429C31.7376 5.653 32.5465 7.597 32.5465 9.65821C32.5465 10.0575 32.5035 10.4566 32.457 10.8284L32.4563 10.8336C32.4256 11.0483 32.4837 11.2719 32.6115 11.4317C32.7526 11.6081 32.9507 11.7265 33.1557 11.7572C35.7651 12.0397 37.732 14.2273 37.732 16.8482C37.732 19.6807 35.4276 21.9851 32.5951 21.9851H31.375C30.9323 21.9851 30.5856 22.3319 30.5856 22.7745C30.5856 23.2172 30.9323 23.5639 31.375 23.5639H32.5951C34.3907 23.5639 36.0776 22.8658 37.3452 21.5983C38.6127 20.3307 39.3108 18.6438 39.3108 16.8482C39.3108 13.8044 37.2707 11.1463 34.3495 10.3843L34.1253 10.3257V9.65821C34.1253 4.51348 29.9397 0.327953 24.795 0.327953ZM24.795 0.0279541C30.1113 0.0279541 34.4253 4.34196 34.4253 9.65821C34.4253 9.78893 34.4253 9.96323 34.4253 10.094C37.432 10.8783 39.6108 13.6236 39.6108 16.8482C39.6108 20.7265 36.4733 23.8639 32.5951 23.8639H31.375C30.7649 23.8639 30.2856 23.3846 30.2856 22.7745C30.2856 22.1645 30.7649 21.6851 31.375 21.6851H32.5951C35.2532 21.6851 37.432 19.5063 37.432 16.8482C37.432 14.3644 35.5582 12.3163 33.118 12.0549C32.813 12.0113 32.5515 11.837 32.3772 11.6191C32.2029 11.4012 32.1158 11.0962 32.1593 10.7912C32.2029 10.4426 32.2465 10.0504 32.2465 9.65821C32.2465 5.56208 28.8911 2.20675 24.795 2.20675C21.919 2.20675 19.2609 3.90619 18.0408 6.56432C17.8229 7.08724 17.2564 7.34868 16.7335 7.17439C16.2106 7.00008 15.6441 6.91293 15.034 6.91293C12.3759 6.91293 10.0228 8.69953 9.32562 11.2705C9.19489 11.7934 8.67197 12.142 8.1055 12.0549C7.88762 12.0113 7.66974 12.0113 7.40828 12.0113C4.75016 12.0113 2.57137 14.1901 2.57137 16.8482C2.57137 19.5063 4.75016 21.6851 7.40828 21.6851H8.6284C9.23847 21.6851 9.7178 22.1645 9.7178 22.7745C9.7178 23.3846 9.23847 23.8639 8.6284 23.8639H7.40828C3.53003 23.8639 0.392578 20.7265 0.392578 16.8482C0.392578 12.97 3.53003 9.8325 7.36471 9.8325C7.40828 9.8325 7.45186 9.8325 7.49544 9.8325C8.71556 6.7822 11.6787 4.73413 15.034 4.73413C15.5134 4.73413 15.9927 4.77771 16.472 4.86486C18.1715 1.90171 21.3525 0.0279541 24.795 0.0279541Z" fill="white"/>
</svg>
