<svg width="30" height="30" viewBox="0 0 30 30" fill="none" xmlns="http://www.w3.org/2000/svg">
<path d="M16.6029 17.2959L13.3789 23.9349" stroke="#5A5A5A" stroke-miterlimit="10" stroke-linecap="round" stroke-linejoin="round"/>
<mask id="mask0_765_4056" style="mask-type:luminance" maskUnits="userSpaceOnUse" x="0" y="0" width="30" height="30">
<path d="M0 0H30V30H0V0Z" fill="white"/>
</mask>
<g mask="url(#mask0_765_4056)">
<path d="M13.0521 16.854C12.9324 16.7343 12.7903 16.6394 12.6339 16.5746C12.4775 16.5098 12.3099 16.4764 12.1406 16.4764C11.9714 16.4764 11.8037 16.5098 11.6473 16.5746C11.4909 16.6394 11.3488 16.7343 11.2291 16.854C11.1094 16.9737 11.0145 17.1158 10.9497 17.2722C10.8849 17.4286 10.8516 17.5962 10.8516 17.7655C10.8516 17.9348 10.8849 18.1024 10.9497 18.2588C11.0145 18.4152 11.1094 18.5573 11.2291 18.677C11.3488 18.7967 11.4909 18.8917 11.6473 18.9565C11.8037 19.0213 11.9714 19.0546 12.1406 19.0546C12.3099 19.0546 12.4775 19.0213 12.6339 18.9565C12.7903 18.8917 12.9324 18.7967 13.0521 18.677C13.1718 18.5573 13.2668 18.4152 13.3316 18.2588C13.3964 18.1024 13.4297 17.9348 13.4297 17.7655C13.4297 17.5962 13.3964 17.4286 13.3316 17.2722C13.2668 17.1158 13.1718 16.9737 13.0521 16.854Z" stroke="#5A5A5A" stroke-miterlimit="10" stroke-linecap="round" stroke-linejoin="round"/>
<path d="M18.7709 22.573C18.6512 22.4533 18.5091 22.3583 18.3527 22.2936C18.1963 22.2288 18.0287 22.1954 17.8594 22.1954C17.6901 22.1954 17.5225 22.2288 17.3661 22.2936C17.2097 22.3583 17.0676 22.4533 16.9479 22.573C16.8282 22.6927 16.7332 22.8348 16.6684 22.9912C16.6037 23.1476 16.5703 23.3152 16.5703 23.4845C16.5703 23.6538 16.6037 23.8214 16.6684 23.9778C16.7332 24.1342 16.8282 24.2763 16.9479 24.396C17.0676 24.5157 17.2097 24.6107 17.3661 24.6755C17.5225 24.7402 17.6901 24.7736 17.8594 24.7736C18.0287 24.7736 18.1963 24.7402 18.3527 24.6755C18.5091 24.6107 18.6512 24.5157 18.7709 24.396C18.8906 24.2763 18.9856 24.1342 19.0503 23.9778C19.1151 23.8214 19.1485 23.6538 19.1485 23.4845C19.1485 23.3152 19.1151 23.1476 19.0503 22.9912C18.9856 22.8348 18.8906 22.6927 18.7709 22.573Z" stroke="#5A5A5A" stroke-miterlimit="10" stroke-linecap="round" stroke-linejoin="round"/>
<path d="M25.1354 11.8351H3.15244C3.01525 11.8352 2.87937 11.8083 2.75259 11.7559C2.62581 11.7035 2.51059 11.6266 2.41354 11.5297C2.31649 11.4327 2.23951 11.3176 2.18698 11.1908C2.13445 11.0641 2.10742 10.9283 2.10742 10.7911V6.7851C2.10742 6.50821 2.21742 6.24266 2.41321 6.04688C2.609 5.85109 2.87454 5.74109 3.15143 5.74109H26.8444C27.1213 5.74109 27.3869 5.85109 27.5826 6.04688C27.7784 6.24266 27.8884 6.50821 27.8884 6.7851V10.7911C27.8884 10.9282 27.8614 11.0639 27.809 11.1906C27.7565 11.3173 27.6796 11.4324 27.5826 11.5293C27.4857 11.6263 27.3706 11.7032 27.244 11.7556C27.1173 11.8081 26.9815 11.8351 26.8444 11.8351H25.1344" stroke="#5A5A5A" stroke-miterlimit="10" stroke-linecap="round" stroke-linejoin="round"/>
<path d="M17.5779 11.8411H12.4219V5.74109H17.5779V11.8411Z" stroke="#5A5A5A" stroke-miterlimit="10" stroke-linecap="round" stroke-linejoin="round"/>
<path d="M26.7182 11.8361V28.2421C26.7182 28.396 26.6879 28.5484 26.629 28.6906C26.5701 28.8328 26.4838 28.962 26.3749 29.0708C26.2661 29.1796 26.1369 29.2659 25.9947 29.3248C25.8525 29.3837 25.7001 29.4141 25.5462 29.4141H4.45325C4.29934 29.4141 4.14689 29.3837 4.0047 29.3248C3.86251 29.2659 3.73334 29.1796 3.62451 29.0708C3.51568 28.962 3.42932 28.8328 3.37042 28.6906C3.31152 28.5484 3.28125 28.396 3.28125 28.2421V11.8361" stroke="#5A5A5A" stroke-miterlimit="10" stroke-linecap="round" stroke-linejoin="round"/>
<path d="M19.414 0.58606C18.9478 0.586084 18.49 0.710571 18.088 0.946664C17.6859 1.18276 17.3542 1.5219 17.127 1.92906L14.998 5.74306H19.414C19.6708 5.74306 19.925 5.69241 20.1622 5.594C20.3994 5.49559 20.6148 5.35136 20.7961 5.16957C20.9774 4.98778 21.1211 4.772 21.2189 4.53459C21.3167 4.29719 21.3667 4.04282 21.3661 3.78606V2.53806C21.3661 2.02036 21.1604 1.52386 20.7943 1.15779C20.4282 0.791716 19.9317 0.58606 19.414 0.58606Z" stroke="#5A5A5A" stroke-miterlimit="10" stroke-linecap="round" stroke-linejoin="round"/>
<path d="M10.5839 0.58606C11.0501 0.586084 11.5079 0.710571 11.9099 0.946665C12.312 1.18276 12.6437 1.5219 12.8709 1.92906L14.9999 5.74306H10.5839C10.327 5.74319 10.0727 5.69263 9.83541 5.59428C9.59814 5.49593 9.38261 5.35172 9.20118 5.16992C9.01975 4.98812 8.87598 4.77229 8.77811 4.53482C8.68025 4.29735 8.63021 4.0429 8.63087 3.78606V2.53806C8.63087 2.28164 8.68139 2.02772 8.77955 1.79083C8.87771 1.55394 9.02158 1.33871 9.20295 1.15743C9.38431 0.976161 9.59962 0.832398 9.83656 0.73436C10.0735 0.636321 10.3274 0.585928 10.5839 0.58606Z" stroke="#5A5A5A" stroke-miterlimit="10" stroke-linecap="round" stroke-linejoin="round"/>
</g>
</svg>
