<svg width="75" height="75" viewBox="0 0 75 75" fill="none" xmlns="http://www.w3.org/2000/svg">
<g clip-path="url(#clip0_768_4767)">
<path d="M37.5 75C58.2107 75 75 58.2107 75 37.5C75 16.7893 58.2107 0 37.5 0C16.7893 0 0 16.7893 0 37.5C0 58.2107 16.7893 75 37.5 75Z" fill="#FFBA00"/>
<path d="M53.3639 30.8692L52.5429 28.5472L52.6549 27.9142C52.7381 27.4426 52.7064 26.9579 52.5627 26.5012C52.4189 26.0444 52.1672 25.629 51.8289 25.2902L50.0009 23.4692L52.2339 21.2362C52.33 21.1324 52.3821 20.9954 52.3794 20.854C52.3766 20.7126 52.3193 20.5778 52.2193 20.4778C52.1193 20.3778 51.9844 20.3204 51.843 20.3177C51.7016 20.3149 51.5647 20.3671 51.4609 20.4632L49.2279 22.6952L47.4059 20.8692C47.0672 20.531 46.6518 20.2797 46.1952 20.1364C45.7385 19.9931 45.2541 19.9622 44.7829 20.0462L39.7499 20.9342C39.1479 21.0395 38.5933 21.3283 38.1619 21.7612L23.8729 36.0502C23.5962 36.3266 23.3766 36.6549 23.2269 37.0163C23.0771 37.3777 23 37.765 23 38.1562C23 38.5473 23.0771 38.9347 23.2269 39.296C23.3766 39.6574 23.5962 39.9857 23.8729 40.2622L30.3069 46.6962L29.9999 47.8062C29.8929 48.1921 29.8631 48.5952 29.9121 48.9927C29.9611 49.3901 30.0879 49.774 30.2854 50.1223C30.4828 50.4707 30.747 50.7767 31.0628 51.0229C31.3786 51.2691 31.7399 51.4507 32.1259 51.5572L44.1369 54.8782C44.9162 55.0925 45.7487 54.989 46.4518 54.5905C47.155 54.192 47.6714 53.5309 47.8879 52.7522L53.4289 32.7072C53.5982 32.1026 53.5755 31.4603 53.3639 30.8692ZM24.6429 36.8232L38.9349 22.5342C39.2087 22.2598 39.5609 22.0771 39.9429 22.0112L44.9759 21.1232C45.2742 21.0705 45.5809 21.0906 45.8699 21.1816C46.1588 21.2727 46.4216 21.432 46.6359 21.6462L48.4549 23.4692L46.8639 25.0592C46.5338 24.8983 46.1624 24.8423 45.7995 24.8986C45.4367 24.9549 45.0997 25.1209 44.8339 25.3742C44.6031 25.6027 44.4401 25.8907 44.3629 26.2062C44.2856 26.5217 44.2973 26.8525 44.3964 27.1618C44.4955 27.4711 44.6783 27.747 44.9246 27.9588C45.1708 28.1706 45.4708 28.3102 45.7915 28.3621C46.1122 28.4139 46.4409 28.376 46.7413 28.2525C47.0418 28.1291 47.3022 27.9249 47.4938 27.6626C47.6853 27.4003 47.8006 27.09 47.8267 26.7663C47.8528 26.4425 47.7889 26.1178 47.6419 25.8282L49.2289 24.2412L51.0509 26.0632C51.2651 26.2777 51.4244 26.5406 51.5154 26.8297C51.6065 27.1189 51.6265 27.4257 51.5739 27.7242L50.6869 32.7562C50.6198 33.1374 50.4369 33.4887 50.1629 33.7622L35.8739 48.0512C35.5148 48.3941 35.0374 48.5855 34.5409 48.5855C34.0444 48.5855 33.567 48.3941 33.2079 48.0512L24.6429 39.4892C24.4677 39.3142 24.3287 39.1064 24.2339 38.8777C24.1391 38.6489 24.0903 38.4038 24.0903 38.1562C24.0903 37.9086 24.1391 37.6634 24.2339 37.4347C24.3287 37.2059 24.4677 36.9981 24.6429 36.8232ZM46.5429 26.1472C46.6362 26.2404 46.6998 26.3593 46.7255 26.4887C46.7513 26.6181 46.7381 26.7522 46.6877 26.8741C46.6372 26.996 46.5517 27.1002 46.442 27.1735C46.3323 27.2468 46.2033 27.2859 46.0714 27.2859C45.9395 27.2859 45.8105 27.2468 45.7008 27.1735C45.5911 27.1002 45.5056 26.996 45.4551 26.8741C45.4046 26.7522 45.3915 26.6181 45.4172 26.4887C45.443 26.3593 45.5066 26.2404 45.5999 26.1472C45.662 26.0843 45.736 26.0345 45.8175 26.0004C45.8991 25.9664 45.9865 25.9488 46.0749 25.9488C46.1632 25.9488 46.2507 25.9664 46.3323 26.0004C46.4138 26.0345 46.4878 26.0843 46.5499 26.1472H46.5429ZM52.3689 32.4142L46.8349 52.4592C46.6957 52.9585 46.3644 53.3823 45.9135 53.6379C45.4626 53.8935 44.9288 53.9601 44.4289 53.8232L32.4179 50.5022C32.1702 50.4339 31.9384 50.3176 31.7358 50.1597C31.5332 50.0018 31.3637 49.8055 31.237 49.582C31.1103 49.3585 31.0289 49.1123 30.9975 48.8573C30.9661 48.6024 30.9852 48.3437 31.0539 48.0962L31.1959 47.5842L32.4359 48.8242C32.7123 49.101 33.0406 49.3206 33.4019 49.4705C33.7633 49.6203 34.1507 49.6975 34.5419 49.6975C34.9331 49.6975 35.3205 49.6203 35.6818 49.4705C36.0432 49.3206 36.3715 49.101 36.6479 48.8242L50.9359 34.5352C51.3686 34.1037 51.6574 33.5491 51.7629 32.9472L52.1539 30.7312L52.3339 31.2392C52.469 31.6171 52.4836 32.0276 52.3759 32.4142H52.3689Z" fill="#0C0C0C" stroke="black" stroke-width="0.3"/>
<path d="M41.8975 36.0112C41.8975 35.8661 41.8399 35.7269 41.7373 35.6244C41.6347 35.5218 41.4956 35.4642 41.3505 35.4642H32.0235C31.9498 35.461 31.8762 35.4728 31.8071 35.4988C31.7381 35.5249 31.675 35.5646 31.6217 35.6157C31.5684 35.6667 31.526 35.728 31.497 35.7959C31.4681 35.8638 31.4531 35.9368 31.4531 36.0106C31.4531 36.0844 31.4681 36.1575 31.497 36.2254C31.526 36.2932 31.5684 36.3546 31.6217 36.4056C31.675 36.4567 31.7381 36.4964 31.8071 36.5225C31.8762 36.5485 31.9498 36.5603 32.0235 36.5571H41.3505C41.4954 36.5571 41.6344 36.4997 41.7369 36.3973C41.8395 36.2949 41.8972 36.1561 41.8975 36.0112Z" fill="#0C0C0C" stroke="black" stroke-width="0.3"/>
<path d="M34.8318 37.9432C34.6072 38.1678 34.4542 38.4539 34.3922 38.7655C34.3302 39.077 34.362 39.3999 34.4835 39.6934C34.6051 39.9869 34.8109 40.2377 35.0751 40.4142C35.3392 40.5907 35.6497 40.6849 35.9673 40.6849C36.285 40.6849 36.5955 40.5907 36.8596 40.4142C37.1237 40.2377 37.3296 39.9869 37.4511 39.6934C37.5727 39.3999 37.6044 39.077 37.5424 38.7655C37.4805 38.4539 37.3275 38.1678 37.1028 37.9432C36.7974 37.6501 36.3906 37.4865 35.9673 37.4865C35.5441 37.4865 35.1372 37.6501 34.8318 37.9432ZM36.3318 39.4432C36.2338 39.5357 36.1041 39.5873 35.9693 39.5873C35.8345 39.5873 35.7048 39.5357 35.6068 39.4432C35.535 39.3714 35.4861 39.28 35.4662 39.1805C35.4464 39.081 35.4565 38.9778 35.4953 38.884C35.5341 38.7902 35.5999 38.7101 35.6842 38.6537C35.7686 38.5973 35.8678 38.5672 35.9693 38.5672C36.0708 38.5672 36.17 38.5973 36.2544 38.6537C36.3388 38.7101 36.4046 38.7902 36.4434 38.884C36.4822 38.9778 36.4923 39.081 36.4724 39.1805C36.4526 39.28 36.4036 39.3714 36.3318 39.4432Z" fill="#0C0C0C" stroke="black" stroke-width="0.3"/>
<path d="M38.5447 34.0752C38.7692 33.8505 38.9221 33.5644 38.984 33.2529C39.0458 32.9413 39.014 32.6185 38.8924 32.3251C38.7708 32.0317 38.565 31.781 38.3009 31.6045C38.0368 31.4281 37.7263 31.334 37.4087 31.334C37.0911 31.334 36.7807 31.4281 36.5166 31.6045C36.2525 31.781 36.0467 32.0317 35.9251 32.3251C35.8035 32.6185 35.7716 32.9413 35.8335 33.2529C35.8954 33.5644 36.0482 33.8505 36.2727 34.0752C36.5743 34.3759 36.9829 34.5447 37.4087 34.5447C37.8346 34.5447 38.2431 34.3759 38.5447 34.0752ZM37.0447 32.5752C37.092 32.527 37.1484 32.4887 37.2107 32.4626C37.2729 32.4365 37.3397 32.4231 37.4072 32.4231C37.4747 32.4231 37.5416 32.4365 37.6038 32.4626C37.666 32.4887 37.7225 32.527 37.7697 32.5752C37.8656 32.6715 37.9193 32.8018 37.9193 32.9377C37.9193 33.0735 37.8656 33.2039 37.7697 33.3002C37.6715 33.3923 37.5419 33.4435 37.4072 33.4435C37.2726 33.4435 37.143 33.3923 37.0447 33.3002C36.9491 33.2037 36.8955 33.0733 36.8956 32.9375C36.8958 32.8016 36.9488 32.6714 37.0447 32.5752Z" fill="#0C0C0C" stroke="black" stroke-width="0.3"/>
</g>
<defs>
<clipPath id="clip0_768_4767">
<rect width="75" height="75" fill="white"/>
</clipPath>
</defs>
</svg>
