<svg width="32" height="28" viewBox="0 0 32 28" fill="none" xmlns="http://www.w3.org/2000/svg">
<path d="M28.5 4.14786H28.238V2.61186C28.239 2.44921 28.1921 2.28986 28.1032 2.15365C28.0143 2.01745 27.8873 1.91041 27.738 1.84586C25.887 1.04372 23.8947 0.618722 21.8775 0.595714C19.8603 0.572705 17.8588 0.952151 15.99 1.71186C14.1218 0.952543 12.1211 0.573218 10.1046 0.596054C8.08817 0.618891 6.09649 1.04343 4.24601 1.84486C4.09655 1.90919 3.96939 2.01618 3.88046 2.15243C3.79152 2.28869 3.74475 2.44815 3.74601 2.61086V4.14786H3.50001C3.17128 4.14786 2.84578 4.21269 2.54214 4.33864C2.2385 4.46459 1.96268 4.64918 1.73047 4.88186C1.49826 5.11453 1.31421 5.39072 1.18887 5.69461C1.06353 5.9985 0.999348 6.32413 1.00001 6.65286V24.9039C1.00001 25.5669 1.2634 26.2028 1.73224 26.6716C2.20108 27.1405 2.83696 27.4039 3.50001 27.4039H28.5C29.163 27.4039 29.7989 27.1405 30.2678 26.6716C30.7366 26.2028 31 25.5669 31 24.9039V6.65286C31.0007 6.32413 30.9365 5.9985 30.8111 5.69461C30.6858 5.39072 30.5018 5.11453 30.2695 4.88186C30.0373 4.64918 29.7615 4.46459 29.4579 4.33864C29.1542 4.21269 28.8287 4.14786 28.5 4.14786ZM3.50001 25.7339C3.39031 25.734 3.28167 25.7125 3.18031 25.6706C3.07894 25.6286 2.98684 25.5671 2.90928 25.4896C2.83171 25.412 2.77021 25.3199 2.7283 25.2186C2.68638 25.1172 2.66487 25.0085 2.665 24.8989V6.65286C2.66487 6.54317 2.68638 6.43453 2.7283 6.33316C2.77021 6.23179 2.83171 6.13969 2.90928 6.06213C2.98684 5.98457 3.07894 5.92307 3.18031 5.88115C3.28167 5.83923 3.39031 5.81773 3.50001 5.81786H3.76201V24.0539C3.76295 24.1914 3.79775 24.3265 3.86334 24.4474C3.92892 24.5682 4.02327 24.671 4.13804 24.7468C4.25281 24.8225 4.38447 24.8688 4.52138 24.8815C4.65829 24.8943 4.79623 24.8731 4.92301 24.8199C5.96707 24.393 7.08612 24.1798 8.214 24.1929C10.165 24.1907 12.0792 24.7241 13.748 25.7349L3.50001 25.7339ZM15.165 24.6719C13.1225 23.2603 10.6958 22.5102 8.213 22.5229C7.27212 22.5194 6.33494 22.6407 5.426 22.8839V3.17486C8.56057 1.96275 12.0344 1.96275 15.169 3.17486V24.6749L15.165 24.6719ZM16.835 3.17186C19.9696 1.95975 23.4434 1.95975 26.578 3.17186V22.8829C25.6691 22.6397 24.7319 22.5184 23.791 22.5219C21.3081 22.5085 18.8812 23.2587 16.839 24.6709V3.17486L16.835 3.17186ZM29.335 24.9009C29.3351 25.0105 29.3136 25.1192 29.2717 25.2206C29.2298 25.3219 29.1683 25.414 29.0907 25.4916C29.0132 25.5691 28.9211 25.6306 28.8197 25.6726C28.7183 25.7145 28.6097 25.736 28.5 25.7359H18.248C19.9171 24.7257 21.8311 24.1924 23.782 24.1939C24.9101 24.1784 26.0296 24.3916 27.073 24.8209C27.1997 24.8762 27.3382 24.899 27.4759 24.8872C27.6136 24.8754 27.7462 24.8293 27.8616 24.7532C27.9769 24.6771 28.0715 24.5733 28.1365 24.4514C28.2016 24.3294 28.2351 24.1931 28.234 24.0549V5.81286H28.5C28.6097 5.81273 28.7183 5.83423 28.8197 5.87615C28.9211 5.91807 29.0132 5.97957 29.0907 6.05713C29.1683 6.13469 29.2298 6.22679 29.2717 6.32816C29.3136 6.42953 29.3351 6.53817 29.335 6.64786V24.9039V24.9009Z" fill="black" stroke="#EEF9FF"/>
<path d="M8.00834 6.20497C7.85485 6.24995 7.72455 6.35224 7.6444 6.49065C7.56426 6.62906 7.54042 6.79299 7.57782 6.9485C7.61522 7.104 7.71099 7.23917 7.8453 7.326C7.97962 7.41284 8.14219 7.44469 8.29934 7.41497C9.62201 7.1025 10.9977 7.08883 12.3263 7.37497C12.4798 7.39339 12.6346 7.35364 12.7602 7.26356C12.8858 7.17348 12.9731 7.03962 13.0048 6.88836C13.0366 6.7371 13.0105 6.57943 12.9317 6.44645C12.853 6.31346 12.7272 6.21482 12.5793 6.16997C11.0722 5.84014 9.51027 5.8521 8.00834 6.20497Z" fill="black" stroke="#EEF9FF"/>
<path d="M12.5986 10.109C11.1088 9.71193 9.54924 9.65248 8.03359 9.93502C7.95249 9.94919 7.87502 9.97935 7.80569 10.0237C7.73636 10.0681 7.67654 10.1259 7.62972 10.1936C7.5829 10.2613 7.55002 10.3377 7.53298 10.4182C7.51594 10.4987 7.51508 10.5819 7.53046 10.6628C7.54584 10.7436 7.57715 10.8206 7.62257 10.8893C7.66798 10.958 7.7266 11.0169 7.795 11.0627C7.86341 11.1085 7.94024 11.1403 8.02103 11.1561C8.10182 11.172 8.18495 11.1716 8.26559 11.155C9.60112 10.9079 10.9749 10.9605 12.2876 11.309C12.4452 11.3459 12.611 11.3196 12.7495 11.2359C12.888 11.1521 12.9883 11.0175 13.0289 10.8608C13.0695 10.7041 13.0472 10.5378 12.9668 10.3973C12.8864 10.2568 12.7543 10.1534 12.5986 10.109Z" fill="black" stroke="#EEF9FF"/>
<path d="M8.23971 14.905C9.58538 14.7167 10.9561 14.8315 12.2517 15.241C12.407 15.2854 12.5734 15.2673 12.7155 15.1907C12.8576 15.1141 12.9642 14.9849 13.0124 14.8309C13.0607 14.6768 13.0469 14.51 12.9739 14.366C12.9009 14.2219 12.7745 14.1122 12.6217 14.06C11.1501 13.5979 9.59404 13.4698 8.06671 13.685C7.98661 13.6964 7.90952 13.7234 7.83986 13.7645C7.7702 13.8057 7.70932 13.8602 7.66071 13.9248C7.6121 13.9895 7.5767 14.0631 7.55654 14.1415C7.53638 14.2198 7.53185 14.3014 7.54321 14.3815C7.55457 14.4616 7.5816 14.5387 7.62275 14.6084C7.6639 14.678 7.71837 14.7389 7.78304 14.7875C7.84772 14.8361 7.92133 14.8715 7.99969 14.8917C8.07805 14.9118 8.15961 14.9164 8.23971 14.905Z" fill="black" stroke="#EEF9FF"/>
<path d="M12.6168 17.91C11.1396 17.4653 9.58179 17.3556 8.05682 17.589C7.89863 17.6186 7.75813 17.7085 7.66504 17.8398C7.57194 17.9711 7.53355 18.1334 7.55796 18.2925C7.58237 18.4515 7.66768 18.5949 7.79586 18.6922C7.92404 18.7895 8.08504 18.8332 8.24482 18.814C9.58811 18.6075 10.9606 18.7039 12.2618 19.096C12.4191 19.1432 12.5887 19.126 12.7333 19.0482C12.8779 18.9703 12.9856 18.8383 13.0328 18.681C13.08 18.5237 13.0628 18.3541 12.985 18.2095C12.9072 18.0649 12.7741 17.9572 12.6168 17.91Z" fill="black" stroke="#EEF9FF"/>
<path d="M19.6823 7.37599C21.0112 7.09236 22.3863 7.10602 23.7093 7.41599C23.7903 7.43973 23.8752 7.44676 23.959 7.43667C24.0428 7.42658 24.1237 7.39957 24.1967 7.35728C24.2697 7.315 24.3334 7.25832 24.3838 7.19068C24.4343 7.12304 24.4705 7.04586 24.4902 6.96381C24.51 6.88177 24.5128 6.79657 24.4986 6.71338C24.4844 6.6302 24.4535 6.55076 24.4077 6.4799C24.3619 6.40903 24.3021 6.34821 24.2321 6.30113C24.1621 6.25404 24.0832 6.22168 24.0003 6.20599C22.4982 5.85008 20.9358 5.833 19.4263 6.15599C19.2673 6.19215 19.1288 6.28922 19.0405 6.42637C18.9523 6.56352 18.9213 6.7298 18.9543 6.88952C18.9873 7.04923 19.0816 7.18964 19.217 7.2806C19.3523 7.37156 19.518 7.40581 19.6783 7.37599H19.6823Z" fill="black" stroke="#EEF9FF"/>
<path d="M19.7173 11.309C21.0293 10.9568 22.4036 10.9028 23.7393 11.151C23.8199 11.1676 23.9031 11.168 23.9838 11.1521C24.0646 11.1363 24.1415 11.1045 24.2099 11.0587C24.2783 11.0129 24.3369 10.954 24.3823 10.8853C24.4277 10.8166 24.459 10.7396 24.4744 10.6587C24.4898 10.5779 24.4889 10.4947 24.4719 10.4142C24.4548 10.3336 24.422 10.2573 24.3751 10.1896C24.3283 10.1219 24.2685 10.0641 24.1992 10.0197C24.1298 9.97534 24.0524 9.94518 23.9713 9.931C22.4552 9.65229 20.8961 9.71308 19.4063 10.109C19.3274 10.1294 19.2533 10.1651 19.1882 10.2142C19.1232 10.2632 19.0684 10.3246 19.0271 10.3948C18.9858 10.465 18.9587 10.5427 18.9474 10.6233C18.9361 10.704 18.9408 10.7861 18.9613 10.865C18.9808 10.9444 19.016 11.019 19.0649 11.0845C19.1137 11.15 19.1752 11.2051 19.2456 11.2465C19.3161 11.2879 19.3941 11.3147 19.4751 11.3255C19.5561 11.3362 19.6385 11.3306 19.7173 11.309Z" fill="black" stroke="#EEF9FF"/>
<path d="M23.9373 13.68C22.41 13.4648 20.8539 13.5929 19.3823 14.055C19.3038 14.0785 19.2308 14.1175 19.1675 14.1695C19.1042 14.2215 19.0518 14.2856 19.0135 14.358C18.9751 14.4304 18.9515 14.5097 18.944 14.5913C18.9365 14.6729 18.9453 14.7551 18.9699 14.8333C18.9944 14.9115 19.0343 14.984 19.0871 15.0467C19.1399 15.1093 19.2046 15.1609 19.2775 15.1984C19.3503 15.2358 19.4299 15.2584 19.5116 15.2649C19.5933 15.2713 19.6755 15.2615 19.7533 15.236C21.0489 14.8264 22.4197 14.7116 23.7653 14.9C23.9276 14.9228 24.0923 14.8806 24.2234 14.7824C24.3546 14.6842 24.4416 14.5381 24.4653 14.376C24.4774 14.2955 24.4733 14.2133 24.4531 14.1345C24.433 14.0556 24.3973 13.9815 24.3481 13.9166C24.2989 13.8518 24.2372 13.7974 24.1666 13.7568C24.0961 13.7161 24.0181 13.69 23.9373 13.68Z" fill="black" stroke="#EEF9FF"/>
<path d="M24.4671 18.3C24.4799 18.2195 24.4765 18.1373 24.4573 18.0581C24.438 17.9789 24.4033 17.9043 24.355 17.8386C24.3067 17.773 24.2459 17.7175 24.1761 17.6755C24.1062 17.6336 24.0287 17.6058 23.9481 17.594C22.4232 17.3583 20.8649 17.468 19.3881 17.915C19.2353 17.9646 19.1078 18.0718 19.0326 18.2139C18.9575 18.3559 18.9407 18.5216 18.9857 18.6759C19.0307 18.8301 19.134 18.9608 19.2737 19.0402C19.4134 19.1195 19.5785 19.1414 19.7341 19.101C21.0353 18.7087 22.4078 18.6124 23.7511 18.819C23.8322 18.832 23.915 18.8289 23.9949 18.8098C24.0748 18.7907 24.1501 18.7561 24.2166 18.7079C24.2831 18.6597 24.3395 18.5989 24.3825 18.5289C24.4254 18.4589 24.4542 18.3811 24.4671 18.3Z" fill="black" stroke="#EEF9FF"/>
</svg>
