<svg width="34" height="32" viewBox="0 0 34 32" fill="none" xmlns="http://www.w3.org/2000/svg">
<path d="M31.6362 1.30121H2.36421C1.97403 1.34634 1.61707 1.54256 1.36986 1.84779C1.12266 2.15303 1.00489 2.54297 1.04181 2.93401V25.798C1.04181 28.5012 2.82181 30.698 5.00901 30.698H28.9906C31.1786 30.698 32.9578 28.5004 32.9578 25.7988V2.93401C32.9947 2.54309 32.8771 2.15326 32.63 1.84805C32.383 1.54284 32.0262 1.34654 31.6362 1.30121Z" stroke="#161717" stroke-width="1.5" stroke-linecap="round"/>
<path d="M21.9012 3.75594C22.3936 3.75476 22.8672 3.94494 23.222 4.28634C23.3996 4.45708 23.5407 4.66198 23.6369 4.88869C23.7331 5.1154 23.7825 5.35925 23.782 5.60554V6.55034C23.7804 7.42162 23.6023 8.28354 23.2586 9.08415C22.9149 9.88476 22.4126 10.6075 21.782 11.2087C20.4931 12.4386 18.78 13.1247 16.9984 13.1247C15.2169 13.1247 13.5038 12.4386 12.2148 11.2087C11.5843 10.6075 11.082 9.88476 10.7383 9.08415C10.3945 8.28354 10.2165 7.42162 10.2148 6.55034V5.60554C10.2144 5.35925 10.2637 5.1154 10.36 4.88869C10.4562 4.66198 10.5973 4.45708 10.7748 4.28634C11.1304 3.94676 11.6032 3.75727 12.0948 3.75727C12.5865 3.75727 13.0593 3.94676 13.4148 4.28634C13.5924 4.45708 13.7335 4.66198 13.8297 4.88869C13.9259 5.1154 13.9753 5.35925 13.9748 5.60554V6.55034C13.9764 6.92853 14.0545 7.3025 14.2045 7.64967C14.3545 7.99685 14.5733 8.31004 14.8476 8.57034C15.426 9.11903 16.1928 9.4249 16.99 9.4249C17.7873 9.4249 18.5541 9.11903 19.1324 8.57034C19.4088 8.311 19.6297 7.99824 19.7817 7.65102C19.9336 7.3038 20.0135 6.92934 20.0164 6.55034V5.60554C20.016 5.35925 20.0653 5.1154 20.1616 4.88869C20.2578 4.66198 20.3989 4.45708 20.5764 4.28634C20.9323 3.94398 21.4075 3.75372 21.9012 3.75594Z" stroke="#161717" stroke-width="1.5" stroke-linecap="round"/>
<path d="M25.916 28.2087C24.694 28.182 23.5322 27.6727 22.6847 26.7919C21.8371 25.9112 21.3726 24.7308 21.3928 23.5087L21.3856 19.5151C21.3811 19.4243 21.3946 19.3336 21.4252 19.248C21.4558 19.1624 21.503 19.0837 21.564 19.0164C21.6873 18.8804 21.8595 18.7989 22.0428 18.7899C22.2261 18.7809 22.4055 18.8451 22.5415 18.9683C22.6775 19.0916 22.759 19.2638 22.768 19.4471C22.768 19.47 22.768 19.4927 22.768 19.5151L22.776 20.0135L22.856 20.0471C23.6756 19.2434 24.7769 18.7918 25.9248 18.7887C27.1487 18.8181 28.3111 19.3313 29.1574 20.216C30.0037 21.1007 30.4649 22.2847 30.44 23.5087C30.4619 24.7318 29.998 25.9136 29.1499 26.7952C28.3019 27.6768 27.139 28.1863 25.916 28.2119V28.2087ZM25.9224 26.7751C26.7734 26.7562 27.5823 26.4008 28.1719 25.7868C28.7614 25.1728 29.0837 24.3502 29.068 23.4991C29.0836 22.6487 28.7613 21.8268 28.1718 21.2137C27.5822 20.6006 26.7736 20.2463 25.9232 20.2287C25.0712 20.2468 24.2612 20.6024 23.6714 21.2175C23.0815 21.8325 22.76 22.6567 22.7776 23.5087C22.7613 24.359 23.0832 25.1811 23.6725 25.7943C24.2619 26.4074 25.0705 26.7617 25.9208 26.7791L25.9224 26.7751Z" fill="#161717"/>
<path d="M16.4839 28.2095C15.2615 28.1838 14.099 27.6748 13.2511 26.7939C12.4032 25.913 11.9389 24.732 11.9599 23.5095C11.9358 22.2842 12.3985 21.0994 13.2465 20.2146C14.0945 19.3299 15.2587 18.8174 16.4839 18.7895C17.3744 18.7987 18.2424 19.0709 18.9787 19.5719C19.7151 20.073 20.2869 20.7804 20.6223 21.6055C20.9766 22.4439 21.0881 23.365 20.9439 24.2637C20.7998 25.1623 20.4058 26.0024 19.8071 26.6879L19.8423 26.7679L20.3175 26.7751C20.5084 26.7751 20.6916 26.8509 20.8266 26.986C20.9616 27.121 21.0375 27.3041 21.0375 27.4951C21.0375 27.686 20.9616 27.8692 20.8266 28.0042C20.6916 28.1392 20.5084 28.2151 20.3175 28.2151L16.4839 28.2095ZM16.4839 20.2303C15.635 20.25 14.8284 20.6046 14.2399 21.2166C13.6514 21.8286 13.3287 22.6485 13.3423 23.4975C13.3345 24.1359 13.514 24.7626 13.8587 25.3001C14.2034 25.8376 14.698 26.2622 15.2815 26.5215C15.6617 26.6875 16.0722 26.7733 16.4871 26.7735C16.9038 26.773 17.3161 26.6876 17.6987 26.5226C18.0813 26.3575 18.4263 26.1163 18.7127 25.8135C19.1555 25.3467 19.4551 24.7625 19.5756 24.1304C19.6961 23.4983 19.6327 22.8449 19.3927 22.2479C19.1679 21.6582 18.7704 21.15 18.2521 20.7899C17.7338 20.4298 17.119 20.2345 16.4879 20.2295L16.4839 20.2303Z" fill="#161717"/>
</svg>
