<svg width="30" height="30" viewBox="0 0 30 30" fill="none" xmlns="http://www.w3.org/2000/svg">
<g clip-path="url(#clip0_1681_8964)">
<path fill-rule="evenodd" clip-rule="evenodd" d="M3.28125 0.9375C2.85848 0.9375 2.48802 1.22046 2.37678 1.62833L0.970533 6.78459C0.948609 6.86498 0.9375 6.94791 0.9375 7.03125C0.9375 8.2807 1.48066 9.40331 2.34375 10.1758V24.375C2.34375 26.9638 4.44241 29.0625 7.03125 29.0625H15C15.5178 29.0625 15.9375 28.6428 15.9375 28.125C15.9375 27.6072 15.5178 27.1875 15 27.1875H7.03125C5.47795 27.1875 4.21875 25.9283 4.21875 24.375V11.1455C4.52026 11.2139 4.83403 11.25 5.15625 11.25C6.48155 11.25 7.66406 10.6389 8.4375 9.68311C9.21094 10.6389 10.3935 11.25 11.7188 11.25C13.044 11.25 14.2266 10.6389 15 9.68311C15.7734 10.6389 16.956 11.25 18.2812 11.25C19.6065 11.25 20.7891 10.6389 21.5625 9.68311C22.3359 10.6389 23.5185 11.25 24.8438 11.25C25.166 11.25 25.4797 11.2139 25.7812 11.1455V15.7031C25.7812 16.2209 26.201 16.6406 26.7188 16.6406C27.2365 16.6406 27.6562 16.2209 27.6562 15.7031V10.1758C28.5193 9.40331 29.0625 8.2807 29.0625 7.03125C29.0625 6.94791 29.0514 6.86498 29.0295 6.78459L27.6232 1.62833C27.512 1.22046 27.1415 0.9375 26.7188 0.9375H3.28125ZM11.7188 9.375C10.4243 9.375 9.375 8.32566 9.375 7.03125C9.375 6.51347 8.95528 6.09375 8.4375 6.09375C7.91972 6.09375 7.5 6.51347 7.5 7.03125C7.5 8.32566 6.45066 9.375 5.15625 9.375C3.9005 9.375 2.87541 8.38744 2.81529 7.14656L3.99731 2.8125H26.0027L27.1847 7.14656C27.1246 8.38744 26.0995 9.375 24.8438 9.375C23.5493 9.375 22.5 8.32566 22.5 7.03125C22.5 6.51347 22.0803 6.09375 21.5625 6.09375C21.0447 6.09375 20.625 6.51347 20.625 7.03125C20.625 8.32566 19.5757 9.375 18.2812 9.375C16.9868 9.375 15.9375 8.32566 15.9375 7.03125C15.9375 6.51347 15.5178 6.09375 15 6.09375C14.4822 6.09375 14.0625 6.51347 14.0625 7.03125C14.0625 8.32566 13.0132 9.375 11.7188 9.375Z" fill="black" stroke="#EEF9FF"/>
<path fill-rule="evenodd" clip-rule="evenodd" d="M26.7188 20.1562C26.7188 21.1341 26.3445 22.0245 25.7314 22.692C27.7084 23.6993 29.0625 25.7541 29.0625 28.125C29.0625 28.6428 28.6428 29.0625 28.125 29.0625C27.6072 29.0625 27.1875 28.6428 27.1875 28.125C27.1875 25.795 25.2987 23.9062 22.9688 23.9062C20.6388 23.9062 18.75 25.795 18.75 28.125C18.75 28.6428 18.3303 29.0625 17.8125 29.0625C17.2947 29.0625 16.875 28.6428 16.875 28.125C16.875 25.7541 18.2291 23.6993 20.2061 22.692C19.593 22.0245 19.2188 21.1341 19.2188 20.1562C19.2188 18.0852 20.8977 16.4062 22.9688 16.4062C25.0398 16.4062 26.7188 18.0852 26.7188 20.1562ZM21.0938 20.1562C21.0938 19.1207 21.9332 18.2812 22.9688 18.2812C24.0043 18.2812 24.8438 19.1207 24.8438 20.1562C24.8438 21.1918 24.0043 22.0312 22.9688 22.0312C21.9332 22.0312 21.0938 21.1918 21.0938 20.1562Z" fill="#161717" stroke="#EEF9FF"/>
</g>
<defs>
<clipPath id="clip0_1681_8964">
<rect width="30" height="30" fill="white"/>
</clipPath>
</defs>
</svg>
