<svg width="319" height="332" viewBox="0 0 319 332" fill="none" xmlns="http://www.w3.org/2000/svg">
<rect y="51" width="318" height="280.883" rx="6.01893" fill="white"/>
<path d="M26.4346 110.228C26.0622 110.228 25.7305 110.164 25.4396 110.036C25.1504 109.906 24.9218 109.728 24.7539 109.502C24.5876 109.275 24.502 109.012 24.497 108.714H25.5843C25.5909 108.839 25.6316 108.949 25.7064 109.044C25.7829 109.137 25.8843 109.209 26.0107 109.26C26.137 109.312 26.2791 109.338 26.4371 109.338C26.6017 109.338 26.7471 109.309 26.8735 109.251C26.9998 109.192 27.0987 109.112 27.1702 109.009C27.2417 108.906 27.2774 108.787 27.2774 108.652C27.2774 108.516 27.2392 108.395 27.1627 108.29C27.0879 108.184 26.9799 108.101 26.8386 108.041C26.6989 107.981 26.5327 107.951 26.3398 107.951H25.8635V107.158H26.3398C26.5027 107.158 26.6465 107.13 26.7712 107.074C26.8976 107.017 26.9957 106.939 27.0655 106.839C27.1353 106.738 27.1702 106.62 27.1702 106.485C27.1702 106.357 27.1395 106.245 27.0779 106.148C27.0181 106.05 26.9333 105.974 26.8236 105.919C26.7155 105.864 26.5892 105.837 26.4446 105.837C26.2983 105.837 26.1644 105.863 26.0431 105.917C25.9217 105.968 25.8245 106.042 25.7513 106.138C25.6782 106.235 25.6391 106.348 25.6341 106.478H24.5993C24.6043 106.183 24.6882 105.924 24.8511 105.7C25.014 105.475 25.2335 105.3 25.5094 105.173C25.7871 105.045 26.1004 104.981 26.4495 104.981C26.802 104.981 27.1104 105.045 27.3747 105.173C27.639 105.301 27.8443 105.474 27.9906 105.692C28.1386 105.908 28.2117 106.151 28.2101 106.42C28.2117 106.706 28.1228 106.945 27.9432 107.136C27.7654 107.327 27.5334 107.448 27.2475 107.5V107.54C27.6232 107.588 27.9092 107.719 28.1053 107.931C28.3031 108.143 28.4012 108.407 28.3996 108.724C28.4012 109.015 28.3173 109.274 28.1477 109.5C27.9798 109.726 27.7479 109.904 27.452 110.034C27.1561 110.163 26.8169 110.228 26.4346 110.228ZM31.8803 110.27C31.4514 110.269 31.0823 110.163 30.7731 109.954C30.4656 109.744 30.2287 109.441 30.0625 109.044C29.8979 108.646 29.8164 108.168 29.8181 107.61C29.8181 107.053 29.9004 106.578 30.0649 106.186C30.2312 105.794 30.4681 105.495 30.7756 105.291C31.0848 105.084 31.4531 104.981 31.8803 104.981C32.3076 104.981 32.675 105.084 32.9825 105.291C33.2917 105.497 33.5294 105.796 33.6957 106.188C33.8619 106.579 33.9442 107.053 33.9426 107.61C33.9426 108.17 33.8594 108.649 33.6932 109.046C33.5286 109.443 33.2925 109.747 32.985 109.956C32.6774 110.166 32.3092 110.27 31.8803 110.27ZM31.8803 109.375C32.1729 109.375 32.4065 109.228 32.581 108.934C32.7556 108.64 32.842 108.198 32.8404 107.61C32.8404 107.222 32.8005 106.9 32.7207 106.642C32.6425 106.384 32.5312 106.191 32.3865 106.061C32.2436 105.931 32.0748 105.867 31.8803 105.867C31.5894 105.867 31.3566 106.012 31.1821 106.303C31.0075 106.594 30.9194 107.03 30.9178 107.61C30.9178 108.002 30.9568 108.33 31.035 108.592C31.1148 108.853 31.227 109.049 31.3716 109.181C31.5162 109.31 31.6858 109.375 31.8803 109.375ZM37.4171 110.27C36.9882 110.269 36.6191 110.163 36.3099 109.954C36.0023 109.744 35.7654 109.441 35.5992 109.044C35.4346 108.646 35.3532 108.168 35.3548 107.61C35.3548 107.053 35.4371 106.578 35.6017 106.186C35.7679 105.794 36.0048 105.495 36.3124 105.291C36.6216 105.084 36.9898 104.981 37.4171 104.981C37.8443 104.981 38.2117 105.084 38.5192 105.291C38.8285 105.497 39.0662 105.796 39.2324 106.188C39.3987 106.579 39.481 107.053 39.4793 107.61C39.4793 108.17 39.3962 108.649 39.2299 109.046C39.0654 109.443 38.8293 109.747 38.5217 109.956C38.2142 110.166 37.846 110.27 37.4171 110.27ZM37.4171 109.375C37.7096 109.375 37.9432 109.228 38.1178 108.934C38.2923 108.64 38.3788 108.198 38.3771 107.61C38.3771 107.222 38.3372 106.9 38.2574 106.642C38.1793 106.384 38.0679 106.191 37.9233 106.061C37.7803 105.931 37.6116 105.867 37.4171 105.867C37.1261 105.867 36.8934 106.012 36.7188 106.303C36.5443 106.594 36.4562 107.03 36.4545 107.61C36.4545 108.002 36.4936 108.33 36.5717 108.592C36.6515 108.853 36.7637 109.049 36.9084 109.181C37.053 109.31 37.2226 109.375 37.4171 109.375ZM42.9538 110.27C42.5249 110.269 42.1558 110.163 41.8466 109.954C41.5391 109.744 41.3022 109.441 41.1359 109.044C40.9714 108.646 40.8899 108.168 40.8916 107.61C40.8916 107.053 40.9739 106.578 41.1384 106.186C41.3047 105.794 41.5416 105.495 41.8491 105.291C42.1583 105.084 42.5266 104.981 42.9538 104.981C43.381 104.981 43.7484 105.084 44.056 105.291C44.3652 105.497 44.6029 105.796 44.7692 106.188C44.9354 106.579 45.0177 107.053 45.016 107.61C45.016 108.17 44.9329 108.649 44.7667 109.046C44.6021 109.443 44.366 109.747 44.0585 109.956C43.7509 110.166 43.3827 110.27 42.9538 110.27ZM42.9538 109.375C43.2464 109.375 43.48 109.228 43.6545 108.934C43.8291 108.64 43.9155 108.198 43.9139 107.61C43.9139 107.222 43.874 106.9 43.7942 106.642C43.716 106.384 43.6046 106.191 43.46 106.061C43.317 105.931 43.1483 105.867 42.9538 105.867C42.6629 105.867 42.4301 106.012 42.2556 106.303C42.081 106.594 41.9929 107.03 41.9913 107.61C41.9913 108.002 42.0303 108.33 42.1085 108.592C42.1883 108.853 42.3005 109.049 42.4451 109.181C42.5897 109.31 42.7593 109.375 42.9538 109.375Z" fill="#9CA1AD"/>
<line x1="52.3445" y1="107.407" x2="292.6" y2="107.407" stroke="#E0E2E7" stroke-width="0.501577" stroke-linecap="round" stroke-dasharray="4.01 2.01"/>
<path d="M24.4882 163.285V162.507L26.306 160.824C26.4606 160.674 26.5903 160.54 26.695 160.42C26.8014 160.3 26.8821 160.183 26.9369 160.068C26.9918 159.952 27.0192 159.826 27.0192 159.692C27.0192 159.542 26.9851 159.413 26.917 159.305C26.8488 159.196 26.7557 159.112 26.6377 159.053C26.5196 158.994 26.3858 158.964 26.2362 158.964C26.0799 158.964 25.9436 158.995 25.8272 159.058C25.7109 159.122 25.6211 159.212 25.5579 159.33C25.4948 159.448 25.4632 159.589 25.4632 159.752H24.4383C24.4383 159.418 24.5139 159.127 24.6652 158.881C24.8165 158.635 25.0285 158.445 25.3011 158.31C25.5737 158.176 25.8879 158.108 26.2437 158.108C26.6094 158.108 26.9278 158.173 27.1987 158.303C27.4714 158.431 27.6833 158.609 27.8346 158.837C27.9859 159.064 28.0615 159.325 28.0615 159.62C28.0615 159.812 28.0233 160.003 27.9468 160.191C27.872 160.378 27.7382 160.587 27.5454 160.816C27.3525 161.044 27.0807 161.318 26.7299 161.637L25.9843 162.367V162.402H28.1289V163.285H24.4882ZM31.6158 163.397C31.1869 163.396 30.8179 163.29 30.5087 163.081C30.2011 162.871 29.9642 162.568 29.798 162.171C29.6334 161.773 29.5519 161.295 29.5536 160.737C29.5536 160.18 29.6359 159.705 29.8005 159.313C29.9667 158.92 30.2036 158.622 30.5112 158.418C30.8204 158.211 31.1886 158.108 31.6158 158.108C32.0431 158.108 32.4105 158.211 32.718 158.418C33.0272 158.624 33.265 158.923 33.4312 159.315C33.5975 159.706 33.6797 160.18 33.6781 160.737C33.6781 161.297 33.595 161.776 33.4287 162.173C33.2641 162.57 33.0281 162.874 32.7205 163.083C32.413 163.293 32.0448 163.397 31.6158 163.397ZM31.6158 162.502C31.9084 162.502 32.142 162.355 32.3166 162.061C32.4911 161.767 32.5776 161.325 32.5759 160.737C32.5759 160.349 32.536 160.027 32.4562 159.769C32.3781 159.511 32.2667 159.318 32.1221 159.188C31.9791 159.058 31.8104 158.994 31.6158 158.994C31.3249 158.994 31.0922 159.139 30.9176 159.43C30.7431 159.721 30.655 160.156 30.6533 160.737C30.6533 161.129 30.6924 161.456 30.7705 161.719C30.8503 161.98 30.9625 162.176 31.1071 162.308C31.2518 162.437 31.4213 162.502 31.6158 162.502ZM37.1526 163.397C36.7237 163.396 36.3546 163.29 36.0454 163.081C35.7379 162.871 35.501 162.568 35.3347 162.171C35.1702 161.773 35.0887 161.295 35.0904 160.737C35.0904 160.18 35.1726 159.705 35.3372 159.313C35.5035 158.92 35.7404 158.622 36.0479 158.418C36.3571 158.211 36.7254 158.108 37.1526 158.108C37.5798 158.108 37.9472 158.211 38.2548 158.418C38.564 158.624 38.8017 158.923 38.968 159.315C39.1342 159.706 39.2165 160.18 39.2148 160.737C39.2148 161.297 39.1317 161.776 38.9655 162.173C38.8009 162.57 38.5648 162.874 38.2573 163.083C37.9497 163.293 37.5815 163.397 37.1526 163.397ZM37.1526 162.502C37.4452 162.502 37.6788 162.355 37.8533 162.061C38.0279 161.767 38.1143 161.325 38.1126 160.737C38.1126 160.349 38.0727 160.027 37.993 159.769C37.9148 159.511 37.8034 159.318 37.6588 159.188C37.5158 159.058 37.3471 158.994 37.1526 158.994C36.8617 158.994 36.6289 159.139 36.4544 159.43C36.2798 159.721 36.1917 160.156 36.1901 160.737C36.1901 161.129 36.2291 161.456 36.3073 161.719C36.387 161.98 36.4993 162.176 36.6439 162.308C36.7885 162.437 36.9581 162.502 37.1526 162.502ZM42.6893 163.397C42.2604 163.396 41.8914 163.29 41.5822 163.081C41.2746 162.871 41.0377 162.568 40.8715 162.171C40.7069 161.773 40.6254 161.295 40.6271 160.737C40.6271 160.18 40.7094 159.705 40.874 159.313C41.0402 158.92 41.2771 158.622 41.5847 158.418C41.8939 158.211 42.2621 158.108 42.6893 158.108C43.1166 158.108 43.484 158.211 43.7915 158.418C44.1007 158.624 44.3385 158.923 44.5047 159.315C44.671 159.706 44.7532 160.18 44.7516 160.737C44.7516 161.297 44.6685 161.776 44.5022 162.173C44.3376 162.57 44.1016 162.874 43.794 163.083C43.4865 163.293 43.1182 163.397 42.6893 163.397ZM42.6893 162.502C42.9819 162.502 43.2155 162.355 43.3901 162.061C43.5646 161.767 43.6511 161.325 43.6494 160.737C43.6494 160.349 43.6095 160.027 43.5297 159.769C43.4516 159.511 43.3402 159.318 43.1956 159.188C43.0526 159.058 42.8838 158.994 42.6893 158.994C42.3984 158.994 42.1657 159.139 41.9911 159.43C41.8166 159.721 41.7285 160.156 41.7268 160.737C41.7268 161.129 41.7659 161.456 41.844 161.719C41.9238 161.98 42.036 162.176 42.1806 162.308C42.3253 162.437 42.4948 162.502 42.6893 162.502Z" fill="#9CA1AD"/>
<line x1="52.3445" y1="160.534" x2="292.6" y2="160.534" stroke="#E0E2E7" stroke-width="0.501577" stroke-linecap="round" stroke-dasharray="4.01 2.01"/>
<path d="M27.6641 211.303V216.41H26.5844V212.328H26.5545L25.385 213.061V212.104L26.6492 211.303H27.6641ZM31.5825 216.522C31.1536 216.521 30.7846 216.415 30.4753 216.206C30.1678 215.996 29.9309 215.693 29.7647 215.296C29.6001 214.898 29.5186 214.42 29.5203 213.862C29.5203 213.305 29.6026 212.83 29.7672 212.438C29.9334 212.045 30.1703 211.747 30.4778 211.543C30.7871 211.336 31.1553 211.233 31.5825 211.233C32.0098 211.233 32.3772 211.336 32.6847 211.543C32.9939 211.749 33.2316 212.048 33.3979 212.44C33.5641 212.831 33.6464 213.305 33.6448 213.862C33.6448 214.422 33.5616 214.901 33.3954 215.298C33.2308 215.695 32.9948 215.999 32.6872 216.208C32.3797 216.418 32.0114 216.522 31.5825 216.522ZM31.5825 215.627C31.8751 215.627 32.1087 215.48 32.2832 215.186C32.4578 214.892 32.5442 214.45 32.5426 213.862C32.5426 213.474 32.5027 213.152 32.4229 212.894C32.3447 212.636 32.2334 212.443 32.0887 212.313C31.9458 212.183 31.777 212.119 31.5825 212.119C31.2916 212.119 31.0589 212.264 30.8843 212.555C30.7097 212.846 30.6216 213.281 30.62 213.862C30.62 214.254 30.659 214.581 30.7372 214.844C30.817 215.105 30.9292 215.301 31.0738 215.433C31.2184 215.562 31.388 215.627 31.5825 215.627ZM37.1193 216.522C36.6904 216.521 36.3213 216.415 36.0121 216.206C35.7045 215.996 35.4676 215.693 35.3014 215.296C35.1368 214.898 35.0554 214.42 35.057 213.862C35.057 213.305 35.1393 212.83 35.3039 212.438C35.4701 212.045 35.707 211.747 36.0146 211.543C36.3238 211.336 36.692 211.233 37.1193 211.233C37.5465 211.233 37.9139 211.336 38.2215 211.543C38.5307 211.749 38.7684 212.048 38.9346 212.44C39.1009 212.831 39.1832 213.305 39.1815 213.862C39.1815 214.422 39.0984 214.901 38.9321 215.298C38.7676 215.695 38.5315 215.999 38.2239 216.208C37.9164 216.418 37.5482 216.522 37.1193 216.522ZM37.1193 215.627C37.4119 215.627 37.6454 215.48 37.82 215.186C37.9945 214.892 38.081 214.45 38.0793 213.862C38.0793 213.474 38.0394 213.152 37.9596 212.894C37.8815 212.636 37.7701 212.443 37.6255 212.313C37.4825 212.183 37.3138 212.119 37.1193 212.119C36.8283 212.119 36.5956 212.264 36.421 212.555C36.2465 212.846 36.1584 213.281 36.1567 213.862C36.1567 214.254 36.1958 214.581 36.2739 214.844C36.3537 215.105 36.4659 215.301 36.6106 215.433C36.7552 215.562 36.9248 215.627 37.1193 215.627ZM42.656 216.522C42.2271 216.521 41.858 216.415 41.5488 216.206C41.2413 215.996 41.0044 215.693 40.8382 215.296C40.6736 214.898 40.5921 214.42 40.5938 213.862C40.5938 213.305 40.6761 212.83 40.8406 212.438C41.0069 212.045 41.2438 211.747 41.5513 211.543C41.8605 211.336 42.2288 211.233 42.656 211.233C43.0833 211.233 43.4507 211.336 43.7582 211.543C44.0674 211.749 44.3051 212.048 44.4714 212.44C44.6376 212.831 44.7199 213.305 44.7183 213.862C44.7183 214.422 44.6351 214.901 44.4689 215.298C44.3043 215.695 44.0682 215.999 43.7607 216.208C43.4531 216.418 43.0849 216.522 42.656 216.522ZM42.656 215.627C42.9486 215.627 43.1822 215.48 43.3567 215.186C43.5313 214.892 43.6177 214.45 43.6161 213.862C43.6161 213.474 43.5762 213.152 43.4964 212.894C43.4182 212.636 43.3069 212.443 43.1622 212.313C43.0193 212.183 42.8505 212.119 42.656 212.119C42.3651 212.119 42.1323 212.264 41.9578 212.555C41.7832 212.846 41.6951 213.281 41.6935 213.862C41.6935 214.254 41.7325 214.581 41.8107 214.844C41.8905 215.105 42.0027 215.301 42.1473 215.433C42.2919 215.562 42.4615 215.627 42.656 215.627Z" fill="#9CA1AD"/>
<line x1="51.3445" y1="213.659" x2="291.6" y2="213.659" stroke="#E0E2E7" stroke-width="0.501577" stroke-linecap="round" stroke-dasharray="4.01 2.01"/>
<path d="M26.656 269.649C26.2271 269.648 25.8581 269.542 25.5488 269.333C25.2413 269.123 25.0044 268.82 24.8382 268.422C24.6736 268.025 24.5921 267.547 24.5938 266.989C24.5938 266.432 24.6761 265.957 24.8406 265.565C25.0069 265.172 25.2438 264.874 25.5513 264.67C25.8605 264.463 26.2288 264.36 26.656 264.36C27.0833 264.36 27.4507 264.463 27.7582 264.67C28.0674 264.876 28.3051 265.175 28.4714 265.567C28.6376 265.958 28.7199 266.432 28.7183 266.989C28.7183 267.549 28.6351 268.028 28.4689 268.425C28.3043 268.822 28.0682 269.126 27.7607 269.335C27.4531 269.545 27.0849 269.649 26.656 269.649ZM26.656 268.754C26.9486 268.754 27.1822 268.607 27.3567 268.313C27.5313 268.018 27.6177 267.577 27.6161 266.989C27.6161 266.601 27.5762 266.279 27.4964 266.021C27.4182 265.763 27.3069 265.57 27.1622 265.44C27.0193 265.31 26.8505 265.246 26.656 265.246C26.3651 265.246 26.1324 265.391 25.9578 265.682C25.7832 265.973 25.6951 266.408 25.6935 266.989C25.6935 267.381 25.7325 267.708 25.8107 267.971C25.8905 268.232 26.0027 268.428 26.1473 268.56C26.2919 268.689 26.4615 268.754 26.656 268.754Z" fill="#9CA1AD"/>
<line x1="35.3445" y1="266.786" x2="275.6" y2="266.786" stroke="#E0E2E7" stroke-width="0.501577" stroke-linecap="round" stroke-dasharray="4.01 2.01"/>
<rect width="24.0757" height="150.473" transform="translate(70 117)" fill="#FFB545"/>
<rect width="24.0757" height="102.322" transform="translate(94.0742 165.152)" fill="#00BEBE"/>
<rect width="24.0757" height="83.7634" transform="translate(199.91 183.709)" fill="#FFB545"/>
<rect width="24.0757" height="12.0379" transform="translate(223.984 255.434)" fill="#00BEBE"/>
<path d="M84.5249 278.688H83.3679L85.1309 273.581H86.5223L88.2828 278.688H87.1258L85.8466 274.748H85.8067L84.5249 278.688ZM84.4526 276.68H87.1856V277.523H84.4526V276.68ZM92.7542 273.581H93.8339V276.897C93.8339 277.269 93.745 277.595 93.5671 277.875C93.3909 278.154 93.144 278.372 92.8265 278.528C92.509 278.683 92.1391 278.76 91.7168 278.76C91.2929 278.76 90.9222 278.683 90.6047 278.528C90.2871 278.372 90.0403 278.154 89.8641 277.875C89.6878 277.595 89.5997 277.269 89.5997 276.897V273.581H90.6795V276.805C90.6795 276.999 90.7219 277.172 90.8067 277.323C90.8931 277.475 91.0145 277.594 91.1707 277.68C91.327 277.767 91.509 277.81 91.7168 277.81C91.9263 277.81 92.1083 277.767 92.2629 277.68C92.4192 277.594 92.5397 277.475 92.6245 277.323C92.711 277.172 92.7542 276.999 92.7542 276.805V273.581ZM98.8109 275.231C98.7759 275.11 98.7269 275.003 98.6637 274.91C98.6006 274.815 98.5233 274.735 98.4318 274.67C98.3421 274.604 98.239 274.553 98.1226 274.518C98.0079 274.483 97.8807 274.466 97.7411 274.466C97.4801 274.466 97.2507 274.531 97.0528 274.66C96.8567 274.79 96.7037 274.979 96.594 275.226C96.4843 275.472 96.4294 275.773 96.4294 276.129C96.4294 276.485 96.4835 276.787 96.5915 277.037C96.6996 277.286 96.8525 277.476 97.0503 277.608C97.2482 277.737 97.4817 277.802 97.7511 277.802C97.9954 277.802 98.2041 277.759 98.377 277.673C98.5515 277.584 98.6845 277.461 98.7759 277.301C98.869 277.141 98.9156 276.953 98.9156 276.735L99.135 276.767H97.8184V275.954H99.9554V276.598C99.9554 277.047 99.8607 277.432 99.6712 277.755C99.4816 278.076 99.2206 278.323 98.8882 278.498C98.5557 278.671 98.175 278.757 97.7461 278.757C97.2673 278.757 96.8467 278.652 96.4843 278.441C96.1219 278.228 95.8393 277.926 95.6365 277.535C95.4353 277.143 95.3347 276.678 95.3347 276.139C95.3347 275.725 95.3946 275.356 95.5143 275.032C95.6356 274.706 95.8052 274.43 96.023 274.204C96.2407 273.978 96.4943 273.806 96.7835 273.688C97.0728 273.57 97.3862 273.511 97.7236 273.511C98.0129 273.511 98.2822 273.553 98.5316 273.638C98.7809 273.721 99.002 273.839 99.1949 273.992C99.3894 274.145 99.5481 274.327 99.6712 274.538C99.7942 274.748 99.8731 274.979 99.9081 275.231H98.8109Z" fill="#9CA1AD"/>
<path d="M218.91 273.581H219.978V277.141C219.978 277.471 219.904 277.757 219.756 277.999C219.609 278.242 219.406 278.429 219.145 278.56C218.884 278.692 218.58 278.757 218.235 278.757C217.927 278.757 217.648 278.703 217.397 278.595C217.147 278.486 216.95 278.319 216.803 278.097C216.657 277.872 216.585 277.59 216.586 277.251H217.661C217.664 277.386 217.692 277.501 217.743 277.598C217.797 277.693 217.869 277.766 217.96 277.817C218.053 277.867 218.163 277.892 218.289 277.892C218.422 277.892 218.535 277.864 218.626 277.807C218.719 277.749 218.79 277.664 218.838 277.553C218.886 277.442 218.91 277.304 218.91 277.141V273.581ZM224.727 273.581H225.807V276.897C225.807 277.269 225.718 277.595 225.54 277.875C225.364 278.154 225.117 278.372 224.799 278.528C224.482 278.683 224.112 278.76 223.69 278.76C223.266 278.76 222.895 278.683 222.577 278.528C222.26 278.372 222.013 278.154 221.837 277.875C221.661 277.595 221.573 277.269 221.573 276.897V273.581H222.652V276.805C222.652 276.999 222.695 277.172 222.779 277.323C222.866 277.475 222.987 277.594 223.144 277.68C223.3 277.767 223.482 277.81 223.69 277.81C223.899 277.81 224.081 277.767 224.236 277.68C224.392 277.594 224.513 277.475 224.597 277.323C224.684 277.172 224.727 276.999 224.727 276.805V273.581ZM227.397 278.688V273.581H228.477V277.797H230.666V278.688H227.397Z" fill="#9CA1AD"/>
<rect x="24.0742" y="307.771" width="8.02524" height="8.02524" rx="2.00631" fill="#FFB545"/>
<path d="M42.9656 311.874C42.9656 312.509 42.8453 313.048 42.6048 313.493C42.3661 313.939 42.0404 314.278 41.6275 314.513C41.2165 314.746 40.7544 314.863 40.2411 314.863C39.7241 314.863 39.2601 314.745 38.8491 314.51C38.4381 314.276 38.1133 313.936 37.8746 313.491C37.636 313.046 37.5167 312.507 37.5167 311.874C37.5167 311.24 37.636 310.7 37.8746 310.255C38.1133 309.81 38.4381 309.471 38.8491 309.238C39.2601 309.003 39.7241 308.885 40.2411 308.885C40.7544 308.885 41.2165 309.003 41.6275 309.238C42.0404 309.471 42.3661 309.81 42.6048 310.255C42.8453 310.7 42.9656 311.24 42.9656 311.874ZM41.7184 311.874C41.7184 311.463 41.6568 311.117 41.5337 310.834C41.4125 310.552 41.2411 310.338 41.0195 310.192C40.7979 310.046 40.5385 309.974 40.2411 309.974C39.9438 309.974 39.6843 310.046 39.4627 310.192C39.2411 310.338 39.0688 310.552 38.9457 310.834C38.8245 311.117 38.7638 311.463 38.7638 311.874C38.7638 312.285 38.8245 312.632 38.9457 312.914C39.0688 313.196 39.2411 313.41 39.4627 313.556C39.6843 313.702 39.9438 313.775 40.2411 313.775C40.5385 313.775 40.7979 313.702 41.0195 313.556C41.2411 313.41 41.4125 313.196 41.5337 312.914C41.6568 312.632 41.7184 312.285 41.7184 311.874ZM49.5433 308.965V314.783H48.4808L45.9495 311.121H45.9069V314.783H44.6768V308.965H45.7563L48.2677 312.624H48.3188V308.965H49.5433ZM51.3596 314.783V308.965H52.5897V313.769H55.084V314.783H51.3596ZM57.9288 308.965V314.783H56.6987V308.965H57.9288ZM64.6073 308.965V314.783H63.5448L61.0136 311.121H60.971V314.783H59.7408V308.965H60.8204L63.3317 312.624H63.3829V308.965H64.6073ZM66.4237 314.783V308.965H70.3441V309.979H67.6538V311.366H70.1424V312.38H67.6538V313.769H70.3555V314.783H66.4237ZM80.1202 311.874C80.1202 312.509 80 313.048 79.7594 313.493C79.5208 313.939 79.1951 314.278 78.7822 314.513C78.3712 314.746 77.9091 314.863 77.3958 314.863C76.8788 314.863 76.4147 314.745 76.0038 314.51C75.5928 314.276 75.268 313.936 75.0293 313.491C74.7907 313.046 74.6714 312.507 74.6714 311.874C74.6714 311.24 74.7907 310.7 75.0293 310.255C75.268 309.81 75.5928 309.471 76.0038 309.238C76.4147 309.003 76.8788 308.885 77.3958 308.885C77.9091 308.885 78.3712 309.003 78.7822 309.238C79.1951 309.471 79.5208 309.81 79.7594 310.255C80 310.7 80.1202 311.24 80.1202 311.874ZM78.8731 311.874C78.8731 311.463 78.8115 311.117 78.6884 310.834C78.5672 310.552 78.3958 310.338 78.1742 310.192C77.9526 310.046 77.6932 309.974 77.3958 309.974C77.0985 309.974 76.839 310.046 76.6174 310.192C76.3958 310.338 76.2235 310.552 76.1004 310.834C75.9791 311.117 75.9185 311.463 75.9185 311.874C75.9185 312.285 75.9791 312.632 76.1004 312.914C76.2235 313.196 76.3958 313.41 76.6174 313.556C76.839 313.702 77.0985 313.775 77.3958 313.775C77.6932 313.775 77.9526 313.702 78.1742 313.556C78.3958 313.41 78.5672 313.196 78.6884 312.914C78.8115 312.632 78.8731 312.285 78.8731 311.874ZM81.8315 314.783V308.965H84.1269C84.5663 308.965 84.9413 309.044 85.2519 309.201C85.5644 309.356 85.8021 309.577 85.965 309.863C86.1298 310.147 86.2121 310.481 86.2121 310.866C86.2121 311.252 86.1288 311.584 85.9621 311.863C85.7955 312.139 85.554 312.351 85.2377 312.499C84.9233 312.647 84.5426 312.721 84.0957 312.721H82.5587V311.732H83.8968C84.1317 311.732 84.3267 311.7 84.482 311.635C84.6373 311.571 84.7529 311.474 84.8286 311.346C84.9063 311.217 84.9451 311.057 84.9451 310.866C84.9451 310.672 84.9063 310.51 84.8286 310.377C84.7529 310.244 84.6364 310.144 84.4792 310.076C84.3239 310.006 84.1279 309.971 83.8911 309.971H83.0616V314.783H81.8315ZM84.9735 312.135L86.4195 314.783H85.0616L83.6468 312.135H84.9735ZM89.944 314.783H87.8815V308.965H89.961C90.5462 308.965 91.05 309.081 91.4724 309.314C91.8947 309.546 92.2195 309.878 92.4468 310.312C92.676 310.745 92.7906 311.264 92.7906 311.868C92.7906 312.474 92.676 312.995 92.4468 313.431C92.2195 313.867 91.8928 314.201 91.4667 314.434C91.0424 314.667 90.5349 314.783 89.944 314.783ZM89.1116 313.729H89.8928C90.2565 313.729 90.5623 313.665 90.8104 313.536C91.0604 313.405 91.2479 313.204 91.3729 312.931C91.4998 312.656 91.5633 312.302 91.5633 311.868C91.5633 311.439 91.4998 311.087 91.3729 310.814C91.2479 310.542 91.0614 310.341 90.8133 310.212C90.5652 310.083 90.2593 310.019 89.8957 310.019H89.1116V313.729ZM94.5018 314.783V308.965H98.4222V309.979H95.7319V311.366H98.2205V312.38H95.7319V313.769H98.4336V314.783H94.5018ZM100.2 314.783V308.965H102.496C102.935 308.965 103.31 309.044 103.621 309.201C103.933 309.356 104.171 309.577 104.334 309.863C104.499 310.147 104.581 310.481 104.581 310.866C104.581 311.252 104.498 311.584 104.331 311.863C104.164 312.139 103.923 312.351 103.606 312.499C103.292 312.647 102.911 312.721 102.464 312.721H100.927V311.732H102.266C102.5 311.732 102.695 311.7 102.851 311.635C103.006 311.571 103.122 311.474 103.197 311.346C103.275 311.217 103.314 311.057 103.314 310.866C103.314 310.672 103.275 310.51 103.197 310.377C103.122 310.244 103.005 310.144 102.848 310.076C102.693 310.006 102.497 309.971 102.26 309.971H101.43V314.783H100.2ZM103.342 312.135L104.788 314.783H103.43L102.016 312.135H103.342ZM109.406 310.638C109.384 310.409 109.286 310.231 109.114 310.104C108.941 309.977 108.708 309.914 108.412 309.914C108.211 309.914 108.042 309.942 107.904 309.999C107.765 310.054 107.659 310.131 107.585 310.229C107.513 310.328 107.477 310.439 107.477 310.564C107.474 310.669 107.495 310.76 107.543 310.837C107.592 310.915 107.659 310.982 107.745 311.039C107.83 311.094 107.928 311.142 108.04 311.184C108.152 311.224 108.271 311.258 108.398 311.286L108.921 311.411C109.174 311.468 109.407 311.544 109.62 311.638C109.832 311.733 110.015 311.849 110.171 311.988C110.326 312.126 110.446 312.289 110.531 312.476C110.619 312.664 110.663 312.879 110.665 313.121C110.663 313.477 110.572 313.786 110.392 314.047C110.214 314.307 109.957 314.509 109.62 314.653C109.284 314.795 108.88 314.866 108.406 314.866C107.937 314.866 107.528 314.794 107.179 314.65C106.833 314.506 106.562 314.293 106.367 314.01C106.174 313.726 106.072 313.375 106.063 312.956H107.253C107.266 313.152 107.322 313.314 107.421 313.445C107.521 313.574 107.655 313.671 107.821 313.738C107.99 313.802 108.18 313.834 108.392 313.834C108.601 313.834 108.781 313.804 108.935 313.743C109.09 313.683 109.21 313.599 109.296 313.491C109.381 313.383 109.424 313.259 109.424 313.118C109.424 312.988 109.385 312.878 109.307 312.789C109.231 312.7 109.12 312.624 108.972 312.562C108.826 312.499 108.647 312.442 108.435 312.391L107.801 312.232C107.311 312.113 106.924 311.926 106.639 311.672C106.355 311.419 106.214 311.077 106.216 310.647C106.214 310.295 106.308 309.987 106.497 309.724C106.689 309.46 106.951 309.255 107.284 309.107C107.618 308.959 107.996 308.885 108.421 308.885C108.852 308.885 109.229 308.959 109.551 309.107C109.875 309.255 110.127 309.46 110.307 309.724C110.487 309.987 110.58 310.292 110.585 310.638H109.406Z" fill="#6F727A"/>
<rect x="118" y="307.771" width="8.02524" height="8.02524" rx="2.00631" fill="#00BEBE"/>
<path d="M132.775 308.965V314.783H131.545V308.965H132.775ZM139.453 308.965V314.783H138.391L135.86 311.121H135.817V314.783H134.587V308.965H135.666L138.178 312.624H138.229V308.965H139.453ZM147.078 310.638C147.055 310.409 146.957 310.231 146.785 310.104C146.613 309.977 146.379 309.914 146.083 309.914C145.882 309.914 145.713 309.942 145.575 309.999C145.436 310.054 145.33 310.131 145.257 310.229C145.185 310.328 145.149 310.439 145.149 310.564C145.145 310.669 145.167 310.76 145.214 310.837C145.263 310.915 145.33 310.982 145.416 311.039C145.501 311.094 145.599 311.142 145.711 311.184C145.823 311.224 145.942 311.258 146.069 311.286L146.592 311.411C146.846 311.468 147.079 311.544 147.291 311.638C147.503 311.733 147.686 311.849 147.842 311.988C147.997 312.126 148.117 312.289 148.203 312.476C148.29 312.664 148.334 312.879 148.336 313.121C148.334 313.477 148.243 313.786 148.063 314.047C147.885 314.307 147.628 314.509 147.291 314.653C146.955 314.795 146.551 314.866 146.078 314.866C145.608 314.866 145.199 314.794 144.85 314.65C144.504 314.506 144.233 314.293 144.038 314.01C143.845 313.726 143.743 313.375 143.734 312.956H144.924C144.937 313.152 144.993 313.314 145.092 313.445C145.192 313.574 145.326 313.671 145.492 313.738C145.661 313.802 145.851 313.834 146.063 313.834C146.272 313.834 146.453 313.804 146.606 313.743C146.761 313.683 146.882 313.599 146.967 313.491C147.052 313.383 147.095 313.259 147.095 313.118C147.095 312.988 147.056 312.878 146.978 312.789C146.902 312.7 146.791 312.624 146.643 312.562C146.497 312.499 146.318 312.442 146.106 312.391L145.472 312.232C144.982 312.113 144.595 311.926 144.311 311.672C144.026 311.419 143.885 311.077 143.887 310.647C143.885 310.295 143.979 309.987 144.168 309.724C144.36 309.46 144.622 309.255 144.955 309.107C145.289 308.959 145.668 308.885 146.092 308.885C146.524 308.885 146.9 308.959 147.222 309.107C147.546 309.255 147.798 309.46 147.978 309.724C148.158 309.987 148.251 310.292 148.257 310.638H147.078ZM149.742 309.979V308.965H154.52V309.979H152.739V314.783H151.523V309.979H149.742ZM161.188 311.874C161.188 312.509 161.068 313.048 160.827 313.493C160.589 313.939 160.263 314.278 159.85 314.513C159.439 314.746 158.977 314.863 158.464 314.863C157.947 314.863 157.483 314.745 157.072 314.51C156.661 314.276 156.336 313.936 156.097 313.491C155.859 313.046 155.739 312.507 155.739 311.874C155.739 311.24 155.859 310.7 156.097 310.255C156.336 309.81 156.661 309.471 157.072 309.238C157.483 309.003 157.947 308.885 158.464 308.885C158.977 308.885 159.439 309.003 159.85 309.238C160.263 309.471 160.589 309.81 160.827 310.255C161.068 310.7 161.188 311.24 161.188 311.874ZM159.941 311.874C159.941 311.463 159.879 311.117 159.756 310.834C159.635 310.552 159.464 310.338 159.242 310.192C159.021 310.046 158.761 309.974 158.464 309.974C158.166 309.974 157.907 310.046 157.685 310.192C157.464 310.338 157.291 310.552 157.168 310.834C157.047 311.117 156.987 311.463 156.987 311.874C156.987 312.285 157.047 312.632 157.168 312.914C157.291 313.196 157.464 313.41 157.685 313.556C157.907 313.702 158.166 313.775 158.464 313.775C158.761 313.775 159.021 313.702 159.242 313.556C159.464 313.41 159.635 313.196 159.756 312.914C159.879 312.632 159.941 312.285 159.941 311.874ZM162.899 314.783V308.965H165.195C165.634 308.965 166.009 309.044 166.32 309.201C166.632 309.356 166.87 309.577 167.033 309.863C167.198 310.147 167.28 310.481 167.28 310.866C167.28 311.252 167.197 311.584 167.03 311.863C166.863 312.139 166.622 312.351 166.306 312.499C165.991 312.647 165.611 312.721 165.164 312.721H163.627V311.732H164.965C165.2 311.732 165.395 311.7 165.55 311.635C165.705 311.571 165.821 311.474 165.897 311.346C165.974 311.217 166.013 311.057 166.013 310.866C166.013 310.672 165.974 310.51 165.897 310.377C165.821 310.244 165.704 310.144 165.547 310.076C165.392 310.006 165.196 309.971 164.959 309.971H164.13V314.783H162.899ZM166.041 312.135L167.487 314.783H166.13L164.715 312.135H166.041ZM168.949 314.783V308.965H172.87V309.979H170.18V311.366H172.668V312.38H170.18V313.769H172.881V314.783H168.949ZM182.646 311.874C182.646 312.509 182.526 313.048 182.285 313.493C182.047 313.939 181.721 314.278 181.308 314.513C180.897 314.746 180.435 314.863 179.922 314.863C179.405 314.863 178.941 314.745 178.53 314.51C178.119 314.276 177.794 313.936 177.555 313.491C177.316 313.046 177.197 312.507 177.197 311.874C177.197 311.24 177.316 310.7 177.555 310.255C177.794 309.81 178.119 309.471 178.53 309.238C178.941 309.003 179.405 308.885 179.922 308.885C180.435 308.885 180.897 309.003 181.308 309.238C181.721 309.471 182.047 309.81 182.285 310.255C182.526 310.7 182.646 311.24 182.646 311.874ZM181.399 311.874C181.399 311.463 181.337 311.117 181.214 310.834C181.093 310.552 180.922 310.338 180.7 310.192C180.478 310.046 180.219 309.974 179.922 309.974C179.624 309.974 179.365 310.046 179.143 310.192C178.922 310.338 178.749 310.552 178.626 310.834C178.505 311.117 178.444 311.463 178.444 311.874C178.444 312.285 178.505 312.632 178.626 312.914C178.749 313.196 178.922 313.41 179.143 313.556C179.365 313.702 179.624 313.775 179.922 313.775C180.219 313.775 180.478 313.702 180.7 313.556C180.922 313.41 181.093 313.196 181.214 312.914C181.337 312.632 181.399 312.285 181.399 311.874ZM184.357 314.783V308.965H186.653C187.092 308.965 187.467 309.044 187.778 309.201C188.09 309.356 188.328 309.577 188.491 309.863C188.656 310.147 188.738 310.481 188.738 310.866C188.738 311.252 188.655 311.584 188.488 311.863C188.321 312.139 188.08 312.351 187.763 312.499C187.449 312.647 187.068 312.721 186.621 312.721H185.085V311.732H186.423C186.657 311.732 186.853 311.7 187.008 311.635C187.163 311.571 187.279 311.474 187.354 311.346C187.432 311.217 187.471 311.057 187.471 310.866C187.471 310.672 187.432 310.51 187.354 310.377C187.279 310.244 187.162 310.144 187.005 310.076C186.85 310.006 186.654 309.971 186.417 309.971H185.587V314.783H184.357ZM187.499 312.135L188.945 314.783H187.587L186.173 312.135H187.499ZM192.47 314.783H190.407V308.965H192.487C193.072 308.965 193.576 309.081 193.998 309.314C194.421 309.546 194.745 309.878 194.973 310.312C195.202 310.745 195.316 311.264 195.316 311.868C195.316 312.474 195.202 312.995 194.973 313.431C194.745 313.867 194.419 314.201 193.992 314.434C193.568 314.667 193.061 314.783 192.47 314.783ZM191.637 313.729H192.419C192.782 313.729 193.088 313.665 193.336 313.536C193.586 313.405 193.774 313.204 193.899 312.931C194.026 312.656 194.089 312.302 194.089 311.868C194.089 311.439 194.026 311.087 193.899 310.814C193.774 310.542 193.587 310.341 193.339 310.212C193.091 310.083 192.785 310.019 192.421 310.019H191.637V313.729ZM197.028 314.783V308.965H200.948V309.979H198.258V311.366H200.746V312.38H198.258V313.769H200.959V314.783H197.028ZM202.726 314.783V308.965H205.021C205.461 308.965 205.836 309.044 206.146 309.201C206.459 309.356 206.697 309.577 206.86 309.863C207.024 310.147 207.107 310.481 207.107 310.866C207.107 311.252 207.023 311.584 206.857 311.863C206.69 312.139 206.449 312.351 206.132 312.499C205.818 312.647 205.437 312.721 204.99 312.721H203.453V311.732H204.791C205.026 311.732 205.221 311.7 205.377 311.635C205.532 311.571 205.647 311.474 205.723 311.346C205.801 311.217 205.84 311.057 205.84 310.866C205.84 310.672 205.801 310.51 205.723 310.377C205.647 310.244 205.531 310.144 205.374 310.076C205.218 310.006 205.022 309.971 204.786 309.971H203.956V314.783H202.726ZM205.868 312.135L207.314 314.783H205.956L204.541 312.135H205.868ZM211.932 310.638C211.91 310.409 211.812 310.231 211.64 310.104C211.467 309.977 211.233 309.914 210.938 309.914C210.737 309.914 210.568 309.942 210.429 309.999C210.291 310.054 210.185 310.131 210.111 310.229C210.039 310.328 210.003 310.439 210.003 310.564C209.999 310.669 210.021 310.76 210.069 310.837C210.118 310.915 210.185 310.982 210.27 311.039C210.356 311.094 210.454 311.142 210.566 311.184C210.678 311.224 210.797 311.258 210.924 311.286L211.446 311.411C211.7 311.468 211.933 311.544 212.145 311.638C212.357 311.733 212.541 311.849 212.696 311.988C212.852 312.126 212.972 312.289 213.057 312.476C213.144 312.664 213.189 312.879 213.191 313.121C213.189 313.477 213.098 313.786 212.918 314.047C212.74 314.307 212.482 314.509 212.145 314.653C211.81 314.795 211.406 314.866 210.932 314.866C210.463 314.866 210.053 314.794 209.705 314.65C209.358 314.506 209.088 314.293 208.892 314.01C208.699 313.726 208.598 313.375 208.588 312.956H209.779C209.792 313.152 209.848 313.314 209.946 313.445C210.047 313.574 210.18 313.671 210.347 313.738C210.516 313.802 210.706 313.834 210.918 313.834C211.126 313.834 211.307 313.804 211.461 313.743C211.616 313.683 211.736 313.599 211.821 313.491C211.907 313.383 211.949 313.259 211.949 313.118C211.949 312.988 211.91 312.878 211.833 312.789C211.757 312.7 211.645 312.624 211.498 312.562C211.352 312.499 211.173 312.442 210.961 312.391L210.327 312.232C209.837 312.113 209.449 311.926 209.165 311.672C208.881 311.419 208.74 311.077 208.742 310.647C208.74 310.295 208.834 309.987 209.023 309.724C209.214 309.46 209.477 309.255 209.81 309.107C210.143 308.959 210.522 308.885 210.946 308.885C211.378 308.885 211.755 308.959 212.077 309.107C212.401 309.255 212.653 309.46 212.833 309.724C213.013 309.987 213.106 310.292 213.111 310.638H211.932Z" fill="#6F727A"/>
<g clip-path="url(#clip0_1603_12496)">
<path d="M0 8.5C0 3.80558 3.80558 0 8.5 0H309.542C314.236 0 318.042 3.80558 318.042 8.5V85H0V8.5Z" fill="white"/>
<rect x="0.354167" y="0.354167" width="108.292" height="85.125" fill="white"/>
<rect x="0.354167" y="0.354167" width="108.292" height="85.125" stroke="#E0E2E7" stroke-width="0.708333"/>
<path d="M17.3944 22.8831V21.7879H23.1486V22.8831H20.9195V29H19.6235V22.8831H17.3944ZM25.7766 29.1056C25.2483 29.1056 24.7905 28.9894 24.4032 28.757C24.0158 28.5246 23.7153 28.1994 23.5016 27.7815C23.2904 27.3637 23.1847 26.8753 23.1847 26.3166C23.1847 25.7578 23.2904 25.2683 23.5016 24.8481C23.7153 24.4279 24.0158 24.1015 24.4032 23.8691C24.7905 23.6367 25.2483 23.5205 25.7766 23.5205C26.3048 23.5205 26.7626 23.6367 27.15 23.8691C27.5373 24.1015 27.8367 24.4279 28.048 24.8481C28.2616 25.2683 28.3684 25.7578 28.3684 26.3166C28.3684 26.8753 28.2616 27.3637 28.048 27.7815C27.8367 28.1994 27.5373 28.5246 27.15 28.757C26.7626 28.9894 26.3048 29.1056 25.7766 29.1056ZM25.7836 28.0844C26.07 28.0844 26.3095 28.0058 26.502 27.8485C26.6945 27.6888 26.8377 27.4752 26.9316 27.2075C27.0279 26.9399 27.076 26.6417 27.076 26.3131C27.076 25.982 27.0279 25.6827 26.9316 25.4151C26.8377 25.1451 26.6945 24.9303 26.502 24.7706C26.3095 24.611 26.07 24.5312 25.7836 24.5312C25.4901 24.5312 25.246 24.611 25.0511 24.7706C24.8586 24.9303 24.7142 25.1451 24.618 25.4151C24.5241 25.6827 24.4771 25.982 24.4771 26.3131C24.4771 26.6417 24.5241 26.9399 24.618 27.2075C24.7142 27.4752 24.8586 27.6888 25.0511 27.8485C25.246 28.0058 25.4901 28.0844 25.7836 28.0844ZM32.1514 23.5909V24.5769H29.0419V23.5909H32.1514ZM29.8096 22.295H31.0844V27.373C31.0844 27.5444 31.1102 27.6759 31.1619 27.7675C31.2159 27.8567 31.2863 27.9177 31.3732 27.9506C31.46 27.9834 31.5563 27.9999 31.6619 27.9999C31.7418 27.9999 31.8145 27.994 31.8803 27.9823C31.9484 27.9705 32 27.96 32.0352 27.9506L32.25 28.9472C32.182 28.9707 32.0845 28.9965 31.9578 29.0247C31.8333 29.0528 31.6807 29.0693 31.5 29.074C31.1807 29.0833 30.8931 29.0352 30.6372 28.9296C30.3813 28.8216 30.1782 28.6549 30.028 28.4295C29.88 28.2041 29.8073 27.9224 29.8096 27.5843V22.295ZM34.7741 29.1092C34.4313 29.1092 34.1226 29.0481 33.8479 28.926C33.5756 28.8016 33.3596 28.6185 33.2 28.3767C33.0427 28.1349 32.964 27.8367 32.964 27.4822C32.964 27.177 33.0204 26.9246 33.1331 26.7251C33.2458 26.5255 33.3995 26.3659 33.5944 26.2462C33.7893 26.1264 34.0088 26.036 34.2529 25.975C34.4994 25.9116 34.7542 25.8658 35.0171 25.8377C35.334 25.8048 35.5911 25.7754 35.7883 25.7496C35.9855 25.7214 36.1287 25.6792 36.2179 25.6228C36.3095 25.5641 36.3553 25.4738 36.3553 25.3517V25.3306C36.3553 25.0653 36.2766 24.8598 36.1193 24.7143C35.962 24.5687 35.7355 24.4959 35.4397 24.4959C35.1274 24.4959 34.8798 24.564 34.6966 24.7002C34.5159 24.8364 34.3938 24.9972 34.3304 25.1826L33.1401 25.0136C33.234 24.6849 33.389 24.4103 33.605 24.1896C33.8209 23.9665 34.0851 23.7999 34.3973 23.6895C34.7095 23.5768 35.0547 23.5205 35.4326 23.5205C35.6932 23.5205 35.9527 23.551 36.2109 23.612C36.4691 23.6731 36.7051 23.774 36.9187 23.9149C37.1324 24.0534 37.3038 24.2424 37.4329 24.4819C37.5643 24.7213 37.6301 25.0207 37.6301 25.3799V29H36.4046V28.257H36.3623C36.2849 28.4072 36.1757 28.5481 36.0348 28.6795C35.8963 28.8087 35.7214 28.9131 35.5101 28.993C35.3012 29.0704 35.0558 29.1092 34.7741 29.1092ZM35.1051 28.1724C35.361 28.1724 35.5829 28.122 35.7707 28.021C35.9585 27.9177 36.1029 27.7815 36.2039 27.6125C36.3072 27.4435 36.3588 27.2592 36.3588 27.0596V26.4222C36.3189 26.4551 36.2508 26.4856 36.1546 26.5138C36.0606 26.542 35.955 26.5666 35.8376 26.5877C35.7202 26.6089 35.604 26.6277 35.489 26.6441C35.3739 26.6605 35.2742 26.6746 35.1897 26.6863C34.9995 26.7122 34.8293 26.7544 34.679 26.8131C34.5288 26.8718 34.4102 26.954 34.3234 27.0596C34.2365 27.1629 34.1931 27.2967 34.1931 27.4611C34.1931 27.6959 34.2787 27.8731 34.4501 27.9928C34.6215 28.1126 34.8398 28.1724 35.1051 28.1724ZM40.1867 21.7879V29H38.9119V21.7879H40.1867ZM50.4582 25.3939C50.4582 26.171 50.3126 26.8366 50.0215 27.3907C49.7327 27.9424 49.3383 28.3649 48.8383 28.6584C48.3406 28.9519 47.7759 29.0986 47.1444 29.0986C46.5129 29.0986 45.9471 28.9519 45.447 28.6584C44.9493 28.3626 44.5549 27.9388 44.2638 27.3871C43.975 26.8331 43.8306 26.1687 43.8306 25.3939C43.8306 24.6169 43.975 23.9525 44.2638 23.4007C44.5549 22.8467 44.9493 22.4229 45.447 22.1295C45.9471 21.836 46.5129 21.6893 47.1444 21.6893C47.7759 21.6893 48.3406 21.836 48.8383 22.1295C49.3383 22.4229 49.7327 22.8467 50.0215 23.4007C50.3126 23.9525 50.4582 24.6169 50.4582 25.3939ZM49.1446 25.3939C49.1446 24.8469 49.059 24.3856 48.8876 24.01C48.7185 23.632 48.4838 23.3467 48.1833 23.1542C47.8828 22.9594 47.5365 22.862 47.1444 22.862C46.7523 22.862 46.4061 22.9594 46.1056 23.1542C45.805 23.3467 45.5691 23.632 45.3977 24.01C45.2287 24.3856 45.1442 24.8469 45.1442 25.3939C45.1442 25.941 45.2287 26.4034 45.3977 26.7814C45.5691 27.1571 45.805 27.4423 46.1056 27.6372C46.4061 27.8297 46.7523 27.9259 47.1444 27.9259C47.5365 27.9259 47.8828 27.8297 48.1833 27.6372C48.4838 27.4423 48.7185 27.1571 48.8876 26.7814C49.059 26.4034 49.1446 25.941 49.1446 25.3939ZM51.637 29V23.5909H52.8731V24.4924H52.9294C53.028 24.1802 53.1971 23.9395 53.4365 23.7705C53.6783 23.5991 53.9542 23.5134 54.2641 23.5134C54.3345 23.5134 54.4132 23.517 54.5 23.524C54.5892 23.5287 54.6632 23.5369 54.7219 23.5487V24.7213C54.6679 24.7025 54.5822 24.6861 54.4648 24.672C54.3498 24.6556 54.2383 24.6474 54.1303 24.6474C53.8979 24.6474 53.6889 24.6978 53.5034 24.7988C53.3203 24.8974 53.1759 25.0347 53.0703 25.2108C52.9646 25.3869 52.9118 25.59 52.9118 25.82V29H51.637ZM57.3534 29.0951C56.9284 29.0951 56.5481 28.9859 56.2124 28.7676C55.8767 28.5492 55.6114 28.2323 55.4165 27.8168C55.2217 27.4012 55.1242 26.8965 55.1242 26.3025C55.1242 25.7015 55.2228 25.1944 55.42 24.7812C55.6196 24.3656 55.8884 24.0522 56.2265 23.8409C56.5645 23.6273 56.9413 23.5205 57.3569 23.5205C57.6738 23.5205 57.9344 23.5745 58.1387 23.6825C58.3429 23.7881 58.5049 23.9161 58.6246 24.0663C58.7444 24.2142 58.8371 24.3539 58.9028 24.4854H58.9557V21.7879H60.234V29H58.9803V28.1478H58.9028C58.8371 28.2793 58.742 28.4189 58.6176 28.5669C58.4932 28.7124 58.3288 28.8368 58.1246 28.9401C57.9203 29.0434 57.6633 29.0951 57.3534 29.0951ZM57.709 28.0492C57.979 28.0492 58.2091 27.9764 58.3993 27.8308C58.5894 27.6829 58.7338 27.4775 58.8324 27.2146C58.931 26.9516 58.9803 26.6453 58.9803 26.2955C58.9803 25.9456 58.931 25.6416 58.8324 25.3834C58.7362 25.1251 58.5929 24.9244 58.4028 24.7812C58.215 24.638 57.9837 24.5664 57.709 24.5664C57.425 24.5664 57.1879 24.6403 56.9977 24.7882C56.8075 24.9361 56.6643 25.1404 56.5681 25.401C56.4718 25.6616 56.4237 25.9597 56.4237 26.2955C56.4237 26.6335 56.4718 26.9352 56.5681 27.2005C56.6667 27.4634 56.811 27.6712 57.0012 27.8238C57.1937 27.9741 57.4297 28.0492 57.709 28.0492ZM63.9871 29.1056C63.4448 29.1056 62.9764 28.993 62.582 28.7676C62.1899 28.5399 61.8882 28.2182 61.6769 27.8027C61.4656 27.3848 61.36 26.8929 61.36 26.3271C61.36 25.7707 61.4656 25.2824 61.6769 24.8622C61.8906 24.4396 62.1887 24.1109 62.5714 23.8762C62.9541 23.639 63.4037 23.5205 63.9202 23.5205C64.2535 23.5205 64.5681 23.5745 64.8639 23.6825C65.1621 23.7881 65.425 23.9525 65.6528 24.1755C65.8828 24.3985 66.0636 24.6826 66.1951 25.0277C66.3266 25.3705 66.3923 25.779 66.3923 26.2532V26.6441H61.9587V25.7848H65.1703C65.168 25.5407 65.1151 25.3235 65.0118 25.1333C64.9085 24.9408 64.7642 24.7894 64.5787 24.6791C64.3956 24.5687 64.1819 24.5136 63.9378 24.5136C63.6772 24.5136 63.4483 24.5769 63.2511 24.7037C63.0539 24.8281 62.9001 24.9925 62.7897 25.1967C62.6818 25.3986 62.6266 25.6205 62.6242 25.8623V26.6124C62.6242 26.927 62.6818 27.197 62.7968 27.4223C62.9118 27.6454 63.0726 27.8168 63.2792 27.9365C63.4858 28.0539 63.7277 28.1126 64.0047 28.1126C64.1901 28.1126 64.358 28.0867 64.5083 28.0351C64.6585 27.9811 64.7888 27.9025 64.8992 27.7992C65.0095 27.6959 65.0928 27.5679 65.1492 27.4153L66.3395 27.5491C66.2643 27.8637 66.1211 28.1384 65.9098 28.3732C65.7009 28.6056 65.4333 28.7864 65.1069 28.9155C64.7806 29.0423 64.4073 29.1056 63.9871 29.1056ZM67.4708 29V23.5909H68.7068V24.4924H68.7632C68.8618 24.1802 69.0308 23.9395 69.2703 23.7705C69.5121 23.5991 69.7879 23.5134 70.0978 23.5134C70.1683 23.5134 70.2469 23.517 70.3338 23.524C70.423 23.5287 70.4969 23.5369 70.5556 23.5487V24.7213C70.5016 24.7025 70.4159 24.6861 70.2986 24.672C70.1835 24.6556 70.072 24.6474 69.964 24.6474C69.7316 24.6474 69.5226 24.6978 69.3372 24.7988C69.1541 24.8974 69.0097 25.0347 68.904 25.2108C68.7984 25.3869 68.7456 25.59 68.7456 25.82V29H67.4708ZM75.6777 25.0207L74.5156 25.1474C74.4827 25.03 74.4252 24.9197 74.3431 24.8164C74.2632 24.7131 74.1552 24.6298 74.0191 24.5664C73.8829 24.503 73.7162 24.4713 73.519 24.4713C73.2537 24.4713 73.0307 24.5288 72.8499 24.6439C72.6715 24.7589 72.5835 24.908 72.5858 25.0911C72.5835 25.2484 72.641 25.3763 72.7584 25.4749C72.8781 25.5735 73.0753 25.6545 73.35 25.7179L74.2726 25.9151C74.7844 26.0255 75.1647 26.2004 75.4136 26.4398C75.6648 26.6793 75.7916 26.9927 75.7939 27.3801C75.7916 27.7205 75.6918 28.021 75.4946 28.2816C75.2997 28.5399 75.0286 28.7418 74.6811 28.8873C74.3337 29.0329 73.9346 29.1056 73.4838 29.1056C72.8217 29.1056 72.2888 28.9671 71.885 28.6901C71.4812 28.4107 71.2406 28.0222 71.1631 27.5245L72.4062 27.4047C72.4625 27.6489 72.5823 27.8332 72.7654 27.9576C72.9485 28.0821 73.1868 28.1443 73.4803 28.1443C73.7831 28.1443 74.0261 28.0821 74.2092 27.9576C74.3947 27.8332 74.4874 27.6794 74.4874 27.4963C74.4874 27.3414 74.4276 27.2134 74.3078 27.1125C74.1905 27.0115 74.0073 26.934 73.7585 26.88L72.8358 26.6863C72.317 26.5784 71.9331 26.3964 71.6843 26.1405C71.4354 25.8823 71.3122 25.5559 71.3145 25.1615C71.3122 24.8281 71.4026 24.5394 71.5857 24.2952C71.7712 24.0487 72.0282 23.8585 72.3569 23.7247C72.6879 23.5886 73.0694 23.5205 73.5014 23.5205C74.1353 23.5205 74.6342 23.6555 74.9981 23.9255C75.3643 24.1954 75.5909 24.5605 75.6777 25.0207Z" fill="#6F727A"/>
<path d="M25.6207 62.0875C24.6669 62.0815 23.7463 61.9215 22.8588 61.6076C21.9775 61.2937 21.1866 60.7836 20.4863 60.0772C19.786 59.3709 19.2306 58.4352 18.8201 57.2701C18.4157 56.1049 18.2134 54.6742 18.2134 52.9778C18.2195 51.4203 18.3975 50.0288 18.7477 48.8033C19.1039 47.5717 19.611 46.5273 20.269 45.6701C20.9331 44.8129 21.7269 44.1609 22.6506 43.7141C23.5742 43.2614 24.6096 43.035 25.7566 43.035C26.9941 43.035 28.0868 43.2765 29.0346 43.7594C29.9824 44.2363 30.7431 44.8853 31.3166 45.7063C31.8961 46.5273 32.2463 47.448 32.367 48.4682H28.5004C28.3494 47.8223 28.0325 47.3152 27.5495 46.9469C27.0666 46.5787 26.4689 46.3945 25.7566 46.3945C24.5492 46.3945 23.6316 46.9197 23.0037 47.9702C22.3819 49.0206 22.065 50.4483 22.0529 52.2534H22.1797C22.4574 51.704 22.8317 51.2362 23.3026 50.8498C23.7795 50.4574 24.3198 50.1586 24.9235 49.9533C25.5332 49.742 26.1761 49.6364 26.8523 49.6364C27.951 49.6364 28.929 49.896 29.7862 50.4151C30.6435 50.9283 31.3196 51.6346 31.8146 52.5341C32.3097 53.4336 32.5572 54.4629 32.5572 55.622C32.5572 56.8777 32.2644 57.9945 31.6788 58.9725C31.0993 59.9505 30.2873 60.7172 29.2429 61.2725C28.2045 61.8219 26.9972 62.0936 25.6207 62.0875ZM25.6026 59.0087C26.2063 59.0087 26.7466 58.8638 27.2235 58.574C27.7005 58.2843 28.0748 57.8919 28.3464 57.3968C28.6181 56.9018 28.7539 56.3464 28.7539 55.7306C28.7539 55.1149 28.6181 54.5625 28.3464 54.0735C28.0808 53.5845 27.7125 53.1951 27.2417 52.9054C26.7708 52.6156 26.2335 52.4707 25.6298 52.4707C25.177 52.4707 24.7575 52.5552 24.3711 52.7243C23.9908 52.8933 23.6557 53.1287 23.3659 53.4306C23.0822 53.7324 22.8588 54.0826 22.6958 54.481C22.5328 54.8734 22.4513 55.293 22.4513 55.7397C22.4513 56.3374 22.5872 56.8837 22.8588 57.3787C23.1365 57.8738 23.5108 58.2692 23.9817 58.565C24.4586 58.8608 24.9989 59.0087 25.6026 59.0087ZM38.7941 59.2985L38.6945 60.2946C38.616 61.0914 38.4651 61.8853 38.2417 62.6761C38.0244 63.473 37.795 64.1944 37.5535 64.8404C37.318 65.4863 37.1279 65.9934 36.983 66.3617H34.4837C34.5743 66.0055 34.698 65.5075 34.855 64.8675C35.0119 64.2337 35.1598 63.5213 35.2987 62.7305C35.4375 61.9396 35.5251 61.1337 35.5613 60.3127L35.6066 59.2985H38.7941ZM42.0042 58.574V55.4862L49.7466 43.2885H52.4089V47.5627H50.8332L45.9524 55.2869V55.4318H56.9547V58.574H42.0042ZM50.9057 61.834V57.6323L50.9781 56.2649V43.2885H54.6546V61.834H50.9057ZM66.3406 62.0875C65.0608 62.0875 63.9198 61.8521 62.9177 61.3812C61.9216 60.9103 61.1307 60.2614 60.5451 59.4343C59.9596 58.6072 59.6547 57.6594 59.6305 56.5909H63.4338C63.4761 57.3093 63.7779 57.8919 64.3394 58.3386C64.9008 58.7853 65.5679 59.0087 66.3406 59.0087C66.9564 59.0087 67.4997 58.8729 67.9706 58.6012C68.4475 58.3235 68.8188 57.9402 69.0844 57.4512C69.356 56.9561 69.4919 56.3887 69.4919 55.7488C69.4919 55.0968 69.353 54.5233 69.0753 54.0282C68.8037 53.5332 68.4264 53.1468 67.9434 52.8691C67.4604 52.5914 66.9081 52.4496 66.2863 52.4435C65.7429 52.4435 65.2147 52.5552 64.7016 52.7786C64.1945 53.002 63.799 53.3068 63.5153 53.6932L60.029 53.0684L60.9074 43.2885H72.2447V46.4941H64.1401L63.6602 51.1396H63.7689C64.0949 50.6808 64.5869 50.3004 65.2449 49.9986C65.9029 49.6967 66.6394 49.5458 67.4544 49.5458C68.5712 49.5458 69.5673 49.8084 70.4427 50.3336C71.318 50.8588 72.0093 51.5803 72.5164 52.4979C73.0235 53.4094 73.274 54.4599 73.268 55.6491C73.274 56.8988 72.9842 58.0096 72.3987 58.9815C71.8191 59.9474 71.0071 60.7081 69.9628 61.2635C68.9244 61.8129 67.717 62.0875 66.3406 62.0875ZM82.8576 62.0875C81.5054 62.0875 80.301 61.8551 79.2445 61.3903C78.1941 60.9194 77.364 60.2734 76.7543 59.4524C76.1506 58.6254 75.8397 57.6715 75.8216 56.5909H79.7697C79.7939 57.0437 79.9418 57.4421 80.2135 57.7862C80.4912 58.1243 80.8594 58.3869 81.3182 58.574C81.777 58.7612 82.2932 58.8548 82.8667 58.8548C83.4643 58.8548 83.9926 58.7491 84.4514 58.5378C84.9102 58.3265 85.2694 58.0337 85.529 57.6594C85.7886 57.2852 85.9184 56.8535 85.9184 56.3645C85.9184 55.8695 85.7795 55.4318 85.5018 55.0515C85.2302 54.6651 84.8377 54.3633 84.3246 54.146C83.8175 53.9286 83.2138 53.82 82.5135 53.82H80.7839V50.9403H82.5135C83.1051 50.9403 83.6273 50.8377 84.0801 50.6325C84.5389 50.4272 84.8951 50.1435 85.1487 49.7813C85.4022 49.413 85.529 48.9844 85.529 48.4954C85.529 48.0305 85.4173 47.623 85.1939 47.2729C84.9766 46.9167 84.6687 46.639 84.2703 46.4398C83.8779 46.2406 83.4191 46.141 82.8939 46.141C82.3626 46.141 81.8766 46.2376 81.4359 46.4308C80.9952 46.6179 80.6421 46.8865 80.3765 47.2367C80.1108 47.5868 79.969 47.9973 79.9509 48.4682H76.1929C76.211 47.3997 76.5158 46.4579 77.1075 45.6429C77.6991 44.8279 78.496 44.1911 79.4981 43.7322C80.5063 43.2674 81.6442 43.035 82.912 43.035C84.1918 43.035 85.3116 43.2674 86.2715 43.7322C87.2314 44.1971 87.977 44.8249 88.5082 45.6158C89.0455 46.4006 89.3111 47.282 89.3051 48.2599C89.3111 49.2983 88.9881 50.1646 88.3362 50.8588C87.6902 51.5531 86.848 51.9938 85.8097 52.1809V52.3258C87.174 52.5009 88.2124 52.9748 88.9248 53.7475C89.6431 54.5142 89.9993 55.4741 89.9933 56.6271C89.9993 57.6836 89.6945 58.6223 89.0787 59.4434C88.469 60.2644 87.6268 60.9103 86.5522 61.3812C85.4777 61.8521 84.2461 62.0875 82.8576 62.0875Z" fill="#232325"/>
<rect x="108.729" y="0.354167" width="105.292" height="85.125" fill="white"/>
<rect x="108.729" y="0.354167" width="105.292" height="85.125" stroke="#E0E2E7" stroke-width="0.708333"/>
<path d="M132.531 25.3939C132.531 26.171 132.385 26.8366 132.094 27.3907C131.805 27.9424 131.411 28.3649 130.911 28.6584C130.413 28.9519 129.849 29.0986 129.217 29.0986C128.585 29.0986 128.02 28.9519 127.52 28.6584C127.022 28.3626 126.627 27.9388 126.336 27.3871C126.048 26.8331 125.903 26.1687 125.903 25.3939C125.903 24.6169 126.048 23.9525 126.336 23.4007C126.627 22.8467 127.022 22.4229 127.52 22.1295C128.02 21.836 128.585 21.6893 129.217 21.6893C129.849 21.6893 130.413 21.836 130.911 22.1295C131.411 22.4229 131.805 22.8467 132.094 23.4007C132.385 23.9525 132.531 24.6169 132.531 25.3939ZM131.217 25.3939C131.217 24.8469 131.132 24.3856 130.96 24.01C130.791 23.632 130.556 23.3467 130.256 23.1542C129.955 22.9594 129.609 22.862 129.217 22.862C128.825 22.862 128.479 22.9594 128.178 23.1542C127.878 23.3467 127.642 23.632 127.47 24.01C127.301 24.3856 127.217 24.8469 127.217 25.3939C127.217 25.941 127.301 26.4034 127.47 26.7814C127.642 27.1571 127.878 27.4423 128.178 27.6372C128.479 27.8297 128.825 27.9259 129.217 27.9259C129.609 27.9259 129.955 27.8297 130.256 27.6372C130.556 27.4423 130.791 27.1571 130.96 26.7814C131.132 26.4034 131.217 25.941 131.217 25.3939ZM134.984 25.8306V29H133.71V23.5909H134.928V24.51H134.991C135.116 24.2072 135.314 23.9665 135.587 23.7881C135.861 23.6097 136.201 23.5205 136.604 23.5205C136.978 23.5205 137.303 23.6003 137.58 23.7599C137.859 23.9196 138.075 24.1508 138.228 24.4537C138.383 24.7565 138.459 25.124 138.457 25.5559V29H137.182V25.7531C137.182 25.3916 137.088 25.1087 136.9 24.9044C136.715 24.7002 136.458 24.5981 136.129 24.5981C135.906 24.5981 135.708 24.6474 135.534 24.746C135.362 24.8422 135.227 24.9819 135.129 25.165C135.033 25.3482 134.984 25.57 134.984 25.8306ZM141.027 21.7879V29H139.753V21.7879H141.027ZM142.338 29V23.5909H143.613V29H142.338ZM142.979 22.8232C142.777 22.8232 142.604 22.7563 142.458 22.6225C142.312 22.4863 142.24 22.3232 142.24 22.133C142.24 21.9405 142.312 21.7773 142.458 21.6435C142.604 21.5073 142.777 21.4392 142.979 21.4392C143.183 21.4392 143.357 21.5073 143.5 21.6435C143.646 21.7773 143.719 21.9405 143.719 22.133C143.719 22.3232 143.646 22.4863 143.5 22.6225C143.357 22.7563 143.183 22.8232 142.979 22.8232ZM146.199 25.8306V29H144.924V23.5909H146.142V24.51H146.206C146.33 24.2072 146.529 23.9665 146.801 23.7881C147.076 23.6097 147.415 23.5205 147.819 23.5205C148.192 23.5205 148.517 23.6003 148.794 23.7599C149.074 23.9196 149.29 24.1508 149.442 24.4537C149.597 24.7565 149.673 25.124 149.671 25.5559V29H148.396V25.7531C148.396 25.3916 148.302 25.1087 148.114 24.9044C147.929 24.7002 147.672 24.5981 147.343 24.5981C147.12 24.5981 146.922 24.6474 146.748 24.746C146.577 24.8422 146.442 24.9819 146.343 25.165C146.247 25.3482 146.199 25.57 146.199 25.8306ZM153.362 29.1056C152.819 29.1056 152.351 28.993 151.956 28.7676C151.564 28.5399 151.263 28.2182 151.051 27.8027C150.84 27.3848 150.735 26.8929 150.735 26.3271C150.735 25.7707 150.84 25.2824 151.051 24.8622C151.265 24.4396 151.563 24.1109 151.946 23.8762C152.329 23.639 152.778 23.5205 153.295 23.5205C153.628 23.5205 153.943 23.5745 154.238 23.6825C154.537 23.7881 154.8 23.9525 155.027 24.1755C155.257 24.3985 155.438 24.6826 155.57 25.0277C155.701 25.3705 155.767 25.779 155.767 26.2532V26.6441H151.333V25.7848H154.545C154.542 25.5407 154.49 25.3235 154.386 25.1333C154.283 24.9408 154.139 24.7894 153.953 24.6791C153.77 24.5687 153.556 24.5136 153.312 24.5136C153.052 24.5136 152.823 24.5769 152.626 24.7037C152.428 24.8281 152.275 24.9925 152.164 25.1967C152.056 25.3986 152.001 25.6205 151.999 25.8623V26.6124C151.999 26.927 152.056 27.197 152.171 27.4223C152.286 27.6454 152.447 27.8168 152.654 27.9365C152.86 28.0539 153.102 28.1126 153.379 28.1126C153.565 28.1126 153.733 28.0867 153.883 28.0351C154.033 27.9811 154.163 27.9025 154.274 27.7992C154.384 27.6959 154.467 27.5679 154.524 27.4153L155.714 27.5491C155.639 27.8637 155.496 28.1384 155.284 28.3732C155.075 28.6056 154.808 28.7864 154.481 28.9155C154.155 29.0423 153.782 29.1056 153.362 29.1056ZM163.281 23.7705C163.248 23.463 163.11 23.2235 162.865 23.0521C162.624 22.8807 162.309 22.795 161.922 22.795C161.649 22.795 161.416 22.8361 161.221 22.9183C161.026 23.0005 160.877 23.112 160.774 23.2528C160.67 23.3937 160.617 23.5545 160.615 23.7353C160.615 23.8855 160.649 24.0158 160.717 24.1262C160.788 24.2365 160.883 24.3304 161.002 24.4079C161.122 24.483 161.255 24.5464 161.4 24.5981C161.546 24.6497 161.693 24.6932 161.841 24.7284L162.517 24.8974C162.789 24.9608 163.051 25.0465 163.302 25.1545C163.556 25.2625 163.782 25.3986 163.982 25.563C164.184 25.7273 164.343 25.9257 164.461 26.1581C164.578 26.3905 164.637 26.6629 164.637 26.9751C164.637 27.3977 164.529 27.7698 164.313 28.0914C164.097 28.4107 163.784 28.6608 163.376 28.8415C162.97 29.02 162.478 29.1092 161.9 29.1092C161.339 29.1092 160.852 29.0223 160.439 28.8486C160.028 28.6748 159.707 28.4213 159.474 28.0879C159.244 27.7545 159.12 27.3484 159.101 26.8695H160.386C160.405 27.1207 160.482 27.3296 160.619 27.4963C160.755 27.663 160.932 27.7874 161.15 27.8696C161.371 27.9518 161.618 27.9928 161.89 27.9928C162.174 27.9928 162.423 27.9506 162.636 27.8661C162.852 27.7792 163.021 27.6595 163.144 27.5069C163.266 27.3519 163.328 27.1711 163.33 26.9645C163.328 26.7767 163.273 26.6218 163.165 26.4997C163.057 26.3753 162.905 26.272 162.71 26.1898C162.518 26.1053 162.293 26.0302 162.034 25.9644L161.214 25.7531C160.62 25.6005 160.15 25.3693 159.805 25.0594C159.462 24.7471 159.291 24.3328 159.291 23.8163C159.291 23.3914 159.406 23.0192 159.636 22.7C159.869 22.3807 160.184 22.133 160.583 21.9569C160.982 21.7785 161.434 21.6893 161.939 21.6893C162.451 21.6893 162.899 21.7785 163.284 21.9569C163.672 22.133 163.976 22.3783 164.196 22.6929C164.417 23.0052 164.531 23.3644 164.538 23.7705H163.281ZM167.302 29.1092C166.959 29.1092 166.65 29.0481 166.375 28.926C166.103 28.8016 165.887 28.6185 165.727 28.3767C165.57 28.1349 165.492 27.8367 165.492 27.4822C165.492 27.177 165.548 26.9246 165.661 26.7251C165.773 26.5255 165.927 26.3659 166.122 26.2462C166.317 26.1264 166.536 26.036 166.78 25.975C167.027 25.9116 167.282 25.8658 167.545 25.8377C167.862 25.8048 168.119 25.7754 168.316 25.7496C168.513 25.7214 168.656 25.6792 168.745 25.6228C168.837 25.5641 168.883 25.4738 168.883 25.3517V25.3306C168.883 25.0653 168.804 24.8598 168.647 24.7143C168.49 24.5687 168.263 24.4959 167.967 24.4959C167.655 24.4959 167.407 24.564 167.224 24.7002C167.043 24.8364 166.921 24.9972 166.858 25.1826L165.668 25.0136C165.762 24.6849 165.916 24.4103 166.132 24.1896C166.348 23.9665 166.613 23.7999 166.925 23.6895C167.237 23.5768 167.582 23.5205 167.96 23.5205C168.221 23.5205 168.48 23.551 168.738 23.612C168.997 23.6731 169.233 23.774 169.446 23.9149C169.66 24.0534 169.831 24.2424 169.96 24.4819C170.092 24.7213 170.158 25.0207 170.158 25.3799V29H168.932V28.257H168.89C168.812 28.4072 168.703 28.5481 168.562 28.6795C168.424 28.8087 168.249 28.9131 168.038 28.993C167.829 29.0704 167.583 29.1092 167.302 29.1092ZM167.633 28.1724C167.889 28.1724 168.11 28.122 168.298 28.021C168.486 27.9177 168.63 27.7815 168.731 27.6125C168.835 27.4435 168.886 27.2592 168.886 27.0596V26.4222C168.846 26.4551 168.778 26.4856 168.682 26.5138C168.588 26.542 168.483 26.5666 168.365 26.5877C168.248 26.6089 168.132 26.6277 168.016 26.6441C167.901 26.6605 167.802 26.6746 167.717 26.6863C167.527 26.7122 167.357 26.7544 167.207 26.8131C167.056 26.8718 166.938 26.954 166.851 27.0596C166.764 27.1629 166.721 27.2967 166.721 27.4611C166.721 27.6959 166.806 27.8731 166.978 27.9928C167.149 28.1126 167.367 28.1724 167.633 28.1724ZM172.714 21.7879V29H171.439V21.7879H172.714ZM176.42 29.1056C175.877 29.1056 175.409 28.993 175.015 28.7676C174.623 28.5399 174.321 28.2182 174.11 27.8027C173.898 27.3848 173.793 26.8929 173.793 26.3271C173.793 25.7707 173.898 25.2824 174.11 24.8622C174.323 24.4396 174.621 24.1109 175.004 23.8762C175.387 23.639 175.836 23.5205 176.353 23.5205C176.686 23.5205 177.001 23.5745 177.297 23.6825C177.595 23.7881 177.858 23.9525 178.085 24.1755C178.316 24.3985 178.496 24.6826 178.628 25.0277C178.759 25.3705 178.825 25.779 178.825 26.2532V26.6441H174.391V25.7848H177.603C177.601 25.5407 177.548 25.3235 177.445 25.1333C177.341 24.9408 177.197 24.7894 177.011 24.6791C176.828 24.5687 176.615 24.5136 176.37 24.5136C176.11 24.5136 175.881 24.5769 175.684 24.7037C175.487 24.8281 175.333 24.9925 175.222 25.1967C175.114 25.3986 175.059 25.6205 175.057 25.8623V26.6124C175.057 26.927 175.114 27.197 175.229 27.4223C175.345 27.6454 175.505 27.8168 175.712 27.9365C175.919 28.0539 176.16 28.1126 176.437 28.1126C176.623 28.1126 176.791 28.0867 176.941 28.0351C177.091 27.9811 177.222 27.9025 177.332 27.7992C177.442 27.6959 177.526 27.5679 177.582 27.4153L178.772 27.5491C178.697 27.8637 178.554 28.1384 178.343 28.3732C178.134 28.6056 177.866 28.7864 177.54 28.9155C177.213 29.0423 176.84 29.1056 176.42 29.1056ZM184.179 25.0207L183.017 25.1474C182.984 25.03 182.926 24.9197 182.844 24.8164C182.764 24.7131 182.656 24.6298 182.52 24.5664C182.384 24.503 182.217 24.4713 182.02 24.4713C181.755 24.4713 181.532 24.5288 181.351 24.6439C181.172 24.7589 181.084 24.908 181.087 25.0911C181.084 25.2484 181.142 25.3763 181.259 25.4749C181.379 25.5735 181.576 25.6545 181.851 25.7179L182.774 25.9151C183.285 26.0255 183.666 26.2004 183.914 26.4398C184.166 26.6793 184.292 26.9927 184.295 27.3801C184.292 27.7205 184.193 28.021 183.995 28.2816C183.801 28.5399 183.529 28.7418 183.182 28.8873C182.835 29.0329 182.435 29.1056 181.985 29.1056C181.323 29.1056 180.79 28.9671 180.386 28.6901C179.982 28.4107 179.741 28.0222 179.664 27.5245L180.907 27.4047C180.963 27.6489 181.083 27.8332 181.266 27.9576C181.449 28.0821 181.688 28.1443 181.981 28.1443C182.284 28.1443 182.527 28.0821 182.71 27.9576C182.896 27.8332 182.988 27.6794 182.988 27.4963C182.988 27.3414 182.928 27.2134 182.809 27.1125C182.691 27.0115 182.508 26.934 182.259 26.88L181.337 26.6863C180.818 26.5784 180.434 26.3964 180.185 26.1405C179.936 25.8823 179.813 25.5559 179.815 25.1615C179.813 24.8281 179.903 24.5394 180.087 24.2952C180.272 24.0487 180.529 23.8585 180.858 23.7247C181.189 23.5886 181.57 23.5205 182.002 23.5205C182.636 23.5205 183.135 23.6555 183.499 23.9255C183.865 24.1954 184.092 24.5605 184.179 25.0207Z" fill="#00BEBE"/>
<path d="M133.733 62.0875C132.381 62.0875 131.176 61.8551 130.12 61.3903C129.07 60.9194 128.24 60.2734 127.63 59.4524C127.026 58.6254 126.715 57.6715 126.697 56.5909H130.645C130.669 57.0437 130.817 57.4421 131.089 57.7862C131.367 58.1243 131.735 58.3869 132.194 58.574C132.653 58.7612 133.169 58.8548 133.742 58.8548C134.34 58.8548 134.868 58.7491 135.327 58.5378C135.786 58.3265 136.145 58.0337 136.404 57.6594C136.664 57.2852 136.794 56.8535 136.794 56.3645C136.794 55.8695 136.655 55.4318 136.377 55.0515C136.106 54.6651 135.713 54.3633 135.2 54.146C134.693 53.9286 134.089 53.82 133.389 53.82H131.659V50.9403H133.389C133.981 50.9403 134.503 50.8377 134.956 50.6325C135.414 50.4272 135.771 50.1435 136.024 49.7813C136.278 49.413 136.404 48.9844 136.404 48.4954C136.404 48.0305 136.293 47.623 136.069 47.2729C135.852 46.9167 135.544 46.639 135.146 46.4398C134.753 46.2406 134.295 46.141 133.769 46.141C133.238 46.141 132.752 46.2376 132.311 46.4308C131.871 46.6179 131.518 46.8865 131.252 47.2367C130.986 47.5868 130.844 47.9973 130.826 48.4682H127.068C127.086 47.3997 127.391 46.4579 127.983 45.6429C128.575 44.8279 129.371 44.1911 130.374 43.7322C131.382 43.2674 132.52 43.035 133.787 43.035C135.067 43.035 136.187 43.2674 137.147 43.7322C138.107 44.1971 138.852 44.8249 139.384 45.6158C139.921 46.4006 140.187 47.282 140.181 48.2599C140.187 49.2983 139.864 50.1646 139.212 50.8588C138.566 51.5531 137.724 51.9938 136.685 52.1809V52.3258C138.05 52.5009 139.088 52.9748 139.8 53.7475C140.519 54.5142 140.875 55.4741 140.869 56.6271C140.875 57.6836 140.57 58.6223 139.954 59.4434C139.344 60.2644 138.502 60.9103 137.428 61.3812C136.353 61.8521 135.122 62.0875 133.733 62.0875ZM147.393 59.2985L147.294 60.2946C147.215 61.0914 147.064 61.8853 146.841 62.6761C146.623 63.473 146.394 64.1944 146.153 64.8404C145.917 65.4863 145.727 65.9934 145.582 66.3617H143.083C143.173 66.0055 143.297 65.5075 143.454 64.8675C143.611 64.2337 143.759 63.5213 143.898 62.7305C144.037 61.9396 144.124 61.1337 144.16 60.3127L144.206 59.2985H147.393ZM150.92 61.834L158.608 46.6209V46.4941H149.653V43.2885H162.665V46.5394L154.968 61.834H150.92ZM165.352 61.834V59.0087L171.954 52.8963C172.515 52.353 172.986 51.864 173.366 51.4293C173.753 50.9947 174.045 50.5691 174.245 50.1525C174.444 49.7299 174.544 49.2741 174.544 48.7852C174.544 48.2418 174.42 47.774 174.172 47.3816C173.925 46.9831 173.587 46.6783 173.158 46.467C172.729 46.2496 172.243 46.141 171.7 46.141C171.133 46.141 170.638 46.2557 170.215 46.4851C169.792 46.7145 169.466 47.0435 169.237 47.4721C169.008 47.9007 168.893 48.4109 168.893 49.0025H165.171C165.171 47.7891 165.446 46.7356 165.995 45.8422C166.545 44.9487 167.314 44.2575 168.304 43.7685C169.294 43.2795 170.435 43.035 171.727 43.035C173.055 43.035 174.212 43.2704 175.196 43.7413C176.186 44.2061 176.955 44.8521 177.505 45.6792C178.054 46.5062 178.329 47.454 178.329 48.5226C178.329 49.2228 178.19 49.9141 177.912 50.5962C177.64 51.2784 177.155 52.036 176.454 52.8691C175.754 53.6962 174.767 54.6893 173.493 55.8484L170.786 58.5016V58.6284H178.573V61.834H165.352ZM188.333 62.0875C186.938 62.0875 185.698 61.8612 184.611 61.4084C183.53 60.9496 182.682 60.3248 182.066 59.5339C181.451 58.7431 181.143 57.8466 181.143 56.8445C181.143 56.0717 181.318 55.3624 181.668 54.7164C182.024 54.0645 182.507 53.5241 183.117 53.0955C183.726 52.6609 184.409 52.3832 185.163 52.2624V52.1357C184.173 51.9364 183.37 51.4565 182.755 50.6958C182.139 49.9292 181.831 49.0387 181.831 48.0245C181.831 47.0646 182.112 46.2104 182.673 45.4618C183.234 44.7072 184.004 44.1156 184.982 43.687C185.966 43.2523 187.083 43.035 188.333 43.035C189.582 43.035 190.696 43.2523 191.674 43.687C192.658 44.1216 193.431 44.7163 193.992 45.4709C194.554 46.2195 194.837 47.0707 194.843 48.0245C194.837 49.0447 194.524 49.9352 193.902 50.6958C193.28 51.4565 192.483 51.9364 191.511 52.1357V52.2624C192.254 52.3832 192.927 52.6609 193.53 53.0955C194.14 53.5241 194.623 54.0645 194.979 54.7164C195.342 55.3624 195.526 56.0717 195.532 56.8445C195.526 57.8466 195.215 58.7431 194.599 59.5339C193.983 60.3248 193.132 60.9496 192.045 61.4084C190.965 61.8612 189.727 62.0875 188.333 62.0875ZM188.333 59.2079C188.954 59.2079 189.498 59.0962 189.963 58.8729C190.427 58.6435 190.79 58.3295 191.049 57.9311C191.315 57.5266 191.448 57.0618 191.448 56.5366C191.448 55.9993 191.312 55.5254 191.04 55.1149C190.769 54.6983 190.4 54.3723 189.935 54.1369C189.471 53.8954 188.936 53.7747 188.333 53.7747C187.735 53.7747 187.201 53.8954 186.73 54.1369C186.259 54.3723 185.888 54.6983 185.616 55.1149C185.35 55.5254 185.218 55.9993 185.218 56.5366C185.218 57.0618 185.347 57.5266 185.607 57.9311C185.867 58.3295 186.232 58.6435 186.703 58.8729C187.174 59.0962 187.717 59.2079 188.333 59.2079ZM188.333 50.9222C188.852 50.9222 189.314 50.8166 189.718 50.6053C190.123 50.394 190.44 50.1012 190.669 49.7269C190.898 49.3526 191.013 48.921 191.013 48.432C191.013 47.949 190.898 47.5265 190.669 47.1642C190.44 46.796 190.126 46.5092 189.727 46.304C189.329 46.0927 188.864 45.987 188.333 45.987C187.807 45.987 187.343 46.0927 186.938 46.304C186.534 46.5092 186.217 46.796 185.987 47.1642C185.764 47.5265 185.652 47.949 185.652 48.432C185.652 48.921 185.767 49.3526 185.996 49.7269C186.226 50.1012 186.543 50.394 186.947 50.6053C187.352 50.8166 187.813 50.9222 188.333 50.9222Z" fill="#232325"/>
<rect x="214.268" y="0.354167" width="103.292" height="85.125" fill="white"/>
<rect x="214.268" y="0.354167" width="103.292" height="85.125" stroke="#E0E2E7" stroke-width="0.708333"/>
<path d="M238.07 25.3939C238.07 26.171 237.924 26.8366 237.633 27.3907C237.344 27.9424 236.95 28.3649 236.45 28.6584C235.952 28.9519 235.388 29.0986 234.756 29.0986C234.125 29.0986 233.559 28.9519 233.059 28.6584C232.561 28.3626 232.167 27.9388 231.875 27.3871C231.587 26.8331 231.442 26.1687 231.442 25.3939C231.442 24.6169 231.587 23.9525 231.875 23.4007C232.167 22.8467 232.561 22.4229 233.059 22.1295C233.559 21.836 234.125 21.6893 234.756 21.6893C235.388 21.6893 235.952 21.836 236.45 22.1295C236.95 22.4229 237.344 22.8467 237.633 23.4007C237.924 23.9525 238.07 24.6169 238.07 25.3939ZM236.756 25.3939C236.756 24.8469 236.671 24.3856 236.499 24.01C236.33 23.632 236.095 23.3467 235.795 23.1542C235.494 22.9594 235.148 22.862 234.756 22.862C234.364 22.862 234.018 22.9594 233.717 23.1542C233.417 23.3467 233.181 23.632 233.009 24.01C232.84 24.3856 232.756 24.8469 232.756 25.3939C232.756 25.941 232.84 26.4034 233.009 26.7814C233.181 27.1571 233.417 27.4423 233.717 27.6372C234.018 27.8297 234.364 27.9259 234.756 27.9259C235.148 27.9259 235.494 27.8297 235.795 27.6372C236.095 27.4423 236.33 27.1571 236.499 26.7814C236.671 26.4034 236.756 25.941 236.756 25.3939ZM241.988 23.5909V24.5769H238.791V23.5909H241.988ZM239.59 29V23.0803C239.59 22.7164 239.665 22.4135 239.816 22.1717C239.968 21.9299 240.172 21.7491 240.428 21.6294C240.684 21.5097 240.968 21.4498 241.281 21.4498C241.501 21.4498 241.697 21.4674 241.869 21.5026C242.04 21.5378 242.167 21.5695 242.249 21.5977L241.995 22.5837C241.941 22.5673 241.873 22.5509 241.791 22.5344C241.709 22.5157 241.617 22.5063 241.517 22.5063C241.279 22.5063 241.112 22.5638 241.013 22.6788C240.917 22.7915 240.869 22.9535 240.869 23.1648V29H239.59ZM245.727 23.5909V24.5769H242.529V23.5909H245.727ZM243.328 29V23.0803C243.328 22.7164 243.404 22.4135 243.554 22.1717C243.706 21.9299 243.911 21.7491 244.167 21.6294C244.422 21.5097 244.706 21.4498 245.019 21.4498C245.239 21.4498 245.435 21.4674 245.607 21.5026C245.778 21.5378 245.905 21.5695 245.987 21.5977L245.734 22.5837C245.68 22.5673 245.612 22.5509 245.529 22.5344C245.447 22.5157 245.356 22.5063 245.255 22.5063C245.018 22.5063 244.85 22.5638 244.751 22.6788C244.655 22.7915 244.607 22.9535 244.607 23.1648V29H243.328ZM248 21.7879V29H246.725V21.7879H248ZM249.311 29V23.5909H250.585V29H249.311ZM249.952 22.8232C249.75 22.8232 249.576 22.7563 249.43 22.6225C249.285 22.4863 249.212 22.3232 249.212 22.133C249.212 21.9405 249.285 21.7773 249.43 21.6435C249.576 21.5073 249.75 21.4392 249.952 21.4392C250.156 21.4392 250.33 21.5073 250.473 21.6435C250.618 21.7773 250.691 21.9405 250.691 22.133C250.691 22.3232 250.618 22.4863 250.473 22.6225C250.33 22.7563 250.156 22.8232 249.952 22.8232ZM253.171 25.8306V29H251.896V23.5909H253.115V24.51H253.178C253.303 24.2072 253.501 23.9665 253.773 23.7881C254.048 23.6097 254.387 23.5205 254.791 23.5205C255.164 23.5205 255.489 23.6003 255.766 23.7599C256.046 23.9196 256.262 24.1508 256.414 24.4537C256.569 24.7565 256.646 25.124 256.643 25.5559V29H255.369V25.7531C255.369 25.3916 255.275 25.1087 255.087 24.9044C254.901 24.7002 254.644 24.5981 254.316 24.5981C254.093 24.5981 253.894 24.6474 253.72 24.746C253.549 24.8422 253.414 24.9819 253.315 25.165C253.219 25.3482 253.171 25.57 253.171 25.8306ZM260.334 29.1056C259.792 29.1056 259.323 28.993 258.929 28.7676C258.537 28.5399 258.235 28.2182 258.024 27.8027C257.812 27.3848 257.707 26.8929 257.707 26.3271C257.707 25.7707 257.812 25.2824 258.024 24.8622C258.237 24.4396 258.536 24.1109 258.918 23.8762C259.301 23.639 259.751 23.5205 260.267 23.5205C260.6 23.5205 260.915 23.5745 261.211 23.6825C261.509 23.7881 261.772 23.9525 262 24.1755C262.23 24.3985 262.41 24.6826 262.542 25.0277C262.673 25.3705 262.739 25.779 262.739 26.2532V26.6441H258.306V25.7848H261.517C261.515 25.5407 261.462 25.3235 261.359 25.1333C261.255 24.9408 261.111 24.7894 260.926 24.6791C260.742 24.5687 260.529 24.5136 260.285 24.5136C260.024 24.5136 259.795 24.5769 259.598 24.7037C259.401 24.8281 259.247 24.9925 259.137 25.1967C259.029 25.3986 258.973 25.6205 258.971 25.8623V26.6124C258.971 26.927 259.029 27.197 259.144 27.4223C259.259 27.6454 259.419 27.8168 259.626 27.9365C259.833 28.0539 260.074 28.1126 260.352 28.1126C260.537 28.1126 260.705 28.0867 260.855 28.0351C261.005 27.9811 261.136 27.9025 261.246 27.7992C261.356 27.6959 261.44 27.5679 261.496 27.4153L262.686 27.5491C262.611 27.8637 262.468 28.1384 262.257 28.3732C262.048 28.6056 261.78 28.7864 261.454 28.9155C261.127 29.0423 260.754 29.1056 260.334 29.1056ZM270.253 23.7705C270.22 23.463 270.082 23.2235 269.838 23.0521C269.596 22.8807 269.281 22.795 268.894 22.795C268.622 22.795 268.388 22.8361 268.193 22.9183C267.998 23.0005 267.849 23.112 267.746 23.2528C267.643 23.3937 267.59 23.5545 267.587 23.7353C267.587 23.8855 267.621 24.0158 267.69 24.1262C267.76 24.2365 267.855 24.3304 267.975 24.4079C268.095 24.483 268.227 24.5464 268.373 24.5981C268.518 24.6497 268.665 24.6932 268.813 24.7284L269.489 24.8974C269.761 24.9608 270.023 25.0465 270.274 25.1545C270.528 25.2625 270.754 25.3986 270.954 25.563C271.156 25.7273 271.316 25.9257 271.433 26.1581C271.55 26.3905 271.609 26.6629 271.609 26.9751C271.609 27.3977 271.501 27.7698 271.285 28.0914C271.069 28.4107 270.757 28.6608 270.348 28.8415C269.942 29.02 269.45 29.1092 268.873 29.1092C268.312 29.1092 267.825 29.0223 267.411 28.8486C267 28.6748 266.679 28.4213 266.446 28.0879C266.216 27.7545 266.092 27.3484 266.073 26.8695H267.359C267.377 27.1207 267.455 27.3296 267.591 27.4963C267.727 27.663 267.904 27.7874 268.123 27.8696C268.343 27.9518 268.59 27.9928 268.862 27.9928C269.146 27.9928 269.395 27.9506 269.609 27.8661C269.825 27.7792 269.994 27.6595 270.116 27.5069C270.238 27.3519 270.3 27.1711 270.303 26.9645C270.3 26.7767 270.245 26.6218 270.137 26.4997C270.029 26.3753 269.878 26.272 269.683 26.1898C269.49 26.1053 269.265 26.0302 269.007 25.9644L268.186 25.7531C267.592 25.6005 267.123 25.3693 266.777 25.0594C266.435 24.7471 266.263 24.3328 266.263 23.8163C266.263 23.3914 266.378 23.0192 266.608 22.7C266.841 22.3807 267.157 22.133 267.556 21.9569C267.955 21.7785 268.407 21.6893 268.912 21.6893C269.423 21.6893 269.872 21.7785 270.257 21.9569C270.644 22.133 270.948 22.3783 271.169 22.6929C271.39 23.0052 271.503 23.3644 271.51 23.7705H270.253ZM274.274 29.1092C273.931 29.1092 273.622 29.0481 273.348 28.926C273.075 28.8016 272.859 28.6185 272.7 28.3767C272.543 28.1349 272.464 27.8367 272.464 27.4822C272.464 27.177 272.52 26.9246 272.633 26.7251C272.746 26.5255 272.899 26.3659 273.094 26.2462C273.289 26.1264 273.509 26.036 273.753 25.975C273.999 25.9116 274.254 25.8658 274.517 25.8377C274.834 25.8048 275.091 25.7754 275.288 25.7496C275.485 25.7214 275.629 25.6792 275.718 25.6228C275.809 25.5641 275.855 25.4738 275.855 25.3517V25.3306C275.855 25.0653 275.776 24.8598 275.619 24.7143C275.462 24.5687 275.235 24.4959 274.94 24.4959C274.627 24.4959 274.38 24.564 274.196 24.7002C274.016 24.8364 273.894 24.9972 273.83 25.1826L272.64 25.0136C272.734 24.6849 272.889 24.4103 273.105 24.1896C273.321 23.9665 273.585 23.7999 273.897 23.6895C274.209 23.5768 274.554 23.5205 274.932 23.5205C275.193 23.5205 275.452 23.551 275.711 23.612C275.969 23.6731 276.205 23.774 276.419 23.9149C276.632 24.0534 276.804 24.2424 276.933 24.4819C277.064 24.7213 277.13 25.0207 277.13 25.3799V29H275.904V28.257H275.862C275.785 28.4072 275.676 28.5481 275.535 28.6795C275.396 28.8087 275.221 28.9131 275.01 28.993C274.801 29.0704 274.556 29.1092 274.274 29.1092ZM274.605 28.1724C274.861 28.1724 275.083 28.122 275.271 28.021C275.458 27.9177 275.603 27.7815 275.704 27.6125C275.807 27.4435 275.859 27.2592 275.859 27.0596V26.4222C275.819 26.4551 275.751 26.4856 275.654 26.5138C275.56 26.542 275.455 26.5666 275.337 26.5877C275.22 26.6089 275.104 26.6277 274.989 26.6441C274.874 26.6605 274.774 26.6746 274.689 26.6863C274.499 26.7122 274.329 26.7544 274.179 26.8131C274.029 26.8718 273.91 26.954 273.823 27.0596C273.736 27.1629 273.693 27.2967 273.693 27.4611C273.693 27.6959 273.779 27.8731 273.95 27.9928C274.121 28.1126 274.34 28.1724 274.605 28.1724ZM279.687 21.7879V29H278.412V21.7879H279.687ZM283.392 29.1056C282.85 29.1056 282.381 28.993 281.987 28.7676C281.595 28.5399 281.293 28.2182 281.082 27.8027C280.871 27.3848 280.765 26.8929 280.765 26.3271C280.765 25.7707 280.871 25.2824 281.082 24.8622C281.296 24.4396 281.594 24.1109 281.976 23.8762C282.359 23.639 282.809 23.5205 283.325 23.5205C283.659 23.5205 283.973 23.5745 284.269 23.6825C284.567 23.7881 284.83 23.9525 285.058 24.1755C285.288 24.3985 285.469 24.6826 285.6 25.0277C285.732 25.3705 285.797 25.779 285.797 26.2532V26.6441H281.364V25.7848H284.575C284.573 25.5407 284.52 25.3235 284.417 25.1333C284.314 24.9408 284.169 24.7894 283.984 24.6791C283.801 24.5687 283.587 24.5136 283.343 24.5136C283.082 24.5136 282.853 24.5769 282.656 24.7037C282.459 24.8281 282.305 24.9925 282.195 25.1967C282.087 25.3986 282.032 25.6205 282.029 25.8623V26.6124C282.029 26.927 282.087 27.197 282.202 27.4223C282.317 27.6454 282.478 27.8168 282.684 27.9365C282.891 28.0539 283.133 28.1126 283.41 28.1126C283.595 28.1126 283.763 28.0867 283.913 28.0351C284.064 27.9811 284.194 27.9025 284.304 27.7992C284.415 27.6959 284.498 27.5679 284.554 27.4153L285.744 27.5491C285.669 27.8637 285.526 28.1384 285.315 28.3732C285.106 28.6056 284.838 28.7864 284.512 28.9155C284.186 29.0423 283.812 29.1056 283.392 29.1056ZM291.151 25.0207L289.989 25.1474C289.956 25.03 289.898 24.9197 289.816 24.8164C289.736 24.7131 289.628 24.6298 289.492 24.5664C289.356 24.503 289.189 24.4713 288.992 24.4713C288.727 24.4713 288.504 24.5288 288.323 24.6439C288.145 24.7589 288.057 24.908 288.059 25.0911C288.057 25.2484 288.114 25.3763 288.232 25.4749C288.351 25.5735 288.549 25.6545 288.823 25.7179L289.746 25.9151C290.258 26.0255 290.638 26.2004 290.887 26.4398C291.138 26.6793 291.265 26.9927 291.267 27.3801C291.265 27.7205 291.165 28.021 290.968 28.2816C290.773 28.5399 290.502 28.7418 290.154 28.8873C289.807 29.0329 289.408 29.1056 288.957 29.1056C288.295 29.1056 287.762 28.9671 287.358 28.6901C286.954 28.4107 286.714 28.0222 286.636 27.5245L287.879 27.4047C287.936 27.6489 288.056 27.8332 288.239 27.9576C288.422 28.0821 288.66 28.1443 288.953 28.1443C289.256 28.1443 289.499 28.0821 289.682 27.9576C289.868 27.8332 289.961 27.6794 289.961 27.4963C289.961 27.3414 289.901 27.2134 289.781 27.1125C289.664 27.0115 289.481 26.934 289.232 26.88L288.309 26.6863C287.79 26.5784 287.406 26.3964 287.158 26.1405C286.909 25.8823 286.785 25.5559 286.788 25.1615C286.785 24.8281 286.876 24.5394 287.059 24.2952C287.244 24.0487 287.501 23.8585 287.83 23.7247C288.161 23.5886 288.543 23.5205 288.975 23.5205C289.609 23.5205 290.107 23.6555 290.471 23.9255C290.838 24.1954 291.064 24.5605 291.151 25.0207Z" fill="#FFB545"/>
<path d="M240.486 43.2885V61.834H236.565V47.0103H236.456L232.209 49.6726V46.1953L236.8 43.2885H240.486ZM248.126 59.2985L248.026 60.2946C247.948 61.0914 247.797 61.8853 247.574 62.6761C247.356 63.473 247.127 64.1944 246.886 64.8404C246.65 65.4863 246.46 65.9934 246.315 66.3617H243.816C243.906 66.0055 244.03 65.5075 244.187 64.8675C244.344 64.2337 244.492 63.5213 244.631 62.7305C244.77 61.9396 244.857 61.1337 244.893 60.3127L244.939 59.2985H248.126ZM251.336 58.574V55.4862L259.079 43.2885H261.741V47.5627H260.165L255.284 55.2869V55.4318H266.287V58.574H251.336ZM260.238 61.834V57.6323L260.31 56.2649V43.2885H263.987V61.834H260.238ZM268.618 58.574V55.4862L276.361 43.2885H279.023V47.5627H277.447L272.567 55.2869V55.4318H283.569V58.574H268.618ZM277.52 61.834V57.6323L277.592 56.2649V43.2885H281.269V61.834H277.52ZM286.181 61.834V59.0087L292.783 52.8963C293.344 52.353 293.815 51.864 294.195 51.4293C294.582 50.9947 294.875 50.5691 295.074 50.1525C295.273 49.7299 295.373 49.2741 295.373 48.7852C295.373 48.2418 295.249 47.774 295.001 47.3816C294.754 46.9831 294.416 46.6783 293.987 46.467C293.559 46.2496 293.073 46.141 292.529 46.141C291.962 46.141 291.467 46.2557 291.044 46.4851C290.622 46.7145 290.296 47.0435 290.066 47.4721C289.837 47.9007 289.722 48.4109 289.722 49.0025H286C286 47.7891 286.275 46.7356 286.824 45.8422C287.374 44.9487 288.143 44.2575 289.133 43.7685C290.124 43.2795 291.265 43.035 292.556 43.035C293.885 43.035 295.041 43.2704 296.025 43.7413C297.015 44.2061 297.784 44.8521 298.334 45.6792C298.883 46.5062 299.158 47.454 299.158 48.5226C299.158 49.2228 299.019 49.9141 298.741 50.5962C298.47 51.2784 297.984 52.036 297.283 52.8691C296.583 53.6962 295.596 54.6893 294.322 55.8484L291.615 58.5016V58.6284H299.402V61.834H286.181Z" fill="#232325"/>
</g>
<path d="M0.5 8.5C0.5 4.08172 4.08172 0.5 8.5 0.5H309.542C313.96 0.5 317.542 4.08172 317.542 8.5V84.5H0.5V8.5Z" stroke="#F4F4F4"/>
<defs>
<clipPath id="clip0_1603_12496">
<path d="M0 8.5C0 3.80558 3.80558 0 8.5 0H309.542C314.236 0 318.042 3.80558 318.042 8.5V85H0V8.5Z" fill="white"/>
</clipPath>
</defs>
</svg>
