<svg width="46" height="46" viewBox="0 0 46 46" fill="none" xmlns="http://www.w3.org/2000/svg">
<g clip-path="url(#clip0_1318_4229)">
<path d="M20.3798 33.4271C19.4417 33.4271 18.6791 32.6652 18.6791 31.7271C18.6791 30.7891 19.4417 30.0272 20.3798 30.0272C21.3178 30.0272 22.0804 30.7891 22.0804 31.7271C22.0804 32.6652 21.3178 33.4271 20.3798 33.4271ZM20.3798 31.4587C20.2316 31.4587 20.1107 31.579 20.1107 31.7271C20.1107 32.0235 20.6489 32.0235 20.6489 31.7271C20.6489 31.579 20.528 31.4587 20.3798 31.4587ZM26.7728 33.4271C25.8347 33.4271 25.0728 32.6652 25.0728 31.7271C25.0728 30.7891 25.8347 30.0272 26.7728 30.0272C27.7108 30.0272 28.4727 30.7891 28.4727 31.7271C28.4727 32.6652 27.7108 33.4271 26.7728 33.4271ZM26.7728 31.4587C26.6246 31.4587 26.5044 31.579 26.5044 31.7271C26.5044 32.0235 27.0412 32.0235 27.0412 31.7271C27.0412 31.579 26.921 31.4587 26.7728 31.4587ZM32.127 17.1028C31.8097 16.689 31.3274 16.4521 30.806 16.4521H14.5427L14.1189 14.8675C13.9043 14.0629 13.1732 13.5016 12.3407 13.5016H11.274C10.8784 13.5016 10.5583 13.8218 10.5583 14.2174C10.5583 14.613 10.8784 14.9332 11.274 14.9332H12.3407C12.5259 14.9332 12.6881 15.0583 12.7363 15.2372L16.1551 28.0197C16.4053 28.9563 17.2574 29.6106 18.2269 29.6106H29.7016C30.0972 29.6106 30.4173 29.2905 30.4173 28.8948C30.4173 28.4992 30.0972 28.1791 29.7016 28.1791H18.2269C17.9047 28.1791 17.6209 27.961 17.5377 27.6506L17.2767 26.6748H19.6458H26.3995H28.0505C29.3465 26.6748 30.4858 25.7997 30.8213 24.5471L32.4164 18.5476C32.5506 18.043 32.4444 17.5166 32.127 17.1028ZM30.9919 17.9752C31.0184 18.0094 31.059 18.0814 31.0324 18.18L30.3229 20.848H27.8088L28.2075 17.8836H30.806C30.9066 17.8836 30.9653 17.9409 30.9919 17.9752ZM26.3652 20.848H23.735V17.8836H26.7644L26.3652 20.848ZM22.3034 17.8836V20.848H19.6757L19.274 17.8836H22.3034ZM17.8293 17.8836L18.2309 20.848H15.7219L14.9277 17.8836H17.8293ZM18.4248 22.2796L18.8264 25.2433H16.8995L16.1055 22.2796H18.4248ZM19.8698 22.2796H22.3034V25.2433H20.2714L19.8698 22.2796ZM23.735 25.2433V22.2796H26.1723L25.7732 25.2433H23.735ZM28.0505 25.2433H27.2174L27.6161 22.2796H29.9422L29.4373 24.178C29.2696 24.8057 28.6992 25.2433 28.0505 25.2433ZM12.8062 5.70325C12.8062 5.33262 12.5062 5.0327 12.1356 5.0327H4.77241C4.40178 5.0327 4.10186 5.33261 4.10186 5.70325C4.10186 6.07389 4.40177 6.3738 4.77241 6.3738H12.1356C12.5062 6.3738 12.8062 6.07389 12.8062 5.70325ZM33.0273 5.70317C33.0273 6.09848 32.7068 6.41894 32.3115 6.41894C31.9162 6.41894 31.5958 6.09848 31.5958 5.70317C31.5958 5.30786 31.9162 4.9874 32.3115 4.9874C32.7068 4.98741 33.0273 5.30787 33.0273 5.70317ZM35.2644 4.98741C34.8691 4.98741 34.5487 5.30787 34.5487 5.70318C34.5487 6.09848 34.8691 6.41895 35.2644 6.41895C35.6597 6.41895 35.9802 6.09848 35.9802 5.70318C35.9802 5.30787 35.6597 4.98741 35.2644 4.98741ZM38.2173 4.98741C37.822 4.98741 37.5016 5.30787 37.5016 5.70318C37.5016 6.09848 37.822 6.41895 38.2173 6.41895C38.6127 6.41895 38.9331 6.09848 38.9331 5.70318C38.9331 5.30787 38.6127 4.98741 38.2173 4.98741ZM44.5342 36.265L42.3389 34.4142C42.3404 34.3701 42.3472 34.3268 42.3472 34.2825V6.31959C42.3472 4.17017 40.593 2.41602 38.4436 2.41602H4.58717C2.43779 2.41602 0.683594 4.17018 0.683594 6.31959V34.2825C0.683594 36.4319 2.4378 38.1861 4.58717 38.1861H34.6357L34.6364 40.8672C34.6364 41.4445 34.9608 41.9548 35.4836 42.1994C36.0022 42.4413 36.6048 42.3658 37.0479 41.9981L38.3886 40.884L39.1351 42.4874C39.3658 42.9879 39.7796 43.3682 40.2968 43.5569C40.5275 43.6408 40.768 43.6827 41.0056 43.6827C41.302 43.6827 41.5984 43.6184 41.8752 43.4898C42.3743 43.2577 42.7545 42.8439 42.9433 42.3267C43.132 41.808 43.1082 41.2474 42.8747 40.7497L42.1296 39.1449L43.8449 38.8387C44.4125 38.7367 44.8571 38.327 45.0067 37.7692C45.1562 37.2128 44.9745 36.6355 44.5342 36.265ZM2.11189 6.31959C2.11189 4.96061 3.22125 3.85126 4.58717 3.85126H38.4436C39.8095 3.85126 40.9189 4.96061 40.9189 6.31959V7.55374H2.11189V6.31959ZM34.6336 31.0799L34.6353 36.7509H4.58717C3.22125 36.7509 2.11189 35.6415 2.11189 34.2825V8.98898H40.9189V33.2171L37.0507 29.9559C36.6076 29.5812 36.0065 29.5058 35.4836 29.7476C34.9594 29.9908 34.6336 30.5011 34.6336 31.0799ZM43.5919 37.4295L40.9623 37.8992C40.7442 37.9384 40.5555 38.0768 40.4534 38.2739C40.35 38.471 40.3458 38.7045 40.4395 38.9058L41.5774 41.355C41.6487 41.506 41.6557 41.678 41.5984 41.836C41.5397 41.9939 41.4236 42.1211 41.2726 42.1925C41.1189 42.2624 40.9455 42.2707 40.789 42.212C40.6296 42.1547 40.5037 42.0387 40.4325 41.8849L39.2945 39.4384C39.2008 39.2371 39.0191 39.0903 38.8024 39.0414C38.7507 39.0302 38.6976 39.0246 38.6459 39.0246C38.4809 39.0246 38.3187 39.0819 38.1887 39.1896L36.068 40.8672L36.2598 31.4587L43.6115 37.3582L43.5919 37.4295Z" fill="black"/>
</g>
<defs>
<clipPath id="clip0_1318_4229">
<rect width="44.3746" height="44.3746" fill="white" transform="translate(0.683594 0.861328)"/>
</clipPath>
</defs>
</svg>
