<svg width="45" height="46" viewBox="0 0 45 46" fill="none" xmlns="http://www.w3.org/2000/svg">
<path d="M20.9775 34.5068H20.6906V34.7937V39.7273H18.6541V27.2498H22.2826C24.2832 27.2498 25.9111 28.8779 25.9111 30.8783C25.9111 31.8067 25.5605 32.6541 24.9842 33.2971L24.8125 33.4886L24.9842 33.6801C25.5605 34.323 25.9111 35.1705 25.9111 36.0988V39.7273H23.8746V36.0988C23.8746 35.2207 23.1608 34.5068 22.2826 34.5068H20.9775ZM20.6906 32.1834V32.4703H20.9775H22.2826C23.1608 32.4703 23.8746 31.7565 23.8746 30.8783C23.8746 30.0002 23.1608 29.2863 22.2826 29.2863H20.9775H20.6906V29.5732V32.1834Z" fill="black" stroke="#FFF3DA" stroke-width="0.57381"/>
<path d="M31.4189 34.5068H31.132V34.7937V39.7273H29.0955V27.2498H32.724C34.7246 27.2498 36.3525 28.8779 36.3525 30.8783C36.3525 32.8789 34.7246 34.5068 32.724 34.5068H31.4189ZM31.4189 29.2863H31.132V29.5732V32.1834V32.4703H31.4189H32.724C33.6022 32.4703 34.316 31.7565 34.316 30.8783C34.316 30.0002 33.6022 29.2863 32.724 29.2863H31.4189Z" fill="black" stroke="#FFF3DA" stroke-width="0.57381"/>
<path d="M11.5538 37.404V37.6909H11.8407H15.4692V39.7273H9.51737V27.2498H15.4692V29.2863H11.8407H11.5538V29.5732V32.1834V32.4703H11.8407H14.1641V34.5068H11.8407H11.5538V34.7937V37.404Z" fill="black" stroke="#FFF3DA" stroke-width="0.57381"/>
<path d="M41.5751 21.7435V22.0304H41.862H44.1854V44.949H0.384561V22.0304H2.70793H2.99483V21.7435V17.0331L7.44223 15.9214L7.59701 15.8827L7.64581 15.7308C7.90161 14.9345 8.2224 14.1601 8.60484 13.4163L8.67781 13.2743L8.5957 13.1375L6.23693 9.20612L11.0526 4.39034L14.984 6.7491L15.1208 6.83121L15.2628 6.75824C16.0067 6.3758 16.781 6.05501 17.5773 5.79912L17.7292 5.75032L17.7679 5.59555L18.8797 1.14823H25.6903L26.8021 5.59555L26.8408 5.75032L26.9927 5.79912C27.7891 6.055 28.5633 6.37579 29.3072 6.75824L29.4492 6.83121L29.586 6.7491L33.5174 4.39034L38.3332 9.20612L35.9744 13.1374L35.8923 13.2742L35.9652 13.4162C36.3476 14.16 36.6684 14.9344 36.9243 15.7307L36.9731 15.8826L37.1278 15.9213L41.5751 17.0331V21.7435ZM5.24861 18.5688L5.03129 18.6231V18.8471V21.7435V22.0304H5.3182H15.8918H16.2432L16.1729 21.6861C15.381 17.8103 18.3598 14.1996 22.285 14.1996C26.2099 14.1996 29.189 17.8102 28.397 21.6861L28.3267 22.0304H28.6781H39.2517H39.5386V21.7435V18.8471V18.623L39.3213 18.5687L35.3271 17.5702L35.1724 16.9905C34.6952 15.2016 33.967 13.9776 33.6188 13.3923C33.5869 13.3387 33.5582 13.2904 33.5331 13.2475L35.6534 9.71385L35.7687 9.52176L35.6103 9.36336L33.3599 7.11304L33.2015 6.95465L33.0094 7.0699L29.4783 9.18855L28.9589 8.88771L28.8151 9.13597L28.9589 8.8877C27.3583 7.96077 25.9833 7.61076 25.3208 7.44214C25.2588 7.42633 25.2029 7.41212 25.1538 7.39918L24.1545 3.40202L24.1002 3.18469H23.8762H20.6937H20.4697L20.4154 3.40201L19.416 7.39927C19.3658 7.4125 19.3088 7.42702 19.2454 7.44319C18.5806 7.61258 17.2093 7.96197 15.6109 8.8877L15.6109 8.88771L15.0914 9.18855L11.5604 7.0699L11.3683 6.95465L11.2099 7.11305L8.95956 9.36336L8.80116 9.52176L8.91641 9.71385L11.0367 13.2476C11.0106 13.2925 10.9805 13.3432 10.947 13.3995C10.5963 13.9896 9.87363 15.2057 9.39745 16.9904L9.24274 17.5702L5.24861 18.5688ZM25.9762 22.0304H26.179L26.2467 21.8392C26.4052 21.3913 26.4873 20.9172 26.4873 20.4384C26.4873 18.121 24.6025 16.236 22.285 16.236C19.9675 16.236 18.0826 18.121 18.0826 20.4384C18.0826 20.9172 18.1647 21.3913 18.3232 21.8392L18.3909 22.0304H18.5937H25.9762ZM41.862 42.9126H42.1489V42.6257V24.3538V24.0669H41.862H2.70793H2.42102V24.3538V42.6257V42.9126H2.70793H41.862Z" fill="black" stroke="#FFF3DA" stroke-width="0.57381"/>
</svg>
