<svg width="354" height="294" viewBox="0 0 354 294" fill="none" xmlns="http://www.w3.org/2000/svg">
<rect width="353.019" height="293.734" rx="7.72546" fill="white"/>
<path d="M121.473 30.5149H124.134L126.696 35.3543H126.806L129.368 30.5149H132.029L127.931 37.7795V41.752H125.571V37.7795L121.473 30.5149ZM135.326 41.9166C134.473 41.9166 133.736 41.7355 133.114 41.3734C132.496 41.0076 132.019 40.4991 131.682 39.848C131.346 39.1933 131.178 38.4342 131.178 37.571C131.178 36.7004 131.346 35.9396 131.682 35.2885C132.019 34.6337 132.496 34.1253 133.114 33.7631C133.736 33.3973 134.473 33.2144 135.326 33.2144C136.178 33.2144 136.913 33.3973 137.531 33.7631C138.153 34.1253 138.632 34.6337 138.969 35.2885C139.305 35.9396 139.474 36.7004 139.474 37.571C139.474 38.4342 139.305 39.1933 138.969 39.848C138.632 40.4991 138.153 41.0076 137.531 41.3734C136.913 41.7355 136.178 41.9166 135.326 41.9166ZM135.337 40.1059C135.724 40.1059 136.048 39.9962 136.308 39.7767C136.568 39.5536 136.763 39.25 136.895 38.8659C137.03 38.4818 137.098 38.0447 137.098 37.5545C137.098 37.0644 137.03 36.6272 136.895 36.2432C136.763 35.8591 136.568 35.5555 136.308 35.3324C136.048 35.1092 135.724 34.9977 135.337 34.9977C134.945 34.9977 134.616 35.1092 134.349 35.3324C134.086 35.5555 133.886 35.8591 133.751 36.2432C133.619 36.6272 133.553 37.0644 133.553 37.5545C133.553 38.0447 133.619 38.4818 133.751 38.8659C133.886 39.25 134.086 39.5536 134.349 39.7767C134.616 39.9962 134.945 40.1059 135.337 40.1059ZM146.398 38.1636V33.3242H148.736V41.752H146.491V40.2211H146.404C146.213 40.7149 145.897 41.1118 145.454 41.4118C145.015 41.7117 144.48 41.8617 143.847 41.8617C143.283 41.8617 142.788 41.7337 142.36 41.4776C141.932 41.2216 141.597 40.8576 141.356 40.3857C141.118 39.9139 140.997 39.3487 140.994 38.6903V33.3242H143.331V38.2733C143.335 38.7708 143.468 39.164 143.732 39.453C143.995 39.7419 144.348 39.8864 144.79 39.8864C145.072 39.8864 145.336 39.8224 145.581 39.6944C145.826 39.5627 146.023 39.3688 146.173 39.1128C146.327 38.8567 146.402 38.5403 146.398 38.1636ZM150.605 41.752V33.3242H152.871V34.7946H152.959C153.113 34.2716 153.371 33.8765 153.733 33.6095C154.095 33.3388 154.512 33.2035 154.984 33.2035C155.101 33.2035 155.227 33.2108 155.362 33.2254C155.498 33.24 155.616 33.2602 155.719 33.2858V35.3598C155.609 35.3269 155.457 35.2976 155.263 35.272C155.07 35.2464 154.892 35.2336 154.731 35.2336C154.387 35.2336 154.08 35.3086 153.809 35.4586C153.542 35.6049 153.33 35.8097 153.173 36.0731C153.019 36.3364 152.943 36.6401 152.943 36.9839V41.752H150.605ZM162.923 30.5149V41.752H160.547V30.5149H162.923ZM167.171 36.8796V41.752H164.834V33.3242H167.062V34.8111H167.16C167.347 34.321 167.66 33.9332 168.099 33.6479C168.537 33.3589 169.07 33.2144 169.695 33.2144C170.28 33.2144 170.791 33.3425 171.226 33.5985C171.661 33.8546 172 34.2204 172.241 34.6959C172.483 35.1678 172.603 35.7311 172.603 36.3858V41.752H170.266V36.8028C170.27 36.2871 170.138 35.8847 169.871 35.5957C169.604 35.3031 169.236 35.1568 168.768 35.1568C168.453 35.1568 168.175 35.2244 167.934 35.3598C167.696 35.4951 167.51 35.6927 167.374 35.9524C167.243 36.2084 167.175 36.5175 167.171 36.8796ZM182.001 33.3242L179.054 41.752H176.421L173.474 33.3242H175.943L177.694 39.3542H177.781L179.526 33.3242H182.001ZM186.766 41.9166C185.899 41.9166 185.153 41.741 184.528 41.3898C183.906 41.035 183.426 40.5339 183.09 39.8864C182.753 39.2353 182.585 38.4653 182.585 37.5765C182.585 36.7096 182.753 35.9487 183.09 35.2939C183.426 34.6392 183.9 34.1289 184.511 33.7631C185.126 33.3973 185.846 33.2144 186.673 33.2144C187.229 33.2144 187.746 33.3041 188.226 33.4833C188.708 33.6589 189.129 33.9241 189.488 34.2789C189.85 34.6337 190.131 35.08 190.333 35.6177C190.534 36.1517 190.634 36.7772 190.634 37.4942V38.1361H183.518V36.6876H188.434C188.434 36.3511 188.361 36.053 188.215 35.7933C188.068 35.5335 187.865 35.3305 187.606 35.1842C187.35 35.0342 187.051 34.9593 186.711 34.9593C186.356 34.9593 186.042 35.0416 185.768 35.2062C185.497 35.3671 185.285 35.5848 185.131 35.8591C184.977 36.1298 184.899 36.4316 184.895 36.7644V38.1416C184.895 38.5586 184.972 38.9189 185.126 39.2225C185.283 39.5261 185.504 39.7602 185.789 39.9248C186.075 40.0894 186.413 40.1717 186.805 40.1717C187.064 40.1717 187.302 40.1352 187.518 40.062C187.734 39.9889 187.918 39.8791 188.072 39.7328C188.226 39.5865 188.343 39.4072 188.423 39.1951L190.585 39.3377C190.475 39.8572 190.25 40.3107 189.91 40.6985C189.574 41.0826 189.138 41.3825 188.604 41.5983C188.074 41.8105 187.461 41.9166 186.766 41.9166ZM194.497 36.8796V41.752H192.16V33.3242H194.387V34.8111H194.486C194.673 34.321 194.985 33.9332 195.424 33.6479C195.863 33.3589 196.396 33.2144 197.021 33.2144C197.606 33.2144 198.117 33.3425 198.552 33.5985C198.987 33.8546 199.325 34.2204 199.567 34.6959C199.808 35.1678 199.929 35.7311 199.929 36.3858V41.752H197.592V36.8028C197.595 36.2871 197.464 35.8847 197.197 35.5957C196.93 35.3031 196.562 35.1568 196.094 35.1568C195.779 35.1568 195.501 35.2244 195.26 35.3598C195.022 35.4951 194.835 35.6927 194.7 35.9524C194.568 36.2084 194.501 36.5175 194.497 36.8796ZM206.254 33.3242V35.08H201.179V33.3242H206.254ZM202.331 31.305H204.668V39.1622C204.668 39.378 204.701 39.5462 204.767 39.667C204.833 39.784 204.924 39.8663 205.041 39.9139C205.162 39.9614 205.301 39.9852 205.458 39.9852C205.568 39.9852 205.678 39.976 205.788 39.9578C205.897 39.9358 205.981 39.9194 206.04 39.9084L206.408 41.6477C206.291 41.6843 206.126 41.7263 205.914 41.7739C205.702 41.8251 205.444 41.8562 205.14 41.8672C204.577 41.8891 204.083 41.8141 203.659 41.6422C203.238 41.4703 202.911 41.2033 202.677 40.8411C202.442 40.479 202.327 40.0218 202.331 39.4694V31.305ZM211.494 41.9166C210.642 41.9166 209.905 41.7355 209.283 41.3734C208.665 41.0076 208.187 40.4991 207.851 39.848C207.514 39.1933 207.346 38.4342 207.346 37.571C207.346 36.7004 207.514 35.9396 207.851 35.2885C208.187 34.6337 208.665 34.1253 209.283 33.7631C209.905 33.3973 210.642 33.2144 211.494 33.2144C212.346 33.2144 213.081 33.3973 213.7 33.7631C214.321 34.1253 214.801 34.6337 215.137 35.2885C215.474 35.9396 215.642 36.7004 215.642 37.571C215.642 38.4342 215.474 39.1933 215.137 39.848C214.801 40.4991 214.321 41.0076 213.7 41.3734C213.081 41.7355 212.346 41.9166 211.494 41.9166ZM211.505 40.1059C211.893 40.1059 212.216 39.9962 212.476 39.7767C212.736 39.5536 212.931 39.25 213.063 38.8659C213.198 38.4818 213.266 38.0447 213.266 37.5545C213.266 37.0644 213.198 36.6272 213.063 36.2432C212.931 35.8591 212.736 35.5555 212.476 35.3324C212.216 35.1092 211.893 34.9977 211.505 34.9977C211.114 34.9977 210.784 35.1092 210.517 35.3324C210.254 35.5555 210.055 35.8591 209.919 36.2432C209.788 36.6272 209.722 37.0644 209.722 37.5545C209.722 38.0447 209.788 38.4818 209.919 38.8659C210.055 39.25 210.254 39.5536 210.517 39.7767C210.784 39.9962 211.114 40.1059 211.505 40.1059ZM217.162 41.752V33.3242H219.428V34.7946H219.516C219.669 34.2716 219.927 33.8765 220.289 33.6095C220.651 33.3388 221.068 33.2035 221.54 33.2035C221.657 33.2035 221.784 33.2108 221.919 33.2254C222.054 33.24 222.173 33.2602 222.276 33.2858V35.3598C222.166 35.3269 222.014 35.2976 221.82 35.272C221.626 35.2464 221.449 35.2336 221.288 35.2336C220.944 35.2336 220.637 35.3086 220.366 35.4586C220.099 35.6049 219.887 35.8097 219.73 36.0731C219.576 36.3364 219.499 36.6401 219.499 36.9839V41.752H217.162ZM225.184 44.9124C224.887 44.9124 224.609 44.8886 224.35 44.841C224.094 44.7971 223.881 44.7404 223.713 44.6709L224.24 42.9261C224.514 43.0103 224.761 43.056 224.981 43.0633C225.204 43.0706 225.396 43.0194 225.557 42.9097C225.721 42.7999 225.855 42.6134 225.957 42.35L226.094 41.9934L223.071 33.3242H225.529L227.274 39.5133H227.362L229.123 33.3242H231.598L228.322 42.6628C228.165 43.1163 227.951 43.5114 227.68 43.8479C227.413 44.1881 227.075 44.4496 226.665 44.6325C226.255 44.8191 225.762 44.9124 225.184 44.9124Z" fill="#232325"/>
<path d="M73.7274 68.0527V61.4978H74.5211V67.3486H77.5681V68.0527H73.7274ZM80.381 68.0527H79.5489L81.9558 61.4978H82.7751L85.182 68.0527H84.3498L82.391 62.5348H82.3398L80.381 68.0527ZM80.6883 65.4922H84.0426V66.1964H80.6883V65.4922ZM90.6891 63.1365C90.6507 62.8122 90.4949 62.5604 90.2218 62.3812C89.9486 62.2019 89.6136 62.1123 89.2168 62.1123C88.9266 62.1123 88.6726 62.1593 88.455 62.2531C88.2395 62.347 88.0709 62.4761 87.9493 62.6404C87.8298 62.8047 87.7701 62.9914 87.7701 63.2005C87.7701 63.3755 87.8117 63.5259 87.8949 63.6518C87.9802 63.7756 88.0891 63.8791 88.2214 63.9623C88.3536 64.0434 88.4923 64.1106 88.6374 64.1639C88.7825 64.2152 88.9159 64.2568 89.0375 64.2888L89.7033 64.468C89.874 64.5128 90.0639 64.5747 90.273 64.6536C90.4842 64.7326 90.6859 64.8403 90.8779 64.9769C91.0721 65.1113 91.2321 65.2842 91.358 65.4954C91.4839 65.7067 91.5468 65.9659 91.5468 66.2732C91.5468 66.6274 91.454 66.9474 91.2684 67.2334C91.0849 67.5193 90.816 67.7465 90.4618 67.9151C90.1097 68.0837 89.6819 68.168 89.1784 68.168C88.7089 68.168 88.3024 68.0922 87.9589 67.9407C87.6175 67.7892 87.3486 67.578 87.1523 67.307C86.9582 67.036 86.8483 66.7213 86.8227 66.3628H87.642C87.6634 66.6103 87.7466 66.8151 87.8917 66.9773C88.0389 67.1373 88.2246 67.2568 88.4486 67.3358C88.6748 67.4126 88.918 67.451 89.1784 67.451C89.4813 67.451 89.7534 67.4019 89.9945 67.3038C90.2356 67.2035 90.4266 67.0648 90.5674 66.8877C90.7083 66.7085 90.7787 66.4994 90.7787 66.2604C90.7787 66.0427 90.7179 65.8656 90.5962 65.7291C90.4746 65.5925 90.3146 65.4815 90.1161 65.3962C89.9177 65.3108 89.7033 65.2362 89.4728 65.1721L88.6662 64.9417C88.1541 64.7945 87.7487 64.5843 87.45 64.3112C87.1513 64.038 87.0019 63.6806 87.0019 63.239C87.0019 62.8719 87.1011 62.5519 87.2996 62.2788C87.5001 62.0035 87.769 61.7901 88.1061 61.6386C88.4454 61.485 88.8241 61.4082 89.2424 61.4082C89.6648 61.4082 90.0404 61.4839 90.369 61.6354C90.6976 61.7848 90.9579 61.9896 91.15 62.2499C91.3441 62.5103 91.4465 62.8058 91.4572 63.1365H90.6891ZM93.3947 62.2019V61.4978H98.3109V62.2019H96.2497V68.0527H95.456V62.2019H93.3947ZM108.175 61.4978H108.969V65.8379C108.969 66.286 108.863 66.6861 108.652 67.0381C108.443 67.3881 108.147 67.6644 107.766 67.8671C107.384 68.0677 106.935 68.168 106.421 68.168C105.907 68.168 105.459 68.0677 105.077 67.8671C104.695 67.6644 104.398 67.3881 104.187 67.0381C103.978 66.6861 103.874 66.286 103.874 65.8379V61.4978H104.667V65.7739C104.667 66.0939 104.738 66.3788 104.879 66.6284C105.019 66.876 105.22 67.0712 105.48 67.2142C105.743 67.355 106.056 67.4254 106.421 67.4254C106.786 67.4254 107.1 67.355 107.362 67.2142C107.625 67.0712 107.825 66.876 107.964 66.6284C108.105 66.3788 108.175 66.0939 108.175 65.7739V61.4978ZM111.455 68.0527V61.4978H113.67C114.184 61.4978 114.605 61.5906 114.931 61.7763C115.26 61.9598 115.503 62.2083 115.661 62.522C115.819 62.8357 115.898 63.1856 115.898 63.5718C115.898 63.958 115.819 64.309 115.661 64.6248C115.505 64.9406 115.264 65.1924 114.938 65.3802C114.611 65.5658 114.193 65.6586 113.683 65.6586H112.096V64.9545H113.657C114.01 64.9545 114.292 64.8937 114.506 64.7721C114.719 64.6504 114.874 64.4861 114.97 64.2792C115.068 64.0701 115.117 63.8343 115.117 63.5718C115.117 63.3094 115.068 63.0747 114.97 62.8677C114.874 62.6607 114.718 62.4985 114.502 62.3812C114.287 62.2617 114.001 62.2019 113.645 62.2019H112.249V68.0527H111.455ZM120.101 68.0527H118.078V61.4978H120.19C120.826 61.4978 121.37 61.629 121.823 61.8915C122.275 62.1518 122.622 62.5263 122.863 63.0149C123.104 63.5014 123.225 64.0839 123.225 64.7625C123.225 65.4453 123.103 66.0331 122.86 66.526C122.616 67.0168 122.262 67.3945 121.797 67.6591C121.332 67.9215 120.766 68.0527 120.101 68.0527ZM118.872 67.3486H120.049C120.591 67.3486 121.041 67.244 121.397 67.0349C121.753 66.8258 122.019 66.5282 122.194 66.1419C122.369 65.7557 122.456 65.2959 122.456 64.7625C122.456 64.2333 122.37 63.7777 122.197 63.3958C122.024 63.0117 121.766 62.7172 121.423 62.5124C121.079 62.3054 120.651 62.2019 120.139 62.2019H118.872V67.3486ZM125.418 68.0527H124.586L126.993 61.4978H127.812L130.219 68.0527H129.387L127.428 62.5348H127.377L125.418 68.0527ZM125.725 65.4922H129.08V66.1964H125.725V65.4922ZM131.017 62.2019V61.4978H135.933V62.2019H133.872V68.0527H133.078V62.2019H131.017ZM138.06 68.0527V61.4978H142.016V62.2019H138.853V64.4168H141.811V65.1209H138.853V67.3486H142.067V68.0527H138.06ZM146.371 68.0527H144.348V61.4978H146.46C147.096 61.4978 147.64 61.629 148.092 61.8915C148.545 62.1518 148.892 62.5263 149.133 63.0149C149.374 63.5014 149.494 64.0839 149.494 64.7625C149.494 65.4453 149.373 66.0331 149.129 66.526C148.886 67.0168 148.532 67.3945 148.067 67.6591C147.602 67.9215 147.036 68.0527 146.371 68.0527ZM145.141 67.3486H146.319C146.861 67.3486 147.31 67.244 147.667 67.0349C148.023 66.8258 148.289 66.5282 148.464 66.1419C148.639 65.7557 148.726 65.2959 148.726 64.7625C148.726 64.2333 148.64 63.7777 148.467 63.3958C148.294 63.0117 148.036 62.7172 147.692 62.5124C147.349 62.3054 146.921 62.2019 146.409 62.2019H145.141V67.3486ZM160.694 64.7753C160.694 65.4666 160.569 66.0641 160.32 66.5676C160.07 67.0712 159.727 67.4595 159.292 67.7327C158.857 68.0058 158.36 68.1424 157.801 68.1424C157.242 68.1424 156.744 68.0058 156.309 67.7327C155.874 67.4595 155.531 67.0712 155.282 66.5676C155.032 66.0641 154.907 65.4666 154.907 64.7753C154.907 64.0839 155.032 63.4865 155.282 62.9829C155.531 62.4793 155.874 62.091 156.309 61.8179C156.744 61.5447 157.242 61.4082 157.801 61.4082C158.36 61.4082 158.857 61.5447 159.292 61.8179C159.727 62.091 160.07 62.4793 160.32 62.9829C160.569 63.4865 160.694 64.0839 160.694 64.7753ZM159.926 64.7753C159.926 64.2077 159.831 63.7287 159.641 63.3382C159.453 62.9477 159.198 62.6522 158.876 62.4516C158.556 62.251 158.198 62.1507 157.801 62.1507C157.404 62.1507 157.044 62.251 156.722 62.4516C156.402 62.6522 156.147 62.9477 155.957 63.3382C155.769 63.7287 155.675 64.2077 155.675 64.7753C155.675 65.3428 155.769 65.8219 155.957 66.2124C156.147 66.6028 156.402 66.8984 156.722 67.0989C157.044 67.2995 157.404 67.3998 157.801 67.3998C158.198 67.3998 158.556 67.2995 158.876 67.0989C159.198 66.8984 159.453 66.6028 159.641 66.2124C159.831 65.8219 159.926 65.3428 159.926 64.7753ZM168.128 61.4978V68.0527H167.36L163.788 62.9061H163.724V68.0527H162.93V61.4978H163.698L167.283 66.6572H167.347V61.4978H168.128ZM171.066 67.2142C170.908 67.2142 170.772 67.1576 170.659 67.0445C170.546 66.9314 170.49 66.7959 170.49 66.638C170.49 66.4801 170.546 66.3447 170.659 66.2316C170.772 66.1185 170.908 66.0619 171.066 66.0619C171.224 66.0619 171.359 66.1185 171.472 66.2316C171.585 66.3447 171.642 66.4801 171.642 66.638C171.642 66.7426 171.615 66.8386 171.562 66.9261C171.511 67.0136 171.441 67.084 171.354 67.1373C171.268 67.1886 171.172 67.2142 171.066 67.2142ZM171.066 63.8983C170.908 63.8983 170.772 63.8417 170.659 63.7287C170.546 63.6156 170.49 63.4801 170.49 63.3222C170.49 63.1643 170.546 63.0288 170.659 62.9157C170.772 62.8026 170.908 62.7461 171.066 62.7461C171.224 62.7461 171.359 62.8026 171.472 62.9157C171.585 63.0288 171.642 63.1643 171.642 63.3222C171.642 63.4267 171.615 63.5227 171.562 63.6102C171.511 63.6977 171.441 63.7681 171.354 63.8215C171.268 63.8727 171.172 63.8983 171.066 63.8983Z" fill="#6F727A"/>
<path d="M182.208 63.383C182.182 63.1248 182.072 62.9242 181.878 62.7813C181.684 62.6383 181.42 62.5668 181.087 62.5668C180.861 62.5668 180.67 62.5988 180.515 62.6628C180.359 62.7247 180.239 62.8111 180.156 62.9221C180.075 63.033 180.034 63.1589 180.034 63.2998C180.03 63.4171 180.055 63.5195 180.108 63.607C180.164 63.6945 180.239 63.7703 180.335 63.8343C180.431 63.8962 180.542 63.9506 180.668 63.9975C180.794 64.0423 180.928 64.0807 181.071 64.1127L181.66 64.2536C181.946 64.3176 182.209 64.4029 182.448 64.5096C182.687 64.6163 182.894 64.7475 183.069 64.9033C183.244 65.0591 183.379 65.2426 183.475 65.4538C183.573 65.665 183.623 65.9072 183.626 66.1804C183.623 66.5815 183.521 66.9293 183.318 67.2238C183.118 67.5161 182.828 67.7433 182.448 67.9055C182.07 68.0655 181.614 68.1456 181.081 68.1456C180.552 68.1456 180.091 68.0645 179.698 67.9023C179.308 67.7401 179.003 67.5001 178.783 67.1822C178.565 66.8621 178.451 66.4663 178.441 65.9947H179.782C179.797 66.2145 179.859 66.398 179.97 66.5452C180.084 66.6903 180.234 66.8002 180.422 66.8749C180.612 66.9474 180.826 66.9837 181.065 66.9837C181.3 66.9837 181.504 66.9496 181.676 66.8813C181.851 66.813 181.987 66.7181 182.083 66.5964C182.179 66.4748 182.227 66.3351 182.227 66.1772C182.227 66.0299 182.183 65.9062 182.096 65.8059C182.01 65.7056 181.884 65.6202 181.718 65.5498C181.554 65.4794 181.352 65.4154 181.113 65.3578L180.399 65.1785C179.847 65.0441 179.41 64.8339 179.09 64.548C178.77 64.2621 178.611 63.8769 178.613 63.3926C178.611 62.9957 178.717 62.649 178.93 62.3524C179.146 62.0558 179.441 61.8243 179.817 61.6578C180.192 61.4914 180.619 61.4082 181.097 61.4082C181.584 61.4082 182.008 61.4914 182.371 61.6578C182.736 61.8243 183.02 62.0558 183.222 62.3524C183.425 62.649 183.53 62.9925 183.536 63.383H182.208ZM186.773 68.1488C186.267 68.1488 185.832 68.0463 185.467 67.8415C185.104 67.6345 184.824 67.3422 184.628 66.9645C184.432 66.5847 184.334 66.1355 184.334 65.617C184.334 65.1113 184.432 64.6675 184.628 64.2856C184.824 63.9036 185.101 63.606 185.457 63.3926C185.816 63.1792 186.236 63.0725 186.718 63.0725C187.043 63.0725 187.344 63.1248 187.624 63.2293C187.906 63.3318 188.151 63.4865 188.36 63.6934C188.571 63.9004 188.736 64.1607 188.853 64.4744C188.97 64.7859 189.029 65.1508 189.029 65.569V65.9435H184.878V65.0985H187.746C187.746 64.9022 187.703 64.7283 187.618 64.5768C187.532 64.4253 187.414 64.3069 187.262 64.2216C187.113 64.1341 186.939 64.0903 186.741 64.0903C186.534 64.0903 186.35 64.1383 186.19 64.2344C186.032 64.3282 185.908 64.4552 185.819 64.6152C185.729 64.7731 185.683 64.9492 185.681 65.1433V65.9467C185.681 66.19 185.726 66.4001 185.816 66.5772C185.907 66.7543 186.036 66.8909 186.203 66.9869C186.369 67.0829 186.567 67.1309 186.795 67.1309C186.947 67.1309 187.085 67.1096 187.211 67.0669C187.337 67.0243 187.445 66.9602 187.534 66.8749C187.624 66.7895 187.692 66.685 187.739 66.5612L189 66.6444C188.936 66.9474 188.805 67.212 188.607 67.4382C188.41 67.6623 188.156 67.8372 187.845 67.9631C187.535 68.0869 187.178 68.1488 186.773 68.1488ZM189.919 69.8963V63.1365H191.263V63.9623H191.324C191.384 63.83 191.47 63.6956 191.583 63.559C191.698 63.4203 191.848 63.3051 192.031 63.2133C192.217 63.1195 192.447 63.0725 192.723 63.0725C193.081 63.0725 193.412 63.1664 193.715 63.3542C194.018 63.5398 194.26 63.8204 194.441 64.1959C194.623 64.5694 194.713 65.0377 194.713 65.601C194.713 66.1494 194.625 66.6124 194.448 66.9901C194.273 67.3657 194.034 67.6505 193.731 67.8447C193.43 68.0367 193.093 68.1328 192.719 68.1328C192.455 68.1328 192.23 68.089 192.044 68.0015C191.861 67.914 191.71 67.8042 191.593 67.6719C191.475 67.5374 191.386 67.4019 191.324 67.2654H191.282V69.8963H189.919ZM191.254 65.5946C191.254 65.887 191.294 66.1419 191.375 66.3596C191.456 66.5772 191.574 66.7469 191.727 66.8685C191.881 66.988 192.068 67.0477 192.287 67.0477C192.509 67.0477 192.697 66.9869 192.851 66.8653C193.004 66.7415 193.121 66.5708 193.2 66.3532C193.281 66.1334 193.321 65.8806 193.321 65.5946C193.321 65.3108 193.282 65.0612 193.203 64.8457C193.124 64.6302 193.007 64.4616 192.854 64.34C192.7 64.2184 192.511 64.1575 192.287 64.1575C192.065 64.1575 191.878 64.2162 191.724 64.3336C191.573 64.4509 191.456 64.6174 191.375 64.8329C191.294 65.0484 191.254 65.3023 191.254 65.5946ZM197.696 68.0527V67.0541L200.029 64.8937C200.227 64.7016 200.394 64.5288 200.528 64.3752C200.665 64.2216 200.768 64.0711 200.839 63.9239C200.909 63.7745 200.944 63.6134 200.944 63.4406C200.944 63.2486 200.901 63.0832 200.813 62.9445C200.726 62.8037 200.606 62.6959 200.455 62.6212C200.303 62.5444 200.131 62.506 199.939 62.506C199.739 62.506 199.564 62.5465 199.414 62.6276C199.265 62.7087 199.15 62.825 199.069 62.9765C198.988 63.128 198.947 63.3083 198.947 63.5174H197.632C197.632 63.0885 197.729 62.7162 197.923 62.4004C198.117 62.0846 198.389 61.8403 198.739 61.6674C199.089 61.4946 199.492 61.4082 199.949 61.4082C200.418 61.4082 200.827 61.4914 201.175 61.6578C201.525 61.8221 201.797 62.0504 201.991 62.3428C202.185 62.6351 202.282 62.9701 202.282 63.3478C202.282 63.5953 202.233 63.8396 202.135 64.0807C202.039 64.3218 201.867 64.5896 201.62 64.8841C201.372 65.1764 201.023 65.5274 200.573 65.9371L199.616 66.8749V66.9197H202.369V68.0527H197.696ZM205.744 61.4082C206.082 61.4082 206.406 61.4647 206.717 61.5778C207.031 61.6909 207.311 61.8712 207.556 62.1187C207.804 62.3662 207.999 62.6948 208.142 63.1045C208.287 63.5121 208.36 64.0124 208.363 64.6056C208.363 65.1625 208.3 65.6597 208.174 66.0971C208.05 66.5324 207.872 66.9026 207.639 67.2078C207.407 67.5129 207.126 67.7455 206.797 67.9055C206.469 68.0634 206.102 68.1424 205.696 68.1424C205.259 68.1424 204.873 68.0581 204.538 67.8895C204.203 67.7188 203.933 67.4873 203.728 67.195C203.525 66.9005 203.403 66.5698 203.36 66.2028H204.727C204.78 66.4417 204.892 66.6274 205.063 66.7597C205.233 66.8898 205.445 66.9549 205.696 66.9549C206.123 66.9549 206.448 66.7693 206.669 66.398C206.891 66.0246 207.003 65.5135 207.006 64.8649H206.961C206.863 65.0569 206.73 65.2223 206.564 65.361C206.397 65.4975 206.206 65.6032 205.991 65.6778C205.778 65.7525 205.55 65.7899 205.309 65.7899C204.923 65.7899 204.578 65.6992 204.275 65.5178C203.972 65.3364 203.733 65.0868 203.558 64.7689C203.383 64.4509 203.296 64.0882 203.296 63.6806C203.294 63.2411 203.395 62.8495 203.6 62.506C203.805 62.1625 204.091 61.8936 204.458 61.6994C204.827 61.5031 205.256 61.406 205.744 61.4082ZM205.754 62.4964C205.539 62.4964 205.347 62.5476 205.178 62.65C205.012 62.7525 204.879 62.8901 204.781 63.0629C204.685 63.2358 204.638 63.4289 204.64 63.6422C204.64 63.8577 204.687 64.0519 204.781 64.2248C204.877 64.3955 205.007 64.532 205.172 64.6344C205.338 64.7347 205.528 64.7849 205.741 64.7849C205.901 64.7849 206.05 64.755 206.186 64.6952C206.323 64.6355 206.441 64.5534 206.541 64.4488C206.644 64.3421 206.724 64.2194 206.781 64.0807C206.839 63.942 206.868 63.7948 206.868 63.639C206.866 63.4321 206.817 63.2422 206.721 63.0693C206.625 62.8965 206.492 62.7578 206.324 62.6532C206.155 62.5487 205.965 62.4964 205.754 62.4964ZM210.553 67.1566L210.518 67.5086C210.491 67.7903 210.437 68.0709 210.358 68.3504C210.281 68.6321 210.2 68.887 210.115 69.1154C210.032 69.3437 209.965 69.5229 209.913 69.6531H209.03C209.062 69.5272 209.106 69.3511 209.161 69.125C209.217 68.9009 209.269 68.6491 209.318 68.3696C209.367 68.0901 209.398 67.8052 209.411 67.515L209.427 67.1566H210.553ZM213.565 68.0527V67.0541L215.899 64.8937C216.097 64.7016 216.263 64.5288 216.398 64.3752C216.534 64.2216 216.638 64.0711 216.708 63.9239C216.779 63.7745 216.814 63.6134 216.814 63.4406C216.814 63.2486 216.77 63.0832 216.683 62.9445C216.595 62.8037 216.476 62.6959 216.324 62.6212C216.173 62.5444 216.001 62.506 215.809 62.506C215.608 62.506 215.433 62.5465 215.284 62.6276C215.135 62.7087 215.019 62.825 214.938 62.9765C214.857 63.128 214.817 63.3083 214.817 63.5174H213.501C213.501 63.0885 213.598 62.7162 213.793 62.4004C213.987 62.0846 214.259 61.8403 214.609 61.6674C214.959 61.4946 215.362 61.4082 215.819 61.4082C216.288 61.4082 216.697 61.4914 217.044 61.6578C217.394 61.8221 217.666 62.0504 217.861 62.3428C218.055 62.6351 218.152 62.9701 218.152 63.3478C218.152 63.5953 218.103 63.8396 218.005 64.0807C217.909 64.3218 217.737 64.5896 217.489 64.8841C217.242 65.1764 216.893 65.5274 216.443 65.9371L215.486 66.8749V66.9197H218.238V68.0527H213.565ZM221.813 68.1968C221.262 68.1946 220.788 68.0591 220.391 67.7903C219.997 67.5214 219.693 67.132 219.479 66.622C219.268 66.1121 219.163 65.4986 219.166 64.7817C219.166 64.0669 219.271 63.4577 219.482 62.9541C219.696 62.4505 220 62.0675 220.395 61.8051C220.792 61.5405 221.264 61.4082 221.813 61.4082C222.361 61.4082 222.833 61.5405 223.227 61.8051C223.624 62.0696 223.929 62.4537 224.143 62.9573C224.356 63.4587 224.462 64.0669 224.46 64.7817C224.46 65.5007 224.353 66.1153 224.139 66.6252C223.928 67.1352 223.625 67.5246 223.23 67.7935C222.836 68.0623 222.363 68.1968 221.813 68.1968ZM221.813 67.0477C222.188 67.0477 222.488 66.8589 222.712 66.4812C222.936 66.1035 223.047 65.537 223.045 64.7817C223.045 64.2845 222.994 63.8705 222.891 63.5398C222.791 63.2091 222.648 62.9605 222.462 62.7941C222.279 62.6276 222.062 62.5444 221.813 62.5444C221.439 62.5444 221.14 62.7311 220.916 63.1045C220.692 63.4779 220.579 64.037 220.577 64.7817C220.577 65.2852 220.627 65.7056 220.728 66.0427C220.83 66.3777 220.974 66.6295 221.16 66.7981C221.345 66.9645 221.563 67.0477 221.813 67.0477ZM225.448 68.0527V67.0541L227.781 64.8937C227.979 64.7016 228.146 64.5288 228.28 64.3752C228.417 64.2216 228.52 64.0711 228.591 63.9239C228.661 63.7745 228.696 63.6134 228.696 63.4406C228.696 63.2486 228.653 63.0832 228.565 62.9445C228.478 62.8037 228.358 62.6959 228.207 62.6212C228.055 62.5444 227.883 62.506 227.691 62.506C227.491 62.506 227.316 62.5465 227.166 62.6276C227.017 62.7087 226.902 62.825 226.821 62.9765C226.74 63.128 226.699 63.3083 226.699 63.5174H225.384C225.384 63.0885 225.481 62.7162 225.675 62.4004C225.869 62.0846 226.141 61.8403 226.491 61.6674C226.841 61.4946 227.244 61.4082 227.701 61.4082C228.17 61.4082 228.579 61.4914 228.927 61.6578C229.277 61.8221 229.549 62.0504 229.743 62.3428C229.937 62.6351 230.034 62.9701 230.034 63.3478C230.034 63.5953 229.985 63.8396 229.887 64.0807C229.791 64.3218 229.619 64.5896 229.372 64.8841C229.124 65.1764 228.775 65.5274 228.325 65.9371L227.368 66.8749V66.9197H230.121V68.0527H225.448ZM233.548 68.1424C233.07 68.1424 232.644 68.0602 232.271 67.8959C231.899 67.7295 231.606 67.5012 231.391 67.211C231.177 66.9186 231.067 66.5815 231.061 66.1996H232.456C232.465 66.3596 232.517 66.5004 232.613 66.622C232.711 66.7415 232.841 66.8344 233.004 66.9005C233.166 66.9666 233.348 66.9997 233.551 66.9997C233.762 66.9997 233.949 66.9624 234.111 66.8877C234.273 66.813 234.4 66.7095 234.492 66.5772C234.584 66.4449 234.63 66.2924 234.63 66.1195C234.63 65.9446 234.581 65.7899 234.482 65.6554C234.386 65.5189 234.248 65.4122 234.066 65.3354C233.887 65.2586 233.674 65.2202 233.426 65.2202H232.815V64.2023H233.426C233.635 64.2023 233.82 64.1661 233.98 64.0935C234.142 64.021 234.268 63.9207 234.358 63.7927C234.447 63.6625 234.492 63.511 234.492 63.3382C234.492 63.1739 234.452 63.0298 234.374 62.9061C234.297 62.7802 234.188 62.682 234.047 62.6116C233.908 62.5412 233.746 62.506 233.561 62.506C233.373 62.506 233.201 62.5401 233.045 62.6084C232.889 62.6746 232.765 62.7695 232.671 62.8933C232.577 63.017 232.527 63.1621 232.52 63.3286H231.192C231.198 62.9509 231.306 62.618 231.515 62.33C231.724 62.0419 232.006 61.8168 232.36 61.6546C232.717 61.4903 233.119 61.4082 233.567 61.4082C234.019 61.4082 234.415 61.4903 234.754 61.6546C235.094 61.8189 235.357 62.0408 235.545 62.3204C235.735 62.5978 235.829 62.9093 235.827 63.255C235.829 63.622 235.715 63.9282 235.484 64.1735C235.256 64.4189 234.958 64.5747 234.591 64.6408V64.692C235.073 64.7539 235.44 64.9214 235.692 65.1946C235.946 65.4655 236.072 65.8048 236.07 66.2124C236.072 66.5858 235.964 66.9176 235.747 67.2078C235.531 67.498 235.233 67.7263 234.854 67.8927C234.474 68.0591 234.039 68.1424 233.548 68.1424ZM240.647 67.1566L240.612 67.5086C240.584 67.7903 240.531 68.0709 240.452 68.3504C240.375 68.6321 240.294 68.887 240.208 69.1154C240.125 69.3437 240.058 69.5229 240.007 69.6531H239.123C239.155 69.5272 239.199 69.3511 239.255 69.125C239.31 68.9009 239.362 68.6491 239.411 68.3696C239.46 68.0901 239.491 67.8052 239.504 67.515L239.52 67.1566H240.647ZM243.914 61.4978V68.0527H242.528V62.8133H242.49L240.988 63.7543V62.5252L242.611 61.4978H243.914ZM248.324 61.4978V68.0527H246.938V62.8133H246.899L245.398 63.7543V62.5252L247.021 61.4978H248.324ZM250.691 67.291C250.48 67.291 250.299 67.2163 250.147 67.0669C249.998 66.9176 249.923 66.7362 249.923 66.5228C249.923 66.3137 249.998 66.1345 250.147 65.9851C250.299 65.8357 250.48 65.7611 250.691 65.7611C250.896 65.7611 251.075 65.8357 251.229 65.9851C251.383 66.1345 251.459 66.3137 251.459 66.5228C251.459 66.6637 251.423 66.7927 251.351 66.9101C251.28 67.0253 251.187 67.1181 251.072 67.1886C250.957 67.2568 250.83 67.291 250.691 67.291ZM250.691 64.0743C250.48 64.0743 250.299 63.9996 250.147 63.8503C249.998 63.7009 249.923 63.5195 249.923 63.3062C249.923 63.0971 249.998 62.9189 250.147 62.7717C250.299 62.6223 250.48 62.5476 250.691 62.5476C250.896 62.5476 251.075 62.6223 251.229 62.7717C251.383 62.9189 251.459 63.0971 251.459 63.3062C251.459 63.4491 251.423 63.5793 251.351 63.6966C251.28 63.8119 251.187 63.9036 251.072 63.9719C250.957 64.0402 250.83 64.0743 250.691 64.0743ZM254.989 68.1424C254.511 68.1424 254.085 68.0602 253.712 67.8959C253.341 67.7295 253.047 67.5012 252.832 67.211C252.618 66.9186 252.508 66.5815 252.502 66.1996H253.898C253.906 66.3596 253.958 66.5004 254.054 66.622C254.152 66.7415 254.283 66.8344 254.445 66.9005C254.607 66.9666 254.789 66.9997 254.992 66.9997C255.203 66.9997 255.39 66.9624 255.552 66.8877C255.714 66.813 255.841 66.7095 255.933 66.5772C256.025 66.4449 256.071 66.2924 256.071 66.1195C256.071 65.9446 256.022 65.7899 255.924 65.6554C255.828 65.5189 255.689 65.4122 255.507 65.3354C255.328 65.2586 255.115 65.2202 254.867 65.2202H254.256V64.2023H254.867C255.076 64.2023 255.261 64.1661 255.421 64.0935C255.583 64.021 255.709 63.9207 255.799 63.7927C255.888 63.6625 255.933 63.511 255.933 63.3382C255.933 63.1739 255.894 63.0298 255.815 62.9061C255.738 62.7802 255.629 62.682 255.488 62.6116C255.35 62.5412 255.187 62.506 255.002 62.506C254.814 62.506 254.642 62.5401 254.486 62.6084C254.331 62.6746 254.206 62.7695 254.112 62.8933C254.018 63.017 253.968 63.1621 253.962 63.3286H252.633C252.64 62.9509 252.747 62.618 252.957 62.33C253.166 62.0419 253.447 61.8168 253.801 61.6546C254.158 61.4903 254.56 61.4082 255.008 61.4082C255.46 61.4082 255.856 61.4903 256.196 61.6546C256.535 61.8189 256.798 62.0408 256.986 62.3204C257.176 62.5978 257.27 62.9093 257.268 63.255C257.27 63.622 257.156 63.9282 256.925 64.1735C256.697 64.4189 256.399 64.5747 256.032 64.6408V64.692C256.515 64.7539 256.882 64.9214 257.133 65.1946C257.387 65.4655 257.513 65.8048 257.511 66.2124C257.513 66.5858 257.405 66.9176 257.188 67.2078C256.972 67.498 256.675 67.7263 256.295 67.8927C255.915 68.0591 255.48 68.1424 254.989 68.1424ZM261.077 68.1968C260.527 68.1946 260.053 68.0591 259.656 67.7903C259.262 67.5214 258.957 67.132 258.744 66.622C258.533 66.1121 258.428 65.4986 258.43 64.7817C258.43 64.0669 258.536 63.4577 258.747 62.9541C258.961 62.4505 259.265 62.0675 259.659 61.8051C260.056 61.5405 260.529 61.4082 261.077 61.4082C261.626 61.4082 262.097 61.5405 262.492 61.8051C262.889 62.0696 263.194 62.4537 263.407 62.9573C263.621 63.4587 263.726 64.0669 263.724 64.7817C263.724 65.5007 263.618 66.1153 263.404 66.6252C263.193 67.1352 262.89 67.5246 262.495 67.7935C262.101 68.0623 261.628 68.1968 261.077 68.1968ZM261.077 67.0477C261.453 67.0477 261.753 66.8589 261.977 66.4812C262.201 66.1035 262.312 65.537 262.31 64.7817C262.31 64.2845 262.258 63.8705 262.156 63.5398C262.056 63.2091 261.913 62.9605 261.727 62.7941C261.544 62.6276 261.327 62.5444 261.077 62.5444C260.704 62.5444 260.405 62.7311 260.181 63.1045C259.957 63.4779 259.844 64.037 259.842 64.7817C259.842 65.2852 259.892 65.7056 259.992 66.0427C260.095 66.3777 260.239 66.6295 260.424 66.7981C260.61 66.9645 260.828 67.0477 261.077 67.0477ZM268.213 68.1456C267.9 68.1456 267.62 68.0911 267.375 67.9823C267.129 67.8714 266.935 67.7081 266.792 67.4926C266.651 67.275 266.581 67.004 266.581 66.6797C266.581 66.4065 266.631 66.1772 266.731 65.9915C266.832 65.8059 266.968 65.6565 267.141 65.5434C267.314 65.4303 267.51 65.345 267.73 65.2874C267.952 65.2298 268.184 65.1892 268.428 65.1657C268.714 65.1359 268.944 65.1081 269.119 65.0825C269.294 65.0548 269.421 65.0142 269.5 64.9609C269.579 64.9076 269.618 64.8286 269.618 64.7241V64.7049C269.618 64.5021 269.554 64.3453 269.426 64.2344C269.3 64.1234 269.121 64.0679 268.889 64.0679C268.643 64.0679 268.448 64.1223 268.303 64.2312C268.158 64.3378 268.062 64.4723 268.015 64.6344L266.754 64.532C266.818 64.2333 266.944 63.9751 267.131 63.7575C267.319 63.5377 267.561 63.3691 267.858 63.2518C268.157 63.1323 268.502 63.0725 268.895 63.0725C269.168 63.0725 269.429 63.1045 269.679 63.1685C269.931 63.2325 270.154 63.3318 270.348 63.4662C270.544 63.6006 270.699 63.7735 270.812 63.9847C270.925 64.1938 270.982 64.4445 270.982 64.7369V68.0527H269.689V67.371H269.65C269.571 67.5246 269.466 67.6601 269.333 67.7775C269.201 67.8927 269.042 67.9834 268.857 68.0495C268.671 68.1135 268.456 68.1456 268.213 68.1456ZM268.604 67.2046C268.804 67.2046 268.981 67.1651 269.135 67.0861C269.289 67.0051 269.409 66.8962 269.497 66.7597C269.584 66.6231 269.628 66.4684 269.628 66.2956V65.7739C269.585 65.8016 269.527 65.8272 269.452 65.8507C269.379 65.872 269.297 65.8923 269.205 65.9115C269.114 65.9286 269.022 65.9446 268.93 65.9595C268.838 65.9723 268.755 65.984 268.681 65.9947C268.52 66.0182 268.381 66.0555 268.261 66.1067C268.142 66.1579 268.049 66.2273 267.983 66.3148C267.917 66.4001 267.884 66.5068 267.884 66.6348C267.884 66.8205 267.951 66.9624 268.085 67.0605C268.222 67.1566 268.395 67.2046 268.604 67.2046ZM272.04 68.0527V63.1365H273.339V64.0039H273.397C273.499 63.7158 273.67 63.4886 273.909 63.3222C274.148 63.1557 274.434 63.0725 274.767 63.0725C275.104 63.0725 275.391 63.1568 275.628 63.3254C275.864 63.4918 276.022 63.718 276.101 64.0039H276.152C276.253 63.7223 276.434 63.4971 276.697 63.3286C276.961 63.1579 277.274 63.0725 277.634 63.0725C278.093 63.0725 278.465 63.2187 278.751 63.511C279.039 63.8012 279.183 64.213 279.183 64.7465V68.0527H277.823V65.0153C277.823 64.7422 277.751 64.5373 277.606 64.4008C277.46 64.2642 277.279 64.1959 277.061 64.1959C276.814 64.1959 276.621 64.2749 276.482 64.4328C276.343 64.5886 276.274 64.7945 276.274 65.0505V68.0527H274.952V64.9865C274.952 64.7454 274.883 64.5534 274.744 64.4104C274.608 64.2674 274.427 64.1959 274.203 64.1959C274.052 64.1959 273.915 64.2344 273.794 64.3112C273.674 64.3859 273.579 64.4915 273.509 64.628C273.438 64.7625 273.403 64.9204 273.403 65.1017V68.0527H272.04Z" fill="#6F727A"/>
<path fill-rule="evenodd" clip-rule="evenodd" d="M252.797 159.642C252.797 201.776 218.641 235.931 176.508 235.931C134.374 235.931 100.219 201.776 100.219 159.642C100.219 117.509 134.374 83.3535 176.508 83.3535C218.641 83.3535 252.797 117.509 252.797 159.642ZM224.824 159.642C224.824 186.326 203.192 207.958 176.507 207.958C149.823 207.958 128.191 186.326 128.191 159.642C128.191 132.958 149.823 111.326 176.507 111.326C203.192 111.326 224.824 132.958 224.824 159.642Z" fill="#E1E4E8"/>
<mask id="mask0_1603_12362" style="mask-type:luminance" maskUnits="userSpaceOnUse" x="100" y="83" width="153" height="153">
<path fill-rule="evenodd" clip-rule="evenodd" d="M252.797 159.642C252.797 201.776 218.641 235.931 176.508 235.931C134.374 235.931 100.219 201.776 100.219 159.642C100.219 117.509 134.374 83.3535 176.508 83.3535C218.641 83.3535 252.797 117.509 252.797 159.642ZM224.824 159.642C224.824 186.326 203.192 207.958 176.507 207.958C149.823 207.958 128.191 186.326 128.191 159.642C128.191 132.958 149.823 111.326 176.507 111.326C203.192 111.326 224.824 132.958 224.824 159.642Z" fill="white"/>
</mask>
<g mask="url(#mask0_1603_12362)">
<rect x="100.219" y="83.3535" width="152.578" height="152.578" fill="#F8D378"/>
<mask id="mask1_1603_12362" style="mask-type:luminance" maskUnits="userSpaceOnUse" x="92" y="91" width="85" height="70">
<path fill-rule="evenodd" clip-rule="evenodd" d="M92.8984 160.305L105.242 112.37L124.249 91.1582L176.5 159.642L92.8984 160.305Z" fill="white"/>
</mask>
<g mask="url(#mask1_1603_12362)">
<rect x="99.7578" y="83.1074" width="152.578" height="152.578" fill="#B08EFA"/>
</g>
<mask id="mask2_1603_12362" style="mask-type:luminance" maskUnits="userSpaceOnUse" x="89" y="159" width="88" height="85">
<path fill-rule="evenodd" clip-rule="evenodd" d="M153.653 243.185L105.246 219.035L89.1133 160.114L176.503 159.643L153.653 243.185Z" fill="white"/>
</mask>
<g mask="url(#mask2_1603_12362)">
<rect x="99.7383" y="82.8613" width="152.578" height="152.578" fill="#50D4EE"/>
</g>
<mask id="mask3_1603_12362" style="mask-type:luminance" maskUnits="userSpaceOnUse" x="150" y="71" width="114" height="179">
<path fill-rule="evenodd" clip-rule="evenodd" d="M176.546 71.7695L176.504 159.643L150.117 249.903C150.117 249.903 235.082 232.979 254.642 202.751C274.201 172.522 254.642 91.519 254.642 91.519L176.546 71.7695Z" fill="white"/>
</mask>
<g mask="url(#mask3_1603_12362)">
<rect x="99.7305" y="83.582" width="152.578" height="152.578" fill="#87F1D5"/>
</g>
<path opacity="0.3" fill-rule="evenodd" clip-rule="evenodd" d="M176.504 213.045C205.997 213.045 229.906 189.136 229.906 159.642C229.906 130.149 205.997 106.24 176.504 106.24C147.011 106.24 123.102 130.149 123.102 159.642C123.102 189.136 147.011 213.045 176.504 213.045Z" fill="white"/>
<path d="M166.398 169.036C165.622 169.036 164.931 168.894 164.324 168.608C163.72 168.323 163.241 167.93 162.886 167.429C162.531 166.928 162.347 166.353 162.332 165.706H164.637C164.662 166.141 164.845 166.494 165.185 166.765C165.525 167.036 165.93 167.171 166.398 167.171C166.771 167.171 167.1 167.089 167.386 166.924C167.674 166.756 167.899 166.523 168.06 166.227C168.225 165.927 168.307 165.583 168.307 165.196C168.307 164.801 168.223 164.453 168.055 164.153C167.89 163.853 167.662 163.619 167.369 163.451C167.076 163.283 166.742 163.197 166.365 163.193C166.036 163.193 165.716 163.261 165.405 163.396C165.097 163.531 164.858 163.716 164.686 163.95L162.574 163.572L163.106 157.646H169.975V159.588H165.065L164.774 162.403H164.84C165.037 162.125 165.335 161.894 165.734 161.712C166.133 161.529 166.579 161.437 167.073 161.437C167.749 161.437 168.353 161.596 168.883 161.915C169.414 162.233 169.833 162.67 170.14 163.226C170.447 163.778 170.599 164.415 170.595 165.135C170.599 165.892 170.423 166.566 170.069 167.154C169.717 167.74 169.225 168.201 168.593 168.537C167.963 168.87 167.232 169.036 166.398 169.036ZM176.406 169.036C175.586 169.036 174.857 168.896 174.217 168.614C173.58 168.329 173.077 167.937 172.708 167.44C172.342 166.939 172.154 166.361 172.143 165.706H174.535C174.549 165.98 174.639 166.222 174.804 166.43C174.972 166.635 175.195 166.794 175.473 166.908C175.751 167.021 176.064 167.078 176.411 167.078C176.773 167.078 177.094 167.014 177.372 166.886C177.65 166.758 177.867 166.58 178.024 166.353C178.182 166.127 178.26 165.865 178.26 165.569C178.26 165.269 178.176 165.004 178.008 164.773C177.843 164.539 177.606 164.356 177.295 164.224C176.987 164.093 176.622 164.027 176.197 164.027H175.149V162.282H176.197C176.556 162.282 176.872 162.22 177.147 162.096C177.425 161.971 177.64 161.799 177.794 161.58C177.948 161.357 178.024 161.097 178.024 160.801C178.024 160.519 177.957 160.272 177.821 160.06C177.69 159.844 177.503 159.676 177.262 159.555C177.024 159.434 176.746 159.374 176.428 159.374C176.106 159.374 175.811 159.433 175.544 159.55C175.277 159.663 175.063 159.826 174.902 160.038C174.742 160.25 174.656 160.499 174.645 160.784H172.368C172.379 160.137 172.563 159.566 172.922 159.072C173.28 158.579 173.763 158.193 174.37 157.915C174.981 157.633 175.671 157.492 176.439 157.492C177.214 157.492 177.893 157.633 178.474 157.915C179.056 158.196 179.508 158.577 179.83 159.056C180.155 159.531 180.316 160.065 180.312 160.658C180.316 161.287 180.12 161.812 179.725 162.233C179.334 162.653 178.824 162.92 178.195 163.034V163.122C179.021 163.228 179.65 163.515 180.082 163.983C180.517 164.448 180.733 165.029 180.729 165.728C180.733 166.368 180.548 166.937 180.175 167.434C179.806 167.932 179.296 168.323 178.644 168.608C177.993 168.894 177.247 169.036 176.406 169.036ZM186.503 157.492C187.081 157.492 187.637 157.589 188.171 157.783C188.709 157.977 189.188 158.286 189.609 158.71C190.033 159.135 190.368 159.698 190.613 160.4C190.861 161.099 190.988 161.957 190.991 162.973C190.991 163.928 190.883 164.78 190.668 165.53C190.455 166.277 190.15 166.911 189.751 167.434C189.353 167.957 188.871 168.356 188.308 168.63C187.745 168.901 187.116 169.036 186.421 169.036C185.671 169.036 185.009 168.892 184.434 168.603C183.86 168.31 183.397 167.913 183.046 167.412C182.699 166.908 182.488 166.341 182.415 165.711H184.758C184.85 166.121 185.042 166.439 185.334 166.666C185.627 166.889 185.989 167.001 186.421 167.001C187.152 167.001 187.708 166.683 188.089 166.046C188.469 165.406 188.661 164.53 188.665 163.418H188.588C188.42 163.747 188.193 164.031 187.908 164.268C187.622 164.502 187.295 164.684 186.925 164.812C186.56 164.94 186.17 165.004 185.757 165.004C185.095 165.004 184.504 164.848 183.985 164.537C183.465 164.226 183.055 163.798 182.755 163.253C182.456 162.708 182.306 162.086 182.306 161.388C182.302 160.634 182.476 159.963 182.827 159.374C183.178 158.785 183.668 158.324 184.297 157.991C184.93 157.655 185.665 157.488 186.503 157.492ZM186.519 159.358C186.15 159.358 185.821 159.445 185.532 159.621C185.247 159.797 185.02 160.033 184.851 160.329C184.687 160.625 184.606 160.956 184.61 161.322C184.61 161.691 184.691 162.024 184.851 162.321C185.016 162.613 185.239 162.847 185.521 163.023C185.806 163.195 186.132 163.281 186.498 163.281C186.772 163.281 187.026 163.23 187.26 163.127C187.494 163.025 187.697 162.884 187.869 162.705C188.045 162.522 188.182 162.311 188.281 162.074C188.38 161.836 188.429 161.583 188.429 161.316C188.425 160.962 188.341 160.636 188.176 160.34C188.012 160.044 187.785 159.806 187.496 159.627C187.207 159.447 186.882 159.358 186.519 159.358Z" fill="#1C1C1C"/>
</g>
<path d="M29.7074 254.23V253.327L31.819 251.372C31.9986 251.198 32.1492 251.041 32.2708 250.902C32.3944 250.763 32.4881 250.627 32.5518 250.494C32.6155 250.359 32.6474 250.213 32.6474 250.057C32.6474 249.883 32.6078 249.733 32.5286 249.608C32.4494 249.48 32.3413 249.383 32.2042 249.315C32.0671 249.246 31.9117 249.211 31.7379 249.211C31.5563 249.211 31.398 249.247 31.2628 249.321C31.1277 249.394 31.0234 249.499 30.95 249.637C30.8766 249.774 30.8399 249.937 30.8399 250.126H29.6495C29.6495 249.738 29.7373 249.401 29.913 249.115C30.0888 248.829 30.335 248.608 30.6517 248.452C30.9683 248.295 31.3333 248.217 31.7466 248.217C32.1714 248.217 32.5412 248.293 32.8559 248.443C33.1726 248.592 33.4188 248.798 33.5945 249.063C33.7703 249.328 33.8581 249.631 33.8581 249.973C33.8581 250.197 33.8137 250.418 33.7249 250.636C33.638 250.854 33.4825 251.096 33.2585 251.363C33.0345 251.627 32.7188 251.945 32.3114 252.316L31.4453 253.165V253.205H33.9363V254.23H29.7074ZM37.0581 254.312C36.612 254.312 36.2152 254.239 35.8676 254.094C35.522 253.948 35.2506 253.748 35.0537 253.495C34.8567 253.242 34.7582 252.955 34.7582 252.634C34.7582 252.387 34.8142 252.16 34.9262 251.954C35.0402 251.745 35.1946 251.572 35.3897 251.435C35.5847 251.296 35.8029 251.207 36.0443 251.169V251.128C35.7276 251.065 35.4708 250.911 35.2738 250.668C35.0769 250.422 34.9784 250.138 34.9784 249.813C34.9784 249.506 35.0682 249.233 35.2477 248.994C35.4273 248.752 35.6735 248.563 35.9864 248.426C36.3011 248.287 36.6584 248.217 37.0581 248.217C37.4578 248.217 37.8141 248.287 38.1269 248.426C38.4417 248.565 38.6888 248.755 38.8684 248.996C39.048 249.236 39.1388 249.508 39.1407 249.813C39.1388 250.14 39.0384 250.424 38.8395 250.668C38.6406 250.911 38.3857 251.065 38.0748 251.128V251.169C38.3123 251.207 38.5276 251.296 38.7207 251.435C38.9157 251.572 39.0702 251.745 39.1841 251.954C39.3 252.16 39.3589 252.387 39.3608 252.634C39.3589 252.955 39.2595 253.242 39.0625 253.495C38.8655 253.748 38.5933 253.948 38.2457 254.094C37.9 254.239 37.5042 254.312 37.0581 254.312ZM37.0581 253.39C37.257 253.39 37.4308 253.355 37.5795 253.283C37.7282 253.21 37.844 253.11 37.927 252.982C38.012 252.853 38.0545 252.704 38.0545 252.536C38.0545 252.364 38.011 252.213 37.9241 252.081C37.8373 251.948 37.7195 251.844 37.5708 251.768C37.4221 251.691 37.2512 251.653 37.0581 251.653C36.8669 251.653 36.696 251.691 36.5454 251.768C36.3948 251.844 36.276 251.948 36.1891 252.081C36.1042 252.213 36.0617 252.364 36.0617 252.536C36.0617 252.704 36.1032 252.853 36.1862 252.982C36.2693 253.11 36.3861 253.21 36.5367 253.283C36.6873 253.355 36.8611 253.39 37.0581 253.39ZM37.0581 250.74C37.2242 250.74 37.3719 250.706 37.5013 250.639C37.6306 250.571 37.732 250.478 37.8054 250.358C37.8788 250.238 37.9155 250.1 37.9155 249.944C37.9155 249.789 37.8788 249.654 37.8054 249.538C37.732 249.42 37.6316 249.329 37.5042 249.263C37.3767 249.195 37.228 249.162 37.0581 249.162C36.8901 249.162 36.7414 249.195 36.612 249.263C36.4826 249.329 36.3813 249.42 36.3079 249.538C36.2364 249.654 36.2007 249.789 36.2007 249.944C36.2007 250.1 36.2374 250.238 36.3108 250.358C36.3842 250.478 36.4855 250.571 36.6149 250.639C36.7443 250.706 36.892 250.74 37.0581 250.74ZM42.5637 254.361C42.0655 254.359 41.6368 254.236 41.2776 253.993C40.9204 253.75 40.6452 253.397 40.4521 252.936C40.2609 252.474 40.1663 251.919 40.1682 251.27C40.1682 250.623 40.2638 250.072 40.455 249.616C40.6481 249.161 40.9233 248.814 41.2805 248.576C41.6397 248.337 42.0674 248.217 42.5637 248.217C43.06 248.217 43.4867 248.337 43.844 248.576C44.2031 248.816 44.4793 249.163 44.6724 249.619C44.8655 250.073 44.9611 250.623 44.9591 251.27C44.9591 251.921 44.8626 252.477 44.6695 252.939C44.4783 253.4 44.2041 253.753 43.8469 253.996C43.4896 254.239 43.0619 254.361 42.5637 254.361ZM42.5637 253.321C42.9035 253.321 43.1749 253.15 43.3776 252.808C43.5804 252.466 43.6808 251.954 43.6789 251.27C43.6789 250.82 43.6325 250.446 43.5398 250.146C43.4491 249.847 43.3197 249.622 43.1517 249.471C42.9856 249.321 42.7896 249.246 42.5637 249.246C42.2258 249.246 41.9554 249.414 41.7527 249.752C41.5499 250.09 41.4475 250.596 41.4456 251.27C41.4456 251.726 41.491 252.106 41.5818 252.411C41.6744 252.715 41.8048 252.942 41.9728 253.095C42.1408 253.246 42.3378 253.321 42.5637 253.321Z" fill="#232325"/>
<rect x="29.2266" y="265.23" width="5.43777" height="5.43777" rx="1.35944" fill="#87F1D5"/>
<path d="M39.3384 264.394V270.949H37.9525V264.394H39.3384ZM46.8627 264.394V270.949H45.6656L42.8138 266.824H42.7658V270.949H41.3799V264.394H42.5962L45.4256 268.517H45.4832V264.394H46.8627ZM52.4649 266.279C52.4393 266.021 52.3294 265.821 52.1353 265.678C51.9411 265.535 51.6776 265.463 51.3447 265.463C51.1185 265.463 50.9276 265.495 50.7718 265.559C50.616 265.621 50.4965 265.708 50.4133 265.819C50.3322 265.93 50.2917 266.055 50.2917 266.196C50.2874 266.314 50.312 266.416 50.3653 266.504C50.4208 266.591 50.4965 266.667 50.5925 266.731C50.6886 266.793 50.7995 266.847 50.9254 266.894C51.0513 266.939 51.1857 266.977 51.3287 267.009L51.9176 267.15C52.2035 267.214 52.466 267.299 52.705 267.406C52.944 267.513 53.1509 267.644 53.3259 267.8C53.5009 267.956 53.6364 268.139 53.7324 268.35C53.8305 268.562 53.8807 268.804 53.8828 269.077C53.8807 269.478 53.7783 269.826 53.5756 270.12C53.375 270.413 53.0848 270.64 52.705 270.802C52.3273 270.962 51.8717 271.042 51.3383 271.042C50.8091 271.042 50.3482 270.961 49.9556 270.799C49.5651 270.637 49.26 270.397 49.0402 270.079C48.8226 269.759 48.7084 269.363 48.6978 268.891H50.0388C50.0538 269.111 50.1167 269.294 50.2277 269.442C50.3408 269.587 50.4912 269.697 50.679 269.771C50.8689 269.844 51.0833 269.88 51.3223 269.88C51.557 269.88 51.7608 269.846 51.9336 269.778C52.1086 269.709 52.2441 269.615 52.3401 269.493C52.4361 269.371 52.4841 269.232 52.4841 269.074C52.4841 268.926 52.4404 268.803 52.3529 268.702C52.2676 268.602 52.1417 268.517 51.9752 268.446C51.8109 268.376 51.6093 268.312 51.3703 268.254L50.6566 268.075C50.1039 267.941 49.6676 267.73 49.3475 267.445C49.0274 267.159 48.8685 266.773 48.8706 266.289C48.8685 265.892 48.9741 265.545 49.1875 265.249C49.403 264.952 49.6985 264.721 50.074 264.554C50.4496 264.388 50.8763 264.305 51.3543 264.305C51.8408 264.305 52.2654 264.388 52.6282 264.554C52.993 264.721 53.2768 264.952 53.4795 265.249C53.6822 265.545 53.7868 265.889 53.7932 266.279H52.4649ZM55.4667 265.537V264.394H60.8502V265.537H58.8434V270.949H57.4735V265.537H55.4667ZM68.3624 267.672C68.3624 268.387 68.2269 268.995 67.9559 269.496C67.6871 269.998 67.3201 270.381 66.8549 270.645C66.3919 270.908 65.8712 271.039 65.293 271.039C64.7105 271.039 64.1877 270.907 63.7247 270.642C63.2616 270.377 62.8957 269.994 62.6268 269.493C62.358 268.991 62.2236 268.384 62.2236 267.672C62.2236 266.957 62.358 266.349 62.6268 265.847C62.8957 265.346 63.2616 264.964 63.7247 264.702C64.1877 264.437 64.7105 264.305 65.293 264.305C65.8712 264.305 66.3919 264.437 66.8549 264.702C67.3201 264.964 67.6871 265.346 67.9559 265.847C68.2269 266.349 68.3624 266.957 68.3624 267.672ZM66.9573 267.672C66.9573 267.209 66.888 266.818 66.7493 266.5C66.6127 266.182 66.4196 265.941 66.17 265.777C65.9203 265.613 65.628 265.531 65.293 265.531C64.958 265.531 64.6657 265.613 64.416 265.777C64.1664 265.941 63.9722 266.182 63.8335 266.5C63.6969 266.818 63.6287 267.209 63.6287 267.672C63.6287 268.135 63.6969 268.525 63.8335 268.843C63.9722 269.161 64.1664 269.402 64.416 269.567C64.6657 269.731 64.958 269.813 65.293 269.813C65.628 269.813 65.9203 269.731 66.17 269.567C66.4196 269.402 66.6127 269.161 66.7493 268.843C66.888 268.525 66.9573 268.135 66.9573 267.672ZM76.0739 266.689H74.672C74.6464 266.508 74.5941 266.347 74.5152 266.206C74.4362 266.063 74.3349 265.941 74.2111 265.841C74.0874 265.741 73.9444 265.664 73.7822 265.611C73.6222 265.557 73.4483 265.531 73.2605 265.531C72.9213 265.531 72.6257 265.615 72.374 265.783C72.1222 265.95 71.9269 266.193 71.7882 266.513C71.6495 266.831 71.5802 267.217 71.5802 267.672C71.5802 268.139 71.6495 268.532 71.7882 268.85C71.9291 269.168 72.1254 269.408 72.3772 269.57C72.6289 269.732 72.9202 269.813 73.2509 269.813C73.4366 269.813 73.6083 269.788 73.7662 269.739C73.9263 269.69 74.0682 269.619 74.1919 269.525C74.3157 269.429 74.4181 269.313 74.4992 269.176C74.5824 269.039 74.64 268.884 74.672 268.709L76.0739 268.715C76.0376 269.016 75.947 269.306 75.8019 269.586C75.6589 269.863 75.4658 270.112 75.2225 270.331C74.9814 270.549 74.6934 270.722 74.3584 270.85C74.0255 270.976 73.6489 271.039 73.2285 271.039C72.6439 271.039 72.1211 270.907 71.6602 270.642C71.2015 270.377 70.8387 269.994 70.572 269.493C70.3074 268.991 70.1751 268.384 70.1751 267.672C70.1751 266.957 70.3095 266.349 70.5784 265.847C70.8472 265.346 71.2121 264.964 71.673 264.702C72.1339 264.437 72.6524 264.305 73.2285 264.305C73.6083 264.305 73.9604 264.358 74.2847 264.465C74.6112 264.571 74.9003 264.727 75.1521 264.932C75.4039 265.135 75.6088 265.383 75.7667 265.678C75.9267 265.972 76.0291 266.309 76.0739 266.689ZM77.969 270.949V264.394H79.3549V267.284H79.4413L81.8002 264.394H83.4613L81.0288 267.329L83.4901 270.949H81.8322L80.0366 268.254L79.3549 269.086V270.949H77.969Z" fill="#6F727A"/>
<path d="M97.7452 248.298V254.23H96.491V249.489H96.4563L95.0978 250.34V249.228L96.5663 248.298H97.7452ZM101.432 254.312C101.127 254.31 100.832 254.258 100.548 254.158C100.266 254.058 100.013 253.894 99.7895 253.669C99.5655 253.443 99.3878 253.143 99.2565 252.771C99.1271 252.398 99.0624 251.94 99.0624 251.398C99.0644 250.899 99.1213 250.454 99.2333 250.062C99.3473 249.668 99.5095 249.334 99.72 249.06C99.9324 248.786 100.186 248.577 100.482 248.434C100.777 248.29 101.108 248.217 101.475 248.217C101.871 248.217 102.221 248.294 102.524 248.449C102.827 248.602 103.07 248.809 103.254 249.072C103.439 249.334 103.551 249.629 103.59 249.955H102.353C102.305 249.749 102.203 249.586 102.049 249.469C101.894 249.351 101.703 249.292 101.475 249.292C101.089 249.292 100.796 249.46 100.595 249.796C100.396 250.132 100.294 250.589 100.291 251.166H100.331C100.42 250.99 100.54 250.841 100.69 250.717C100.843 250.591 101.016 250.496 101.209 250.43C101.404 250.363 101.609 250.329 101.826 250.329C102.177 250.329 102.49 250.412 102.764 250.578C103.038 250.742 103.255 250.968 103.413 251.256C103.571 251.543 103.651 251.873 103.651 252.243C103.651 252.645 103.557 253.002 103.37 253.315C103.184 253.628 102.924 253.873 102.59 254.051C102.258 254.227 101.872 254.314 101.432 254.312ZM101.426 253.327C101.619 253.327 101.792 253.28 101.944 253.188C102.097 253.095 102.217 252.97 102.304 252.811C102.391 252.653 102.434 252.475 102.434 252.278C102.434 252.081 102.391 251.905 102.304 251.748C102.219 251.592 102.101 251.467 101.95 251.374C101.8 251.282 101.628 251.235 101.435 251.235C101.29 251.235 101.156 251.262 101.032 251.317C100.91 251.371 100.803 251.446 100.711 251.542C100.62 251.639 100.548 251.751 100.496 251.878C100.444 252.004 100.418 252.138 100.418 252.281C100.418 252.472 100.461 252.647 100.548 252.805C100.637 252.964 100.757 253.09 100.908 253.185C101.06 253.279 101.233 253.327 101.426 253.327ZM106.866 254.361C106.368 254.359 105.939 254.236 105.58 253.993C105.222 253.75 104.947 253.397 104.754 252.936C104.563 252.474 104.468 251.919 104.47 251.27C104.47 250.623 104.566 250.072 104.757 249.616C104.95 249.161 105.225 248.814 105.583 248.576C105.942 248.337 106.369 248.217 106.866 248.217C107.362 248.217 107.789 248.337 108.146 248.576C108.505 248.816 108.781 249.163 108.974 249.619C109.168 250.073 109.263 250.623 109.261 251.27C109.261 251.921 109.165 252.477 108.972 252.939C108.78 253.4 108.506 253.753 108.149 253.996C107.792 254.239 107.364 254.361 106.866 254.361ZM106.866 253.321C107.206 253.321 107.477 253.15 107.68 252.808C107.882 252.466 107.983 251.954 107.981 251.27C107.981 250.82 107.935 250.446 107.842 250.146C107.751 249.847 107.622 249.622 107.454 249.471C107.288 249.321 107.092 249.246 106.866 249.246C106.528 249.246 106.257 249.414 106.055 249.752C105.852 250.09 105.75 250.596 105.748 251.27C105.748 251.726 105.793 252.106 105.884 252.411C105.976 252.715 106.107 252.942 106.275 253.095C106.443 253.246 106.64 253.321 106.866 253.321Z" fill="#232325"/>
<rect x="94.6836" y="265.23" width="5.43777" height="5.43777" rx="1.35944" fill="#50D4EE"/>
<path d="M107.645 266.279C107.62 266.021 107.51 265.821 107.316 265.678C107.121 265.535 106.858 265.463 106.525 265.463C106.299 265.463 106.108 265.495 105.952 265.559C105.796 265.621 105.677 265.708 105.594 265.819C105.512 265.93 105.472 266.055 105.472 266.196C105.468 266.314 105.492 266.416 105.546 266.504C105.601 266.591 105.677 266.667 105.773 266.731C105.869 266.793 105.98 266.847 106.106 266.894C106.232 266.939 106.366 266.977 106.509 267.009L107.098 267.15C107.384 267.214 107.646 267.299 107.885 267.406C108.124 267.513 108.331 267.644 108.506 267.8C108.681 267.956 108.817 268.139 108.913 268.35C109.011 268.562 109.061 268.804 109.063 269.077C109.061 269.478 108.959 269.826 108.756 270.12C108.555 270.413 108.265 270.64 107.885 270.802C107.508 270.962 107.052 271.042 106.519 271.042C105.989 271.042 105.528 270.961 105.136 270.799C104.745 270.637 104.44 270.397 104.22 270.079C104.003 269.759 103.889 269.363 103.878 268.891H105.219C105.234 269.111 105.297 269.294 105.408 269.442C105.521 269.587 105.671 269.697 105.859 269.771C106.049 269.844 106.264 269.88 106.503 269.88C106.737 269.88 106.941 269.846 107.114 269.778C107.289 269.709 107.424 269.615 107.52 269.493C107.616 269.371 107.664 269.232 107.664 269.074C107.664 268.926 107.621 268.803 107.533 268.702C107.448 268.602 107.322 268.517 107.155 268.446C106.991 268.376 106.79 268.312 106.551 268.254L105.837 268.075C105.284 267.941 104.848 267.73 104.528 267.445C104.208 267.159 104.049 266.773 104.051 266.289C104.049 265.892 104.154 265.545 104.368 265.249C104.583 264.952 104.879 264.721 105.254 264.554C105.63 264.388 106.057 264.305 106.535 264.305C107.021 264.305 107.446 264.388 107.808 264.554C108.173 264.721 108.457 264.952 108.66 265.249C108.862 265.545 108.967 265.889 108.973 266.279H107.645ZM116.92 267.672C116.92 268.387 116.785 268.995 116.514 269.496C116.245 269.998 115.878 270.381 115.413 270.645C114.95 270.908 114.429 271.039 113.851 271.039C113.268 271.039 112.745 270.907 112.282 270.642C111.819 270.377 111.453 269.994 111.185 269.493C110.916 268.991 110.781 268.384 110.781 267.672C110.781 266.957 110.916 266.349 111.185 265.847C111.453 265.346 111.819 264.964 112.282 264.702C112.745 264.437 113.268 264.305 113.851 264.305C114.429 264.305 114.95 264.437 115.413 264.702C115.878 264.964 116.245 265.346 116.514 265.847C116.785 266.349 116.92 266.957 116.92 267.672ZM115.515 267.672C115.515 267.209 115.446 266.818 115.307 266.5C115.17 266.182 114.977 265.941 114.728 265.777C114.478 265.613 114.186 265.531 113.851 265.531C113.516 265.531 113.223 265.613 112.974 265.777C112.724 265.941 112.53 266.182 112.391 266.5C112.255 266.818 112.186 267.209 112.186 267.672C112.186 268.135 112.255 268.525 112.391 268.843C112.53 269.161 112.724 269.402 112.974 269.567C113.223 269.731 113.516 269.813 113.851 269.813C114.186 269.813 114.478 269.731 114.728 269.567C114.977 269.402 115.17 269.161 115.307 268.843C115.446 268.525 115.515 268.135 115.515 267.672ZM118.848 270.949V264.394H120.234V269.807H123.044V270.949H118.848ZM127.187 270.949H124.863V264.394H127.206C127.865 264.394 128.433 264.526 128.909 264.788C129.385 265.048 129.751 265.423 130.007 265.911C130.265 266.4 130.394 266.985 130.394 267.665C130.394 268.348 130.265 268.935 130.007 269.426C129.751 269.916 129.383 270.293 128.902 270.556C128.425 270.818 127.853 270.949 127.187 270.949ZM126.249 269.762H127.129C127.539 269.762 127.884 269.689 128.163 269.544C128.445 269.397 128.656 269.17 128.797 268.862C128.94 268.553 129.011 268.154 129.011 267.665C129.011 267.181 128.94 266.785 128.797 266.478C128.656 266.171 128.446 265.944 128.166 265.799C127.887 265.654 127.542 265.582 127.133 265.582H126.249V269.762ZM141.333 267.672C141.333 268.387 141.197 268.995 140.926 269.496C140.658 269.998 140.291 270.381 139.825 270.645C139.362 270.908 138.842 271.039 138.263 271.039C137.681 271.039 137.158 270.907 136.695 270.642C136.232 270.377 135.866 269.994 135.597 269.493C135.328 268.991 135.194 268.384 135.194 267.672C135.194 266.957 135.328 266.349 135.597 265.847C135.866 265.346 136.232 264.964 136.695 264.702C137.158 264.437 137.681 264.305 138.263 264.305C138.842 264.305 139.362 264.437 139.825 264.702C140.291 264.964 140.658 265.346 140.926 265.847C141.197 266.349 141.333 266.957 141.333 267.672ZM139.928 267.672C139.928 267.209 139.858 266.818 139.72 266.5C139.583 266.182 139.39 265.941 139.14 265.777C138.891 265.613 138.598 265.531 138.263 265.531C137.928 265.531 137.636 265.613 137.386 265.777C137.137 265.941 136.943 266.182 136.804 266.5C136.667 266.818 136.599 267.209 136.599 267.672C136.599 268.135 136.667 268.525 136.804 268.843C136.943 269.161 137.137 269.402 137.386 269.567C137.636 269.731 137.928 269.813 138.263 269.813C138.598 269.813 138.891 269.731 139.14 269.567C139.39 269.402 139.583 269.161 139.72 268.843C139.858 268.525 139.928 268.135 139.928 267.672ZM147.31 264.394H148.695V268.651C148.695 269.129 148.581 269.547 148.353 269.906C148.127 270.264 147.81 270.544 147.402 270.744C146.995 270.943 146.52 271.042 145.978 271.042C145.434 271.042 144.958 270.943 144.551 270.744C144.143 270.544 143.826 270.264 143.6 269.906C143.374 269.547 143.261 269.129 143.261 268.651V264.394H144.647V268.533C144.647 268.782 144.701 269.004 144.81 269.198C144.921 269.393 145.077 269.545 145.277 269.656C145.478 269.767 145.711 269.823 145.978 269.823C146.247 269.823 146.481 269.767 146.679 269.656C146.88 269.545 147.034 269.393 147.143 269.198C147.254 269.004 147.31 268.782 147.31 268.533V264.394ZM150.487 265.537V264.394H155.871V265.537H153.864V270.949H152.494V265.537H150.487Z" fill="#6F727A"/>
<path d="M169.494 254.312C169.061 254.312 168.676 254.237 168.338 254.089C168.002 253.938 167.737 253.731 167.542 253.469C167.348 253.204 167.249 252.899 167.243 252.553H168.506C168.514 252.698 168.561 252.826 168.648 252.936C168.737 253.044 168.855 253.128 169.001 253.188C169.148 253.248 169.313 253.278 169.497 253.278C169.688 253.278 169.857 253.244 170.004 253.176C170.15 253.109 170.265 253.015 170.348 252.895C170.431 252.775 170.473 252.637 170.473 252.481C170.473 252.323 170.428 252.183 170.34 252.061C170.253 251.937 170.127 251.841 169.963 251.771C169.801 251.702 169.608 251.667 169.384 251.667H168.831V250.746H169.384C169.573 250.746 169.74 250.713 169.885 250.647C170.032 250.582 170.146 250.491 170.227 250.375C170.308 250.257 170.348 250.12 170.348 249.964C170.348 249.815 170.313 249.685 170.241 249.573C170.172 249.459 170.073 249.37 169.946 249.306C169.82 249.243 169.673 249.211 169.505 249.211C169.335 249.211 169.18 249.242 169.039 249.303C168.898 249.363 168.785 249.449 168.7 249.561C168.615 249.673 168.57 249.805 168.564 249.955H167.362C167.368 249.613 167.465 249.312 167.655 249.051C167.844 248.791 168.099 248.587 168.419 248.44C168.742 248.292 169.106 248.217 169.511 248.217C169.921 248.217 170.279 248.292 170.586 248.44C170.893 248.589 171.131 248.79 171.301 249.043C171.473 249.294 171.558 249.576 171.556 249.889C171.558 250.221 171.455 250.498 171.246 250.72C171.04 250.942 170.77 251.083 170.438 251.143V251.189C170.875 251.245 171.207 251.397 171.435 251.644C171.664 251.889 171.778 252.196 171.776 252.565C171.778 252.903 171.681 253.203 171.484 253.466C171.289 253.728 171.019 253.935 170.676 254.086C170.332 254.236 169.938 254.312 169.494 254.312ZM172.678 254.23V253.327L174.789 251.372C174.969 251.198 175.12 251.041 175.241 250.902C175.365 250.763 175.459 250.627 175.522 250.494C175.586 250.359 175.618 250.213 175.618 250.057C175.618 249.883 175.578 249.733 175.499 249.608C175.42 249.48 175.312 249.383 175.175 249.315C175.038 249.246 174.882 249.211 174.708 249.211C174.527 249.211 174.368 249.247 174.233 249.321C174.098 249.394 173.994 249.499 173.92 249.637C173.847 249.774 173.81 249.937 173.81 250.126H172.62C172.62 249.738 172.708 249.401 172.883 249.115C173.059 248.829 173.305 248.608 173.622 248.452C173.939 248.295 174.304 248.217 174.717 248.217C175.142 248.217 175.512 248.293 175.826 248.443C176.143 248.592 176.389 248.798 176.565 249.063C176.741 249.328 176.829 249.631 176.829 249.973C176.829 250.197 176.784 250.418 176.695 250.636C176.608 250.854 176.453 251.096 176.229 251.363C176.005 251.627 175.689 251.945 175.282 252.316L174.416 253.165V253.205H176.907V254.23H172.678Z" fill="#232325"/>
<rect x="166.82" y="265.23" width="5.43777" height="5.43777" rx="1.35944" fill="#F8D378"/>
<path d="M178.55 270.949H176.226V264.394H178.569C179.228 264.394 179.796 264.526 180.272 264.788C180.747 265.048 181.113 265.423 181.369 265.911C181.628 266.4 181.757 266.985 181.757 267.665C181.757 268.348 181.628 268.935 181.369 269.426C181.113 269.916 180.745 270.293 180.265 270.556C179.787 270.818 179.215 270.949 178.55 270.949ZM177.612 269.762H178.492C178.902 269.762 179.246 269.689 179.526 269.544C179.807 269.397 180.019 269.17 180.16 268.862C180.303 268.553 180.374 268.154 180.374 267.665C180.374 267.181 180.303 266.785 180.16 266.478C180.019 266.171 179.809 265.944 179.529 265.799C179.25 265.654 178.905 265.582 178.495 265.582H177.612V269.762ZM185.07 264.394V270.949H183.685V264.394H185.07ZM190.668 266.279C190.642 266.021 190.532 265.821 190.338 265.678C190.144 265.535 189.881 265.463 189.548 265.463C189.322 265.463 189.131 265.495 188.975 265.559C188.819 265.621 188.7 265.708 188.616 265.819C188.535 265.93 188.495 266.055 188.495 266.196C188.49 266.314 188.515 266.416 188.568 266.504C188.624 266.591 188.7 266.667 188.796 266.731C188.892 266.793 189.003 266.847 189.128 266.894C189.254 266.939 189.389 266.977 189.532 267.009L190.121 267.15C190.407 267.214 190.669 267.299 190.908 267.406C191.147 267.513 191.354 267.644 191.529 267.8C191.704 267.956 191.839 268.139 191.935 268.35C192.034 268.562 192.084 268.804 192.086 269.077C192.084 269.478 191.981 269.826 191.779 270.12C191.578 270.413 191.288 270.64 190.908 270.802C190.53 270.962 190.075 271.042 189.541 271.042C189.012 271.042 188.551 270.961 188.159 270.799C187.768 270.637 187.463 270.397 187.243 270.079C187.026 269.759 186.911 269.363 186.901 268.891H188.242C188.257 269.111 188.32 269.294 188.431 269.442C188.544 269.587 188.694 269.697 188.882 269.771C189.072 269.844 189.286 269.88 189.525 269.88C189.76 269.88 189.964 269.846 190.137 269.778C190.312 269.709 190.447 269.615 190.543 269.493C190.639 269.371 190.687 269.232 190.687 269.074C190.687 268.926 190.643 268.803 190.556 268.702C190.471 268.602 190.345 268.517 190.178 268.446C190.014 268.376 189.812 268.312 189.573 268.254L188.86 268.075C188.307 267.941 187.871 267.73 187.551 267.445C187.23 267.159 187.071 266.773 187.074 266.289C187.071 265.892 187.177 265.545 187.39 265.249C187.606 264.952 187.902 264.721 188.277 264.554C188.653 264.388 189.079 264.305 189.557 264.305C190.044 264.305 190.468 264.388 190.831 264.554C191.196 264.721 191.48 264.952 191.683 265.249C191.885 265.545 191.99 265.889 191.996 266.279H190.668ZM199.703 266.689H198.301C198.275 266.508 198.223 266.347 198.144 266.206C198.065 266.063 197.964 265.941 197.84 265.841C197.716 265.741 197.573 265.664 197.411 265.611C197.251 265.557 197.077 265.531 196.89 265.531C196.55 265.531 196.255 265.615 196.003 265.783C195.751 265.95 195.556 266.193 195.417 266.513C195.279 266.831 195.209 267.217 195.209 267.672C195.209 268.139 195.279 268.532 195.417 268.85C195.558 269.168 195.754 269.408 196.006 269.57C196.258 269.732 196.549 269.813 196.88 269.813C197.066 269.813 197.237 269.788 197.395 269.739C197.555 269.69 197.697 269.619 197.821 269.525C197.945 269.429 198.047 269.313 198.128 269.176C198.211 269.039 198.269 268.884 198.301 268.709L199.703 268.715C199.667 269.016 199.576 269.306 199.431 269.586C199.288 269.863 199.095 270.112 198.852 270.331C198.61 270.549 198.322 270.722 197.987 270.85C197.655 270.976 197.278 271.039 196.858 271.039C196.273 271.039 195.75 270.907 195.289 270.642C194.83 270.377 194.468 269.994 194.201 269.493C193.936 268.991 193.804 268.384 193.804 267.672C193.804 266.957 193.939 266.349 194.207 265.847C194.476 265.346 194.841 264.964 195.302 264.702C195.763 264.437 196.281 264.305 196.858 264.305C197.237 264.305 197.589 264.358 197.914 264.465C198.24 264.571 198.529 264.727 198.781 264.932C199.033 265.135 199.238 265.383 199.396 265.678C199.556 265.972 199.658 266.309 199.703 266.689ZM202.605 270.949H201.12L203.382 264.394H205.168L207.428 270.949H205.943L204.301 265.892H204.25L202.605 270.949ZM202.512 268.373H206.02V269.455H202.512V268.373ZM209.118 270.949V264.394H211.704C212.199 264.394 212.622 264.483 212.972 264.66C213.324 264.835 213.592 265.083 213.775 265.406C213.961 265.726 214.054 266.102 214.054 266.536C214.054 266.971 213.96 267.345 213.772 267.659C213.584 267.97 213.312 268.209 212.956 268.376C212.602 268.542 212.173 268.626 211.669 268.626H209.938V267.512H211.445C211.71 267.512 211.93 267.475 212.104 267.403C212.279 267.33 212.41 267.222 212.495 267.076C212.582 266.931 212.626 266.751 212.626 266.536C212.626 266.318 212.582 266.134 212.495 265.985C212.41 265.836 212.278 265.723 212.101 265.646C211.926 265.567 211.705 265.527 211.439 265.527H210.504V270.949H209.118ZM212.658 267.966L214.287 270.949H212.757L211.164 267.966H212.658ZM218.258 270.949H215.934V264.394H218.277C218.937 264.394 219.504 264.526 219.98 264.788C220.456 265.048 220.822 265.423 221.078 265.911C221.336 266.4 221.465 266.985 221.465 267.665C221.465 268.348 221.336 268.935 221.078 269.426C220.822 269.916 220.454 270.293 219.974 270.556C219.496 270.818 218.924 270.949 218.258 270.949ZM217.32 269.762H218.2C218.61 269.762 218.955 269.689 219.234 269.544C219.516 269.397 219.727 269.17 219.868 268.862C220.011 268.553 220.082 268.154 220.082 267.665C220.082 267.181 220.011 266.785 219.868 266.478C219.727 266.171 219.517 265.944 219.237 265.799C218.958 265.654 218.613 265.582 218.204 265.582H217.32V269.762ZM223.393 270.949V264.394H227.81V265.537H224.779V267.099H227.583V268.241H224.779V269.807H227.823V270.949H223.393ZM232.137 270.949H229.813V264.394H232.156C232.815 264.394 233.383 264.526 233.859 264.788C234.335 265.048 234.7 265.423 234.957 265.911C235.215 266.4 235.344 266.985 235.344 267.665C235.344 268.348 235.215 268.935 234.957 269.426C234.7 269.916 234.332 270.293 233.852 270.556C233.374 270.818 232.802 270.949 232.137 270.949ZM231.199 269.762H232.079C232.489 269.762 232.833 269.689 233.113 269.544C233.395 269.397 233.606 269.17 233.747 268.862C233.89 268.553 233.961 268.154 233.961 267.665C233.961 267.181 233.89 266.785 233.747 266.478C233.606 266.171 233.396 265.944 233.116 265.799C232.837 265.654 232.492 265.582 232.082 265.582H231.199V269.762Z" fill="#6F727A"/>
<path d="M249.715 254.312C249.409 254.31 249.115 254.258 248.831 254.158C248.549 254.058 248.296 253.894 248.072 253.669C247.848 253.443 247.671 253.143 247.539 252.771C247.41 252.398 247.345 251.94 247.345 251.398C247.347 250.899 247.404 250.454 247.516 250.062C247.63 249.668 247.792 249.334 248.003 249.06C248.215 248.786 248.469 248.577 248.764 248.434C249.06 248.29 249.391 248.217 249.758 248.217C250.154 248.217 250.503 248.294 250.807 248.449C251.11 248.602 251.353 248.809 251.536 249.072C251.722 249.334 251.834 249.629 251.872 249.955H250.636C250.587 249.749 250.486 249.586 250.332 249.469C250.177 249.351 249.986 249.292 249.758 249.292C249.372 249.292 249.078 249.46 248.877 249.796C248.679 250.132 248.577 250.589 248.573 251.166H248.614C248.703 250.99 248.822 250.841 248.973 250.717C249.126 250.591 249.298 250.496 249.492 250.43C249.687 250.363 249.892 250.329 250.108 250.329C250.46 250.329 250.773 250.412 251.047 250.578C251.321 250.742 251.537 250.968 251.696 251.256C251.854 251.543 251.933 251.873 251.933 252.243C251.933 252.645 251.84 253.002 251.652 253.315C251.467 253.628 251.207 253.873 250.873 254.051C250.541 254.227 250.155 254.314 249.715 254.312ZM249.709 253.327C249.902 253.327 250.075 253.28 250.227 253.188C250.38 253.095 250.5 252.97 250.586 252.811C250.673 252.653 250.717 252.475 250.717 252.278C250.717 252.081 250.673 251.905 250.586 251.748C250.501 251.592 250.384 251.467 250.233 251.374C250.082 251.282 249.911 251.235 249.717 251.235C249.573 251.235 249.438 251.262 249.315 251.317C249.193 251.371 249.086 251.446 248.993 251.542C248.903 251.639 248.831 251.751 248.779 251.878C248.727 252.004 248.701 252.138 248.701 252.281C248.701 252.472 248.744 252.647 248.831 252.805C248.92 252.964 249.04 253.09 249.19 253.185C249.343 253.279 249.516 253.327 249.709 253.327ZM253.057 254.23L255.516 249.364V249.324H252.652V248.298H256.814V249.338L254.352 254.23H253.057Z" fill="#232325"/>
<rect x="246.957" y="265.23" width="5.43777" height="5.43777" rx="1.35944" fill="#B08EFA"/>
<path d="M260.412 264.394H261.797V268.651C261.797 269.129 261.683 269.547 261.455 269.906C261.229 270.264 260.912 270.544 260.504 270.744C260.097 270.943 259.622 271.042 259.08 271.042C258.536 271.042 258.06 270.943 257.653 270.744C257.245 270.544 256.928 270.264 256.702 269.906C256.476 269.547 256.363 269.129 256.363 268.651V264.394H257.749V268.533C257.749 268.782 257.803 269.004 257.912 269.198C258.023 269.393 258.179 269.545 258.379 269.656C258.58 269.767 258.813 269.823 259.08 269.823C259.349 269.823 259.583 269.767 259.781 269.656C259.982 269.545 260.136 269.393 260.245 269.198C260.356 269.004 260.412 268.782 260.412 268.533V264.394ZM269.322 264.394V270.949H268.125L265.273 266.824H265.225V270.949H263.839V264.394H265.055L267.885 268.517H267.942V264.394H269.322ZM272.498 270.949H271.013L273.276 264.394H275.062L277.321 270.949H275.836L274.194 265.892H274.143L272.498 270.949ZM272.405 268.373H275.913V269.455H272.405V268.373ZM282.418 266.279C282.392 266.021 282.282 265.821 282.088 265.678C281.894 265.535 281.63 265.463 281.298 265.463C281.071 265.463 280.88 265.495 280.725 265.559C280.569 265.621 280.449 265.708 280.366 265.819C280.285 265.93 280.245 266.055 280.245 266.196C280.24 266.314 280.265 266.416 280.318 266.504C280.374 266.591 280.449 266.667 280.545 266.731C280.641 266.793 280.752 266.847 280.878 266.894C281.004 266.939 281.139 266.977 281.282 267.009L281.87 267.15C282.156 267.214 282.419 267.299 282.658 267.406C282.897 267.513 283.104 267.644 283.279 267.8C283.454 267.956 283.589 268.139 283.685 268.35C283.783 268.562 283.834 268.804 283.836 269.077C283.834 269.478 283.731 269.826 283.528 270.12C283.328 270.413 283.038 270.64 282.658 270.802C282.28 270.962 281.825 271.042 281.291 271.042C280.762 271.042 280.301 270.961 279.908 270.799C279.518 270.637 279.213 270.397 278.993 270.079C278.775 269.759 278.661 269.363 278.651 268.891H279.992C280.007 269.111 280.07 269.294 280.181 269.442C280.294 269.587 280.444 269.697 280.632 269.771C280.822 269.844 281.036 269.88 281.275 269.88C281.51 269.88 281.714 269.846 281.886 269.778C282.061 269.709 282.197 269.615 282.293 269.493C282.389 269.371 282.437 269.232 282.437 269.074C282.437 268.926 282.393 268.803 282.306 268.702C282.22 268.602 282.095 268.517 281.928 268.446C281.764 268.376 281.562 268.312 281.323 268.254L280.609 268.075C280.057 267.941 279.62 267.73 279.3 267.445C278.98 267.159 278.821 266.773 278.823 266.289C278.821 265.892 278.927 265.545 279.14 265.249C279.356 264.952 279.651 264.721 280.027 264.554C280.402 264.388 280.829 264.305 281.307 264.305C281.794 264.305 282.218 264.388 282.581 264.554C282.946 264.721 283.23 264.952 283.432 265.249C283.635 265.545 283.74 265.889 283.746 266.279H282.418ZM289.225 266.279C289.199 266.021 289.09 265.821 288.895 265.678C288.701 265.535 288.438 265.463 288.105 265.463C287.879 265.463 287.688 265.495 287.532 265.559C287.376 265.621 287.257 265.708 287.173 265.819C287.092 265.93 287.052 266.055 287.052 266.196C287.048 266.314 287.072 266.416 287.125 266.504C287.181 266.591 287.257 266.667 287.353 266.731C287.449 266.793 287.56 266.847 287.686 266.894C287.811 266.939 287.946 266.977 288.089 267.009L288.678 267.15C288.964 267.214 289.226 267.299 289.465 267.406C289.704 267.513 289.911 267.644 290.086 267.8C290.261 267.956 290.397 268.139 290.493 268.35C290.591 268.562 290.641 268.804 290.643 269.077C290.641 269.478 290.538 269.826 290.336 270.12C290.135 270.413 289.845 270.64 289.465 270.802C289.087 270.962 288.632 271.042 288.098 271.042C287.569 271.042 287.108 270.961 286.716 270.799C286.325 270.637 286.02 270.397 285.8 270.079C285.583 269.759 285.469 269.363 285.458 268.891H286.799C286.814 269.111 286.877 269.294 286.988 269.442C287.101 269.587 287.251 269.697 287.439 269.771C287.629 269.844 287.843 269.88 288.082 269.88C288.317 269.88 288.521 269.846 288.694 269.778C288.869 269.709 289.004 269.615 289.1 269.493C289.196 269.371 289.244 269.232 289.244 269.074C289.244 268.926 289.201 268.803 289.113 268.702C289.028 268.602 288.902 268.517 288.735 268.446C288.571 268.376 288.369 268.312 288.13 268.254L287.417 268.075C286.864 267.941 286.428 267.73 286.108 267.445C285.788 267.159 285.629 266.773 285.631 266.289C285.629 265.892 285.734 265.545 285.948 265.249C286.163 264.952 286.459 264.721 286.834 264.554C287.21 264.388 287.636 264.305 288.114 264.305C288.601 264.305 289.026 264.388 289.388 264.554C289.753 264.721 290.037 264.952 290.24 265.249C290.442 265.545 290.547 265.889 290.553 266.279H289.225ZM293.862 264.394V270.949H292.476V264.394H293.862ZM300.25 266.513C300.206 266.357 300.143 266.22 300.062 266.1C299.98 265.979 299.881 265.876 299.764 265.793C299.649 265.708 299.516 265.643 299.367 265.598C299.22 265.553 299.057 265.531 298.877 265.531C298.542 265.531 298.248 265.614 297.994 265.78C297.742 265.947 297.546 266.189 297.405 266.507C297.264 266.823 297.194 267.209 297.194 267.665C297.194 268.122 297.263 268.51 297.402 268.83C297.54 269.15 297.737 269.395 297.991 269.563C298.245 269.73 298.544 269.813 298.89 269.813C299.204 269.813 299.472 269.758 299.693 269.647C299.917 269.533 300.088 269.374 300.206 269.17C300.325 268.965 300.385 268.723 300.385 268.443L300.666 268.485H298.977V267.441H301.719V268.267C301.719 268.843 301.598 269.338 301.355 269.752C301.111 270.164 300.776 270.482 300.35 270.706C299.923 270.928 299.434 271.039 298.884 271.039C298.269 271.039 297.729 270.903 297.264 270.632C296.799 270.359 296.436 269.972 296.176 269.471C295.918 268.967 295.789 268.369 295.789 267.678C295.789 267.147 295.865 266.673 296.019 266.257C296.175 265.839 296.393 265.485 296.672 265.194C296.952 264.904 297.277 264.683 297.648 264.532C298.02 264.38 298.422 264.305 298.855 264.305C299.226 264.305 299.572 264.359 299.892 264.468C300.212 264.575 300.496 264.726 300.743 264.922C300.993 265.119 301.197 265.352 301.355 265.623C301.512 265.892 301.614 266.189 301.659 266.513H300.25ZM309.145 264.394V270.949H307.947L305.096 266.824H305.048V270.949H303.662V264.394H304.878L307.707 268.517H307.765V264.394H309.145ZM311.191 270.949V264.394H315.608V265.537H312.577V267.099H315.38V268.241H312.577V269.807H315.621V270.949H311.191ZM319.935 270.949H317.611V264.394H319.954C320.613 264.394 321.181 264.526 321.656 264.788C322.132 265.048 322.498 265.423 322.754 265.911C323.013 266.4 323.142 266.985 323.142 267.665C323.142 268.348 323.013 268.935 322.754 269.426C322.498 269.916 322.13 270.293 321.65 270.556C321.172 270.818 320.6 270.949 319.935 270.949ZM318.997 269.762H319.877C320.287 269.762 320.631 269.689 320.911 269.544C321.192 269.397 321.404 269.17 321.544 268.862C321.687 268.553 321.759 268.154 321.759 267.665C321.759 267.181 321.687 266.785 321.544 266.478C321.404 266.171 321.193 265.944 320.914 265.799C320.634 265.654 320.29 265.582 319.88 265.582H318.997V269.762Z" fill="#6F727A"/>
<path d="M158.819 170.293C157.339 170.293 156.019 170.021 154.859 169.476C153.707 168.931 152.792 168.181 152.115 167.224C151.437 166.267 151.084 165.171 151.057 163.934H155.456C155.505 164.766 155.854 165.44 156.504 165.956C157.153 166.473 157.925 166.732 158.819 166.732C159.531 166.732 160.16 166.574 160.705 166.26C161.257 165.939 161.686 165.495 161.993 164.93C162.308 164.357 162.465 163.701 162.465 162.96C162.465 162.206 162.304 161.542 161.983 160.97C161.669 160.397 161.232 159.95 160.673 159.629C160.115 159.308 159.476 159.144 158.756 159.137C158.128 159.137 157.517 159.266 156.923 159.524C156.336 159.783 155.879 160.135 155.551 160.582L151.517 159.859L152.534 148.545H165.649V152.254H156.273L155.718 157.628H155.844C156.221 157.097 156.79 156.657 157.552 156.308C158.313 155.959 159.165 155.784 160.108 155.784C161.4 155.784 162.552 156.088 163.565 156.696C164.577 157.303 165.377 158.138 165.964 159.199C166.55 160.254 166.84 161.469 166.833 162.845C166.84 164.291 166.505 165.576 165.827 166.7C165.157 167.818 164.218 168.698 163.009 169.34C161.808 169.976 160.411 170.293 158.819 170.293ZM177.927 170.293C176.363 170.293 174.969 170.024 173.747 169.487C172.532 168.942 171.572 168.195 170.866 167.245C170.168 166.288 169.808 165.185 169.787 163.934H174.355C174.383 164.458 174.554 164.919 174.868 165.317C175.189 165.708 175.615 166.012 176.146 166.229C176.677 166.445 177.274 166.553 177.938 166.553C178.629 166.553 179.24 166.431 179.771 166.187C180.302 165.942 180.717 165.604 181.017 165.171C181.318 164.738 181.468 164.238 181.468 163.673C181.468 163.1 181.307 162.594 180.986 162.154C180.672 161.707 180.218 161.357 179.624 161.106C179.038 160.855 178.339 160.729 177.529 160.729H175.528V157.398H177.529C178.213 157.398 178.818 157.279 179.341 157.041C179.872 156.804 180.284 156.476 180.577 156.057C180.871 155.631 181.017 155.135 181.017 154.569C181.017 154.031 180.888 153.56 180.63 153.155C180.378 152.743 180.022 152.422 179.561 152.191C179.107 151.961 178.577 151.845 177.969 151.845C177.354 151.845 176.792 151.957 176.282 152.181C175.773 152.397 175.364 152.708 175.057 153.113C174.749 153.518 174.585 153.993 174.564 154.538H170.217C170.238 153.301 170.59 152.212 171.275 151.269C171.959 150.326 172.881 149.59 174.041 149.059C175.207 148.521 176.523 148.252 177.99 148.252C179.471 148.252 180.766 148.521 181.876 149.059C182.987 149.597 183.849 150.323 184.464 151.238C185.086 152.146 185.393 153.165 185.386 154.297C185.393 155.498 185.019 156.5 184.265 157.303C183.518 158.106 182.543 158.616 181.342 158.833V159C182.921 159.203 184.122 159.751 184.946 160.645C185.777 161.532 186.189 162.642 186.182 163.976C186.189 165.199 185.836 166.285 185.124 167.234C184.419 168.184 183.444 168.931 182.201 169.476C180.958 170.021 179.533 170.293 177.927 170.293ZM197.205 148.252C198.309 148.252 199.37 148.437 200.39 148.807C201.417 149.177 202.331 149.768 203.135 150.578C203.945 151.388 204.584 152.463 205.052 153.804C205.527 155.138 205.768 156.776 205.775 158.718C205.775 160.54 205.568 162.168 205.156 163.599C204.751 165.024 204.168 166.236 203.407 167.234C202.646 168.233 201.727 168.994 200.652 169.518C199.576 170.035 198.375 170.293 197.048 170.293C195.616 170.293 194.352 170.017 193.256 169.466C192.159 168.907 191.276 168.149 190.605 167.192C189.942 166.229 189.54 165.146 189.401 163.945H193.874C194.049 164.727 194.415 165.335 194.974 165.768C195.533 166.194 196.224 166.407 197.048 166.407C198.445 166.407 199.506 165.799 200.233 164.584C200.959 163.362 201.326 161.689 201.333 159.566H201.186C200.865 160.195 200.432 160.736 199.887 161.19C199.342 161.637 198.717 161.982 198.012 162.227C197.314 162.471 196.57 162.594 195.781 162.594C194.516 162.594 193.389 162.297 192.397 161.703C191.405 161.109 190.623 160.292 190.05 159.252C189.478 158.211 189.191 157.024 189.191 155.69C189.184 154.251 189.516 152.97 190.186 151.845C190.857 150.721 191.793 149.841 192.994 149.205C194.202 148.563 195.606 148.245 197.205 148.252ZM197.237 151.814C196.531 151.814 195.903 151.982 195.351 152.317C194.806 152.652 194.373 153.102 194.052 153.668C193.738 154.234 193.584 154.866 193.591 155.564C193.591 156.27 193.745 156.905 194.052 157.471C194.366 158.03 194.792 158.477 195.33 158.812C195.875 159.14 196.496 159.304 197.195 159.304C197.719 159.304 198.204 159.206 198.651 159.011C199.098 158.815 199.486 158.546 199.814 158.204C200.149 157.855 200.411 157.453 200.599 156.999C200.788 156.546 200.882 156.064 200.882 155.554C200.875 154.876 200.715 154.255 200.4 153.689C200.086 153.123 199.653 152.669 199.101 152.327C198.55 151.985 197.928 151.814 197.237 151.814Z" fill="#232325"/>
</svg>
