<svg width="317" height="148" viewBox="0 0 317 148" fill="none" xmlns="http://www.w3.org/2000/svg">
<rect width="316.824" height="148" rx="8.92462" fill="white"/>
<path d="M24.1434 23.2659C24.1434 24.2707 23.9529 25.1255 23.572 25.8304C23.194 26.5353 22.6781 27.0737 22.0242 27.4456C21.3734 27.8146 20.6415 27.999 19.8286 27.999C19.0098 27.999 18.2749 27.8131 17.624 27.4411C16.9731 27.0692 16.4587 26.5308 16.0808 25.8259C15.7029 25.121 15.5139 24.2677 15.5139 23.2659C15.5139 22.261 15.7029 21.4062 16.0808 20.7013C16.4587 19.9964 16.9731 19.4595 17.624 19.0906C18.2749 18.7187 19.0098 18.5327 19.8286 18.5327C20.6415 18.5327 21.3734 18.7187 22.0242 19.0906C22.6781 19.4595 23.194 19.9964 23.572 20.7013C23.9529 21.4062 24.1434 22.261 24.1434 23.2659ZM22.1682 23.2659C22.1682 22.615 22.0707 22.0661 21.8758 21.6191C21.6838 21.1722 21.4124 20.8333 21.0614 20.6023C20.7105 20.3714 20.2995 20.2559 19.8286 20.2559C19.3577 20.2559 18.9468 20.3714 18.5958 20.6023C18.2449 20.8333 17.972 21.1722 17.777 21.6191C17.585 22.0661 17.489 22.615 17.489 23.2659C17.489 23.9167 17.585 24.4656 17.777 24.9126C17.972 25.3595 18.2449 25.6984 18.5958 25.9294C18.9468 26.1603 19.3577 26.2758 19.8286 26.2758C20.2995 26.2758 20.7105 26.1603 21.0614 25.9294C21.4124 25.6984 21.6838 25.3595 21.8758 24.9126C22.0707 24.4656 22.1682 23.9167 22.1682 23.2659ZM25.5505 27.873V20.9623H27.4087V22.168H27.4807C27.6066 21.7391 27.8181 21.4152 28.1151 21.1962C28.412 20.9743 28.7539 20.8633 29.1409 20.8633C29.2369 20.8633 29.3403 20.8693 29.4513 20.8813C29.5623 20.8933 29.6598 20.9098 29.7438 20.9308V22.6315C29.6538 22.6045 29.5293 22.5805 29.3703 22.5595C29.2114 22.5385 29.0659 22.528 28.9339 22.528C28.652 22.528 28.4 22.5895 28.178 22.7125C27.9591 22.8324 27.7851 23.0004 27.6561 23.2164C27.5302 23.4323 27.4672 23.6813 27.4672 23.9632V27.873H25.5505ZM32.9596 27.9855C32.4347 27.9855 31.9593 27.8506 31.5333 27.5806C31.1104 27.3076 30.7745 26.9072 30.5255 26.3793C30.2795 25.8484 30.1566 25.1975 30.1566 24.4267C30.1566 23.6348 30.284 22.9764 30.539 22.4515C30.794 21.9236 31.1329 21.5292 31.5558 21.2682C31.9817 21.0043 32.4482 20.8723 32.9551 20.8723C33.342 20.8723 33.6645 20.9383 33.9224 21.0702C34.1834 21.1992 34.3933 21.3612 34.5523 21.5562C34.7143 21.7481 34.8372 21.9371 34.9212 22.1231H34.9797V18.6587H36.8919V27.873H35.0022V26.7662H34.9212C34.8313 26.9582 34.7038 27.1487 34.5388 27.3376C34.3768 27.5236 34.1654 27.6781 33.9044 27.8011C33.6465 27.924 33.3315 27.9855 32.9596 27.9855ZM33.567 26.4603C33.8759 26.4603 34.1369 26.3763 34.3498 26.2083C34.5658 26.0374 34.7308 25.7989 34.8447 25.493C34.9617 25.187 35.0202 24.8286 35.0202 24.4177C35.0202 24.0067 34.9632 23.6498 34.8492 23.3468C34.7353 23.0439 34.5703 22.8099 34.3543 22.645C34.1384 22.48 33.8759 22.3975 33.567 22.3975C33.252 22.3975 32.9866 22.483 32.7706 22.654C32.5546 22.8249 32.3912 23.0619 32.2802 23.3648C32.1692 23.6678 32.1137 24.0187 32.1137 24.4177C32.1137 24.8196 32.1692 25.175 32.2802 25.484C32.3942 25.7899 32.5576 26.0299 32.7706 26.2038C32.9866 26.3748 33.252 26.4603 33.567 26.4603ZM41.6172 28.008C40.9063 28.008 40.2944 27.864 39.7815 27.5761C39.2716 27.2851 38.8787 26.8742 38.6027 26.3433C38.3268 25.8094 38.1888 25.178 38.1888 24.4491C38.1888 23.7383 38.3268 23.1144 38.6027 22.5775C38.8787 22.0406 39.2671 21.6221 39.768 21.3222C40.2719 21.0222 40.8628 20.8723 41.5407 20.8723C41.9966 20.8723 42.421 20.9458 42.814 21.0927C43.2099 21.2367 43.5548 21.4542 43.8488 21.7451C44.1457 22.0361 44.3767 22.402 44.5417 22.8429C44.7066 23.2809 44.7891 23.7938 44.7891 24.3817V24.9081H38.9537V23.7203H42.9849C42.9849 23.4443 42.925 23.1999 42.805 22.9869C42.685 22.7739 42.5185 22.6075 42.3056 22.4875C42.0956 22.3645 41.8511 22.303 41.5722 22.303C41.2812 22.303 41.0233 22.3705 40.7983 22.5055C40.5764 22.6375 40.4024 22.8159 40.2764 23.0409C40.1504 23.2629 40.086 23.5103 40.083 23.7833V24.9126C40.083 25.2545 40.1459 25.55 40.2719 25.7989C40.4009 26.0479 40.5824 26.2398 40.8163 26.3748C41.0503 26.5098 41.3277 26.5773 41.6487 26.5773C41.8616 26.5773 42.0566 26.5473 42.2336 26.4873C42.4105 26.4273 42.562 26.3373 42.688 26.2173C42.814 26.0974 42.91 25.9504 42.9759 25.7764L44.7486 25.8934C44.6587 26.3193 44.4742 26.6913 44.1952 27.0092C43.9193 27.3241 43.5623 27.5701 43.1244 27.7471C42.6895 27.921 42.1871 28.008 41.6172 28.008ZM46.0399 27.873V20.9623H47.8981V22.168H47.9701C48.096 21.7391 48.3075 21.4152 48.6045 21.1962C48.9014 20.9743 49.2433 20.8633 49.6303 20.8633C49.7263 20.8633 49.8297 20.8693 49.9407 20.8813C50.0517 20.8933 50.1492 20.9098 50.2332 20.9308V22.6315C50.1432 22.6045 50.0187 22.5805 49.8597 22.5595C49.7008 22.5385 49.5553 22.528 49.4233 22.528C49.1414 22.528 48.8894 22.5895 48.6674 22.7125C48.4485 22.8324 48.2745 23.0004 48.1455 23.2164C48.0196 23.4323 47.9566 23.6813 47.9566 23.9632V27.873H46.0399ZM56.9741 22.9329L55.2194 23.0409C55.1894 22.8909 55.1249 22.7559 55.026 22.636C54.927 22.513 54.7965 22.4155 54.6345 22.3435C54.4756 22.2685 54.2851 22.231 54.0631 22.231C53.7662 22.231 53.5157 22.294 53.3118 22.42C53.1078 22.543 53.0058 22.708 53.0058 22.9149C53.0058 23.0799 53.0718 23.2194 53.2038 23.3333C53.3358 23.4473 53.5622 23.5388 53.8832 23.6078L55.1339 23.8598C55.8058 23.9977 56.3067 24.2197 56.6367 24.5256C56.9666 24.8316 57.1316 25.2335 57.1316 25.7314C57.1316 26.1843 56.9981 26.5818 56.7312 26.9237C56.4672 27.2657 56.1043 27.5326 55.6424 27.7246C55.1834 27.9135 54.654 28.008 54.0541 28.008C53.1393 28.008 52.4104 27.8176 51.8675 27.4366C51.3276 27.0527 51.0112 26.5308 50.9182 25.8709L52.8033 25.7719C52.8603 26.0509 52.9983 26.2638 53.2173 26.4108C53.4362 26.5548 53.7167 26.6268 54.0586 26.6268C54.3946 26.6268 54.6645 26.5623 54.8685 26.4333C55.0754 26.3013 55.1804 26.1319 55.1834 25.9249C55.1804 25.7509 55.1069 25.6084 54.963 25.4975C54.819 25.3835 54.597 25.2965 54.2971 25.2365L53.1003 24.9981C52.4254 24.8631 51.923 24.6291 51.5931 24.2962C51.2661 23.9632 51.1026 23.5388 51.1026 23.0229C51.1026 22.579 51.2226 22.1965 51.4626 21.8756C51.7055 21.5547 52.046 21.3072 52.4839 21.1332C52.9248 20.9593 53.4407 20.8723 54.0316 20.8723C54.9045 20.8723 55.5914 21.0567 56.0923 21.4257C56.5962 21.7946 56.8901 22.297 56.9741 22.9329Z" fill="#232325"/>
<path d="M15.2829 39.6127V38.9528H19.8901V39.6127H17.9585V45.0957H17.2146V39.6127H15.2829ZM22.1457 45.1917C21.7298 45.1917 21.3649 45.0927 21.0509 44.8947C20.739 44.6968 20.495 44.4198 20.319 44.0639C20.1451 43.7079 20.0581 43.292 20.0581 42.8161C20.0581 42.3362 20.1451 41.9173 20.319 41.5593C20.495 41.2014 20.739 40.9234 21.0509 40.7255C21.3649 40.5275 21.7298 40.4285 22.1457 40.4285C22.5617 40.4285 22.9256 40.5275 23.2375 40.7255C23.5515 40.9234 23.7954 41.2014 23.9694 41.5593C24.1454 41.9173 24.2334 42.3362 24.2334 42.8161C24.2334 43.292 24.1454 43.7079 23.9694 44.0639C23.7954 44.4198 23.5515 44.6968 23.2375 44.8947C22.9256 45.0927 22.5617 45.1917 22.1457 45.1917ZM22.1457 44.5558C22.4617 44.5558 22.7216 44.4748 22.9256 44.3128C23.1296 44.1509 23.2805 43.9379 23.3785 43.674C23.4765 43.41 23.5255 43.124 23.5255 42.8161C23.5255 42.5082 23.4765 42.2212 23.3785 41.9553C23.2805 41.6893 23.1296 41.4743 22.9256 41.3104C22.7216 41.1464 22.4617 41.0644 22.1457 41.0644C21.8298 41.0644 21.5698 41.1464 21.3659 41.3104C21.1619 41.4743 21.0109 41.6893 20.9129 41.9553C20.815 42.2212 20.766 42.5082 20.766 42.8161C20.766 43.124 20.815 43.41 20.9129 43.674C21.0109 43.9379 21.1619 44.1509 21.3659 44.3128C21.5698 44.4748 21.8298 44.5558 22.1457 44.5558ZM27.3176 40.4885V41.0884H24.93V40.4885H27.3176ZM25.6259 39.3847H26.3337V43.7759C26.3337 43.9759 26.3627 44.1259 26.4207 44.2259C26.4807 44.3238 26.5567 44.3898 26.6487 44.4238C26.7427 44.4558 26.8417 44.4718 26.9456 44.4718C27.0236 44.4718 27.0876 44.4678 27.1376 44.4598C27.1876 44.4498 27.2276 44.4418 27.2576 44.4358L27.4016 45.0717C27.3536 45.0897 27.2866 45.1077 27.2006 45.1257C27.1146 45.1457 27.0056 45.1557 26.8736 45.1557C26.6737 45.1557 26.4777 45.1127 26.2857 45.0267C26.0958 44.9407 25.9378 44.8098 25.8118 44.6338C25.6879 44.4578 25.6259 44.2359 25.6259 43.9679V39.3847ZM29.7381 45.2037C29.4462 45.2037 29.1812 45.1487 28.9433 45.0387C28.7053 44.9267 28.5164 44.7658 28.3764 44.5558C28.2364 44.3438 28.1664 44.0879 28.1664 43.7879C28.1664 43.524 28.2184 43.31 28.3224 43.146C28.4264 42.9801 28.5653 42.8501 28.7393 42.7561C28.9133 42.6621 29.1053 42.5921 29.3152 42.5462C29.5272 42.4982 29.7401 42.4602 29.9541 42.4322C30.2341 42.3962 30.461 42.3692 30.635 42.3512C30.811 42.3312 30.9389 42.2982 31.0189 42.2522C31.1009 42.2062 31.1419 42.1262 31.1419 42.0122V41.9882C31.1419 41.6923 31.0609 41.4623 30.8989 41.2984C30.739 41.1344 30.496 41.0524 30.1701 41.0524C29.8321 41.0524 29.5672 41.1264 29.3752 41.2744C29.1832 41.4223 29.0483 41.5803 28.9703 41.7483L28.2984 41.5083C28.4184 41.2284 28.5783 41.0104 28.7783 40.8544C28.9803 40.6965 29.2002 40.5865 29.4382 40.5245C29.6782 40.4605 29.9141 40.4285 30.1461 40.4285C30.294 40.4285 30.464 40.4465 30.656 40.4825C30.8499 40.5165 31.0369 40.5875 31.2169 40.6955C31.3989 40.8035 31.5498 40.9664 31.6698 41.1844C31.7898 41.4024 31.8498 41.6943 31.8498 42.0602V45.0957H31.1419V44.4718H31.1059C31.0579 44.5718 30.9779 44.6788 30.8659 44.7928C30.754 44.9067 30.605 45.0037 30.419 45.0837C30.2331 45.1637 30.0061 45.2037 29.7381 45.2037ZM29.8461 44.5678C30.1261 44.5678 30.362 44.5128 30.554 44.4028C30.748 44.2928 30.8939 44.1509 30.9919 43.9769C31.0919 43.8029 31.1419 43.62 31.1419 43.428V42.7801C31.1119 42.8161 31.0459 42.8491 30.9439 42.8791C30.8439 42.9071 30.728 42.9321 30.596 42.9541C30.466 42.9741 30.339 42.9921 30.2151 43.0081C30.0931 43.0221 29.9941 43.0341 29.9181 43.0441C29.7341 43.0681 29.5622 43.1071 29.4022 43.161C29.2442 43.213 29.1163 43.292 29.0183 43.398C28.9223 43.502 28.8743 43.644 28.8743 43.8239C28.8743 44.0699 28.9653 44.2559 29.1472 44.3818C29.3312 44.5058 29.5642 44.5678 29.8461 44.5678ZM33.8497 38.9528V45.0957H33.1418V38.9528H33.8497ZM38.2297 42.3242V45.0957H37.5218V40.4885H38.2057V41.2084H38.2656C38.3736 40.9744 38.5376 40.7865 38.7576 40.6445C38.9775 40.5005 39.2615 40.4285 39.6094 40.4285C39.9214 40.4285 40.1943 40.4925 40.4283 40.6205C40.6622 40.7465 40.8442 40.9384 40.9742 41.1964C41.1041 41.4523 41.1691 41.7763 41.1691 42.1682V45.0957H40.4613V42.2162C40.4613 41.8543 40.3673 41.5723 40.1793 41.3704C39.9913 41.1664 39.7334 41.0644 39.4054 41.0644C39.1795 41.0644 38.9775 41.1134 38.7996 41.2114C38.6236 41.3094 38.4846 41.4523 38.3826 41.6403C38.2806 41.8283 38.2297 42.0562 38.2297 42.3242ZM45.3662 43.212V40.4885H46.074V45.0957H45.3662V44.3158H45.3182C45.2102 44.5498 45.0422 44.7488 44.8142 44.9127C44.5863 45.0747 44.2983 45.1557 43.9504 45.1557C43.6624 45.1557 43.4065 45.0927 43.1825 44.9667C42.9586 44.8387 42.7826 44.6468 42.6546 44.3908C42.5266 44.1329 42.4627 43.8079 42.4627 43.416V40.4885H43.1705V43.368C43.1705 43.7039 43.2645 43.9719 43.4525 44.1719C43.6425 44.3718 43.8844 44.4718 44.1784 44.4718C44.3543 44.4718 44.5333 44.4268 44.7153 44.3368C44.8992 44.2469 45.0532 44.1089 45.1772 43.9229C45.3032 43.7369 45.3662 43.5 45.3662 43.212ZM47.3705 45.0957V40.4885H48.0544V41.2084H48.1144C48.2104 40.9624 48.3654 40.7715 48.5793 40.6355C48.7933 40.4975 49.0503 40.4285 49.3502 40.4285C49.6541 40.4285 49.9071 40.4975 50.1091 40.6355C50.313 40.7715 50.472 40.9624 50.586 41.2084H50.634C50.752 40.9704 50.9289 40.7815 51.1649 40.6415C51.4008 40.4995 51.6838 40.4285 52.0137 40.4285C52.4257 40.4285 52.7626 40.5575 53.0246 40.8155C53.2865 41.0714 53.4175 41.4703 53.4175 42.0122V45.0957H52.7096V42.0122C52.7096 41.6723 52.6166 41.4293 52.4307 41.2834C52.2447 41.1374 52.0257 41.0644 51.7738 41.0644C51.4498 41.0644 51.1989 41.1624 51.0209 41.3584C50.8429 41.5523 50.754 41.7983 50.754 42.0962V45.0957H50.0341V41.9403C50.0341 41.6783 49.9491 41.4673 49.7791 41.3074C49.6092 41.1454 49.3902 41.0644 49.1222 41.0644C48.9383 41.0644 48.7663 41.1134 48.6063 41.2114C48.4484 41.3094 48.3204 41.4453 48.2224 41.6193C48.1264 41.7913 48.0784 41.9902 48.0784 42.2162V45.0957H47.3705ZM54.8077 45.0957V38.9528H55.5156V41.2204H55.5756C55.6276 41.1404 55.6996 41.0384 55.7916 40.9144C55.8856 40.7885 56.0195 40.6765 56.1935 40.5785C56.3695 40.4785 56.6074 40.4285 56.9074 40.4285C57.2953 40.4285 57.6372 40.5255 57.9332 40.7195C58.2291 40.9134 58.4601 41.1884 58.6261 41.5443C58.792 41.9003 58.875 42.3202 58.875 42.8041C58.875 43.292 58.792 43.7149 58.6261 44.0729C58.4601 44.4288 58.2301 44.7048 57.9362 44.9007C57.6422 45.0947 57.3033 45.1917 56.9194 45.1917C56.6234 45.1917 56.3865 45.1427 56.2085 45.0447C56.0305 44.9447 55.8936 44.8317 55.7976 44.7058C55.7016 44.5778 55.6276 44.4718 55.5756 44.3878H55.4916V45.0957H54.8077ZM55.5036 42.7921C55.5036 43.14 55.5546 43.447 55.6566 43.7129C55.7586 43.9769 55.9075 44.1839 56.1035 44.3338C56.2995 44.4818 56.5394 44.5558 56.8234 44.5558C57.1193 44.5558 57.3663 44.4778 57.5643 44.3218C57.7642 44.1639 57.9142 43.9519 58.0142 43.686C58.1162 43.418 58.1672 43.12 58.1672 42.7921C58.1672 42.4682 58.1172 42.1762 58.0172 41.9163C57.9192 41.6543 57.7702 41.4473 57.5703 41.2954C57.3723 41.1414 57.1233 41.0644 56.8234 41.0644C56.5354 41.0644 56.2935 41.1374 56.0975 41.2834C55.9016 41.4273 55.7536 41.6293 55.6536 41.8893C55.5536 42.1472 55.5036 42.4482 55.5036 42.7921ZM61.8895 45.1917C61.4456 45.1917 61.0626 45.0937 60.7407 44.8977C60.4208 44.6998 60.1738 44.4238 59.9998 44.0699C59.8279 43.7139 59.7419 43.3 59.7419 42.8281C59.7419 42.3562 59.8279 41.9403 59.9998 41.5803C60.1738 41.2184 60.4158 40.9364 60.7257 40.7345C61.0376 40.5305 61.4016 40.4285 61.8175 40.4285C62.0575 40.4285 62.2944 40.4685 62.5284 40.5485C62.7623 40.6285 62.9753 40.7585 63.1673 40.9384C63.3592 41.1164 63.5122 41.3524 63.6262 41.6463C63.7402 41.9403 63.7972 42.3022 63.7972 42.7321V43.0321H60.2458V42.4202H63.0773C63.0773 42.1602 63.0253 41.9283 62.9213 41.7243C62.8193 41.5203 62.6734 41.3594 62.4834 41.2414C62.2954 41.1234 62.0735 41.0644 61.8175 41.0644C61.5356 41.0644 61.2916 41.1344 61.0856 41.2744C60.8817 41.4123 60.7247 41.5923 60.6147 41.8143C60.5047 42.0362 60.4498 42.2742 60.4498 42.5282V42.9361C60.4498 43.284 60.5097 43.579 60.6297 43.8209C60.7517 44.0609 60.9207 44.2439 61.1366 44.3698C61.3526 44.4938 61.6035 44.5558 61.8895 44.5558C62.0755 44.5558 62.2434 44.5298 62.3934 44.4778C62.5454 44.4238 62.6764 44.3438 62.7863 44.2379C62.8963 44.1299 62.9813 43.9959 63.0413 43.8359L63.7252 44.0279C63.6532 44.2598 63.5322 44.4638 63.3622 44.6398C63.1923 44.8138 62.9823 44.9497 62.7324 45.0477C62.4824 45.1437 62.2014 45.1917 61.8895 45.1917ZM64.874 45.0957V40.4885H65.5579V41.1844H65.6058C65.6898 40.9564 65.8418 40.7715 66.0618 40.6295C66.2817 40.4875 66.5297 40.4165 66.8056 40.4165C66.8576 40.4165 66.9226 40.4175 67.0006 40.4195C67.0786 40.4215 67.1376 40.4245 67.1776 40.4285V41.1484C67.1536 41.1424 67.0986 41.1334 67.0126 41.1214C66.9286 41.1074 66.8396 41.1004 66.7456 41.1004C66.5217 41.1004 66.3217 41.1474 66.1458 41.2414C65.9718 41.3334 65.8338 41.4613 65.7318 41.6253C65.6318 41.7873 65.5819 41.9723 65.5819 42.1802V45.0957H64.874ZM72.2639 45.1917C71.848 45.1917 71.4831 45.0927 71.1691 44.8947C70.8572 44.6968 70.6132 44.4198 70.4373 44.0639C70.2633 43.7079 70.1763 43.292 70.1763 42.8161C70.1763 42.3362 70.2633 41.9173 70.4373 41.5593C70.6132 41.2014 70.8572 40.9234 71.1691 40.7255C71.4831 40.5275 71.848 40.4285 72.2639 40.4285C72.6799 40.4285 73.0438 40.5275 73.3557 40.7255C73.6697 40.9234 73.9136 41.2014 74.0876 41.5593C74.2636 41.9173 74.3516 42.3362 74.3516 42.8161C74.3516 43.292 74.2636 43.7079 74.0876 44.0639C73.9136 44.4198 73.6697 44.6968 73.3557 44.8947C73.0438 45.0927 72.6799 45.1917 72.2639 45.1917ZM72.2639 44.5558C72.5799 44.5558 72.8398 44.4748 73.0438 44.3128C73.2478 44.1509 73.3987 43.9379 73.4967 43.674C73.5947 43.41 73.6437 43.124 73.6437 42.8161C73.6437 42.5082 73.5947 42.2212 73.4967 41.9553C73.3987 41.6893 73.2478 41.4743 73.0438 41.3104C72.8398 41.1464 72.5799 41.0644 72.2639 41.0644C71.948 41.0644 71.688 41.1464 71.4841 41.3104C71.2801 41.4743 71.1291 41.6893 71.0311 41.9553C70.9332 42.2212 70.8842 42.5082 70.8842 42.8161C70.8842 43.124 70.9332 43.41 71.0311 43.674C71.1291 43.9379 71.2801 44.1509 71.4841 44.3128C71.688 44.4748 71.948 44.5558 72.2639 44.5558ZM77.4838 40.4885V41.0884H75.0002V40.4885H77.4838ZM75.7441 45.0957V39.8526C75.7441 39.5887 75.8061 39.3687 75.93 39.1927C76.054 39.0168 76.215 38.8848 76.413 38.7968C76.6109 38.7088 76.8199 38.6648 77.0398 38.6648C77.2138 38.6648 77.3558 38.6788 77.4658 38.7068C77.5757 38.7348 77.6577 38.7608 77.7117 38.7848L77.5078 39.3967C77.4718 39.3847 77.4218 39.3697 77.3578 39.3517C77.2958 39.3337 77.2138 39.3247 77.1118 39.3247C76.8779 39.3247 76.7089 39.3837 76.6049 39.5017C76.5029 39.6197 76.4519 39.7926 76.4519 40.0206V45.0957H75.7441ZM83.7549 43.212V40.4885H84.4628V45.0957H83.7549V44.3158H83.7069C83.5989 44.5498 83.431 44.7488 83.203 44.9127C82.9751 45.0747 82.6871 45.1557 82.3392 45.1557C82.0512 45.1557 81.7953 45.0927 81.5713 44.9667C81.3473 44.8387 81.1714 44.6468 81.0434 44.3908C80.9154 44.1329 80.8514 43.8079 80.8514 43.416V40.4885H81.5593V43.368C81.5593 43.7039 81.6533 43.9719 81.8412 44.1719C82.0312 44.3718 82.2732 44.4718 82.5671 44.4718C82.7431 44.4718 82.9221 44.4268 83.104 44.3368C83.288 44.2469 83.442 44.1089 83.5659 43.9229C83.6919 43.7369 83.7549 43.5 83.7549 43.212ZM89.0227 41.5203L88.3869 41.7003C88.3469 41.5943 88.2879 41.4913 88.2099 41.3914C88.1339 41.2894 88.0299 41.2054 87.8979 41.1394C87.766 41.0734 87.597 41.0404 87.391 41.0404C87.1091 41.0404 86.8741 41.1054 86.6862 41.2354C86.5002 41.3634 86.4072 41.5263 86.4072 41.7243C86.4072 41.9003 86.4712 42.0392 86.5992 42.1412C86.7271 42.2432 86.9271 42.3282 87.1991 42.3962L87.8829 42.5641C88.2949 42.6641 88.6018 42.8171 88.8038 43.0231C89.0057 43.227 89.1067 43.49 89.1067 43.8119C89.1067 44.0759 89.0307 44.3118 88.8788 44.5198C88.7288 44.7278 88.5188 44.8917 88.2489 45.0117C87.9789 45.1317 87.665 45.1917 87.307 45.1917C86.8371 45.1917 86.4482 45.0897 86.1402 44.8857C85.8323 44.6818 85.6373 44.3838 85.5553 43.9919L86.2272 43.8239C86.2912 44.0719 86.4122 44.2579 86.5902 44.3818C86.7701 44.5058 87.0051 44.5678 87.295 44.5678C87.625 44.5678 87.8869 44.4978 88.0809 44.3578C88.2769 44.2159 88.3749 44.0459 88.3749 43.8479C88.3749 43.688 88.3189 43.554 88.2069 43.446C88.0949 43.336 87.9229 43.254 87.691 43.2L86.9231 43.0201C86.5012 42.9201 86.1912 42.7651 85.9933 42.5551C85.7973 42.3432 85.6993 42.0782 85.6993 41.7603C85.6993 41.5003 85.7723 41.2704 85.9183 41.0704C86.0663 40.8704 86.2672 40.7135 86.5212 40.5995C86.7771 40.4855 87.0671 40.4285 87.391 40.4285C87.8469 40.4285 88.2049 40.5285 88.4648 40.7285C88.7268 40.9284 88.9128 41.1924 89.0227 41.5203ZM92.1039 45.1917C91.66 45.1917 91.2771 45.0937 90.9551 44.8977C90.6352 44.6998 90.3882 44.4238 90.2143 44.0699C90.0423 43.7139 89.9563 43.3 89.9563 42.8281C89.9563 42.3562 90.0423 41.9403 90.2143 41.5803C90.3882 41.2184 90.6302 40.9364 90.9402 40.7345C91.2521 40.5305 91.616 40.4285 92.032 40.4285C92.2719 40.4285 92.5089 40.4685 92.7428 40.5485C92.9768 40.6285 93.1898 40.7585 93.3817 40.9384C93.5737 41.1164 93.7267 41.3524 93.8406 41.6463C93.9546 41.9403 94.0116 42.3022 94.0116 42.7321V43.0321H90.4602V42.4202H93.2917C93.2917 42.1602 93.2397 41.9283 93.1358 41.7243C93.0338 41.5203 92.8878 41.3594 92.6978 41.2414C92.5099 41.1234 92.2879 41.0644 92.032 41.0644C91.75 41.0644 91.5061 41.1344 91.3001 41.2744C91.0961 41.4123 90.9392 41.5923 90.8292 41.8143C90.7192 42.0362 90.6642 42.2742 90.6642 42.5282V42.9361C90.6642 43.284 90.7242 43.579 90.8442 43.8209C90.9661 44.0609 91.1351 44.2439 91.3511 44.3698C91.567 44.4938 91.818 44.5558 92.1039 44.5558C92.2899 44.5558 92.4579 44.5298 92.6079 44.4778C92.7598 44.4238 92.8908 44.3438 93.0008 44.2379C93.1108 44.1299 93.1958 43.9959 93.2557 43.8359L93.9396 44.0279C93.8676 44.2598 93.7467 44.4638 93.5767 44.6398C93.4067 44.8138 93.1968 44.9497 92.9468 45.0477C92.6968 45.1437 92.4159 45.1917 92.1039 45.1917ZM95.0884 45.0957V40.4885H95.7723V41.1844H95.8203C95.9043 40.9564 96.0563 40.7715 96.2762 40.6295C96.4962 40.4875 96.7441 40.4165 97.0201 40.4165C97.0721 40.4165 97.1371 40.4175 97.215 40.4195C97.293 40.4215 97.352 40.4245 97.392 40.4285V41.1484C97.368 41.1424 97.313 41.1334 97.227 41.1214C97.1431 41.1074 97.0541 41.1004 96.9601 41.1004C96.7361 41.1004 96.5362 41.1474 96.3602 41.2414C96.1862 41.3334 96.0483 41.4613 95.9463 41.6253C95.8463 41.7873 95.7963 41.9723 95.7963 42.1802V45.0957H95.0884ZM101.495 41.5203L100.859 41.7003C100.819 41.5943 100.76 41.4913 100.682 41.3914C100.606 41.2894 100.502 41.2054 100.37 41.1394C100.238 41.0734 100.069 41.0404 99.8628 41.0404C99.5809 41.0404 99.3459 41.1054 99.158 41.2354C98.972 41.3634 98.879 41.5263 98.879 41.7243C98.879 41.9003 98.943 42.0392 99.071 42.1412C99.199 42.2432 99.3989 42.3282 99.6709 42.3962L100.355 42.5641C100.767 42.6641 101.074 42.8171 101.276 43.0231C101.478 43.227 101.579 43.49 101.579 43.8119C101.579 44.0759 101.503 44.3118 101.351 44.5198C101.201 44.7278 100.991 44.8917 100.721 45.0117C100.451 45.1317 100.137 45.1917 99.7789 45.1917C99.3089 45.1917 98.92 45.0897 98.6121 44.8857C98.3041 44.6818 98.1091 44.3838 98.0272 43.9919L98.699 43.8239C98.763 44.0719 98.884 44.2579 99.062 44.3818C99.2419 44.5058 99.4769 44.5678 99.7669 44.5678C100.097 44.5678 100.359 44.4978 100.553 44.3578C100.749 44.2159 100.847 44.0459 100.847 43.8479C100.847 43.688 100.791 43.554 100.679 43.446C100.567 43.336 100.395 43.254 100.163 43.2L99.3949 43.0201C98.973 42.9201 98.663 42.7651 98.4651 42.5551C98.2691 42.3432 98.1711 42.0782 98.1711 41.7603C98.1711 41.5003 98.2441 41.2704 98.3901 41.0704C98.5381 40.8704 98.739 40.7135 98.993 40.5995C99.2489 40.4855 99.5389 40.4285 99.8628 40.4285C100.319 40.4285 100.677 40.5285 100.937 40.7285C101.199 40.9284 101.385 41.1924 101.495 41.5203ZM103.16 45.1437C103.012 45.1437 102.885 45.0907 102.779 44.9847C102.673 44.8787 102.62 44.7518 102.62 44.6038C102.62 44.4558 102.673 44.3288 102.779 44.2229C102.885 44.1169 103.012 44.0639 103.16 44.0639C103.308 44.0639 103.435 44.1169 103.541 44.2229C103.647 44.3288 103.7 44.4558 103.7 44.6038C103.7 44.7018 103.675 44.7918 103.625 44.8737C103.577 44.9557 103.512 45.0217 103.43 45.0717C103.35 45.1197 103.26 45.1437 103.16 45.1437ZM103.16 41.7243C103.012 41.7243 102.885 41.6713 102.779 41.5653C102.673 41.4593 102.62 41.3324 102.62 41.1844C102.62 41.0364 102.673 40.9094 102.779 40.8035C102.885 40.6975 103.012 40.6445 103.16 40.6445C103.308 40.6445 103.435 40.6975 103.541 40.8035C103.647 40.9094 103.7 41.0364 103.7 41.1844C103.7 41.2824 103.675 41.3724 103.625 41.4543C103.577 41.5363 103.512 41.6023 103.43 41.6523C103.35 41.7003 103.26 41.7243 103.16 41.7243Z" fill="#6F727A"/>
<path d="M109.73 45.1797C109.306 45.1797 108.928 45.1017 108.596 44.9457C108.266 44.7898 108.004 44.5748 107.81 44.3008C107.616 44.0269 107.515 43.7129 107.507 43.359H108.767C108.781 43.597 108.881 43.7899 109.067 43.9379C109.253 44.0859 109.474 44.1599 109.73 44.1599C109.934 44.1599 110.114 44.1149 110.27 44.0249C110.428 43.9329 110.551 43.8059 110.639 43.644C110.729 43.48 110.774 43.292 110.774 43.0801C110.774 42.8641 110.728 42.6741 110.636 42.5102C110.546 42.3462 110.421 42.2182 110.261 42.1262C110.101 42.0342 109.918 41.9872 109.712 41.9852C109.532 41.9852 109.357 42.0222 109.187 42.0962C109.019 42.1702 108.888 42.2712 108.794 42.3992L107.639 42.1922L107.93 38.9528H111.685V40.0146H109.001L108.842 41.5533H108.878C108.986 41.4014 109.149 41.2754 109.367 41.1754C109.585 41.0754 109.829 41.0254 110.099 41.0254C110.469 41.0254 110.799 41.1124 111.089 41.2864C111.379 41.4603 111.607 41.6993 111.775 42.0032C111.943 42.3052 112.026 42.6531 112.024 43.0471C112.026 43.461 111.93 43.8289 111.736 44.1509C111.544 44.4708 111.276 44.7228 110.93 44.9067C110.586 45.0887 110.186 45.1797 109.73 45.1797ZM115.201 45.1797C114.753 45.1797 114.354 45.1027 114.004 44.9487C113.656 44.7928 113.381 44.5788 113.179 44.3068C112.979 44.0329 112.876 43.7169 112.87 43.359H114.178C114.186 43.509 114.235 43.641 114.325 43.7549C114.417 43.8669 114.539 43.9539 114.691 44.0159C114.843 44.0779 115.014 44.1089 115.204 44.1089C115.402 44.1089 115.577 44.0739 115.729 44.0039C115.881 43.9339 116 43.8369 116.086 43.7129C116.172 43.589 116.215 43.446 116.215 43.284C116.215 43.12 116.169 42.9751 116.077 42.8491C115.987 42.7211 115.857 42.6211 115.687 42.5491C115.519 42.4772 115.319 42.4412 115.087 42.4412H114.514V41.4873H115.087C115.283 41.4873 115.456 41.4533 115.606 41.3854C115.758 41.3174 115.876 41.2234 115.96 41.1034C116.044 40.9814 116.086 40.8394 116.086 40.6775C116.086 40.5235 116.049 40.3885 115.975 40.2725C115.903 40.1546 115.801 40.0626 115.669 39.9966C115.539 39.9306 115.387 39.8976 115.213 39.8976C115.037 39.8976 114.876 39.9296 114.73 39.9936C114.584 40.0556 114.467 40.1446 114.379 40.2606C114.291 40.3765 114.244 40.5125 114.238 40.6685H112.993C112.999 40.3145 113.1 40.0026 113.296 39.7326C113.492 39.4627 113.756 39.2517 114.088 39.0998C114.422 38.9458 114.799 38.8688 115.219 38.8688C115.643 38.8688 116.014 38.9458 116.332 39.0998C116.65 39.2537 116.897 39.4617 117.073 39.7236C117.25 39.9836 117.338 40.2755 117.336 40.5995C117.338 40.9434 117.231 41.2304 117.016 41.4603C116.802 41.6903 116.523 41.8363 116.179 41.8983V41.9463C116.631 42.0042 116.975 42.1612 117.21 42.4172C117.448 42.6711 117.566 42.9891 117.564 43.371C117.566 43.7209 117.465 44.0319 117.261 44.3038C117.06 44.5758 116.781 44.7898 116.425 44.9457C116.069 45.1017 115.661 45.1797 115.201 45.1797ZM120.79 45.1797C120.328 45.1797 119.917 45.1047 119.557 44.9547C119.199 44.8028 118.918 44.5958 118.714 44.3338C118.51 44.0719 118.408 43.7749 118.408 43.443C118.408 43.187 118.466 42.9521 118.582 42.7381C118.7 42.5222 118.86 42.3432 119.062 42.2012C119.264 42.0572 119.49 41.9653 119.74 41.9253V41.8833C119.412 41.8173 119.146 41.6583 118.942 41.4064C118.738 41.1524 118.636 40.8574 118.636 40.5215C118.636 40.2036 118.729 39.9206 118.915 39.6727C119.101 39.4227 119.356 39.2267 119.68 39.0848C120.006 38.9408 120.376 38.8688 120.79 38.8688C121.204 38.8688 121.572 38.9408 121.896 39.0848C122.222 39.2287 122.478 39.4257 122.664 39.6757C122.85 39.9236 122.944 40.2056 122.946 40.5215C122.944 40.8594 122.84 41.1544 122.634 41.4064C122.428 41.6583 122.164 41.8173 121.842 41.8833V41.9253C122.088 41.9653 122.311 42.0572 122.511 42.2012C122.713 42.3432 122.873 42.5222 122.991 42.7381C123.111 42.9521 123.172 43.187 123.174 43.443C123.172 43.7749 123.069 44.0719 122.865 44.3338C122.661 44.5958 122.379 44.8028 122.019 44.9547C121.661 45.1047 121.252 45.1797 120.79 45.1797ZM120.79 44.2259C120.996 44.2259 121.176 44.1889 121.33 44.1149C121.483 44.0389 121.603 43.9349 121.689 43.8029C121.777 43.669 121.821 43.515 121.821 43.341C121.821 43.163 121.776 43.0061 121.686 42.8701C121.596 42.7321 121.474 42.6241 121.321 42.5462C121.167 42.4662 120.99 42.4262 120.79 42.4262C120.592 42.4262 120.415 42.4662 120.259 42.5462C120.103 42.6241 119.98 42.7321 119.89 42.8701C119.802 43.0061 119.758 43.163 119.758 43.341C119.758 43.515 119.801 43.669 119.887 43.8029C119.973 43.9349 120.094 44.0389 120.25 44.1149C120.406 44.1889 120.586 44.2259 120.79 44.2259ZM120.79 41.4813C120.962 41.4813 121.115 41.4463 121.249 41.3764C121.383 41.3064 121.487 41.2094 121.563 41.0854C121.639 40.9614 121.677 40.8185 121.677 40.6565C121.677 40.4965 121.639 40.3565 121.563 40.2366C121.487 40.1146 121.384 40.0196 121.252 39.9516C121.12 39.8816 120.966 39.8466 120.79 39.8466C120.616 39.8466 120.462 39.8816 120.328 39.9516C120.194 40.0196 120.089 40.1146 120.013 40.2366C119.939 40.3565 119.902 40.4965 119.902 40.6565C119.902 40.8185 119.94 40.9614 120.016 41.0854C120.092 41.2094 120.197 41.3064 120.331 41.3764C120.465 41.4463 120.618 41.4813 120.79 41.4813Z" fill="#6F727A"/>
<g clip-path="url(#clip0_1603_12577)">
<rect x="14.875" y="65.5527" width="147.99" height="16.893" fill="#FFB545"/>
<rect x="162.863" y="65.5527" width="85.521" height="16.893" fill="#00BEBE"/>
<rect x="248.387" y="65.5527" width="50.5031" height="16.893" fill="#F32D2D"/>
</g>
<path d="M15.6219 112.338V110.934L18.9018 107.897C19.1807 107.627 19.4147 107.384 19.6037 107.168C19.7956 106.952 19.9411 106.741 20.0401 106.534C20.1391 106.324 20.1886 106.097 20.1886 105.855C20.1886 105.585 20.1271 105.352 20.0041 105.157C19.8811 104.959 19.7132 104.808 19.5002 104.703C19.2872 104.595 19.0458 104.541 18.7758 104.541C18.4939 104.541 18.2479 104.598 18.0379 104.712C17.828 104.826 17.666 104.989 17.552 105.202C17.4381 105.415 17.3811 105.669 17.3811 105.963H15.5319C15.5319 105.36 15.6684 104.836 15.9413 104.392C16.2143 103.948 16.5967 103.605 17.0886 103.362C17.5805 103.119 18.1474 102.998 18.7893 102.998C19.4492 102.998 20.0236 103.115 20.5125 103.348C21.0044 103.579 21.3869 103.9 21.6598 104.311C21.9328 104.722 22.0692 105.193 22.0692 105.724C22.0692 106.072 22.0003 106.415 21.8623 106.754C21.7273 107.093 21.4858 107.47 21.1379 107.884C20.79 108.295 20.2995 108.788 19.6667 109.364L18.3214 110.682V110.745H22.1907V112.338H15.6219ZM27.0397 112.464C26.3469 112.464 25.7305 112.351 25.1906 112.126C24.6537 111.898 24.2322 111.588 23.9263 111.195C23.6203 110.802 23.4674 110.357 23.4674 109.859C23.4674 109.475 23.5544 109.122 23.7283 108.802C23.9053 108.478 24.1452 108.209 24.4482 107.996C24.7511 107.78 25.0901 107.642 25.465 107.582V107.519C24.9731 107.42 24.5742 107.182 24.2682 106.804C23.9623 106.423 23.8093 105.981 23.8093 105.477C23.8093 105 23.9488 104.575 24.2277 104.203C24.5067 103.828 24.8891 103.534 25.375 103.321C25.8639 103.106 26.4189 102.998 27.0397 102.998C27.6606 102.998 28.214 103.106 28.7 103.321C29.1889 103.537 29.5728 103.833 29.8517 104.208C30.1307 104.58 30.2717 105.003 30.2747 105.477C30.2717 105.984 30.1157 106.426 29.8068 106.804C29.4978 107.182 29.1019 107.42 28.619 107.519V107.582C28.9879 107.642 29.3223 107.78 29.6223 107.996C29.9252 108.209 30.1652 108.478 30.3422 108.802C30.5221 109.122 30.6136 109.475 30.6166 109.859C30.6136 110.357 30.4591 110.802 30.1532 111.195C29.8472 111.588 29.4243 111.898 28.8844 112.126C28.3475 112.351 27.7326 112.464 27.0397 112.464ZM27.0397 111.033C27.3487 111.033 27.6186 110.978 27.8496 110.867C28.0806 110.753 28.2605 110.597 28.3895 110.399C28.5215 110.198 28.5875 109.967 28.5875 109.706C28.5875 109.439 28.52 109.203 28.385 108.999C28.25 108.793 28.0671 108.631 27.8361 108.514C27.6051 108.394 27.3397 108.334 27.0397 108.334C26.7428 108.334 26.4773 108.394 26.2434 108.514C26.0094 108.631 25.825 108.793 25.69 108.999C25.558 109.203 25.492 109.439 25.492 109.706C25.492 109.967 25.5565 110.198 25.6855 110.399C25.8145 110.597 25.9959 110.753 26.2299 110.867C26.4638 110.978 26.7338 111.033 27.0397 111.033ZM27.0397 106.916C27.2977 106.916 27.5272 106.864 27.7281 106.759C27.9291 106.654 28.0866 106.508 28.2005 106.322C28.3145 106.136 28.3715 105.922 28.3715 105.679C28.3715 105.439 28.3145 105.229 28.2005 105.049C28.0866 104.866 27.9306 104.724 27.7326 104.622C27.5347 104.517 27.3037 104.464 27.0397 104.464C26.7788 104.464 26.5478 104.517 26.3469 104.622C26.1459 104.724 25.9884 104.866 25.8744 105.049C25.7635 105.229 25.708 105.439 25.708 105.679C25.708 105.922 25.765 106.136 25.8789 106.322C25.9929 106.508 26.1504 106.654 26.3514 106.759C26.5523 106.864 26.7818 106.916 27.0397 106.916ZM35.5916 112.54C34.8178 112.537 34.1519 112.347 33.594 111.969C33.0391 111.591 32.6116 111.044 32.3117 110.327C32.0147 109.61 31.8678 108.748 31.8708 107.74C31.8708 106.735 32.0192 105.879 32.3162 105.171C32.6161 104.463 33.0436 103.924 33.5985 103.555C34.1564 103.183 34.8208 102.998 35.5916 102.998C36.3625 102.998 37.0254 103.183 37.5803 103.555C38.1382 103.927 38.5671 104.467 38.867 105.175C39.167 105.88 39.3155 106.735 39.3125 107.74C39.3125 108.751 39.1625 109.614 38.8625 110.331C38.5656 111.048 38.1397 111.596 37.5848 111.973C37.0299 112.351 36.3655 112.54 35.5916 112.54ZM35.5916 110.925C36.1195 110.925 36.5409 110.66 36.8559 110.129C37.1708 109.598 37.3268 108.802 37.3238 107.74C37.3238 107.041 37.2518 106.459 37.1078 105.994C36.9669 105.529 36.7659 105.18 36.505 104.946C36.247 104.712 35.9426 104.595 35.5916 104.595C35.0667 104.595 34.6468 104.857 34.3318 105.382C34.0169 105.907 33.8579 106.693 33.8549 107.74C33.8549 108.448 33.9254 109.038 34.0664 109.512C34.2104 109.983 34.4128 110.337 34.6738 110.574C34.9347 110.808 35.2407 110.925 35.5916 110.925Z" fill="#232325"/>
<rect x="14.875" y="122.838" width="8.44652" height="8.44652" rx="2.11163" fill="#FFB545"/>
<path d="M28.0101 124.185H29.4116L30.8919 127.797H30.9549L32.4351 124.185H33.8366V129.561H32.7343V126.062H32.6897L31.2987 129.534H30.5481L29.1571 126.049H29.1124V129.561H28.0101V124.185ZM36.4385 129.561H35.2207L37.0762 124.185H38.5407L40.3936 129.561H39.1758L37.8295 125.414H37.7875L36.4385 129.561ZM36.3623 127.448H39.2388V128.335H36.3623V127.448ZM41.7797 129.561V124.185H43.9003C44.3062 124.185 44.6526 124.258 44.9396 124.403C45.2283 124.547 45.4479 124.751 45.5984 125.015C45.7506 125.277 45.8267 125.586 45.8267 125.941C45.8267 126.298 45.7497 126.605 45.5957 126.863C45.4418 127.118 45.2187 127.314 44.9265 127.45C44.636 127.587 44.2843 127.655 43.8714 127.655H42.4515V126.742H43.6877C43.9047 126.742 44.0849 126.712 44.2283 126.653C44.3718 126.593 44.4786 126.504 44.5485 126.385C44.6203 126.266 44.6561 126.118 44.6561 125.941C44.6561 125.763 44.6203 125.612 44.5485 125.49C44.4786 125.367 44.3709 125.275 44.2257 125.212C44.0822 125.147 43.9012 125.115 43.6824 125.115H42.9161V129.561H41.7797ZM44.6824 127.114L46.0183 129.561H44.7638L43.4567 127.114H44.6824ZM47.3689 129.561V124.185H48.5053V126.555H48.5762L50.5104 124.185H51.8726L49.8779 126.592L51.8962 129.561H50.5367L49.0643 127.351L48.5053 128.033V129.561H47.3689ZM53.2035 129.561V124.185H56.8253V125.122H54.3399V126.403H56.639V127.34H54.3399V128.624H56.8358V129.561H53.2035ZM58.2632 125.122V124.185H62.6777V125.122H61.0321V129.561H59.9088V125.122H58.2632ZM64.1437 129.561V124.185H66.2644C66.6721 124.185 67.0194 124.263 67.3063 124.419C67.5933 124.573 67.812 124.787 67.9625 125.062C68.1147 125.335 68.1908 125.65 68.1908 126.007C68.1908 126.364 68.1138 126.679 67.9598 126.952C67.8059 127.225 67.5828 127.437 67.2906 127.59C67.0001 127.742 66.6484 127.818 66.2355 127.818H64.8839V126.907H66.0518C66.2705 126.907 66.4507 126.87 66.5924 126.794C66.7359 126.717 66.8426 126.611 66.9126 126.477C66.9844 126.34 67.0202 126.184 67.0202 126.007C67.0202 125.828 66.9844 125.673 66.9126 125.54C66.8426 125.405 66.7359 125.301 66.5924 125.227C66.449 125.152 66.267 125.115 66.0465 125.115H65.2802V129.561H64.1437ZM69.668 129.561V124.185H70.8044V128.624H73.1088V129.561H69.668ZM75.664 129.561H74.4462L76.3018 124.185H77.7663L79.6192 129.561H78.4014L77.055 125.414H77.013L75.664 129.561ZM75.5879 127.448H78.4644V128.335H75.5879V127.448ZM85.4952 126.067H84.3456C84.3246 125.919 84.2817 125.786 84.217 125.671C84.1523 125.554 84.0692 125.454 83.9677 125.372C83.8662 125.29 83.749 125.227 83.616 125.183C83.4848 125.139 83.3422 125.117 83.1882 125.117C82.91 125.117 82.6677 125.186 82.4612 125.325C82.2547 125.461 82.0946 125.66 81.9809 125.923C81.8672 126.184 81.8103 126.5 81.8103 126.873C81.8103 127.256 81.8672 127.578 81.9809 127.839C82.0964 128.1 82.2574 128.296 82.4638 128.429C82.6703 128.562 82.9091 128.629 83.1803 128.629C83.3325 128.629 83.4734 128.609 83.6029 128.568C83.7341 128.528 83.8504 128.47 83.9519 128.393C84.0534 128.314 84.1374 128.219 84.2039 128.107C84.2721 127.995 84.3194 127.867 84.3456 127.723L85.4952 127.729C85.4654 127.975 85.3911 128.213 85.2721 128.442C85.1548 128.67 84.9965 128.874 84.797 129.054C84.5993 129.232 84.3631 129.374 84.0884 129.479C83.8155 129.582 83.5066 129.634 83.1619 129.634C82.6825 129.634 82.2539 129.526 81.8759 129.309C81.4997 129.092 81.2023 128.778 80.9836 128.366C80.7666 127.955 80.6581 127.457 80.6581 126.873C80.6581 126.287 80.7684 125.788 80.9888 125.377C81.2093 124.966 81.5085 124.653 81.8864 124.437C82.2644 124.22 82.6895 124.112 83.1619 124.112C83.4734 124.112 83.7621 124.156 84.028 124.243C84.2957 124.331 84.5328 124.458 84.7393 124.626C84.9458 124.793 85.1137 124.996 85.2432 125.238C85.3744 125.479 85.4584 125.756 85.4952 126.067ZM87.0492 129.561V124.185H90.671V125.122H88.1856V126.403H90.4847V127.34H88.1856V128.624H90.6815V129.561H87.0492Z" fill="#6F727A"/>
<path d="M118.349 103.124V112.338H116.401V104.973H116.347L114.237 106.295V104.568L116.518 103.124H118.349ZM124.076 112.464C123.602 112.461 123.144 112.381 122.704 112.225C122.266 112.069 121.873 111.816 121.525 111.465C121.177 111.114 120.901 110.649 120.697 110.07C120.496 109.491 120.395 108.781 120.395 107.938C120.398 107.164 120.487 106.472 120.661 105.864C120.838 105.252 121.09 104.733 121.417 104.307C121.747 103.881 122.141 103.557 122.6 103.335C123.059 103.11 123.573 102.998 124.143 102.998C124.758 102.998 125.301 103.118 125.772 103.357C126.243 103.594 126.621 103.917 126.906 104.325C127.194 104.733 127.368 105.19 127.428 105.697H125.507C125.432 105.376 125.274 105.124 125.034 104.941C124.794 104.758 124.497 104.667 124.143 104.667C123.543 104.667 123.087 104.928 122.776 105.45C122.467 105.972 122.309 106.681 122.303 107.578H122.366C122.504 107.305 122.69 107.072 122.924 106.88C123.161 106.685 123.429 106.537 123.729 106.435C124.032 106.33 124.352 106.277 124.688 106.277C125.234 106.277 125.719 106.406 126.145 106.664C126.571 106.919 126.907 107.27 127.153 107.717C127.399 108.164 127.522 108.676 127.522 109.251C127.522 109.875 127.377 110.43 127.086 110.916C126.798 111.402 126.394 111.783 125.875 112.059C125.36 112.332 124.76 112.467 124.076 112.464ZM124.067 110.934C124.367 110.934 124.635 110.862 124.872 110.718C125.109 110.574 125.295 110.379 125.43 110.133C125.565 109.887 125.633 109.611 125.633 109.305C125.633 108.999 125.565 108.725 125.43 108.482C125.298 108.239 125.115 108.046 124.881 107.902C124.647 107.758 124.38 107.686 124.08 107.686C123.855 107.686 123.647 107.728 123.455 107.812C123.266 107.896 123.099 108.013 122.955 108.163C122.815 108.313 122.704 108.487 122.623 108.685C122.542 108.879 122.501 109.088 122.501 109.31C122.501 109.607 122.569 109.878 122.704 110.124C122.842 110.37 123.027 110.567 123.261 110.714C123.498 110.861 123.767 110.934 124.067 110.934ZM132.516 112.54C131.742 112.537 131.077 112.347 130.519 111.969C129.964 111.591 129.536 111.044 129.236 110.327C128.939 109.61 128.792 108.748 128.795 107.74C128.795 106.735 128.944 105.879 129.241 105.171C129.541 104.463 129.968 103.924 130.523 103.555C131.081 103.183 131.745 102.998 132.516 102.998C133.287 102.998 133.95 103.183 134.505 103.555C135.063 103.927 135.492 104.467 135.792 105.175C136.092 105.88 136.24 106.735 136.237 107.74C136.237 108.751 136.087 109.614 135.787 110.331C135.49 111.048 135.064 111.596 134.509 111.973C133.955 112.351 133.29 112.54 132.516 112.54ZM132.516 110.925C133.044 110.925 133.466 110.66 133.781 110.129C134.096 109.598 134.252 108.802 134.249 107.74C134.249 107.041 134.177 106.459 134.033 105.994C133.892 105.529 133.691 105.18 133.43 104.946C133.172 104.712 132.867 104.595 132.516 104.595C131.991 104.595 131.571 104.857 131.257 105.382C130.942 105.907 130.783 106.693 130.78 107.74C130.78 108.448 130.85 109.038 130.991 109.512C131.135 109.983 131.338 110.337 131.598 110.574C131.859 110.808 132.165 110.925 132.516 110.925Z" fill="#232325"/>
<rect x="113.594" y="122.838" width="8.44652" height="8.44652" rx="2.11163" fill="#00BEBE"/>
<path d="M132.727 126.873C132.727 127.459 132.616 127.958 132.394 128.369C132.173 128.78 131.872 129.094 131.491 129.311C131.111 129.526 130.684 129.634 130.21 129.634C129.732 129.634 129.304 129.526 128.924 129.309C128.544 129.092 128.244 128.778 128.024 128.366C127.803 127.955 127.693 127.457 127.693 126.873C127.693 126.287 127.803 125.788 128.024 125.377C128.244 124.966 128.544 124.653 128.924 124.437C129.304 124.22 129.732 124.112 130.21 124.112C130.684 124.112 131.111 124.22 131.491 124.437C131.872 124.653 132.173 124.966 132.394 125.377C132.616 125.788 132.727 126.287 132.727 126.873ZM131.575 126.873C131.575 126.493 131.518 126.173 131.404 125.912C131.292 125.652 131.134 125.454 130.929 125.319C130.724 125.185 130.485 125.117 130.21 125.117C129.935 125.117 129.696 125.185 129.491 125.319C129.286 125.454 129.127 125.652 129.013 125.912C128.901 126.173 128.845 126.493 128.845 126.873C128.845 127.253 128.901 127.573 129.013 127.834C129.127 128.094 129.286 128.292 129.491 128.427C129.696 128.561 129.935 128.629 130.21 128.629C130.485 128.629 130.724 128.561 130.929 128.427C131.134 128.292 131.292 128.094 131.404 127.834C131.518 127.573 131.575 127.253 131.575 126.873ZM138.804 124.185V129.561H137.822L135.484 126.178H135.444V129.561H134.308V124.185H135.305L137.625 127.566H137.672V124.185H138.804ZM140.482 129.561V124.185H141.618V128.624H143.922V129.561H140.482ZM146.55 124.185V129.561H145.414V124.185H146.55ZM152.72 124.185V129.561H151.739L149.4 126.178H149.361V129.561H148.225V124.185H149.222L151.542 127.566H151.589V124.185H152.72ZM154.398 129.561V124.185H158.02V125.122H155.535V126.403H157.834V127.34H155.535V128.624H158.031V129.561H154.398Z" fill="#6F727A"/>
<path d="M186.3 102.998C186.773 102.998 187.229 103.077 187.667 103.236C188.108 103.395 188.501 103.648 188.846 103.996C189.194 104.344 189.468 104.806 189.669 105.382C189.873 105.955 189.977 106.658 189.98 107.492C189.98 108.275 189.891 108.974 189.714 109.589C189.54 110.201 189.29 110.721 188.963 111.15C188.636 111.579 188.242 111.906 187.78 112.131C187.318 112.353 186.802 112.464 186.232 112.464C185.617 112.464 185.074 112.345 184.603 112.108C184.132 111.868 183.753 111.543 183.465 111.132C183.18 110.718 183.008 110.253 182.948 109.737H184.869C184.944 110.073 185.101 110.334 185.341 110.52C185.581 110.703 185.878 110.795 186.232 110.795C186.832 110.795 187.288 110.534 187.6 110.012C187.912 109.487 188.069 108.769 188.072 107.857H188.009C187.871 108.127 187.685 108.359 187.451 108.554C187.217 108.746 186.949 108.894 186.646 108.999C186.346 109.104 186.027 109.157 185.688 109.157C185.145 109.157 184.66 109.029 184.234 108.775C183.808 108.52 183.473 108.169 183.227 107.722C182.981 107.275 182.858 106.765 182.858 106.192C182.855 105.574 182.997 105.024 183.285 104.541C183.573 104.058 183.975 103.68 184.491 103.407C185.01 103.131 185.613 102.995 186.3 102.998ZM186.313 104.527C186.01 104.527 185.74 104.599 185.503 104.743C185.269 104.887 185.083 105.081 184.945 105.324C184.81 105.567 184.744 105.838 184.747 106.138C184.747 106.441 184.813 106.714 184.945 106.957C185.08 107.197 185.263 107.389 185.494 107.533C185.728 107.674 185.995 107.744 186.295 107.744C186.52 107.744 186.728 107.702 186.92 107.618C187.112 107.534 187.279 107.419 187.42 107.272C187.564 107.122 187.676 106.949 187.757 106.754C187.838 106.559 187.879 106.352 187.879 106.133C187.876 105.843 187.807 105.576 187.672 105.333C187.537 105.09 187.351 104.895 187.114 104.748C186.877 104.601 186.61 104.527 186.313 104.527ZM194.767 112.464C194.074 112.464 193.458 112.351 192.918 112.126C192.381 111.898 191.96 111.588 191.654 111.195C191.348 110.802 191.195 110.357 191.195 109.859C191.195 109.475 191.282 109.122 191.456 108.802C191.633 108.478 191.873 108.209 192.176 107.996C192.478 107.78 192.817 107.642 193.192 107.582V107.519C192.7 107.42 192.301 107.182 191.996 106.804C191.69 106.423 191.537 105.981 191.537 105.477C191.537 105 191.676 104.575 191.955 104.203C192.234 103.828 192.616 103.534 193.102 103.321C193.591 103.106 194.146 102.998 194.767 102.998C195.388 102.998 195.941 103.106 196.427 103.321C196.916 103.537 197.3 103.833 197.579 104.208C197.858 104.58 197.999 105.003 198.002 105.477C197.999 105.984 197.843 106.426 197.534 106.804C197.225 107.182 196.829 107.42 196.346 107.519V107.582C196.715 107.642 197.05 107.78 197.35 107.996C197.653 108.209 197.893 108.478 198.069 108.802C198.249 109.122 198.341 109.475 198.344 109.859C198.341 110.357 198.186 110.802 197.881 111.195C197.575 111.588 197.152 111.898 196.612 112.126C196.075 112.351 195.46 112.464 194.767 112.464ZM194.767 111.033C195.076 111.033 195.346 110.978 195.577 110.867C195.808 110.753 195.988 110.597 196.117 110.399C196.249 110.198 196.315 109.967 196.315 109.706C196.315 109.439 196.247 109.203 196.112 108.999C195.977 108.793 195.794 108.631 195.563 108.514C195.332 108.394 195.067 108.334 194.767 108.334C194.47 108.334 194.205 108.394 193.971 108.514C193.737 108.631 193.552 108.793 193.417 108.999C193.285 109.203 193.219 109.439 193.219 109.706C193.219 109.967 193.284 110.198 193.413 110.399C193.542 110.597 193.723 110.753 193.957 110.867C194.191 110.978 194.461 111.033 194.767 111.033ZM194.767 106.916C195.025 106.916 195.254 106.864 195.455 106.759C195.656 106.654 195.814 106.508 195.928 106.322C196.042 106.136 196.099 105.922 196.099 105.679C196.099 105.439 196.042 105.229 195.928 105.049C195.814 104.866 195.658 104.724 195.46 104.622C195.262 104.517 195.031 104.464 194.767 104.464C194.506 104.464 194.275 104.517 194.074 104.622C193.873 104.724 193.716 104.866 193.602 105.049C193.491 105.229 193.435 105.439 193.435 105.679C193.435 105.922 193.492 106.136 193.606 106.322C193.72 106.508 193.878 106.654 194.079 106.759C194.28 106.864 194.509 106.916 194.767 106.916Z" fill="#232325"/>
<rect x="182.219" y="122.838" width="8.44652" height="8.44652" rx="2.11163" fill="#F32D2D"/>
<path d="M196.412 129.561V124.185H198.533C198.941 124.185 199.288 124.263 199.575 124.419C199.862 124.573 200.081 124.787 200.231 125.062C200.383 125.335 200.46 125.65 200.46 126.007C200.46 126.364 200.383 126.679 200.229 126.952C200.075 127.225 199.852 127.437 199.559 127.59C199.269 127.742 198.917 127.818 198.504 127.818H197.153V126.907H198.321C198.539 126.907 198.719 126.87 198.861 126.794C199.005 126.717 199.111 126.611 199.181 126.477C199.253 126.34 199.289 126.184 199.289 126.007C199.289 125.828 199.253 125.673 199.181 125.54C199.111 125.405 199.005 125.301 198.861 125.227C198.718 125.152 198.536 125.115 198.315 125.115H197.549V129.561H196.412ZM201.937 129.561V124.185H203.073V126.403H205.38V124.185H206.514V129.561H205.38V127.34H203.073V129.561H201.937ZM207.875 124.185H209.148L210.374 126.5H210.426L211.652 124.185H212.925L210.964 127.66V129.561H209.836V127.66L207.875 124.185ZM217.2 125.731C217.179 125.52 217.089 125.355 216.93 125.238C216.771 125.121 216.555 125.062 216.282 125.062C216.096 125.062 215.94 125.088 215.812 125.141C215.684 125.192 215.586 125.262 215.518 125.353C215.451 125.444 215.418 125.548 215.418 125.663C215.415 125.759 215.435 125.843 215.479 125.915C215.524 125.987 215.586 126.049 215.665 126.101C215.744 126.152 215.835 126.197 215.938 126.235C216.041 126.272 216.151 126.303 216.269 126.33L216.751 126.445C216.986 126.498 217.201 126.568 217.397 126.655C217.593 126.743 217.763 126.85 217.906 126.978C218.05 127.106 218.161 127.256 218.24 127.429C218.32 127.603 218.361 127.801 218.363 128.025C218.361 128.354 218.277 128.639 218.111 128.881C217.947 129.12 217.709 129.307 217.397 129.44C217.087 129.571 216.714 129.637 216.276 129.637C215.843 129.637 215.465 129.57 215.143 129.437C214.822 129.304 214.572 129.107 214.392 128.847C214.214 128.584 214.12 128.26 214.111 127.873H215.211C215.223 128.053 215.275 128.204 215.366 128.324C215.458 128.443 215.582 128.533 215.736 128.595C215.892 128.654 216.067 128.684 216.263 128.684C216.456 128.684 216.623 128.656 216.765 128.6C216.908 128.544 217.019 128.466 217.098 128.366C217.177 128.267 217.216 128.152 217.216 128.023C217.216 127.902 217.18 127.8 217.108 127.718C217.038 127.636 216.935 127.566 216.799 127.508C216.664 127.45 216.499 127.398 216.303 127.351L215.717 127.204C215.264 127.093 214.906 126.921 214.644 126.687C214.382 126.452 214.251 126.136 214.253 125.739C214.251 125.414 214.338 125.129 214.513 124.886C214.689 124.643 214.932 124.453 215.24 124.317C215.548 124.18 215.898 124.112 216.29 124.112C216.688 124.112 217.037 124.18 217.334 124.317C217.633 124.453 217.866 124.643 218.032 124.886C218.198 125.129 218.284 125.411 218.289 125.731H217.2ZM221.003 124.185V129.561H219.866V124.185H221.003ZM227.419 126.067H226.27C226.249 125.919 226.206 125.786 226.141 125.671C226.077 125.554 225.993 125.454 225.892 125.372C225.79 125.29 225.673 125.227 225.54 125.183C225.409 125.139 225.266 125.117 225.112 125.117C224.834 125.117 224.592 125.186 224.385 125.325C224.179 125.461 224.019 125.66 223.905 125.923C223.791 126.184 223.735 126.5 223.735 126.873C223.735 127.256 223.791 127.578 223.905 127.839C224.021 128.1 224.182 128.296 224.388 128.429C224.595 128.562 224.833 128.629 225.105 128.629C225.257 128.629 225.398 128.609 225.527 128.568C225.658 128.528 225.775 128.47 225.876 128.393C225.978 128.314 226.062 128.219 226.128 128.107C226.196 127.995 226.244 127.867 226.27 127.723L227.419 127.729C227.39 127.975 227.315 128.213 227.196 128.442C227.079 128.67 226.921 128.874 226.721 129.054C226.524 129.232 226.287 129.374 226.013 129.479C225.74 129.582 225.431 129.634 225.086 129.634C224.607 129.634 224.178 129.526 223.8 129.309C223.424 129.092 223.127 128.778 222.908 128.366C222.691 127.955 222.582 127.457 222.582 126.873C222.582 126.287 222.693 125.788 222.913 125.377C223.134 124.966 223.433 124.653 223.811 124.437C224.189 124.22 224.614 124.112 225.086 124.112C225.398 124.112 225.686 124.156 225.952 124.243C226.22 124.331 226.457 124.458 226.664 124.626C226.87 124.793 227.038 124.996 227.167 125.238C227.299 125.479 227.383 125.756 227.419 126.067ZM229.799 129.561H228.581L230.437 124.185H231.901L233.754 129.561H232.536L231.19 125.414H231.148L229.799 129.561ZM229.723 127.448H232.599V128.335H229.723V127.448ZM235.14 129.561V124.185H236.276V128.624H238.581V129.561H235.14ZM245.438 125.731C245.417 125.52 245.327 125.355 245.168 125.238C245.008 125.121 244.792 125.062 244.519 125.062C244.334 125.062 244.177 125.088 244.05 125.141C243.922 125.192 243.824 125.262 243.756 125.353C243.689 125.444 243.656 125.548 243.656 125.663C243.652 125.759 243.673 125.843 243.716 125.915C243.762 125.987 243.824 126.049 243.903 126.101C243.981 126.152 244.072 126.197 244.176 126.235C244.279 126.272 244.389 126.303 244.506 126.33L244.989 126.445C245.224 126.498 245.439 126.568 245.635 126.655C245.831 126.743 246 126.85 246.144 126.978C246.287 127.106 246.399 127.256 246.477 127.429C246.558 127.603 246.599 127.801 246.601 128.025C246.599 128.354 246.515 128.639 246.349 128.881C246.184 129.12 245.946 129.307 245.635 129.44C245.325 129.571 244.952 129.637 244.514 129.637C244.08 129.637 243.702 129.57 243.38 129.437C243.06 129.304 242.81 129.107 242.63 128.847C242.451 128.584 242.358 128.26 242.349 127.873H243.449C243.461 128.053 243.512 128.204 243.603 128.324C243.696 128.443 243.819 128.533 243.973 128.595C244.129 128.654 244.305 128.684 244.501 128.684C244.693 128.684 244.861 128.656 245.002 128.6C245.146 128.544 245.257 128.466 245.336 128.366C245.414 128.267 245.454 128.152 245.454 128.023C245.454 127.902 245.418 127.8 245.346 127.718C245.276 127.636 245.173 127.566 245.036 127.508C244.902 127.45 244.736 127.398 244.54 127.351L243.955 127.204C243.502 127.093 243.144 126.921 242.882 126.687C242.619 126.452 242.489 126.136 242.491 125.739C242.489 125.414 242.575 125.129 242.75 124.886C242.927 124.643 243.169 124.453 243.477 124.317C243.785 124.18 244.135 124.112 244.527 124.112C244.926 124.112 245.274 124.18 245.572 124.317C245.871 124.453 246.104 124.643 246.27 124.886C246.436 125.129 246.522 125.411 246.527 125.731H245.438ZM247.899 125.122V124.185H252.314V125.122H250.668V129.561H249.545V125.122H247.899ZM258.474 126.873C258.474 127.459 258.363 127.958 258.141 128.369C257.92 128.78 257.619 129.094 257.238 129.311C256.858 129.526 256.431 129.634 255.957 129.634C255.479 129.634 255.051 129.526 254.671 129.309C254.291 129.092 253.991 128.778 253.771 128.366C253.55 127.955 253.44 127.457 253.44 126.873C253.44 126.287 253.55 125.788 253.771 125.377C253.991 124.966 254.291 124.653 254.671 124.437C255.051 124.22 255.479 124.112 255.957 124.112C256.431 124.112 256.858 124.22 257.238 124.437C257.619 124.653 257.92 124.966 258.141 125.377C258.363 125.788 258.474 126.287 258.474 126.873ZM257.322 126.873C257.322 126.493 257.265 126.173 257.151 125.912C257.039 125.652 256.881 125.454 256.676 125.319C256.471 125.185 256.232 125.117 255.957 125.117C255.682 125.117 255.443 125.185 255.238 125.319C255.033 125.454 254.874 125.652 254.76 125.912C254.648 126.173 254.592 126.493 254.592 126.873C254.592 127.253 254.648 127.573 254.76 127.834C254.874 128.094 255.033 128.292 255.238 128.427C255.443 128.561 255.682 128.629 255.957 128.629C256.232 128.629 256.471 128.561 256.676 128.427C256.881 128.292 257.039 128.094 257.151 127.834C257.265 127.573 257.322 127.253 257.322 126.873ZM260.055 129.561V124.185H262.175C262.581 124.185 262.928 124.258 263.215 124.403C263.503 124.547 263.723 124.751 263.874 125.015C264.026 125.277 264.102 125.586 264.102 125.941C264.102 126.298 264.025 126.605 263.871 126.863C263.717 127.118 263.494 127.314 263.202 127.45C262.911 127.587 262.559 127.655 262.147 127.655H260.727V126.742H261.963C262.18 126.742 262.36 126.712 262.504 126.653C262.647 126.593 262.754 126.504 262.824 126.385C262.895 126.266 262.931 126.118 262.931 125.941C262.931 125.763 262.895 125.612 262.824 125.49C262.754 125.367 262.646 125.275 262.501 125.212C262.357 125.147 262.176 125.115 261.958 125.115H261.191V129.561H260.055ZM262.958 127.114L264.293 129.561H263.039L261.732 127.114H262.958ZM265.644 129.561V124.185H269.266V125.122H266.78V126.403H269.08V127.34H266.78V128.624H269.276V129.561H265.644Z" fill="#6F727A"/>
<defs>
<clipPath id="clip0_1603_12577">
<rect x="14.875" y="65.5527" width="284.014" height="16.893" rx="1.05581" fill="white"/>
</clipPath>
</defs>
</svg>
