<svg width="45" height="46" viewBox="0 0 45 46" fill="none" xmlns="http://www.w3.org/2000/svg">
<path d="M16.5719 31.695L17.8668 31.1199C18.5059 31.4782 19.1824 31.7587 19.8861 31.957L20.3947 33.2784C20.501 33.5547 20.7665 33.737 21.0627 33.737H23.781C24.0771 33.737 24.3425 33.5547 24.4489 33.2783L24.9573 31.9575C25.6614 31.759 26.3383 31.4785 26.9774 31.1201L28.2717 31.695C28.5424 31.8153 28.859 31.7563 29.0683 31.547L30.9905 29.6248C31.1998 29.4154 31.2587 29.0988 31.1385 28.8282L30.5635 27.5333C30.9217 26.8943 31.2022 26.2177 31.4007 25.514L32.722 25.0054C32.9983 24.8991 33.1806 24.6336 33.1806 24.3375V21.6192C33.1806 21.323 32.9982 21.0576 32.722 20.9512L31.4011 20.4428C31.2027 19.7385 30.9221 19.0616 30.5637 18.4227L31.1386 17.1284C31.2589 16.8578 31.2 16.5411 30.9907 16.3318L29.0685 14.4096C28.8592 14.2003 28.5425 14.1414 28.2719 14.2617L26.977 14.8367C26.338 14.4784 25.6614 14.1979 24.9577 13.9995L24.4491 12.6782C24.3427 12.402 24.0773 12.2196 23.7811 12.2196H21.0629C20.7668 12.2196 20.5014 12.402 20.395 12.6782L19.8864 13.9995C19.1827 14.198 18.506 14.4785 17.8671 14.8367L16.5722 14.2617C16.3014 14.1414 15.9849 14.2004 15.7756 14.4096L13.8535 16.3318C13.6442 16.5411 13.5853 16.8578 13.7054 17.1284L14.2804 18.4231C13.9221 19.0622 13.6415 19.7388 13.4431 20.4427L12.122 20.9512C11.8456 21.0575 11.6634 21.323 11.6634 21.6192V24.3376C11.6634 24.6337 11.8457 24.8991 12.122 25.0055L13.4429 25.5139C13.6414 26.2182 13.9219 26.8951 14.2803 27.534L13.7054 28.8283C13.5852 29.0989 13.6441 29.4155 13.8534 29.6249L15.7756 31.547C15.9847 31.7563 16.3013 31.815 16.5719 31.695ZM15.6927 27.1131C15.2534 26.3998 14.9325 25.6258 14.7389 24.8123C14.6843 24.5828 14.52 24.3948 14.2998 24.3101L13.0945 23.8461V22.1107L14.2999 21.6466C14.5202 21.5619 14.6845 21.3739 14.7391 21.1444C14.9325 20.3315 15.2534 19.5576 15.6928 18.8441C15.8165 18.643 15.8333 18.394 15.7375 18.1783L15.2127 16.9966L16.4399 15.7694L17.6217 16.2943C17.8374 16.3901 18.0864 16.3735 18.2874 16.2497C19.001 15.8103 19.7749 15.4894 20.5876 15.296C20.8172 15.2413 21.0051 15.077 21.0899 14.8568L21.554 13.6511H23.2894L23.7536 14.8568C23.8383 15.077 24.0262 15.2413 24.2558 15.296C25.0684 15.4894 25.8424 15.8103 26.556 16.2497C26.7569 16.3734 27.006 16.39 27.2218 16.2943L28.4035 15.7694L29.6307 16.9966L29.1061 18.1778C29.0103 18.3935 29.027 18.6426 29.1508 18.8436C29.5902 19.557 29.9111 20.331 30.1046 21.1445C30.1593 21.374 30.3235 21.562 30.5438 21.6467L31.749 22.1107V23.846L30.5434 24.3102C30.3232 24.3949 30.1589 24.5829 30.1042 24.8123C29.9108 25.625 29.59 26.3989 29.1506 27.1126C29.0269 27.3135 29.0102 27.5626 29.1059 27.7783L29.6308 28.9601L28.4036 30.1873L27.2223 29.6627C27.0066 29.5669 26.7575 29.5836 26.5565 29.7074C25.8429 30.1469 25.0689 30.4677 24.2557 30.6611C24.0262 30.7158 23.8382 30.88 23.7535 31.1004L23.2895 32.3057H21.5541L21.09 31.0999C21.0053 30.8798 20.8174 30.7154 20.5879 30.6609C19.7753 30.4674 19.0013 30.1465 18.2876 29.7072C18.0866 29.5834 17.8375 29.5668 17.6218 29.6625L16.4401 30.1873L15.2129 28.9602L15.7375 27.7789C15.8333 27.5632 15.8165 27.3141 15.6927 27.1131ZM22.4217 28.4348C25.4304 28.4348 27.8782 25.9871 27.8782 22.9784C27.8782 19.9697 25.4304 17.522 22.4217 17.522C19.4131 17.522 16.9654 19.9697 16.9654 22.9784C16.9654 25.9871 19.413 28.4348 22.4217 28.4348ZM22.4217 18.9534C24.6412 18.9534 26.4467 20.759 26.4467 22.9783C26.4467 25.1977 24.6411 27.0033 22.4217 27.0033C20.2024 27.0033 18.3968 25.1978 18.3968 22.9784C18.3968 20.7591 20.2024 18.9534 22.4217 18.9534ZM35.9529 27.6633L35.8617 27.269C35.7725 26.8838 35.3884 26.6437 35.003 26.7331C34.6179 26.8222 34.378 27.2066 34.4671 27.5918L35.0491 30.1066C35.1029 30.3388 35.2686 30.529 35.4912 30.6139C35.5738 30.6455 35.6603 30.6609 35.7463 30.6609C35.892 30.6609 36.0364 30.6165 36.1588 30.5301L38.4904 28.886C38.8135 28.6583 38.8907 28.2117 38.6629 27.8887C38.4351 27.5657 37.9885 27.4883 37.6655 27.7162L37.3768 27.9197C39.1437 22.5574 37.8958 16.5724 34.0517 12.3604L37.8284 8.58359C38.5308 9.08406 39.3886 9.37965 40.3147 9.37965C42.6825 9.37965 44.609 7.4532 44.609 5.08533C44.609 2.71746 42.6825 0.791016 40.3147 0.791016C37.9468 0.791016 36.0204 2.71746 36.0204 5.08533C36.0204 6.01138 36.316 6.86917 36.8165 7.57138L32.5452 11.8427C32.2657 12.1222 32.2657 12.5753 32.5452 12.8548C36.4388 16.7486 37.7235 22.5369 35.9529 27.6633ZM40.3147 2.22245C41.8933 2.22245 43.1775 3.50672 43.1775 5.08533C43.1775 6.66394 41.8933 7.94821 40.3147 7.94821C38.7361 7.94821 37.4518 6.66394 37.4518 5.08533C37.4518 3.50672 38.7361 2.22245 40.3147 2.22245ZM8.89027 18.2921L8.98188 18.6877C9.05846 19.0185 9.35289 19.2422 9.67854 19.2422C9.73195 19.2422 9.78626 19.2362 9.84056 19.2236C10.2256 19.1345 10.4656 18.7499 10.3765 18.3649L9.79431 15.8499C9.74054 15.6178 9.57485 15.4277 9.35226 15.3427C9.12977 15.2578 8.87944 15.2892 8.68459 15.4264L6.35296 17.0707C6.0299 17.2985 5.95269 17.7451 6.18047 18.068C6.40825 18.3911 6.85477 18.4684 7.17782 18.2405L7.46527 18.0378C5.69512 23.4018 6.93824 29.3764 10.7915 33.5964L7.01464 37.373C6.31243 36.8726 5.45473 36.577 4.52868 36.577C2.16082 36.577 0.234375 38.5034 0.234375 40.8713C0.234375 43.2392 2.16091 45.1656 4.52877 45.1656C6.89664 45.1656 8.82308 43.2393 8.82308 40.8714C8.82308 39.9453 8.5274 39.0876 8.02693 38.3853L12.2983 34.114C12.5778 33.8345 12.5778 33.3814 12.2983 33.1018C8.39499 29.1985 7.11556 23.4205 8.89027 18.2921ZM4.52877 43.7342C2.95017 43.7342 1.6659 42.45 1.6659 40.8714C1.6659 39.2928 2.95017 38.0085 4.52877 38.0085C6.10738 38.0085 7.39164 39.2928 7.39164 40.8714C7.39164 42.45 6.10738 43.7342 4.52877 43.7342ZM4.52877 9.37965C5.45482 9.37965 6.31261 9.08406 7.01473 8.5835L11.286 12.8548C11.4258 12.9946 11.6089 13.0644 11.7921 13.0644C11.9754 13.0644 12.1585 12.9946 12.2982 12.8548C16.1929 8.96033 21.98 7.67615 27.1066 9.4471L26.7123 9.53836C26.3271 9.62747 26.0873 10.0119 26.1764 10.397C26.253 10.7279 26.5474 10.9515 26.873 10.9515C26.9265 10.9515 26.9808 10.9456 27.0351 10.9329L29.5499 10.3509C29.7821 10.2971 29.9723 10.1314 30.0572 9.90883C30.1421 9.68624 30.1108 9.43592 29.9734 9.24125L28.3294 6.90952C28.1017 6.58646 27.6551 6.50926 27.3321 6.73703C27.009 6.96481 26.9318 7.41133 27.1596 7.73439L27.3631 8.023C22.0007 6.25589 16.0166 7.50339 11.8038 11.3481L8.02693 7.57138C8.5274 6.86917 8.82308 6.01138 8.82308 5.08533C8.82308 2.71746 6.89664 0.791016 4.52877 0.791016C2.16091 0.791016 0.234464 2.71746 0.234464 5.08533C0.234464 7.4532 2.16091 9.37965 4.52877 9.37965ZM4.52877 2.22245C6.10738 2.22245 7.39164 3.50672 7.39164 5.08533C7.39164 6.66394 6.10738 7.94821 4.52877 7.94821C2.95017 7.94821 1.6659 6.66394 1.6659 5.08533C1.6659 3.50672 2.95017 2.22245 4.52877 2.22245ZM40.3147 36.5771C39.3886 36.5771 38.5309 36.8727 37.8287 37.3731L33.5573 33.1017C33.2778 32.8223 32.8247 32.8223 32.5452 33.1017C28.6639 36.9829 22.8603 38.2758 17.7369 36.5094L18.1312 36.4182C18.5162 36.3291 18.7562 35.9446 18.6671 35.5595C18.5779 35.1744 18.1935 34.9344 17.8084 35.0236L15.2935 35.6058C15.0614 35.6595 14.8713 35.8252 14.7863 36.0478C14.7013 36.2704 14.7327 36.5207 14.87 36.7155L16.5141 39.0471C16.6535 39.2448 16.8748 39.3505 17.0996 39.3505C17.2422 39.3505 17.3861 39.308 17.5115 39.2196C17.8346 38.9918 17.9118 38.5453 17.684 38.2222L17.4819 37.9356C19.9287 38.7447 22.534 38.9403 25.1083 38.4969C28.0871 37.9838 30.8148 36.6444 33.0401 34.6088L36.8167 38.3854C36.3162 39.0876 36.0205 39.9454 36.0205 40.8715C36.0204 43.2393 37.9468 45.1656 40.3147 45.1656C42.6825 45.1656 44.609 43.2393 44.609 40.8714C44.609 38.5035 42.6825 36.5771 40.3147 36.5771ZM40.3147 43.7342C38.7361 43.7342 37.4518 42.45 37.4518 40.8714C37.4518 39.2928 38.7361 38.0085 40.3147 38.0085C41.8933 38.0085 43.1775 39.2928 43.1775 40.8714C43.1775 42.45 41.8933 43.7342 40.3147 43.7342Z" fill="black"/>
</svg>
