<svg width="45" height="45" viewBox="0 0 45 45" fill="none" xmlns="http://www.w3.org/2000/svg">
<g clip-path="url(#clip0_1318_4237)">
<path d="M42.4783 0.849621H19.5976C19.5064 0.849093 19.4159 0.866583 19.3314 0.901088C19.247 0.935592 19.1701 0.986432 19.1053 1.05069L14.2519 5.90417C14.1876 5.96895 14.1368 6.04579 14.1023 6.13026C14.0678 6.21474 14.0503 6.3052 14.0508 6.39645V20.2635H15.4375V7.0898H18.9043C19.272 7.0898 19.6248 6.9437 19.8848 6.68364C20.1449 6.42358 20.291 6.07087 20.291 5.70309V2.23633H42.4783V42.4508H24.4511V43.8375H42.4783C42.846 43.8375 43.1988 43.6914 43.4588 43.4314C43.7189 43.1713 43.865 42.8186 43.865 42.4508V2.23633C43.865 1.86855 43.7189 1.51584 43.4588 1.25578C43.1988 0.99572 42.846 0.849621 42.4783 0.849621ZM18.9043 5.70309H16.4151L18.9043 3.21396V5.70309Z" fill="black"/>
<path d="M36.9335 11.25V7.08984C36.9335 6.90595 36.8604 6.72959 36.7304 6.59956C36.6004 6.46953 36.424 6.39648 36.2401 6.39648H25.1465C24.9626 6.39648 24.7862 6.46953 24.6562 6.59956C24.5262 6.72959 24.4531 6.90595 24.4531 7.08984V11.25C24.4531 11.4338 24.5262 11.6102 24.6562 11.7402C24.7862 11.8703 24.9626 11.9433 25.1465 11.9433H36.2401C36.424 11.9433 36.6004 11.8703 36.7304 11.7402C36.8604 11.6102 36.9335 11.4338 36.9335 11.25ZM35.5468 10.5566H25.8398V7.78319H35.5468V10.5566Z" fill="black"/>
<path d="M24.4531 24.4238C24.4531 24.6077 24.5262 24.784 24.6562 24.9141C24.7862 25.0441 24.9626 25.1171 25.1465 25.1171H36.2401C36.424 25.1171 36.6004 25.0441 36.7304 24.9141C36.8604 24.784 36.9335 24.6077 36.9335 24.4238V20.2637C36.9335 20.0798 36.8604 19.9034 36.7304 19.7734C36.6004 19.6434 36.424 19.5703 36.2401 19.5703H25.1465C24.9626 19.5703 24.7862 19.6434 24.6562 19.7734C24.5262 19.9034 24.4531 20.0798 24.4531 20.2637V24.4238ZM25.8398 20.957H35.5468V23.7304H25.8398V20.957Z" fill="black"/>
<path d="M24.4531 37.5957C24.4531 37.7795 24.5262 37.9559 24.6562 38.0859C24.7862 38.216 24.9626 38.289 25.1465 38.289H36.2401C36.424 38.289 36.6004 38.216 36.7304 38.0859C36.8604 37.9559 36.9335 37.7795 36.9335 37.5957V33.4355C36.9335 33.2517 36.8604 33.0753 36.7304 32.9453C36.6004 32.8152 36.424 32.7422 36.2401 32.7422H25.1465C24.9626 32.7422 24.7862 32.8152 24.6562 32.9453C24.5262 33.0753 24.4531 33.2517 24.4531 33.4355V37.5957ZM25.8398 34.1289H35.5468V36.9023H25.8398V34.1289Z" fill="black"/>
<path d="M30 13.3301V15.4101H28.6133L30.6933 18.1836L32.7734 15.4101H31.3867V13.3301H30Z" fill="black"/>
<path d="M30 26.5039V28.584H28.6133L30.6933 31.3574L32.7734 28.584H31.3867V26.5039H30Z" fill="black"/>
<path d="M1.57226 43.8377H20.9861C21.17 43.8377 21.3464 43.7647 21.4764 43.6346C21.6065 43.5046 21.6795 43.3282 21.6795 43.1444V33.4374C21.6795 33.2535 21.6065 33.0772 21.4764 32.9471C21.3464 32.8171 21.17 32.7441 20.9861 32.7441H16.826V23.7305C16.826 23.5466 16.753 23.3702 16.6229 23.2402C16.4929 23.1102 16.3166 23.0371 16.1327 23.0371H6.42573C6.24184 23.0371 6.06549 23.1102 5.93546 23.2402C5.80543 23.3702 5.73238 23.5466 5.73238 23.7305V32.7441H1.57226C1.38837 32.7441 1.21201 32.8171 1.08198 32.9471C0.951956 33.0772 0.878906 33.2535 0.878906 33.4374V43.1444C0.878906 43.3282 0.951956 43.5046 1.08198 43.6346C1.21201 43.7647 1.38837 43.8377 1.57226 43.8377ZM17.5194 37.5975C17.7033 37.5975 17.8796 37.5245 18.0097 37.3944C18.1397 37.2644 18.2127 37.0881 18.2127 36.9042V34.1308H20.2928V42.451H11.9726V34.1308H14.0526V36.9042C14.0526 37.0881 14.1257 37.2644 14.2557 37.3944C14.3857 37.5245 14.5621 37.5975 14.746 37.5975H17.5194ZM16.826 34.1308V36.2108H15.4393V34.1308H16.826ZM10.5858 24.4238H11.9726V26.5039H10.5858V24.4238ZM7.11908 24.4238H9.19914V27.1972C9.19914 27.3811 9.27219 27.5575 9.40222 27.6875C9.53225 27.8175 9.70861 27.8906 9.8925 27.8906H12.6659C12.8498 27.8906 13.0262 27.8175 13.1562 27.6875C13.2862 27.5575 13.3593 27.3811 13.3593 27.1972V24.4238H15.4393V32.7441H7.11908V24.4238ZM5.73238 34.1308H7.11908V36.2108H5.73238V34.1308ZM2.26561 34.1308H4.34567V36.9042C4.34567 37.0881 4.41872 37.2644 4.54875 37.3944C4.67878 37.5245 4.85514 37.5975 5.03902 37.5975H7.81244C7.99633 37.5975 8.17268 37.5245 8.30271 37.3944C8.43274 37.2644 8.50579 37.0881 8.50579 36.9042V34.1308H10.5858V42.451H2.26561V34.1308Z" fill="black"/>
</g>
<defs>
<clipPath id="clip0_1318_4237">
<rect width="44.3746" height="44.3746" fill="white" transform="translate(0.183594 0.15625)"/>
</clipPath>
</defs>
</svg>
