<svg width="175" height="176" viewBox="0 0 175 176" fill="none" xmlns="http://www.w3.org/2000/svg">
<mask id="mask0_1318_4182" style="mask-type:luminance" maskUnits="userSpaceOnUse" x="0" y="0" width="175" height="176">
<path d="M174.794 0.691406H0.355469V175.13H174.794V0.691406Z" fill="white"/>
</mask>
<g mask="url(#mask0_1318_4182)">
<mask id="mask1_1318_4182" style="mask-type:luminance" maskUnits="userSpaceOnUse" x="0" y="0" width="175" height="176">
<path d="M174.794 0.693359H0.355469V175.131H174.794V0.693359Z" fill="white"/>
</mask>
<g mask="url(#mask1_1318_4182)">
<path d="M158.881 175.131H16.2677C7.47952 175.131 0.355469 168.007 0.355469 159.219V16.6056C0.355469 7.81741 7.47952 0.693359 16.2677 0.693359H158.881C167.67 0.693359 174.794 7.81741 174.794 16.6056V159.219C174.794 168.007 167.67 175.131 158.881 175.131Z" fill="#2A6AB4"/>
<path d="M159.644 73.6901C159.62 72.8109 159.581 71.9282 159.546 71.0456C159.543 70.9584 159.539 70.8712 159.529 70.7874C159.442 70.1455 159.445 69.5001 159.33 68.8616C159.267 68.1325 159.145 67.4103 159.016 66.6881C158.821 65.5647 158.573 64.4518 158.27 63.3529C157.628 61.0224 156.759 58.7826 155.636 56.6405C154.174 53.8599 152.342 51.348 150.165 49.0838C148.595 47.4511 146.875 45.9893 144.998 44.7159C141.475 42.3366 137.609 40.7771 133.454 39.9154C132.864 39.7933 132.271 39.6816 131.675 39.5944C131.249 39.5316 130.823 39.4583 130.398 39.413C129.777 39.3467 129.159 39.256 128.535 39.2351C128.427 39.2316 128.319 39.2141 128.214 39.2071C127.935 39.1862 127.656 39.1618 127.377 39.1513C126.515 39.1199 125.657 39.0955 124.795 39.106C123.741 39.1164 122.688 39.1199 121.638 39.2385C121.488 39.256 121.338 39.2595 121.188 39.2699C121.058 39.2804 120.929 39.2839 120.8 39.3013C120.012 39.406 119.22 39.4967 118.435 39.6293C117.357 39.8107 115.965 40.1142 114.908 40.4073C110.467 41.6318 106.472 43.7111 102.917 46.6417C102.435 47.0394 101.968 47.4511 101.507 47.8697C101.396 47.9709 101.284 48.0756 101.172 48.1768C101.141 48.2047 101.106 48.2361 101.068 48.25C101.033 48.264 100.984 48.264 100.946 48.257C100.9 48.2465 100.876 48.2047 100.872 48.1628C100.865 48.0128 100.855 47.8628 100.855 47.7128C100.855 46.6801 100.855 45.6474 100.855 44.6147C100.855 44.3775 100.845 44.1403 100.838 43.9065C100.827 43.5367 100.754 43.1809 100.646 42.8285C100.122 41.126 98.8245 39.8386 97.1395 39.3223C96.7906 39.2141 96.4312 39.1409 96.0649 39.1234C95.7858 39.113 95.5067 39.1095 95.2276 39.1234C94.8578 39.1374 94.4985 39.2037 94.1496 39.3153C92.5343 39.8281 91.4005 40.8678 90.755 42.4377C90.6399 42.7168 90.5492 43.0064 90.5004 43.303C90.4306 43.7286 90.3643 44.1542 90.3817 44.5868C90.3887 44.7159 90.3817 44.845 90.3817 44.9741V75.0577C90.3817 75.2495 90.3817 75.4449 90.3817 75.6368C90.3852 75.7868 90.3887 75.9403 90.4096 76.0869C90.4655 76.4497 90.4864 76.8125 90.5038 77.1788C90.5108 77.3288 90.5283 77.4789 90.5387 77.6289C90.5631 77.908 90.5911 78.1871 90.6155 78.4662C90.6259 78.5953 90.6294 78.7244 90.6504 78.85C90.7341 79.3384 90.769 79.8303 90.8422 80.3222C90.9364 80.9607 91.0411 81.5956 91.1667 82.2306C91.397 83.3888 91.683 84.5366 92.0249 85.6705C92.8483 88.3813 93.9926 90.9455 95.4823 93.3562C96.9127 95.6763 98.6117 97.78 100.555 99.6883C104.41 103.477 108.938 106.101 114.137 107.576C115.173 107.869 116.22 108.114 117.277 108.313C117.932 108.435 118.588 108.543 119.251 108.627C119.698 108.682 120.148 108.728 120.598 108.784C120.982 108.829 121.369 108.86 121.756 108.881C121.972 108.892 122.185 108.909 122.402 108.923C122.723 108.944 123.047 108.965 123.368 108.975C123.884 108.993 124.401 108.996 124.666 109C125.908 109 126.899 108.993 127.886 108.895C127.97 108.888 128.057 108.881 128.144 108.881C128.79 108.864 129.431 108.773 130.073 108.7C130.778 108.616 131.479 108.508 132.177 108.375C133.3 108.17 134.41 107.911 135.505 107.601C139.144 106.568 142.493 104.942 145.557 102.727C147.957 100.99 150.099 98.9731 152.004 96.7019C154.435 93.8063 156.281 90.5722 157.551 87.0102C158.05 85.6112 158.454 84.1843 158.768 82.7329C158.946 81.9131 159.096 81.0897 159.212 80.2559C159.264 79.8722 159.306 79.4884 159.362 79.1046C159.403 78.8046 159.435 78.5081 159.456 78.208C159.47 78.0161 159.491 77.8208 159.508 77.6289C159.526 77.3917 159.55 77.1579 159.56 76.9207C159.592 76.209 159.62 75.5007 159.641 74.7925C159.651 74.4262 159.658 74.0599 159.648 73.6936M148.648 75.1833C148.641 75.3333 148.623 75.4833 148.62 75.6333C148.585 76.7602 148.25 78.6441 147.999 79.7082C146.408 86.4485 141.223 93.7679 132.09 96.695C131.026 97.0369 129.937 97.295 128.831 97.4765C128.364 97.5532 127.9 97.6369 127.425 97.6579C126.1 97.8253 124.763 97.8009 123.431 97.7521C123.218 97.7451 123.002 97.7172 122.789 97.6962C122.681 97.6858 122.576 97.6683 122.468 97.6614C121.735 97.609 121.017 97.4834 120.298 97.3404C118.648 97.0124 117.05 96.5136 115.504 95.8437C109.197 93.119 104.431 87.8056 102.355 81.4037C102.017 80.3606 101.745 79.3 101.556 78.2185C101.455 77.6254 101.375 77.0288 101.305 76.4288C101.162 75.2077 101.179 73.9831 101.214 72.7551C101.221 72.4969 101.253 72.2422 101.277 71.9841C101.288 71.8759 101.302 71.7713 101.312 71.6631C101.382 70.8258 101.525 70.0025 101.692 69.1791C101.943 67.9545 102.299 66.7614 102.742 65.5961C103.095 64.6716 103.503 63.7715 103.967 62.8958C104.159 62.5365 104.358 62.1806 104.564 61.8248C104.776 61.4515 105.003 61.0852 105.251 60.7328C106.12 59.4978 107.065 58.3291 108.136 57.265C111.129 54.2926 114.66 52.2412 118.731 51.1317C119.541 50.9119 120.361 50.734 121.188 50.6049C121.952 50.4863 122.719 50.3851 123.494 50.3572C123.752 50.3468 124.01 50.3293 124.265 50.3154C124.673 50.2944 125.081 50.2944 125.489 50.3154C125.985 50.3363 126.48 50.3572 126.972 50.3956C127.422 50.4305 127.872 50.4758 128.319 50.5491C128.891 50.6398 129.463 50.741 130.028 50.8666C132.226 51.3515 134.312 52.133 136.29 53.2076C140.896 55.709 145.215 60.063 147.388 66.3637C147.74 67.3789 148.013 68.4186 148.218 69.4756C148.358 70.1943 148.449 70.92 148.55 71.6422C148.56 71.7085 148.564 71.7713 148.567 71.8341C148.599 72.3295 148.634 72.8214 148.658 73.3168C148.672 73.554 148.672 73.7878 148.679 74.1366C148.665 74.4122 148.651 74.7995 148.634 75.1868" fill="white"/>
<path d="M82.0504 98.2662C81.7888 98.1651 81.5236 98.0779 81.248 98.029C80.8015 97.9523 80.3549 97.8964 79.9014 97.9034C78.9315 97.9139 77.9651 97.9069 76.9952 97.9069C76.8033 97.9069 76.608 97.9069 76.4161 97.8999C76.3742 97.8999 76.3254 97.8929 76.2905 97.872C76.2591 97.8511 76.2451 97.8057 76.2242 97.7708C76.2661 97.6697 76.3358 97.5894 76.4091 97.5092C76.8906 96.9894 77.365 96.4591 77.8186 95.9113C80.2153 93.0191 82.0574 89.806 83.3343 86.2719C83.8158 84.9357 84.2065 83.5716 84.517 82.1865C84.6949 81.3876 84.8449 80.5852 84.9636 79.7758C85.0194 79.392 85.0647 79.0083 85.1171 78.6245C85.1554 78.3454 85.1903 78.0698 85.2078 77.7907C85.2182 77.6616 85.2217 77.5325 85.2427 77.4069C85.3055 76.9569 85.3194 76.5068 85.3403 76.0568C85.3543 75.7149 85.3648 75.3695 85.3822 75.0241C85.4136 74.4206 85.4241 73.8205 85.4066 73.2169C85.3822 72.3552 85.3438 71.497 85.3089 70.6353C85.3054 70.548 85.302 70.4608 85.2915 70.3771C85.2078 69.7596 85.1833 69.1351 85.1031 68.5141C84.9635 67.4675 84.9077 67.0488 84.7193 66.0266C84.4926 64.7881 84.2065 63.6333 83.9169 62.639C83.3169 60.5667 82.5179 58.5746 81.5132 56.6663C80.4037 54.566 79.071 52.6158 77.5116 50.8226C74.9892 47.9234 72.0691 45.5022 68.7199 43.6148C65.0811 41.5634 61.1807 40.283 57.0569 39.6446C56.6732 39.5853 56.2894 39.5399 55.9056 39.4841C55.33 39.3969 54.7509 39.355 54.1717 39.2992C53.5089 39.2364 52.839 39.198 52.1762 39.1736C50.3236 39.1003 48.4746 39.1527 46.629 39.2957C46.5872 39.2992 46.5418 39.3027 46.4999 39.3097C45.9452 39.3934 45.3835 39.3969 44.8358 39.505C44.1485 39.5713 43.4717 39.6934 42.7949 39.819C41.4203 40.0737 40.0632 40.4086 38.727 40.8273C35.0777 41.9751 31.7355 43.709 28.7142 46.0534C26.9245 47.4455 25.3022 49.0119 23.8021 50.7074C22.9578 51.6599 22.1763 52.6577 21.4506 53.7008C18.9631 57.2803 17.2746 61.2051 16.364 65.4649C16.2105 66.1801 16.0745 66.8988 15.9663 67.621C15.8651 68.3013 15.764 68.9816 15.7116 69.6689C15.7081 69.7352 15.7012 69.7979 15.6907 69.8607C15.6314 70.2445 15.6174 70.6318 15.5965 71.019C15.579 71.3644 15.5581 71.7063 15.5407 72.0517C15.5267 72.3099 15.5128 72.568 15.5058 72.8262C15.4883 73.8379 15.4883 74.8497 15.5581 75.8579C15.6104 76.608 15.6139 77.3616 15.7186 78.1117C15.743 78.6489 15.8268 79.1827 15.9 79.713C15.9907 80.3724 16.1024 81.0318 16.228 81.6877C16.5245 83.2332 16.9187 84.7508 17.4211 86.237C18.5968 89.7153 20.3238 92.8936 22.6194 95.7578C24.1195 97.6313 25.8081 99.3129 27.6676 100.824C30.1551 102.847 32.8798 104.473 35.8453 105.69C38.9503 106.964 42.1809 107.742 45.5161 108.105C45.6452 108.119 45.7743 108.136 45.8999 108.15C46.1127 108.174 46.329 108.195 46.5418 108.213C46.9709 108.248 47.4 108.272 47.8292 108.314C48.3246 108.363 48.8165 108.38 49.3119 108.38C54.3462 108.38 59.3839 108.38 64.4182 108.38H79.7164C79.9956 108.38 80.2747 108.377 80.5572 108.366C80.8154 108.356 81.0701 108.314 81.3213 108.258C82.6365 107.951 83.6832 107.246 84.4612 106.147C84.967 105.432 85.2601 104.633 85.3648 103.761C85.445 103.088 85.3857 102.428 85.2147 101.779C84.8135 100.234 83.6308 98.8733 82.0504 98.2732M74.2147 74.8811C74.2077 75.1811 74.1903 75.4846 74.1484 75.7812C74.1379 75.8649 74.1275 75.9521 74.1205 76.0393C73.8972 78.5896 73.2553 81.0353 72.2296 83.3797C69.3409 89.9874 63.7868 94.6589 57.4651 96.6335C56.3976 96.9649 55.3126 97.2301 54.2031 97.408C53.46 97.5301 52.7134 97.6243 51.9599 97.6697C51.4017 97.7046 50.8435 97.7499 50.4004 97.7395C49.8108 97.7395 49.3398 97.729 48.8653 97.6836C48.7781 97.6767 48.6944 97.6697 48.6072 97.6627C45.8964 97.4883 43.3008 96.8463 40.8098 95.7718C34.4602 93.0366 29.8132 87.793 27.692 81.6842C27.3257 80.6271 27.0327 79.549 26.8129 78.4501C26.6698 77.7314 26.5756 77.0057 26.4779 76.2836C26.457 76.1335 26.4535 75.9835 26.4431 75.8335C26.4291 75.6207 26.4186 75.4044 26.4012 75.1881C26.3244 74.2636 26.3244 73.339 26.4012 72.4145C26.4082 72.3273 26.4151 72.2436 26.4186 72.1564C26.5093 70.5166 26.8024 68.9118 27.242 67.3314C27.6641 65.8138 28.2363 64.3555 28.948 62.9495C31.9972 56.9593 37.2164 52.8356 42.9658 51.0005C43.9915 50.6726 45.0312 50.4109 46.0918 50.226C46.7511 50.1109 47.4105 50.0271 48.0734 49.9574C49.2561 49.8318 50.4388 49.8457 51.6214 49.8806C51.7924 49.8876 51.9633 49.905 52.1378 49.919C52.2669 49.9295 52.396 49.9504 52.5215 49.9574C53.4007 50.0237 54.2729 50.1702 55.1381 50.3446C56.5127 50.6237 57.8489 51.0249 59.1502 51.5447C65.4335 54.0532 70.2863 59.0386 72.6622 65.2591C73.1541 66.5464 73.5309 67.8687 73.796 69.2223C73.9391 69.9619 74.0647 70.705 74.1135 71.4551C74.26 72.5924 74.2391 73.7333 74.2147 74.8706" fill="white"/>
<path fill-rule="evenodd" clip-rule="evenodd" d="M15.5004 127.91C15.5772 123.155 19.4951 119.363 24.2503 119.44C24.3863 119.436 24.5259 119.433 24.6654 119.44C29.3264 119.523 33.0384 123.368 32.9547 128.029C32.9617 129.833 32.4105 131.594 31.3708 133.063L32.25 133.81C32.6337 134.117 32.857 134.584 32.857 135.076C32.857 135.941 32.1523 136.643 31.2871 136.643C30.8684 136.643 30.4637 136.472 30.1707 136.175L29.1275 135.233C27.6727 136.21 25.9563 136.73 24.2014 136.719C24.0654 136.723 23.9258 136.726 23.7863 136.719C19.1253 136.639 15.4132 132.795 15.4935 128.13V128.123C15.4935 128.053 15.4935 127.984 15.4935 127.91M27.3692 132.683C27.9414 132.264 28.4228 131.734 28.7752 131.12C29.3055 130.195 29.5846 129.145 29.5846 128.081C29.5881 127.998 29.5915 127.914 29.5915 127.827C29.595 124.861 27.1983 122.454 24.2328 122.45C21.2081 122.45 18.9299 124.879 18.9299 128.078C18.8357 131.05 21.1662 133.534 24.1351 133.632C25.2864 133.67 26.4203 133.335 27.3692 132.679V132.683Z" fill="white"/>
<path fill-rule="evenodd" clip-rule="evenodd" d="M44.732 123.565C43.8459 123.558 43.1237 124.269 43.1132 125.155V130.884C43.1132 132.628 42.1294 133.696 40.5315 133.696C38.9337 133.696 38.0964 132.705 38.0964 130.884V125.211C38.0964 124.325 37.3777 123.606 36.4915 123.606C35.6054 123.606 34.8867 124.325 34.8867 125.211V131.774C34.8867 134.812 36.6381 136.7 39.4605 136.7C40.8909 136.724 42.2445 136.065 43.1132 134.927V134.969C43.1132 135.862 43.8389 136.588 44.732 136.588C45.6251 136.588 46.3508 135.862 46.3508 134.969V125.218C46.3613 124.322 45.6426 123.582 44.746 123.571H44.732V123.565Z" fill="white"/>
<path fill-rule="evenodd" clip-rule="evenodd" d="M48.1188 130.137C48.1188 126.296 50.8156 123.48 54.3323 123.48C58.2572 123.48 60.3749 126.704 60.3749 129.757V129.792C60.3714 130.632 59.6911 131.306 58.8503 131.302H51.3843C51.632 132.907 53.0345 134.079 54.6568 134.041C55.6894 134.055 56.6907 133.689 57.4722 133.015C57.706 132.813 58.006 132.705 58.3165 132.712C59.0421 132.712 59.6317 133.301 59.6317 134.027C59.6317 134.404 59.4748 134.763 59.2026 135.025C57.9537 136.155 56.3139 136.759 54.6289 136.713C54.4858 136.717 54.3428 136.717 54.1997 136.713C50.704 136.574 47.9828 133.629 48.1223 130.137M54.3079 126.177C52.7938 126.177 51.6495 127.29 51.339 129.035H57.214C57.0047 127.58 56.1465 126.177 54.3079 126.177Z" fill="white"/>
<path fill-rule="evenodd" clip-rule="evenodd" d="M71.8922 123.565C71.006 123.558 70.2838 124.269 70.2734 125.155C70.2734 125.155 70.2734 125.176 70.2734 125.183V130.884C70.2734 132.628 69.2895 133.696 67.6987 133.696C66.1078 133.696 65.2565 132.705 65.2565 130.884V125.211C65.2565 124.325 64.5378 123.606 63.6517 123.606C62.7656 123.606 62.0469 124.325 62.0469 125.211V131.77C62.0469 134.809 63.7982 136.696 66.6206 136.696C68.051 136.721 69.4047 136.061 70.2734 134.924V134.966C70.2734 135.859 70.999 136.585 71.8922 136.585C72.7853 136.585 73.5109 135.859 73.5109 134.966V125.215C73.5214 124.318 72.8027 123.578 71.9061 123.568H71.8922V123.565Z" fill="white"/>
<path fill-rule="evenodd" clip-rule="evenodd" d="M75.279 130.137C75.279 126.296 77.9688 123.48 81.4855 123.48C85.4104 123.48 87.535 126.704 87.535 129.757V129.792C87.5315 130.632 86.8512 131.306 86.0104 131.302H78.5235C78.7712 132.918 80.1842 134.09 81.8169 134.041C82.8496 134.051 83.8474 133.685 84.6324 133.015C84.8661 132.809 85.1661 132.701 85.4766 132.712C86.2023 132.712 86.7919 133.301 86.7919 134.027C86.7884 134.404 86.6349 134.763 86.3628 135.025C85.1138 136.155 83.4741 136.759 81.789 136.713C81.646 136.717 81.5029 136.717 81.3599 136.713C77.8642 136.574 75.1429 133.629 75.2825 130.137H75.279ZM81.4646 126.177C79.9504 126.177 78.8061 127.29 78.4956 129.035H84.3707C84.1614 127.58 83.3031 126.177 81.4646 126.177Z" fill="white"/>
<path fill-rule="evenodd" clip-rule="evenodd" d="M100.675 127.715C102.001 126.993 102.803 125.58 102.744 124.069C102.765 123.012 102.346 121.993 101.589 121.254C100.379 120.186 98.7947 119.645 97.1829 119.746H91.3078C90.4112 119.739 89.6751 120.458 89.6681 121.358V134.818C89.6576 135.714 90.3763 136.454 91.2729 136.465H97.4166C101.321 136.465 103.651 134.713 103.651 131.744C103.651 129.794 102.702 128.486 100.675 127.711M92.8917 122.653H96.8235C98.5191 122.653 99.4959 123.357 99.4959 124.582C99.4959 126.34 97.6887 126.602 96.6107 126.602H92.8882V122.656L92.8917 122.653ZM92.8917 133.503H97.4376C98.5226 133.503 100.406 133.164 100.406 131.462C100.406 129.759 98.69 129.414 97.2387 129.414H92.8917V133.503Z" fill="white"/>
<path fill-rule="evenodd" clip-rule="evenodd" d="M115.196 123.565C114.31 123.558 113.588 124.269 113.577 125.155V130.884C113.577 132.628 112.583 133.696 110.996 133.696C109.408 133.696 108.553 132.705 108.553 130.884V125.211C108.553 124.325 107.835 123.606 106.949 123.606C106.062 123.606 105.344 124.325 105.344 125.211V131.77C105.344 134.809 107.095 136.696 109.924 136.696C111.355 136.721 112.709 136.061 113.577 134.924V134.966C113.637 135.859 114.408 136.532 115.301 136.473C116.11 136.417 116.755 135.775 116.808 134.966V125.215C116.825 124.322 116.114 123.585 115.217 123.568H115.196V123.565Z" fill="white"/>
<path fill-rule="evenodd" clip-rule="evenodd" d="M124.472 128.782L124.231 128.705C122.944 128.29 121.831 127.931 121.831 127.17C121.831 126.553 122.434 126.152 123.366 126.152C124.353 126.204 125.316 126.483 126.181 126.968C126.38 127.076 126.603 127.132 126.83 127.128C127.563 127.146 128.173 126.563 128.187 125.827V125.789C128.173 125.251 127.859 124.77 127.371 124.543C126.15 123.891 124.793 123.539 123.408 123.518C120.714 123.518 118.827 125.143 118.827 127.516C118.827 129.888 120.889 130.774 122.807 131.322L123.104 131.406C124.35 131.786 125.428 132.11 125.428 132.906C125.428 133.701 124.786 134.04 123.711 134.04C122.473 133.998 121.276 133.593 120.264 132.878C120.048 132.756 119.807 132.693 119.559 132.69C118.83 132.683 118.23 133.269 118.223 133.998V134.026C118.209 134.49 118.443 134.926 118.841 135.167C120.257 136.133 121.925 136.656 123.638 136.67C126.579 136.67 128.4 135.107 128.4 132.553C128.428 130.324 126.523 129.424 124.468 128.782H124.472Z" fill="white"/>
<path fill-rule="evenodd" clip-rule="evenodd" d="M135.814 126.551C136.592 126.53 137.206 125.885 137.185 125.11C137.165 124.36 136.564 123.756 135.814 123.739H133.794V121.838C133.794 120.952 133.072 120.236 132.186 120.236C131.303 120.236 130.585 120.955 130.585 121.838V123.736H130.309C129.531 123.756 128.917 124.402 128.938 125.176C128.959 125.926 129.559 126.53 130.309 126.547H130.585V132.838C130.585 135.364 131.844 136.644 134.321 136.644C135.005 136.651 135.689 136.536 136.334 136.306C137.039 136.044 137.395 135.262 137.133 134.561C136.91 133.965 136.303 133.602 135.671 133.689H135.629C135.459 133.72 135.288 133.734 135.117 133.738C134.203 133.738 133.794 133.323 133.794 132.395V126.551H135.814Z" fill="white"/>
<path fill-rule="evenodd" clip-rule="evenodd" d="M137.876 130.137C137.876 126.296 140.566 123.48 144.082 123.48C148.007 123.48 150.132 126.704 150.132 129.757V129.792C150.129 130.632 149.448 131.306 148.607 131.302H141.121C141.379 132.907 142.788 134.072 144.414 134.02C145.447 134.03 146.444 133.664 147.229 132.994C147.463 132.792 147.763 132.684 148.074 132.691H148.095C148.82 132.701 149.399 133.301 149.389 134.027C149.385 134.404 149.232 134.767 148.96 135.028C147.707 136.159 146.071 136.762 144.386 136.717C144.243 136.72 144.1 136.72 143.957 136.717C140.461 136.581 137.74 133.636 137.876 130.141V130.137ZM144.062 126.177C142.547 126.177 141.403 127.29 141.093 129.035H146.968C146.755 127.58 145.9 126.177 144.062 126.177Z" fill="white"/>
<path fill-rule="evenodd" clip-rule="evenodd" d="M158.064 123.564C156.986 123.564 155.905 124.359 155.151 125.675V125.239C155.151 124.352 154.436 123.634 153.55 123.63C152.664 123.63 151.945 124.346 151.942 125.232V134.962C151.928 135.827 152.622 136.542 153.487 136.553H153.536C154.419 136.556 155.141 135.844 155.148 134.962V131.302C155.148 128.686 156.296 127.081 158.371 126.686C159.128 126.571 159.68 125.908 159.652 125.144C159.697 124.314 159.059 123.606 158.228 123.561C158.173 123.561 158.117 123.561 158.061 123.561L158.064 123.564Z" fill="white"/>
</g>
</g>
</svg>
