<svg width="50" height="45" viewBox="0 0 50 45" fill="none" xmlns="http://www.w3.org/2000/svg">
<path d="M48.7336 10.7216H0.837182C0.718985 10.7216 0.602689 10.6919 0.499005 10.6351C0.395322 10.5784 0.307586 10.4965 0.24388 10.3969C0.180174 10.2974 0.142545 10.1834 0.134462 10.0655C0.126378 9.94753 0.148099 9.82947 0.197623 9.72215L4.42378 0.565483C4.48016 0.443306 4.57035 0.339835 4.6837 0.267312C4.79704 0.194789 4.92878 0.156248 5.06334 0.15625H44.5075C44.642 0.156248 44.7738 0.194789 44.8871 0.267312C45.0004 0.339835 45.0906 0.443306 45.147 0.565483L49.3732 9.72215C49.4227 9.82947 49.4444 9.94753 49.4363 10.0655C49.4282 10.1834 49.3906 10.2974 49.3269 10.3969C49.2632 10.4965 49.1755 10.5784 49.0718 10.6351C48.9681 10.6919 48.8518 10.7216 48.7336 10.7216ZM1.9381 9.31292H47.6327L44.0567 1.56497H5.51413L1.9381 9.31292Z" fill="black"/>
<path d="M4.25824 19.1735C3.16451 19.1722 2.11595 18.7372 1.34256 17.9638C0.569179 17.1904 0.134117 16.1418 0.132812 15.0481V10.0169C0.132812 9.83005 0.207022 9.65089 0.339114 9.5188C0.471207 9.38671 0.650364 9.3125 0.837172 9.3125H7.67932C7.86612 9.3125 8.04528 9.38671 8.17737 9.5188C8.30947 9.65089 8.38368 9.83005 8.38368 10.0169V15.0481C8.38237 16.1418 7.94731 17.1904 7.17392 17.9638C6.40054 18.7372 5.35198 19.1722 4.25824 19.1735ZM1.54153 10.7212V15.0481C1.54153 15.7686 1.82776 16.4596 2.33724 16.9691C2.84672 17.4786 3.53773 17.7648 4.25824 17.7648C4.97876 17.7648 5.66977 17.4786 6.17925 16.9691C6.68873 16.4596 6.97496 15.7686 6.97496 15.0481V10.7212H1.54153Z" fill="black"/>
<path d="M11.0981 19.1735C10.0044 19.1722 8.95579 18.7372 8.18241 17.9638C7.40902 17.1904 6.97396 16.1418 6.97266 15.0481V10.0169C6.97266 9.83005 7.04687 9.65089 7.17896 9.5188C7.31105 9.38671 7.49021 9.3125 7.67702 9.3125H14.5192C14.706 9.3125 14.8851 9.38671 15.0172 9.5188C15.1493 9.65089 15.2235 9.83005 15.2235 10.0169V15.0481C15.2222 16.1418 14.7872 17.1904 14.0138 17.9638C13.2404 18.7372 12.1918 19.1722 11.0981 19.1735ZM8.38137 10.7212V15.0481C8.38137 15.7686 8.6676 16.4596 9.17708 16.9691C9.68656 17.4786 10.3776 17.7648 11.0981 17.7648C11.8186 17.7648 12.5096 17.4786 13.0191 16.9691C13.5286 16.4596 13.8148 15.7686 13.8148 15.0481V10.7212H8.38137Z" fill="black"/>
<path d="M17.9418 19.1735C16.8481 19.1722 15.7995 18.7372 15.0262 17.9638C14.2528 17.1904 13.8177 16.1418 13.8164 15.0481V10.0169C13.8164 9.83005 13.8906 9.65089 14.0227 9.5188C14.1548 9.38671 14.334 9.3125 14.5208 9.3125H21.3629C21.5497 9.3125 21.7289 9.38671 21.861 9.5188C21.9931 9.65089 22.0673 9.83005 22.0673 10.0169V15.0481C22.066 16.1418 21.6309 17.1904 20.8575 17.9638C20.0841 18.7372 19.0356 19.1722 17.9418 19.1735ZM15.2251 10.7212V15.0481C15.2251 15.7686 15.5113 16.4596 16.0208 16.9691C16.5303 17.4786 17.2213 17.7648 17.9418 17.7648C18.6624 17.7648 19.3534 17.4786 19.8628 16.9691C20.3723 16.4596 20.6586 15.7686 20.6586 15.0481V10.7212H15.2251Z" fill="black"/>
<path d="M24.7856 19.1735C23.6919 19.1722 22.6433 18.7372 21.8699 17.9638C21.0965 17.1904 20.6615 16.1418 20.6602 15.0481V10.0169C20.6602 9.83005 20.7344 9.65089 20.8665 9.5188C20.9986 9.38671 21.1777 9.3125 21.3645 9.3125H28.2067C28.3935 9.3125 28.5726 9.38671 28.7047 9.5188C28.8368 9.65089 28.911 9.83005 28.911 10.0169V15.0481C28.9097 16.1418 28.4747 17.1904 27.7013 17.9638C26.9279 18.7372 25.8793 19.1722 24.7856 19.1735ZM22.0689 10.7212V15.0481C22.0689 15.7686 22.3551 16.4596 22.8646 16.9691C23.3741 17.4786 24.0651 17.7648 24.7856 17.7648C25.5061 17.7648 26.1971 17.4786 26.7066 16.9691C27.2161 16.4596 27.5023 15.7686 27.5023 15.0481V10.7212H22.0689Z" fill="black"/>
<path d="M31.6293 19.1735C30.5356 19.1722 29.487 18.7372 28.7137 17.9638C27.9403 17.1904 27.5052 16.1418 27.5039 15.0481V10.0169C27.5039 9.83005 27.5781 9.65089 27.7102 9.5188C27.8423 9.38671 28.0215 9.3125 28.2083 9.3125H35.0504C35.2372 9.3125 35.4164 9.38671 35.5485 9.5188C35.6806 9.65089 35.7548 9.83005 35.7548 10.0169V15.0481C35.7535 16.1418 35.3184 17.1904 34.545 17.9638C33.7716 18.7372 32.7231 19.1722 31.6293 19.1735ZM28.9126 10.7212V15.0481C28.9126 15.7686 29.1989 16.4596 29.7083 16.9691C30.2178 17.4786 30.9088 17.7648 31.6293 17.7648C32.3499 17.7648 33.0409 17.4786 33.5503 16.9691C34.0598 16.4596 34.3461 15.7686 34.3461 15.0481V10.7212H28.9126Z" fill="black"/>
<path d="M38.4731 19.1735C37.3794 19.1722 36.3308 18.7372 35.5574 17.9638C34.784 17.1904 34.349 16.1418 34.3477 15.0481V10.0169C34.3477 9.83005 34.4219 9.65089 34.554 9.5188C34.6861 9.38671 34.8652 9.3125 35.052 9.3125H41.8942C42.081 9.3125 42.2601 9.38671 42.3922 9.5188C42.5243 9.65089 42.5985 9.83005 42.5985 10.0169V15.0481C42.5972 16.1418 42.1622 17.1904 41.3888 17.9638C40.6154 18.7372 39.5668 19.1722 38.4731 19.1735ZM35.7557 10.7212V15.0481C35.7557 15.7686 36.0419 16.4596 36.5514 16.9691C37.0609 17.4786 37.7519 17.7648 38.4724 17.7648C39.1929 17.7648 39.8839 17.4786 40.3934 16.9691C40.9029 16.4596 41.1891 15.7686 41.1891 15.0481V10.7212H35.7557Z" fill="black"/>
<path d="M45.3129 19.1735C44.2192 19.1722 43.1706 18.7372 42.3973 17.9638C41.6239 17.1904 41.1888 16.1418 41.1875 15.0481V10.0169C41.1875 9.83005 41.2617 9.65089 41.3938 9.5188C41.5259 9.38671 41.7051 9.3125 41.8919 9.3125H48.734C48.9208 9.3125 49.1 9.38671 49.2321 9.5188C49.3642 9.65089 49.4384 9.83005 49.4384 10.0169V15.0481C49.4371 16.1418 49.002 17.1904 48.2286 17.9638C47.4552 18.7372 46.4067 19.1722 45.3129 19.1735ZM42.5962 10.7212V15.0481C42.5962 15.7686 42.8824 16.4596 43.3919 16.9691C43.9014 17.4786 44.5924 17.7648 45.3129 17.7648C46.0334 17.7648 46.7245 17.4786 47.2339 16.9691C47.7434 16.4596 48.0296 15.7686 48.0296 15.0481V10.7212H42.5962Z" fill="black"/>
<path d="M46.6216 44.5313H2.88795C2.70115 44.5313 2.52199 44.4571 2.3899 44.325C2.2578 44.1929 2.18359 44.0137 2.18359 43.8269V17.7656H3.59231V43.1226H45.9173V17.7656H47.326V43.8269C47.326 44.0137 47.2518 44.1929 47.1197 44.325C46.9876 44.4571 46.8084 44.5313 46.6216 44.5313Z" fill="black"/>
<path d="M40.9832 44.5312H29.009C28.8222 44.5312 28.6431 44.457 28.511 44.3249C28.3789 44.1928 28.3047 44.0136 28.3047 43.8268V24.1047C28.3047 23.9179 28.3789 23.7388 28.511 23.6067C28.6431 23.4746 28.8222 23.4004 29.009 23.4004H40.9832C41.17 23.4004 41.3491 23.4746 41.4812 23.6067C41.6133 23.7388 41.6875 23.9179 41.6875 24.1047V43.8268C41.6875 44.0136 41.6133 44.1928 41.4812 44.3249C41.3491 44.457 41.17 44.5312 40.9832 44.5312ZM29.7134 43.1224H40.2788V24.8091H29.7134V43.1224Z" fill="black"/>
<path d="M24.786 38.5428H7.17702C6.99021 38.5428 6.81105 38.4686 6.67896 38.3365C6.54687 38.2044 6.47266 38.0252 6.47266 37.8384V23.7512C6.47266 23.5644 6.54687 23.3853 6.67896 23.2532C6.81105 23.1211 6.99021 23.0469 7.17702 23.0469H24.786C24.9728 23.0469 25.152 23.1211 25.2841 23.2532C25.4161 23.3853 25.4904 23.5644 25.4904 23.7512V37.8384C25.4904 38.0252 25.4161 38.2044 25.2841 38.3365C25.152 38.4686 24.9728 38.5428 24.786 38.5428ZM7.88137 37.1341H24.0816V24.4556H7.88137V37.1341Z" fill="black"/>
</svg>
