<svg width="45" height="46" viewBox="0 0 45 46" fill="none" xmlns="http://www.w3.org/2000/svg">
<path fill-rule="evenodd" clip-rule="evenodd" d="M35.0621 30.3871V24.8839L30.2983 27.6358V33.139L35.0621 30.3871ZM24.366 30.3871L29.1347 33.1389V27.6357L24.366 24.8838V30.3871ZM29.7165 21.1256L34.4803 23.877L29.7165 26.6288L24.9477 23.877L29.7165 21.1256ZM36.2257 23.8769V30.7226C36.2257 30.9305 36.1163 31.1229 35.9323 31.2268L30.0049 34.649C29.8231 34.7545 29.6028 34.7533 29.4232 34.649L23.4958 31.2268C23.3168 31.1229 23.2024 30.9305 23.2024 30.7226V23.8769C23.2024 23.669 23.3168 23.4776 23.4958 23.3737L29.4232 19.95C29.6022 19.8461 29.8259 19.8461 30.0049 19.95L35.9323 23.3737C36.1163 23.4776 36.2257 23.669 36.2257 23.8769ZM14.7788 21.1256L10.015 23.877L14.7788 26.6288L19.5426 23.877L14.7788 21.1256ZM20.1244 30.3871L15.3606 33.1389V27.6357L20.1244 24.8838V30.3871ZM9.43322 30.3871V24.8839L14.197 27.6358V33.139L9.43322 30.3871ZM8.26963 30.7227V23.8769C8.26963 23.669 8.37905 23.4776 8.55806 23.3737L14.4904 19.95C14.6694 19.8461 14.8882 19.8461 15.0722 19.95L20.9995 23.3737C21.1786 23.4776 21.288 23.669 21.288 23.8769V30.7226C21.288 30.9305 21.1786 31.1229 20.9995 31.2268L15.0722 34.649C14.8922 34.7534 14.6712 34.7539 14.4904 34.649L8.55806 31.2268C8.37905 31.123 8.26963 30.9306 8.26963 30.7227ZM22.2476 8.24743L17.4838 10.9983L22.2476 13.7501L27.0114 10.9983L22.2476 8.24743ZM27.5933 17.5085V12.0058L22.8295 14.7576V20.2603L27.5933 17.5085ZM16.9021 17.5085L21.6659 20.2603V14.7576L16.9021 12.0058V17.5085ZM16.0269 18.3483L21.9543 21.7709C22.1376 21.874 22.3547 21.8757 22.5361 21.7709L28.4684 18.3483C28.6474 18.2444 28.7568 18.052 28.7568 17.8446V10.9983C28.7568 10.7914 28.6474 10.599 28.4684 10.4951L22.5361 7.07248C22.3571 6.96855 22.1383 6.96855 21.9543 7.07248L16.0269 10.4951C15.8479 10.599 15.7385 10.7914 15.7385 10.9983V17.8446C15.7385 18.052 15.8479 18.2444 16.0269 18.3483ZM34.3013 37.5446L34.2764 37.7455L33.0034 41.5347C32.9189 41.7773 32.6951 41.931 32.4515 41.931C32.0572 41.931 31.7755 41.5394 31.8995 41.1642L32.6007 39.0722C25.0727 43.9091 15.0914 42.8947 8.67743 36.4815C1.81516 29.6203 1.15389 18.6989 7.13594 11.0774C7.33483 10.8248 7.70287 10.7805 7.95643 10.979C8.20511 11.1778 8.24984 11.5429 8.05086 11.7954C2.43179 18.9545 3.05339 29.214 9.49792 35.659C15.5993 41.7605 25.1169 42.6426 32.188 37.9524L29.6868 37.6297C29.3685 37.589 29.1448 37.2971 29.1845 36.9793C29.2243 36.6605 29.5177 36.4348 29.8359 36.4766L33.7942 36.9858V36.9863C33.991 37.0255 33.9865 37.0421 34.1273 37.1454L34.1721 37.1932L34.182 37.2041C34.2495 37.3155 34.3013 37.396 34.3013 37.5446ZM37.3544 34.7455C37.1552 34.9994 36.794 35.0406 36.5389 34.844C36.2854 34.6455 36.2405 34.2796 36.4394 34.0265C42.0635 26.8684 41.4419 16.6095 34.9924 10.1634C28.8959 4.06202 19.3734 3.17941 12.3023 7.8706L14.8085 8.19232C15.1267 8.23359 15.3505 8.52495 15.3107 8.84374C15.269 9.16359 14.9715 9.38803 14.6593 9.34597L10.6961 8.83575C10.5823 8.80691 10.5138 8.79998 10.4027 8.70893C10.3928 8.69952 10.3828 8.68851 10.3679 8.67857L10.3182 8.62035C10.2768 8.6121 10.1889 8.38765 10.1889 8.25631L10.2187 8.07428L11.4918 4.28815C11.5912 3.9833 11.9244 3.81876 12.2278 3.92117C12.5311 4.02359 12.6952 4.35329 12.5957 4.65806L11.8946 6.74908C19.3982 1.92565 29.3882 2.91174 35.8178 9.34029C42.6802 16.2022 43.3415 27.124 37.3544 34.7455Z" fill="black"/>
</svg>
