<svg width="541" height="136" viewBox="0 0 541 136" fill="none" xmlns="http://www.w3.org/2000/svg">
<rect width="541" height="136" rx="12" fill="white"/>
<path d="M27.3239 33.7102C27.2784 33.2519 27.0833 32.8958 26.7386 32.642C26.3939 32.3883 25.9261 32.2614 25.3352 32.2614C24.9337 32.2614 24.5947 32.3182 24.3182 32.4318C24.0417 32.5417 23.8295 32.6951 23.6818 32.892C23.5379 33.089 23.4659 33.3125 23.4659 33.5625C23.4583 33.7708 23.5019 33.9527 23.5966 34.108C23.6951 34.2633 23.8295 34.3977 24 34.5114C24.1705 34.6212 24.3674 34.7178 24.5909 34.8011C24.8144 34.8807 25.053 34.9489 25.3068 35.0057L26.3523 35.2557C26.8598 35.3693 27.3258 35.5208 27.75 35.7102C28.1742 35.8996 28.5417 36.1326 28.8523 36.4091C29.1629 36.6856 29.4034 37.0114 29.5739 37.3864C29.7481 37.7614 29.8371 38.1913 29.8409 38.6761C29.8371 39.3883 29.6553 40.0057 29.2955 40.5284C28.9394 41.0473 28.4242 41.4508 27.75 41.7386C27.0795 42.0227 26.2708 42.1648 25.3239 42.1648C24.3845 42.1648 23.5663 42.0208 22.8693 41.733C22.1761 41.4451 21.6345 41.0189 21.2443 40.4545C20.858 39.8864 20.6553 39.1837 20.6364 38.3466H23.017C23.0436 38.7367 23.1553 39.0625 23.3523 39.3239C23.553 39.5814 23.8201 39.7765 24.1534 39.9091C24.4905 40.0379 24.8712 40.1023 25.2955 40.1023C25.7121 40.1023 26.0739 40.0417 26.3807 39.9205C26.6913 39.7992 26.9318 39.6307 27.1023 39.4148C27.2727 39.1989 27.358 38.9508 27.358 38.6705C27.358 38.4091 27.2803 38.1894 27.125 38.0114C26.9735 37.8333 26.75 37.6818 26.4545 37.5568C26.1629 37.4318 25.8049 37.3182 25.3807 37.2159L24.1136 36.8977C23.1326 36.6591 22.358 36.286 21.7898 35.7784C21.2216 35.2708 20.9394 34.5871 20.9432 33.7273C20.9394 33.0227 21.1269 32.4072 21.5057 31.8807C21.8883 31.3542 22.4129 30.9432 23.0795 30.6477C23.7462 30.3523 24.5038 30.2045 25.3523 30.2045C26.2159 30.2045 26.9697 30.3523 27.6136 30.6477C28.2614 30.9432 28.7652 31.3542 29.125 31.8807C29.4848 32.4072 29.6705 33.017 29.6818 33.7102H27.3239ZM36.0923 33.2727V35.0909H30.8366V33.2727H36.0923ZM32.0298 31.1818H34.4503V39.3182C34.4503 39.5417 34.4844 39.7159 34.5526 39.8409C34.6207 39.9621 34.7154 40.0473 34.8366 40.0966C34.9616 40.1458 35.1056 40.1705 35.2685 40.1705C35.3821 40.1705 35.4957 40.161 35.6094 40.142C35.723 40.1193 35.8101 40.1023 35.8707 40.0909L36.2514 41.892C36.1302 41.9299 35.9598 41.9735 35.7401 42.0227C35.5204 42.0758 35.2533 42.108 34.9389 42.1193C34.3556 42.142 33.8442 42.0644 33.4048 41.8864C32.9692 41.7083 32.6302 41.4318 32.3878 41.0568C32.1454 40.6818 32.026 40.2083 32.0298 39.6364V31.1818ZM41.5185 42.1705C40.6359 42.1705 39.8726 41.983 39.2287 41.608C38.5885 41.2292 38.0942 40.7027 37.7457 40.0284C37.3973 39.3504 37.223 38.5644 37.223 37.6705C37.223 36.7689 37.3973 35.9811 37.7457 35.3068C38.0942 34.6288 38.5885 34.1023 39.2287 33.7273C39.8726 33.3485 40.6359 33.1591 41.5185 33.1591C42.401 33.1591 43.1624 33.3485 43.8026 33.7273C44.4465 34.1023 44.9427 34.6288 45.2912 35.3068C45.6397 35.9811 45.8139 36.7689 45.8139 37.6705C45.8139 38.5644 45.6397 39.3504 45.2912 40.0284C44.9427 40.7027 44.4465 41.2292 43.8026 41.608C43.1624 41.983 42.401 42.1705 41.5185 42.1705ZM41.5298 40.2955C41.9313 40.2955 42.2666 40.1818 42.5355 39.9545C42.8045 39.7235 43.0071 39.4091 43.1435 39.0114C43.2836 38.6136 43.3537 38.161 43.3537 37.6534C43.3537 37.1458 43.2836 36.6932 43.1435 36.2955C43.0071 35.8977 42.8045 35.5833 42.5355 35.3523C42.2666 35.1212 41.9313 35.0057 41.5298 35.0057C41.1245 35.0057 40.7836 35.1212 40.5071 35.3523C40.2344 35.5833 40.0279 35.8977 39.8878 36.2955C39.7514 36.6932 39.6832 37.1458 39.6832 37.6534C39.6832 38.161 39.7514 38.6136 39.8878 39.0114C40.0279 39.4091 40.2344 39.7235 40.5071 39.9545C40.7836 40.1818 41.1245 40.2955 41.5298 40.2955ZM51.331 42.1705C50.437 42.1705 49.6681 41.9811 49.0241 41.6023C48.384 41.2197 47.8916 40.6894 47.5469 40.0114C47.206 39.3333 47.0355 38.553 47.0355 37.6705C47.0355 36.7765 47.2079 35.9924 47.5526 35.3182C47.901 34.6402 48.3954 34.1117 49.0355 33.733C49.6757 33.3504 50.437 33.1591 51.3196 33.1591C52.081 33.1591 52.7476 33.2973 53.3196 33.5739C53.8916 33.8504 54.3442 34.2386 54.6776 34.7386C55.0109 35.2386 55.1946 35.8258 55.2287 36.5H52.9446C52.8802 36.0644 52.7098 35.714 52.4332 35.4489C52.1605 35.1799 51.8026 35.0455 51.3594 35.0455C50.9844 35.0455 50.6567 35.1477 50.3764 35.3523C50.0999 35.553 49.884 35.8466 49.7287 36.233C49.5734 36.6193 49.4957 37.0871 49.4957 37.6364C49.4957 38.1932 49.5715 38.6667 49.723 39.0568C49.8783 39.447 50.0961 39.7443 50.3764 39.9489C50.6567 40.1534 50.9844 40.2557 51.3594 40.2557C51.6359 40.2557 51.884 40.1989 52.1037 40.0852C52.3272 39.9716 52.5109 39.8068 52.6548 39.5909C52.8026 39.3712 52.8991 39.108 52.9446 38.8011H55.2287C55.1908 39.4678 55.009 40.0549 54.6832 40.5625C54.3613 41.0663 53.9162 41.4602 53.348 41.7443C52.7798 42.0284 52.1075 42.1705 51.331 42.1705ZM58.9716 39.4886L58.9773 36.5852H59.3295L62.125 33.2727H64.9034L61.1477 37.6591H60.5739L58.9716 39.4886ZM56.7784 42V30.3636H59.1989V42H56.7784ZM62.233 42L59.6648 38.1989L61.2784 36.4886L65.0682 42H62.233ZM69.3963 32.392V30.3636H78.9531V32.392H75.3906V42H72.9588V32.392H69.3963ZM79.5753 42V33.2727H81.9219V34.7955H82.0128C82.1719 34.2538 82.4389 33.8447 82.8139 33.5682C83.1889 33.2879 83.6207 33.1477 84.1094 33.1477C84.2306 33.1477 84.3613 33.1553 84.5014 33.1705C84.6416 33.1856 84.7647 33.2064 84.8707 33.233V35.3807C84.7571 35.3466 84.5999 35.3163 84.3991 35.2898C84.1984 35.2633 84.0147 35.25 83.848 35.25C83.492 35.25 83.1738 35.3277 82.8935 35.483C82.617 35.6345 82.3973 35.8466 82.2344 36.1193C82.0753 36.392 81.9957 36.7064 81.9957 37.0625V42H79.5753ZM88.3608 42.1648C87.804 42.1648 87.3078 42.0682 86.8722 41.875C86.4366 41.678 86.0919 41.3883 85.8381 41.0057C85.5881 40.6193 85.4631 40.1383 85.4631 39.5625C85.4631 39.0777 85.5521 38.6705 85.7301 38.3409C85.9081 38.0114 86.1506 37.7462 86.4574 37.5455C86.7642 37.3447 87.1127 37.1932 87.5028 37.0909C87.8968 36.9886 88.3097 36.9167 88.7415 36.875C89.2491 36.822 89.6581 36.7727 89.9688 36.7273C90.2794 36.678 90.5047 36.6061 90.6449 36.5114C90.785 36.4167 90.8551 36.2765 90.8551 36.0909V36.0568C90.8551 35.697 90.7415 35.4186 90.5142 35.2216C90.2907 35.0246 89.9725 34.9261 89.5597 34.9261C89.1241 34.9261 88.7775 35.0227 88.5199 35.2159C88.2623 35.4053 88.0919 35.6439 88.0085 35.9318L85.7699 35.75C85.8835 35.2197 86.107 34.7614 86.4403 34.375C86.7737 33.9848 87.2036 33.6856 87.7301 33.4773C88.2604 33.2652 88.8741 33.1591 89.571 33.1591C90.0559 33.1591 90.5199 33.2159 90.9631 33.3295C91.41 33.4432 91.8059 33.6193 92.1506 33.858C92.4991 34.0966 92.7737 34.4034 92.9744 34.7784C93.1752 35.1496 93.2756 35.5947 93.2756 36.1136V42H90.9801V40.7898H90.9119C90.7718 41.0625 90.5843 41.303 90.3494 41.5114C90.1146 41.7159 89.8324 41.8769 89.5028 41.9943C89.1733 42.108 88.7926 42.1648 88.3608 42.1648ZM89.054 40.4943C89.41 40.4943 89.7244 40.4242 89.9972 40.2841C90.2699 40.1402 90.4839 39.947 90.6392 39.7045C90.7945 39.4621 90.8722 39.1875 90.8722 38.8807V37.9545C90.7964 38.0038 90.6922 38.0492 90.5597 38.0909C90.4309 38.1288 90.285 38.1648 90.1222 38.1989C89.9593 38.2292 89.7964 38.2576 89.6335 38.2841C89.4706 38.3068 89.3229 38.3277 89.1903 38.3466C88.9063 38.3883 88.6581 38.4545 88.446 38.5455C88.2339 38.6364 88.0691 38.7595 87.9517 38.9148C87.8343 39.0663 87.7756 39.2557 87.7756 39.483C87.7756 39.8125 87.8949 40.0644 88.1335 40.2386C88.3759 40.4091 88.6828 40.4943 89.054 40.4943ZM97.5739 36.9545V42H95.1534V33.2727H97.4602V34.8125H97.5625C97.7557 34.3049 98.0795 33.9034 98.5341 33.608C98.9886 33.3087 99.5398 33.1591 100.188 33.1591C100.794 33.1591 101.322 33.2917 101.773 33.5568C102.223 33.822 102.574 34.2008 102.824 34.6932C103.074 35.1818 103.199 35.7652 103.199 36.4432V42H100.778V36.875C100.782 36.3409 100.646 35.9242 100.369 35.625C100.093 35.322 99.7121 35.1705 99.2273 35.1705C98.9015 35.1705 98.6136 35.2405 98.3636 35.3807C98.1174 35.5208 97.9242 35.7254 97.7841 35.9943C97.6477 36.2595 97.5777 36.5795 97.5739 36.9545ZM112.368 35.7614L110.152 35.8977C110.114 35.7083 110.033 35.5379 109.908 35.3864C109.783 35.2311 109.618 35.108 109.413 35.017C109.213 34.9223 108.972 34.875 108.692 34.875C108.317 34.875 108 34.9545 107.743 35.1136C107.485 35.2689 107.357 35.4773 107.357 35.7386C107.357 35.947 107.44 36.1231 107.607 36.267C107.773 36.411 108.059 36.5265 108.464 36.6136L110.044 36.9318C110.893 37.1061 111.525 37.3864 111.942 37.7727C112.358 38.1591 112.567 38.6667 112.567 39.2955C112.567 39.8674 112.398 40.3693 112.061 40.8011C111.728 41.233 111.269 41.5701 110.686 41.8125C110.107 42.0511 109.438 42.1705 108.68 42.1705C107.525 42.1705 106.605 41.9299 105.919 41.4489C105.237 40.964 104.838 40.3049 104.72 39.4716L107.101 39.3466C107.173 39.6989 107.347 39.9678 107.624 40.1534C107.9 40.3352 108.254 40.4261 108.686 40.4261C109.11 40.4261 109.451 40.3447 109.709 40.1818C109.97 40.0152 110.103 39.8011 110.107 39.5398C110.103 39.3201 110.01 39.1402 109.828 39C109.646 38.8561 109.366 38.7462 108.987 38.6705L107.476 38.3693C106.624 38.1989 105.989 37.9034 105.572 37.483C105.16 37.0625 104.953 36.5265 104.953 35.875C104.953 35.3144 105.105 34.8314 105.408 34.4261C105.714 34.0208 106.144 33.7083 106.697 33.4886C107.254 33.2689 107.906 33.1591 108.652 33.1591C109.754 33.1591 110.622 33.392 111.254 33.858C111.891 34.3239 112.262 34.9583 112.368 35.7614ZM118.784 33.2727V35.0909H113.398V33.2727H118.784ZM114.631 42V32.642C114.631 32.0095 114.754 31.4848 115 31.0682C115.25 30.6515 115.591 30.339 116.023 30.1307C116.455 29.9223 116.945 29.8182 117.494 29.8182C117.866 29.8182 118.205 29.8466 118.511 29.9034C118.822 29.9602 119.053 30.0114 119.205 30.0568L118.773 31.875C118.678 31.8447 118.561 31.8163 118.42 31.7898C118.284 31.7633 118.144 31.75 118 31.75C117.644 31.75 117.396 31.8333 117.256 32C117.116 32.1629 117.045 32.392 117.045 32.6875V42H114.631ZM123.928 42.1705C123.03 42.1705 122.257 41.9886 121.609 41.625C120.965 41.2576 120.469 40.7386 120.121 40.0682C119.772 39.3939 119.598 38.5966 119.598 37.6761C119.598 36.7784 119.772 35.9905 120.121 35.3125C120.469 34.6345 120.96 34.1061 121.592 33.7273C122.229 33.3485 122.975 33.1591 123.831 33.1591C124.407 33.1591 124.943 33.2519 125.439 33.4375C125.939 33.6193 126.375 33.8939 126.746 34.2614C127.121 34.6288 127.412 35.0909 127.621 35.6477C127.829 36.2008 127.933 36.8485 127.933 37.5909V38.2557H120.564V36.7557H125.655C125.655 36.4072 125.579 36.0985 125.428 35.8295C125.276 35.5606 125.066 35.3504 124.797 35.1989C124.532 35.0436 124.223 34.9659 123.871 34.9659C123.503 34.9659 123.178 35.0511 122.893 35.2216C122.613 35.3883 122.393 35.6136 122.234 35.8977C122.075 36.178 121.994 36.4905 121.99 36.8352V38.2614C121.99 38.6932 122.07 39.0663 122.229 39.3807C122.392 39.6951 122.621 39.9375 122.916 40.108C123.212 40.2784 123.562 40.3636 123.967 40.3636C124.236 40.3636 124.482 40.3258 124.706 40.25C124.929 40.1742 125.121 40.0606 125.28 39.9091C125.439 39.7576 125.56 39.572 125.643 39.3523L127.882 39.5C127.768 40.0379 127.536 40.5076 127.183 40.9091C126.835 41.3068 126.384 41.6174 125.831 41.8409C125.282 42.0606 124.647 42.1705 123.928 42.1705ZM129.513 42V33.2727H131.859V34.7955H131.95C132.109 34.2538 132.376 33.8447 132.751 33.5682C133.126 33.2879 133.558 33.1477 134.047 33.1477C134.168 33.1477 134.299 33.1553 134.439 33.1705C134.579 33.1856 134.702 33.2064 134.808 33.233V35.3807C134.695 35.3466 134.537 35.3163 134.337 35.2898C134.136 35.2633 133.952 35.25 133.786 35.25C133.429 35.25 133.111 35.3277 132.831 35.483C132.554 35.6345 132.335 35.8466 132.172 36.1193C132.013 36.392 131.933 36.7064 131.933 37.0625V42H129.513Z" fill="#232325"/>
<rect x="152" y="26" width="99" height="20" rx="10" fill="#DCFBEA"/>
<path d="M170.263 40H168.286L171.298 31.2727H173.676L176.685 40H174.707L172.521 33.267H172.453L170.263 40ZM170.139 36.5696H174.81V38.0099H170.139V36.5696ZM177.735 40V31.2727H181.178C181.84 31.2727 182.404 31.3991 182.87 31.652C183.336 31.902 183.691 32.25 183.935 32.696C184.183 33.1392 184.306 33.6506 184.306 34.2301C184.306 34.8097 184.181 35.321 183.931 35.7642C183.681 36.2074 183.319 36.5526 182.844 36.7997C182.373 37.0469 181.802 37.1705 181.131 37.1705H178.937V35.6918H180.833C181.188 35.6918 181.481 35.6307 181.711 35.5085C181.944 35.3835 182.117 35.2116 182.231 34.9929C182.347 34.7713 182.406 34.517 182.406 34.2301C182.406 33.9403 182.347 33.6875 182.231 33.4716C182.117 33.2528 181.944 33.0838 181.711 32.9645C181.478 32.8423 181.183 32.7812 180.825 32.7812H179.58V40H177.735ZM185.505 40V31.2727H188.948C189.61 31.2727 190.174 31.3991 190.64 31.652C191.105 31.902 191.461 32.25 191.705 32.696C191.952 33.1392 192.076 33.6506 192.076 34.2301C192.076 34.8097 191.951 35.321 191.701 35.7642C191.451 36.2074 191.088 36.5526 190.614 36.7997C190.142 37.0469 189.571 37.1705 188.901 37.1705H186.706V35.6918H188.603C188.958 35.6918 189.25 35.6307 189.48 35.5085C189.713 35.3835 189.887 35.2116 190 34.9929C190.117 34.7713 190.175 34.517 190.175 34.2301C190.175 33.9403 190.117 33.6875 190 33.4716C189.887 33.2528 189.713 33.0838 189.48 32.9645C189.248 32.8423 188.952 32.7812 188.594 32.7812H187.35V40H185.505ZM193.274 40V31.2727H196.717C197.376 31.2727 197.939 31.3906 198.405 31.6264C198.874 31.8594 199.23 32.1903 199.474 32.6193C199.722 33.0455 199.845 33.5469 199.845 34.1236C199.845 34.7031 199.72 35.2017 199.47 35.6193C199.22 36.0341 198.858 36.3523 198.384 36.5739C197.912 36.7955 197.341 36.9062 196.67 36.9062H194.365V35.4233H196.372C196.724 35.4233 197.017 35.375 197.25 35.2784C197.483 35.1818 197.656 35.0369 197.77 34.8438C197.886 34.6506 197.945 34.4105 197.945 34.1236C197.945 33.8338 197.886 33.5895 197.77 33.3906C197.656 33.1918 197.482 33.0412 197.246 32.9389C197.013 32.8338 196.719 32.7812 196.364 32.7812H195.119V40H193.274ZM197.987 36.0284L200.156 40H198.119L195.997 36.0284H197.987ZM209.169 35.6364C209.169 36.5881 208.989 37.3977 208.628 38.0653C208.27 38.733 207.781 39.2429 207.162 39.5952C206.545 39.9446 205.852 40.1193 205.082 40.1193C204.307 40.1193 203.611 39.9432 202.994 39.5909C202.378 39.2386 201.891 38.7287 201.533 38.0611C201.175 37.3935 200.996 36.5852 200.996 35.6364C200.996 34.6847 201.175 33.875 201.533 33.2074C201.891 32.5398 202.378 32.0312 202.994 31.6818C203.611 31.3295 204.307 31.1534 205.082 31.1534C205.852 31.1534 206.545 31.3295 207.162 31.6818C207.781 32.0312 208.27 32.5398 208.628 33.2074C208.989 33.875 209.169 34.6847 209.169 35.6364ZM207.298 35.6364C207.298 35.0199 207.206 34.5 207.021 34.0767C206.839 33.6534 206.582 33.3324 206.25 33.1136C205.918 32.8949 205.528 32.7855 205.082 32.7855C204.636 32.7855 204.247 32.8949 203.915 33.1136C203.582 33.3324 203.324 33.6534 203.139 34.0767C202.957 34.5 202.866 35.0199 202.866 35.6364C202.866 36.2528 202.957 36.7727 203.139 37.196C203.324 37.6193 203.582 37.9403 203.915 38.1591C204.247 38.3778 204.636 38.4872 205.082 38.4872C205.528 38.4872 205.918 38.3778 206.25 38.1591C206.582 37.9403 206.839 37.6193 207.021 37.196C207.206 36.7727 207.298 36.2528 207.298 35.6364ZM211.62 31.2727L213.73 37.9034H213.811L215.924 31.2727H217.97L214.961 40H212.583L209.571 31.2727H211.62ZM219.02 40V31.2727H224.901V32.794H220.865V34.8736H224.598V36.3949H220.865V38.4787H224.918V40H219.02ZM229.462 40H226.368V31.2727H229.487C230.365 31.2727 231.121 31.4474 231.754 31.7969C232.388 32.1435 232.875 32.642 233.216 33.2926C233.56 33.9432 233.732 34.7216 233.732 35.6278C233.732 36.5369 233.56 37.3182 233.216 37.9716C232.875 38.625 232.385 39.1264 231.746 39.4759C231.109 39.8253 230.348 40 229.462 40ZM228.213 38.419H229.385C229.93 38.419 230.389 38.3224 230.761 38.1293C231.136 37.9332 231.418 37.6307 231.605 37.2216C231.795 36.8097 231.891 36.2784 231.891 35.6278C231.891 34.983 231.795 34.456 231.605 34.0469C231.418 33.6378 231.138 33.3366 230.766 33.1435C230.393 32.9503 229.935 32.8537 229.389 32.8537H228.213V38.419Z" fill="#249F5D"/>
<path d="M25.4929 71.7827C25.4588 71.4389 25.3125 71.1719 25.054 70.9815C24.7955 70.7912 24.4446 70.696 24.0014 70.696C23.7003 70.696 23.446 70.7386 23.2386 70.8239C23.0313 70.9062 22.8722 71.0213 22.7614 71.169C22.6534 71.3168 22.5994 71.4844 22.5994 71.6719C22.5938 71.8281 22.6264 71.9645 22.6974 72.081C22.7713 72.1974 22.8722 72.2983 23 72.3835C23.1278 72.4659 23.2756 72.5384 23.4432 72.6009C23.6108 72.6605 23.7898 72.7116 23.9801 72.7543L24.7642 72.9418C25.1449 73.027 25.4943 73.1406 25.8125 73.2827C26.1307 73.4247 26.4063 73.5994 26.6392 73.8068C26.8722 74.0142 27.0526 74.2585 27.1804 74.5398C27.3111 74.821 27.3778 75.1435 27.3807 75.5071C27.3778 76.0412 27.2415 76.5043 26.9716 76.8963C26.7045 77.2855 26.3182 77.5881 25.8125 77.804C25.3097 78.017 24.7031 78.1236 23.9929 78.1236C23.2884 78.1236 22.6747 78.0156 22.152 77.7997C21.6321 77.5838 21.2259 77.2642 20.9332 76.8409C20.6435 76.4148 20.4915 75.8878 20.4773 75.2599H22.2628C22.2827 75.5526 22.3665 75.7969 22.5142 75.9929C22.6648 76.1861 22.8651 76.3324 23.1151 76.4318C23.3679 76.5284 23.6534 76.5767 23.9716 76.5767C24.2841 76.5767 24.5554 76.5312 24.7855 76.4403C25.0185 76.3494 25.1989 76.223 25.3267 76.0611C25.4545 75.8991 25.5185 75.7131 25.5185 75.5028C25.5185 75.3068 25.4602 75.142 25.3438 75.0085C25.2301 74.875 25.0625 74.7614 24.8409 74.6676C24.6222 74.5739 24.3537 74.4886 24.0355 74.4119L23.0852 74.1733C22.3494 73.9943 21.7685 73.7145 21.3423 73.3338C20.9162 72.9531 20.7045 72.4403 20.7074 71.7955C20.7045 71.267 20.8452 70.8054 21.1293 70.4105C21.4162 70.0156 21.8097 69.7074 22.3097 69.4858C22.8097 69.2642 23.3778 69.1534 24.0142 69.1534C24.6619 69.1534 25.2273 69.2642 25.7102 69.4858C26.196 69.7074 26.5739 70.0156 26.8438 70.4105C27.1136 70.8054 27.2528 71.2628 27.2614 71.7827H25.4929ZM31.5451 78.1278C30.8832 78.1278 30.3107 77.9872 29.8278 77.706C29.3477 77.4219 28.9769 77.027 28.7156 76.5213C28.4542 76.0128 28.3235 75.4233 28.3235 74.7528C28.3235 74.0767 28.4542 73.4858 28.7156 72.9801C28.9769 72.4716 29.3477 72.0767 29.8278 71.7955C30.3107 71.5114 30.8832 71.3693 31.5451 71.3693C32.207 71.3693 32.7781 71.5114 33.2582 71.7955C33.7411 72.0767 34.1133 72.4716 34.3746 72.9801C34.636 73.4858 34.7667 74.0767 34.7667 74.7528C34.7667 75.4233 34.636 76.0128 34.3746 76.5213C34.1133 77.027 33.7411 77.4219 33.2582 77.706C32.7781 77.9872 32.207 78.1278 31.5451 78.1278ZM31.5536 76.7216C31.8548 76.7216 32.1062 76.6364 32.3079 76.4659C32.5096 76.2926 32.6616 76.0568 32.7638 75.7585C32.869 75.4602 32.9215 75.1207 32.9215 74.7401C32.9215 74.3594 32.869 74.0199 32.7638 73.7216C32.6616 73.4233 32.5096 73.1875 32.3079 73.0142C32.1062 72.8409 31.8548 72.7543 31.5536 72.7543C31.2496 72.7543 30.994 72.8409 30.7866 73.0142C30.582 73.1875 30.4272 73.4233 30.3221 73.7216C30.2198 74.0199 30.1687 74.3594 30.1687 74.7401C30.1687 75.1207 30.2198 75.4602 30.3221 75.7585C30.4272 76.0568 30.582 76.2926 30.7866 76.4659C30.994 76.6364 31.2496 76.7216 31.5536 76.7216ZM40.1445 75.2131V71.4545H41.9599V78H40.217V76.8111H40.1488C40.0011 77.1946 39.7553 77.5028 39.4116 77.7358C39.0707 77.9687 38.6545 78.0852 38.163 78.0852C37.7255 78.0852 37.3406 77.9858 37.0082 77.7869C36.6758 77.5881 36.4158 77.3054 36.2283 76.9389C36.0437 76.5724 35.9499 76.1335 35.9471 75.6222V71.4545H37.7624V75.2983C37.7653 75.6847 37.869 75.9901 38.0735 76.2145C38.2781 76.4389 38.5522 76.5511 38.896 76.5511C39.1147 76.5511 39.3192 76.5014 39.5096 76.402C39.6999 76.2997 39.8533 76.1491 39.9698 75.9503C40.0891 75.7514 40.1474 75.5057 40.1445 75.2131ZM43.4119 78V71.4545H45.1719V72.5966H45.2401C45.3594 72.1903 45.5597 71.8835 45.8409 71.6761C46.1222 71.4659 46.446 71.3608 46.8125 71.3608C46.9034 71.3608 47.0014 71.3665 47.1065 71.3778C47.2116 71.3892 47.304 71.4048 47.3835 71.4247V73.0355C47.2983 73.0099 47.1804 72.9872 47.0298 72.9673C46.8793 72.9474 46.7415 72.9375 46.6165 72.9375C46.3494 72.9375 46.1108 72.9957 45.9006 73.1122C45.6932 73.2259 45.5284 73.3849 45.4062 73.5895C45.2869 73.794 45.2273 74.0298 45.2273 74.2969V78H43.4119ZM50.9748 78.1278C50.3043 78.1278 49.7276 77.9858 49.2447 77.7017C48.7646 77.4148 48.3952 77.017 48.1367 76.5085C47.881 76 47.7532 75.4148 47.7532 74.7528C47.7532 74.0824 47.8825 73.4943 48.141 72.9886C48.4023 72.4801 48.7731 72.0838 49.2532 71.7997C49.7333 71.5128 50.3043 71.3693 50.9663 71.3693C51.5373 71.3693 52.0373 71.473 52.4663 71.6804C52.8952 71.8878 53.2347 72.179 53.4847 72.554C53.7347 72.929 53.8725 73.3693 53.8981 73.875H52.185C52.1367 73.5483 52.0089 73.2855 51.8015 73.0866C51.5969 72.8849 51.3285 72.7841 50.9961 72.7841C50.7148 72.7841 50.4691 72.8608 50.2589 73.0142C50.0515 73.1648 49.8896 73.3849 49.7731 73.6747C49.6566 73.9645 49.5984 74.3153 49.5984 74.7273C49.5984 75.1449 49.6552 75.5 49.7688 75.7926C49.8853 76.0852 50.0487 76.3082 50.2589 76.4616C50.4691 76.6151 50.7148 76.6918 50.9961 76.6918C51.2035 76.6918 51.3896 76.6491 51.5543 76.5639C51.7219 76.4787 51.8597 76.3551 51.9677 76.1932C52.0785 76.0284 52.1509 75.831 52.185 75.6009H53.8981C53.8697 76.1009 53.7333 76.5412 53.489 76.9219C53.2475 77.2997 52.9137 77.5952 52.4876 77.8082C52.0614 78.0213 51.5572 78.1278 50.9748 78.1278ZM58.0433 78.1278C57.37 78.1278 56.7905 77.9915 56.3047 77.7188C55.8217 77.4432 55.4496 77.054 55.1882 76.5511C54.9268 76.0455 54.7962 75.4474 54.7962 74.7571C54.7962 74.0838 54.9268 73.4929 55.1882 72.9844C55.4496 72.4759 55.8175 72.0795 56.2919 71.7955C56.7692 71.5114 57.3288 71.3693 57.9709 71.3693C58.4027 71.3693 58.8047 71.4389 59.1768 71.5781C59.5518 71.7145 59.8786 71.9205 60.157 72.196C60.4382 72.4716 60.657 72.8182 60.8132 73.2358C60.9695 73.6506 61.0476 74.1364 61.0476 74.6932V75.1918H55.5206V74.0668H59.3388C59.3388 73.8054 59.282 73.5739 59.1683 73.3722C59.0547 73.1705 58.897 73.0128 58.6953 72.8991C58.4964 72.7827 58.2649 72.7244 58.0007 72.7244C57.7251 72.7244 57.4808 72.7884 57.2678 72.9162C57.0575 73.0412 56.8928 73.2102 56.7734 73.4233C56.6541 73.6335 56.593 73.8679 56.5902 74.1264V75.196C56.5902 75.5199 56.6499 75.7997 56.7692 76.0355C56.8913 76.2713 57.0632 76.4531 57.2848 76.581C57.5064 76.7088 57.7692 76.7727 58.0732 76.7727C58.2749 76.7727 58.4595 76.7443 58.6271 76.6875C58.7947 76.6307 58.9382 76.5455 59.0575 76.4318C59.1768 76.3182 59.2678 76.179 59.3303 76.0142L61.0092 76.125C60.924 76.5284 60.7493 76.8807 60.4851 77.1818C60.2237 77.4801 59.8857 77.7131 59.4709 77.8807C59.0589 78.0455 58.5831 78.1278 58.0433 78.1278Z" fill="#6F727A"/>
<path d="M30.7443 94.3636V106H28.6193L23.5568 98.6761H23.4716V106H21.0114V94.3636H23.1705L28.1932 101.682H28.2955V94.3636H30.7443ZM36.6747 106.17C35.7921 106.17 35.0289 105.983 34.3849 105.608C33.7448 105.229 33.2505 104.703 32.902 104.028C32.5535 103.35 32.3793 102.564 32.3793 101.67C32.3793 100.769 32.5535 99.9811 32.902 99.3068C33.2505 98.6288 33.7448 98.1023 34.3849 97.7273C35.0289 97.3485 35.7921 97.1591 36.6747 97.1591C37.5573 97.1591 38.3187 97.3485 38.9588 97.7273C39.6027 98.1023 40.099 98.6288 40.4474 99.3068C40.7959 99.9811 40.9702 100.769 40.9702 101.67C40.9702 102.564 40.7959 103.35 40.4474 104.028C40.099 104.703 39.6027 105.229 38.9588 105.608C38.3187 105.983 37.5573 106.17 36.6747 106.17ZM36.6861 104.295C37.0876 104.295 37.4228 104.182 37.6918 103.955C37.9607 103.723 38.1634 103.409 38.2997 103.011C38.4399 102.614 38.5099 102.161 38.5099 101.653C38.5099 101.146 38.4399 100.693 38.2997 100.295C38.1634 99.8977 37.9607 99.5833 37.6918 99.3523C37.4228 99.1212 37.0876 99.0057 36.6861 99.0057C36.2808 99.0057 35.9399 99.1212 35.6634 99.3523C35.3906 99.5833 35.1842 99.8977 35.044 100.295C34.9077 100.693 34.8395 101.146 34.8395 101.653C34.8395 102.161 34.9077 102.614 35.044 103.011C35.1842 103.409 35.3906 103.723 35.6634 103.955C35.9399 104.182 36.2808 104.295 36.6861 104.295ZM42.544 106V97.2727H44.9645V106H42.544ZM43.7599 96.1477C43.4001 96.1477 43.0914 96.0284 42.8338 95.7898C42.58 95.5473 42.4531 95.2576 42.4531 94.9205C42.4531 94.5871 42.58 94.3011 42.8338 94.0625C43.0914 93.8201 43.4001 93.6989 43.7599 93.6989C44.1198 93.6989 44.4266 93.8201 44.6804 94.0625C44.938 94.3011 45.0668 94.5871 45.0668 94.9205C45.0668 95.2576 44.938 95.5473 44.6804 95.7898C44.4266 96.0284 44.1198 96.1477 43.7599 96.1477ZM50.1193 106.142C49.4564 106.142 48.8561 105.972 48.3182 105.631C47.7841 105.286 47.3598 104.78 47.0455 104.114C46.7348 103.443 46.5795 102.621 46.5795 101.648C46.5795 100.648 46.7405 99.8163 47.0625 99.1534C47.3845 98.4867 47.8125 97.9886 48.3466 97.6591C48.8845 97.3258 49.4735 97.1591 50.1136 97.1591C50.6023 97.1591 51.0095 97.2424 51.3352 97.4091C51.6648 97.572 51.9299 97.7765 52.1307 98.0227C52.3352 98.2652 52.4905 98.5038 52.5966 98.7386H52.6705V94.3636H55.0852V106H52.6989V104.602H52.5966C52.483 104.845 52.322 105.085 52.1136 105.324C51.9091 105.559 51.642 105.754 51.3125 105.909C50.9867 106.064 50.589 106.142 50.1193 106.142ZM50.8864 104.216C51.2765 104.216 51.6061 104.11 51.875 103.898C52.1477 103.682 52.3561 103.381 52.5 102.994C52.6477 102.608 52.7216 102.155 52.7216 101.636C52.7216 101.117 52.6496 100.667 52.5057 100.284C52.3617 99.9015 52.1534 99.6061 51.8807 99.3977C51.608 99.1894 51.2765 99.0852 50.8864 99.0852C50.4886 99.0852 50.1534 99.1932 49.8807 99.4091C49.608 99.625 49.4015 99.9242 49.2614 100.307C49.1212 100.689 49.0511 101.133 49.0511 101.636C49.0511 102.144 49.1212 102.593 49.2614 102.983C49.4053 103.369 49.6117 103.672 49.8807 103.892C50.1534 104.108 50.4886 104.216 50.8864 104.216ZM59.5639 106.165C59.0071 106.165 58.5109 106.068 58.0753 105.875C57.6397 105.678 57.295 105.388 57.0412 105.006C56.7912 104.619 56.6662 104.138 56.6662 103.562C56.6662 103.078 56.7552 102.67 56.9332 102.341C57.1113 102.011 57.3537 101.746 57.6605 101.545C57.9673 101.345 58.3158 101.193 58.706 101.091C59.0999 100.989 59.5128 100.917 59.9446 100.875C60.4522 100.822 60.8613 100.773 61.1719 100.727C61.4825 100.678 61.7079 100.606 61.848 100.511C61.9882 100.417 62.0582 100.277 62.0582 100.091V100.057C62.0582 99.697 61.9446 99.4186 61.7173 99.2216C61.4938 99.0246 61.1757 98.9261 60.7628 98.9261C60.3272 98.9261 59.9806 99.0227 59.723 99.2159C59.4654 99.4053 59.295 99.6439 59.2116 99.9318L56.973 99.75C57.0866 99.2197 57.3101 98.7614 57.6435 98.375C57.9768 97.9848 58.4067 97.6856 58.9332 97.4773C59.4635 97.2652 60.0772 97.1591 60.7741 97.1591C61.259 97.1591 61.723 97.2159 62.1662 97.3295C62.6132 97.4432 63.009 97.6193 63.3537 97.858C63.7022 98.0966 63.9768 98.4034 64.1776 98.7784C64.3783 99.1496 64.4787 99.5947 64.4787 100.114V106H62.1832V104.79H62.1151C61.9749 105.062 61.7874 105.303 61.5526 105.511C61.3177 105.716 61.0355 105.877 60.706 105.994C60.3764 106.108 59.9957 106.165 59.5639 106.165ZM60.2571 104.494C60.6132 104.494 60.9276 104.424 61.2003 104.284C61.473 104.14 61.687 103.947 61.8423 103.705C61.9976 103.462 62.0753 103.187 62.0753 102.881V101.955C61.9995 102.004 61.8954 102.049 61.7628 102.091C61.634 102.129 61.4882 102.165 61.3253 102.199C61.1624 102.229 60.9995 102.258 60.8366 102.284C60.6738 102.307 60.526 102.328 60.3935 102.347C60.1094 102.388 59.8613 102.455 59.6491 102.545C59.437 102.636 59.2723 102.759 59.1548 102.915C59.0374 103.066 58.9787 103.256 58.9787 103.483C58.9787 103.812 59.098 104.064 59.3366 104.239C59.5791 104.409 59.8859 104.494 60.2571 104.494ZM72.7244 106L69.3949 94.3636H72.0824L74.0085 102.449H74.1051L76.2301 94.3636H78.5312L80.6506 102.466H80.7528L82.679 94.3636H85.3665L82.0369 106H79.6392L77.4233 98.392H77.3324L75.1222 106H72.7244ZM88.1889 106.165C87.6321 106.165 87.1359 106.068 86.7003 105.875C86.2647 105.678 85.92 105.388 85.6662 105.006C85.4162 104.619 85.2912 104.138 85.2912 103.562C85.2912 103.078 85.3802 102.67 85.5582 102.341C85.7363 102.011 85.9787 101.746 86.2855 101.545C86.5923 101.345 86.9408 101.193 87.331 101.091C87.7249 100.989 88.1378 100.917 88.5696 100.875C89.0772 100.822 89.4863 100.773 89.7969 100.727C90.1075 100.678 90.3329 100.606 90.473 100.511C90.6132 100.417 90.6832 100.277 90.6832 100.091V100.057C90.6832 99.697 90.5696 99.4186 90.3423 99.2216C90.1188 99.0246 89.8007 98.9261 89.3878 98.9261C88.9522 98.9261 88.6056 99.0227 88.348 99.2159C88.0904 99.4053 87.92 99.6439 87.8366 99.9318L85.598 99.75C85.7116 99.2197 85.9351 98.7614 86.2685 98.375C86.6018 97.9848 87.0317 97.6856 87.5582 97.4773C88.0885 97.2652 88.7022 97.1591 89.3991 97.1591C89.884 97.1591 90.348 97.2159 90.7912 97.3295C91.2382 97.4432 91.634 97.6193 91.9787 97.858C92.3272 98.0966 92.6018 98.4034 92.8026 98.7784C93.0033 99.1496 93.1037 99.5947 93.1037 100.114V106H90.8082V104.79H90.7401C90.5999 105.062 90.4124 105.303 90.1776 105.511C89.9427 105.716 89.6605 105.877 89.331 105.994C89.0014 106.108 88.6207 106.165 88.1889 106.165ZM88.8821 104.494C89.2382 104.494 89.5526 104.424 89.8253 104.284C90.098 104.14 90.312 103.947 90.4673 103.705C90.6226 103.462 90.7003 103.187 90.7003 102.881V101.955C90.6245 102.004 90.5204 102.049 90.3878 102.091C90.259 102.129 90.1132 102.165 89.9503 102.199C89.7874 102.229 89.6245 102.258 89.4616 102.284C89.2988 102.307 89.151 102.328 89.0185 102.347C88.7344 102.388 88.4863 102.455 88.2741 102.545C88.062 102.636 87.8973 102.759 87.7798 102.915C87.6624 103.066 87.6037 103.256 87.6037 103.483C87.6037 103.812 87.723 104.064 87.9616 104.239C88.2041 104.409 88.5109 104.494 88.8821 104.494ZM94.9815 106V97.2727H97.3281V98.7955H97.419C97.5781 98.2538 97.8452 97.8447 98.2202 97.5682C98.5952 97.2879 99.027 97.1477 99.5156 97.1477C99.6368 97.1477 99.7675 97.1553 99.9077 97.1705C100.048 97.1856 100.171 97.2064 100.277 97.233V99.3807C100.163 99.3466 100.006 99.3163 99.8054 99.2898C99.6046 99.2633 99.4209 99.25 99.2543 99.25C98.8982 99.25 98.58 99.3277 98.2997 99.483C98.0232 99.6345 97.8035 99.8466 97.6406 100.119C97.4815 100.392 97.402 100.706 97.402 101.062V106H94.9815ZM105.099 106.17C104.202 106.17 103.429 105.989 102.781 105.625C102.137 105.258 101.641 104.739 101.293 104.068C100.944 103.394 100.77 102.597 100.77 101.676C100.77 100.778 100.944 99.9905 101.293 99.3125C101.641 98.6345 102.132 98.1061 102.764 97.7273C103.401 97.3485 104.147 97.1591 105.003 97.1591C105.579 97.1591 106.115 97.2519 106.611 97.4375C107.111 97.6193 107.546 97.8939 107.918 98.2614C108.293 98.6288 108.584 99.0909 108.793 99.6477C109.001 100.201 109.105 100.848 109.105 101.591V102.256H101.736V100.756H106.827C106.827 100.407 106.751 100.098 106.599 99.8295C106.448 99.5606 106.238 99.3504 105.969 99.1989C105.704 99.0436 105.395 98.9659 105.043 98.9659C104.675 98.9659 104.349 99.0511 104.065 99.2216C103.785 99.3883 103.565 99.6136 103.406 99.8977C103.247 100.178 103.166 100.491 103.162 100.835V102.261C103.162 102.693 103.241 103.066 103.401 103.381C103.563 103.695 103.793 103.938 104.088 104.108C104.384 104.278 104.734 104.364 105.139 104.364C105.408 104.364 105.654 104.326 105.878 104.25C106.101 104.174 106.293 104.061 106.452 103.909C106.611 103.758 106.732 103.572 106.815 103.352L109.054 103.5C108.94 104.038 108.707 104.508 108.355 104.909C108.007 105.307 107.556 105.617 107.003 105.841C106.454 106.061 105.819 106.17 105.099 106.17ZM113.105 100.955V106H110.685V94.3636H113.037V98.8125H113.139C113.336 98.2973 113.654 97.8939 114.094 97.6023C114.533 97.3068 115.084 97.1591 115.747 97.1591C116.353 97.1591 116.882 97.2917 117.332 97.5568C117.787 97.8182 118.139 98.1951 118.389 98.6875C118.643 99.1761 118.768 99.7614 118.764 100.443V106H116.344V100.875C116.348 100.337 116.211 99.9186 115.935 99.6193C115.662 99.3201 115.279 99.1705 114.787 99.1705C114.457 99.1705 114.166 99.2405 113.912 99.3807C113.662 99.5208 113.465 99.7254 113.321 99.9943C113.181 100.259 113.109 100.58 113.105 100.955ZM124.612 106.17C123.73 106.17 122.966 105.983 122.322 105.608C121.682 105.229 121.188 104.703 120.839 104.028C120.491 103.35 120.317 102.564 120.317 101.67C120.317 100.769 120.491 99.9811 120.839 99.3068C121.188 98.6288 121.682 98.1023 122.322 97.7273C122.966 97.3485 123.73 97.1591 124.612 97.1591C125.495 97.1591 126.256 97.3485 126.896 97.7273C127.54 98.1023 128.036 98.6288 128.385 99.3068C128.733 99.9811 128.908 100.769 128.908 101.67C128.908 102.564 128.733 103.35 128.385 104.028C128.036 104.703 127.54 105.229 126.896 105.608C126.256 105.983 125.495 106.17 124.612 106.17ZM124.624 104.295C125.025 104.295 125.36 104.182 125.629 103.955C125.898 103.723 126.101 103.409 126.237 103.011C126.377 102.614 126.447 102.161 126.447 101.653C126.447 101.146 126.377 100.693 126.237 100.295C126.101 99.8977 125.898 99.5833 125.629 99.3523C125.36 99.1212 125.025 99.0057 124.624 99.0057C124.218 99.0057 123.877 99.1212 123.601 99.3523C123.328 99.5833 123.122 99.8977 122.982 100.295C122.845 100.693 122.777 101.146 122.777 101.653C122.777 102.161 122.845 102.614 122.982 103.011C123.122 103.409 123.328 103.723 123.601 103.955C123.877 104.182 124.218 104.295 124.624 104.295ZM136.078 102.284V97.2727H138.499V106H136.175V104.415H136.084C135.887 104.926 135.559 105.337 135.101 105.648C134.646 105.958 134.091 106.114 133.436 106.114C132.853 106.114 132.339 105.981 131.896 105.716C131.453 105.451 131.107 105.074 130.857 104.585C130.61 104.097 130.485 103.511 130.482 102.83V97.2727H132.902V102.398C132.906 102.913 133.044 103.32 133.317 103.619C133.589 103.919 133.955 104.068 134.413 104.068C134.705 104.068 134.978 104.002 135.232 103.869C135.485 103.733 135.69 103.532 135.845 103.267C136.004 103.002 136.082 102.674 136.078 102.284ZM147.696 99.7614L145.48 99.8977C145.442 99.7083 145.361 99.5379 145.236 99.3864C145.111 99.2311 144.946 99.108 144.741 99.017C144.541 98.9223 144.3 98.875 144.02 98.875C143.645 98.875 143.329 98.9545 143.071 99.1136C142.813 99.2689 142.685 99.4773 142.685 99.7386C142.685 99.947 142.768 100.123 142.935 100.267C143.101 100.411 143.387 100.527 143.793 100.614L145.372 100.932C146.221 101.106 146.853 101.386 147.27 101.773C147.687 102.159 147.895 102.667 147.895 103.295C147.895 103.867 147.726 104.369 147.389 104.801C147.056 105.233 146.598 105.57 146.014 105.812C145.435 106.051 144.766 106.17 144.009 106.17C142.853 106.17 141.933 105.93 141.247 105.449C140.565 104.964 140.166 104.305 140.048 103.472L142.429 103.347C142.501 103.699 142.675 103.968 142.952 104.153C143.228 104.335 143.582 104.426 144.014 104.426C144.438 104.426 144.779 104.345 145.037 104.182C145.298 104.015 145.431 103.801 145.435 103.54C145.431 103.32 145.338 103.14 145.156 103C144.974 102.856 144.694 102.746 144.315 102.67L142.804 102.369C141.952 102.199 141.317 101.903 140.901 101.483C140.488 101.062 140.281 100.527 140.281 99.875C140.281 99.3144 140.433 98.8314 140.736 98.4261C141.043 98.0208 141.473 97.7083 142.026 97.4886C142.582 97.2689 143.234 97.1591 143.98 97.1591C145.082 97.1591 145.95 97.392 146.582 97.858C147.219 98.3239 147.59 98.9583 147.696 99.7614ZM153.396 106.17C152.499 106.17 151.726 105.989 151.078 105.625C150.434 105.258 149.938 104.739 149.589 104.068C149.241 103.394 149.067 102.597 149.067 101.676C149.067 100.778 149.241 99.9905 149.589 99.3125C149.938 98.6345 150.429 98.1061 151.061 97.7273C151.697 97.3485 152.444 97.1591 153.3 97.1591C153.875 97.1591 154.411 97.2519 154.908 97.4375C155.408 97.6193 155.843 97.8939 156.214 98.2614C156.589 98.6288 156.881 99.0909 157.089 99.6477C157.298 100.201 157.402 100.848 157.402 101.591V102.256H150.033V100.756H155.124C155.124 100.407 155.048 100.098 154.896 99.8295C154.745 99.5606 154.535 99.3504 154.266 99.1989C154 99.0436 153.692 98.9659 153.339 98.9659C152.972 98.9659 152.646 99.0511 152.362 99.2216C152.082 99.3883 151.862 99.6136 151.703 99.8977C151.544 100.178 151.463 100.491 151.459 100.835V102.261C151.459 102.693 151.538 103.066 151.697 103.381C151.86 103.695 152.089 103.938 152.385 104.108C152.68 104.278 153.031 104.364 153.436 104.364C153.705 104.364 153.951 104.326 154.175 104.25C154.398 104.174 154.589 104.061 154.749 103.909C154.908 103.758 155.029 103.572 155.112 103.352L157.351 103.5C157.237 104.038 157.004 104.508 156.652 104.909C156.304 105.307 155.853 105.617 155.3 105.841C154.75 106.061 154.116 106.17 153.396 106.17Z" fill="#232325"/>
<path d="M190.426 78V69.2727H193.87C194.532 69.2727 195.096 69.3991 195.561 69.652C196.027 69.902 196.382 70.25 196.627 70.696C196.874 71.1392 196.998 71.6506 196.998 72.2301C196.998 72.8097 196.873 73.321 196.623 73.7642C196.373 74.2074 196.01 74.5526 195.536 74.7997C195.064 75.0469 194.493 75.1705 193.823 75.1705H191.628V73.6918H193.525C193.88 73.6918 194.172 73.6307 194.402 73.5085C194.635 73.3835 194.809 73.2116 194.922 72.9929C195.039 72.7713 195.097 72.517 195.097 72.2301C195.097 71.9403 195.039 71.6875 194.922 71.4716C194.809 71.2528 194.635 71.0838 194.402 70.9645C194.169 70.8423 193.874 70.7812 193.516 70.7812H192.272V78H190.426ZM198.162 78V71.4545H199.922V72.5966H199.99C200.109 72.1903 200.31 71.8835 200.591 71.6761C200.872 71.4659 201.196 71.3608 201.562 71.3608C201.653 71.3608 201.751 71.3665 201.857 71.3778C201.962 71.3892 202.054 71.4048 202.134 71.4247V73.0355C202.048 73.0099 201.93 72.9872 201.78 72.9673C201.629 72.9474 201.491 72.9375 201.366 72.9375C201.099 72.9375 200.861 72.9957 200.651 73.1122C200.443 73.2259 200.278 73.3849 200.156 73.5895C200.037 73.794 199.977 74.0298 199.977 74.2969V78H198.162ZM205.725 78.1278C205.063 78.1278 204.49 77.9872 204.007 77.706C203.527 77.4219 203.157 77.027 202.895 76.5213C202.634 76.0128 202.503 75.4233 202.503 74.7528C202.503 74.0767 202.634 73.4858 202.895 72.9801C203.157 72.4716 203.527 72.0767 204.007 71.7955C204.49 71.5114 205.063 71.3693 205.725 71.3693C206.387 71.3693 206.958 71.5114 207.438 71.7955C207.921 72.0767 208.293 72.4716 208.554 72.9801C208.816 73.4858 208.946 74.0767 208.946 74.7528C208.946 75.4233 208.816 76.0128 208.554 76.5213C208.293 77.027 207.921 77.4219 207.438 77.706C206.958 77.9872 206.387 78.1278 205.725 78.1278ZM205.733 76.7216C206.034 76.7216 206.286 76.6364 206.488 76.4659C206.689 76.2926 206.841 76.0568 206.944 75.7585C207.049 75.4602 207.101 75.1207 207.101 74.7401C207.101 74.3594 207.049 74.0199 206.944 73.7216C206.841 73.4233 206.689 73.1875 206.488 73.0142C206.286 72.8409 206.034 72.7543 205.733 72.7543C205.429 72.7543 205.174 72.8409 204.966 73.0142C204.762 73.1875 204.607 73.4233 204.502 73.7216C204.4 74.0199 204.348 74.3594 204.348 74.7401C204.348 75.1207 204.4 75.4602 204.502 75.7585C204.607 76.0568 204.762 76.2926 204.966 76.4659C205.174 76.6364 205.429 76.7216 205.733 76.7216ZM212.539 78.1065C212.042 78.1065 211.591 77.9787 211.188 77.723C210.787 77.4645 210.469 77.0852 210.233 76.5852C210 76.0824 209.884 75.4659 209.884 74.7358C209.884 73.9858 210.005 73.3622 210.246 72.8651C210.488 72.3651 210.809 71.9915 211.209 71.7443C211.613 71.4943 212.054 71.3693 212.534 71.3693C212.901 71.3693 213.206 71.4318 213.451 71.5568C213.698 71.679 213.897 71.8324 214.047 72.017C214.201 72.1989 214.317 72.3778 214.397 72.554H214.452V69.2727H216.263V78H214.473V76.9517H214.397C214.311 77.1335 214.191 77.3139 214.034 77.4929C213.881 77.669 213.681 77.8153 213.434 77.9318C213.189 78.0483 212.891 78.1065 212.539 78.1065ZM213.114 76.6619C213.407 76.6619 213.654 76.5824 213.855 76.4233C214.06 76.2614 214.216 76.0355 214.324 75.7457C214.435 75.456 214.49 75.1165 214.49 74.7273C214.49 74.3381 214.436 74 214.328 73.7131C214.221 73.4261 214.064 73.2045 213.86 73.0483C213.655 72.892 213.407 72.8139 213.114 72.8139C212.816 72.8139 212.564 72.8949 212.36 73.0568C212.155 73.2187 212 73.4432 211.895 73.7301C211.79 74.017 211.738 74.3494 211.738 74.7273C211.738 75.108 211.79 75.4446 211.895 75.7372C212.003 76.027 212.158 76.2543 212.36 76.419C212.564 76.581 212.816 76.6619 213.114 76.6619ZM221.953 75.2131V71.4545H223.768V78H222.026V76.8111H221.957C221.81 77.1946 221.564 77.5028 221.22 77.7358C220.879 77.9687 220.463 78.0852 219.972 78.0852C219.534 78.0852 219.149 77.9858 218.817 77.7869C218.484 77.5881 218.224 77.3054 218.037 76.9389C217.852 76.5724 217.759 76.1335 217.756 75.6222V71.4545H219.571V75.2983C219.574 75.6847 219.678 75.9901 219.882 76.2145C220.087 76.4389 220.361 76.5511 220.705 76.5511C220.923 76.5511 221.128 76.5014 221.318 76.402C221.509 76.2997 221.662 76.1491 221.778 75.9503C221.898 75.7514 221.956 75.5057 221.953 75.2131ZM228.178 78.1278C227.507 78.1278 226.931 77.9858 226.448 77.7017C225.968 77.4148 225.598 77.017 225.34 76.5085C225.084 76 224.956 75.4148 224.956 74.7528C224.956 74.0824 225.086 73.4943 225.344 72.9886C225.605 72.4801 225.976 72.0838 226.456 71.7997C226.936 71.5128 227.507 71.3693 228.169 71.3693C228.74 71.3693 229.24 71.473 229.669 71.6804C230.098 71.8878 230.438 72.179 230.688 72.554C230.938 72.929 231.076 73.3693 231.101 73.875H229.388C229.34 73.5483 229.212 73.2855 229.005 73.0866C228.8 72.8849 228.532 72.7841 228.199 72.7841C227.918 72.7841 227.672 72.8608 227.462 73.0142C227.255 73.1648 227.093 73.3849 226.976 73.6747C226.86 73.9645 226.801 74.3153 226.801 74.7273C226.801 75.1449 226.858 75.5 226.972 75.7926C227.088 76.0852 227.252 76.3082 227.462 76.4616C227.672 76.6151 227.918 76.6918 228.199 76.6918C228.407 76.6918 228.593 76.6491 228.757 76.5639C228.925 76.4787 229.063 76.3551 229.171 76.1932C229.282 76.0284 229.354 75.831 229.388 75.6009H231.101C231.073 76.1009 230.936 76.5412 230.692 76.9219C230.451 77.2997 230.117 77.5952 229.691 77.8082C229.265 78.0213 228.76 78.1278 228.178 78.1278ZM235.745 71.4545V72.8182H231.803V71.4545H235.745ZM232.698 69.8864H234.513V75.9886C234.513 76.1562 234.539 76.2869 234.59 76.3807C234.641 76.4716 234.712 76.5355 234.803 76.5724C234.897 76.6094 235.005 76.6278 235.127 76.6278C235.212 76.6278 235.298 76.6207 235.383 76.6065C235.468 76.5895 235.533 76.5767 235.579 76.5682L235.864 77.919C235.773 77.9474 235.646 77.9801 235.481 78.017C235.316 78.0568 235.116 78.081 234.88 78.0895C234.442 78.1065 234.059 78.0483 233.729 77.9148C233.403 77.7812 233.148 77.5739 232.967 77.2926C232.785 77.0114 232.695 76.6562 232.698 76.2273V69.8864Z" fill="#6F727A"/>
<path d="M190.679 106V94.3636H193.14V99.1648H198.134V94.3636H200.588V106H198.134V101.193H193.14V106H190.679ZM207.009 101.955H209.1L210.151 103.307L211.185 104.511L213.134 106.955H210.838L209.498 105.307L208.81 104.33L207.009 101.955ZM213.31 100.182C213.31 101.451 213.069 102.53 212.588 103.42C212.111 104.311 211.46 104.991 210.634 105.46C209.812 105.926 208.888 106.159 207.861 106.159C206.827 106.159 205.899 105.924 205.077 105.455C204.255 104.985 203.605 104.305 203.128 103.415C202.651 102.525 202.412 101.447 202.412 100.182C202.412 98.9129 202.651 97.8333 203.128 96.9432C203.605 96.053 204.255 95.375 205.077 94.9091C205.899 94.4394 206.827 94.2045 207.861 94.2045C208.888 94.2045 209.812 94.4394 210.634 94.9091C211.46 95.375 212.111 96.053 212.588 96.9432C213.069 97.8333 213.31 98.9129 213.31 100.182ZM210.816 100.182C210.816 99.3598 210.693 98.6667 210.446 98.1023C210.204 97.5379 209.861 97.1098 209.418 96.8182C208.975 96.5265 208.456 96.3807 207.861 96.3807C207.266 96.3807 206.748 96.5265 206.304 96.8182C205.861 97.1098 205.516 97.5379 205.27 98.1023C205.028 98.6667 204.907 99.3598 204.907 100.182C204.907 101.004 205.028 101.697 205.27 102.261C205.516 102.826 205.861 103.254 206.304 103.545C206.748 103.837 207.266 103.983 207.861 103.983C208.456 103.983 208.975 103.837 209.418 103.545C209.861 103.254 210.204 102.826 210.446 102.261C210.693 101.697 210.816 101.004 210.816 100.182ZM226.551 98.125C226.472 97.8485 226.36 97.6042 226.216 97.392C226.072 97.1761 225.896 96.9943 225.688 96.8466C225.483 96.6951 225.248 96.5795 224.983 96.5C224.722 96.4205 224.432 96.3807 224.114 96.3807C223.519 96.3807 222.997 96.5284 222.546 96.8239C222.099 97.1193 221.75 97.5492 221.5 98.1136C221.25 98.6742 221.125 99.3598 221.125 100.17C221.125 100.981 221.248 101.67 221.495 102.239C221.741 102.807 222.089 103.241 222.54 103.54C222.991 103.835 223.523 103.983 224.137 103.983C224.694 103.983 225.169 103.884 225.563 103.688C225.961 103.487 226.264 103.205 226.472 102.841C226.684 102.477 226.79 102.047 226.79 101.551L227.29 101.625H224.29V99.7727H229.159V101.239C229.159 102.261 228.944 103.14 228.512 103.875C228.08 104.606 227.485 105.17 226.728 105.568C225.97 105.962 225.103 106.159 224.125 106.159C223.034 106.159 222.076 105.919 221.25 105.438C220.425 104.953 219.781 104.265 219.319 103.375C218.86 102.481 218.631 101.42 218.631 100.193C218.631 99.25 218.767 98.4091 219.04 97.6705C219.317 96.928 219.703 96.2992 220.199 95.7841C220.695 95.2689 221.273 94.8769 221.932 94.608C222.591 94.339 223.305 94.2045 224.074 94.2045C224.733 94.2045 225.347 94.3011 225.915 94.4943C226.483 94.6837 226.987 94.9527 227.426 95.3011C227.87 95.6496 228.231 96.0644 228.512 96.5455C228.792 97.0227 228.972 97.5492 229.051 98.125H226.551ZM233.382 94.3636V106H230.962V94.3636H233.382ZM237.81 106.165C237.253 106.165 236.757 106.068 236.321 105.875C235.886 105.678 235.541 105.388 235.287 105.006C235.037 104.619 234.912 104.138 234.912 103.562C234.912 103.078 235.001 102.67 235.179 102.341C235.357 102.011 235.6 101.746 235.907 101.545C236.213 101.345 236.562 101.193 236.952 101.091C237.346 100.989 237.759 100.917 238.191 100.875C238.698 100.822 239.107 100.773 239.418 100.727C239.729 100.678 239.954 100.606 240.094 100.511C240.234 100.417 240.304 100.277 240.304 100.091V100.057C240.304 99.697 240.191 99.4186 239.963 99.2216C239.74 99.0246 239.422 98.9261 239.009 98.9261C238.573 98.9261 238.227 99.0227 237.969 99.2159C237.712 99.4053 237.541 99.6439 237.458 99.9318L235.219 99.75C235.333 99.2197 235.556 98.7614 235.89 98.375C236.223 97.9848 236.653 97.6856 237.179 97.4773C237.71 97.2652 238.323 97.1591 239.02 97.1591C239.505 97.1591 239.969 97.2159 240.412 97.3295C240.859 97.4432 241.255 97.6193 241.6 97.858C241.948 98.0966 242.223 98.4034 242.424 98.7784C242.624 99.1496 242.725 99.5947 242.725 100.114V106H240.429V104.79H240.361C240.221 105.062 240.033 105.303 239.799 105.511C239.564 105.716 239.282 105.877 238.952 105.994C238.623 106.108 238.242 106.165 237.81 106.165ZM238.503 104.494C238.859 104.494 239.174 104.424 239.446 104.284C239.719 104.14 239.933 103.947 240.088 103.705C240.244 103.462 240.321 103.187 240.321 102.881V101.955C240.246 102.004 240.141 102.049 240.009 102.091C239.88 102.129 239.734 102.165 239.571 102.199C239.408 102.229 239.246 102.258 239.083 102.284C238.92 102.307 238.772 102.328 238.64 102.347C238.355 102.388 238.107 102.455 237.895 102.545C237.683 102.636 237.518 102.759 237.401 102.915C237.283 103.066 237.225 103.256 237.225 103.483C237.225 103.812 237.344 104.064 237.583 104.239C237.825 104.409 238.132 104.494 238.503 104.494ZM251.864 99.7614L249.648 99.8977C249.61 99.7083 249.529 99.5379 249.404 99.3864C249.279 99.2311 249.114 99.108 248.909 99.017C248.709 98.9223 248.468 98.875 248.188 98.875C247.813 98.875 247.497 98.9545 247.239 99.1136C246.981 99.2689 246.853 99.4773 246.853 99.7386C246.853 99.947 246.936 100.123 247.103 100.267C247.269 100.411 247.555 100.527 247.961 100.614L249.54 100.932C250.389 101.106 251.021 101.386 251.438 101.773C251.855 102.159 252.063 102.667 252.063 103.295C252.063 103.867 251.894 104.369 251.557 104.801C251.224 105.233 250.766 105.57 250.182 105.812C249.603 106.051 248.934 106.17 248.176 106.17C247.021 106.17 246.101 105.93 245.415 105.449C244.733 104.964 244.334 104.305 244.216 103.472L246.597 103.347C246.669 103.699 246.843 103.968 247.12 104.153C247.396 104.335 247.75 104.426 248.182 104.426C248.606 104.426 248.947 104.345 249.205 104.182C249.466 104.015 249.599 103.801 249.603 103.54C249.599 103.32 249.506 103.14 249.324 103C249.142 102.856 248.862 102.746 248.483 102.67L246.972 102.369C246.12 102.199 245.485 101.903 245.069 101.483C244.656 101.062 244.449 100.527 244.449 99.875C244.449 99.3144 244.601 98.8314 244.904 98.4261C245.211 98.0208 245.641 97.7083 246.194 97.4886C246.75 97.2689 247.402 97.1591 248.148 97.1591C249.25 97.1591 250.118 97.392 250.75 97.858C251.387 98.3239 251.758 98.9583 251.864 99.7614ZM260.848 99.7614L258.632 99.8977C258.595 99.7083 258.513 99.5379 258.388 99.3864C258.263 99.2311 258.098 99.108 257.894 99.017C257.693 98.9223 257.453 98.875 257.172 98.875C256.797 98.875 256.481 98.9545 256.223 99.1136C255.966 99.2689 255.837 99.4773 255.837 99.7386C255.837 99.947 255.92 100.123 256.087 100.267C256.254 100.411 256.54 100.527 256.945 100.614L258.525 100.932C259.373 101.106 260.006 101.386 260.422 101.773C260.839 102.159 261.047 102.667 261.047 103.295C261.047 103.867 260.879 104.369 260.542 104.801C260.208 105.233 259.75 105.57 259.167 105.812C258.587 106.051 257.918 106.17 257.161 106.17C256.006 106.17 255.085 105.93 254.4 105.449C253.718 104.964 253.318 104.305 253.201 103.472L255.581 103.347C255.653 103.699 255.828 103.968 256.104 104.153C256.381 104.335 256.735 104.426 257.167 104.426C257.591 104.426 257.932 104.345 258.189 104.182C258.451 104.015 258.583 103.801 258.587 103.54C258.583 103.32 258.49 103.14 258.309 103C258.127 102.856 257.846 102.746 257.468 102.67L255.956 102.369C255.104 102.199 254.47 101.903 254.053 101.483C253.64 101.062 253.434 100.527 253.434 99.875C253.434 99.3144 253.585 98.8314 253.888 98.4261C254.195 98.0208 254.625 97.7083 255.178 97.4886C255.735 97.2689 256.386 97.1591 257.132 97.1591C258.235 97.1591 259.102 97.392 259.735 97.858C260.371 98.3239 260.742 98.9583 260.848 99.7614ZM268.939 106L265.61 94.3636H268.297L270.223 102.449H270.32L272.445 94.3636H274.746L276.865 102.466H276.968L278.894 94.3636H281.581L278.252 106H275.854L273.638 98.392H273.547L271.337 106H268.939ZM284.404 106.165C283.847 106.165 283.351 106.068 282.915 105.875C282.48 105.678 282.135 105.388 281.881 105.006C281.631 104.619 281.506 104.138 281.506 103.562C281.506 103.078 281.595 102.67 281.773 102.341C281.951 102.011 282.194 101.746 282.5 101.545C282.807 101.345 283.156 101.193 283.546 101.091C283.94 100.989 284.353 100.917 284.784 100.875C285.292 100.822 285.701 100.773 286.012 100.727C286.322 100.678 286.548 100.606 286.688 100.511C286.828 100.417 286.898 100.277 286.898 100.091V100.057C286.898 99.697 286.784 99.4186 286.557 99.2216C286.334 99.0246 286.016 98.9261 285.603 98.9261C285.167 98.9261 284.82 99.0227 284.563 99.2159C284.305 99.4053 284.135 99.6439 284.051 99.9318L281.813 99.75C281.926 99.2197 282.15 98.7614 282.483 98.375C282.817 97.9848 283.247 97.6856 283.773 97.4773C284.303 97.2652 284.917 97.1591 285.614 97.1591C286.099 97.1591 286.563 97.2159 287.006 97.3295C287.453 97.4432 287.849 97.6193 288.194 97.858C288.542 98.0966 288.817 98.4034 289.017 98.7784C289.218 99.1496 289.319 99.5947 289.319 100.114V106H287.023V104.79H286.955C286.815 105.062 286.627 105.303 286.392 105.511C286.158 105.716 285.875 105.877 285.546 105.994C285.216 106.108 284.836 106.165 284.404 106.165ZM285.097 104.494C285.453 104.494 285.767 104.424 286.04 104.284C286.313 104.14 286.527 103.947 286.682 103.705C286.837 103.462 286.915 103.187 286.915 102.881V101.955C286.839 102.004 286.735 102.049 286.603 102.091C286.474 102.129 286.328 102.165 286.165 102.199C286.002 102.229 285.839 102.258 285.676 102.284C285.514 102.307 285.366 102.328 285.233 102.347C284.949 102.388 284.701 102.455 284.489 102.545C284.277 102.636 284.112 102.759 283.995 102.915C283.877 103.066 283.819 103.256 283.819 103.483C283.819 103.812 283.938 104.064 284.176 104.239C284.419 104.409 284.726 104.494 285.097 104.494ZM293.617 94.3636V106H291.196V94.3636H293.617ZM297.976 94.3636V106H295.556V94.3636H297.976Z" fill="#232325"/>
<path d="M334.385 74.9659H335.953L336.741 75.9801L337.517 76.8835L338.978 78.7159H337.257L336.251 77.4801L335.735 76.7472L334.385 74.9659ZM339.11 73.6364C339.11 74.5881 338.93 75.3977 338.569 76.0653C338.211 76.733 337.723 77.2429 337.103 77.5952C336.487 77.9446 335.794 78.1193 335.024 78.1193C334.248 78.1193 333.552 77.9432 332.936 77.5909C332.319 77.2386 331.832 76.7287 331.474 76.0611C331.116 75.3935 330.937 74.5852 330.937 73.6364C330.937 72.6847 331.116 71.875 331.474 71.2074C331.832 70.5398 332.319 70.0312 332.936 69.6818C333.552 69.3295 334.248 69.1534 335.024 69.1534C335.794 69.1534 336.487 69.3295 337.103 69.6818C337.723 70.0312 338.211 70.5398 338.569 71.2074C338.93 71.875 339.11 72.6847 339.11 73.6364ZM337.24 73.6364C337.24 73.0199 337.147 72.5 336.963 72.0767C336.781 71.6534 336.524 71.3324 336.191 71.1136C335.859 70.8949 335.47 70.7855 335.024 70.7855C334.578 70.7855 334.189 70.8949 333.856 71.1136C333.524 71.3324 333.265 71.6534 333.081 72.0767C332.899 72.5 332.808 73.0199 332.808 73.6364C332.808 74.2528 332.899 74.7727 333.081 75.196C333.265 75.6193 333.524 75.9403 333.856 76.1591C334.189 76.3778 334.578 76.4872 335.024 76.4872C335.47 76.4872 335.859 76.3778 336.191 76.1591C336.524 75.9403 336.781 75.6193 336.963 75.196C337.147 74.7727 337.24 74.2528 337.24 73.6364ZM344.641 75.2131V71.4545H346.456V78H344.713V76.8111H344.645C344.497 77.1946 344.251 77.5028 343.908 77.7358C343.567 77.9687 343.151 78.0852 342.659 78.0852C342.222 78.0852 341.837 77.9858 341.504 77.7869C341.172 77.5881 340.912 77.3054 340.724 76.9389C340.54 76.5724 340.446 76.1335 340.443 75.6222V71.4545H342.259V75.2983C342.261 75.6847 342.365 75.9901 342.57 76.2145C342.774 76.4389 343.048 76.5511 343.392 76.5511C343.611 76.5511 343.815 76.5014 344.006 76.402C344.196 76.2997 344.349 76.1491 344.466 75.9503C344.585 75.7514 344.643 75.5057 344.641 75.2131ZM349.775 78.1236C349.357 78.1236 348.985 78.0511 348.658 77.9062C348.331 77.7585 348.073 77.5412 347.882 77.2543C347.695 76.9645 347.601 76.6037 347.601 76.1719C347.601 75.8082 347.668 75.5028 347.801 75.2557C347.935 75.0085 348.117 74.8097 348.347 74.6591C348.577 74.5085 348.838 74.3949 349.131 74.3182C349.426 74.2415 349.736 74.1875 350.06 74.1562C350.441 74.1165 350.748 74.0795 350.98 74.0455C351.213 74.0085 351.382 73.9545 351.488 73.8835C351.593 73.8125 351.645 73.7074 351.645 73.5682V73.5426C351.645 73.2727 351.56 73.0639 351.39 72.9162C351.222 72.7685 350.983 72.6946 350.674 72.6946C350.347 72.6946 350.087 72.767 349.894 72.9119C349.701 73.054 349.573 73.233 349.51 73.4489L347.831 73.3125C347.917 72.9148 348.084 72.571 348.334 72.2812C348.584 71.9886 348.907 71.7642 349.301 71.608C349.699 71.4489 350.159 71.3693 350.682 71.3693C351.046 71.3693 351.394 71.4119 351.726 71.4972C352.061 71.5824 352.358 71.7145 352.617 71.8935C352.878 72.0724 353.084 72.3026 353.235 72.5838C353.385 72.8622 353.461 73.196 353.461 73.5852V78H351.739V77.0923H351.688C351.583 77.2969 351.442 77.4773 351.266 77.6335C351.09 77.7869 350.878 77.9077 350.631 77.9957C350.384 78.081 350.098 78.1236 349.775 78.1236ZM350.294 76.8707C350.561 76.8707 350.797 76.8182 351.002 76.7131C351.206 76.6051 351.367 76.4602 351.483 76.2784C351.6 76.0966 351.658 75.8906 351.658 75.6605V74.9659C351.601 75.0028 351.523 75.0369 351.424 75.0682C351.327 75.0966 351.218 75.1236 351.096 75.1491C350.973 75.1719 350.851 75.1932 350.729 75.2131C350.607 75.2301 350.496 75.2457 350.397 75.2599C350.184 75.2912 349.998 75.3409 349.838 75.4091C349.679 75.4773 349.556 75.5696 349.468 75.6861C349.38 75.7997 349.336 75.9418 349.336 76.1122C349.336 76.3594 349.425 76.5483 349.604 76.679C349.786 76.8068 350.016 76.8707 350.294 76.8707ZM356.684 74.2159V78H354.869V71.4545H356.599V72.6094H356.676C356.821 72.2287 357.064 71.9276 357.404 71.706C357.745 71.4815 358.159 71.3693 358.645 71.3693C359.099 71.3693 359.495 71.4688 359.833 71.6676C360.172 71.8665 360.434 72.1506 360.622 72.5199C360.809 72.8864 360.903 73.3239 360.903 73.8324V78H359.088V74.1562C359.091 73.7557 358.988 73.4432 358.781 73.2188C358.574 72.9915 358.288 72.8778 357.924 72.8778C357.68 72.8778 357.464 72.9304 357.277 73.0355C357.092 73.1406 356.947 73.294 356.842 73.4957C356.74 73.6946 356.687 73.9347 356.684 74.2159ZM365.815 71.4545V72.8182H361.874V71.4545H365.815ZM362.768 69.8864H364.584V75.9886C364.584 76.1562 364.609 76.2869 364.661 76.3807C364.712 76.4716 364.783 76.5355 364.874 76.5724C364.967 76.6094 365.075 76.6278 365.197 76.6278C365.283 76.6278 365.368 76.6207 365.453 76.6065C365.538 76.5895 365.604 76.5767 365.649 76.5682L365.935 77.919C365.844 77.9474 365.716 77.9801 365.551 78.017C365.386 78.0568 365.186 78.081 364.95 78.0895C364.513 78.1065 364.129 78.0483 363.8 77.9148C363.473 77.7812 363.219 77.5739 363.037 77.2926C362.855 77.0114 362.766 76.6562 362.768 76.2273V69.8864ZM366.998 78V71.4545H368.813V78H366.998ZM367.91 70.6108C367.64 70.6108 367.408 70.5213 367.215 70.3423C367.025 70.1605 366.93 69.9432 366.93 69.6903C366.93 69.4403 367.025 69.2259 367.215 69.0469C367.408 68.8651 367.64 68.7741 367.91 68.7741C368.18 68.7741 368.41 68.8651 368.6 69.0469C368.793 69.2259 368.89 69.4403 368.89 69.6903C368.89 69.9432 368.793 70.1605 368.6 70.3423C368.41 70.5213 368.18 70.6108 367.91 70.6108ZM373.749 71.4545V72.8182H369.807V71.4545H373.749ZM370.702 69.8864H372.517V75.9886C372.517 76.1562 372.543 76.2869 372.594 76.3807C372.645 76.4716 372.716 76.5355 372.807 76.5724C372.901 76.6094 373.009 76.6278 373.131 76.6278C373.216 76.6278 373.301 76.6207 373.387 76.6065C373.472 76.5895 373.537 76.5767 373.583 76.5682L373.868 77.919C373.777 77.9474 373.65 77.9801 373.485 78.017C373.32 78.0568 373.12 78.081 372.884 78.0895C372.446 78.1065 372.063 78.0483 371.733 77.9148C371.407 77.7812 371.152 77.5739 370.971 77.2926C370.789 77.0114 370.699 76.6562 370.702 76.2273V69.8864ZM376.052 80.4545C375.822 80.4545 375.606 80.4361 375.404 80.3991C375.206 80.3651 375.041 80.321 374.91 80.267L375.319 78.9119C375.532 78.9773 375.724 79.0128 375.895 79.0185C376.068 79.0241 376.217 78.9844 376.342 78.8991C376.47 78.8139 376.574 78.669 376.653 78.4645L376.76 78.1875L374.412 71.4545H376.321L377.676 76.2614H377.744L379.112 71.4545H381.034L378.49 78.7074C378.368 79.0597 378.201 79.3665 377.991 79.6278C377.784 79.892 377.521 80.0952 377.203 80.2372C376.885 80.3821 376.501 80.4545 376.052 80.4545Z" fill="#6F727A"/>
<path d="M335.485 94.2045C336.084 94.2045 336.66 94.3049 337.213 94.5057C337.77 94.7064 338.266 95.0265 338.701 95.4659C339.141 95.9053 339.487 96.4886 339.741 97.2159C339.999 97.9394 340.129 98.8277 340.133 99.8807C340.133 100.869 340.021 101.752 339.798 102.528C339.578 103.301 339.262 103.958 338.849 104.5C338.436 105.042 337.938 105.455 337.355 105.739C336.771 106.019 336.12 106.159 335.4 106.159C334.624 106.159 333.938 106.009 333.343 105.71C332.749 105.407 332.27 104.996 331.906 104.477C331.546 103.955 331.328 103.367 331.252 102.716H333.679C333.773 103.14 333.972 103.47 334.275 103.705C334.578 103.936 334.953 104.051 335.4 104.051C336.158 104.051 336.734 103.722 337.127 103.062C337.521 102.4 337.72 101.492 337.724 100.341H337.645C337.47 100.682 337.235 100.975 336.94 101.222C336.645 101.464 336.306 101.652 335.923 101.784C335.544 101.917 335.141 101.983 334.713 101.983C334.027 101.983 333.415 101.822 332.877 101.5C332.34 101.178 331.915 100.735 331.605 100.17C331.294 99.6061 331.139 98.9621 331.139 98.2386C331.135 97.4583 331.315 96.7633 331.679 96.1534C332.042 95.5436 332.55 95.0663 333.201 94.7216C333.857 94.3731 334.618 94.2008 335.485 94.2045ZM335.502 96.1364C335.12 96.1364 334.779 96.2273 334.48 96.4091C334.184 96.5909 333.949 96.8352 333.775 97.142C333.605 97.4489 333.521 97.7917 333.525 98.1705C333.525 98.553 333.609 98.8977 333.775 99.2045C333.946 99.5076 334.177 99.75 334.468 99.9318C334.764 100.11 335.101 100.199 335.48 100.199C335.764 100.199 336.027 100.146 336.27 100.04C336.512 99.9337 336.722 99.7879 336.9 99.6023C337.082 99.4129 337.224 99.1951 337.326 98.9489C337.429 98.7027 337.48 98.4413 337.48 98.1648C337.476 97.7973 337.389 97.4602 337.218 97.1534C337.048 96.8466 336.813 96.6004 336.514 96.4148C336.215 96.2292 335.877 96.1364 335.502 96.1364ZM346.048 94.2045C346.646 94.2045 347.222 94.3049 347.775 94.5057C348.332 94.7064 348.828 95.0265 349.264 95.4659C349.703 95.9053 350.05 96.4886 350.304 97.2159C350.561 97.9394 350.692 98.8277 350.696 99.8807C350.696 100.869 350.584 101.752 350.36 102.528C350.141 103.301 349.824 103.958 349.412 104.5C348.999 105.042 348.501 105.455 347.917 105.739C347.334 106.019 346.682 106.159 345.963 106.159C345.186 106.159 344.501 106.009 343.906 105.71C343.311 105.407 342.832 104.996 342.468 104.477C342.109 103.955 341.891 103.367 341.815 102.716H344.241C344.336 103.14 344.535 103.47 344.838 103.705C345.141 103.936 345.516 104.051 345.963 104.051C346.72 104.051 347.296 103.722 347.69 103.062C348.084 102.4 348.283 101.492 348.287 100.341H348.207C348.033 100.682 347.798 100.975 347.502 101.222C347.207 101.464 346.868 101.652 346.485 101.784C346.107 101.917 345.703 101.983 345.275 101.983C344.59 101.983 343.978 101.822 343.44 101.5C342.902 101.178 342.478 100.735 342.167 100.17C341.857 99.6061 341.701 98.9621 341.701 98.2386C341.698 97.4583 341.877 96.7633 342.241 96.1534C342.605 95.5436 343.112 95.0663 343.764 94.7216C344.419 94.3731 345.181 94.2008 346.048 94.2045ZM346.065 96.1364C345.682 96.1364 345.342 96.2273 345.042 96.4091C344.747 96.5909 344.512 96.8352 344.338 97.142C344.167 97.4489 344.084 97.7917 344.088 98.1705C344.088 98.553 344.171 98.8977 344.338 99.2045C344.508 99.5076 344.739 99.75 345.031 99.9318C345.326 100.11 345.663 100.199 346.042 100.199C346.326 100.199 346.59 100.146 346.832 100.04C347.074 99.9337 347.285 99.7879 347.463 99.6023C347.645 99.4129 347.787 99.1951 347.889 98.9489C347.991 98.7027 348.042 98.4413 348.042 98.1648C348.038 97.7973 347.951 97.4602 347.781 97.1534C347.61 96.8466 347.376 96.6004 347.076 96.4148C346.777 96.2292 346.44 96.1364 346.065 96.1364ZM356.61 94.2045C357.209 94.2045 357.785 94.3049 358.338 94.5057C358.895 94.7064 359.391 95.0265 359.826 95.4659C360.266 95.9053 360.612 96.4886 360.866 97.2159C361.124 97.9394 361.254 98.8277 361.258 99.8807C361.258 100.869 361.146 101.752 360.923 102.528C360.703 103.301 360.387 103.958 359.974 104.5C359.561 105.042 359.063 105.455 358.48 105.739C357.896 106.019 357.245 106.159 356.525 106.159C355.749 106.159 355.063 106.009 354.468 105.71C353.874 105.407 353.395 104.996 353.031 104.477C352.671 103.955 352.453 103.367 352.377 102.716H354.804C354.898 103.14 355.097 103.47 355.4 103.705C355.703 103.936 356.078 104.051 356.525 104.051C357.283 104.051 357.859 103.722 358.252 103.062C358.646 102.4 358.845 101.492 358.849 100.341H358.77C358.595 100.682 358.36 100.975 358.065 101.222C357.77 101.464 357.431 101.652 357.048 101.784C356.669 101.917 356.266 101.983 355.838 101.983C355.152 101.983 354.54 101.822 354.002 101.5C353.465 101.178 353.04 100.735 352.73 100.17C352.419 99.6061 352.264 98.9621 352.264 98.2386C352.26 97.4583 352.44 96.7633 352.804 96.1534C353.167 95.5436 353.675 95.0663 354.326 94.7216C354.982 94.3731 355.743 94.2008 356.61 94.2045ZM356.627 96.1364C356.245 96.1364 355.904 96.2273 355.605 96.4091C355.309 96.5909 355.074 96.8352 354.9 97.142C354.73 97.4489 354.646 97.7917 354.65 98.1705C354.65 98.553 354.734 98.8977 354.9 99.2045C355.071 99.5076 355.302 99.75 355.593 99.9318C355.889 100.11 356.226 100.199 356.605 100.199C356.889 100.199 357.152 100.146 357.395 100.04C357.637 99.9337 357.847 99.7879 358.025 99.6023C358.207 99.4129 358.349 99.1951 358.451 98.9489C358.554 98.7027 358.605 98.4413 358.605 98.1648C358.601 97.7973 358.514 97.4602 358.343 97.1534C358.173 96.8466 357.938 96.6004 357.639 96.4148C357.34 96.2292 357.002 96.1364 356.627 96.1364Z" fill="#232325"/>
<path d="M412.759 78V69.2727H416.202C416.864 69.2727 417.428 69.3991 417.893 69.652C418.359 69.902 418.714 70.25 418.959 70.696C419.206 71.1392 419.33 71.6506 419.33 72.2301C419.33 72.8097 419.205 73.321 418.955 73.7642C418.705 74.2074 418.342 74.5526 417.868 74.7997C417.396 75.0469 416.825 75.1705 416.155 75.1705H413.96V73.6918H415.857C416.212 73.6918 416.504 73.6307 416.734 73.5085C416.967 73.3835 417.141 73.2116 417.254 72.9929C417.371 72.7713 417.429 72.517 417.429 72.2301C417.429 71.9403 417.371 71.6875 417.254 71.4716C417.141 71.2528 416.967 71.0838 416.734 70.9645C416.501 70.8423 416.206 70.7812 415.848 70.7812H414.604V78H412.759ZM422.185 78.1236C421.767 78.1236 421.395 78.0511 421.068 77.9062C420.741 77.7585 420.483 77.5412 420.293 77.2543C420.105 76.9645 420.011 76.6037 420.011 76.1719C420.011 75.8082 420.078 75.5028 420.212 75.2557C420.345 75.0085 420.527 74.8097 420.757 74.6591C420.987 74.5085 421.249 74.3949 421.541 74.3182C421.837 74.2415 422.146 74.1875 422.47 74.1562C422.851 74.1165 423.158 74.0795 423.391 74.0455C423.624 74.0085 423.793 73.9545 423.898 73.8835C424.003 73.8125 424.055 73.7074 424.055 73.5682V73.5426C424.055 73.2727 423.97 73.0639 423.8 72.9162C423.632 72.7685 423.393 72.6946 423.084 72.6946C422.757 72.6946 422.497 72.767 422.304 72.9119C422.111 73.054 421.983 73.233 421.92 73.4489L420.241 73.3125C420.327 72.9148 420.494 72.571 420.744 72.2812C420.994 71.9886 421.317 71.7642 421.712 71.608C422.109 71.4489 422.57 71.3693 423.092 71.3693C423.456 71.3693 423.804 71.4119 424.136 71.4972C424.472 71.5824 424.768 71.7145 425.027 71.8935C425.288 72.0724 425.494 72.3026 425.645 72.5838C425.795 72.8622 425.871 73.196 425.871 73.5852V78H424.149V77.0923H424.098C423.993 77.2969 423.852 77.4773 423.676 77.6335C423.5 77.7869 423.288 77.9077 423.041 77.9957C422.794 78.081 422.509 78.1236 422.185 78.1236ZM422.705 76.8707C422.972 76.8707 423.207 76.8182 423.412 76.7131C423.616 76.6051 423.777 76.4602 423.893 76.2784C424.01 76.0966 424.068 75.8906 424.068 75.6605V74.9659C424.011 75.0028 423.933 75.0369 423.834 75.0682C423.737 75.0966 423.628 75.1236 423.506 75.1491C423.384 75.1719 423.261 75.1932 423.139 75.2131C423.017 75.2301 422.906 75.2457 422.807 75.2599C422.594 75.2912 422.408 75.3409 422.249 75.4091C422.089 75.4773 421.966 75.5696 421.878 75.6861C421.79 75.7997 421.746 75.9418 421.746 76.1122C421.746 76.3594 421.835 76.5483 422.014 76.679C422.196 76.8068 422.426 76.8707 422.705 76.8707ZM428.165 80.4545C427.935 80.4545 427.719 80.4361 427.518 80.3991C427.319 80.3651 427.154 80.321 427.023 80.267L427.433 78.9119C427.646 78.9773 427.837 79.0128 428.008 79.0185C428.181 79.0241 428.33 78.9844 428.455 78.8991C428.583 78.8139 428.687 78.669 428.766 78.4645L428.873 78.1875L426.525 71.4545H428.434L429.789 76.2614H429.857L431.225 71.4545H433.147L430.603 78.7074C430.481 79.0597 430.315 79.3665 430.104 79.6278C429.897 79.892 429.634 80.0952 429.316 80.2372C428.998 80.3821 428.614 80.4545 428.165 80.4545ZM434.076 78V71.4545H435.806V72.6094H435.883C436.019 72.2259 436.246 71.9233 436.565 71.7017C436.883 71.4801 437.263 71.3693 437.707 71.3693C438.156 71.3693 438.538 71.4815 438.853 71.706C439.168 71.9276 439.379 72.2287 439.484 72.6094H439.552C439.685 72.2344 439.927 71.9347 440.276 71.7102C440.629 71.483 441.045 71.3693 441.525 71.3693C442.136 71.3693 442.631 71.5639 443.012 71.9531C443.396 72.3395 443.587 72.8878 443.587 73.598V78H441.776V73.956C441.776 73.5923 441.68 73.3196 441.487 73.1378C441.293 72.956 441.052 72.8651 440.762 72.8651C440.433 72.8651 440.175 72.9702 439.991 73.1804C439.806 73.3878 439.714 73.6619 439.714 74.0028V78H437.954V73.9176C437.954 73.5966 437.862 73.3409 437.677 73.1506C437.495 72.9602 437.255 72.8651 436.957 72.8651C436.755 72.8651 436.573 72.9162 436.411 73.0185C436.252 73.1179 436.126 73.2585 436.032 73.4403C435.938 73.6193 435.891 73.8295 435.891 74.071V78H434.076ZM448.004 78.1278C447.331 78.1278 446.751 77.9915 446.266 77.7188C445.783 77.4432 445.411 77.054 445.149 76.5511C444.888 76.0455 444.757 75.4474 444.757 74.7571C444.757 74.0838 444.888 73.4929 445.149 72.9844C445.411 72.4759 445.778 72.0795 446.253 71.7955C446.73 71.5114 447.29 71.3693 447.932 71.3693C448.364 71.3693 448.766 71.4389 449.138 71.5781C449.513 71.7145 449.839 71.9205 450.118 72.196C450.399 72.4716 450.618 72.8182 450.774 73.2358C450.93 73.6506 451.009 74.1364 451.009 74.6932V75.1918H445.482V74.0668H449.3C449.3 73.8054 449.243 73.5739 449.129 73.3722C449.016 73.1705 448.858 73.0128 448.656 72.8991C448.457 72.7827 448.226 72.7244 447.962 72.7244C447.686 72.7244 447.442 72.7884 447.229 72.9162C447.018 73.0412 446.854 73.2102 446.734 73.4233C446.615 73.6335 446.554 73.8679 446.551 74.1264V75.196C446.551 75.5199 446.611 75.7997 446.73 76.0355C446.852 76.2713 447.024 76.4531 447.246 76.581C447.467 76.7088 447.73 76.7727 448.034 76.7727C448.236 76.7727 448.42 76.7443 448.588 76.6875C448.756 76.6307 448.899 76.5455 449.018 76.4318C449.138 76.3182 449.229 76.179 449.291 76.0142L450.97 76.125C450.885 76.5284 450.71 76.8807 450.446 77.1818C450.185 77.4801 449.847 77.7131 449.432 77.8807C449.02 78.0455 448.544 78.1278 448.004 78.1278ZM454.009 74.2159V78H452.193V71.4545H453.923V72.6094H454C454.145 72.2287 454.388 71.9276 454.729 71.706C455.07 71.4815 455.483 71.3693 455.969 71.3693C456.423 71.3693 456.82 71.4688 457.158 71.6676C457.496 71.8665 457.759 72.1506 457.946 72.5199C458.134 72.8864 458.227 73.3239 458.227 73.8324V78H456.412V74.1562C456.415 73.7557 456.313 73.4432 456.105 73.2188C455.898 72.9915 455.612 72.8778 455.249 72.8778C455.004 72.8778 454.788 72.9304 454.601 73.0355C454.416 73.1406 454.271 73.294 454.166 73.4957C454.064 73.6946 454.011 73.9347 454.009 74.2159ZM463.14 71.4545V72.8182H459.198V71.4545H463.14ZM460.093 69.8864H461.908V75.9886C461.908 76.1562 461.934 76.2869 461.985 76.3807C462.036 76.4716 462.107 76.5355 462.198 76.5724C462.292 76.6094 462.4 76.6278 462.522 76.6278C462.607 76.6278 462.692 76.6207 462.777 76.6065C462.863 76.5895 462.928 76.5767 462.973 76.5682L463.259 77.919C463.168 77.9474 463.04 77.9801 462.875 78.017C462.711 78.0568 462.51 78.081 462.275 78.0895C461.837 78.1065 461.453 78.0483 461.124 77.9148C460.797 77.7812 460.543 77.5739 460.361 77.2926C460.179 77.0114 460.09 76.6562 460.093 76.2273V69.8864ZM467.134 69.2727H469.409L471.812 75.1364H471.915L474.318 69.2727H476.594V78H474.804V72.3196H474.732L472.473 77.9574H471.254L468.996 72.2983H468.923V78H467.134V69.2727ZM481.037 78.1278C480.375 78.1278 479.803 77.9872 479.32 77.706C478.84 77.4219 478.469 77.027 478.208 76.5213C477.946 76.0128 477.816 75.4233 477.816 74.7528C477.816 74.0767 477.946 73.4858 478.208 72.9801C478.469 72.4716 478.84 72.0767 479.32 71.7955C479.803 71.5114 480.375 71.3693 481.037 71.3693C481.699 71.3693 482.27 71.5114 482.75 71.7955C483.233 72.0767 483.605 72.4716 483.867 72.9801C484.128 73.4858 484.259 74.0767 484.259 74.7528C484.259 75.4233 484.128 76.0128 483.867 76.5213C483.605 77.027 483.233 77.4219 482.75 77.706C482.27 77.9872 481.699 78.1278 481.037 78.1278ZM481.046 76.7216C481.347 76.7216 481.598 76.6364 481.8 76.4659C482.002 76.2926 482.154 76.0568 482.256 75.7585C482.361 75.4602 482.414 75.1207 482.414 74.7401C482.414 74.3594 482.361 74.0199 482.256 73.7216C482.154 73.4233 482.002 73.1875 481.8 73.0142C481.598 72.8409 481.347 72.7543 481.046 72.7543C480.742 72.7543 480.486 72.8409 480.279 73.0142C480.074 73.1875 479.919 73.4233 479.814 73.7216C479.712 74.0199 479.661 74.3594 479.661 74.7401C479.661 75.1207 479.712 75.4602 479.814 75.7585C479.919 76.0568 480.074 76.2926 480.279 76.4659C480.486 76.6364 480.742 76.7216 481.046 76.7216ZM487.851 78.1065C487.354 78.1065 486.904 77.9787 486.5 77.723C486.1 77.4645 485.782 77.0852 485.546 76.5852C485.313 76.0824 485.196 75.4659 485.196 74.7358C485.196 73.9858 485.317 73.3622 485.559 72.8651C485.8 72.3651 486.121 71.9915 486.522 71.7443C486.925 71.4943 487.367 71.3693 487.847 71.3693C488.213 71.3693 488.519 71.4318 488.763 71.5568C489.01 71.679 489.209 71.8324 489.36 72.017C489.513 72.1989 489.63 72.3778 489.709 72.554H489.765V69.2727H491.576V78H489.786V76.9517H489.709C489.624 77.1335 489.503 77.3139 489.347 77.4929C489.194 77.669 488.993 77.8153 488.746 77.9318C488.502 78.0483 488.203 78.1065 487.851 78.1065ZM488.426 76.6619C488.719 76.6619 488.966 76.5824 489.168 76.4233C489.373 76.2614 489.529 76.0355 489.637 75.7457C489.748 75.456 489.803 75.1165 489.803 74.7273C489.803 74.3381 489.749 74 489.641 73.7131C489.533 73.4261 489.377 73.2045 489.172 73.0483C488.968 72.892 488.719 72.8139 488.426 72.8139C488.128 72.8139 487.877 72.8949 487.672 73.0568C487.468 73.2187 487.313 73.4432 487.208 73.7301C487.103 74.017 487.05 74.3494 487.05 74.7273C487.05 75.108 487.103 75.4446 487.208 75.7372C487.316 76.027 487.471 76.2543 487.672 76.419C487.877 76.581 488.128 76.6619 488.426 76.6619ZM496.051 78.1278C495.378 78.1278 494.798 77.9915 494.312 77.7188C493.83 77.4432 493.457 77.054 493.196 76.5511C492.935 76.0455 492.804 75.4474 492.804 74.7571C492.804 74.0838 492.935 73.4929 493.196 72.9844C493.457 72.4759 493.825 72.0795 494.3 71.7955C494.777 71.5114 495.337 71.3693 495.979 71.3693C496.411 71.3693 496.813 71.4389 497.185 71.5781C497.56 71.7145 497.886 71.9205 498.165 72.196C498.446 72.4716 498.665 72.8182 498.821 73.2358C498.977 73.6506 499.055 74.1364 499.055 74.6932V75.1918H493.528V74.0668H497.347C497.347 73.8054 497.29 73.5739 497.176 73.3722C497.063 73.1705 496.905 73.0128 496.703 72.8991C496.504 72.7827 496.273 72.7244 496.009 72.7244C495.733 72.7244 495.489 72.7884 495.276 72.9162C495.065 73.0412 494.901 73.2102 494.781 73.4233C494.662 73.6335 494.601 73.8679 494.598 74.1264V75.196C494.598 75.5199 494.658 75.7997 494.777 76.0355C494.899 76.2713 495.071 76.4531 495.293 76.581C495.514 76.7088 495.777 76.7727 496.081 76.7727C496.283 76.7727 496.467 76.7443 496.635 76.6875C496.803 76.6307 496.946 76.5455 497.065 76.4318C497.185 76.3182 497.276 76.179 497.338 76.0142L499.017 76.125C498.932 76.5284 498.757 76.8807 498.493 77.1818C498.232 77.4801 497.893 77.7131 497.479 77.8807C497.067 78.0455 496.591 78.1278 496.051 78.1278Z" fill="#6F727A"/>
<path d="M423.278 98.4375H420.79C420.744 98.1155 420.652 97.8295 420.511 97.5795C420.371 97.3258 420.191 97.1098 419.972 96.9318C419.752 96.7538 419.498 96.6174 419.21 96.5227C418.926 96.428 418.617 96.3807 418.284 96.3807C417.682 96.3807 417.157 96.5303 416.71 96.8295C416.263 97.125 415.917 97.5568 415.67 98.125C415.424 98.6894 415.301 99.375 415.301 100.182C415.301 101.011 415.424 101.708 415.67 102.273C415.92 102.837 416.269 103.263 416.716 103.551C417.163 103.839 417.68 103.983 418.267 103.983C418.597 103.983 418.902 103.939 419.182 103.852C419.466 103.765 419.718 103.638 419.938 103.472C420.157 103.301 420.339 103.095 420.483 102.852C420.631 102.61 420.733 102.333 420.79 102.023L423.278 102.034C423.214 102.568 423.053 103.083 422.795 103.58C422.542 104.072 422.199 104.513 421.767 104.903C421.339 105.29 420.828 105.597 420.233 105.824C419.642 106.047 418.973 106.159 418.227 106.159C417.189 106.159 416.261 105.924 415.443 105.455C414.629 104.985 413.985 104.305 413.511 103.415C413.042 102.525 412.807 101.447 412.807 100.182C412.807 98.9129 413.045 97.8333 413.523 96.9432C414 96.053 414.648 95.375 415.466 94.9091C416.284 94.4394 417.205 94.2045 418.227 94.2045C418.902 94.2045 419.527 94.2992 420.102 94.4886C420.682 94.678 421.195 94.9545 421.642 95.3182C422.089 95.678 422.453 96.1193 422.733 96.642C423.017 97.1648 423.199 97.7633 423.278 98.4375ZM427.486 106.165C426.929 106.165 426.433 106.068 425.997 105.875C425.562 105.678 425.217 105.388 424.963 105.006C424.713 104.619 424.588 104.138 424.588 103.562C424.588 103.078 424.677 102.67 424.855 102.341C425.033 102.011 425.276 101.746 425.582 101.545C425.889 101.345 426.238 101.193 426.628 101.091C427.022 100.989 427.435 100.917 427.866 100.875C428.374 100.822 428.783 100.773 429.094 100.727C429.404 100.678 429.63 100.606 429.77 100.511C429.91 100.417 429.98 100.277 429.98 100.091V100.057C429.98 99.697 429.866 99.4186 429.639 99.2216C429.416 99.0246 429.098 98.9261 428.685 98.9261C428.249 98.9261 427.902 99.0227 427.645 99.2159C427.387 99.4053 427.217 99.6439 427.134 99.9318L424.895 99.75C425.009 99.2197 425.232 98.7614 425.565 98.375C425.899 97.9848 426.329 97.6856 426.855 97.4773C427.385 97.2652 427.999 97.1591 428.696 97.1591C429.181 97.1591 429.645 97.2159 430.088 97.3295C430.535 97.4432 430.931 97.6193 431.276 97.858C431.624 98.0966 431.899 98.4034 432.099 98.7784C432.3 99.1496 432.401 99.5947 432.401 100.114V106H430.105V104.79H430.037C429.897 105.062 429.709 105.303 429.474 105.511C429.24 105.716 428.957 105.877 428.628 105.994C428.298 106.108 427.918 106.165 427.486 106.165ZM428.179 104.494C428.535 104.494 428.849 104.424 429.122 104.284C429.395 104.14 429.609 103.947 429.764 103.705C429.92 103.462 429.997 103.187 429.997 102.881V101.955C429.921 102.004 429.817 102.049 429.685 102.091C429.556 102.129 429.41 102.165 429.247 102.199C429.084 102.229 428.921 102.258 428.759 102.284C428.596 102.307 428.448 102.328 428.315 102.347C428.031 102.388 427.783 102.455 427.571 102.545C427.359 102.636 427.194 102.759 427.077 102.915C426.959 103.066 426.901 103.256 426.901 103.483C426.901 103.812 427.02 104.064 427.259 104.239C427.501 104.409 427.808 104.494 428.179 104.494ZM441.54 99.7614L439.324 99.8977C439.286 99.7083 439.205 99.5379 439.08 99.3864C438.955 99.2311 438.79 99.108 438.585 99.017C438.384 98.9223 438.144 98.875 437.864 98.875C437.489 98.875 437.172 98.9545 436.915 99.1136C436.657 99.2689 436.528 99.4773 436.528 99.7386C436.528 99.947 436.612 100.123 436.778 100.267C436.945 100.411 437.231 100.527 437.636 100.614L439.216 100.932C440.064 101.106 440.697 101.386 441.114 101.773C441.53 102.159 441.739 102.667 441.739 103.295C441.739 103.867 441.57 104.369 441.233 104.801C440.9 105.233 440.441 105.57 439.858 105.812C439.278 106.051 438.61 106.17 437.852 106.17C436.697 106.17 435.777 105.93 435.091 105.449C434.409 104.964 434.009 104.305 433.892 103.472L436.273 103.347C436.345 103.699 436.519 103.968 436.795 104.153C437.072 104.335 437.426 104.426 437.858 104.426C438.282 104.426 438.623 104.345 438.881 104.182C439.142 104.015 439.275 103.801 439.278 103.54C439.275 103.32 439.182 103.14 439 103C438.818 102.856 438.538 102.746 438.159 102.67L436.648 102.369C435.795 102.199 435.161 101.903 434.744 101.483C434.331 101.062 434.125 100.527 434.125 99.875C434.125 99.3144 434.277 98.8314 434.58 98.4261C434.886 98.0208 435.316 97.7083 435.869 97.4886C436.426 97.2689 437.078 97.1591 437.824 97.1591C438.926 97.1591 439.794 97.392 440.426 97.858C441.063 98.3239 441.434 98.9583 441.54 99.7614ZM445.683 100.955V106H443.263V94.3636H445.615V98.8125H445.717C445.914 98.2973 446.232 97.8939 446.672 97.6023C447.111 97.3068 447.662 97.1591 448.325 97.1591C448.931 97.1591 449.46 97.2917 449.911 97.5568C450.365 97.8182 450.717 98.1951 450.967 98.6875C451.221 99.1761 451.346 99.7614 451.342 100.443V106H448.922V100.875C448.926 100.337 448.789 99.9186 448.513 99.6193C448.24 99.3201 447.857 99.1705 447.365 99.1705C447.036 99.1705 446.744 99.2405 446.49 99.3807C446.24 99.5208 446.043 99.7254 445.899 99.9943C445.759 100.259 445.687 100.58 445.683 100.955Z" fill="#232325"/>
</svg>
