<svg width="262" height="161" viewBox="0 0 262 161" fill="none" xmlns="http://www.w3.org/2000/svg">
<rect width="262" height="161" rx="14" fill="white"/>
<path d="M32 127L34.29 129.29L29.41 134.17L25.41 130.17L18 137.59L19.41 139L25.41 133L29.41 137L35.71 130.71L38 133V127H32Z" fill="#00B69B"/>
<path d="M49.6 138L54.768 128.112H48.992V126.72H56.624V127.952L51.424 138H49.6ZM59.1938 138L64.3618 128.112H58.5858V126.72H66.2178V127.952L61.0178 138H59.1938ZM71.9875 138.144C70.6968 138.144 69.6888 137.867 68.9635 137.312C68.2488 136.757 67.8915 135.984 67.8915 134.992C67.8915 134.299 68.0728 133.712 68.4355 133.232C68.8088 132.741 69.2942 132.405 69.8915 132.224C69.3582 132 68.9368 131.659 68.6275 131.2C68.3182 130.731 68.1635 130.192 68.1635 129.584C68.1635 128.645 68.5102 127.909 69.2035 127.376C69.8968 126.843 70.8248 126.576 71.9875 126.576C73.1608 126.576 74.0942 126.843 74.7875 127.376C75.4808 127.909 75.8275 128.645 75.8275 129.584C75.8275 130.192 75.6675 130.731 75.3475 131.2C75.0382 131.669 74.6168 132.011 74.0835 132.224C74.6915 132.405 75.1768 132.741 75.5395 133.232C75.9022 133.712 76.0835 134.299 76.0835 134.992C76.0835 135.984 75.7208 136.757 74.9955 137.312C74.2808 137.867 73.2782 138.144 71.9875 138.144ZM71.9875 131.632C72.7022 131.632 73.2568 131.467 73.6515 131.136C74.0568 130.795 74.2595 130.331 74.2595 129.744C74.2595 129.168 74.0568 128.715 73.6515 128.384C73.2568 128.053 72.7022 127.888 71.9875 127.888C71.2728 127.888 70.7182 128.053 70.3235 128.384C69.9288 128.715 69.7315 129.168 69.7315 129.744C69.7315 130.331 69.9288 130.795 70.3235 131.136C70.7182 131.467 71.2728 131.632 71.9875 131.632ZM71.9875 136.832C73.6835 136.832 74.5315 136.181 74.5315 134.88C74.5315 133.589 73.6835 132.944 71.9875 132.944C71.1555 132.944 70.5208 133.104 70.0835 133.424C69.6568 133.744 69.4435 134.229 69.4435 134.88C69.4435 136.181 70.2915 136.832 71.9875 136.832Z" fill="#00B69B"/>
<path d="M82.2964 138V126.72H83.5604L90.0244 135.248V126.72H91.5604V138H90.3284L83.8324 129.44V138H82.2964ZM97.675 138.144C96.395 138.144 95.387 137.787 94.651 137.072C93.915 136.347 93.547 135.36 93.547 134.112C93.547 133.312 93.707 132.608 94.027 132C94.3577 131.381 94.811 130.901 95.387 130.56C95.963 130.219 96.6243 130.048 97.371 130.048C98.4483 130.048 99.2963 130.395 99.915 131.088C100.534 131.771 100.843 132.715 100.843 133.92V134.464H95.115C95.2323 136.085 96.091 136.896 97.691 136.896C98.139 136.896 98.5763 136.827 99.003 136.688C99.4403 136.549 99.851 136.32 100.235 136L100.715 137.12C100.363 137.44 99.9097 137.691 99.355 137.872C98.8003 138.053 98.2403 138.144 97.675 138.144ZM97.435 131.184C96.763 131.184 96.2297 131.392 95.835 131.808C95.4403 132.224 95.2003 132.779 95.115 133.472H99.483C99.451 132.747 99.259 132.187 98.907 131.792C98.555 131.387 98.0643 131.184 97.435 131.184ZM104.607 138L101.631 130.192H103.295L105.391 136.112L107.551 130.192H108.799L110.927 136.144L113.055 130.192H114.639L111.663 138H110.191L108.127 132.416L106.079 138H104.607ZM124.166 138.144C123.28 138.144 122.47 138.032 121.734 137.808C120.998 137.573 120.374 137.248 119.862 136.832L120.39 135.52C120.923 135.925 121.494 136.229 122.102 136.432C122.71 136.635 123.398 136.736 124.166 136.736C125.072 136.736 125.739 136.576 126.166 136.256C126.603 135.925 126.822 135.499 126.822 134.976C126.822 134.549 126.667 134.213 126.358 133.968C126.048 133.712 125.531 133.509 124.806 133.36L123.094 133.008C122.08 132.795 121.323 132.443 120.822 131.952C120.331 131.461 120.086 130.8 120.086 129.968C120.086 129.296 120.262 128.704 120.614 128.192C120.976 127.68 121.478 127.285 122.118 127.008C122.758 126.72 123.494 126.576 124.326 126.576C125.094 126.576 125.803 126.693 126.454 126.928C127.115 127.152 127.675 127.483 128.134 127.92L127.59 129.184C126.683 128.384 125.59 127.984 124.31 127.984C123.52 127.984 122.891 128.16 122.422 128.512C121.963 128.864 121.734 129.333 121.734 129.92C121.734 130.368 121.878 130.725 122.166 130.992C122.454 131.259 122.934 131.461 123.606 131.6L125.302 131.952C126.368 132.176 127.163 132.523 127.686 132.992C128.208 133.451 128.47 134.075 128.47 134.864C128.47 135.525 128.294 136.101 127.942 136.592C127.59 137.083 127.094 137.467 126.454 137.744C125.814 138.011 125.051 138.144 124.166 138.144ZM130.359 138V126.72H132.023V131.792H132.055L137.287 126.72H139.335L133.639 132.176L139.655 138H137.575L132.055 132.736H132.023V138H130.359ZM145.044 138.144C143.54 138.144 142.388 137.749 141.588 136.96C140.799 136.16 140.404 134.992 140.404 133.456V126.72H142.068V133.424C142.068 135.611 143.06 136.704 145.044 136.704C147.028 136.704 148.02 135.611 148.02 133.424V126.72H149.652V133.456C149.652 134.992 149.263 136.16 148.484 136.96C147.705 137.749 146.559 138.144 145.044 138.144ZM155.285 138L160.309 126.72H161.685L166.725 138H165.029L163.845 135.248H158.133L156.965 138H155.285ZM160.981 128.56L158.725 133.904H163.285L161.013 128.56H160.981ZM170.924 138.144C170.242 138.144 169.639 137.984 169.117 137.664C168.605 137.333 168.205 136.864 167.917 136.256C167.629 135.648 167.485 134.928 167.485 134.096C167.485 133.264 167.629 132.549 167.917 131.952C168.205 131.344 168.605 130.875 169.117 130.544C169.629 130.213 170.231 130.048 170.924 130.048C171.511 130.048 172.034 130.176 172.493 130.432C172.951 130.688 173.293 131.035 173.517 131.472V126.72H175.133V138H173.549V136.64C173.325 137.109 172.978 137.477 172.509 137.744C172.05 138.011 171.522 138.144 170.924 138.144ZM171.341 136.896C172.002 136.896 172.535 136.656 172.941 136.176C173.346 135.696 173.549 135.003 173.549 134.096C173.549 133.189 173.346 132.501 172.941 132.032C172.535 131.552 172.002 131.312 171.341 131.312C170.669 131.312 170.13 131.552 169.725 132.032C169.319 132.501 169.117 133.189 169.117 134.096C169.117 135.003 169.319 135.696 169.725 136.176C170.13 136.656 170.669 136.896 171.341 136.896ZM180.378 138.144C179.695 138.144 179.092 137.984 178.57 137.664C178.058 137.333 177.658 136.864 177.37 136.256C177.082 135.648 176.938 134.928 176.938 134.096C176.938 133.264 177.082 132.549 177.37 131.952C177.658 131.344 178.058 130.875 178.57 130.544C179.082 130.213 179.684 130.048 180.378 130.048C180.964 130.048 181.487 130.176 181.946 130.432C182.404 130.688 182.746 131.035 182.97 131.472V126.72H184.586V138H183.002V136.64C182.778 137.109 182.431 137.477 181.962 137.744C181.503 138.011 180.975 138.144 180.378 138.144ZM180.794 136.896C181.455 136.896 181.988 136.656 182.394 136.176C182.799 135.696 183.002 135.003 183.002 134.096C183.002 133.189 182.799 132.501 182.394 132.032C181.988 131.552 181.455 131.312 180.794 131.312C180.122 131.312 179.583 131.552 179.178 132.032C178.772 132.501 178.57 133.189 178.57 134.096C178.57 135.003 178.772 135.696 179.178 136.176C179.583 136.656 180.122 136.896 180.794 136.896ZM190.519 138.144C189.239 138.144 188.231 137.787 187.495 137.072C186.759 136.347 186.391 135.36 186.391 134.112C186.391 133.312 186.551 132.608 186.871 132C187.201 131.381 187.655 130.901 188.231 130.56C188.807 130.219 189.468 130.048 190.215 130.048C191.292 130.048 192.14 130.395 192.759 131.088C193.377 131.771 193.687 132.715 193.687 133.92V134.464H187.959C188.076 136.085 188.935 136.896 190.535 136.896C190.983 136.896 191.42 136.827 191.847 136.688C192.284 136.549 192.695 136.32 193.079 136L193.559 137.12C193.207 137.44 192.753 137.691 192.199 137.872C191.644 138.053 191.084 138.144 190.519 138.144ZM190.279 131.184C189.607 131.184 189.073 131.392 188.679 131.808C188.284 132.224 188.044 132.779 187.959 133.472H192.327C192.295 132.747 192.103 132.187 191.751 131.792C191.399 131.387 190.908 131.184 190.279 131.184ZM198.424 138.144C197.742 138.144 197.139 137.984 196.617 137.664C196.105 137.333 195.705 136.864 195.417 136.256C195.129 135.648 194.985 134.928 194.985 134.096C194.985 133.264 195.129 132.549 195.417 131.952C195.705 131.344 196.105 130.875 196.617 130.544C197.129 130.213 197.731 130.048 198.424 130.048C199.011 130.048 199.534 130.176 199.993 130.432C200.451 130.688 200.793 131.035 201.017 131.472V126.72H202.633V138H201.049V136.64C200.825 137.109 200.478 137.477 200.009 137.744C199.55 138.011 199.022 138.144 198.424 138.144ZM198.841 136.896C199.502 136.896 200.035 136.656 200.441 136.176C200.846 135.696 201.049 135.003 201.049 134.096C201.049 133.189 200.846 132.501 200.441 132.032C200.035 131.552 199.502 131.312 198.841 131.312C198.169 131.312 197.63 131.552 197.225 132.032C196.819 132.501 196.617 133.189 196.617 134.096C196.617 135.003 196.819 135.696 197.225 136.176C197.63 136.656 198.169 136.896 198.841 136.896Z" fill="#606060"/>
<path opacity="0.21" fill-rule="evenodd" clip-rule="evenodd" d="M186 46V53C186 65.7025 196.297 76 209 76H216H223C235.703 76 246 65.7025 246 53V46V39C246 26.2975 235.703 16 223 16H216H209C196.297 16 186 26.2975 186 39V46Z" fill="#FEC53D"/>
<path fill-rule="evenodd" clip-rule="evenodd" d="M201 40.3164L213.9 47.7645C214.039 47.8447 214.185 47.9026 214.333 47.9394V62.3846L201.92 55.0384C201.35 54.701 201 54.0875 201 53.4248V40.3164ZM231.001 40.1191V53.4256C231.001 54.0882 230.652 54.7017 230.081 55.0392L217.668 62.3854V47.8136C217.698 47.7985 217.728 47.7824 217.758 47.7652L231.001 40.1191Z" fill="#FEC53D"/>
<path opacity="0.499209" fill-rule="evenodd" clip-rule="evenodd" d="M201.406 36.7014C201.564 36.5024 201.763 36.3343 201.995 36.2108L215.12 29.2201C215.671 28.9266 216.331 28.9266 216.882 29.2201L230.007 36.2108C230.186 36.306 230.345 36.4277 230.481 36.5697L216.091 44.8778C215.996 44.9325 215.909 44.995 215.83 45.064C215.75 44.995 215.663 44.9325 215.568 44.8778L201.406 36.7014Z" fill="#FEC53D"/>
<path opacity="0.7" d="M20.064 32V22.112H16.064V20.72H25.712V22.112H21.712V32H20.064ZM29.0749 32.144C28.2855 32.144 27.6029 31.9787 27.0269 31.648C26.4509 31.3173 26.0029 30.8533 25.6829 30.256C25.3735 29.648 25.2189 28.928 25.2189 28.096C25.2189 27.264 25.3735 26.5493 25.6829 25.952C26.0029 25.344 26.4509 24.8747 27.0269 24.544C27.6029 24.2133 28.2855 24.048 29.0749 24.048C29.8429 24.048 30.5149 24.2133 31.0909 24.544C31.6669 24.8747 32.1149 25.344 32.4349 25.952C32.7549 26.5493 32.9149 27.264 32.9149 28.096C32.9149 28.928 32.7549 29.648 32.4349 30.256C32.1149 30.8533 31.6669 31.3173 31.0909 31.648C30.5149 31.9787 29.8429 32.144 29.0749 32.144ZM29.0749 30.896C29.7362 30.896 30.2695 30.656 30.6749 30.176C31.0802 29.696 31.2829 29.0027 31.2829 28.096C31.2829 27.1893 31.0802 26.5013 30.6749 26.032C30.2695 25.552 29.7362 25.312 29.0749 25.312C28.4029 25.312 27.8642 25.552 27.4589 26.032C27.0535 26.5013 26.8509 27.1893 26.8509 28.096C26.8509 29.0027 27.0535 29.696 27.4589 30.176C27.8642 30.656 28.4029 30.896 29.0749 30.896ZM37.9796 32.144C36.9983 32.144 36.2676 31.8933 35.7876 31.392C35.3076 30.8907 35.0676 30.1653 35.0676 29.216V25.44H33.5476V24.192H35.0676V21.84H36.6836V24.192H39.0996V25.44H36.6836V29.088C36.6836 29.6533 36.801 30.08 37.0356 30.368C37.281 30.656 37.6756 30.8 38.2196 30.8C38.3903 30.8 38.5556 30.784 38.7156 30.752C38.8756 30.7093 39.0356 30.6613 39.1956 30.608L39.4516 31.824C39.2916 31.92 39.0676 31.9947 38.7796 32.048C38.5023 32.112 38.2356 32.144 37.9796 32.144ZM42.9914 32.144C42.4474 32.144 41.962 32.0373 41.5354 31.824C41.1087 31.6107 40.7674 31.3227 40.5114 30.96C40.266 30.5973 40.1434 30.1867 40.1434 29.728C40.1434 29.152 40.2874 28.6987 40.5754 28.368C40.874 28.0373 41.3594 27.7973 42.0314 27.648C42.714 27.4987 43.6314 27.424 44.7834 27.424H45.3274V27.008C45.3274 26.4 45.1994 25.9627 44.9434 25.696C44.6874 25.4293 44.266 25.296 43.6794 25.296C43.2314 25.296 42.7834 25.3653 42.3354 25.504C41.8874 25.632 41.4287 25.84 40.9594 26.128L40.4634 24.992C40.8687 24.704 41.3754 24.4747 41.9834 24.304C42.5914 24.1333 43.1727 24.048 43.7274 24.048C44.794 24.048 45.5834 24.304 46.0954 24.816C46.6074 25.3173 46.8634 26.1067 46.8634 27.184V32H45.3434V30.704C45.1514 31.152 44.8527 31.504 44.4474 31.76C44.042 32.016 43.5567 32.144 42.9914 32.144ZM43.3114 30.992C43.8874 30.992 44.3674 30.7893 44.7514 30.384C45.1354 29.9787 45.3274 29.4667 45.3274 28.848V28.416H44.7994C44.0207 28.416 43.4074 28.4533 42.9594 28.528C42.522 28.6027 42.2074 28.7307 42.0154 28.912C41.834 29.0827 41.7434 29.3227 41.7434 29.632C41.7434 30.0373 41.882 30.368 42.1594 30.624C42.4367 30.8693 42.8207 30.992 43.3114 30.992ZM51.6331 32.144C50.7798 32.144 50.1398 31.904 49.7131 31.424C49.2971 30.944 49.0891 30.24 49.0891 29.312V20.72H50.7051V29.216C50.7051 30.272 51.1371 30.8 52.0011 30.8C52.1291 30.8 52.2465 30.7947 52.3531 30.784C52.4705 30.7733 52.5878 30.752 52.7051 30.72L52.6731 32.016C52.3105 32.1013 51.9638 32.144 51.6331 32.144ZM62.1189 32.144C61.2335 32.144 60.4229 32.032 59.6869 31.808C58.9509 31.5733 58.3269 31.248 57.8149 30.832L58.3429 29.52C58.8762 29.9253 59.4469 30.2293 60.0549 30.432C60.6629 30.6347 61.3509 30.736 62.1189 30.736C63.0255 30.736 63.6922 30.576 64.1189 30.256C64.5562 29.9253 64.7749 29.4987 64.7749 28.976C64.7749 28.5493 64.6202 28.2133 64.3109 27.968C64.0015 27.712 63.4842 27.5093 62.7589 27.36L61.0469 27.008C60.0335 26.7947 59.2762 26.4427 58.7749 25.952C58.2842 25.4613 58.0389 24.8 58.0389 23.968C58.0389 23.296 58.2149 22.704 58.5669 22.192C58.9295 21.68 59.4309 21.2853 60.0709 21.008C60.7109 20.72 61.4469 20.576 62.2789 20.576C63.0469 20.576 63.7562 20.6933 64.4069 20.928C65.0682 21.152 65.6282 21.4827 66.0869 21.92L65.5429 23.184C64.6362 22.384 63.5429 21.984 62.2629 21.984C61.4735 21.984 60.8442 22.16 60.3749 22.512C59.9162 22.864 59.6869 23.3333 59.6869 23.92C59.6869 24.368 59.8309 24.7253 60.1189 24.992C60.4069 25.2587 60.8869 25.4613 61.5589 25.6L63.2549 25.952C64.3215 26.176 65.1162 26.5227 65.6389 26.992C66.1615 27.4507 66.4229 28.0747 66.4229 28.864C66.4229 29.5253 66.2469 30.1013 65.8949 30.592C65.5429 31.0827 65.0469 31.4667 64.4069 31.744C63.7669 32.0107 63.0042 32.144 62.1189 32.144ZM71.4171 32.144C70.4358 32.144 69.7051 31.8933 69.2251 31.392C68.7451 30.8907 68.5051 30.1653 68.5051 29.216V25.44H66.9851V24.192H68.5051V21.84H70.1211V24.192H72.5371V25.44H70.1211V29.088C70.1211 29.6533 70.2385 30.08 70.4731 30.368C70.7185 30.656 71.1131 30.8 71.6571 30.8C71.8278 30.8 71.9931 30.784 72.1531 30.752C72.3131 30.7093 72.4731 30.6613 72.6331 30.608L72.8891 31.824C72.7291 31.92 72.5051 31.9947 72.2171 32.048C71.9398 32.112 71.6731 32.144 71.4171 32.144ZM77.2468 32.144C76.4574 32.144 75.7748 31.9787 75.1988 31.648C74.6228 31.3173 74.1748 30.8533 73.8548 30.256C73.5454 29.648 73.3908 28.928 73.3908 28.096C73.3908 27.264 73.5454 26.5493 73.8548 25.952C74.1748 25.344 74.6228 24.8747 75.1988 24.544C75.7748 24.2133 76.4574 24.048 77.2468 24.048C78.0148 24.048 78.6868 24.2133 79.2628 24.544C79.8388 24.8747 80.2868 25.344 80.6068 25.952C80.9268 26.5493 81.0868 27.264 81.0868 28.096C81.0868 28.928 80.9268 29.648 80.6068 30.256C80.2868 30.8533 79.8388 31.3173 79.2628 31.648C78.6868 31.9787 78.0148 32.144 77.2468 32.144ZM77.2468 30.896C77.9081 30.896 78.4414 30.656 78.8468 30.176C79.2521 29.696 79.4548 29.0027 79.4548 28.096C79.4548 27.1893 79.2521 26.5013 78.8468 26.032C78.4414 25.552 77.9081 25.312 77.2468 25.312C76.5748 25.312 76.0361 25.552 75.6308 26.032C75.2254 26.5013 75.0228 27.1893 75.0228 28.096C75.0228 29.0027 75.2254 29.696 75.6308 30.176C76.0361 30.656 76.5748 30.896 77.2468 30.896ZM86.3416 32.144C85.5416 32.144 84.8483 31.9787 84.2616 31.648C83.6856 31.3067 83.2376 30.832 82.9176 30.224C82.5976 29.6053 82.4376 28.88 82.4376 28.048C82.4376 26.8107 82.7896 25.8347 83.4936 25.12C84.1976 24.4053 85.147 24.048 86.3416 24.048C86.8323 24.048 87.3176 24.1333 87.7976 24.304C88.2776 24.4747 88.6723 24.7093 88.9816 25.008L88.4696 26.144C88.171 25.8667 87.8403 25.664 87.4776 25.536C87.1256 25.3973 86.7896 25.328 86.4696 25.328C85.7123 25.328 85.1256 25.568 84.7096 26.048C84.3043 26.5173 84.1016 27.1893 84.1016 28.064C84.1016 28.9387 84.3043 29.6267 84.7096 30.128C85.1256 30.6187 85.7123 30.864 86.4696 30.864C86.7896 30.864 87.1256 30.8 87.4776 30.672C87.8403 30.5333 88.171 30.3253 88.4696 30.048L88.9816 31.2C88.6723 31.488 88.2723 31.7173 87.7816 31.888C87.3016 32.0587 86.8216 32.144 86.3416 32.144ZM90.3704 32V20.72H91.9864V27.6H92.0184L95.4104 24.192H97.4104L93.6664 27.952L97.6984 32H95.6824L92.0184 28.432H91.9864V32H90.3704ZM101.216 32.144C100.576 32.144 99.9784 32.064 99.4238 31.904C98.8691 31.7333 98.4051 31.4987 98.0318 31.2L98.4958 30.112C98.8904 30.3893 99.3224 30.6027 99.7918 30.752C100.272 30.9013 100.752 30.976 101.232 30.976C101.797 30.976 102.224 30.8747 102.512 30.672C102.8 30.4693 102.944 30.1973 102.944 29.856C102.944 29.5787 102.848 29.3653 102.656 29.216C102.464 29.056 102.176 28.9333 101.792 28.848L100.272 28.544C98.9278 28.2667 98.2558 27.5733 98.2558 26.464C98.2558 25.728 98.5491 25.1413 99.1358 24.704C99.7224 24.2667 100.49 24.048 101.44 24.048C101.984 24.048 102.501 24.128 102.992 24.288C103.493 24.448 103.909 24.688 104.24 25.008L103.776 26.096C103.456 25.8187 103.088 25.6053 102.672 25.456C102.256 25.3067 101.845 25.232 101.44 25.232C100.885 25.232 100.464 25.3387 100.176 25.552C99.8878 25.7547 99.7438 26.032 99.7438 26.384C99.7438 26.9173 100.096 27.2587 100.8 27.408L102.32 27.712C103.013 27.8507 103.536 28.0853 103.888 28.416C104.25 28.7467 104.432 29.1947 104.432 29.76C104.432 30.5067 104.138 31.0933 103.552 31.52C102.965 31.936 102.186 32.144 101.216 32.144Z" fill="#202224"/>
<path d="M31.372 79.088V82H19.192V79.088H23.476V66.376L20.088 68.42L18.66 65.788L24.512 62.26H27.088V79.088H31.372ZM42.1891 82.252C39.8557 82.252 38.0731 81.3933 36.8411 79.676C35.6091 77.94 34.9931 75.42 34.9931 72.116C34.9931 68.8493 35.6091 66.3573 36.8411 64.64C38.0731 62.9227 39.8557 62.064 42.1891 62.064C44.5224 62.064 46.3051 62.9227 47.5371 64.64C48.7691 66.3573 49.3851 68.8493 49.3851 72.116C49.3851 75.4013 48.7691 77.912 47.5371 79.648C46.3051 81.384 44.5224 82.252 42.1891 82.252ZM42.1891 79.424C43.4584 79.424 44.3824 78.8453 44.9611 77.688C45.5397 76.512 45.8291 74.6547 45.8291 72.116C45.8291 69.596 45.5397 67.7667 44.9611 66.628C44.3824 65.4707 43.4584 64.892 42.1891 64.892C40.9197 64.892 39.9957 65.4707 39.4171 66.628C38.8384 67.7667 38.5491 69.596 38.5491 72.116C38.5491 74.6547 38.8384 76.512 39.4171 77.688C39.9957 78.8453 40.9197 79.424 42.1891 79.424ZM66.8941 79.088V82H53.6221V79.34L60.3421 72.116C61.1261 71.2573 61.6955 70.4733 62.0501 69.764C62.4235 69.036 62.6101 68.3173 62.6101 67.608C62.6101 66.712 62.3488 66.04 61.8261 65.592C61.3221 65.1253 60.5755 64.892 59.5861 64.892C57.8128 64.892 56.0301 65.5733 54.2381 66.936L53.0341 64.304C53.8181 63.6133 54.8168 63.0627 56.0301 62.652C57.2621 62.2227 58.4941 62.008 59.7261 62.008C61.7048 62.008 63.2728 62.4933 64.4301 63.464C65.5875 64.4347 66.1661 65.7413 66.1661 67.384C66.1661 68.5227 65.9235 69.596 65.4381 70.604C64.9528 71.5933 64.1315 72.704 62.9741 73.936L58.1301 79.088H66.8941ZM77.1505 62.008C79.6519 62.008 81.5745 62.8573 82.9185 64.556C84.2812 66.236 84.9625 68.644 84.9625 71.78C84.9625 73.9453 84.6359 75.8213 83.9825 77.408C83.3479 78.976 82.4239 80.18 81.2105 81.02C79.9972 81.8413 78.5599 82.252 76.8985 82.252C75.7225 82.252 74.5745 82.056 73.4545 81.664C72.3345 81.2533 71.3639 80.684 70.5425 79.956L71.7465 77.324C73.4825 78.6867 75.1532 79.368 76.7585 79.368C78.2332 79.368 79.3625 78.752 80.1465 77.52C80.9492 76.288 81.3692 74.5053 81.4065 72.172C80.9772 73.012 80.3332 73.684 79.4745 74.188C78.6159 74.6733 77.6545 74.916 76.5905 74.916C75.4145 74.916 74.3692 74.6547 73.4545 74.132C72.5399 73.5907 71.8212 72.844 71.2985 71.892C70.7945 70.9213 70.5425 69.82 70.5425 68.588C70.5425 67.3187 70.8225 66.1893 71.3825 65.2C71.9612 64.192 72.7452 63.408 73.7345 62.848C74.7425 62.288 75.8812 62.008 77.1505 62.008ZM77.3465 72.06C78.3919 72.06 79.2319 71.7333 79.8665 71.08C80.5199 70.408 80.8465 69.54 80.8465 68.476C80.8465 67.3933 80.5199 66.5253 79.8665 65.872C79.2319 65.2 78.3919 64.864 77.3465 64.864C76.3199 64.864 75.4985 65.2 74.8825 65.872C74.2665 66.5253 73.9585 67.3933 73.9585 68.476C73.9585 69.5587 74.2665 70.4267 74.8825 71.08C75.4985 71.7333 76.3199 72.06 77.3465 72.06ZM103.228 78.136H100.456V82H96.9276V78.136H88.3596V75.476L97.5436 62.26H100.456V75.336H103.228V78.136ZM96.9276 75.336V67.804L91.7196 75.336H96.9276ZM116.425 71.864C117.582 72.1627 118.469 72.732 119.085 73.572C119.719 74.3933 120.037 75.42 120.037 76.652C120.037 78.3693 119.402 79.732 118.133 80.74C116.882 81.7293 115.174 82.224 113.009 82.224C111.683 82.224 110.405 82.0187 109.173 81.608C107.959 81.1973 106.951 80.6373 106.149 79.928L107.353 77.296C109.07 78.6587 110.909 79.34 112.869 79.34C114.119 79.34 115.053 79.0973 115.669 78.612C116.285 78.108 116.593 77.352 116.593 76.344C116.593 75.3547 116.275 74.6267 115.641 74.16C115.025 73.6747 114.063 73.432 112.757 73.432H110.153V70.576H112.281C114.838 70.576 116.117 69.6147 116.117 67.692C116.117 66.796 115.837 66.1053 115.277 65.62C114.735 65.1347 113.961 64.892 112.953 64.892C112.075 64.892 111.179 65.0693 110.265 65.424C109.369 65.76 108.491 66.264 107.633 66.936L106.429 64.304C107.213 63.5947 108.211 63.0347 109.425 62.624C110.657 62.2133 111.907 62.008 113.177 62.008C115.118 62.008 116.667 62.484 117.825 63.436C118.982 64.3693 119.561 65.6387 119.561 67.244C119.542 68.3453 119.253 69.3067 118.693 70.128C118.151 70.9307 117.395 71.5093 116.425 71.864Z" fill="#202224"/>
</svg>
