<svg width="75" height="75" viewBox="0 0 75 75" fill="none" xmlns="http://www.w3.org/2000/svg">
<g clip-path="url(#clip0_2395_14696)">
<path d="M37.5 75C58.2107 75 75 58.2107 75 37.5C75 16.7893 58.2107 0 37.5 0C16.7893 0 0 16.7893 0 37.5C0 58.2107 16.7893 75 37.5 75Z" fill="#EEC9FF"/>
<path d="M55.7904 19.127H19.2004C18.7127 19.1834 18.2665 19.4286 17.9574 19.8102C17.6484 20.1917 17.5012 20.6792 17.5474 21.168V49.748C17.5474 53.127 19.7724 55.873 22.5064 55.873H52.4834C55.2184 55.873 57.4424 53.126 57.4424 49.749V21.168C57.4885 20.6793 57.3415 20.192 57.0327 19.8105C56.7239 19.429 56.2779 19.1836 55.7904 19.127Z" stroke="#161717" stroke-width="1.875" stroke-linecap="round"/>
<path d="M43.6236 22.1953C44.2391 22.1939 44.8311 22.4316 45.2746 22.8583C45.4965 23.0718 45.6729 23.3279 45.7932 23.6113C45.9135 23.8947 45.9752 24.1995 45.9746 24.5073V25.6883C45.9726 26.7774 45.75 27.8548 45.3203 28.8556C44.8907 29.8564 44.2628 30.7598 43.4746 31.5113C41.8634 33.0486 39.7221 33.9063 37.4951 33.9063C35.2682 33.9063 33.1268 33.0486 31.5156 31.5113C30.7274 30.7598 30.0996 29.8564 29.6699 28.8556C29.2403 27.8548 29.0177 26.7774 29.0156 25.6883V24.5073C29.015 24.1995 29.0768 23.8947 29.1971 23.6113C29.3174 23.3279 29.4938 23.0718 29.7156 22.8583C30.1601 22.4339 30.751 22.197 31.3656 22.197C31.9802 22.197 32.5712 22.4339 33.0156 22.8583C33.2375 23.0718 33.4139 23.3279 33.5342 23.6113C33.6545 23.8947 33.7162 24.1995 33.7156 24.5073V25.6883C33.7175 26.1611 33.8152 26.6285 34.0027 27.0625C34.1902 27.4965 34.4637 27.888 34.8066 28.2133C35.5296 28.8992 36.4881 29.2815 37.4846 29.2815C38.4811 29.2815 39.4397 28.8992 40.1626 28.2133C40.5081 27.8892 40.7842 27.4982 40.9741 27.0642C41.1641 26.6302 41.2639 26.1621 41.2676 25.6883V24.5073C41.267 24.1995 41.3288 23.8947 41.4491 23.6113C41.5694 23.3279 41.7458 23.0718 41.9676 22.8583C42.4124 22.4304 43.0064 22.1926 43.6236 22.1953Z" stroke="#161717" stroke-width="1.875" stroke-linecap="round"/>
<path d="M48.6367 52.7613C47.1092 52.728 45.657 52.0913 44.5975 50.9904C43.5381 49.8895 42.9575 48.414 42.9827 46.8863L42.9737 41.8943C42.9681 41.7809 42.9849 41.6674 43.0232 41.5605C43.0615 41.4535 43.1204 41.3551 43.1967 41.2709C43.3508 41.1009 43.5661 40.9991 43.7952 40.9878C44.0243 40.9766 44.2486 41.0568 44.4186 41.2108C44.5886 41.3649 44.6904 41.5802 44.7017 41.8093C44.7017 41.838 44.7017 41.8663 44.7017 41.8943L44.7117 42.5173L44.8117 42.5593C45.8362 41.5547 47.2128 40.9902 48.6477 40.9863C50.1776 41.0231 51.6306 41.6646 52.6885 42.7704C53.7463 43.8763 54.3228 45.3563 54.2917 46.8863C54.319 48.4152 53.7391 49.8925 52.6791 50.9945C51.6191 52.0965 50.1654 52.7333 48.6367 52.7653V52.7613ZM48.6447 50.9693C49.7085 50.9457 50.7196 50.5015 51.4565 49.734C52.1935 48.9665 52.5963 47.9382 52.5767 46.8743C52.5963 45.8113 52.1934 44.7839 51.4564 44.0175C50.7195 43.2512 49.7087 42.8084 48.6457 42.7863C47.5807 42.8089 46.5682 43.2535 45.8309 44.0223C45.0936 44.7911 44.6917 45.8213 44.7137 46.8863C44.6933 47.9492 45.0957 48.9768 45.8324 49.7433C46.569 50.5098 47.5798 50.9525 48.6427 50.9743L48.6447 50.9693Z" fill="#161717"/>
<path d="M36.8514 52.7623C35.3234 52.7303 33.8703 52.094 32.8104 50.9929C31.7505 49.8917 31.1702 48.4154 31.1964 46.8873C31.1664 45.3557 31.7447 43.8747 32.8047 42.7687C33.8647 41.6628 35.3199 41.0222 36.8514 40.9873C37.9646 40.9988 39.0496 41.3391 39.97 41.9653C40.8904 42.5916 41.6052 43.476 42.0244 44.5073C42.4673 45.5553 42.6067 46.7067 42.4265 47.83C42.2463 48.9534 41.7539 50.0034 41.0054 50.8603L41.0494 50.9603L41.6434 50.9693C41.8821 50.9693 42.111 51.0641 42.2798 51.2329C42.4486 51.4017 42.5434 51.6306 42.5434 51.8693C42.5434 52.108 42.4486 52.3369 42.2798 52.5057C42.111 52.6745 41.8821 52.7693 41.6434 52.7693L36.8514 52.7623ZM36.8514 42.7883C35.7904 42.813 34.7821 43.2562 34.0465 44.0212C33.3108 44.7862 32.9075 45.8111 32.9244 46.8723C32.9147 47.6703 33.1391 48.4537 33.57 49.1256C34.0008 49.7974 34.6191 50.3282 35.3484 50.6523C35.8237 50.8599 36.3368 50.9671 36.8554 50.9673C37.3763 50.9667 37.8917 50.86 38.37 50.6537C38.8483 50.4474 39.2795 50.1458 39.6374 49.7673C40.191 49.1838 40.5654 48.4536 40.7161 47.6635C40.8668 46.8734 40.7874 46.0566 40.4874 45.3103C40.2064 44.5732 39.7095 43.938 39.0617 43.4878C38.4139 43.0377 37.6453 42.7935 36.8564 42.7873L36.8514 42.7883Z" fill="#161717"/>
</g>
<defs>
<clipPath id="clip0_2395_14696">
<rect width="75" height="75" fill="white"/>
</clipPath>
</defs>
</svg>
