<svg width="75" height="75" viewBox="0 0 75 75" fill="none" xmlns="http://www.w3.org/2000/svg">
<g clip-path="url(#clip0_2466_6023)">
<path d="M37.5 75C58.2107 75 75 58.2107 75 37.5C75 16.7893 58.2107 0 37.5 0C16.7893 0 0 16.7893 0 37.5C0 58.2107 16.7893 75 37.5 75Z" fill="#FFBA00"/>
<path d="M55.8335 40.258C55.4829 39.5655 55.2735 38.8102 55.2175 38.036C55.2735 37.2618 55.4829 36.5065 55.8335 35.814C56.4593 34.7017 56.6411 33.3938 56.3425 32.153C55.8546 30.9743 54.9391 30.0237 53.7795 29.492C53.0905 29.1374 52.4786 28.6497 51.9795 28.057C51.568 27.399 51.2913 26.6658 51.1655 25.9C51.0179 24.6321 50.3959 23.467 49.4245 22.639C48.3371 21.9714 47.0374 21.7399 45.7865 21.991C45.0191 22.1106 44.2356 22.0766 43.4815 21.891C42.7647 21.5966 42.1135 21.1628 41.5655 20.615C40.6998 19.6753 39.5103 19.0983 38.2365 19C36.9641 19.0991 35.7764 19.6757 34.9115 20.614C34.3613 21.1611 33.708 21.5934 32.9895 21.886C32.237 22.0711 31.4552 22.1051 30.6895 21.986C29.4385 21.7352 28.1389 21.9667 27.0515 22.634C26.0815 23.4617 25.4603 24.6255 25.3125 25.892C25.1887 26.6596 24.9133 27.3949 24.5025 28.055C24.0033 28.6477 23.3914 29.1354 22.7025 29.49C21.5433 30.022 20.6281 30.9725 20.1405 32.151C19.8418 33.3917 20.0233 34.6995 20.6485 35.812C20.9985 36.5046 21.2076 37.2599 21.2635 38.034C21.2076 38.8081 20.9985 39.5634 20.6485 40.256C20.0233 41.3685 19.8418 42.6763 20.1405 43.917C20.6273 45.0959 21.5422 46.0469 22.7015 46.579C23.3908 46.934 24.0026 47.4225 24.5015 48.016C24.912 48.6755 25.187 49.4101 25.3105 50.177C25.4583 51.4435 26.0795 52.6073 27.0495 53.435C28.1371 54.1018 29.4366 54.333 30.6875 54.082C31.4532 53.9629 32.2349 53.9969 32.9875 54.182C33.7061 54.4748 34.3594 54.9075 34.9095 55.455C35.7739 56.3942 36.9618 56.9716 38.2345 57.071C39.5089 56.9736 40.6992 56.3969 41.5655 55.457C42.1154 54.9095 42.7688 54.4768 43.4875 54.184C44.2416 53.9983 45.0251 53.9643 45.7925 54.084C47.043 54.335 48.3422 54.1039 49.4295 53.437C50.3991 52.6081 51.0192 51.4432 51.1655 50.176C51.289 49.4099 51.5636 48.676 51.9735 48.017C52.4738 47.4233 53.0874 46.9351 53.7785 46.581C54.938 46.049 55.8533 45.098 56.3405 43.919C56.6391 42.6782 56.4573 41.3703 55.8315 40.258H55.8335ZM54.4625 40.834C54.9336 41.6226 55.0993 42.5565 54.9285 43.459C54.6505 44.314 53.8905 44.775 53.0095 45.308C52.1466 45.7609 51.3851 46.3849 50.7715 47.142C50.2416 47.9589 49.8836 48.8752 49.7195 49.835C49.6375 50.7509 49.2223 51.6049 48.5525 52.235C47.7472 52.6767 46.808 52.808 45.9125 52.604C44.948 52.4637 43.965 52.5212 43.0235 52.773C42.1146 53.1228 41.2864 53.6539 40.5895 54.334C39.9849 55.0257 39.1478 55.4718 38.2365 55.588C37.3252 55.4718 36.488 55.0257 35.8835 54.334C35.1865 53.6539 34.3583 53.1227 33.4495 52.773C32.9144 52.6075 32.3565 52.5278 31.7965 52.537C31.3685 52.537 30.9535 52.572 30.5625 52.604C29.6669 52.8076 28.7278 52.6764 27.9225 52.235C27.2545 51.6058 26.8401 50.7539 26.7575 49.84C26.5937 48.8776 26.235 47.9588 25.7035 47.14C25.0897 46.3836 24.3282 45.7603 23.4655 45.308C22.5855 44.774 21.8255 44.314 21.5475 43.458C21.3763 42.5553 21.5417 41.6211 22.0125 40.832C22.4436 39.958 22.6923 39.0053 22.7435 38.032C22.6923 37.0587 22.4436 36.106 22.0125 35.232C21.5417 34.4429 21.3763 33.5087 21.5475 32.606C21.8255 31.752 22.5855 31.291 23.4655 30.757C24.3272 30.3058 25.0883 29.6843 25.7025 28.93C26.2337 28.111 26.5924 27.1923 26.7565 26.23C26.8379 25.3144 27.2524 24.4604 27.9215 23.83C28.7289 23.3903 29.6696 23.2618 30.5655 23.469C31.5286 23.6089 32.5102 23.5514 33.4505 23.3C34.3588 22.9503 35.1866 22.4196 35.8835 21.74C36.4884 21.0482 37.3259 20.6021 38.2375 20.486C39.1487 20.6023 39.9858 21.0484 40.5905 21.74C41.2873 22.4196 42.1151 22.9503 43.0235 23.3C43.9647 23.5516 44.9473 23.6091 45.9115 23.469C46.807 23.265 47.7462 23.3963 48.5515 23.838C49.2213 24.4681 49.6365 25.3221 49.7185 26.238C49.8834 27.1974 50.2416 28.1133 50.7715 28.93C51.385 29.6865 52.1461 30.3101 53.0085 30.763C53.8895 31.297 54.6495 31.758 54.9275 32.612C55.0986 33.5144 54.9332 34.4483 54.4625 35.237C54.0308 36.1109 53.7817 37.0636 53.7305 38.037C53.7817 39.0104 54.0308 39.9631 54.4625 40.837V40.834Z" fill="#5A5A5A"/>
<path d="M33.1521 34.989C33.1997 35.1398 33.2941 35.2714 33.4216 35.3649C33.549 35.4584 33.703 35.5089 33.8611 35.509H42.6121C42.7702 35.5089 42.9241 35.4584 43.0516 35.3649C43.1791 35.2714 43.2735 35.1398 43.3211 34.989L45.3821 28.441C45.4245 28.3044 45.4267 28.1584 45.3883 28.0205C45.3498 27.8827 45.2725 27.7588 45.1655 27.6639C45.0584 27.5689 44.9263 27.5068 44.7849 27.485C44.6434 27.4632 44.4987 27.4826 44.3681 27.541L41.0531 29.027L38.8711 25.456C38.8046 25.3474 38.7113 25.2577 38.6002 25.1954C38.4891 25.1332 38.3639 25.1005 38.2366 25.1005C38.1092 25.1005 37.984 25.1332 37.8729 25.1954C37.7618 25.2577 37.6686 25.3474 37.6021 25.456L35.4201 29.027L32.1061 27.541C31.9754 27.4826 31.8307 27.4632 31.6893 27.485C31.5479 27.5068 31.4157 27.5689 31.3087 27.6639C31.2017 27.7588 31.1243 27.8827 31.0859 28.0205C31.0475 28.1584 31.0496 28.3044 31.0921 28.441L33.1521 34.989ZM35.4101 30.653C35.5752 30.7272 35.7617 30.7386 35.9346 30.685C36.1075 30.6314 36.2549 30.5166 36.3491 30.362L38.2381 27.271L40.1271 30.362C40.2214 30.5164 40.3688 30.6311 40.5417 30.6847C40.7145 30.7382 40.9009 30.727 41.0661 30.653L43.4661 29.576L42.0661 34.022H34.4121L33.0121 29.576L35.4101 30.653Z" fill="#5A5A5A"/>
<path d="M42.3656 38.367C42.1683 38.367 41.979 38.4454 41.8395 38.5849C41.7 38.7244 41.6216 38.9137 41.6216 39.111V45.325C41.6179 45.4249 41.6345 45.5246 41.6702 45.618C41.7059 45.7114 41.76 45.7966 41.8294 45.8686C41.8989 45.9406 41.9821 45.9979 42.0741 46.037C42.1661 46.0761 42.2651 46.0963 42.3651 46.0963C42.4651 46.0963 42.5641 46.0761 42.6561 46.037C42.7481 45.9979 42.8313 45.9406 42.9007 45.8686C42.9701 45.7966 43.0243 45.7114 43.06 45.618C43.0958 45.5246 43.1123 45.4249 43.1086 45.325V43.365H44.0956C44.7586 43.365 45.3945 43.1016 45.8634 42.6328C46.3322 42.1639 46.5956 41.528 46.5956 40.865C46.5956 40.2019 46.3322 39.5661 45.8634 39.0972C45.3945 38.6284 44.7586 38.365 44.0956 38.365H42.3656V38.367ZM45.1416 40.867C45.1335 41.1387 45.0197 41.3966 44.8243 41.5856C44.6289 41.7746 44.3674 41.8799 44.0956 41.879H43.1086V39.854H44.0956C44.3672 39.8528 44.6285 39.9577 44.8239 40.1464C45.0193 40.335 45.1333 40.5925 45.1416 40.864V40.867Z" fill="#5A5A5A"/>
<path d="M32.1959 45.581C32.249 45.723 32.3442 45.8455 32.4687 45.9319C32.5933 46.0184 32.7413 46.0647 32.8929 46.0647C33.0446 46.0647 33.1926 46.0184 33.3172 45.9319C33.4417 45.8455 33.5369 45.723 33.5899 45.581L35.8899 39.373C35.9286 39.2805 35.9481 39.1812 35.9474 39.0809C35.9467 38.9807 35.9257 38.8816 35.8857 38.7897C35.8458 38.6978 35.7877 38.6149 35.7149 38.5459C35.6421 38.477 35.5561 38.4236 35.4621 38.3887C35.3681 38.3539 35.2681 38.3384 35.168 38.3431C35.0678 38.3479 34.9697 38.3729 34.8795 38.4165C34.7892 38.4601 34.7087 38.5216 34.6428 38.5971C34.5769 38.6726 34.527 38.7607 34.4959 38.856L32.8889 43.186L31.2799 38.856C31.2484 38.7613 31.1981 38.6739 31.132 38.599C31.066 38.5241 30.9855 38.4633 30.8955 38.4202C30.8054 38.377 30.7076 38.3525 30.6079 38.3479C30.5082 38.3434 30.4085 38.359 30.3149 38.3938C30.2213 38.4285 30.1357 38.4818 30.0631 38.5503C29.9906 38.6189 29.9325 38.7014 29.8925 38.7929C29.8525 38.8843 29.8313 38.9829 29.8301 39.0828C29.829 39.1826 29.848 39.2816 29.8859 39.374L32.1959 45.581Z" fill="#5A5A5A"/>
<path d="M37.7153 39.111V45.325C37.7117 45.4249 37.7282 45.5246 37.7639 45.618C37.7996 45.7114 37.8538 45.7966 37.9232 45.8686C37.9926 45.9406 38.0758 45.9979 38.1678 46.037C38.2599 46.0761 38.3588 46.0963 38.4588 46.0963C38.5588 46.0963 38.6578 46.0761 38.7498 46.037C38.8419 45.9979 38.9251 45.9406 38.9945 45.8686C39.0639 45.7966 39.1181 45.7114 39.1538 45.618C39.1895 45.5246 39.206 45.4249 39.2023 45.325V39.109C39.1953 38.9165 39.1139 38.7343 38.9752 38.6006C38.8365 38.4669 38.6514 38.3923 38.4588 38.3923C38.2662 38.3923 38.0811 38.4669 37.9425 38.6006C37.8038 38.7343 37.7224 38.9165 37.7153 39.109V39.111Z" fill="#5A5A5A"/>
<path d="M46.6551 47.736H29.8201C29.7202 47.7323 29.6205 47.7488 29.5271 47.7846C29.4337 47.8203 29.3485 47.8745 29.2765 47.9439C29.2045 48.0133 29.1472 48.0965 29.1081 48.1885C29.069 48.2805 29.0488 48.3795 29.0488 48.4795C29.0488 48.5795 29.069 48.6785 29.1081 48.7705C29.1472 48.8626 29.2045 48.9457 29.2765 49.0151C29.3485 49.0846 29.4337 49.1387 29.5271 49.1745C29.6205 49.2102 29.7202 49.2267 29.8201 49.223H46.6551C46.755 49.2267 46.8547 49.2102 46.9481 49.1745C47.0415 49.1387 47.1267 49.0846 47.1987 49.0151C47.2707 48.9457 47.328 48.8626 47.3671 48.7705C47.4062 48.6785 47.4264 48.5795 47.4264 48.4795C47.4264 48.3795 47.4062 48.2805 47.3671 48.1885C47.328 48.0965 47.2707 48.0133 47.1987 47.9439C47.1267 47.8745 47.0415 47.8203 46.9481 47.7846C46.8547 47.7488 46.755 47.7323 46.6551 47.736Z" fill="#5A5A5A"/>
</g>
<defs>
<clipPath id="clip0_2466_6023">
<rect width="75" height="75" fill="white"/>
</clipPath>
</defs>
</svg>
