<svg xmlns="http://www.w3.org/2000/svg" width="80" height="80" viewBox="0 0 80 80">
  <g id="Group_69225" data-name="Group 69225" transform="translate(-1295 -1422)">
    <circle id="Ellipse_41" data-name="Ellipse 41" cx="40" cy="40" r="40" transform="translate(1295 1422)" fill="#fcd2cb"/>
    <g id="estore" transform="translate(9248 -9317)">
      <path id="Path" d="M37.466,0H1.62A1.839,1.839,0,0,0,0,2V30c0,3.309,2.18,6,4.859,6H34.227c2.679,0,4.859-2.691,4.859-6V2A1.839,1.839,0,0,0,37.466,0Z" transform="translate(-7932.427 10761)" fill="#fcd2cb" stroke="#5a5a5a" stroke-linecap="round" stroke-width="2.4"/>
      <path id="Path-2" data-name="Path" d="M24.449,2.714a2.324,2.324,0,0,1,1.618.649,2.236,2.236,0,0,1,.69,1.616h0V6.136a7.9,7.9,0,0,1-2.45,5.7,8.486,8.486,0,0,1-11.716,0,7.9,7.9,0,0,1-2.45-5.7h0V4.979a2.236,2.236,0,0,1,.69-1.616,2.34,2.34,0,0,1,3.235,0,2.236,2.236,0,0,1,.69,1.616h0V6.136A3.43,3.43,0,0,0,15.825,8.61a3.812,3.812,0,0,0,5.247,0,3.43,3.43,0,0,0,1.068-2.474h0V4.979a2.236,2.236,0,0,1,.69-1.616A2.324,2.324,0,0,1,24.449,2.714Z" transform="translate(-7931.333 10761.293)" fill="#f5d4cc" stroke="#5a5a5a" stroke-linecap="round" stroke-width="2"/>
      <path id="Shape" d="M15.965,11.536a5.664,5.664,0,0,1-5.54-5.76L10.417.889h0A.848.848,0,1,1,12.11.806q0,.042,0,.083l.01.61.1.041h0A5.388,5.388,0,0,1,15.976,0a5.666,5.666,0,0,1,5.53,5.771,5.66,5.66,0,0,1-5.54,5.76Zm.008-1.756a3.94,3.94,0,0,0,3.852-4.011,3.933,3.933,0,0,0-3.852-4,3.936,3.936,0,0,0-3.852,4.011A3.931,3.931,0,0,0,15.97,9.781Z" transform="translate(-7917.932 10782.415)" fill="#5a5a5a" stroke="#5a5a5a" stroke-linecap="round" stroke-width="0.4"/>
      <path id="Shape-2" data-name="Shape" d="M5.54,11.536A5.66,5.66,0,0,1,0,5.776,5.67,5.67,0,0,1,5.54,0a5.532,5.532,0,0,1,5.068,3.449h0a5.944,5.944,0,0,1-1,6.22l.043.1.582.009h0a.884.884,0,0,1,0,1.766h0Zm0-9.771a3.94,3.94,0,0,0-3.847,4h0a4,4,0,0,0,2.375,3.7h0a3.693,3.693,0,0,0,1.476.309h0A3.757,3.757,0,0,0,8.27,8.6h0A4.114,4.114,0,0,0,9.1,4.236,3.839,3.839,0,0,0,5.545,1.767Z" transform="translate(-7919.055 10782.415)" fill="#5a5a5a" stroke="#5a5a5a" stroke-linecap="round" stroke-width="0.4"/>
    </g>
  </g>
</svg>
