<svg xmlns="http://www.w3.org/2000/svg" width="80" height="80" viewBox="0 0 80 80">
  <g id="Group_69223" data-name="Group 69223" transform="translate(-100 -1609)">
    <circle id="Ellipse_40" data-name="Ellipse 40" cx="40" cy="40" r="40" transform="translate(100 1609)" fill="#fcd2cb"/>
    <g id="integrity" transform="translate(117.037 1626.027)">
      <g id="Group_68345" data-name="Group 68345" transform="translate(12.378 12.387)">
        <path id="Path_14049" data-name="Path 14049" d="M106.187,116.773a10.587,10.587,0,1,1,10.587-10.587A10.593,10.593,0,0,1,106.187,116.773Zm0-20.355a9.768,9.768,0,1,0,9.768,9.768A9.783,9.783,0,0,0,106.187,96.418Z" transform="translate(-95.6 -95.6)" fill="#5a5a5a" stroke="#5a5a5a" stroke-width="1"/>
      </g>
      <g id="Group_68346" data-name="Group 68346" transform="translate(8.86 12.387)">
        <path id="Path_14050" data-name="Path 14050" d="M57.051,103.364A4.455,4.455,0,0,1,52.6,98.913v-2.9a.409.409,0,1,1,.818,0v2.9a3.635,3.635,0,0,0,3.632,3.632.409.409,0,1,1,0,.818Z" transform="translate(-52.6 -95.6)" fill="#5a5a5a" stroke="#5a5a5a" stroke-width="1"/>
      </g>
      <g id="Group_68347" data-name="Group 68347" transform="translate(32.209 12.387)">
        <path id="Path_14051" data-name="Path 14051" d="M338.409,103.364a.409.409,0,1,1,0-.818,3.635,3.635,0,0,0,3.632-3.632v-2.9a.409.409,0,0,1,.818,0v2.9A4.455,4.455,0,0,1,338.409,103.364Z" transform="translate(-338 -95.6)" fill="#5a5a5a" stroke="#5a5a5a" stroke-width="1"/>
      </g>
      <g id="Group_68348" data-name="Group 68348" transform="translate(32.209 25.796)">
        <path id="Path_14052" data-name="Path 14052" d="M342.451,267.264a.405.405,0,0,1-.409-.409v-2.9a3.635,3.635,0,0,0-3.632-3.633.409.409,0,1,1,0-.818,4.455,4.455,0,0,1,4.451,4.451v2.9A.41.41,0,0,1,342.451,267.264Z" transform="translate(-338 -259.5)" fill="#5a5a5a" stroke="#5a5a5a" stroke-width="1"/>
      </g>
      <g id="Group_68349" data-name="Group 68349" transform="translate(8.86 25.796)">
        <path id="Path_14053" data-name="Path 14053" d="M53.009,267.264a.405.405,0,0,1-.409-.409v-2.9a4.455,4.455,0,0,1,4.451-4.451.409.409,0,1,1,0,.818,3.635,3.635,0,0,0-3.632,3.633v2.9A.416.416,0,0,1,53.009,267.264Z" transform="translate(-52.6 -259.5)" fill="#5a5a5a" stroke="#5a5a5a" stroke-width="1"/>
      </g>
      <g id="Group_68350" data-name="Group 68350" transform="translate(34.876 9.638)">
        <path id="Path_14054" data-name="Path 14054" d="M372.384,65.567a1.784,1.784,0,1,1,1.784-1.784A1.788,1.788,0,0,1,372.384,65.567Zm0-2.741a.965.965,0,1,0,.965.965A.967.967,0,0,0,372.384,62.826Z" transform="translate(-370.6 -62)" fill="#5a5a5a" stroke="#5a5a5a" stroke-width="1"/>
      </g>
      <g id="Group_68355" data-name="Group 68355" transform="translate(4.963 21.195)">
        <g id="Group_68351" data-name="Group 68351" transform="translate(27.77 1.369)">
          <path id="Path_14055" data-name="Path 14055" d="M349.481,220.818h-4.672a.409.409,0,0,1,0-.818h4.672a.409.409,0,0,1,0,.818Z" transform="translate(-344.4 -220)" fill="#5a5a5a" stroke="#5a5a5a" stroke-width="1"/>
        </g>
        <g id="Group_68352" data-name="Group 68352" transform="translate(2.744 1.369)">
          <path id="Path_14056" data-name="Path 14056" d="M43.581,220.818H38.909a.409.409,0,1,1,0-.818h4.672a.409.409,0,1,1,0,.818Z" transform="translate(-38.5 -220)" fill="#5a5a5a" stroke="#5a5a5a" stroke-width="1"/>
        </g>
        <g id="Group_68353" data-name="Group 68353" transform="translate(32.439)">
          <path id="Path_14057" data-name="Path 14057" d="M403.249,206.833h-.106a1.835,1.835,0,1,1,.106,0Zm-.008-2.749a.908.908,0,1,0,.057,0C403.282,204.092,403.266,204.084,403.241,204.084Z" transform="translate(-401.463 -203.272)" fill="#5a5a5a" stroke="#5a5a5a" stroke-width="1"/>
        </g>
        <g id="Group_68354" data-name="Group 68354" transform="translate(0)">
          <path id="Path_14058" data-name="Path 14058" d="M6.749,206.833H6.643a1.835,1.835,0,1,1,.106,0Zm0-2.749a.962.962,0,1,0,.646,1.677.983.983,0,0,0,.319-.663.961.961,0,0,0-.908-1.014A.133.133,0,0,1,6.749,204.084Z" transform="translate(-4.963 -203.272)" fill="#5a5a5a" stroke="#5a5a5a" stroke-width="1"/>
        </g>
      </g>
      <g id="Group_68360" data-name="Group 68360" transform="translate(21.179 4.972)">
        <g id="Group_68356" data-name="Group 68356" transform="translate(1.377 27.77)">
          <path id="Path_14059" data-name="Path 14059" d="M220.409,349.89a.405.405,0,0,1-.409-.409v-4.672a.409.409,0,0,1,.818,0v4.672A.405.405,0,0,1,220.409,349.89Z" transform="translate(-220 -344.4)" fill="#5a5a5a" stroke="#5a5a5a" stroke-width="1"/>
        </g>
        <g id="Group_68357" data-name="Group 68357" transform="translate(1.377 2.743)">
          <path id="Path_14060" data-name="Path 14060" d="M220.409,43.99a.405.405,0,0,1-.409-.409V38.909a.409.409,0,1,1,.818,0v4.672A.405.405,0,0,1,220.409,43.99Z" transform="translate(-220 -38.5)" fill="#5a5a5a" stroke="#5a5a5a" stroke-width="1"/>
        </g>
        <g id="Group_68358" data-name="Group 68358" transform="translate(0 32.438)">
          <path id="Path_14061" data-name="Path 14061" d="M204.958,405.024h-.106a1.835,1.835,0,1,1,.106,0ZM204,403.192a.961.961,0,0,0,.908,1.014.947.947,0,0,0,.7-.245.983.983,0,0,0,.319-.663.959.959,0,0,0-.245-.7.949.949,0,0,0-.663-.319.959.959,0,0,0-.7.245A.89.89,0,0,0,204,403.192Z" transform="translate(-203.172 -401.463)" fill="#5a5a5a" stroke="#5a5a5a" stroke-width="1"/>
        </g>
        <g id="Group_68359" data-name="Group 68359" transform="translate(0 0)">
          <path id="Path_14062" data-name="Path 14062" d="M204.958,8.533h-.106a1.835,1.835,0,1,1,.106,0ZM204,6.7a.963.963,0,0,0,1.923.106.947.947,0,0,0-.245-.7.983.983,0,0,0-.663-.319A.962.962,0,0,0,204,6.7Z" transform="translate(-203.172 -4.972)" fill="#5a5a5a" stroke="#5a5a5a" stroke-width="1"/>
        </g>
      </g>
      <g id="Group_68361" data-name="Group 68361" transform="translate(34.873 32.739)">
        <path id="Path_14063" data-name="Path 14063" d="M372.349,347.924h-.106a1.835,1.835,0,1,1,.106,0Zm-.057-.818a.962.962,0,0,0,.769-1.6.949.949,0,0,0-.663-.319.959.959,0,0,0-.7.245.949.949,0,0,0-.319.663.959.959,0,0,0,.245.7A.983.983,0,0,0,372.292,347.106Z" transform="translate(-370.563 -344.363)" fill="#5a5a5a" stroke="#5a5a5a" stroke-width="1"/>
      </g>
      <g id="Group_68362" data-name="Group 68362" transform="translate(7.482 32.739)">
        <path id="Path_14064" data-name="Path 14064" d="M37.549,347.924h-.106a1.835,1.835,0,1,1,.106,0Zm-.057-.818a.963.963,0,1,0,.106-1.923.947.947,0,0,0-.7.245.983.983,0,0,0-.319.663A.972.972,0,0,0,37.492,347.106Z" transform="translate(-35.763 -344.363)" fill="#5a5a5a" stroke="#5a5a5a" stroke-width="1"/>
      </g>
      <g id="Group_68363" data-name="Group 68363" transform="translate(7.482 9.643)">
        <path id="Path_14065" data-name="Path 14065" d="M37.549,65.624h-.106a1.782,1.782,0,1,1,.2-3.559,1.79,1.79,0,0,1,1.677,1.882A1.782,1.782,0,0,1,37.549,65.624Zm-.057-.818a.961.961,0,0,0,1.014-.908.947.947,0,0,0-.245-.7.983.983,0,0,0-.663-.319.947.947,0,0,0-.7.245.983.983,0,0,0-.319.663A.972.972,0,0,0,37.492,64.806Z" transform="translate(-35.763 -62.063)" fill="#5a5a5a" stroke="#5a5a5a" stroke-width="1"/>
      </g>
      <g id="Group_68366" data-name="Group 68366" transform="translate(15.29 15.291)">
        <g id="Group_68364" data-name="Group 68364" transform="translate(4.279 4.238)">
          <path id="Path_14066" data-name="Path 14066" d="M186.9,189.789a3.445,3.445,0,1,1,3.4-3.444A3.424,3.424,0,0,1,186.9,189.789Zm0-6.071a2.627,2.627,0,1,0,2.577,2.626A2.6,2.6,0,0,0,186.9,183.718Z" transform="translate(-183.5 -182.9)" fill="#5a5a5a" stroke="#5a5a5a" stroke-width="1"/>
        </g>
        <g id="Group_68365" data-name="Group 68365">
          <path id="Path_14067" data-name="Path 14067" d="M140.347,146.464H137.41a.405.405,0,0,1-.409-.409v-1.268a6.061,6.061,0,0,1-1.039-.434l-.9.9a.417.417,0,0,1-.286.123.384.384,0,0,1-.286-.123l-2.078-2.078a.417.417,0,0,1-.123-.286.384.384,0,0,1,.123-.286l.9-.9a6.792,6.792,0,0,1-.434-1.039h-1.268a.405.405,0,0,1-.409-.409V137.31a.405.405,0,0,1,.409-.409h1.268a6.061,6.061,0,0,1,.434-1.039l-.9-.9a.417.417,0,0,1-.123-.286.384.384,0,0,1,.123-.286l2.078-2.078a.42.42,0,0,1,.581,0l.9.9a6.792,6.792,0,0,1,1.039-.434v-1.268a.405.405,0,0,1,.409-.409h2.937a.405.405,0,0,1,.409.409v1.268a6.061,6.061,0,0,1,1.039.434l.9-.9a.417.417,0,0,1,.286-.123.384.384,0,0,1,.286.123l2.078,2.078a.405.405,0,0,1,0,.581l-.9.9a6.792,6.792,0,0,1,.434,1.039h1.268a.405.405,0,0,1,.409.409v2.937a.405.405,0,0,1-.409.409h-1.268a6.061,6.061,0,0,1-.434,1.039l.9.9a.405.405,0,0,1,0,.581l-2.086,2.062a.405.405,0,0,1-.581,0l-.9-.9a6.792,6.792,0,0,1-1.039.434v1.268A.405.405,0,0,1,140.347,146.464Zm-2.528-.818h2.119v-1.17a.4.4,0,0,1,.311-.393,5.463,5.463,0,0,0,1.415-.589.408.408,0,0,1,.5.065l.826.826,1.5-1.5-.843-.834a.42.42,0,0,1-.065-.5,5.511,5.511,0,0,0,.589-1.415.418.418,0,0,1,.393-.311h1.17v-2.119h-1.17a.4.4,0,0,1-.393-.311,5.462,5.462,0,0,0-.589-1.415.4.4,0,0,1,.065-.5l.826-.826-1.5-1.5-.826.851a.42.42,0,0,1-.5.065,5.511,5.511,0,0,0-1.415-.589.418.418,0,0,1-.311-.393v-1.17h-2.111v1.17a.4.4,0,0,1-.311.393,5.762,5.762,0,0,0-1.415.589.4.4,0,0,1-.5-.065l-.826-.826-1.5,1.5.826.826a.42.42,0,0,1,.065.5,5.511,5.511,0,0,0-.589,1.415.418.418,0,0,1-.393.311H132v2.111h1.17a.4.4,0,0,1,.393.311,5.762,5.762,0,0,0,.589,1.415.4.4,0,0,1-.065.5l-.826.826,1.5,1.5.826-.826a.42.42,0,0,1,.5-.065,5.511,5.511,0,0,0,1.415.589.418.418,0,0,1,.311.393Z" transform="translate(-131.2 -131.1)" fill="#5a5a5a" stroke="#5a5a5a" stroke-width="1"/>
        </g>
      </g>
    </g>
  </g>
</svg>
