<svg xmlns="http://www.w3.org/2000/svg" width="80" height="80" viewBox="0 0 80 80">
  <g id="Group_69224" data-name="Group 69224" transform="translate(-100 -1796)">
    <circle id="Ellipse_41" data-name="Ellipse 41" cx="40" cy="40" r="40" transform="translate(100 1796)" fill="#fcd2cb"/>
    <g id="inventory_management" data-name="inventory management" transform="translate(9242.963 -9308)">
      <path id="Shape" d="M29.227,1.994H24.533V6.735a.957.957,0,0,1-.75.947l-2.49.7a1.084,1.084,0,0,1-.852-.149l-1.8-1.3-2.2,1.1A.987.987,0,0,1,15,7.134V1.988H10.3a1,1,0,0,0-1,1v7.642h4.146a1,1,0,0,1,0,2H9.3v2h2.144a1,1,0,1,1,0,2H9.3v3.645a1,1,0,0,0,1,1H29.227a1,1,0,0,0,1-1V2.995A1,1,0,0,0,29.227,1.994Z" transform="translate(-9120.956 11126.001)" fill="#f5d4cc"/>
      <g id="Group" transform="translate(-9120.963 11126)">
        <path id="Shape-2" data-name="Shape" d="M34.952,25.313H5.79a1,1,0,0,1-1-1V2.846a1,1,0,0,0-1-1H1a1,1,0,1,0,0,2H2.8V24.318a3,3,0,0,0,3,3H34.952a1,1,0,0,0,0-2Z" transform="translate(0 0.001)" fill="#5a5a5a" stroke="#5a5a5a" stroke-linecap="round" stroke-width="0.4"/>
        <path id="Shape-3" data-name="Shape" d="M28.2,27.892a4.044,4.044,0,1,0,4.044,4.044A4.06,4.06,0,0,0,28.2,27.892Zm0,6.046a2.049,2.049,0,1,1,2.049-2.049A2.1,2.1,0,0,1,28.2,33.937Z" transform="translate(0.017 0.02)" fill="#5a5a5a" stroke="#5a5a5a" stroke-linecap="round" stroke-width="0.4"/>
        <path id="Shape-4" data-name="Shape" d="M29.2,0H10.329a3,3,0,0,0-3,3V20.323a3,3,0,0,0,3,3H29.2a3,3,0,0,0,3-3V3A3,3,0,0,0,29.2,0Zm1,20.323a1,1,0,0,1-1,1H10.329a1,1,0,0,1-1-1V16.678h2.144a1,1,0,1,0,0-2H9.328v-2h4.146a1,1,0,0,0,0-2H9.334V3a1,1,0,0,1,1-1h4.694V7.189a1,1,0,0,0,1.447.9l2.2-1.1,1.8,1.3a1.061,1.061,0,0,0,.852.149l2.5-.7a.968.968,0,0,0,.75-.947V2h4.646a1,1,0,0,1,1,1V20.323ZM22.516,2v4l-1.3.4-1.9-1.346a1.094,1.094,0,0,0-1.048-.1l-1.251.649V2Z" transform="translate(0.005)" fill="#5a5a5a" stroke="#5a5a5a" stroke-linecap="round" stroke-width="0.4"/>
        <path id="Shape-5" data-name="Shape" d="M11.476,14.675h-.149v2h.149a1,1,0,1,0,0-2Zm2-4H11.327v2h2.144a1,1,0,1,0,0-2Z" transform="translate(0.008 0.008)" fill="#5a5a5a" stroke="#5a5a5a" stroke-linecap="round" stroke-width="0.4"/>
      </g>
      <path id="Shape-6" data-name="Shape" d="M11.377,27.892a4.044,4.044,0,1,0,4.044,4.044A4.06,4.06,0,0,0,11.377,27.892Zm0,6.046a2.049,2.049,0,1,1,2.049-2.049A2.088,2.088,0,0,1,11.377,33.937Z" transform="translate(-9120.958 11126.02)" fill="#5a5a5a" stroke="#5a5a5a" stroke-linecap="round" stroke-width="0.4"/>
    </g>
  </g>
</svg>
