<svg width="44" height="43" viewBox="0 0 44 43" fill="none" xmlns="http://www.w3.org/2000/svg">
<path d="M24.0391 4.80225H19.8203C19.4322 4.80225 19.1172 4.48725 19.1172 4.09912C19.1172 3.711 19.4322 3.396 19.8203 3.396H24.0391C24.4272 3.396 24.7422 3.711 24.7422 4.09912C24.7422 4.48725 24.4272 4.80225 24.0391 4.80225Z" fill="black"/>
<path d="M29.6641 42.771H14.1953C12.2561 42.771 10.6797 41.1932 10.6797 39.2554V15.3491C10.6797 14.961 10.9947 14.646 11.3828 14.646C11.7709 14.646 12.0859 14.961 12.0859 15.3491V39.2554C12.0859 40.4183 13.0323 41.3647 14.1953 41.3647H29.6641C30.827 41.3647 31.7734 40.4183 31.7734 39.2554V15.3491C31.7734 14.961 32.0884 14.646 32.4766 14.646C32.8647 14.646 33.1797 14.961 33.1797 15.3491V39.2554C33.1797 41.1932 31.6033 42.771 29.6641 42.771Z" fill="black"/>
<path d="M32.4766 20.271C32.0884 20.271 31.7734 19.956 31.7734 19.5679V4.09912C31.7734 2.93615 30.827 1.98975 29.6641 1.98975H14.1953C13.0323 1.98975 12.0859 2.93615 12.0859 4.09912V19.5679C12.0859 19.956 11.7709 20.271 11.3828 20.271C10.9947 20.271 10.6797 19.956 10.6797 19.5679V4.09912C10.6797 2.16131 12.2561 0.583496 14.1953 0.583496H29.6641C31.6033 0.583496 33.1797 2.16131 33.1797 4.09912V19.5679C33.1797 19.956 32.8647 20.271 32.4766 20.271Z" fill="black"/>
<path d="M34.3623 37.146C34.3131 37.146 34.2625 37.1418 34.2133 37.1305C33.8336 37.049 33.5931 36.6749 33.6747 36.2952L34.1387 34.1437C34.195 33.8793 34.3989 33.6726 34.6605 33.6093C35.3242 33.449 35.9711 33.179 36.5828 32.8063C36.8092 32.6657 37.1003 32.6699 37.3267 32.8133L38.7189 33.7035L39.5809 32.8344L38.6908 31.4535C38.5445 31.2271 38.5417 30.936 38.6809 30.7068C39.0536 30.0951 39.3236 29.4482 39.4825 28.7844C39.5458 28.5229 39.7511 28.3204 40.0141 28.2613L41.6172 27.9055V26.7004L40.0155 26.3446C39.7525 26.2855 39.5472 26.083 39.4839 25.8215C39.325 25.1577 39.0536 24.5108 38.6823 23.8991C38.5417 23.6699 38.5445 23.3802 38.6908 23.1538L39.5823 21.7602L38.7217 20.8996L37.3281 21.7912C37.1017 21.936 36.812 21.9388 36.5842 21.7982C35.9711 21.4255 35.3242 21.1555 34.6619 20.9952C34.3989 20.9319 34.1964 20.7238 34.1402 20.4608L33.7942 18.8647H33.1797C32.7916 18.8647 32.4766 18.5497 32.4766 18.1616C32.4766 17.7735 32.7916 17.4585 33.1797 17.4585H34.3609C34.6914 17.4585 34.9783 17.6905 35.0472 18.014L35.4227 19.7479C35.9373 19.904 36.4422 20.1149 36.9288 20.3779L38.4391 19.4118C38.7175 19.2346 39.0803 19.274 39.3152 19.5074L40.9759 21.1668C41.2094 21.4002 41.2487 21.7644 41.0702 22.0429L40.1041 23.5532C40.367 24.0412 40.578 24.546 40.7341 25.0621L42.4708 25.4474C42.7942 25.5191 43.0234 25.806 43.0234 26.1351V28.4694C43.0234 28.7985 42.7942 29.0854 42.4722 29.1557L40.7355 29.541C40.5794 30.0571 40.3684 30.5619 40.1055 31.0485L41.0702 32.5447C41.2502 32.8218 41.2122 33.1874 40.9787 33.4208L39.318 35.0943C39.0831 35.3291 38.7189 35.3685 38.4405 35.1913L36.9302 34.2252C36.4422 34.4882 35.9388 34.6991 35.4241 34.8552L35.0486 36.5891C34.9769 36.921 34.6844 37.146 34.3623 37.146Z" fill="black"/>
<path d="M35.1374 30.9276C34.9124 30.9276 34.6902 30.8179 34.5538 30.6168C34.3372 30.2947 34.423 29.8574 34.7465 29.6408C35.5269 29.1149 35.9938 28.2402 35.9938 27.3022C35.9938 25.7512 34.7324 24.4897 33.1813 24.4897C32.9901 24.4897 32.8002 24.5094 32.6188 24.546C32.2419 24.6219 31.8665 24.3801 31.7877 23.9976C31.7104 23.6165 31.9551 23.2452 32.3361 23.1679C32.6118 23.113 32.8958 23.0835 33.1813 23.0835C35.5072 23.0835 37.4001 24.9763 37.4001 27.3022C37.4001 28.7099 36.7011 30.0205 35.5283 30.808C35.4088 30.8882 35.2724 30.9276 35.1374 30.9276Z" fill="black"/>
<path d="M10.6797 20.2712C8.35375 20.2712 6.46094 18.3784 6.46094 16.0524C6.46094 14.6392 7.16406 13.3271 8.3425 12.5396C8.66172 12.3259 9.10047 12.4102 9.31703 12.7351C9.53219 13.0571 9.445 13.4945 9.12156 13.7096C8.33688 14.2356 7.86719 15.1102 7.86719 16.0524C7.86719 17.6035 9.12859 18.8649 10.6797 18.8649C10.8681 18.8649 11.0538 18.8467 11.2309 18.8101C11.6036 18.7327 11.9819 18.9788 12.0592 19.3613C12.1366 19.7424 11.8891 20.1123 11.508 20.1882C11.2394 20.2431 10.9637 20.2712 10.6797 20.2712Z" fill="black"/>
<path d="M10.6797 25.8959H9.49844C9.16797 25.8959 8.88109 25.6639 8.81219 25.3404L8.43672 23.6065C7.92203 23.4504 7.41719 23.2395 6.93062 22.9765L5.42031 23.9426C5.14047 24.1198 4.77906 24.0819 4.54422 23.847L2.88344 22.1876C2.65 21.9542 2.61062 21.59 2.78922 21.3115L3.75531 19.8012C3.49234 19.3133 3.28141 18.8084 3.12531 18.2923L1.38859 17.907C1.06516 17.8353 0.835938 17.5484 0.835938 17.2194V14.885C0.835938 14.5559 1.06516 14.269 1.38719 14.1987L3.12391 13.8134C3.28 13.2973 3.49094 12.7925 3.75391 12.3059L2.79063 10.8083C2.61063 10.5312 2.64859 10.1656 2.88203 9.93217L4.54281 8.25873C4.77484 8.02248 5.14047 7.9831 5.42031 8.1617L6.93062 9.12779C7.41859 8.86482 7.92203 8.65388 8.43672 8.49779L8.81219 6.76388C8.89375 6.38279 9.27484 6.14092 9.6475 6.22529C10.0272 6.30685 10.2677 6.68092 10.1861 7.0606L9.72203 9.21217C9.66578 9.47654 9.46187 9.68326 9.20031 9.74654C8.53656 9.90685 7.88969 10.1769 7.27656 10.5495C7.04875 10.6901 6.75906 10.6859 6.53266 10.5425L5.14047 9.65232L4.27703 10.5214L5.16719 11.9023C5.31484 12.1287 5.31766 12.4198 5.17703 12.649C4.80437 13.2608 4.53437 13.9076 4.37547 14.5714C4.31219 14.8329 4.10687 15.0354 3.84391 15.0945L2.24219 15.4489V16.654L3.84391 17.0098C4.10687 17.0689 4.31219 17.2714 4.37547 17.5329C4.53437 18.1967 4.80578 18.8436 5.17703 19.4553C5.31766 19.6845 5.31484 19.9742 5.16859 20.2006L4.27703 21.5928L5.13766 22.4534L6.53125 21.5619C6.75766 21.4184 7.04875 21.4156 7.27516 21.5548C7.88828 21.9275 8.53516 22.1975 9.1975 22.3578C9.46047 22.4211 9.66297 22.6292 9.71922 22.8922L10.0652 24.4897H10.6797C11.0678 24.4897 11.3828 24.8047 11.3828 25.1928C11.3828 25.5809 11.0678 25.8959 10.6797 25.8959Z" fill="black"/>
<path d="M21.2267 25.193C21.1705 25.193 21.1142 25.186 21.0566 25.1719C20.6783 25.0777 20.4505 24.6966 20.5447 24.3197L21.9509 18.6947C22.0437 18.3165 22.4192 18.0886 22.8031 18.1829C23.1814 18.2771 23.4092 18.6582 23.315 19.0351L21.9087 24.6601C21.83 24.9807 21.5431 25.193 21.2267 25.193Z" fill="black"/>
<path d="M25.4457 25.1928C25.2657 25.1928 25.0857 25.1239 24.9479 24.9875C24.6736 24.7133 24.6736 24.2675 24.9479 23.9933L27.2639 21.6772L24.9493 19.3625C24.675 19.0883 24.675 18.6425 24.9493 18.3683C25.2235 18.094 25.6693 18.094 25.9435 18.3683L28.756 21.1808C29.0302 21.455 29.0302 21.9008 28.756 22.175L25.9435 24.9875C25.8057 25.1239 25.6257 25.1928 25.4457 25.1928Z" fill="black"/>
<path d="M18.4144 25.1928C18.2344 25.1928 18.0544 25.1239 17.9166 24.9875L15.1041 22.175C14.8299 21.9008 14.8299 21.455 15.1041 21.1808L17.9166 18.3683C18.1908 18.094 18.6366 18.094 18.9108 18.3683C19.185 18.6425 19.185 19.0883 18.9108 19.3625L16.5961 21.6772L18.9108 23.9919C19.185 24.2661 19.185 24.7119 18.9108 24.9861C18.7744 25.1239 18.5944 25.1928 18.4144 25.1928Z" fill="black"/>
</svg>
