<svg width="46" height="46" viewBox="0 0 46 46" fill="none" xmlns="http://www.w3.org/2000/svg">
<g clip-path="url(#clip0_1510_9099)">
<path d="M40.2448 13.6528C39.9173 10.7717 38.5835 8.11107 36.4518 6.11112C34.1726 3.97257 31.1953 2.79492 28.0684 2.79492C23.4822 2.79492 19.3447 5.31984 17.2339 9.31597C16.0068 8.48681 14.5593 8.03971 13.0568 8.03971C9.67209 8.03971 6.71395 10.3318 5.84059 13.5573C2.58424 14.8677 0.429688 18.0293 0.429688 21.5749C0.429688 26.34 4.30645 30.2168 9.07162 30.2168H10.9257C11.4615 32.4791 12.4429 34.622 13.8392 36.5483C16.0493 39.5969 19.0974 41.8294 22.6539 43.0044C22.7434 43.034 22.8365 43.0488 22.9296 43.0488C23.0228 43.0488 23.1158 43.0341 23.2053 43.0044C26.7619 41.8294 29.8099 39.5969 32.02 36.5483C33.4163 34.622 34.3977 32.4791 34.9336 30.2168H36.7877C41.5529 30.2168 45.4297 26.34 45.4297 21.5749C45.4297 18.1321 43.3682 15.0172 40.2448 13.6528ZM22.9297 41.2415C16.5037 38.9901 12.207 32.9501 12.207 26.1199V19.6816C15.9371 19.2499 19.5387 18.256 22.9297 16.7222C26.3206 18.256 29.9222 19.2499 33.6523 19.6816V26.1199C33.6523 32.9501 29.3555 38.9901 22.9297 41.2415ZM36.7878 28.459H35.2564C35.358 27.6884 35.4102 26.9076 35.4102 26.1199V18.89C35.4102 18.4364 35.0649 18.0573 34.6134 18.0149C30.6629 17.6442 26.8568 16.6158 23.301 14.9584C23.0657 14.8486 22.7938 14.8486 22.5584 14.9584C19.0026 16.6158 15.1965 17.6442 11.2461 18.0149C10.7945 18.0573 10.4493 18.4364 10.4493 18.89V26.1199C10.4493 26.9077 10.5014 27.6885 10.603 28.459H9.07162C5.27571 28.459 2.1875 25.3708 2.1875 21.5749C2.1875 18.6175 4.06871 15.9957 6.86873 15.0506C7.16659 14.95 7.38808 14.6981 7.4496 14.3899C7.98064 11.7289 10.3388 9.79761 13.0567 9.79761C14.5089 9.79761 15.894 10.3439 16.9566 11.3359C17.1672 11.5324 17.4605 11.6134 17.7424 11.5523C18.0239 11.4914 18.2577 11.2963 18.3682 11.0303C20.0012 7.09532 23.8088 4.55273 28.0684 4.55273C33.569 4.55273 38.1694 8.84689 38.5415 14.3288C38.5652 14.6769 38.7924 14.978 39.1205 15.0962C41.8428 16.0766 43.6719 18.6802 43.6719 21.5749C43.6719 25.3708 40.5837 28.459 36.7878 28.459Z" fill="#212529"/>
<path d="M26.8219 25.5905H26.7277V24.6174C26.7277 22.5231 25.0239 20.8193 22.9296 20.8193C20.8353 20.8193 19.1315 22.5232 19.1315 24.6174V25.5905H19.0374C18.1775 25.5905 17.4805 26.2875 17.4805 27.1474V33.375C17.4805 34.2349 18.1775 34.9319 19.0374 34.9319H26.8219C27.6818 34.9319 28.3788 34.2349 28.3788 33.375V27.1474C28.3788 26.2875 27.6818 25.5905 26.8219 25.5905ZM20.8893 25.5905V24.6174C20.8893 23.4924 21.8046 22.5771 22.9296 22.5771C24.0546 22.5771 24.9699 23.4924 24.9699 24.6174V25.5905H20.8893ZM23.9076 30.6014V32.3469H21.974V30.6014C21.7039 30.3451 21.5345 29.9837 21.5345 29.5819C21.5345 28.8053 22.1641 28.1757 22.9408 28.1757C23.7175 28.1757 24.347 28.8053 24.347 29.5819C24.347 29.9837 24.1776 30.3451 23.9076 30.6014Z" fill="#212529"/>
</g>
<defs>
<clipPath id="clip0_1510_9099">
<rect width="45" height="45" fill="white" transform="translate(0.429688 0.421875)"/>
</clipPath>
</defs>
</svg>
