<svg width="46" height="46" viewBox="0 0 46 46" fill="none" xmlns="http://www.w3.org/2000/svg">
<path d="M25.336 26.3271L20.5 36.2856" stroke="#212529" stroke-width="1.5" stroke-miterlimit="10" stroke-linecap="round" stroke-linejoin="round"/>
<mask id="mask0_1510_9103" style="mask-type:luminance" maskUnits="userSpaceOnUse" x="0" y="0" width="46" height="46">
<path d="M0.429688 0.383301H45.4297V45.3833H0.429688V0.383301Z" fill="white"/>
</mask>
<g mask="url(#mask0_1510_9103)">
<path d="M20.0079 25.6645C19.8284 25.485 19.6152 25.3425 19.3806 25.2453C19.146 25.1482 18.8946 25.0981 18.6406 25.0981C18.3867 25.0981 18.1353 25.1482 17.9007 25.2453C17.6661 25.3425 17.4529 25.485 17.2734 25.6645C17.0938 25.8441 16.9514 26.0572 16.8542 26.2918C16.757 26.5264 16.707 26.7778 16.707 27.0318C16.707 27.2857 16.757 27.5371 16.8542 27.7717C16.9514 28.0063 17.0938 28.2195 17.2734 28.399C17.4529 28.5786 17.6661 28.721 17.9007 28.8182C18.1353 28.9154 18.3867 28.9654 18.6406 28.9654C18.8946 28.9654 19.146 28.9154 19.3806 28.8182C19.6152 28.721 19.8284 28.5786 20.0079 28.399C20.1875 28.2195 20.3299 28.0063 20.4271 27.7717C20.5242 27.5371 20.5743 27.2857 20.5743 27.0318C20.5743 26.7778 20.5242 26.5264 20.4271 26.2918C20.3299 26.0572 20.1875 25.8441 20.0079 25.6645Z" stroke="#212529" stroke-width="1.5" stroke-miterlimit="10" stroke-linecap="round" stroke-linejoin="round"/>
<path d="M28.586 34.2426C28.4065 34.0631 28.1933 33.9206 27.9587 33.8235C27.7241 33.7263 27.4727 33.6763 27.2188 33.6763C26.9648 33.6763 26.7134 33.7263 26.4788 33.8235C26.2442 33.9206 26.0311 34.0631 25.8515 34.2426C25.672 34.4222 25.5295 34.6353 25.4324 34.8699C25.3352 35.1045 25.2852 35.356 25.2852 35.6099C25.2852 35.8638 25.3352 36.1153 25.4324 36.3498C25.5295 36.5844 25.672 36.7976 25.8515 36.9771C26.0311 37.1567 26.2442 37.2991 26.4788 37.3963C26.7134 37.4935 26.9648 37.5435 27.2188 37.5435C27.4727 37.5435 27.7241 37.4935 27.9587 37.3963C28.1933 37.2991 28.4065 37.1567 28.586 36.9771C28.7656 36.7976 28.908 36.5844 29.0052 36.3498C29.1024 36.1153 29.1524 35.8638 29.1524 35.6099C29.1524 35.356 29.1024 35.1045 29.0052 34.8699C28.908 34.6353 28.7656 34.4222 28.586 34.2426Z" stroke="#212529" stroke-width="1.5" stroke-miterlimit="10" stroke-linecap="round" stroke-linejoin="round"/>
<path d="M38.1358 18.1352H5.16127C4.95549 18.1354 4.75168 18.095 4.56151 18.0164C4.37134 17.9378 4.19851 17.8224 4.05293 17.677C3.90736 17.5316 3.79188 17.3589 3.71309 17.1688C3.6343 16.9787 3.59375 16.7749 3.59375 16.5691V10.5602C3.59375 10.1448 3.75875 9.7465 4.05243 9.45282C4.34611 9.15914 4.74443 8.99414 5.15976 8.99414H40.6992C41.1146 8.99414 41.5129 9.15914 41.8066 9.45282C42.1003 9.7465 42.2653 10.1448 42.2653 10.5602V16.5691C42.2653 16.7748 42.2248 16.9784 42.1461 17.1684C42.0674 17.3584 41.952 17.5311 41.8066 17.6765C41.6612 17.8219 41.4885 17.9373 41.2986 18.016C41.1086 18.0947 40.9049 18.1352 40.6992 18.1352H38.1343" stroke="#212529" stroke-width="1.5" stroke-miterlimit="10" stroke-linecap="round" stroke-linejoin="round"/>
<path d="M26.7965 18.1441H19.0625V8.99414H26.7965V18.1441Z" stroke="#212529" stroke-width="1.5" stroke-miterlimit="10" stroke-linecap="round" stroke-linejoin="round"/>
<path d="M40.507 18.1372V42.7462C40.507 42.9771 40.4615 43.2057 40.3732 43.419C40.2848 43.6323 40.1553 43.8261 39.9921 43.9893C39.8289 44.1525 39.6351 44.282 39.4218 44.3704C39.2085 44.4587 38.9799 44.5042 38.749 44.5042H7.10956C6.87869 44.5042 6.65003 44.4587 6.43674 44.3704C6.22345 44.282 6.0297 44.1525 5.86646 43.9893C5.70321 43.8261 5.57367 43.6323 5.48532 43.419C5.39697 43.2057 5.35156 42.9771 5.35156 42.7462V18.1372" stroke="#212529" stroke-width="1.5" stroke-miterlimit="10" stroke-linecap="round" stroke-linejoin="round"/>
<path d="M29.5537 1.26221C28.8543 1.26224 28.1677 1.44897 27.5646 1.80311C26.9615 2.15725 26.4639 2.66597 26.1232 3.27671L22.9297 8.99771H29.5537C29.9388 8.99771 30.3202 8.92173 30.6759 8.77411C31.0316 8.6265 31.3548 8.41015 31.6268 8.13747C31.8987 7.86478 32.1143 7.54111 32.261 7.18501C32.4077 6.8289 32.4827 6.44735 32.4817 6.06221V4.19021C32.4817 3.41365 32.1732 2.6689 31.6241 2.1198C31.075 1.57069 30.3302 1.26221 29.5537 1.26221Z" stroke="#212529" stroke-width="1.5" stroke-miterlimit="10" stroke-linecap="round" stroke-linejoin="round"/>
<path d="M16.3084 1.26221C17.0078 1.26224 17.6945 1.44897 18.2975 1.80311C18.9006 2.15726 19.3982 2.66597 19.7389 3.27671L22.9324 8.99771H16.3084C15.9232 8.99791 15.5416 8.92207 15.1857 8.77454C14.8298 8.62702 14.5065 8.4107 14.2344 8.138C13.9622 7.86529 13.7466 7.54156 13.5998 7.18535C13.453 6.82915 13.3779 6.44747 13.3789 6.06221V4.19021C13.3789 3.80557 13.4547 3.4247 13.6019 3.06936C13.7492 2.71402 13.965 2.39118 14.237 2.11927C14.5091 1.84736 14.832 1.63172 15.1875 1.48466C15.5429 1.3376 15.9238 1.26201 16.3084 1.26221Z" stroke="#212529" stroke-width="1.5" stroke-miterlimit="10" stroke-linecap="round" stroke-linejoin="round"/>
</g>
</svg>
