<svg width="60" height="60" viewBox="0 0 60 60" fill="none" xmlns="http://www.w3.org/2000/svg">
<g clip-path="url(#clip0_2013_11510)">
<path d="M30 60C46.5685 60 60 46.5685 60 30C60 13.4315 46.5685 0 30 0C13.4315 0 0 13.4315 0 30C0 46.5685 13.4315 60 30 60Z" fill="#EEC9FF"/>
<path d="M44.6362 15.3012H15.3642C14.974 15.3463 14.6171 15.5426 14.3699 15.8478C14.1227 16.153 14.0049 16.543 14.0418 16.934V39.798C14.0418 42.5012 15.8218 44.698 18.009 44.698H41.9906C44.1786 44.698 45.9578 42.5004 45.9578 39.7988V16.934C45.9947 16.5431 45.8771 16.1533 45.63 15.848C45.383 15.5428 45.0262 15.3465 44.6362 15.3012Z" stroke="#161717" stroke-width="1.5" stroke-linecap="round"/>
<path d="M34.9012 17.7559C35.3936 17.7548 35.8672 17.9449 36.222 18.2863C36.3996 18.4571 36.5407 18.662 36.6369 18.8887C36.7331 19.1154 36.7825 19.3592 36.782 19.6055V20.5503C36.7804 21.4216 36.6023 22.2835 36.2586 23.0841C35.9149 23.8848 35.4126 24.6075 34.782 25.2087C33.4931 26.4386 31.78 27.1247 29.9984 27.1247C28.2169 27.1247 26.5038 26.4386 25.2148 25.2087C24.5843 24.6075 24.082 23.8848 23.7383 23.0841C23.3945 22.2835 23.2165 21.4216 23.2148 20.5503V19.6055C23.2144 19.3592 23.2637 19.1154 23.36 18.8887C23.4562 18.662 23.5973 18.4571 23.7748 18.2863C24.1304 17.9468 24.6032 17.7573 25.0948 17.7573C25.5865 17.7573 26.0593 17.9468 26.4148 18.2863C26.5924 18.4571 26.7335 18.662 26.8297 18.8887C26.9259 19.1154 26.9753 19.3592 26.9748 19.6055V20.5503C26.9764 20.9285 27.0545 21.3025 27.2045 21.6497C27.3545 21.9968 27.5733 22.31 27.8476 22.5703C28.426 23.119 29.1928 23.4249 29.99 23.4249C30.7873 23.4249 31.5541 23.119 32.1324 22.5703C32.4088 22.311 32.6297 21.9982 32.7817 21.651C32.9336 21.3038 33.0135 20.9293 33.0164 20.5503V19.6055C33.016 19.3592 33.0653 19.1154 33.1616 18.8887C33.2578 18.662 33.3989 18.4571 33.5764 18.2863C33.9323 17.944 34.4075 17.7537 34.9012 17.7559Z" stroke="#161717" stroke-width="1.5" stroke-linecap="round"/>
<path d="M38.916 42.2087C37.694 42.182 36.5322 41.6727 35.6847 40.7919C34.8371 39.9112 34.3726 38.7308 34.3928 37.5087L34.3856 33.5151C34.3811 33.4243 34.3946 33.3336 34.4252 33.248C34.4558 33.1624 34.503 33.0837 34.564 33.0164C34.6873 32.8804 34.8595 32.7989 35.0428 32.7899C35.2261 32.7809 35.4055 32.8451 35.5415 32.9683C35.6775 33.0916 35.759 33.2638 35.768 33.4471C35.768 33.47 35.768 33.4927 35.768 33.5151L35.776 34.0135L35.856 34.0471C36.6756 33.2434 37.7769 32.7918 38.9248 32.7887C40.1487 32.8181 41.3111 33.3313 42.1574 34.216C43.0037 35.1007 43.4649 36.2847 43.44 37.5087C43.4619 38.7318 42.998 39.9136 42.1499 40.7952C41.3019 41.6768 40.139 42.1863 38.916 42.2119V42.2087ZM38.9224 40.7751C39.7734 40.7562 40.5823 40.4008 41.1719 39.7868C41.7614 39.1728 42.0837 38.3502 42.068 37.4991C42.0836 36.6487 41.7613 35.8268 41.1718 35.2137C40.5822 34.6006 39.7736 34.2463 38.9232 34.2287C38.0712 34.2468 37.2612 34.6024 36.6714 35.2175C36.0815 35.8325 35.76 36.6567 35.7776 37.5087C35.7613 38.359 36.0832 39.1811 36.6725 39.7943C37.2619 40.4074 38.0705 40.7617 38.9208 40.7791L38.9224 40.7751Z" fill="#161717"/>
<path d="M29.4839 42.2095C28.2615 42.1838 27.099 41.6748 26.2511 40.7939C25.4032 39.913 24.9389 38.732 24.9599 37.5095C24.9358 36.2842 25.3985 35.0994 26.2465 34.2146C27.0945 33.3299 28.2587 32.8174 29.4839 32.7895C30.3744 32.7987 31.2424 33.0709 31.9787 33.5719C32.7151 34.073 33.2869 34.7804 33.6223 35.6055C33.9766 36.4439 34.0881 37.365 33.9439 38.2637C33.7998 39.1623 33.4058 40.0024 32.8071 40.6879L32.8423 40.7679L33.3175 40.7751C33.5084 40.7751 33.6916 40.8509 33.8266 40.986C33.9616 41.121 34.0375 41.3041 34.0375 41.4951C34.0375 41.686 33.9616 41.8692 33.8266 42.0042C33.6916 42.1392 33.5084 42.2151 33.3175 42.2151L29.4839 42.2095ZM29.4839 34.2303C28.635 34.25 27.8284 34.6046 27.2399 35.2166C26.6514 35.8286 26.3287 36.6485 26.3423 37.4975C26.3345 38.1359 26.514 38.7626 26.8587 39.3001C27.2034 39.8376 27.698 40.2622 28.2815 40.5215C28.6617 40.6875 29.0722 40.7733 29.4871 40.7735C29.9038 40.773 30.3161 40.6876 30.6987 40.5226C31.0813 40.3575 31.4263 40.1163 31.7127 39.8135C32.1555 39.3467 32.4551 38.7625 32.5756 38.1304C32.6961 37.4983 32.6327 36.8449 32.3927 36.2479C32.1679 35.6582 31.7704 35.15 31.2521 34.7899C30.7338 34.4298 30.119 34.2345 29.4879 34.2295L29.4839 34.2303Z" fill="#161717"/>
</g>
<defs>
<clipPath id="clip0_2013_11510">
<rect width="60" height="60" fill="white"/>
</clipPath>
</defs>
</svg>
