<svg width="46" height="46" viewBox="0 0 46 46" fill="none" xmlns="http://www.w3.org/2000/svg">
<g clip-path="url(#clip0_1439_22443)">
<path d="M26.9702 1.12744H3.94734C3.19807 1.12744 2.60547 1.73367 2.60547 2.4625V43.0319C2.60547 43.7743 3.20488 44.3669 3.94734 44.3669H31.098" stroke="black" stroke-miterlimit="10" stroke-linecap="round" stroke-linejoin="round"/>
<path d="M35.0977 26.3366V9.22607" stroke="black" stroke-miterlimit="10" stroke-linecap="round" stroke-linejoin="round"/>
<path d="M26.9688 1.12744V8.57924C26.9688 8.94025 27.2616 9.23314 27.6227 9.23314H35.0949L26.9688 1.12744Z" stroke="black" stroke-miterlimit="10" stroke-linecap="round" stroke-linejoin="round"/>
<path d="M6.51562 17.1753H11.5766V22.2158H6.51562V17.1753Z" stroke="black" stroke-miterlimit="10" stroke-linecap="round" stroke-linejoin="round"/>
<path d="M6.51562 26.3433H11.5766V31.3838H6.51562V26.3433Z" stroke="black" stroke-miterlimit="10" stroke-linecap="round" stroke-linejoin="round"/>
<path d="M6.51562 35.5869H11.5766V40.6274H6.51562V35.5869Z" stroke="black" stroke-miterlimit="10" stroke-linecap="round" stroke-linejoin="round"/>
<path d="M13.6406 18.1694H30.8056" stroke="black" stroke-miterlimit="10" stroke-linecap="round" stroke-linejoin="round"/>
<path d="M13.6406 21.1191H25.5948" stroke="black" stroke-miterlimit="10" stroke-linecap="round" stroke-linejoin="round"/>
<path d="M13.6406 27.8418H25.5948" stroke="black" stroke-miterlimit="10" stroke-linecap="round" stroke-linejoin="round"/>
<path d="M13.6406 30.3418H21.7123" stroke="black" stroke-miterlimit="10" stroke-linecap="round" stroke-linejoin="round"/>
<path d="M13.6406 36.9629H22.2231" stroke="black" stroke-miterlimit="10" stroke-linecap="round" stroke-linejoin="round"/>
<path d="M13.6406 39.6602H22.2231" stroke="black" stroke-miterlimit="10" stroke-linecap="round" stroke-linejoin="round"/>
<path d="M9.65295 8.38838V7.84346C9.65295 7.27129 9.18977 6.80811 8.61079 6.80811H7.32341C6.75124 6.80811 6.28125 7.27129 6.28125 7.84346V12.1415C6.28125 12.6524 6.69675 13.0679 7.21443 13.0679H8.76064C9.25107 13.0679 9.65295 12.666 9.65295 12.1756V10.3433C9.65295 10.1185 9.46904 9.93459 9.24426 9.93459H7.96369" stroke="black" stroke-miterlimit="10" stroke-linecap="round" stroke-linejoin="round"/>
<path d="M13.8933 9.94809C12.8579 9.82548 12.1836 9.23969 12.1836 8.36101C12.1836 7.48232 12.9465 6.77393 13.8933 6.77393C14.8401 6.77393 15.603 7.48232 15.603 8.36101" stroke="black" stroke-miterlimit="10" stroke-linecap="round" stroke-linejoin="round"/>
<path d="M13.8738 9.94824C14.9091 10.0913 15.5834 10.5613 15.5834 11.5353C15.5834 12.414 14.8206 13.1224 13.8738 13.1224C12.927 13.1224 12.1641 12.414 12.1641 11.5353" stroke="black" stroke-miterlimit="10" stroke-linecap="round" stroke-linejoin="round"/>
<path d="M17.2148 6.78076H21.7377" stroke="black" stroke-miterlimit="10" stroke-linecap="round" stroke-linejoin="round"/>
<path d="M19.4766 6.78076V13.1223" stroke="black" stroke-miterlimit="10" stroke-linecap="round" stroke-linejoin="round"/>
<path d="M28.92 27.9374L27.9255 28.203C27.3874 28.346 26.9719 28.7752 26.8493 29.3201L26.57 30.5666C26.5087 30.8459 26.3657 31.1047 26.1545 31.3091L25.2826 32.1537C24.9012 32.5283 24.7445 33.0732 24.8739 33.5841L25.2213 34.9805C25.2826 35.2257 25.2826 35.4777 25.2145 35.7229L24.8739 37.0171C24.7377 37.528 24.8876 38.0661 25.2486 38.4407L25.9502 39.1627C26.1273 39.3466 26.2567 39.5714 26.3248 39.8234L26.7403 41.3628C26.8765 41.8601 27.2512 42.2551 27.7484 42.405L29.3219 42.8886C29.5534 42.9635 29.7646 43.0862 29.9417 43.2564L30.9702 44.2782C31.4198 44.7209 32.0941 44.8435 32.6663 44.5779L33.3815 44.2441C33.7834 44.0602 34.2466 44.0602 34.6485 44.2441L35.3637 44.5779C35.9358 44.8435 36.6102 44.7277 37.0597 44.2782L38.1836 43.1611C38.3675 42.9772 38.5991 42.8478 38.8443 42.7796L40.159 42.4186C40.7311 42.262 41.1603 41.7783 41.242 41.1926L41.4055 40.1027C41.46 39.7553 41.6303 39.4352 41.8959 39.1968L42.7405 38.4543C43.1901 38.0593 43.3604 37.4326 43.1697 36.8672L42.7678 35.648C42.6588 35.3142 42.6724 34.9464 42.8018 34.6194L43.0947 33.8906C43.3263 33.3184 43.1833 32.6714 42.7337 32.2422L41.6507 31.2205C41.3919 30.9753 41.2284 30.6551 41.1943 30.3009L41.0853 29.3133C41.0104 28.6185 40.4587 28.0736 39.7639 27.9918L38.9329 27.8965C38.5991 27.8556 38.2926 27.7126 38.0542 27.4742L37.0734 26.5069C36.6579 26.0982 36.038 25.9688 35.4931 26.1732L34.7098 26.4661C34.4101 26.5819 34.0763 26.5887 33.7698 26.5001L32.2576 26.0642C31.7536 25.9211 31.2155 26.0506 30.8272 26.3979L29.533 27.5832C29.3695 27.7603 29.1516 27.876 28.92 27.9374Z" stroke="black" stroke-miterlimit="10" stroke-linecap="round" stroke-linejoin="round"/>
<path d="M31.2422 34.272H36.8549" stroke="black" stroke-miterlimit="10" stroke-linecap="round" stroke-linejoin="round"/>
<path d="M35.0839 40.7432L31.2422 36.7653H32.6862C34.1098 36.7653 35.261 35.6141 35.261 34.1973C35.261 32.7805 34.1098 31.6294 32.6862 31.6294H31.2422H36.8549" stroke="black" stroke-miterlimit="10" stroke-linecap="round" stroke-linejoin="round"/>
</g>
<defs>
<clipPath id="clip0_1439_22443">
<rect width="45" height="45" fill="white" transform="translate(0.429688 0.424316)"/>
</clipPath>
</defs>
</svg>
