<svg width="46" height="46" viewBox="0 0 46 46" fill="none" xmlns="http://www.w3.org/2000/svg">
<path d="M22.9895 36.4292C20.3802 36.4292 17.8296 35.6554 15.6601 34.2058C13.4905 32.7562 11.7996 30.6958 10.8011 28.2852C9.80259 25.8745 9.54133 23.2219 10.0504 20.6628C10.5594 18.1037 11.8159 15.753 13.6609 13.908C15.5059 12.063 17.8566 10.8065 20.4157 10.2974C22.9749 9.7884 25.6274 10.0497 28.0381 11.0482C30.4487 12.0467 32.5091 13.7376 33.9587 15.9071C35.4084 18.0766 36.1821 20.6273 36.1821 23.2366C36.1799 26.7348 34.7892 30.0891 32.3156 32.5627C29.842 35.0363 26.4877 36.4269 22.9895 36.4292ZM22.9895 11.0634C20.5819 11.0634 18.2283 11.7774 16.2265 13.115C14.2246 14.4526 12.6643 16.3538 11.743 18.5781C10.8216 20.8024 10.5806 23.2501 11.0503 25.6114C11.52 27.9728 12.6793 30.1418 14.3818 31.8443C16.0842 33.5467 18.2533 34.7061 20.6146 35.1758C22.976 35.6455 25.4236 35.4044 27.6479 34.4831C29.8723 33.5617 31.7735 32.0014 33.1111 29.9996C34.4487 27.9977 35.1626 25.6442 35.1626 23.2366C35.1578 20.0095 33.8737 16.9161 31.5918 14.6342C29.31 12.3524 26.2165 11.0683 22.9895 11.0634Z" fill="#212529" stroke="#212529" stroke-width="0.5"/>
<path d="M10.9605 19.7192C9.48997 19.7177 8.08008 19.1329 7.04024 18.093C6.0004 17.0532 5.41556 15.6433 5.41406 14.1727V10.5537C5.41406 10.4185 5.46777 10.2888 5.56336 10.1932C5.65896 10.0977 5.78861 10.0439 5.92381 10.0439C6.059 10.0439 6.18866 10.0977 6.28425 10.1932C6.37985 10.2888 6.43355 10.4185 6.43355 10.5537V14.1727C6.4343 15.3731 6.91149 16.5241 7.7603 17.373C8.60911 18.2218 9.76013 18.699 10.9605 18.6997C11.0957 18.6997 11.2254 18.7534 11.321 18.849C11.4166 18.9446 11.4703 19.0743 11.4703 19.2094C11.4703 19.3446 11.4166 19.4743 11.321 19.5699C11.2254 19.6655 11.0957 19.7192 10.9605 19.7192Z" fill="#212529" stroke="#212529" stroke-width="0.5"/>
<path d="M35.0215 19.7192C34.8863 19.7192 34.7566 19.6655 34.661 19.5699C34.5654 19.4743 34.5117 19.3446 34.5117 19.2094C34.5117 19.0743 34.5654 18.9446 34.661 18.849C34.7566 18.7534 34.8863 18.6997 35.0215 18.6997C36.2218 18.699 37.3729 18.2218 38.2217 17.373C39.0705 16.5241 39.5477 15.3731 39.5484 14.1727V10.5537C39.5484 10.4185 39.6021 10.2888 39.6977 10.1932C39.7933 10.0977 39.923 10.0439 40.0582 10.0439C40.1934 10.0439 40.323 10.0977 40.4186 10.1932C40.5142 10.2888 40.5679 10.4185 40.5679 10.5537V14.1727C40.5664 15.6433 39.9816 17.0532 38.9418 18.093C37.9019 19.1329 36.492 19.7177 35.0215 19.7192Z" fill="#212529" stroke="#212529" stroke-width="0.5"/>
<path d="M40.0582 36.4291C39.9911 36.4297 39.9245 36.4169 39.8624 36.3915C39.8003 36.3661 39.7439 36.3286 39.6965 36.2811C39.649 36.2337 39.6115 36.1772 39.5861 36.1151C39.5607 36.053 39.5479 35.9865 39.5484 35.9194V32.3004C39.5477 31.1 39.0705 29.9489 38.2217 29.1001C37.3729 28.2513 36.2218 27.7741 35.0215 27.7734C34.9545 27.7734 34.8882 27.7602 34.8264 27.7346C34.7645 27.709 34.7084 27.6714 34.661 27.6241C34.6137 27.5768 34.5761 27.5206 34.5505 27.4587C34.5249 27.3969 34.5117 27.3306 34.5117 27.2636C34.5117 27.1967 34.5249 27.1304 34.5505 27.0686C34.5761 27.0067 34.6137 26.9506 34.661 26.9032C34.7084 26.8559 34.7645 26.8183 34.8264 26.7927C34.8882 26.7671 34.9545 26.7539 35.0215 26.7539C36.492 26.7554 37.9019 27.3402 38.9418 28.3801C39.9816 29.4199 40.5664 30.8298 40.5679 32.3004V35.9194C40.5676 36.0545 40.5137 36.1839 40.4182 36.2794C40.3227 36.3749 40.1933 36.4288 40.0582 36.4291Z" fill="#212529" stroke="#212529" stroke-width="0.5"/>
<path d="M5.92382 36.4291C5.85673 36.4297 5.79019 36.4169 5.72809 36.3915C5.66599 36.3661 5.60957 36.3286 5.56212 36.2811C5.51468 36.2337 5.47715 36.1772 5.45173 36.1151C5.42631 36.053 5.41352 35.9865 5.41408 35.9194V32.3004C5.41558 30.8298 6.00042 29.4199 7.04026 28.3801C8.0801 27.3402 9.48999 26.7554 10.9605 26.7539C11.0275 26.7539 11.0938 26.7671 11.1556 26.7927C11.2175 26.8183 11.2737 26.8559 11.321 26.9032C11.3683 26.9506 11.4059 27.0067 11.4315 27.0686C11.4571 27.1304 11.4703 27.1967 11.4703 27.2636C11.4703 27.3306 11.4571 27.3969 11.4315 27.4587C11.4059 27.5206 11.3683 27.5768 11.321 27.6241C11.2737 27.6714 11.2175 27.709 11.1556 27.7346C11.0938 27.7602 11.0275 27.7734 10.9605 27.7734C9.76014 27.7741 8.60913 28.2513 7.76031 29.1001C6.9115 29.9489 6.43432 31.1 6.43357 32.3004V35.9194C6.43139 36.0539 6.37698 36.1823 6.28186 36.2774C6.18673 36.3726 6.05834 36.427 5.92382 36.4291Z" fill="#212529" stroke="#212529" stroke-width="0.5"/>
<path d="M40.0585 11.0632C39.6189 11.0632 39.1892 10.9329 38.8237 10.6887C38.4582 10.4445 38.1733 10.0974 38.0051 9.69124C37.8369 9.28512 37.7929 8.83824 37.8786 8.40711C37.9644 7.97598 38.1761 7.57996 38.4869 7.26913C38.7977 6.95831 39.1937 6.74663 39.6249 6.66087C40.056 6.57511 40.5029 6.61913 40.909 6.78735C41.3151 6.95556 41.6622 7.24043 41.9064 7.60593C42.1506 7.97142 42.281 8.40113 42.281 8.84071C42.2795 9.4297 42.0449 9.99415 41.6284 10.4106C41.2119 10.8271 40.6475 11.0618 40.0585 11.0632ZM40.0585 7.64754C39.8205 7.64754 39.5879 7.7181 39.3901 7.85029C39.1922 7.98248 39.038 8.17037 38.947 8.3902C38.8559 8.61003 38.8321 8.85192 38.8785 9.08529C38.925 9.31866 39.0395 9.53303 39.2078 9.70128C39.376 9.86953 39.5904 9.9841 39.8238 10.0305C40.0571 10.0769 40.299 10.0531 40.5189 9.96207C40.7387 9.87101 40.9266 9.71681 41.0588 9.51897C41.191 9.32112 41.2615 9.08853 41.2615 8.85059C41.2608 8.53175 41.1338 8.22618 40.9083 8.00073C40.6829 7.77527 40.3773 7.64828 40.0585 7.64754Z" fill="#212529" stroke="#212529" stroke-width="0.5"/>
<path d="M41.4956 23.7475H35.6738C35.5386 23.7475 35.409 23.6938 35.3134 23.5982C35.2178 23.5026 35.1641 23.373 35.1641 23.2378C35.1641 23.1026 35.2178 22.9729 35.3134 22.8773C35.409 22.7817 35.5386 22.728 35.6738 22.728H41.4956C41.6308 22.728 41.7604 22.7817 41.856 22.8773C41.9516 22.9729 42.0054 23.1026 42.0054 23.2378C42.0054 23.373 41.9516 23.5026 41.856 23.5982C41.7604 23.6938 41.6308 23.7475 41.4956 23.7475Z" fill="#212529" stroke="#212529" stroke-width="0.5"/>
<path d="M10.3081 23.7475H4.48631C4.35111 23.7475 4.22146 23.6938 4.12586 23.5982C4.03027 23.5026 3.97656 23.373 3.97656 23.2378C3.97656 23.1026 4.03027 22.9729 4.12586 22.8773C4.22146 22.7817 4.35111 22.728 4.48631 22.728H10.3081C10.4433 22.728 10.573 22.7817 10.6686 22.8773C10.7642 22.9729 10.8179 23.1026 10.8179 23.2378C10.8179 23.373 10.7642 23.5026 10.6686 23.5982C10.573 23.6938 10.4433 23.7475 10.3081 23.7475Z" fill="#212529" stroke="#212529" stroke-width="0.5"/>
<path d="M43.2093 25.4603H43.0766C42.4759 25.4428 41.9062 25.1897 41.4907 24.7557C41.0751 24.3216 40.847 23.7414 40.8557 23.1406C40.8644 22.5397 41.1093 21.9664 41.5372 21.5445C41.9652 21.1227 42.542 20.8862 43.143 20.8862C43.7439 20.8862 44.3207 21.1227 44.7487 21.5445C45.1767 21.9664 45.4215 22.5397 45.4302 23.1406C45.4389 23.7414 45.2109 24.3216 44.7953 24.7557C44.3797 25.1897 43.81 25.4428 43.2093 25.4603ZM43.1995 22.0347C42.9031 22.0441 42.6224 22.1697 42.4178 22.3843C42.2133 22.5989 42.1012 22.8853 42.106 23.1817C42.1107 23.4782 42.2318 23.7609 42.4431 23.9688C42.6544 24.1768 42.939 24.2933 43.2355 24.2933C43.5319 24.2933 43.8165 24.1768 44.0278 23.9688C44.2391 23.7609 44.3602 23.4782 44.3649 23.1817C44.3697 22.8853 44.2576 22.5989 44.0531 22.3843C43.8485 22.1697 43.5678 22.0441 43.2715 22.0347C43.2503 22.0502 43.2305 22.0347 43.1995 22.0347Z" fill="#212529" stroke="#212529" stroke-width="0.5"/>
<path d="M2.78354 25.4603H2.65081C2.05013 25.4428 1.48044 25.1897 1.06486 24.7557C0.649288 24.3216 0.42121 23.7414 0.429929 23.1406C0.438647 22.5397 0.68346 21.9664 1.11145 21.5445C1.53945 21.1227 2.11625 20.8862 2.71718 20.8862C3.31811 20.8862 3.89491 21.1227 4.3229 21.5445C4.7509 21.9664 4.99571 22.5397 5.00443 23.1406C5.01315 23.7414 4.78507 24.3216 4.36949 24.7557C3.95392 25.1897 3.38422 25.4428 2.78354 25.4603ZM2.78354 22.0347C2.58918 22.0351 2.39784 22.0828 2.22601 22.1737C2.05418 22.2645 1.90702 22.3958 1.79721 22.5562C1.68739 22.7165 1.61822 22.9012 1.59565 23.0943C1.57308 23.2873 1.59778 23.483 1.66764 23.6643C1.73749 23.8457 1.8504 24.0074 1.99664 24.1354C2.14287 24.2635 2.31805 24.354 2.50707 24.3993C2.69608 24.4446 2.89328 24.4432 3.08166 24.3954C3.27003 24.3475 3.44394 24.2545 3.5884 24.1245C3.82302 23.911 3.96575 23.6149 3.9866 23.2984C3.99633 23.1407 3.9748 22.9826 3.92322 22.8333C3.87164 22.6839 3.79105 22.5462 3.68607 22.4281C3.58108 22.31 3.45379 22.2138 3.3115 22.1451C3.16921 22.0764 3.01474 22.0364 2.85697 22.0276C2.83333 22.0354 2.80824 22.0378 2.78354 22.0347Z" fill="#212529" stroke="#212529" stroke-width="0.5"/>
<path d="M22.9902 42.2524C22.9231 42.253 22.8566 42.2402 22.7945 42.2148C22.7324 42.1893 22.676 42.1519 22.6285 42.1044C22.5811 42.057 22.5436 42.0005 22.5181 41.9384C22.4927 41.8763 22.4799 41.8098 22.4805 41.7427V35.9209C22.4805 35.7857 22.5342 35.656 22.6298 35.5604C22.7254 35.4649 22.855 35.4111 22.9902 35.4111C23.1254 35.4111 23.2551 35.4649 23.3507 35.5604C23.4463 35.656 23.5 35.7857 23.5 35.9209V41.7427C23.5005 41.8098 23.4877 41.8763 23.4623 41.9384C23.4369 42.0005 23.3994 42.057 23.3519 42.1044C23.3045 42.1519 23.2481 42.1893 23.186 42.2148C23.1239 42.2402 23.0573 42.253 22.9902 42.2524Z" fill="#212529" stroke="#212529" stroke-width="0.5"/>
<path d="M22.9902 11.0635C22.9231 11.064 22.8566 11.0512 22.7945 11.0258C22.7324 11.0004 22.676 10.9629 22.6285 10.9154C22.5811 10.868 22.5436 10.8116 22.5181 10.7495C22.4927 10.6874 22.4799 10.6208 22.4805 10.5537V4.73191C22.4805 4.59672 22.5342 4.46707 22.6298 4.37147C22.7254 4.27587 22.855 4.22217 22.9902 4.22217C23.1254 4.22217 23.2551 4.27587 23.3507 4.37147C23.4463 4.46707 23.5 4.59672 23.5 4.73191V10.5537C23.5005 10.6208 23.4877 10.6874 23.4623 10.7495C23.4369 10.8116 23.3994 10.868 23.3519 10.9154C23.3045 10.9629 23.2481 11.0004 23.186 11.0258C23.1239 11.0512 23.0573 11.064 22.9902 11.0635Z" fill="#212529" stroke="#212529" stroke-width="0.5"/>
<path d="M22.9906 45.6668H22.8578C22.2572 45.6494 21.6875 45.3963 21.2719 44.9622C20.8563 44.5281 20.6282 43.9479 20.637 43.3471C20.6457 42.7462 20.8905 42.1729 21.3185 41.7511C21.7465 41.3293 22.3233 41.0928 22.9242 41.0928C23.5251 41.0928 24.1019 41.3293 24.5299 41.7511C24.9579 42.1729 25.2027 42.7462 25.2115 43.3471C25.2202 43.9479 24.9921 44.5281 24.5765 44.9622C24.1609 45.3963 23.5912 45.6494 22.9906 45.6668ZM21.7974 43.3836C21.7875 43.5413 21.8089 43.6995 21.8604 43.8489C21.9119 43.9984 21.9925 44.1361 22.0975 44.2543C22.2025 44.3724 22.3299 44.4686 22.4723 44.5373C22.6146 44.6059 22.7692 44.6458 22.927 44.6544C23.0847 44.6639 23.2427 44.6417 23.3916 44.5891C23.5405 44.5364 23.6774 44.4544 23.794 44.348C24.0286 44.1345 24.1714 43.8384 24.1922 43.5219C24.2009 43.3644 24.1783 43.2066 24.1258 43.0578C24.0732 42.9089 23.9916 42.772 23.8858 42.6549C23.7815 42.5369 23.6548 42.441 23.5129 42.3726C23.3711 42.3042 23.217 42.2648 23.0598 42.2568C22.9022 42.2481 22.7444 42.2707 22.5956 42.3233C22.4468 42.3759 22.3099 42.4574 22.1928 42.5632C22.0717 42.6637 21.9735 42.7889 21.9046 42.9303C21.8357 43.0718 21.7977 43.2263 21.7932 43.3836H21.7974Z" fill="#212529" stroke="#212529" stroke-width="0.5"/>
<path d="M22.9906 5.24296H22.8578C22.2572 5.22553 21.6875 4.97243 21.2719 4.53836C20.8563 4.10429 20.6282 3.52412 20.637 2.92325C20.6457 2.32238 20.8905 1.74907 21.3185 1.32725C21.7465 0.905415 22.3233 0.668945 22.9242 0.668945C23.5251 0.668945 24.1019 0.905415 24.5299 1.32725C24.9579 1.74907 25.2027 2.32238 25.2115 2.92325C25.2202 3.52412 24.9921 4.10429 24.5765 4.53836C24.1609 4.97243 23.5912 5.22553 22.9906 5.24296ZM21.7932 2.96253C21.7844 3.12015 21.8069 3.27794 21.8591 3.42689C21.9114 3.57585 21.9925 3.71305 22.0978 3.83066C22.2031 3.94827 22.3305 4.044 22.4728 4.11237C22.6151 4.18074 22.7694 4.22041 22.927 4.22913C23.0846 4.23784 23.2424 4.21543 23.3914 4.16316C23.5403 4.1109 23.6775 4.0298 23.7952 3.92452C23.9128 3.81923 24.0085 3.6918 24.0769 3.54952C24.1452 3.40724 24.1849 3.25288 24.1936 3.09526C24.2032 2.9376 24.1809 2.77963 24.1283 2.63071C24.0757 2.48179 23.9937 2.34494 23.8872 2.22828C23.674 1.99536 23.3791 1.85373 23.064 1.83291C22.9063 1.82317 22.7482 1.84471 22.5988 1.89628C22.4495 1.94786 22.3118 2.02846 22.1937 2.13344C22.0755 2.23842 21.9794 2.36572 21.9106 2.508C21.8419 2.65029 21.802 2.80476 21.7932 2.96253Z" fill="#212529" stroke="#212529" stroke-width="0.5"/>
<path d="M40.0609 39.846H39.9282C39.3275 39.8286 38.7578 39.5754 38.3422 39.1414C37.9267 38.7073 37.6986 38.1271 37.7073 37.5263C37.716 36.9254 37.9608 36.3521 38.3888 35.9302C38.8168 35.5084 39.3936 35.272 39.9945 35.272C40.5955 35.272 41.1723 35.5084 41.6003 35.9302C42.0283 36.3521 42.273 36.9254 42.2818 37.5263C42.2905 38.1271 42.0624 38.7073 41.6469 39.1414C41.2313 39.5754 40.6616 39.8286 40.0609 39.846ZM39.9889 38.8265C40.2259 38.8397 40.4614 38.7823 40.6657 38.6616C40.8701 38.5408 41.0339 38.3622 41.1366 38.1482C41.2393 37.9342 41.2761 37.6946 41.2425 37.4597C41.2088 37.2247 41.1062 37.005 40.9476 36.8284C40.8434 36.7105 40.7166 36.6145 40.5748 36.5461C40.4329 36.4777 40.2789 36.4384 40.1216 36.4303C39.964 36.4215 39.8062 36.4441 39.6574 36.4967C39.5086 36.5493 39.3717 36.6308 39.2546 36.7367C39.1366 36.8409 39.0407 36.9677 38.9723 37.1096C38.9039 37.2514 38.8645 37.4055 38.8564 37.5627C38.8477 37.7203 38.8703 37.8781 38.9229 38.0269C38.9755 38.1757 39.057 38.3126 39.1628 38.4297C39.3769 38.6641 39.6721 38.8064 39.9889 38.8265Z" fill="#212529" stroke="#212529" stroke-width="0.5"/>
<path d="M5.92417 39.846H5.79144C5.19076 39.8286 4.62107 39.5754 4.20549 39.1414C3.78991 38.7073 3.56184 38.1271 3.57055 37.5263C3.57927 36.9254 3.82409 36.3521 4.25208 35.9302C4.68008 35.5084 5.25687 35.272 5.85781 35.272C6.45874 35.272 7.03554 35.5084 7.46353 35.9302C7.89152 36.3521 8.13634 36.9254 8.14506 37.5263C8.15378 38.1271 7.9257 38.7073 7.51012 39.1414C7.09455 39.5754 6.52485 39.8286 5.92417 39.846ZM5.85216 38.8265C6.00977 38.8352 6.16756 38.8128 6.31652 38.7605C6.46547 38.7082 6.60267 38.6272 6.72028 38.5219C6.8379 38.4166 6.93362 38.2892 7.00199 38.1469C7.07036 38.0046 7.11004 37.8502 7.11875 37.6926C7.12747 37.535 7.10505 37.3772 7.05278 37.2283C7.00052 37.0793 6.91943 36.9421 6.81414 36.8245C6.70885 36.7069 6.58143 36.6112 6.43915 36.5428C6.29686 36.4744 6.14251 36.4348 5.98489 36.4261C5.82723 36.4165 5.66926 36.4387 5.52033 36.4913C5.37141 36.544 5.23457 36.626 5.1179 36.7324C4.88329 36.9459 4.74055 37.242 4.71971 37.5585C4.70424 37.8764 4.81451 38.1877 5.02668 38.425C5.23886 38.6622 5.5359 38.8065 5.85357 38.8265H5.85216Z" fill="#212529" stroke="#212529" stroke-width="0.5"/>
<path d="M5.92544 11.0634H5.79271C5.20456 11.0295 4.65397 10.7633 4.26206 10.3235C3.87015 9.88366 3.66901 9.30614 3.7029 8.718C3.73679 8.12986 4.00294 7.57927 4.44278 7.18735C4.88263 6.79544 5.46014 6.5943 6.04828 6.62819C6.63549 6.6646 7.18455 6.93148 7.57595 7.37074C7.96734 7.81 8.16938 8.38608 8.13809 8.97358C8.10465 9.53815 7.85712 10.0687 7.44596 10.457C7.0348 10.8454 6.49099 11.0622 5.92544 11.0634ZM5.85342 10.0439C6.01114 10.0536 6.16923 10.0321 6.31859 9.98052C6.46796 9.92895 6.60565 9.84835 6.72376 9.74337C6.84186 9.63839 6.93805 9.51109 7.00678 9.3688C7.07551 9.22652 7.11543 9.07204 7.12425 8.91427C7.13378 8.75661 7.11157 8.59864 7.05894 8.44972C7.00631 8.3008 6.92432 8.16395 6.81784 8.04729C6.6044 7.81267 6.3083 7.66994 5.99181 7.64909C5.83415 7.63957 5.67617 7.66178 5.52725 7.71441C5.37833 7.76704 5.24148 7.84903 5.12482 7.95551C4.8902 8.16896 4.74747 8.46505 4.72663 8.78154C4.71263 9.09761 4.82281 9.40661 5.03363 9.6425C5.24446 9.87839 5.5392 10.0225 5.85484 10.0439H5.85342Z" fill="#212529" stroke="#212529" stroke-width="0.5"/>
<path d="M22.9975 27.5306C22.1462 27.5418 21.3108 27.2996 20.5975 26.8348C19.8842 26.37 19.3252 25.7035 18.9916 24.9202C18.6581 24.1369 18.565 23.2721 18.7241 22.4357C18.8833 21.5994 19.2876 20.8292 19.8857 20.2232C20.4837 19.6173 21.2484 19.2028 22.0826 19.0325C22.9168 18.8623 23.7827 18.9439 24.5704 19.2671C25.3581 19.5902 26.0318 20.1403 26.5061 20.8474C26.9803 21.5545 27.2335 22.3866 27.2336 23.238C27.2404 24.3688 26.798 25.456 26.0038 26.2608C25.2095 27.0657 24.1282 27.5224 22.9975 27.5306ZM22.9975 19.9649C22.3476 19.9526 21.7088 20.134 21.1625 20.4861C20.6161 20.8382 20.1869 21.3449 19.9296 21.9418C19.6723 22.5387 19.5986 23.1987 19.7178 23.8376C19.837 24.4766 20.1437 25.0656 20.5989 25.5296C21.0541 25.9936 21.6371 26.3115 22.2736 26.4429C22.9102 26.5743 23.5714 26.5132 24.1731 26.2674C24.7749 26.0216 25.2898 25.6023 25.6522 25.0627C26.0147 24.5232 26.2083 23.888 26.2085 23.238C26.2152 22.3786 25.8811 21.5516 25.2792 20.9381C24.6774 20.3245 23.8569 19.9746 22.9975 19.9649Z" fill="#212529" stroke="#212529" stroke-width="0.5"/>
<path d="M24.8251 32.8102H21.1651C21.098 32.8107 21.0315 32.7979 20.9694 32.7725C20.9073 32.7471 20.8509 32.7096 20.8034 32.6621C20.756 32.6147 20.7185 32.5582 20.693 32.4961C20.6676 32.434 20.6548 32.3675 20.6554 32.3004V30.7203C20.2079 30.5806 19.7744 30.3996 19.3606 30.1795L18.2394 31.3007C18.1445 31.3958 18.0165 31.4505 17.8822 31.4532C17.8153 31.4542 17.7489 31.4411 17.6874 31.4148C17.6258 31.3885 17.5705 31.3497 17.5249 31.3007L14.9353 28.711C14.8402 28.6161 14.7855 28.4881 14.7828 28.3538C14.7818 28.2869 14.7949 28.2205 14.8211 28.159C14.8474 28.0975 14.8863 28.0421 14.9353 27.9965L16.0564 26.8754C15.8406 26.4595 15.6597 26.0264 15.5156 25.5805H13.9355C13.8684 25.5811 13.8019 25.5683 13.7398 25.5429C13.6777 25.5175 13.6213 25.4799 13.5738 25.4325C13.5264 25.3851 13.4889 25.3287 13.4634 25.2666C13.438 25.2045 13.4252 25.1379 13.4258 25.0708V21.3995C13.4252 21.3324 13.438 21.2659 13.4634 21.2038C13.4889 21.1417 13.5264 21.0853 13.5738 21.0378C13.6213 20.9904 13.6777 20.9528 13.7398 20.9274C13.8019 20.902 13.8684 20.8892 13.9355 20.8898H15.5156C15.6553 20.4423 15.8363 20.0088 16.0564 19.5949L14.9353 18.4738C14.8402 18.3789 14.7855 18.2509 14.7828 18.1165C14.7818 18.0496 14.7949 17.9833 14.8211 17.9218C14.8474 17.8602 14.8863 17.8049 14.9353 17.7593L17.5249 15.1697C17.6224 15.0764 17.7522 15.0243 17.8871 15.0243C18.0221 15.0243 18.1518 15.0764 18.2493 15.1697L19.3704 16.2908C19.7863 16.075 20.2194 15.8941 20.6653 15.75V14.1699C20.6647 14.1028 20.6775 14.0363 20.7029 13.9742C20.7283 13.9121 20.7659 13.8557 20.8133 13.8082C20.8608 13.7608 20.9172 13.7232 20.9793 13.6978C21.0414 13.6724 21.1079 13.6596 21.175 13.6602H24.835C24.9022 13.6594 24.9688 13.6721 25.031 13.6974C25.0932 13.7228 25.1497 13.7603 25.1971 13.8078C25.2446 13.8553 25.2821 13.9118 25.3075 13.974C25.3328 14.0361 25.3455 14.1028 25.3447 14.1699V15.75C25.7922 15.8897 26.2257 16.0707 26.6396 16.2908L27.7607 15.1697C27.8556 15.0745 27.9837 15.0199 28.118 15.0171C28.1849 15.0162 28.2512 15.0293 28.3128 15.0555C28.3743 15.0818 28.4296 15.1207 28.4752 15.1697L31.0649 17.7579C31.1134 17.8049 31.152 17.8612 31.1784 17.9234C31.2048 17.9856 31.2184 18.0525 31.2184 18.1201C31.2184 18.1877 31.2048 18.2545 31.1784 18.3168C31.152 18.379 31.1134 18.4353 31.0649 18.4823L29.9437 19.6034C30.1595 20.0193 30.3404 20.4524 30.4845 20.8983H32.066C32.1331 20.8977 32.1997 20.9105 32.2618 20.9359C32.3239 20.9613 32.3803 20.9988 32.4277 21.0463C32.4752 21.0937 32.5127 21.1502 32.5381 21.2123C32.5635 21.2744 32.5763 21.3409 32.5758 21.408V25.068C32.5763 25.1351 32.5635 25.2016 32.5381 25.2637C32.5127 25.3258 32.4752 25.3822 32.4277 25.4297C32.3803 25.4771 32.3239 25.5147 32.2618 25.5401C32.1997 25.5655 32.1331 25.5783 32.066 25.5777H30.4845C30.3448 26.0252 30.1638 26.4587 29.9437 26.8726L31.0649 27.9937C31.1134 28.0407 31.152 28.097 31.1784 28.1592C31.2048 28.2214 31.2184 28.2883 31.2184 28.3559C31.2184 28.4235 31.2048 28.4904 31.1784 28.5526C31.152 28.6148 31.1134 28.6711 31.0649 28.7181L28.4653 31.288C28.4183 31.3365 28.3621 31.3751 28.2998 31.4015C28.2376 31.4279 28.1707 31.4415 28.1032 31.4415C28.0356 31.4415 27.9687 31.4279 27.9065 31.4015C27.8442 31.3751 27.788 31.3365 27.741 31.288L26.6198 30.1668C26.2039 30.3826 25.7708 30.5635 25.325 30.7076V32.2877C25.3273 32.355 25.316 32.4221 25.292 32.485C25.2679 32.548 25.2316 32.6055 25.185 32.6541C25.1384 32.7028 25.0826 32.7417 25.0208 32.7685C24.959 32.7953 24.8925 32.8094 24.8251 32.8102ZM21.6749 31.7907H24.3154V30.332C24.3131 30.2182 24.3504 30.1071 24.421 30.0177C24.4916 29.9283 24.591 29.8662 24.7023 29.8421C25.3217 29.6814 25.9155 29.4342 26.4659 29.1078C26.5637 29.0501 26.6781 29.0268 26.7907 29.0416C26.9033 29.0565 27.0077 29.1086 27.0872 29.1897L28.1166 30.2191L29.9819 28.3538L28.9313 27.3145C28.8525 27.2336 28.802 27.1294 28.7872 27.0175C28.7725 26.9055 28.7943 26.7918 28.8494 26.6932C29.1751 26.1424 29.4223 25.5488 29.5837 24.9296C29.6126 24.8208 29.676 24.7244 29.7643 24.6546C29.8526 24.5849 29.9611 24.5456 30.0736 24.5427H31.5323V21.9022H30.0736C29.9598 21.9045 29.8487 21.8671 29.7593 21.7966C29.6699 21.726 29.6079 21.6266 29.5837 21.5153C29.423 20.8958 29.1758 20.3021 28.8494 19.7517C28.7894 19.6545 28.7648 19.5397 28.7797 19.4265C28.7946 19.3132 28.8482 19.2087 28.9313 19.1304L29.9607 18.101L28.0954 16.2357L27.066 17.2962C26.9851 17.375 26.8809 17.4255 26.769 17.4402C26.657 17.455 26.5433 17.4332 26.4447 17.3781C25.8939 17.0523 25.3003 16.8052 24.6811 16.6438C24.5723 16.6149 24.4759 16.5515 24.4061 16.4632C24.3364 16.3749 24.2971 16.2663 24.2942 16.1538V14.6952H21.6636V16.1538C21.6659 16.2677 21.6285 16.3788 21.558 16.4682C21.4874 16.5575 21.388 16.6196 21.2767 16.6438C20.6587 16.8089 20.0656 17.0558 19.5131 17.3781C19.4159 17.4381 19.301 17.4627 19.1878 17.4478C19.0746 17.4328 18.9701 17.3793 18.8918 17.2962L17.8624 16.2668L15.9971 18.1321L17.0265 19.1615C17.1053 19.2424 17.1558 19.3466 17.1706 19.4585C17.1853 19.5705 17.1635 19.6842 17.1084 19.7828C16.7826 20.3335 16.5355 20.9272 16.3741 21.5464C16.3452 21.6551 16.2818 21.7516 16.1935 21.8213C16.1052 21.8911 15.9966 21.9303 15.8841 21.9333H14.4255V24.5639H15.8841C15.998 24.5616 16.1091 24.5989 16.1985 24.6695C16.2878 24.7401 16.3499 24.8395 16.3741 24.9508C16.5392 25.5687 16.7862 26.1619 17.1084 26.7144C17.1684 26.8116 17.193 26.9264 17.1781 27.0396C17.1632 27.1529 17.1096 27.2574 17.0265 27.3357L15.9971 28.3651L17.8624 30.2304L18.8918 29.201C18.9727 29.1222 19.0768 29.0717 19.1888 29.0569C19.3008 29.0421 19.4145 29.064 19.5131 29.1191C20.0639 29.4448 20.6575 29.6919 21.2767 29.8533C21.3854 29.8823 21.4819 29.9457 21.5516 30.034C21.6214 30.1223 21.6607 30.2308 21.6636 30.3433L21.6749 31.7907Z" fill="#212529" stroke="#212529" stroke-width="0.5"/>
</svg>
