<svg width="46" height="46" viewBox="0 0 46 46" fill="none" xmlns="http://www.w3.org/2000/svg">
<g clip-path="url(#clip0_1428_21350)">
<path d="M41.8039 31.5973H7.28372C6.96975 31.5965 6.66885 31.4717 6.44683 31.2499C6.22481 31.0282 6.09976 30.7277 6.099 30.4141V5.03863C6.09825 4.72506 5.9732 4.42456 5.75118 4.20284C5.52916 3.98111 5.22826 3.85622 4.91429 3.85547H1.61441C1.3002 3.85547 0.998861 3.98012 0.776683 4.20201C0.554506 4.42389 0.429688 4.72483 0.429688 5.03863C0.429688 5.35242 0.554506 5.65336 0.776683 5.87525C0.998861 6.09713 1.3002 6.22179 1.61441 6.22179H3.74519V30.4241C3.74519 31.3647 4.11935 32.2668 4.78535 32.9319C5.45135 33.597 6.35464 33.9707 7.29651 33.9707H41.8153C42.1295 33.9707 42.4308 33.8461 42.653 33.6242C42.8752 33.4023 43 33.1013 43 32.7875C43 32.4738 42.8752 32.1728 42.653 31.9509C42.4308 31.729 42.1295 31.6044 41.8153 31.6044L41.8039 31.5973Z" fill="#212529"/>
<path d="M33.8301 34.6699C32.8833 34.6699 31.9578 34.9503 31.1705 35.4756C30.3833 36.001 29.7697 36.7476 29.4074 37.6212C29.045 38.4948 28.9502 39.4561 29.135 40.3835C29.3197 41.3109 29.7756 42.1628 30.4451 42.8314C31.1146 43.5 31.9676 43.9553 32.8962 44.1398C33.8248 44.3243 34.7874 44.2296 35.6621 43.8677C36.5369 43.5059 37.2845 42.8931 37.8105 42.1069C38.3365 41.3207 38.6173 40.3964 38.6173 39.4508C38.6124 38.1843 38.1065 36.9711 37.2098 36.0756C36.3131 35.18 35.0983 34.6748 33.8301 34.6699ZM33.8301 41.8171C33.3506 41.8171 32.8817 41.6751 32.483 41.409C32.0842 41.1429 31.7734 40.7647 31.5899 40.3222C31.4064 39.8797 31.3583 39.3928 31.4519 38.923C31.5455 38.4533 31.7764 38.0218 32.1155 37.6831C32.4546 37.3444 32.8867 37.1138 33.3571 37.0204C33.8275 36.9269 34.315 36.9749 34.7581 37.1582C35.2012 37.3414 35.5799 37.6518 35.8463 38.0501C36.1128 38.4483 36.255 38.9165 36.255 39.3955C36.2405 40.0332 35.9804 40.6408 35.5288 41.0918C35.0771 41.5429 34.4687 41.8027 33.8301 41.8171Z" fill="#212529"/>
<path d="M35.0041 1.67188H12.6607C11.7188 1.67188 10.8155 2.04554 10.1495 2.71066C9.48353 3.37579 9.10938 4.27789 9.10938 5.21852V25.6982C9.10938 26.6389 9.48353 27.541 10.1495 28.2061C10.8155 28.8712 11.7188 29.2449 12.6607 29.2449H35.0056C35.9474 29.2449 36.8507 28.8712 37.5167 28.2061C38.1827 27.541 38.5569 26.6389 38.5569 25.6982V5.21852C38.5569 4.75265 38.465 4.29134 38.2864 3.86095C38.1078 3.43056 37.8461 3.03952 37.5162 2.71016C37.1863 2.38081 36.7946 2.11959 36.3636 1.94144C35.9326 1.76329 35.4706 1.67169 35.0041 1.67188ZM36.1889 25.6982C36.1881 26.0118 36.063 26.3123 35.841 26.534C35.619 26.7558 35.3181 26.8807 35.0041 26.8814H12.6607C12.3477 26.8792 12.0483 26.7536 11.8275 26.532C11.6067 26.3105 11.4824 26.0108 11.4817 25.6982V21.3912H14.0201C14.1757 21.3912 14.3298 21.3606 14.4735 21.3011C14.6172 21.2417 14.7478 21.1545 14.8579 21.0447C14.9679 20.9348 15.0551 20.8044 15.1147 20.6608C15.1742 20.5173 15.2049 20.3634 15.2049 20.208C15.2049 20.0527 15.1742 19.8988 15.1147 19.7553C15.0551 19.6117 14.9679 19.4813 14.8579 19.3714C14.7478 19.2616 14.6172 19.1744 14.4735 19.1149C14.3298 19.0555 14.1757 19.0249 14.0201 19.0249H11.4817V16.6628H16.3896C16.7038 16.6628 17.0051 16.5382 17.2273 16.3163C17.4495 16.0944 17.5743 15.7935 17.5743 15.4797C17.5743 15.1659 17.4495 14.8649 17.2273 14.643C17.0051 14.4212 16.7038 14.2965 16.3896 14.2965H11.4817V5.21852C11.4824 4.90495 11.6075 4.60445 11.8295 4.38272C12.0515 4.161 12.3524 4.03611 12.6664 4.03536H18.222V10.171C18.2227 10.3724 18.2746 10.5704 18.3729 10.7462C18.4712 10.9221 18.6125 11.0702 18.7838 11.1765C18.955 11.2829 19.1505 11.344 19.3519 11.3543C19.5533 11.3645 19.754 11.3235 19.9352 11.235L22.5376 9.93981L24.6684 11.4748C24.8147 11.5732 24.9801 11.6398 25.1539 11.6701C25.3277 11.7004 25.5059 11.6938 25.677 11.6507L28.6317 10.8265C28.8849 10.7682 29.1107 10.6256 29.272 10.4222C29.4334 10.2188 29.5206 9.96664 29.5195 9.70715V4.03252H35.0198C35.3332 4.03477 35.6331 4.16071 35.854 4.38289C36.0749 4.60506 36.1988 4.90544 36.1988 5.21852V25.6982H36.1889ZM27.0861 4.0311V8.75523L25.5449 9.22764L23.3004 7.63023C23.1203 7.50752 22.912 7.43225 22.695 7.41142C22.4779 7.39058 22.2591 7.42486 22.0589 7.51107L20.573 8.28423V4.02826L27.0861 4.0311Z" fill="#212529"/>
<path d="M13.8965 34.6699C12.9497 34.6699 12.0242 34.9503 11.2369 35.4756C10.4497 36.001 9.83611 36.7476 9.47378 37.6212C9.11145 38.4948 9.01665 39.4561 9.20136 40.3835C9.38608 41.3109 9.84201 42.1628 10.5115 42.8314C11.181 43.5 12.034 43.9553 12.9626 44.1398C13.8912 44.3243 14.8538 44.2296 15.7285 43.8677C16.6033 43.5059 17.3509 42.8931 17.8769 42.1069C18.403 41.3207 18.6837 40.3964 18.6837 39.4508C18.6789 38.1843 18.1729 36.9711 17.2762 36.0756C16.3795 35.18 15.1647 34.6748 13.8965 34.6699ZM13.8965 41.8171C13.417 41.8171 12.9481 41.6751 12.5494 41.409C12.1506 41.1429 11.8398 40.7647 11.6563 40.3222C11.4728 39.8797 11.4247 39.3928 11.5183 38.923C11.6119 38.4533 11.8428 38.0218 12.1819 37.6831C12.521 37.3444 12.9531 37.1138 13.4235 37.0204C13.8939 36.9269 14.3814 36.9749 14.8245 37.1582C15.2676 37.3414 15.6463 37.6518 15.9127 38.0501C16.1792 38.4483 16.3214 38.9165 16.3214 39.3955C16.3094 40.034 16.05 40.643 15.5979 41.0946C15.1457 41.5461 14.5359 41.8051 13.8965 41.8171Z" fill="#212529"/>
</g>
<defs>
<clipPath id="clip0_1428_21350">
<rect width="45" height="45" fill="white" transform="translate(0.429688 0.421875)"/>
</clipPath>
</defs>
</svg>
