<svg width="46" height="45" viewBox="0 0 46 45" fill="none" xmlns="http://www.w3.org/2000/svg">
<path d="M45.5407 8.46663L37.2836 0.211699C37.1409 0.0769229 36.9525 0.00126648 36.7562 0H18.0032C17.4073 0.0034939 16.8369 0.241683 16.4155 0.66291C15.9942 1.08414 15.7559 1.65444 15.7524 2.25013V6.79034C11.7121 6.98 7.90008 8.71808 5.10787 11.6437C2.31566 14.5693 0.757813 18.4576 0.757812 22.5013C0.757813 26.545 2.31566 30.4334 5.10787 33.359C7.90008 36.2846 11.7121 38.0227 15.7524 38.2123V42.7499C15.7559 43.3456 15.9942 43.9159 16.4155 44.3371C16.8369 44.7583 17.4073 44.9965 18.0032 45H43.5071C44.1029 44.9965 44.6734 44.7583 45.0947 44.3371C45.5161 43.9159 45.7543 43.3456 45.7578 42.7499V8.9992C45.7565 8.80041 45.6787 8.60974 45.5407 8.46663ZM37.502 2.5577L43.2008 8.25493H38.2571C38.0583 8.25493 37.8676 8.17595 37.7269 8.03537C37.5863 7.8948 37.5073 7.70413 37.5073 7.50533L37.502 2.5577ZM2.24936 22.5013C2.25362 18.8533 3.65558 15.3455 6.16706 12.699C8.67854 10.0525 12.1087 8.46834 15.7524 8.27224V22.1911L5.92512 32.0145C3.5604 29.41 2.25008 26.0188 2.24936 22.5013ZM6.9839 33.073L16.8112 23.2483H30.7325C30.5958 25.9353 29.6995 28.5285 28.1475 30.7267C26.5956 32.9248 24.4518 34.6377 21.965 35.6665C19.4782 36.6953 16.7506 36.9977 14.0988 36.5386C11.447 36.0795 8.97985 34.8778 6.9839 33.073ZM44.2582 42.7472C44.2582 42.8456 44.2388 42.9431 44.2011 43.0341C44.1635 43.125 44.1082 43.2076 44.0386 43.2773C43.969 43.3469 43.8863 43.4021 43.7953 43.4397C43.7044 43.4774 43.6069 43.4968 43.5084 43.4968H18.0032C17.8043 43.4968 17.6136 43.4178 17.473 43.2773C17.3324 43.1367 17.2534 42.946 17.2534 42.7472V38.2123C21.2926 38.0173 25.1023 36.2778 27.8946 33.3536C30.687 30.4294 32.2485 26.5441 32.2561 22.5013C32.2561 22.3025 32.1771 22.1119 32.0365 21.9713C31.8958 21.8307 31.7051 21.7517 31.5063 21.7517H17.2587V2.25013C17.2587 2.05133 17.3377 1.86066 17.4783 1.72009C17.6189 1.57951 17.8096 1.50053 18.0085 1.50053H36.0064V7.5C36.0099 8.09569 36.2481 8.666 36.6695 9.08722C37.0908 9.50845 37.6613 9.74664 38.2571 9.75013H44.2582V42.7472Z" fill="#212529"/>
<path d="M19.5037 3.74951C19.3048 3.74951 19.1141 3.82849 18.9735 3.96906C18.8329 4.10964 18.7539 4.30031 18.7539 4.49911V19.4978C18.7539 19.6966 18.8329 19.8873 18.9735 20.0278C19.1141 20.1684 19.3048 20.2474 19.5037 20.2474H34.5064C34.7053 20.2474 34.896 20.1684 35.0366 20.0278C35.1772 19.8873 35.2562 19.6966 35.2562 19.4978C35.2516 15.3225 33.5905 11.3195 30.6373 8.36713C27.6842 5.41475 23.6801 3.75409 19.5037 3.74951ZM20.2535 18.7482V5.27135C23.7676 5.45976 27.088 6.94012 29.5763 9.42785C32.0647 11.9156 33.5455 15.2351 33.734 18.7482H20.2535Z" fill="#212529"/>
<path d="M36.0048 28.498C34.6696 28.498 33.3644 28.8939 32.2542 29.6355C31.144 30.3771 30.2787 31.4311 29.7678 32.6644C29.2568 33.8976 29.1231 35.2546 29.3836 36.5638C29.6441 37.873 30.2871 39.0756 31.2312 40.0194C32.1753 40.9633 33.3782 41.6061 34.6878 41.8665C35.9973 42.1269 37.3547 41.9933 38.5882 41.4824C39.8218 40.9716 40.8761 40.1066 41.6179 38.9967C42.3597 37.8868 42.7557 36.582 42.7557 35.2471C42.7557 34.3608 42.581 33.4832 42.2418 32.6644C41.9025 31.8455 41.4053 31.1015 40.7784 30.4748C40.1515 29.8481 39.4073 29.351 38.5882 29.0118C37.7692 28.6726 36.8913 28.498 36.0048 28.498ZM36.0048 40.497C34.9662 40.497 33.9509 40.1891 33.0873 39.6122C32.2238 39.0354 31.5507 38.2154 31.1532 37.2561C30.7558 36.2969 30.6518 35.2413 30.8544 34.2229C31.057 33.2045 31.5572 32.2691 32.2916 31.5349C33.026 30.8007 33.9617 30.3007 34.9803 30.0981C35.999 29.8956 37.0548 29.9995 38.0144 30.3969C38.9739 30.7942 39.794 31.4671 40.3711 32.3304C40.9481 33.1938 41.2561 34.2088 41.2561 35.2471C41.2561 36.6395 40.7028 37.9748 39.718 38.9593C38.7332 39.9439 37.3975 40.497 36.0048 40.497Z" fill="#212529"/>
<path d="M34.5049 36.4362L32.7842 34.716L31.7188 35.7811L33.9695 38.0312C34.0392 38.1016 34.1222 38.1575 34.2136 38.1956C34.305 38.2337 34.4031 38.2533 34.5022 38.2533C34.6013 38.2533 34.6994 38.2337 34.7908 38.1956C34.8822 38.1575 34.9652 38.1016 35.0349 38.0312L39.5364 33.531L38.471 32.4658L34.5049 36.4362Z" fill="#212529"/>
<path d="M36.7578 12.7485H42.7589V14.2491H36.7578V12.7485Z" fill="#212529"/>
<path d="M36.7578 17.249H42.7589V18.7496H36.7578V17.249Z" fill="#212529"/>
<path d="M36.7578 21.7476H42.7589V23.2481H36.7578V21.7476Z" fill="#212529"/>
</svg>
