<svg width="46" height="46" viewBox="0 0 46 46" fill="none" xmlns="http://www.w3.org/2000/svg">
<g clip-path="url(#clip0_1428_21393)">
<path d="M39.5615 22.9776C39.1973 22.9776 38.9023 23.2725 38.9023 23.6367V34.841C38.9023 35.2053 39.1973 35.5002 39.5615 35.5002C39.9254 35.5002 40.2207 35.2053 40.2207 34.841V23.6367C40.2207 23.2725 39.9254 22.9776 39.5615 22.9776Z" fill="black"/>
<path d="M39.5616 34.1548C39.1973 34.1548 38.9024 34.4497 38.9024 34.814V37.4939H17.8907C17.9759 37.0953 18.0222 36.682 18.0222 36.258V30.6447H18.9193V31.847C18.9193 32.695 19.6094 33.3851 20.4574 33.3851H33.4038C34.2518 33.3851 34.9419 32.695 34.9419 31.847V29.6823C34.9419 28.8343 34.2518 28.1442 33.4038 28.1442H22.7941C22.896 27.837 22.9585 27.5118 22.9743 27.1747H34.421C35.2691 27.1747 35.9591 26.4846 35.9591 25.6366V23.472C35.9591 22.6239 35.2691 21.9339 34.421 21.9339H19.4402C18.5921 21.9339 17.9021 22.6239 17.9021 23.472V24.5805H15.7196C15.4597 24.5805 15.206 24.6053 14.9591 24.6506V12.5776C14.9591 12.2134 14.6638 11.9185 14.2999 11.9185C13.936 11.9185 13.6407 12.2134 13.6407 12.5776V18.3846H11.6423C8.36731 18.3846 5.70312 21.0488 5.70312 24.3234V44.474C5.70312 44.838 5.99838 45.1332 6.3623 45.1332C6.72623 45.1332 7.02148 44.838 7.02148 44.474V24.3234C7.02148 21.7756 9.09447 19.703 11.6423 19.703H13.6407V25.1319C12.3694 25.857 11.5097 27.2248 11.5097 28.7904V33.3627C11.5097 33.7267 11.805 34.0219 12.1689 34.0219C12.5328 34.0219 12.8281 33.7267 12.8281 33.3627V28.7904C12.8281 27.196 14.1252 25.8989 15.7196 25.8989H21.4407C21.5619 25.8989 21.6604 25.9974 21.6604 26.1186V27.001C21.6604 28.2833 20.6174 29.3263 19.3351 29.3263H17.3631C16.9988 29.3263 16.7039 29.6216 16.7039 29.9855V36.2583C16.7039 38.7773 14.6693 40.8269 12.1689 40.8269C11.805 40.8269 11.5097 41.1218 11.5097 41.4861V44.4744C11.5097 44.8383 11.805 45.1336 12.1689 45.1336C12.5328 45.1336 12.8281 44.8383 12.8281 44.4744V42.1079C13.1213 42.0749 13.4073 42.0189 13.6857 41.9437C13.969 43.7726 15.5541 45.1772 17.4612 45.1772H36.4C38.5066 45.1772 40.2208 43.4633 40.2208 41.3563V34.814C40.2208 34.4497 39.9255 34.1548 39.5616 34.1548ZM21.4407 24.5805H19.2204V23.4716C19.2204 23.3508 19.3193 23.2519 19.4402 23.2519H34.421C34.5422 23.2519 34.6408 23.3508 34.6408 23.4716V25.6366C34.6408 25.7578 34.5422 25.8563 34.421 25.8563H22.9548C22.8298 25.1329 22.1991 24.5805 21.4407 24.5805ZM22.0189 29.4626H33.4038C33.525 29.4626 33.6235 29.5611 33.6235 29.6823V31.847C33.6235 31.9682 33.525 32.0667 33.4038 32.0667H20.4574C20.3362 32.0667 20.2377 31.9682 20.2377 31.847V30.5314C20.9326 30.3535 21.5478 29.9755 22.0189 29.4626ZM36.4 43.8588H17.4612C16.1061 43.8588 14.9996 42.7756 14.9608 41.4295C16.0351 40.8403 16.9061 39.9233 17.4406 38.8123H38.9021V41.3563C38.9024 42.7361 37.7798 43.8588 36.4 43.8588Z" fill="black"/>
<path d="M36.3998 0.177246H17.4611C15.3545 0.177246 13.6406 1.89111 13.6406 3.99809V12.7017C13.6406 13.0659 13.9355 13.3608 14.2998 13.3608C14.6637 13.3608 14.959 13.0659 14.959 12.7017V7.15734H38.9023V23.6001C38.9023 23.9644 39.1972 24.2593 39.5615 24.2593C39.9254 24.2593 40.2207 23.9644 40.2207 23.6001V3.99809C40.2207 1.89111 38.5065 0.177246 36.3998 0.177246ZM14.959 5.83898V3.99809C14.959 2.61827 16.0813 1.49561 17.4611 1.49561H36.3998C37.7796 1.49561 38.9023 2.61827 38.9023 3.99809V5.83898H14.959Z" fill="black"/>
<path d="M26.8826 39.2056C25.7218 39.2056 24.7773 40.15 24.7773 41.3108C24.7773 42.4719 25.7218 43.4161 26.8826 43.4161C28.0434 43.4161 28.9879 42.4719 28.9879 41.3108C28.9879 40.15 28.0434 39.2056 26.8826 39.2056ZM26.8826 42.0977C26.4486 42.0977 26.0957 41.7448 26.0957 41.3108C26.0957 40.8769 26.4486 40.5239 26.8826 40.5239C27.3166 40.5239 27.6695 40.8769 27.6695 41.3108C27.6695 41.7448 27.3166 42.0977 26.8826 42.0977Z" fill="black"/>
<path d="M28.0691 3.34131H25.499C25.1348 3.34131 24.8398 3.63657 24.8398 4.00049C24.8398 4.36441 25.1348 4.65967 25.499 4.65967H28.0691C28.4331 4.65967 28.7283 4.36441 28.7283 4.00049C28.7283 3.63657 28.4331 3.34131 28.0691 3.34131Z" fill="black"/>
<path d="M30.8868 3.34564L30.0958 3.3374C30.0934 3.3374 30.091 3.3374 30.0886 3.3374C29.7277 3.3374 29.4335 3.6282 29.4297 3.99006C29.4259 4.35398 29.7178 4.65199 30.082 4.65576L30.8731 4.664H30.8799C31.2408 4.664 31.5353 4.37321 31.5391 4.01169C31.5429 3.64742 31.2507 3.34942 30.8868 3.34564Z" fill="black"/>
<path d="M22.9253 3.34131C22.561 3.34337 22.2675 3.64412 22.2695 4.00805C22.2716 4.37094 22.5662 4.66379 22.9287 4.66379H22.9322C23.2964 4.66173 23.59 4.3651 23.5879 4.00118V3.99294C23.5858 3.62902 23.2899 3.33994 22.9253 3.34131Z" fill="black"/>
<path d="M18.8232 15.5405H20.6006C20.9645 15.5405 21.2598 15.2453 21.2598 14.8813C21.2598 14.5171 20.9645 14.2222 20.6006 14.2222H18.8232C18.4593 14.2222 18.1641 14.5171 18.1641 14.8813C18.1641 15.2453 18.4593 15.5405 18.8232 15.5405Z" fill="black"/>
<path d="M18.7529 11.603H20.5303C20.8942 11.603 21.1895 11.3078 21.1895 10.9438C21.1895 10.5796 20.8942 10.2847 20.5303 10.2847H18.7529C18.389 10.2847 18.0938 10.5796 18.0938 10.9438C18.0938 11.3078 18.389 11.603 18.7529 11.603Z" fill="black"/>
<path d="M30.6641 14.8813C30.6641 15.2453 30.959 15.5405 31.3232 15.5405H35.2193C35.5832 15.5405 35.8784 15.2453 35.8784 14.8813C35.8784 14.5171 35.5832 14.2222 35.2193 14.2222H31.3232C30.959 14.2222 30.6641 14.5171 30.6641 14.8813Z" fill="black"/>
<path d="M30.5977 10.9438C30.5977 11.3078 30.8926 11.603 31.2568 11.603H35.1529C35.5168 11.603 35.812 11.3078 35.812 10.9438C35.812 10.5796 35.5168 10.2847 35.1529 10.2847H31.2568C30.8926 10.2847 30.5977 10.5796 30.5977 10.9438Z" fill="black"/>
</g>
<defs>
<clipPath id="clip0_1428_21393">
<rect width="45" height="45" fill="white" transform="translate(0.429688 0.177246)"/>
</clipPath>
</defs>
</svg>
