<svg width="75" height="75" viewBox="0 0 75 75" fill="none" xmlns="http://www.w3.org/2000/svg">
<path d="M37.5 75C58.2107 75 75 58.2107 75 37.5C75 16.7893 58.2107 0 37.5 0C16.7893 0 0 16.7893 0 37.5C0 58.2107 16.7893 75 37.5 75Z" fill="#FFBA00"/>
<path d="M37.5637 50.7599C34.9545 50.7599 32.4038 49.9862 30.2343 48.5366C28.0648 47.0869 26.3738 45.0265 25.3753 42.6159C24.3768 40.2053 24.1156 37.5527 24.6246 34.9936C25.1336 32.4344 26.3901 30.0837 28.2351 28.2387C30.0801 26.3937 32.4308 25.1372 34.99 24.6282C37.5491 24.1192 40.2017 24.3804 42.6123 25.3789C45.0229 26.3774 47.0833 28.0684 48.533 30.2379C49.9826 32.4074 50.7563 34.9581 50.7563 37.5673C50.7541 41.0655 49.3634 44.4198 46.8898 46.8934C44.4162 49.367 41.0619 50.7577 37.5637 50.7599ZM37.5637 25.3942C35.1561 25.3942 32.8025 26.1081 30.8007 27.4457C28.7988 28.7833 27.2386 30.6845 26.3172 32.9089C25.3959 35.1332 25.1548 37.5808 25.6245 39.9422C26.0942 42.3035 27.2536 44.4726 28.956 46.175C30.6584 47.8775 32.8275 49.0368 35.1888 49.5065C37.5502 49.9762 39.9978 49.7352 42.2222 48.8138C44.4465 47.8925 46.3477 46.3322 47.6853 44.3303C49.0229 42.3285 49.7368 39.9749 49.7368 37.5673C49.732 34.3403 48.4479 31.2468 46.166 28.965C43.8842 26.6831 40.7907 25.399 37.5637 25.3942Z" fill="#212529" stroke="#212529" stroke-width="0.5"/>
<path d="M25.5328 34.0499C24.0622 34.0484 22.6523 33.4636 21.6125 32.4238C20.5727 31.3839 19.9878 29.974 19.9863 28.5035V24.8844C19.9863 24.7492 20.04 24.6196 20.1356 24.524C20.2312 24.4284 20.3609 24.3747 20.4961 24.3747C20.6313 24.3747 20.7609 24.4284 20.8565 24.524C20.9521 24.6196 21.0058 24.7492 21.0058 24.8844V28.5035C21.0066 29.7039 21.4838 30.8549 22.3326 31.7037C23.1814 32.5525 24.3324 33.0297 25.5328 33.0305C25.668 33.0305 25.7976 33.0842 25.8932 33.1797C25.9888 33.2753 26.0425 33.405 26.0425 33.5402C26.0425 33.6754 25.9888 33.805 25.8932 33.9006C25.7976 33.9962 25.668 34.0499 25.5328 34.0499Z" fill="#212529" stroke="#212529" stroke-width="0.5"/>
<path d="M49.5918 34.0499C49.4566 34.0499 49.3269 33.9962 49.2313 33.9006C49.1357 33.805 49.082 33.6754 49.082 33.5402C49.082 33.405 49.1357 33.2753 49.2313 33.1797C49.3269 33.0842 49.4566 33.0305 49.5918 33.0305C50.7922 33.0297 51.9432 32.5525 52.792 31.7037C53.6408 30.8549 54.118 29.7039 54.1187 28.5035V24.8844C54.1187 24.7492 54.1724 24.6196 54.268 24.524C54.3636 24.4284 54.4933 24.3747 54.6285 24.3747C54.7637 24.3747 54.8933 24.4284 54.9889 24.524C55.0845 24.6196 55.1382 24.7492 55.1382 24.8844V28.5035C55.1367 29.974 54.5519 31.3839 53.5121 32.4238C52.4722 33.4636 51.0623 34.0484 49.5918 34.0499Z" fill="#212529" stroke="#212529" stroke-width="0.5"/>
<path d="M54.6285 50.7599C54.5614 50.7604 54.4948 50.7477 54.4327 50.7223C54.3706 50.6968 54.3142 50.6593 54.2668 50.6119C54.2193 50.5644 54.1818 50.508 54.1564 50.4459C54.131 50.3838 54.1182 50.3172 54.1187 50.2501V46.6311C54.118 45.4307 53.6408 44.2797 52.792 43.4309C51.9432 42.5821 50.7922 42.1049 49.5918 42.1041C49.5248 42.1041 49.4585 42.091 49.3967 42.0653C49.3348 42.0397 49.2787 42.0022 49.2313 41.9549C49.184 41.9075 49.1464 41.8513 49.1208 41.7895C49.0952 41.7276 49.082 41.6613 49.082 41.5944C49.082 41.5274 49.0952 41.4612 49.1208 41.3993C49.1464 41.3375 49.184 41.2813 49.2313 41.234C49.2787 41.1866 49.3348 41.1491 49.3967 41.1234C49.4585 41.0978 49.5248 41.0847 49.5918 41.0847C51.0623 41.0862 52.4722 41.671 53.5121 42.7108C54.5519 43.7506 55.1367 45.1606 55.1382 46.6311V50.2501C55.1379 50.3852 55.0841 50.5147 54.9885 50.6102C54.893 50.7057 54.7636 50.7595 54.6285 50.7599Z" fill="#212529" stroke="#212529" stroke-width="0.5"/>
<path d="M20.4961 50.7599C20.429 50.7604 20.3625 50.7477 20.3004 50.7223C20.2383 50.6968 20.1818 50.6593 20.1344 50.6119C20.0869 50.5644 20.0494 50.508 20.024 50.4459C19.9986 50.3838 19.9858 50.3172 19.9863 50.2501V46.6311C19.9878 45.1606 20.5727 43.7506 21.6125 42.7108C22.6524 41.671 24.0623 41.0862 25.5328 41.0847C25.5997 41.0847 25.666 41.0978 25.7279 41.1234C25.7897 41.1491 25.8459 41.1866 25.8932 41.234C25.9406 41.2813 25.9781 41.3375 26.0037 41.3993C26.0294 41.4612 26.0426 41.5274 26.0426 41.5944C26.0426 41.6613 26.0294 41.7276 26.0037 41.7895C25.9781 41.8513 25.9406 41.9075 25.8932 41.9549C25.8459 42.0022 25.7897 42.0397 25.7279 42.0653C25.666 42.091 25.5997 42.1041 25.5328 42.1041C24.3324 42.1049 23.1814 42.5821 22.3326 43.4309C21.4838 44.2797 21.0066 45.4307 21.0058 46.6311V50.2501C21.0037 50.3847 20.9492 50.5131 20.8541 50.6082C20.759 50.7033 20.6306 50.7577 20.4961 50.7599Z" fill="#212529" stroke="#212529" stroke-width="0.5"/>
<path d="M54.6308 25.3945C54.1912 25.3945 53.7615 25.2642 53.396 25.0199C53.0305 24.7757 52.7456 24.4286 52.5774 24.0225C52.4092 23.6164 52.3652 23.1695 52.4509 22.7384C52.5367 22.3072 52.7483 21.9112 53.0592 21.6004C53.37 21.2896 53.766 21.0779 54.1971 20.9921C54.6282 20.9064 55.0751 20.9504 55.4813 21.1186C55.8874 21.2868 56.2345 21.5717 56.4787 21.9372C56.7229 22.3027 56.8533 22.7324 56.8533 23.172C56.8518 23.761 56.6172 24.3254 56.2007 24.7419C55.7842 25.1584 55.2197 25.393 54.6308 25.3945ZM54.6308 21.9788C54.3928 21.9788 54.1602 22.0494 53.9624 22.1816C53.7645 22.3138 53.6103 22.5016 53.5192 22.7215C53.4282 22.9413 53.4044 23.1832 53.4508 23.4166C53.4972 23.6499 53.6118 23.8643 53.78 24.0325C53.9483 24.2008 54.1627 24.3154 54.396 24.3618C54.6294 24.4082 54.8713 24.3844 55.0911 24.2933C55.311 24.2023 55.4988 24.0481 55.631 23.8502C55.7632 23.6524 55.8338 23.4198 55.8338 23.1819C55.833 22.863 55.7061 22.5575 55.4806 22.332C55.2552 22.1065 54.9496 21.9796 54.6308 21.9788Z" fill="#212529" stroke="#212529" stroke-width="0.5"/>
<path d="M56.064 38.079H50.2422C50.107 38.079 49.9773 38.0253 49.8817 37.9297C49.7861 37.8341 49.7324 37.7045 49.7324 37.5693C49.7324 37.4341 49.7861 37.3044 49.8817 37.2088C49.9773 37.1132 50.107 37.0595 50.2422 37.0595H56.064C56.1992 37.0595 56.3288 37.1132 56.4244 37.2088C56.52 37.3044 56.5737 37.4341 56.5737 37.5693C56.5737 37.7045 56.52 37.8341 56.4244 37.9297C56.3288 38.0253 56.1992 38.079 56.064 38.079Z" fill="#212529" stroke="#212529" stroke-width="0.5"/>
<path d="M24.8784 38.079H19.0566C18.9214 38.079 18.7918 38.0253 18.6962 37.9297C18.6006 37.8341 18.5469 37.7045 18.5469 37.5693C18.5469 37.4341 18.6006 37.3044 18.6962 37.2088C18.7918 37.1132 18.9214 37.0595 19.0566 37.0595H24.8784C25.0136 37.0595 25.1433 37.1132 25.2389 37.2088C25.3345 37.3044 25.3882 37.4341 25.3882 37.5693C25.3882 37.7045 25.3345 37.8341 25.2389 37.9297C25.1433 38.0253 25.0136 38.079 24.8784 38.079Z" fill="#212529" stroke="#212529" stroke-width="0.5"/>
<path d="M57.7797 39.7913H57.6469C57.0463 39.7739 56.4766 39.5208 56.061 39.0867C55.6454 38.6526 55.4173 38.0725 55.426 37.4716C55.4347 36.8707 55.6796 36.2974 56.1076 35.8756C56.5356 35.4538 57.1124 35.2173 57.7133 35.2173C58.3142 35.2173 58.891 35.4538 59.319 35.8756C59.747 36.2974 59.9918 36.8707 60.0005 37.4716C60.0092 38.0725 59.7812 38.6526 59.3656 39.0867C58.95 39.5208 58.3803 39.7739 57.7797 39.7913ZM57.7698 36.3657C57.4735 36.3752 57.1927 36.5007 56.9881 36.7153C56.7836 36.9299 56.6716 37.2163 56.6763 37.5128C56.681 37.8092 56.8021 38.0919 57.0134 38.2999C57.2247 38.5078 57.5093 38.6244 57.8058 38.6244C58.1022 38.6244 58.3868 38.5078 58.5981 38.2999C58.8094 38.0919 58.9305 37.8092 58.9352 37.5128C58.94 37.2163 58.828 36.9299 58.6234 36.7153C58.4188 36.5007 58.1381 36.3752 57.8418 36.3657C57.8206 36.3813 57.8008 36.3657 57.7698 36.3657Z" fill="#212529" stroke="#212529" stroke-width="0.5"/>
<path d="M17.3539 39.7913H17.2211C16.6204 39.7739 16.0508 39.5208 15.6352 39.0867C15.2196 38.6526 14.9915 38.0725 15.0002 37.4716C15.009 36.8707 15.2538 36.2974 15.6818 35.8756C16.1098 35.4538 16.6866 35.2173 17.2875 35.2173C17.8884 35.2173 18.4652 35.4538 18.8932 35.8756C19.3212 36.2974 19.566 36.8707 19.5747 37.4716C19.5835 38.0725 19.3554 38.6526 18.9398 39.0867C18.5242 39.5208 17.9545 39.7739 17.3539 39.7913ZM17.3539 36.3657C17.1595 36.3662 16.9682 36.4139 16.7963 36.5047C16.6245 36.5956 16.4773 36.7268 16.3675 36.8872C16.2577 37.0476 16.1885 37.2323 16.166 37.4253C16.1434 37.6184 16.1681 37.814 16.238 37.9954C16.3078 38.1768 16.4207 38.3385 16.567 38.4665C16.7132 38.5945 16.8884 38.6851 17.0774 38.7304C17.2664 38.7756 17.4636 38.7743 17.652 38.7264C17.8403 38.6785 18.0143 38.5856 18.1587 38.4555C18.3933 38.2421 18.5361 37.946 18.5569 37.6295C18.5666 37.4718 18.5451 37.3137 18.4935 37.1643C18.442 37.015 18.3614 36.8773 18.2564 36.7592C18.1514 36.6411 18.0241 36.5449 17.8818 36.4761C17.7395 36.4074 17.5851 36.3675 17.4273 36.3587C17.4036 36.3665 17.3786 36.3689 17.3539 36.3657Z" fill="#212529" stroke="#212529" stroke-width="0.5"/>
<path d="M37.5625 56.5836C37.4954 56.5842 37.4289 56.5714 37.3668 56.5459C37.3047 56.5205 37.2482 56.483 37.2008 56.4356C37.1533 56.3881 37.1158 56.3317 37.0904 56.2696C37.065 56.2075 37.0522 56.141 37.0528 56.0739V50.252C37.0528 50.1168 37.1064 49.9872 37.202 49.8916C37.2976 49.796 37.4273 49.7423 37.5625 49.7423C37.6977 49.7423 37.8274 49.796 37.9229 49.8916C38.0185 49.9872 38.0722 50.1168 38.0722 50.252V56.0739C38.0728 56.141 38.06 56.2075 38.0346 56.2696C38.0092 56.3317 37.9716 56.3881 37.9242 56.4356C37.8768 56.483 37.8203 56.5205 37.7582 56.5459C37.6961 56.5714 37.6296 56.5842 37.5625 56.5836Z" fill="#212529" stroke="#212529" stroke-width="0.5"/>
<path d="M37.5625 25.3941C37.4954 25.3947 37.4289 25.3819 37.3668 25.3565C37.3047 25.3311 37.2482 25.2935 37.2008 25.2461C37.1533 25.1986 37.1158 25.1422 37.0904 25.0801C37.065 25.018 37.0522 24.9515 37.0528 24.8844V19.0626C37.0528 18.9274 37.1064 18.7977 37.202 18.7021C37.2976 18.6065 37.4273 18.5528 37.5625 18.5528C37.6977 18.5528 37.8274 18.6065 37.9229 18.7021C38.0185 18.7977 38.0722 18.9274 38.0722 19.0626V24.8844C38.0728 24.9515 38.06 25.018 38.0346 25.0801C38.0092 25.1422 37.9716 25.1986 37.9242 25.2461C37.8768 25.2935 37.8203 25.3311 37.7582 25.3565C37.6961 25.3819 37.6296 25.3947 37.5625 25.3941Z" fill="#212529" stroke="#212529" stroke-width="0.5"/>
<path d="M37.5628 59.9976H37.4301C36.8294 59.9801 36.2597 59.727 35.8442 59.293C35.4286 58.8589 35.2005 58.2787 35.2092 57.6779C35.2179 57.077 35.4627 56.5037 35.8907 56.0819C36.3187 55.66 36.8955 55.4236 37.4965 55.4236C38.0974 55.4236 38.6742 55.66 39.1022 56.0819C39.5302 56.5037 39.775 57.077 39.7837 57.6779C39.7924 58.2787 39.5644 58.8589 39.1488 59.293C38.7332 59.727 38.1635 59.9801 37.5628 59.9976ZM36.3697 57.7144C36.3597 57.8721 36.3811 58.0303 36.4326 58.1797C36.4841 58.3291 36.5647 58.4669 36.6698 58.5851C36.7748 58.7032 36.9022 58.7994 37.0445 58.8681C37.1869 58.9367 37.3415 58.9765 37.4993 58.9852C37.657 58.9947 37.8149 58.9725 37.9638 58.9198C38.1128 58.8672 38.2496 58.7852 38.3663 58.6787C38.6009 58.4653 38.7436 58.1692 38.7645 57.8527C38.7732 57.6951 38.7506 57.5373 38.698 57.3885C38.6454 57.2397 38.5639 57.1028 38.4581 56.9857C38.3538 56.8677 38.227 56.7718 38.0852 56.7034C37.9434 56.635 37.7893 56.5956 37.632 56.5875C37.4744 56.5789 37.3167 56.6015 37.1679 56.6541C37.0191 56.7067 36.8822 56.7882 36.765 56.8939C36.644 56.9945 36.5458 57.1197 36.4769 57.2611C36.408 57.4026 36.37 57.5571 36.3654 57.7144H36.3697Z" fill="#212529" stroke="#212529" stroke-width="0.5"/>
<path d="M37.5628 19.574H37.4301C36.8294 19.5566 36.2597 19.3035 35.8442 18.8694C35.4286 18.4353 35.2005 17.8552 35.2092 17.2543C35.2179 16.6534 35.4627 16.0801 35.8907 15.6583C36.3187 15.2365 36.8955 15 37.4965 15C38.0974 15 38.6742 15.2365 39.1022 15.6583C39.5302 16.0801 39.775 16.6534 39.7837 17.2543C39.7924 17.8552 39.5644 18.4353 39.1488 18.8694C38.7332 19.3035 38.1635 19.5566 37.5628 19.574ZM36.3654 17.2936C36.3567 17.4512 36.3791 17.609 36.4314 17.7579C36.4837 17.9069 36.5647 18.0441 36.67 18.1617C36.7753 18.2793 36.9028 18.3751 37.045 18.4434C37.1873 18.5118 37.3417 18.5515 37.4993 18.5602C37.6569 18.5689 37.8147 18.5465 37.9637 18.4942C38.1126 18.442 38.2498 18.3609 38.3674 18.2556C38.485 18.1503 38.5808 18.0229 38.6491 17.8806C38.7175 17.7383 38.7572 17.5839 38.7659 17.4263C38.7754 17.2687 38.7532 17.1107 38.7006 16.9618C38.6479 16.8128 38.5659 16.676 38.4595 16.5593C38.2462 16.3264 37.9514 16.1848 37.6363 16.164C37.4785 16.1542 37.3205 16.1758 37.1711 16.2273C37.0217 16.2789 36.884 16.3595 36.7659 16.4645C36.6478 16.5695 36.5516 16.6968 36.4829 16.8391C36.4142 16.9813 36.3742 17.1358 36.3654 17.2936Z" fill="#212529" stroke="#212529" stroke-width="0.5"/>
<path d="M54.6293 54.1771H54.4965C53.8959 54.1596 53.3262 53.9065 52.9106 53.4724C52.495 53.0384 52.2669 52.4582 52.2756 51.8574C52.2843 51.2565 52.5292 50.6832 52.9572 50.2613C53.3852 49.8395 53.962 49.6031 54.5629 49.6031C55.1638 49.6031 55.7406 49.8395 56.1686 50.2613C56.5966 50.6832 56.8414 51.2565 56.8501 51.8574C56.8588 52.4582 56.6308 53.0384 56.2152 53.4724C55.7996 53.9065 55.2299 54.1596 54.6293 54.1771ZM54.5573 53.1576C54.7942 53.1708 55.0298 53.1134 55.2341 52.9927C55.4384 52.8719 55.6023 52.6932 55.705 52.4793C55.8076 52.2653 55.8445 52.0257 55.8108 51.7907C55.7772 51.5558 55.6746 51.3361 55.516 51.1595C55.4117 51.0415 55.285 50.9456 55.1431 50.8772C55.0013 50.8088 54.8472 50.7694 54.69 50.7614C54.5324 50.7526 54.3746 50.7752 54.2258 50.8278C54.077 50.8804 53.9401 50.9619 53.823 51.0677C53.705 51.172 53.609 51.2988 53.5406 51.4407C53.4723 51.5825 53.4329 51.7366 53.4248 51.8938C53.4161 52.0514 53.4387 52.2091 53.4913 52.358C53.5438 52.5068 53.6254 52.6437 53.7312 52.7608C53.9452 52.9952 54.2405 53.1375 54.5573 53.1576Z" fill="#212529" stroke="#212529" stroke-width="0.5"/>
<path d="M20.4925 54.1771H20.3598C19.7591 54.1596 19.1894 53.9065 18.7738 53.4724C18.3583 53.0384 18.1302 52.4582 18.1389 51.8574C18.1476 51.2565 18.3924 50.6832 18.8204 50.2613C19.2484 49.8395 19.8252 49.6031 20.4262 49.6031C21.0271 49.6031 21.6039 49.8395 22.0319 50.2613C22.4599 50.6832 22.7047 51.2565 22.7134 51.8574C22.7221 52.4582 22.4941 53.0384 22.0785 53.4724C21.6629 53.9065 21.0932 54.1596 20.4925 54.1771ZM20.4205 53.1576C20.5781 53.1663 20.7359 53.1439 20.8849 53.0916C21.0338 53.0393 21.171 52.9582 21.2886 52.853C21.4063 52.7477 21.502 52.6203 21.5703 52.478C21.6387 52.3357 21.6784 52.1813 21.6871 52.0237C21.6958 51.8661 21.6734 51.7083 21.6211 51.5593C21.5689 51.4104 21.4878 51.2732 21.3825 51.1556C21.2772 51.038 21.1498 50.9422 21.0075 50.8739C20.8652 50.8055 20.7109 50.7659 20.5532 50.7571C20.3956 50.7476 20.2376 50.7698 20.0887 50.8224C19.9398 50.8751 19.8029 50.957 19.6863 51.0635C19.4516 51.277 19.3089 51.5731 19.2881 51.8896C19.2726 52.2075 19.3829 52.5188 19.595 52.756C19.8072 52.9933 20.1043 53.1375 20.4219 53.1576H20.4205Z" fill="#212529" stroke="#212529" stroke-width="0.5"/>
<path d="M20.4918 25.3945H20.3591C19.771 25.3606 19.2204 25.0945 18.8285 24.6546C18.4366 24.2148 18.2354 23.6373 18.2693 23.0491C18.3032 22.461 18.5693 21.9104 19.0092 21.5185C19.449 21.1266 20.0265 20.9254 20.6147 20.9593C21.2019 20.9957 21.751 21.2626 22.1424 21.7019C22.5337 22.1411 22.7358 22.7172 22.7045 23.3047C22.6711 23.8693 22.4235 24.3998 22.0124 24.7881C21.6012 25.1765 21.0574 25.3933 20.4918 25.3945ZM20.4198 24.375C20.5775 24.3848 20.7356 24.3632 20.885 24.3116C21.0344 24.2601 21.1721 24.1795 21.2902 24.0745C21.4083 23.9695 21.5045 23.8422 21.5732 23.6999C21.6419 23.5576 21.6818 23.4032 21.6907 23.2454C21.7002 23.0877 21.678 22.9298 21.6253 22.7808C21.5727 22.6319 21.4907 22.4951 21.3843 22.3784C21.1708 22.1438 20.8747 22.0011 20.5582 21.9802C20.4006 21.9707 20.2426 21.9929 20.0937 22.0455C19.9447 22.0982 19.8079 22.1801 19.6912 22.2866C19.4566 22.5001 19.3139 22.7962 19.293 23.1127C19.279 23.4287 19.3892 23.7377 19.6 23.9736C19.8109 24.2095 20.1056 24.3536 20.4212 24.375H20.4198Z" fill="#212529" stroke="#212529" stroke-width="0.5"/>
<path d="M37.5678 41.8612C36.7165 41.8724 35.8811 41.6302 35.1678 41.1654C34.4545 40.7006 33.8955 40.0342 33.562 39.2509C33.2284 38.4675 33.1353 37.6027 33.2945 36.7664C33.4537 35.93 33.858 35.1599 34.456 34.5539C35.054 33.9479 35.8187 33.5334 36.6529 33.3631C37.4871 33.1929 38.353 33.2745 39.1407 33.5977C39.9284 33.9209 40.6021 34.471 41.0764 35.178C41.5506 35.8851 41.8038 36.7173 41.8039 37.5686C41.8107 38.6994 41.3683 39.7866 40.5741 40.5915C39.7798 41.3963 38.6986 41.853 37.5678 41.8612ZM37.5678 34.2955C36.9179 34.2832 36.2791 34.4646 35.7328 34.8167C35.1864 35.1688 34.7572 35.6756 34.4999 36.2724C34.2426 36.8693 34.1689 37.5293 34.2881 38.1682C34.4073 38.8072 34.714 39.3962 35.1692 39.8602C35.6244 40.3242 36.2074 40.6421 36.8439 40.7736C37.4805 40.905 38.1418 40.8439 38.7435 40.5981C39.3452 40.3523 39.8601 39.9329 40.2225 39.3934C40.585 38.8538 40.7787 38.2186 40.7788 37.5686C40.7856 36.7092 40.4514 35.8822 39.8495 35.2687C39.2477 34.6552 38.4272 34.3052 37.5678 34.2955Z" fill="#212529" stroke="#212529" stroke-width="0.5"/>
<path d="M39.3935 47.141H35.7335C35.6664 47.1415 35.5999 47.1287 35.5378 47.1033C35.4757 47.0779 35.4192 47.0404 35.3718 46.9929C35.3243 46.9455 35.2868 46.8891 35.2614 46.827C35.236 46.7649 35.2232 46.6983 35.2238 46.6312V45.0511C34.7763 44.9114 34.3428 44.7304 33.9289 44.5103L32.8078 45.6315C32.7129 45.7266 32.5848 45.7813 32.4505 45.784C32.3836 45.785 32.3173 45.7719 32.2557 45.7456C32.1942 45.7193 32.1389 45.6805 32.0933 45.6315L29.5036 43.0418C29.4085 42.9469 29.3539 42.8189 29.3511 42.6846C29.3502 42.6177 29.3632 42.5513 29.3895 42.4898C29.4158 42.4283 29.4546 42.3729 29.5036 42.3274L30.6248 41.2062C30.409 40.7903 30.2281 40.3572 30.084 39.9113H28.5039C28.4368 39.9119 28.3703 39.8991 28.3082 39.8737C28.2461 39.8483 28.1896 39.8108 28.1422 39.7633C28.0948 39.7159 28.0572 39.6595 28.0318 39.5974C28.0064 39.5353 27.9936 39.4687 27.9942 39.4016V35.7303C27.9936 35.6632 28.0064 35.5967 28.0318 35.5346C28.0572 35.4725 28.0948 35.4161 28.1422 35.3686C28.1896 35.3212 28.2461 35.2837 28.3082 35.2582C28.3703 35.2328 28.4368 35.22 28.5039 35.2206H30.084C30.2237 34.7731 30.4047 34.3396 30.6248 33.9258L29.5036 32.8046C29.4085 32.7097 29.3539 32.5817 29.3511 32.4474C29.3502 32.3805 29.3632 32.3141 29.3895 32.2526C29.4158 32.191 29.4546 32.1357 29.5036 32.0901L32.0933 29.5005C32.1908 29.4072 32.3205 29.3551 32.4555 29.3551C32.5904 29.3551 32.7202 29.4072 32.8177 29.5005L33.9388 30.6216C34.3547 30.4058 34.7878 30.2249 35.2336 30.0808V28.5007C35.2331 28.4336 35.2459 28.3671 35.2713 28.305C35.2967 28.2429 35.3342 28.1865 35.3817 28.139C35.4291 28.0916 35.4856 28.0541 35.5477 28.0286C35.6098 28.0032 35.6763 27.9904 35.7434 27.991H39.4034C39.4705 27.9902 39.5371 28.0029 39.5993 28.0283C39.6615 28.0536 39.718 28.0911 39.7655 28.1386C39.813 28.1861 39.8505 28.2426 39.8759 28.3048C39.9012 28.367 39.9139 28.4336 39.9131 28.5007V30.0808C40.3606 30.2205 40.7941 30.4015 41.208 30.6216L42.3291 29.5005C42.424 29.4054 42.552 29.3507 42.6863 29.348C42.7532 29.347 42.8196 29.3601 42.8811 29.3863C42.9427 29.4126 42.998 29.4515 43.0436 29.5005L45.6332 32.0887C45.6818 32.1357 45.7204 32.192 45.7468 32.2542C45.7731 32.3164 45.7867 32.3833 45.7867 32.4509C45.7867 32.5185 45.7731 32.5853 45.7468 32.6476C45.7204 32.7098 45.6818 32.7661 45.6332 32.8131L44.5121 33.9342C44.7279 34.3502 44.9087 34.7832 45.0529 35.2291H46.6344C46.7015 35.2285 46.768 35.2413 46.8301 35.2667C46.8922 35.2921 46.9486 35.3297 46.9961 35.3771C47.0435 35.4245 47.081 35.481 47.1065 35.5431C47.1319 35.6052 47.1447 35.6717 47.1441 35.7388V39.3988C47.1447 39.4659 47.1319 39.5324 47.1065 39.5945C47.081 39.6566 47.0435 39.713 46.9961 39.7605C46.9486 39.8079 46.8922 39.8455 46.8301 39.8709C46.768 39.8963 46.7015 39.9091 46.6344 39.9085H45.0529C44.9132 40.356 44.7321 40.7895 44.5121 41.2034L45.6332 42.3245C45.6818 42.3715 45.7204 42.4278 45.7468 42.49C45.7731 42.5522 45.7867 42.6191 45.7867 42.6867C45.7867 42.7543 45.7731 42.8212 45.7468 42.8834C45.7204 42.9456 45.6818 43.0019 45.6332 43.0489L43.0337 45.6188C42.9867 45.6673 42.9304 45.706 42.8682 45.7323C42.806 45.7587 42.7391 45.7723 42.6715 45.7723C42.6039 45.7723 42.537 45.7587 42.4748 45.7323C42.4126 45.706 42.3563 45.6673 42.3093 45.6188L41.1882 44.4976C40.7723 44.7134 40.3392 44.8943 39.8934 45.0385V46.6185C39.8956 46.6858 39.8844 46.7529 39.8603 46.8159C39.8363 46.8788 39.7999 46.9363 39.7534 46.985C39.7068 47.0336 39.651 47.0725 39.5892 47.0993C39.5274 47.1261 39.4608 47.1403 39.3935 47.141ZM36.2432 46.1215H38.8837V44.6628C38.8815 44.549 38.9188 44.4379 38.9894 44.3485C39.0599 44.2591 39.1594 44.1971 39.2706 44.1729C39.8901 44.0122 40.4838 43.765 41.0343 43.4386C41.1321 43.3809 41.2464 43.3576 41.359 43.3724C41.4716 43.3873 41.576 43.4394 41.6555 43.5205L42.6849 44.5499L44.5502 42.6846L43.4997 41.6453C43.4209 41.5644 43.3703 41.4602 43.3556 41.3483C43.3408 41.2363 43.3626 41.1226 43.4178 41.024C43.7435 40.4732 43.9906 39.8796 44.152 39.2604C44.181 39.1517 44.2443 39.0552 44.3326 38.9855C44.421 38.9157 44.5295 38.8764 44.642 38.8735H46.1006V36.233H44.642C44.5282 36.2353 44.417 36.1979 44.3277 36.1274C44.2383 36.0568 44.1762 35.9574 44.152 35.8461C43.9914 35.2267 43.7442 34.6329 43.4178 34.0825C43.3578 33.9854 43.3331 33.8705 43.3481 33.7573C43.363 33.6441 43.4165 33.5395 43.4997 33.4612L44.529 32.4318L42.6637 30.5665L41.6344 31.627C41.5535 31.7058 41.4493 31.7563 41.3373 31.7711C41.2254 31.7858 41.1116 31.764 41.0131 31.7089C40.4623 31.3831 39.8687 31.136 39.2495 30.9746C39.1407 30.9457 39.0442 30.8823 38.9745 30.794C38.9048 30.7057 38.8655 30.5971 38.8626 30.4846V29.026H36.232V30.4846C36.2342 30.5985 36.1969 30.7096 36.1263 30.799C36.0557 30.8883 35.9563 30.9504 35.8451 30.9746C35.2271 31.1397 34.634 31.3867 34.0814 31.7089C33.9843 31.7689 33.8694 31.7935 33.7562 31.7786C33.643 31.7637 33.5384 31.7101 33.4601 31.627L32.4308 30.5976L30.5655 32.4629L31.5948 33.4923C31.6736 33.5732 31.7242 33.6774 31.7389 33.7893C31.7537 33.9013 31.7319 34.015 31.6767 34.1136C31.351 34.6644 31.1039 35.258 30.9425 35.8772C30.9135 35.9859 30.8502 36.0824 30.7619 36.1522C30.6735 36.2219 30.565 36.2612 30.4525 36.2641H28.9939V38.8947H30.4525C30.5664 38.8924 30.6775 38.9298 30.7668 39.0003C30.8562 39.0709 30.9183 39.1703 30.9425 39.2816C31.1076 39.8995 31.3545 40.4927 31.6767 41.0452C31.7367 41.1424 31.7614 41.2573 31.7464 41.3705C31.7315 41.4837 31.678 41.5882 31.5948 41.6665L30.5655 42.6959L32.4308 44.5612L33.4601 43.5318C33.541 43.453 33.6452 43.4025 33.7572 43.3877C33.8691 43.373 33.9829 43.3948 34.0814 43.4499C34.6322 43.7756 35.2258 44.0228 35.8451 44.1842C35.9538 44.2131 36.0503 44.2765 36.12 44.3648C36.1897 44.4531 36.229 44.5616 36.232 44.6741L36.2432 46.1215Z" fill="#212529" stroke="#212529" stroke-width="0.5"/>
</svg>
