<svg xmlns="http://www.w3.org/2000/svg" width="60" height="60" viewBox="0 0 60 60">
  <g id="Group_68158" data-name="Group 68158" transform="translate(-666 -2080)">
    <g id="Group_2320" data-name="Group 2320" transform="translate(666 2080)">
      <circle id="Ellipse_4" data-name="Ellipse 4" cx="30" cy="30" r="30" fill="#e8e8ff"/>
      <g id="khata" transform="translate(9129.979 -10746.338)">
        <path id="Shape" d="M27.5,4.465h-.262V2.929a.829.829,0,0,0-.5-.766A15.174,15.174,0,0,0,14.99,2.029a15.174,15.174,0,0,0-11.744.133.827.827,0,0,0-.5.766V4.465H2.5A2.5,2.5,0,0,0,0,6.97V25.221a2.5,2.5,0,0,0,2.5,2.5h25a2.5,2.5,0,0,0,2.5-2.5V6.97A2.5,2.5,0,0,0,27.5,4.465ZM2.5,26.051a.834.834,0,0,1-.835-.835V6.97A.834.834,0,0,1,2.5,6.135h.262V24.371a.837.837,0,0,0,1.161.766,8.438,8.438,0,0,1,3.291-.627,10.659,10.659,0,0,1,5.534,1.542Zm11.665-1.062A12.119,12.119,0,0,0,7.213,22.84a10.633,10.633,0,0,0-2.787.361V3.492a13.507,13.507,0,0,1,9.743,0v21.5Zm1.67-21.5a13.507,13.507,0,0,1,9.743,0V23.2a10.633,10.633,0,0,0-2.787-.361,12.108,12.108,0,0,0-6.952,2.149V3.492Zm12.5,21.729a.834.834,0,0,1-.835.835H17.248a10.673,10.673,0,0,1,5.534-1.542,8.349,8.349,0,0,1,3.291.627.829.829,0,0,0,1.161-.766V6.13H27.5a.834.834,0,0,1,.835.835V25.221Z" transform="translate(-9114.979 10762.021)" fill="#5a5a5a"/>
        <g id="Group" transform="translate(-9108.454 10768.264)">
          <path id="Shape-2" data-name="Shape" d="M.516.335a.623.623,0,0,0,.291,1.21,9.143,9.143,0,0,1,4.027-.04A.618.618,0,0,0,5.087.3,10.33,10.33,0,0,0,.516.335Z" transform="translate(-0.034 -0.056)" fill="#5a5a5a"/>
          <path id="Shape-3" data-name="Shape" d="M5.105,5A10.356,10.356,0,0,0,.54,4.826a.621.621,0,1,0,.232,1.22A9.171,9.171,0,0,1,4.794,6.2.62.62,0,0,0,5.105,5Z" transform="translate(-0.033 -0.817)" fill="#5a5a5a"/>
          <path id="Shape-4" data-name="Shape" d="M.75,10.555a9.118,9.118,0,0,1,4.012.336A.619.619,0,0,0,5.132,9.71,10.374,10.374,0,0,0,.577,9.335a.616.616,0,1,0,.173,1.22Z" transform="translate(-0.036 -1.576)" fill="#5a5a5a"/>
          <path id="Shape-5" data-name="Shape" d="M5.126,14.331a10.375,10.375,0,0,0-4.56-.321.62.62,0,0,0,.188,1.225,9.121,9.121,0,0,1,4.017.282.619.619,0,0,0,.356-1.186Z" transform="translate(-0.035 -2.347)" fill="#5a5a5a"/>
          <path id="Shape-6" data-name="Shape" d="M14.456,1.505a9.218,9.218,0,0,1,4.027.04.623.623,0,1,0,.291-1.21A10.4,10.4,0,0,0,14.2.285a.623.623,0,0,0,.252,1.22Z" transform="translate(-2.3 -0.055)" fill="#5a5a5a"/>
          <path id="Shape-7" data-name="Shape" d="M14.491,6.2a9.1,9.1,0,0,1,4.022-.158.621.621,0,1,0,.232-1.22A10.431,10.431,0,0,0,14.18,5a.62.62,0,0,0-.445.756A.612.612,0,0,0,14.491,6.2Z" transform="translate(-2.3 -0.817)" fill="#5a5a5a"/>
          <path id="Shape-8" data-name="Shape" d="M18.712,9.329a10.375,10.375,0,0,0-4.555.375.619.619,0,1,0,.371,1.181,9.118,9.118,0,0,1,4.012-.336.62.62,0,0,0,.7-.524A.61.61,0,0,0,18.712,9.329Z" transform="translate(-2.301 -1.575)" fill="#5a5a5a"/>
          <path id="Shape-9" data-name="Shape" d="M19.24,14.722a.616.616,0,0,0-.519-.706,10.307,10.307,0,0,0-4.56.321.618.618,0,0,0,.346,1.186,9.115,9.115,0,0,1,4.017-.282A.625.625,0,0,0,19.24,14.722Z" transform="translate(-2.3 -2.348)" fill="#5a5a5a"/>
        </g>
      </g>
    </g>
  </g>
</svg>
