<svg xmlns="http://www.w3.org/2000/svg" width="60" height="60" viewBox="0 0 60 60">
  <g id="Group_68159" data-name="Group 68159" transform="translate(-666 -2362)">
    <g id="Group_2324" data-name="Group 2324" transform="translate(666 2362)">
      <circle id="Ellipse_4" data-name="Ellipse 4" cx="30" cy="30" r="30" fill="#eec9ff"/>
      <g id="crm_loyalty" data-name="crm &amp; loyalty" transform="translate(9129.863 -10925)">
        <g id="Group" transform="translate(-9114.863 10940)">
          <path id="Shape" d="M20.107,12.613a.835.835,0,0,0-1.181,0,2.168,2.168,0,0,1-3.063,0,.835.835,0,0,0-1.181,1.181,3.863,3.863,0,0,0,5.42,0A.839.839,0,0,0,20.107,12.613Z" transform="translate(-2.392 -2.055)" fill="#5a5a5a"/>
          <path id="Shape-2" data-name="Shape" d="M27.073,17.072c-1-1.136-3.429-2.218-7.233-3.231A8.319,8.319,0,0,0,22.2,7.966c0-4.387-3.226-7.959-7.2-7.959S7.8,3.579,7.8,7.966a8.319,8.319,0,0,0,2.362,5.875c-3.8,1.008-6.235,2.095-7.233,3.231C.9,19.394.1,28.109.007,29.1a.845.845,0,0,0,.835.909h28.33a.832.832,0,0,0,.835-.9C29.913,28.109,29.113,19.394,27.073,17.072ZM15,1.677A5.651,5.651,0,0,1,20.235,5.94C15.872,6.3,14.76,4.088,14.711,4a.827.827,0,0,0-.766-.5h-.01a.833.833,0,0,0-.761.524A3.793,3.793,0,0,1,9.657,6.365,5.714,5.714,0,0,1,15,1.677ZM9.474,8.03c.124.01.242.02.361.02a5.214,5.214,0,0,0,4.224-2.213c.973.958,2.91,2.095,6.467,1.774,0,.124.02.242.02.366,0,3.468-2.48,6.29-5.534,6.29S9.5,11.469,9.474,8.03Zm.124,7.7c.706-.207,1.472-.405,2.278-.6a6.527,6.527,0,0,0,6.245,0c.815.193,1.576.4,2.278.6v4l-4.862-3.508a1,1,0,0,0-1.087,0L9.587,19.73v-4Zm7.46,3.631-2.11,1.9-2.006-1.882,2.065-1.487Zm-6.443,8.972H1.756c.371-3.572,1.27-8.839,2.426-10.163a9.753,9.753,0,0,1,3.75-1.917v5.109a.835.835,0,0,0,1.324.672l2.307-1.665.672.632Zm1.7,0,1.329-6.008h0l.716.672a.82.82,0,0,0,1.126.01l.85-.761,1.349,6.087H12.32Zm7.075,0-1.63-7.367.672-.6,2.317,1.67a.834.834,0,0,0,1.324-.672V16.257a9.936,9.936,0,0,1,3.75,1.917c1.156,1.324,2.055,6.591,2.426,10.163Z" transform="translate(0 -0.007)" fill="#5a5a5a"/>
        </g>
      </g>
    </g>
  </g>
</svg>
