<svg xmlns="http://www.w3.org/2000/svg" width="60" height="60" viewBox="0 0 60 60">
  <g id="Group_68161" data-name="Group 68161" transform="translate(-200 -1798)">
    <g id="Group_2313" data-name="Group 2313" transform="translate(200 1798)">
      <path id="Path_9027" data-name="Path 9027" d="M30,0A30,30,0,1,1,0,30,30,30,0,0,1,30,0Z" fill="#eec9ff"/>
    </g>
    <g id="quick_bill" data-name="quick bill" transform="translate(8155.297 -9126)">
      <path id="Fill-1" d="M2.54,12.173H5.985v-1H2.54Z" transform="translate(-7941.214 10938.965)" fill="#5a5a5a" fill-rule="evenodd"/>
      <path id="Fill-2" d="M2.54,23.1H5.985v-1H2.54Z" transform="translate(-7941.214 10935.021)" fill="#5a5a5a" fill-rule="evenodd"/>
      <path id="Fill-3" d="M0,17.635H5.068v-1H0Z" transform="translate(-7940.297 10936.994)" fill="#5a5a5a" fill-rule="evenodd"/>
      <path id="Fill-4" d="M0,11.5A11.588,11.588,0,1,1,11.588,23,11.544,11.544,0,0,1,0,11.5Z" transform="translate(-7933.472 10943)" fill="none" stroke="#5a5a5a" stroke-linecap="round" stroke-width="2" fill-rule="evenodd"/>
      <path id="Path_14068" data-name="Path 14068" d="M-7911.477,10951.264v6.342l4.887,4.088" transform="translate(-10.407 -2.851)" fill="none" stroke="#5a5a5a" stroke-linecap="round" stroke-linejoin="round" stroke-width="2"/>
    </g>
  </g>
</svg>
