<!-- <svg xmlns="http://www.w3.org/2000/svg" version="1.1" xmlns:xlink="http://www.w3.org/1999/xlink" xmlns:svgjs="http://svgjs.com/svgjs" width="13" height="13" x="0" y="0" viewBox="0 0 512 512" style="enable-background:new 0 0 512 512" xml:space="preserve" class=""><g><path d="M467 211H301V45c0-24.853-20.147-45-45-45s-45 20.147-45 45v166H45c-24.853 0-45 20.147-45 45s20.147 45 45 45h166v166c0 24.853 20.147 45 45 45s45-20.147 45-45V301h166c24.853 0 45-20.147 45-45s-20.147-45-45-45z" fill="#DB6A41" data-original="#000000"></path></g></svg> -->
<svg xmlns="http://www.w3.org/2000/svg" version="1.1" xmlns:xlink="http://www.w3.org/1999/xlink" xmlns:svgjs="http://svgjs.com/svgjs" width="512"  height="512" x="0" y="0" viewBox="0 0 451.847 451.847" style="enable-background:new 0 0 512 512" xml:space="preserve" class=""><g><path d="M225.923 354.706c-8.098 0-16.195-3.092-22.369-9.263L9.27 151.157c-12.359-12.359-12.359-32.397 0-44.751 12.354-12.354 32.388-12.354 44.748 0l171.905 171.915 171.906-171.909c12.359-12.354 32.391-12.354 44.744 0 12.365 12.354 12.365 32.392 0 44.751L248.292 345.449c-6.177 6.172-14.274 9.257-22.369 9.257z" fill="#db6a41" data-original="#000000" class=""></path></g></svg>