<svg width="34" height="36" viewBox="0 0 34 36" fill="none" xmlns="http://www.w3.org/2000/svg">
<path d="M0.813679 8.39161L16.705 0.719907C16.8459 0.651958 17.01 0.651958 17.1508 0.719907L33.0423 8.39161C33.2194 8.47712 33.332 8.65657 33.332 8.85331V27.4846C33.332 27.6813 33.2194 27.8608 33.0423 27.9463L17.1509 35.618C17.0805 35.652 17.0042 35.669 16.928 35.669C16.8517 35.669 16.7755 35.652 16.705 35.618L0.813679 27.9463C0.63649 27.8608 0.523907 27.6813 0.523907 27.4846V8.85337C0.523907 8.6565 0.636559 8.47719 0.813679 8.39161ZM16.928 1.75097L2.21587 8.85331L6.4806 10.9122C6.50761 10.8916 6.53611 10.8726 6.56742 10.8575L21.1796 3.80346L16.928 1.75097ZM22.3374 4.38315L7.64675 11.4752L10.6556 12.9277L25.3402 5.83859L22.3374 4.38315ZM7.30304 12.4478V17.8171L10.1135 19.1739V13.8046L7.30304 12.4478ZM1.5493 27.1629L16.4153 34.3394V16.8468L11.1389 14.4414C10.8839 14.3183 10.777 14.0118 10.9001 13.7568C11.0232 13.5019 11.3297 13.3948 11.5847 13.518L16.928 15.9557L20.6869 14.1411C20.9419 14.0178 21.2484 14.1249 21.3715 14.3798C21.4946 14.6348 21.3877 14.9413 21.1327 15.0645L17.4407 16.8468V34.3394L32.3066 27.1627V9.67013L20.9863 15.1351C20.9145 15.1698 20.8385 15.1863 20.7638 15.1863C20.5732 15.1863 20.3902 15.0795 20.3018 14.8963C20.1787 14.6414 20.2856 14.3348 20.5406 14.2117L31.6401 8.85331L26.547 6.39456L11.146 13.8295C11.1437 13.8327 11.1412 13.8355 11.1389 13.8385V19.9908C11.1389 20.1673 11.0482 20.3313 10.8987 20.4251C10.8158 20.4772 10.7211 20.5035 10.6261 20.5035C10.5501 20.5035 10.4739 20.4866 10.4033 20.4525L6.56742 18.6007C6.39023 18.5152 6.27764 18.3358 6.27764 18.139V11.9529L1.5493 9.6702V27.1629Z" fill="black"/>
</svg>
