<svg width="75" height="75" viewBox="0 0 75 75" fill="none" xmlns="http://www.w3.org/2000/svg">
<path d="M37.5 75C58.2107 75 75 58.2107 75 37.5C75 16.7893 58.2107 0 37.5 0C16.7893 0 0 16.7893 0 37.5C0 58.2107 16.7893 75 37.5 75Z" fill="#EEC9FF"/>
<path d="M54.2978 26.4611L48.0978 20.2611C47.9907 20.1598 47.8492 20.103 47.7018 20.1021H33.6208C33.1734 20.1047 32.7451 20.2836 32.4287 20.5999C32.1123 20.9163 31.9335 21.3446 31.9308 21.7921V25.2021C28.8971 25.3445 26.0348 26.6499 23.9382 28.8472C21.8416 31.0446 20.6719 33.965 20.6719 37.0021C20.6719 40.0391 21.8416 42.9595 23.9382 45.1569C26.0348 47.3542 28.8971 48.6596 31.9308 48.8021V52.2101C31.9335 52.6575 32.1123 53.0858 32.4287 53.4022C32.7451 53.7185 33.1734 53.8974 33.6208 53.9001H52.7708C53.2182 53.8974 53.6466 53.7185 53.9629 53.4022C54.2793 53.0858 54.4582 52.6575 54.4608 52.2101V26.8611C54.4598 26.7117 54.4015 26.5685 54.2978 26.4611ZM48.2618 22.0231L52.5408 26.3021H48.8288C48.6795 26.3021 48.5363 26.2427 48.4307 26.1372C48.3251 26.0316 48.2658 25.8884 48.2658 25.7391L48.2618 22.0231ZM21.7918 37.0021C21.795 34.2621 22.8477 31.6275 24.7335 29.6398C26.6193 27.6521 29.1949 26.4623 31.9308 26.3151V36.7691L24.5518 44.1471C22.7762 42.1909 21.7924 39.6439 21.7918 37.0021ZM25.3468 44.9421L32.7258 37.5631H43.1788C43.0762 39.5812 42.4032 41.5289 41.2379 43.1798C40.0726 44.8308 38.4628 46.1173 36.5956 46.89C34.7284 47.6626 32.6803 47.8898 30.6891 47.545C28.698 47.2002 26.8455 46.2976 25.3468 44.9421ZM53.3348 52.208C53.3348 52.282 53.3203 52.3552 53.292 52.4235C53.2637 52.4918 53.2222 52.5539 53.1699 52.6062C53.1176 52.6584 53.0556 52.6999 52.9873 52.7282C52.919 52.7565 52.8458 52.771 52.7718 52.771H33.6208C33.4715 52.771 33.3283 52.7117 33.2227 52.6062C33.1171 52.5006 33.0578 52.3574 33.0578 52.208V48.8021C36.0907 48.6556 38.9513 47.3491 41.048 45.1528C43.1447 42.9565 44.3171 40.0385 44.3228 37.0021C44.3228 36.8527 44.2635 36.7095 44.1579 36.604C44.0523 36.4984 43.9091 36.4391 43.7598 36.4391H33.0618V21.7921C33.0618 21.6427 33.1211 21.4995 33.2267 21.3939C33.3323 21.2884 33.4755 21.2291 33.6248 21.2291H47.1388V25.7351C47.1415 26.1825 47.3203 26.6108 47.6367 26.9272C47.9531 27.2435 48.3814 27.4224 48.8288 27.4251H53.3348V52.208Z" fill="black"/>
<path d="M34.7466 22.918C34.5973 22.918 34.4541 22.9773 34.3485 23.0829C34.2429 23.1885 34.1836 23.3317 34.1836 23.481V34.746C34.1836 34.8953 34.2429 35.0385 34.3485 35.1441C34.4541 35.2497 34.5973 35.309 34.7466 35.309H46.0116C46.1609 35.309 46.3041 35.2497 46.4097 35.1441C46.5153 35.0385 46.5746 34.8953 46.5746 34.746C46.5712 31.61 45.3239 28.6035 43.1065 26.3861C40.889 24.1687 37.8825 22.9214 34.7466 22.918ZM35.3096 34.183V24.061C37.9482 24.2025 40.4413 25.3143 42.3098 27.1828C44.1782 29.0512 45.2901 31.5444 45.4316 34.183H35.3096Z" fill="black"/>
<path d="M47.1393 41.5059C46.1368 41.5059 45.1567 41.8032 44.3231 42.3601C43.4895 42.9171 42.8398 43.7088 42.4562 44.635C42.0725 45.5613 41.9721 46.5805 42.1677 47.5638C42.3633 48.5471 42.8461 49.4503 43.555 50.1592C44.2639 50.8681 45.1671 51.3509 46.1504 51.5465C47.1337 51.742 48.1529 51.6417 49.0791 51.258C50.0054 50.8743 50.797 50.2246 51.354 49.391C51.911 48.5575 52.2083 47.5774 52.2083 46.5749C52.2083 45.9092 52.0772 45.25 51.8225 44.635C51.5677 44.02 51.1943 43.4612 50.7236 42.9905C50.2529 42.5198 49.6941 42.1465 49.0791 41.8917C48.4641 41.637 47.805 41.5059 47.1393 41.5059ZM47.1393 50.5179C46.3595 50.5179 45.5971 50.2866 44.9487 49.8533C44.3003 49.4201 43.7949 48.8043 43.4965 48.0838C43.198 47.3633 43.1199 46.5705 43.2721 45.8056C43.4242 45.0408 43.7998 44.3382 44.3512 43.7867C44.9026 43.2353 45.6052 42.8598 46.3701 42.7076C47.1349 42.5555 47.9277 42.6336 48.6482 42.932C49.3687 43.2304 49.9845 43.7358 50.4178 44.3842C50.8511 45.0327 51.0823 45.795 51.0823 46.5749C51.0823 47.6206 50.6669 48.6235 49.9274 49.363C49.188 50.1024 48.1851 50.5179 47.1393 50.5179Z" fill="black"/>
<path d="M46.01 47.4678L44.718 46.1758L43.918 46.9758L45.608 48.6658C45.6603 48.7187 45.7226 48.7606 45.7913 48.7893C45.8599 48.8179 45.9336 48.8326 46.008 48.8326C46.0824 48.8326 46.156 48.8179 46.2247 48.7893C46.2933 48.7606 46.3556 48.7187 46.408 48.6658L49.788 45.2858L48.988 44.4858L46.01 47.4678Z" fill="black"/>
<path d="M47.7031 29.6772H52.2091V30.8042H47.7031V29.6772Z" fill="black"/>
<path d="M47.7031 33.0571H52.2091V34.1841H47.7031V33.0571Z" fill="black"/>
<path d="M47.7031 36.436H52.2091V37.563H47.7031V36.436Z" fill="black"/>
</svg>
