<svg width="37" height="39" viewBox="0 0 37 39" fill="none" xmlns="http://www.w3.org/2000/svg">
<path d="M36.2241 21.609C35.8735 20.9164 35.6641 20.1611 35.6081 19.387C35.6641 18.6128 35.8735 17.8575 36.2241 17.165C36.8499 16.0527 37.0317 14.7448 36.7331 13.504C36.2453 12.3252 35.3297 11.3746 34.1701 10.843C33.4811 10.4884 32.8693 10.0006 32.3701 9.40795C31.9586 8.74992 31.682 8.01675 31.5561 7.25095C31.4086 5.98304 30.7865 4.81797 29.8151 3.98995C28.7277 3.32238 27.4281 3.09089 26.1771 3.34195C25.4097 3.46159 24.6262 3.4276 23.8721 3.24195C23.1553 2.9475 22.5041 2.5138 21.9561 1.96595C21.0904 1.02625 19.901 0.44923 18.6271 0.350952C17.3548 0.450049 16.167 1.02661 15.3021 1.96495C14.752 2.51202 14.0986 2.94439 13.3801 3.23695C12.6276 3.42209 11.8458 3.45608 11.0801 3.33695C9.82909 3.08619 8.52955 3.31767 7.44208 3.98495C6.4721 4.81264 5.85091 5.97644 5.70308 7.24295C5.5793 8.01056 5.30395 8.74585 4.89308 9.40595C4.39388 9.99861 3.78207 10.4864 3.09308 10.841C1.93391 11.3729 1.01873 12.3235 0.53108 13.502C0.232412 14.7427 0.413877 16.0504 1.03908 17.163C1.38917 17.8556 1.59822 18.6109 1.65408 19.385C1.59822 20.159 1.38917 20.9143 1.03908 21.607C0.413877 22.7195 0.232412 24.0272 0.53108 25.268C1.01794 26.4469 1.93287 27.3979 3.09208 27.93C3.78138 28.2849 4.39324 28.7734 4.89208 29.367C5.30259 30.0264 5.57761 30.761 5.70108 31.528C5.84891 32.7945 6.4701 33.9583 7.44008 34.786C8.52772 35.4528 9.82722 35.6839 11.0781 35.433C11.8438 35.3139 12.6256 35.3478 13.3781 35.533C14.0968 35.8258 14.7501 36.2585 15.3001 36.806C16.1646 37.7452 17.3524 38.3225 18.6251 38.422C19.8996 38.3245 21.0898 37.7478 21.9561 36.808C22.5061 36.2605 23.1594 35.8277 23.8781 35.535C24.6322 35.3493 25.4157 35.3153 26.1831 35.435C27.4336 35.6859 28.7328 35.4548 29.8201 34.788C30.7897 33.9591 31.4099 32.7941 31.5561 31.527C31.6796 30.7608 31.9542 30.0269 32.3641 29.368C32.8645 28.7742 33.4781 28.2861 34.1691 27.932C35.3286 27.4 36.2439 26.449 36.7311 25.27C37.0298 24.0291 36.8479 22.7212 36.2221 21.609H36.2241ZM34.8531 22.185C35.3242 22.9735 35.49 23.9074 35.3191 24.81C35.0411 25.665 34.2811 26.126 33.4001 26.659C32.5372 27.1118 31.7757 27.7359 31.1621 28.493C30.6322 29.3099 30.2742 30.2262 30.1101 31.186C30.0282 32.1019 29.6129 32.9559 28.9431 33.586C28.1378 34.0277 27.1986 34.159 26.3031 33.955C25.3386 33.8147 24.3556 33.8722 23.4141 34.124C22.5052 34.4737 21.6771 35.0048 20.9801 35.685C20.3755 36.3766 19.5384 36.8228 18.6271 36.939C17.7158 36.8228 16.8787 36.3766 16.2741 35.685C15.5771 35.0048 14.749 34.4737 13.8401 34.124C13.305 33.9584 12.7471 33.8788 12.1871 33.888C11.7591 33.888 11.3441 33.923 10.9531 33.955C10.0576 34.1586 9.11846 34.0273 8.31308 33.586C7.64516 32.9568 7.23074 32.1048 7.14808 31.191C6.98433 30.2286 6.62566 29.3098 6.09408 28.491C5.48029 27.7346 4.71879 27.1112 3.85608 26.659C2.97608 26.125 2.21608 25.665 1.93808 24.809C1.76693 23.9062 1.93235 22.972 2.40308 22.183C2.83426 21.3089 3.08297 20.3562 3.13408 19.383C3.08297 18.4097 2.83426 17.457 2.40308 16.583C1.93235 15.7939 1.76693 14.8597 1.93808 13.957C2.21608 13.103 2.97608 12.642 3.85608 12.108C4.71782 11.6568 5.47889 11.0352 6.09308 10.281C6.62436 9.46199 6.983 8.54326 7.14708 7.58095C7.22855 6.66532 7.64307 5.81138 8.31208 5.18095C9.11957 4.74122 10.0603 4.61278 10.9561 4.81995C11.9193 4.95985 12.9008 4.90235 13.8411 4.65095C14.7495 4.30129 15.5772 3.77053 16.2741 3.09095C16.879 2.39919 17.7165 1.95307 18.6281 1.83695C19.5393 1.95322 20.3764 2.39933 20.9811 3.09095C21.6779 3.77051 22.5057 4.30127 23.4141 4.65095C24.3553 4.90257 25.3379 4.96006 26.3021 4.81995C27.1976 4.61595 28.1368 4.74722 28.9421 5.18895C29.6119 5.81901 30.0272 6.67302 30.1091 7.58895C30.274 8.54838 30.6322 9.46427 31.1621 10.281C31.7756 11.0374 32.5368 11.6611 33.3991 12.114C34.2801 12.648 35.0401 13.109 35.3181 13.963C35.4893 14.8654 35.3238 15.7992 34.8531 16.588C34.4214 17.4619 34.1724 18.4146 34.1211 19.388C34.1724 20.3613 34.4214 21.314 34.8531 22.188V22.185Z" fill="#5A5A5A"/>
<path d="M13.5427 16.3399C13.5903 16.4907 13.6847 16.6223 13.8122 16.7158C13.9397 16.8093 14.0936 16.8598 14.2517 16.8599H23.0027C23.1608 16.8598 23.3148 16.8093 23.4422 16.7158C23.5697 16.6223 23.6641 16.4907 23.7117 16.3399L25.7727 9.7919C25.8152 9.65525 25.8173 9.50925 25.7789 9.37141C25.7405 9.23357 25.6631 9.10974 25.5561 9.01475C25.4491 8.91976 25.3169 8.85765 25.1755 8.83586C25.0341 8.81407 24.8894 8.83353 24.7587 8.8919L21.4437 10.3779L19.2617 6.8069C19.1952 6.6983 19.102 6.60858 18.9909 6.54634C18.8798 6.4841 18.7546 6.45142 18.6272 6.45142C18.4999 6.45142 18.3747 6.4841 18.2636 6.54634C18.1525 6.60858 18.0592 6.6983 17.9927 6.8069L15.8107 10.3779L12.4967 8.8919C12.3661 8.83353 12.2214 8.81407 12.0799 8.83586C11.9385 8.85765 11.8064 8.91976 11.6993 9.01475C11.5923 9.10974 11.515 9.23357 11.4765 9.37141C11.4381 9.50925 11.4403 9.65525 11.4827 9.7919L13.5427 16.3399ZM15.8007 12.0039C15.9658 12.0781 16.1523 12.0895 16.3252 12.0359C16.4981 11.9823 16.6455 11.8675 16.7397 11.7129L18.6287 8.6219L20.5177 11.7129C20.6121 11.8673 20.7595 11.982 20.9323 12.0356C21.1051 12.0891 21.2916 12.0779 21.4567 12.0039L23.8567 10.9269L22.4567 15.3729H14.8027L13.4027 10.9269L15.8007 12.0039Z" fill="#5A5A5A"/>
<path d="M22.7562 19.7179C22.5589 19.7179 22.3697 19.7963 22.2301 19.9359C22.0906 20.0754 22.0122 20.2646 22.0122 20.4619V26.6759C22.0086 26.7759 22.0251 26.8755 22.0608 26.9689C22.0965 27.0623 22.1507 27.1476 22.2201 27.2196C22.2895 27.2916 22.3727 27.3488 22.4647 27.3879C22.5568 27.4271 22.6557 27.4472 22.7557 27.4472C22.8557 27.4472 22.9547 27.4271 23.0467 27.3879C23.1388 27.3488 23.222 27.2916 23.2914 27.2196C23.3608 27.1476 23.415 27.0623 23.4507 26.9689C23.4864 26.8755 23.5029 26.7759 23.4992 26.6759V24.7159H24.4862C25.1493 24.7159 25.7852 24.4525 26.254 23.9837C26.7229 23.5149 26.9862 22.879 26.9862 22.2159C26.9862 21.5529 26.7229 20.917 26.254 20.4482C25.7852 19.9793 25.1493 19.7159 24.4862 19.7159H22.7562V19.7179ZM25.5322 22.2179C25.5242 22.4897 25.4103 22.7475 25.2149 22.9366C25.0195 23.1256 24.7581 23.2309 24.4862 23.2299H23.4992V21.2049H24.4862C24.7578 21.2038 25.0191 21.3087 25.2145 21.4973C25.4099 21.686 25.5239 21.9435 25.5322 22.2149V22.2179Z" fill="#5A5A5A"/>
<path d="M12.5866 26.9319C12.6396 27.074 12.7348 27.1964 12.8593 27.2829C12.9839 27.3693 13.1319 27.4157 13.2836 27.4157C13.4352 27.4157 13.5832 27.3693 13.7078 27.2829C13.8323 27.1964 13.9275 27.074 13.9806 26.9319L16.2806 20.7239C16.3192 20.6314 16.3387 20.5321 16.338 20.4319C16.3373 20.3316 16.3163 20.2326 16.2764 20.1406C16.2364 20.0487 16.1783 19.9658 16.1055 19.8969C16.0327 19.828 15.9467 19.7745 15.8527 19.7397C15.7588 19.7048 15.6587 19.6893 15.5586 19.6941C15.4585 19.6989 15.3603 19.7238 15.2701 19.7674C15.1799 19.8111 15.0994 19.8725 15.0335 19.948C14.9676 20.0236 14.9176 20.1116 14.8866 20.2069L13.2796 24.5369L11.6706 20.2069C11.639 20.1122 11.5887 20.0248 11.5226 19.9499C11.4566 19.8751 11.3762 19.8142 11.2861 19.7711C11.1961 19.728 11.0983 19.7034 10.9985 19.6989C10.8988 19.6943 10.7991 19.7099 10.7056 19.7447C10.612 19.7795 10.5263 19.8327 10.4538 19.9013C10.3812 19.9699 10.3232 20.0524 10.2831 20.1438C10.2431 20.2353 10.2219 20.3339 10.2208 20.4337C10.2196 20.5335 10.2386 20.6326 10.2766 20.7249L12.5866 26.9319Z" fill="#5A5A5A"/>
<path d="M18.106 20.462V26.676C18.1023 26.7759 18.1188 26.8756 18.1545 26.969C18.1903 27.0624 18.2444 27.1476 18.3138 27.2196C18.3832 27.2916 18.4664 27.3489 18.5585 27.388C18.6505 27.4271 18.7495 27.4473 18.8495 27.4473C18.9495 27.4473 19.0484 27.4271 19.1405 27.388C19.2325 27.3489 19.3157 27.2916 19.3851 27.2196C19.4545 27.1476 19.5087 27.0624 19.5444 26.969C19.5801 26.8756 19.5966 26.7759 19.593 26.676V20.46C19.5859 20.2675 19.5045 20.0853 19.3658 19.9516C19.2272 19.818 19.0421 19.7433 18.8495 19.7433C18.6569 19.7433 18.4718 19.818 18.3331 19.9516C18.1944 20.0853 18.113 20.2675 18.106 20.46V20.462Z" fill="#5A5A5A"/>
<path d="M27.0457 29.0869H10.2107C10.1108 29.0833 10.0111 29.0998 9.91774 29.1355C9.82434 29.1712 9.73909 29.2254 9.6671 29.2948C9.5951 29.3642 9.53785 29.4474 9.49873 29.5394C9.45962 29.6314 9.43945 29.7304 9.43945 29.8304C9.43945 29.9304 9.45962 30.0294 9.49873 30.1214C9.53785 30.2135 9.5951 30.2967 9.6671 30.3661C9.73909 30.4355 9.82434 30.4897 9.91774 30.5254C10.0111 30.5611 10.1108 30.5776 10.2107 30.5739H27.0457C27.1457 30.5776 27.2453 30.5611 27.3387 30.5254C27.4321 30.4897 27.5174 30.4355 27.5894 30.3661C27.6614 30.2967 27.7186 30.2135 27.7577 30.1214C27.7968 30.0294 27.817 29.9304 27.817 29.8304C27.817 29.7304 27.7968 29.6314 27.7577 29.5394C27.7186 29.4474 27.6614 29.3642 27.5894 29.2948C27.5174 29.2254 27.4321 29.1712 27.3387 29.1355C27.2453 29.0998 27.1457 29.0833 27.0457 29.0869Z" fill="#5A5A5A"/>
</svg>
