<svg width="75" height="75" viewBox="0 0 75 75" fill="none" xmlns="http://www.w3.org/2000/svg">
<g clip-path="url(#clip0_939_4945)">
<path d="M37.5 75C58.2107 75 75 58.2107 75 37.5C75 16.7893 58.2107 0 37.5 0C16.7893 0 0 16.7893 0 37.5C0 58.2107 16.7893 75 37.5 75Z" fill="#4EEAC2"/>
<path d="M54.0267 26.1912L47.0153 19.1798C46.8942 19.0653 46.7341 19.0011 46.5675 19H30.6436C30.1377 19.003 29.6533 19.2053 29.2955 19.5631C28.9377 19.9208 28.7354 20.4052 28.7325 20.9112V24.7675C25.3017 24.9285 22.0647 26.4048 19.6938 28.8897C17.3228 31.3746 16 34.6772 16 38.1118C16 41.5463 17.3228 44.8489 19.6938 47.3338C22.0647 49.8187 25.3017 51.295 28.7325 51.4561V55.3101C28.7354 55.8161 28.9377 56.3005 29.2955 56.6582C29.6533 57.016 30.1377 57.2183 30.6436 57.2213H52.2999C52.8058 57.2183 53.2902 57.016 53.648 56.6582C54.0058 56.3005 54.2081 55.8161 54.211 55.3101V26.6436C54.2099 26.4747 54.1439 26.3128 54.0267 26.1912ZM47.2008 21.1724L52.0398 26.0114H47.842C47.6731 26.0114 47.5112 25.9443 47.3918 25.8249C47.2724 25.7055 47.2053 25.5436 47.2053 25.3747L47.2008 21.1724ZM17.2665 38.1118C17.2701 35.0133 18.4606 32.0339 20.5932 29.786C22.7258 27.5382 25.6384 26.1927 28.7325 26.0261V37.8483L20.3877 46.1919C18.3798 43.9797 17.2671 41.0993 17.2665 38.1118ZM21.2868 47.0909L29.6315 38.7462H41.4525C41.3365 41.0285 40.5753 43.231 39.2575 45.0981C37.9397 46.9651 36.1194 48.42 34.0078 49.2938C31.8962 50.1675 29.58 50.4244 27.3283 50.0345C25.0765 49.6445 22.9816 48.6238 21.2868 47.0909ZM52.9377 55.3078C52.9377 55.3915 52.9212 55.4742 52.8892 55.5515C52.8572 55.6287 52.8103 55.6989 52.7512 55.758C52.6921 55.8172 52.6219 55.8641 52.5447 55.8961C52.4674 55.9281 52.3846 55.9445 52.301 55.9445H30.6436C30.4748 55.9445 30.3128 55.8774 30.1934 55.758C30.074 55.6386 30.007 55.4767 30.007 55.3078V51.4561C33.4368 51.2904 36.6717 49.813 39.0428 47.3293C41.4139 44.8456 42.7398 41.5456 42.7462 38.1118C42.7462 37.9429 42.6792 37.781 42.5598 37.6616C42.4404 37.5422 42.2784 37.4751 42.1096 37.4751H30.0115V20.9112C30.0115 20.7423 30.0786 20.5804 30.198 20.461C30.3174 20.3416 30.4793 20.2745 30.6482 20.2745H45.9308V25.3702C45.9338 25.8762 46.1361 26.3606 46.4938 26.7183C46.8516 27.0761 47.336 27.2784 47.842 27.2814H52.9377V55.3078Z" fill="#363636"/>
<path d="M31.9179 22.1841C31.7491 22.1841 31.5871 22.2512 31.4677 22.3706C31.3483 22.49 31.2813 22.6519 31.2812 22.8208V35.5601C31.2812 35.7289 31.3483 35.8909 31.4677 36.0103C31.5871 36.1297 31.7491 36.1967 31.9179 36.1967H44.6572C44.8261 36.1967 44.988 36.1297 45.1074 36.0103C45.2268 35.8909 45.2939 35.7289 45.2939 35.5601C45.29 32.0137 43.8795 28.6138 41.3719 26.1061C38.8642 23.5985 35.4643 22.188 31.9179 22.1841ZM32.5546 34.9234V23.4767C35.5385 23.6367 38.358 24.8941 40.471 27.007C42.5839 29.12 43.8413 31.9395 44.0013 34.9234H32.5546Z" fill="#363636"/>
<path d="M45.9316 43.2046C44.7979 43.2046 43.6896 43.5408 42.7469 44.1707C41.8042 44.8006 41.0694 45.6958 40.6356 46.7433C40.2017 47.7908 40.0882 48.9434 40.3094 50.0553C40.5306 51.1673 41.0765 52.1887 41.8782 52.9904C42.6799 53.7921 43.7013 54.3381 44.8133 54.5592C45.9253 54.7804 47.0779 54.6669 48.1253 54.233C49.1728 53.7992 50.0681 53.0644 50.6979 52.1217C51.3278 51.1791 51.664 50.0708 51.664 48.937C51.664 48.1842 51.5157 47.4388 51.2277 46.7433C50.9396 46.0478 50.5173 45.4159 49.985 44.8836C49.4527 44.3513 48.8208 43.929 48.1253 43.6409C47.4298 43.3529 46.6844 43.2046 45.9316 43.2046ZM45.9316 53.396C45.0497 53.396 44.1876 53.1345 43.4543 52.6445C42.721 52.1546 42.1495 51.4582 41.812 50.6434C41.4745 49.8286 41.3862 48.932 41.5583 48.0671C41.7303 47.2021 42.155 46.4076 42.7786 45.784C43.4022 45.1604 44.1967 44.7357 45.0617 44.5636C45.9267 44.3916 46.8232 44.4799 47.638 44.8174C48.4528 45.1549 49.1492 45.7264 49.6392 46.4597C50.1291 47.193 50.3907 48.0551 50.3907 48.937C50.3907 50.1196 49.9209 51.2538 49.0846 52.09C48.2484 52.9262 47.1142 53.396 45.9316 53.396Z" fill="#363636"/>
<path d="M44.6549 49.947L43.1938 48.4859L42.2891 49.3906L44.2002 51.3018C44.2594 51.3615 44.3299 51.409 44.4075 51.4414C44.4852 51.4737 44.5685 51.4904 44.6526 51.4904C44.7367 51.4904 44.82 51.4737 44.8976 51.4414C44.9753 51.409 45.0457 51.3615 45.1049 51.3018L48.9273 47.4794L48.0226 46.5747L44.6549 49.947Z" fill="#363636"/>
<path d="M46.5703 29.8281H51.666V31.1026H46.5703V29.8281Z" fill="#363636"/>
<path d="M46.5703 33.6504H51.666V34.9249H46.5703V33.6504Z" fill="#363636"/>
<path d="M46.5703 37.4717H51.666V38.7462H46.5703V37.4717Z" fill="#363636"/>
</g>
<defs>
<clipPath id="clip0_939_4945">
<rect width="75" height="75" fill="white"/>
</clipPath>
</defs>
</svg>
