<svg width="75" height="75" viewBox="0 0 75 75" fill="none" xmlns="http://www.w3.org/2000/svg">
<path d="M37.5 75C58.2107 75 75 58.2107 75 37.5C75 16.7893 58.2107 0 37.5 0C16.7893 0 0 16.7893 0 37.5C0 58.2107 16.7893 75 37.5 75Z" fill="#8AE4F6"/>
<path d="M36.8645 44.686C37.1456 44.686 37.3735 44.4581 37.3735 44.177C37.3735 43.8959 37.1456 43.668 36.8645 43.668C36.5834 43.668 36.3555 43.8959 36.3555 44.177C36.3555 44.4581 36.5834 44.686 36.8645 44.686Z" fill="#151515"/>
<path d="M22.5039 47.228C22.6365 47.228 22.7637 47.1753 22.8575 47.0816C22.9512 46.9878 23.0039 46.8606 23.0039 46.728V28.378H50.7269V35.411C50.7269 35.5436 50.7796 35.6708 50.8734 35.7646C50.9671 35.8583 51.0943 35.911 51.2269 35.911C51.3595 35.911 51.4867 35.8583 51.5805 35.7646C51.6742 35.6708 51.7269 35.5436 51.7269 35.411V22.511C51.7269 22.3784 51.6742 22.2512 51.5805 22.1574C51.4867 22.0637 51.3595 22.011 51.2269 22.011H49.1729V21.572C49.1729 21.1551 49.0073 20.7552 48.7125 20.4604C48.4177 20.1656 48.0178 20 47.6009 20C47.184 20 46.7841 20.1656 46.4893 20.4604C46.1945 20.7552 46.0289 21.1551 46.0289 21.572V22.013H44.8779V21.572C44.8779 21.1551 44.7123 20.7552 44.4175 20.4604C44.1227 20.1656 43.7228 20 43.3059 20C42.889 20 42.4891 20.1656 42.1943 20.4604C41.8995 20.7552 41.7339 21.1551 41.7339 21.572V22.013H40.5839V21.572C40.5839 21.1551 40.4183 20.7552 40.1235 20.4604C39.8287 20.1656 39.4288 20 39.0119 20C38.595 20 38.1951 20.1656 37.9003 20.4604C37.6055 20.7552 37.4399 21.1551 37.4399 21.572V22.013H36.2889V21.572C36.2889 21.1551 36.1233 20.7552 35.8285 20.4604C35.5337 20.1656 35.1338 20 34.7169 20C34.3 20 33.9001 20.1656 33.6053 20.4604C33.3105 20.7552 33.1449 21.1551 33.1449 21.572V22.013H31.9949V21.572C31.9949 21.1551 31.8293 20.7552 31.5345 20.4604C31.2397 20.1656 30.8398 20 30.4229 20C30.006 20 29.6061 20.1656 29.3113 20.4604C29.0165 20.7552 28.8509 21.1551 28.8509 21.572V22.013H27.6999V21.572C27.6999 21.1551 27.5343 20.7552 27.2395 20.4604C26.9447 20.1656 26.5448 20 26.1279 20C25.711 20 25.3111 20.1656 25.0163 20.4604C24.7215 20.7552 24.5559 21.1551 24.5559 21.572V22.013H22.5039C22.3713 22.013 22.2441 22.0657 22.1504 22.1594C22.0566 22.2532 22.0039 22.3804 22.0039 22.513V46.73C22.0044 46.8623 22.0573 46.9889 22.1511 47.0823C22.2448 47.1756 22.3716 47.228 22.5039 47.228ZM47.0259 21.572C47.0259 21.4194 47.0865 21.273 47.1945 21.1651C47.3024 21.0571 47.4488 20.9965 47.6014 20.9965C47.754 20.9965 47.9004 21.0571 48.0083 21.1651C48.1163 21.273 48.1769 21.4194 48.1769 21.572V23.451C48.1769 23.6036 48.1163 23.75 48.0083 23.8579C47.9004 23.9659 47.754 24.0265 47.6014 24.0265C47.4488 24.0265 47.3024 23.9659 47.1945 23.8579C47.0865 23.75 47.0259 23.6036 47.0259 23.451V21.572ZM42.7309 21.572C42.7309 21.4194 42.7915 21.273 42.8995 21.1651C43.0074 21.0571 43.1538 20.9965 43.3064 20.9965C43.459 20.9965 43.6054 21.0571 43.7133 21.1651C43.8213 21.273 43.8819 21.4194 43.8819 21.572V23.451C43.8819 23.6036 43.8213 23.75 43.7133 23.8579C43.6054 23.9659 43.459 24.0265 43.3064 24.0265C43.1538 24.0265 43.0074 23.9659 42.8995 23.8579C42.7915 23.75 42.7309 23.6036 42.7309 23.451V21.572ZM38.4359 21.572C38.4359 21.4194 38.4965 21.273 38.6045 21.1651C38.7124 21.0571 38.8588 20.9965 39.0114 20.9965C39.164 20.9965 39.3104 21.0571 39.4183 21.1651C39.5263 21.273 39.5869 21.4194 39.5869 21.572V23.451C39.5866 23.6034 39.526 23.7495 39.4182 23.8573C39.3104 23.9651 39.1643 24.0257 39.0119 24.026C38.8595 24.0257 38.7134 23.9651 38.6056 23.8573C38.4978 23.7495 38.4372 23.6034 38.4369 23.451L38.4359 21.572ZM34.1409 21.572C34.1409 21.4194 34.2015 21.273 34.3095 21.1651C34.4174 21.0571 34.5638 20.9965 34.7164 20.9965C34.869 20.9965 35.0154 21.0571 35.1233 21.1651C35.2313 21.273 35.2919 21.4194 35.2919 21.572V23.451C35.2916 23.6034 35.231 23.7495 35.1232 23.8573C35.0154 23.9651 34.8693 24.0257 34.7169 24.026C34.5645 24.0257 34.4184 23.9651 34.3106 23.8573C34.2028 23.7495 34.1422 23.6034 34.1419 23.451L34.1409 21.572ZM29.8439 21.572C29.8439 21.4194 29.9045 21.273 30.0125 21.1651C30.1204 21.0571 30.2668 20.9965 30.4194 20.9965C30.572 20.9965 30.7184 21.0571 30.8263 21.1651C30.9343 21.273 30.9949 21.4194 30.9949 21.572V23.451C30.9949 23.6036 30.9343 23.75 30.8263 23.8579C30.7184 23.9659 30.572 24.0265 30.4194 24.0265C30.2668 24.0265 30.1204 23.9659 30.0125 23.8579C29.9045 23.75 29.8439 23.6036 29.8439 23.451V21.572ZM25.5489 21.572C25.5489 21.4194 25.6095 21.273 25.7175 21.1651C25.8254 21.0571 25.9718 20.9965 26.1244 20.9965C26.277 20.9965 26.4234 21.0571 26.5313 21.1651C26.6393 21.273 26.6999 21.4194 26.6999 21.572V23.451C26.6999 23.6036 26.6393 23.75 26.5313 23.8579C26.4234 23.9659 26.277 24.0265 26.1244 24.0265C25.9718 24.0265 25.8254 23.9659 25.7175 23.8579C25.6095 23.75 25.5489 23.6036 25.5489 23.451V21.572ZM23.0029 23.01H24.5559V23.451C24.5559 23.8679 24.7215 24.2678 25.0163 24.5626C25.3111 24.8574 25.711 25.023 26.1279 25.023C26.5448 25.023 26.9447 24.8574 27.2395 24.5626C27.5343 24.2678 27.6999 23.8679 27.6999 23.451V23.01H28.8509V23.451C28.8509 23.8679 29.0165 24.2678 29.3113 24.5626C29.6061 24.8574 30.006 25.023 30.4229 25.023C30.8398 25.023 31.2397 24.8574 31.5345 24.5626C31.8293 24.2678 31.9949 23.8679 31.9949 23.451V23.01H33.1439V23.451C33.1439 23.8679 33.3095 24.2678 33.6043 24.5626C33.8991 24.8574 34.299 25.023 34.7159 25.023C35.1328 25.023 35.5327 24.8574 35.8275 24.5626C36.1223 24.2678 36.2879 23.8679 36.2879 23.451V23.01H37.4439V23.451C37.4439 23.8679 37.6095 24.2678 37.9043 24.5626C38.1991 24.8574 38.599 25.023 39.0159 25.023C39.4328 25.023 39.8327 24.8574 40.1275 24.5626C40.4223 24.2678 40.5879 23.8679 40.5879 23.451V23.01H41.7389V23.451C41.7389 23.8679 41.9045 24.2678 42.1993 24.5626C42.4941 24.8574 42.894 25.023 43.3109 25.023C43.7278 25.023 44.1277 24.8574 44.4225 24.5626C44.7173 24.2678 44.8829 23.8679 44.8829 23.451V23.01H46.0339V23.451C46.0339 23.8679 46.1995 24.2678 46.4943 24.5626C46.7891 24.8574 47.189 25.023 47.6059 25.023C48.0228 25.023 48.4227 24.8574 48.7175 24.5626C49.0123 24.2678 49.1779 23.8679 49.1779 23.451V23.01H50.7319V27.381H23.0029V23.01Z" fill="#151515"/>
<path d="M51.721 41.2011V35.0791C51.721 34.9465 51.6683 34.8193 51.5746 34.7256C51.4808 34.6318 51.3536 34.5791 51.221 34.5791C51.0884 34.5791 50.9612 34.6318 50.8674 34.7256C50.7737 34.8193 50.721 34.9465 50.721 35.0791V40.3431C49.5195 39.4776 48.0894 38.9856 46.6098 38.9287C45.1301 38.8718 43.6664 39.2525 42.402 40.0231L37.279 31.9741C37.2337 31.9037 37.1715 31.8458 37.098 31.8057C37.0246 31.7656 36.9422 31.7446 36.8585 31.7446C36.7748 31.7446 36.6924 31.7656 36.619 31.8057C36.5455 31.8458 36.4833 31.9037 36.438 31.9741L31.912 39.0931C31.8533 39.2042 31.8386 39.3333 31.8708 39.4547C31.903 39.5762 31.9797 39.681 32.0858 39.7485C32.1918 39.8159 32.3193 39.841 32.4429 39.8187C32.5665 39.7964 32.6772 39.7283 32.753 39.6281L36.858 33.1691L41.586 40.5981C40.7087 41.3041 40.0009 42.1979 39.5146 43.2135C39.0283 44.2292 38.7759 45.341 38.776 46.4671C38.776 46.4801 38.776 46.4921 38.776 46.5051H28.375L33.027 39.1961C33.0857 39.085 33.1004 38.9559 33.0682 38.8345C33.036 38.713 32.9592 38.6082 32.8532 38.5407C32.7472 38.4733 32.6197 38.4482 32.4961 38.4706C32.3725 38.4929 32.2618 38.5609 32.186 38.6611L27.047 46.7351C26.9996 46.8105 26.9732 46.8972 26.9706 46.9863C26.9679 47.0753 26.9891 47.1634 27.0319 47.2415C27.0748 47.3196 27.1377 47.3848 27.2142 47.4305C27.2906 47.4761 27.3779 47.5005 27.467 47.5011H38.851C39.0187 48.7162 39.4819 49.8716 40.2 50.8661H23V46.3961C23 46.2635 22.9473 46.1363 22.8536 46.0426C22.7598 45.9488 22.6326 45.8961 22.5 45.8961C22.3674 45.8961 22.2402 45.9488 22.1464 46.0426C22.0527 46.1363 22 46.2635 22 46.3961V51.3631C22 51.4957 22.0527 51.6229 22.1464 51.7167C22.2402 51.8104 22.3674 51.8631 22.5 51.8631H41.058C42.4773 53.251 44.3866 54.0232 46.3716 54.0122C48.3567 54.0012 50.2573 53.2078 51.6611 51.8042C53.0648 50.4005 53.8584 48.5 53.8696 46.515C53.8808 44.5299 53.1088 42.6205 51.721 41.2011ZM46.321 53.0141C45.0262 53.0135 43.7606 52.629 42.6843 51.9093C41.6079 51.1896 40.7691 50.1669 40.2739 48.9705C39.7786 47.7742 39.6492 46.4578 39.902 45.1879C40.1547 43.918 40.7783 42.7515 41.6939 41.836C42.6094 40.9204 43.7759 40.2968 45.0458 40.0441C46.3157 39.7913 47.6321 39.9207 48.8284 40.416C50.0248 40.9112 51.0475 41.75 51.7672 42.8264C52.4869 43.9027 52.8714 45.1683 52.872 46.4631C52.8712 48.1999 52.1812 49.8653 50.9535 51.0938C49.7258 52.3222 48.0608 53.0133 46.324 53.0151L46.321 53.0141Z" fill="#151515"/>
<path d="M46.3258 41.071C45.2578 41.071 44.2137 41.3877 43.3257 41.9811C42.4377 42.5745 41.7455 43.4178 41.3368 44.4045C40.9281 45.3913 40.8212 46.477 41.0295 47.5245C41.2379 48.572 41.7522 49.5342 42.5074 50.2894C43.2626 51.0446 44.2248 51.5589 45.2723 51.7673C46.3198 51.9756 47.4056 51.8687 48.3923 51.46C49.379 51.0513 50.2223 50.3591 50.8157 49.4711C51.4091 48.5831 51.7258 47.5391 51.7258 46.471C51.7258 45.0389 51.1569 43.6653 50.1442 42.6526C49.1315 41.64 47.7579 41.071 46.3258 41.071ZM46.3258 50.871C45.4555 50.871 44.6048 50.613 43.8813 50.1295C43.1577 49.646 42.5937 48.9588 42.2607 48.1548C41.9277 47.3509 41.8405 46.4662 42.0103 45.6126C42.1801 44.7591 42.5992 43.9751 43.2145 43.3598C43.8299 42.7444 44.6139 42.3254 45.4674 42.1556C46.3209 41.9858 47.2056 42.0729 48.0096 42.406C48.8136 42.739 49.5008 43.3029 49.9843 44.0265C50.4677 44.7501 50.7258 45.6008 50.7258 46.471C50.7237 47.6371 50.2593 48.7547 49.4345 49.5789C48.6097 50.4031 47.4918 50.8667 46.3258 50.868V50.871Z" fill="#151515"/>
<path d="M46.3197 44.2139C46.6156 44.2134 46.9086 44.2715 47.1819 44.385C47.4551 44.4985 47.7032 44.665 47.9117 44.8749C48.008 44.9471 48.1271 44.9822 48.2471 44.9737C48.3672 44.9651 48.4801 44.9136 48.5652 44.8285C48.6504 44.7434 48.7019 44.6304 48.7104 44.5104C48.719 44.3903 48.6839 44.2712 48.6117 44.1749C48.1573 43.7201 47.5782 43.4103 46.9477 43.2846C46.3172 43.1589 45.6635 43.2231 45.0695 43.469C44.4754 43.7149 43.9677 44.1315 43.6104 44.666C43.2532 45.2005 43.0625 45.829 43.0625 46.4719C43.0625 47.1148 43.2532 47.7433 43.6104 48.2779C43.9677 48.8124 44.4754 49.2289 45.0695 49.4748C45.6635 49.7207 46.3172 49.7849 46.9477 49.6592C47.5782 49.5336 48.1573 49.2237 48.6117 48.7689C48.669 48.7259 48.7164 48.6711 48.7507 48.6082C48.785 48.5453 48.8053 48.4758 48.8104 48.4044C48.8155 48.3329 48.8052 48.2612 48.7801 48.1941C48.7551 48.127 48.7159 48.066 48.6653 48.0154C48.6146 47.9647 48.5537 47.9255 48.4865 47.9005C48.4194 47.8754 48.3477 47.8651 48.2762 47.8702C48.2048 47.8753 48.1353 47.8956 48.0724 47.9299C48.0095 47.9642 47.9547 48.0116 47.9117 48.0689C47.6498 48.3312 47.3272 48.5248 46.9725 48.6326C46.6179 48.7404 46.2421 48.759 45.8785 48.6868C45.515 48.6145 45.1749 48.4538 44.8883 48.2186C44.6018 47.9835 44.3776 47.6813 44.2358 47.3388C44.094 46.9963 44.0389 46.6242 44.0754 46.2553C44.1119 45.8864 44.2388 45.5323 44.4449 45.2242C44.651 44.9161 44.9299 44.6636 45.257 44.4891C45.584 44.3147 45.949 44.2236 46.3197 44.2239V44.2139Z" fill="#151515"/>
<path d="M36.8711 42.609C37.0037 42.609 37.1309 42.5564 37.2246 42.4626C37.3184 42.3688 37.3711 42.2416 37.3711 42.109V36.936C37.3711 36.8034 37.3184 36.6763 37.2246 36.5825C37.1309 36.4887 37.0037 36.436 36.8711 36.436C36.7385 36.436 36.6113 36.4887 36.5175 36.5825C36.4238 36.6763 36.3711 36.8034 36.3711 36.936V42.109C36.3711 42.2416 36.4238 42.3688 36.5175 42.4626C36.6113 42.5564 36.7385 42.609 36.8711 42.609Z" fill="#151515"/>
</svg>
