<svg xmlns="http://www.w3.org/2000/svg" width="75" height="75" viewBox="0 0 75 75">
  <g id="Group_73879" data-name="Group 73879" transform="translate(0.232)">
    <circle id="Ellipse_38" data-name="Ellipse 38" cx="37.5" cy="37.5" r="37.5" transform="translate(-0.232)" fill="#c9f6ff"/>
    <g id="Group_74910" data-name="Group 74910" transform="translate(-19.152 -27.224)">
      <g id="calendar_1_" data-name="calendar (1)" transform="translate(38.5 46.804)">
        <path id="Path_24908" data-name="Path 24908" d="M33.658,36.66H4.682A3.437,3.437,0,0,1,1.25,33.227V6.683A3.437,3.437,0,0,1,4.682,3.25H33.658A3.437,3.437,0,0,1,37.09,6.683V33.227A3.437,3.437,0,0,1,33.658,36.66ZM4.682,5.072a1.612,1.612,0,0,0-1.61,1.611V33.227a1.612,1.612,0,0,0,1.61,1.611H33.658a1.612,1.612,0,0,0,1.61-1.611V6.683a1.612,1.612,0,0,0-1.61-1.611Z" transform="translate(-1.25 -0.82)" fill="#161717"/>
        <path id="Path_24909" data-name="Path 24909" d="M36.179,11.072H2.161a.911.911,0,0,1,0-1.822H36.179a.911.911,0,0,1,0,1.822Z" transform="translate(-1.25 0.469)" fill="#161717"/>
        <path id="Path_24910" data-name="Path 24910" d="M16.161,7.932a.911.911,0,0,1-.911-.911V2.161a.911.911,0,0,1,1.822,0v4.86A.911.911,0,0,1,16.161,7.932Z" transform="translate(1.759 -1.25)" fill="#161717"/>
        <path id="Path_24911" data-name="Path 24911" d="M6.161,7.932a.911.911,0,0,1-.911-.911V2.161a.911.911,0,0,1,1.822,0v4.86A.911.911,0,0,1,6.161,7.932Z" transform="translate(-0.39 -1.25)" fill="#161717"/>
        <path id="Path_24912" data-name="Path 24912" d="M26.161,7.932a.911.911,0,0,1-.911-.911V2.161a.911.911,0,1,1,1.822,0v4.86A.911.911,0,0,1,26.161,7.932Z" transform="translate(3.908 -1.25)" fill="#161717"/>
        <path id="Path_24913" data-name="Path 24913" d="M11.021,19.932H6.161a.911.911,0,0,1-.911-.911v-4.86a.911.911,0,0,1,.911-.911h4.86a.911.911,0,0,1,.911.911v4.86A.911.911,0,0,1,11.021,19.932ZM7.072,18.11H10.11V15.072H7.072Z" transform="translate(-0.39 1.329)" fill="#161717"/>
        <path id="Path_24914" data-name="Path 24914" d="M19.021,19.932h-4.86a.911.911,0,0,1-.911-.911v-4.86a.911.911,0,0,1,.911-.911h4.86a.911.911,0,0,1,.911.911v4.86A.911.911,0,0,1,19.021,19.932ZM15.072,18.11H18.11V15.072H15.072Z" transform="translate(1.329 1.329)" fill="#161717"/>
        <path id="Path_24915" data-name="Path 24915" d="M27.021,19.932h-4.86a.911.911,0,0,1-.911-.911v-4.86a.911.911,0,0,1,.911-.911h4.86a.911.911,0,0,1,.911.911v4.86A.911.911,0,0,1,27.021,19.932ZM23.072,18.11H26.11V15.072H23.072Z" transform="translate(3.049 1.329)" fill="#161717"/>
        <path id="Path_24916" data-name="Path 24916" d="M11.021,27.932H6.161a.911.911,0,0,1-.911-.911v-4.86a.911.911,0,0,1,.911-.911h4.86a.911.911,0,0,1,.911.911v4.86A.911.911,0,0,1,11.021,27.932ZM7.072,26.11H10.11V23.072H7.072Z" transform="translate(-0.39 3.049)" fill="#161717"/>
        <path id="Path_24917" data-name="Path 24917" d="M19.021,27.932h-4.86a.911.911,0,0,1-.911-.911v-4.86a.911.911,0,0,1,.911-.911h4.86a.911.911,0,0,1,.911.911v4.86A.911.911,0,0,1,19.021,27.932ZM15.072,26.11H18.11V23.072H15.072Z" transform="translate(1.329 3.049)" fill="#161717"/>
        <path id="Path_24918" data-name="Path 24918" d="M27.021,27.932h-4.86a.911.911,0,0,1-.911-.911v-4.86a.911.911,0,0,1,.911-.911h4.86a.911.911,0,0,1,.911.911v4.86A.911.911,0,0,1,27.021,27.932ZM23.072,26.11H26.11V23.072H23.072Z" transform="translate(3.049 3.049)" fill="#161717"/>
      </g>
    </g>
  </g>
</svg>
