<svg xmlns="http://www.w3.org/2000/svg" width="60" height="60" viewBox="0 0 60 60">
  <g id="Group_69247" data-name="Group 69247" transform="translate(-1470 -3020)">
    <circle id="Ellipse_635" data-name="Ellipse 635" cx="30" cy="30" r="30" transform="translate(1470 3020)" fill="#88f0d5"/>
    <g id="bulk_data_management" data-name="bulk data management" transform="translate(1450.168 3025)">
      <path id="Path_14048" data-name="Path 14048" d="M248.629,14.012a2.006,2.006,0,0,1,0,4.012H238.007a2.006,2.006,0,0,1,0-4.012,4.012,4.012,0,0,1,7.182-2.459A2.6,2.6,0,0,1,248.629,14.012Z" transform="translate(-187.805)" fill="none" stroke="#5a5a5a" stroke-linecap="round" stroke-linejoin="round" stroke-width="1" fill-rule="evenodd"/>
      <path id="Path_14049" data-name="Path 14049" d="M57.384,110.7v4.769a1.223,1.223,0,0,1-1.22,1.22,1.223,1.223,0,0,1,1.22,1.219v5.555a1.223,1.223,0,0,1-1.22,1.22,1.223,1.223,0,0,1,1.22,1.22v5.555a1.223,1.223,0,0,1-1.22,1.22H37.221a1.223,1.223,0,0,1-1.22-1.22V125.9a1.223,1.223,0,0,1,1.22-1.22,1.223,1.223,0,0,1-1.22-1.22v-5.555a1.223,1.223,0,0,1,1.22-1.219,1.223,1.223,0,0,1-1.22-1.22v-5.555a1.223,1.223,0,0,1,1.22-1.22H48.2" transform="translate(0 -92.675)" fill="none" stroke="#5a5a5a" stroke-linecap="round" stroke-linejoin="round" stroke-width="1" fill-rule="evenodd"/>
      <line id="Line_390" data-name="Line 390" x2="18.944" transform="translate(37.221 24.012)" fill="none" stroke="#5a5a5a" stroke-linecap="round" stroke-linejoin="round" stroke-width="1"/>
      <line id="Line_391" data-name="Line 391" x2="18.944" transform="translate(37.221 32.006)" fill="none" stroke="#5a5a5a" stroke-linecap="round" stroke-linejoin="round" stroke-width="1"/>
      <path id="Path_14050" data-name="Path 14050" d="M87.221,156.684a1.22,1.22,0,1,0-1.22-1.22A1.222,1.222,0,0,0,87.221,156.684Z" transform="translate(-46.951 -135.45)" fill="none" stroke="#5a5a5a" stroke-linecap="round" stroke-linejoin="round" stroke-width="1" fill-rule="evenodd"/>
      <path id="Path_14051" data-name="Path 14051" d="M87.221,287.787a1.22,1.22,0,1,0-1.22-1.22A1.222,1.222,0,0,0,87.221,287.787Z" transform="translate(-46.951 -258.559)" fill="none" stroke="#5a5a5a" stroke-linecap="round" stroke-linejoin="round" stroke-width="1" fill-rule="evenodd"/>
      <path id="Path_14052" data-name="Path 14052" d="M87.221,418.889A1.22,1.22,0,1,0,86,417.67,1.222,1.222,0,0,0,87.221,418.889Z" transform="translate(-46.951 -381.667)" fill="none" stroke="#5a5a5a" stroke-linecap="round" stroke-linejoin="round" stroke-width="1" fill-rule="evenodd"/>
      <line id="Line_392" data-name="Line 392" transform="translate(44.537 20.015)" fill="none" stroke="#5a5a5a" stroke-linecap="round" stroke-linejoin="round" stroke-width="1"/>
      <line id="Line_393" data-name="Line 393" transform="translate(47.586 20.015)" fill="none" stroke="#5a5a5a" stroke-linecap="round" stroke-linejoin="round" stroke-width="1"/>
      <line id="Line_394" data-name="Line 394" transform="translate(44.537 28.009)" fill="none" stroke="#5a5a5a" stroke-linecap="round" stroke-linejoin="round" stroke-width="1"/>
      <line id="Line_395" data-name="Line 395" transform="translate(47.586 28.009)" fill="none" stroke="#5a5a5a" stroke-linecap="round" stroke-linejoin="round" stroke-width="1"/>
      <line id="Line_396" data-name="Line 396" transform="translate(44.537 36.003)" fill="none" stroke="#5a5a5a" stroke-linecap="round" stroke-linejoin="round" stroke-width="1"/>
      <line id="Line_397" data-name="Line 397" x2="3.701" transform="translate(50.635 28.009)" fill="none" stroke="#5a5a5a" stroke-linecap="round" stroke-linejoin="round" stroke-width="1"/>
      <path id="Path_14053" data-name="Path 14053" d="M232.741,436.45h0m-2.744,0h-4.005" transform="translate(-178.406 -400.447)" fill="none" stroke="#5a5a5a" stroke-linecap="round" stroke-linejoin="round" stroke-width="1" fill-rule="evenodd"/>
    </g>
  </g>
</svg>
