<svg xmlns="http://www.w3.org/2000/svg" xmlns:xlink="http://www.w3.org/1999/xlink" width="60" height="60" viewBox="0 0 60 60">
  <defs>
    <clipPath id="clip-path">
      <path id="path1839" d="M0-682.665H30v30H0Z" transform="translate(0 682.665)"/>
    </clipPath>
  </defs>
  <g id="Group_69248" data-name="Group 69248" transform="translate(-370 -3260)">
    <circle id="Ellipse_635" data-name="Ellipse 635" cx="30" cy="30" r="30" transform="translate(370 3260)" fill="#8ae4f6"/>
    <g id="g1833" transform="translate(385 3957.665)">
      <g id="g1835" transform="translate(0 -682.665)">
        <g id="g1837" clip-path="url(#clip-path)">
          <g id="g1843" transform="translate(0.439 10.303)">
            <path id="path1845" d="M-204.37-102.184a4.7,4.7,0,0,1-4.7,4.7,4.7,4.7,0,0,1-4.7-4.7,4.7,4.7,0,0,1,4.7-4.7A4.7,4.7,0,0,1-204.37-102.184Z" transform="translate(213.763 106.881)" fill="none" stroke="#000" stroke-linecap="round" stroke-linejoin="round" stroke-width="1"/>
          </g>
          <g id="g1847" transform="translate(19.03 7.566)">
            <path id="path1849" d="M0,0A8.494,8.494,0,0,1,3.379,3.358" fill="none" stroke="#000" stroke-linecap="round" stroke-linejoin="round" stroke-width="1"/>
          </g>
          <g id="g1851" transform="translate(7.644 7.617)">
            <path id="path1853" d="M0-69.893a8.495,8.495,0,0,1,3.233-3.213" transform="translate(0 73.105)" fill="none" stroke="#000" stroke-linecap="round" stroke-linejoin="round" stroke-width="1"/>
          </g>
          <g id="g1855" transform="translate(7.602 19.096)">
            <path id="path1857" d="M-73.273-72.628a8.494,8.494,0,0,1-3.368-3.338" transform="translate(76.641 75.966)" fill="none" stroke="#000" stroke-linecap="round" stroke-linejoin="round" stroke-width="1"/>
          </g>
          <g id="g1859" transform="translate(19.123 19.014)">
            <path id="path1861" d="M-72.218,0a8.494,8.494,0,0,1-3.32,3.369" transform="translate(75.537)" fill="none" stroke="#000" stroke-linecap="round" stroke-linejoin="round" stroke-width="1"/>
          </g>
          <g id="g1863" transform="translate(20.167 10.303)">
            <path id="path1865" d="M-204.37-102.184a4.7,4.7,0,0,1-4.7,4.7,4.7,4.7,0,0,1-4.7-4.7,4.7,4.7,0,0,1,4.7-4.7A4.7,4.7,0,0,1-204.37-102.184Z" transform="translate(213.763 106.881)" fill="none" stroke="#000" stroke-linecap="round" stroke-linejoin="round" stroke-width="1"/>
          </g>
          <g id="g1867" transform="translate(13.826 3.31)">
            <path id="path1869" d="M0-62.091c0,.441.526.8,1.174.8s1.174-.358,1.174-.8c0-.571-.47-.8-1.174-1.027S0-63.575,0-64.146c0-.441.526-.8,1.174-.8s1.174.358,1.174.8" transform="translate(0 64.945)" fill="none" stroke="#000" stroke-linecap="round" stroke-linejoin="round" stroke-width="1"/>
          </g>
          <g id="g1871" transform="translate(15 2.788)">
            <path id="path1873" d="M0,0V.522" fill="none" stroke="#000" stroke-linecap="round" stroke-linejoin="round" stroke-width="1"/>
          </g>
          <g id="g1875" transform="translate(15 6.963)">
            <path id="path1877" d="M0,0V.522" fill="none" stroke="#000" stroke-linecap="round" stroke-linejoin="round" stroke-width="1"/>
          </g>
          <g id="g1879" transform="translate(3.727 13.121)">
            <path id="path1881" d="M-61.312-76.278a1.87,1.87,0,0,1-.939.251,1.879,1.879,0,0,1-1.879-1.879,1.879,1.879,0,0,1,1.879-1.879,1.87,1.87,0,0,1,.938.25" transform="translate(64.131 79.784)" fill="none" stroke="#000" stroke-linecap="round" stroke-linejoin="round" stroke-width="1"/>
          </g>
          <g id="g1883" transform="translate(2.788 15)">
            <path id="path1885" d="M0,0H2.818" fill="none" stroke="#000" stroke-linecap="round" stroke-linejoin="round" stroke-width="1"/>
          </g>
          <g id="g1887" transform="translate(13.591 22.985)">
            <path id="path1889" d="M0,0,1.409,1.879,2.818,0" fill="none" stroke="#000" stroke-linecap="round" stroke-linejoin="round" stroke-width="1"/>
          </g>
          <g id="g1891" transform="translate(15 24.864)">
            <path id="path1893" d="M0-51.093v-2.348" transform="translate(0 53.441)" fill="none" stroke="#000" stroke-linecap="round" stroke-linejoin="round" stroke-width="1"/>
          </g>
          <g id="g1895" transform="translate(14.061 25.803)">
            <path id="path1897" d="M0,0H1.879" fill="none" stroke="#000" stroke-linecap="round" stroke-linejoin="round" stroke-width="1"/>
          </g>
          <g id="g1899" transform="translate(23.924 12.652)">
            <path id="path1901" d="M-51.093-91.966h-2.348v-2.818a1.409,1.409,0,0,1,1.409-1.409,1.409,1.409,0,0,1,1.409,1.409" transform="translate(53.441 96.193)" fill="none" stroke="#000" stroke-linecap="round" stroke-linejoin="round" stroke-width="1"/>
          </g>
          <g id="g1903" transform="translate(22.985 15)">
            <path id="path1905" d="M0,0H2.348" fill="none" stroke="#000" stroke-linecap="round" stroke-linejoin="round" stroke-width="1"/>
          </g>
          <g id="g1907" transform="translate(10.303 0.439)">
            <path id="path1909" d="M-158.507-16.96a4.672,4.672,0,0,0-2.589-.78,4.7,4.7,0,0,0-4.7,4.7,4.7,4.7,0,0,0,4.7,4.7,4.7,4.7,0,0,0,4.7-4.7,4.673,4.673,0,0,0-.78-2.589" transform="translate(165.793 17.74)" fill="none" stroke="#000" stroke-linecap="round" stroke-linejoin="round" stroke-width="1"/>
          </g>
          <g id="g1911" transform="translate(10.303 20.167)">
            <path id="path1913" d="M-158.507-16.96a4.673,4.673,0,0,0-2.589-.78,4.7,4.7,0,0,0-4.7,4.7,4.7,4.7,0,0,0,4.7,4.7,4.7,4.7,0,0,0,4.7-4.7,4.673,4.673,0,0,0-.78-2.589" transform="translate(165.793 17.74)" fill="none" stroke="#000" stroke-linecap="round" stroke-linejoin="round" stroke-width="1"/>
          </g>
        </g>
      </g>
    </g>
  </g>
</svg>
