<svg xmlns="http://www.w3.org/2000/svg" width="60" height="60" viewBox="0 0 60 60">
  <g id="Group_72830" data-name="Group 72830" transform="translate(-200 -1798)">
    <g id="Group_2313" data-name="Group 2313" transform="translate(200 1798)">
      <path id="Path_9027" data-name="Path 9027" d="M30,0A30,30,0,1,1,0,30,30,30,0,0,1,30,0Z" fill="#eec9ff"/>
    </g>
    <g id="Group_72891" data-name="Group 72891" transform="translate(210.44 1734.403)">
      <path id="Path_23336" data-name="Path 23336" d="M197.248,89.883a4.861,4.861,0,1,0-4.861-4.861A4.866,4.866,0,0,0,197.248,89.883Zm0-8.575a3.715,3.715,0,1,1-3.715,3.715,3.719,3.719,0,0,1,3.715-3.715Z" transform="translate(-177.686 0)" fill="#343434"/>
      <path id="Path_23337" data-name="Path 23337" d="M150.5,225.936a2.293,2.293,0,0,0-1.639.19,7.33,7.33,0,0,1-6.87,0,2.294,2.294,0,0,0-1.639-.189,5.475,5.475,0,0,0-4.075,5.292v7.35A3.027,3.027,0,0,0,139.3,241.6h12.25a3.027,3.027,0,0,0,3.023-3.023v-7.35A5.475,5.475,0,0,0,150.5,225.936Zm2.929,12.643a1.879,1.879,0,0,1-1.877,1.877H139.3a1.879,1.879,0,0,1-1.877-1.877v-7.35a4.328,4.328,0,0,1,3.221-4.184,1.1,1.1,0,0,1,.281-.036,1.139,1.139,0,0,1,.53.13,8.477,8.477,0,0,0,7.941,0,1.135,1.135,0,0,1,.811-.094,4.328,4.328,0,0,1,3.221,4.184Z" transform="translate(-125.861 -134.569)" fill="#343434"/>
      <path id="Path_23338" data-name="Path 23338" d="M364.362,151.561a3.636,3.636,0,1,0-3.636-3.636A3.64,3.64,0,0,0,364.362,151.561Zm0-6.125a2.49,2.49,0,1,1-2.49,2.49,2.492,2.492,0,0,1,2.49-2.49Z" transform="translate(-333.162 -59.229)" fill="#343434"/>
      <path id="Path_23339" data-name="Path 23339" d="M397.489,257.321a2.8,2.8,0,0,0-1.544.137,5.473,5.473,0,0,1-2.525.338.573.573,0,1,0-.116,1.14,6.618,6.618,0,0,0,3.051-.408,1.654,1.654,0,0,1,.912-.082,4.33,4.33,0,0,1,3.485,4.239v3.063a1.266,1.266,0,0,1-1.264,1.264h-6.125a.573.573,0,0,0,0,1.146h6.125a2.413,2.413,0,0,0,2.411-2.411v-3.063A5.478,5.478,0,0,0,397.489,257.321Z" transform="translate(-362.776 -163.575)" fill="#343434"/>
      <path id="Path_23340" data-name="Path 23340" d="M59.748,151.561a3.636,3.636,0,1,0-3.636-3.636A3.64,3.64,0,0,0,59.748,151.561Zm0-6.125a2.49,2.49,0,1,1-2.49,2.49,2.492,2.492,0,0,1,2.49-2.49Z" transform="translate(-51.824 -59.229)" fill="#343434"/>
      <path id="Path_23341" data-name="Path 23341" d="M4.631,258.445a1.653,1.653,0,0,1,.912.082,6.619,6.619,0,0,0,3.051.408.573.573,0,0,0-.116-1.14,5.473,5.473,0,0,1-2.525-.338,2.8,2.8,0,0,0-1.543-.137A5.478,5.478,0,0,0,0,262.685v3.063a2.413,2.413,0,0,0,2.411,2.411H8.536a.573.573,0,1,0,0-1.146H2.411a1.266,1.266,0,0,1-1.264-1.264v-3.063A4.33,4.33,0,0,1,4.631,258.445Z" transform="translate(0 -163.575)" fill="#343434"/>
    </g>
  </g>
</svg>
