<svg xmlns="http://www.w3.org/2000/svg" width="60" height="60" viewBox="0 0 60 60">
  <g id="Group_72829" data-name="Group 72829" transform="translate(-666 -1798)">
    <g id="Group_2315" data-name="Group 2315" transform="translate(666 1798)">
      <circle id="Ellipse_3" data-name="Ellipse 3" cx="30" cy="30" r="30" fill="#87f1d5"/>
      <path id="Path_23334" data-name="Path 23334" d="M44.675,24.119H38.826V22.1a3.353,3.353,0,0,0-3.349-3.349H28.345A3.353,3.353,0,0,0,25,22.1v2.02H19.147a1.9,1.9,0,0,0-1.9,1.9V33.8a1.887,1.887,0,0,0,.925,1.624V45.1a2.038,2.038,0,0,0,2.035,2.035h23.4A2.038,2.038,0,0,0,45.647,45.1V35.421a1.882,1.882,0,0,0,.925-1.621V26.016a1.9,1.9,0,0,0-1.9-1.9ZM26.094,22.1a2.254,2.254,0,0,1,2.252-2.252h7.131A2.254,2.254,0,0,1,37.729,22.1v2.02h-1.1V22.1a1.155,1.155,0,0,0-1.154-1.154H28.345A1.155,1.155,0,0,0,27.191,22.1v2.02h-1.1Zm9.44,0v2.02H28.289V22.1a.059.059,0,0,1,.056-.056h7.131a.059.059,0,0,1,.056.056Zm9.016,23a.939.939,0,0,1-.938.938H20.21a.939.939,0,0,1-.938-.938V35.763l6.084,1.306a31.7,31.7,0,0,0,4.624.627v.761A1.519,1.519,0,0,0,31.5,39.975h1.4a1.519,1.519,0,0,0,1.518-1.518v-.8a31.109,31.109,0,0,0,4.174-.6l5.964-1.288ZM31.077,38.457V35.976a.421.421,0,0,1,.42-.42h1.4a.421.421,0,0,1,.42.42v2.481a.421.421,0,0,1-.42.42H31.5A.421.421,0,0,1,31.077,38.457Zm14.4-4.657a.791.791,0,0,1-.546.755l-.046.017a.211.211,0,0,1-.038.009l-6.492,1.4a30.065,30.065,0,0,1-3.942.581v-.587a.564.564,0,0,0-.011-.111,1.515,1.515,0,0,0-1.505-1.407H31.5a1.515,1.515,0,0,0-1.505,1.407.564.564,0,0,0-.011.111V36.6a30.66,30.66,0,0,1-4.395-.606l-6.616-1.42a.559.559,0,0,1-.076-.021.794.794,0,0,1-.547-.758V26.016a.8.8,0,0,1,.8-.8H44.675a.8.8,0,0,1,.8.8Z" transform="translate(-1.911 -2.941)" fill="#343434"/>
    </g>
  </g>
</svg>
