<svg xmlns="http://www.w3.org/2000/svg" width="60" height="60" viewBox="0 0 60 60">
  <g id="Group_2317" data-name="Group 2317" transform="translate(-262 -848)">
    <circle id="Ellipse_2" data-name="Ellipse 2" cx="30" cy="30" r="30" transform="translate(262 848)" fill="#f8d378"/>
    <g id="Group_72890" data-name="Group 72890" transform="translate(274.691 854.849)">
      <path id="Path_23335" data-name="Path 23335" d="M29.228,27.894a26.374,26.374,0,0,1-6.719-1.924,1.594,1.594,0,0,0-1.6.2l-1.521,1.163a.659.659,0,0,1-.6.128,11.76,11.76,0,0,1-5.739-5.792.689.689,0,0,1,.129-.619l1.152-1.534a1.618,1.618,0,0,0,.2-1.6,27.028,27.028,0,0,1-1.908-6.784,1.6,1.6,0,0,0-1.59-1.4H5.694a1.709,1.709,0,0,0-1.688,1.836c1.2,14.943,9.951,23.854,24.923,25.01a1.707,1.707,0,0,0,1.69-1.7v-5.38a1.6,1.6,0,0,0-1.391-1.6Zm.185,6.978a.493.493,0,0,1-.521.5C14.5,34.18,6.363,25.737,5.208,11.466a.493.493,0,0,1,.486-.532h5.331a.4.4,0,0,1,.394.342,28.305,28.305,0,0,0,1.995,7.109.409.409,0,0,1-.051.407L12.21,20.326c-1.587,1.7,2.226,5.452,2.338,5.609A12.916,12.916,0,0,0,18.39,28.6c1.212.485,2.351-.863,3.248-1.473a.387.387,0,0,1,.39-.051,27.654,27.654,0,0,0,7.049,2.014.4.4,0,0,1,.336.4Z" transform="translate(0)" fill="#343434"/>
    </g>
  </g>
</svg>
