<svg width="60" height="60" viewBox="0 0 60 60" fill="none" xmlns="http://www.w3.org/2000/svg">
<g clip-path="url(#clip0_1233_9127)">
<path d="M30 60C46.5685 60 60 46.5685 60 30C60 13.4315 46.5685 0 30 0C13.4315 0 0 13.4315 0 30C0 46.5685 13.4315 60 30 60Z" fill="#C9F6FF"/>
<g clip-path="url(#clip1_1233_9127)">
<path d="M34.3405 24.5414C31.4229 20.2491 27.5262 17.9678 25.4855 19.3656C25.2608 19.5239 25.0655 19.7202 24.9086 19.9458C24.9086 19.9623 20.1844 29.5228 20.1844 29.5228L17.547 31.3096C17.1422 31.5844 16.7954 31.9363 16.5266 32.3452C16.2577 32.7541 16.0721 33.2119 15.9803 33.6926C15.8884 34.1732 15.8922 34.6673 15.9913 35.1465C16.0904 35.6257 16.283 36.0806 16.558 36.4854L16.6767 36.6601C17.2326 37.4699 18.0853 38.0279 19.0499 38.213C20.0146 38.3982 21.0133 38.1956 21.8295 37.6491L26.0657 43.8898C26.6888 44.6579 27.8855 45.4228 29.3624 44.5228C29.6241 44.3531 29.8473 44.1305 30.0176 43.8693C30.188 43.6081 30.3017 43.3141 30.3514 43.0063C30.4111 42.7001 30.4095 42.3851 30.3467 42.0795C30.2839 41.774 30.1611 41.4839 29.9855 41.2261L26.2536 35.7206C26.2536 35.7206 35.0756 35.0184 35.1086 35.0052C35.384 34.9475 35.6452 34.8355 35.8767 34.6755C36.9251 33.9634 37.3009 32.47 36.9383 30.4689C36.6119 28.6261 35.6855 26.5392 34.3405 24.5414ZM17.6361 36.0107L17.5174 35.836C17.3276 35.5566 17.1948 35.2426 17.1266 34.9119C17.0584 34.5811 17.056 34.2402 17.1197 33.9086C17.1834 33.5769 17.3119 33.2611 17.4978 32.9792C17.6837 32.6973 17.9234 32.4548 18.2031 32.2656L20.4811 30.7162L23.4877 35.1436L21.2097 36.6931C20.9303 36.8831 20.6162 37.0161 20.2853 37.0847C19.9545 37.1532 19.6133 37.1559 19.2814 37.0925C18.9496 37.0291 18.6334 36.9009 18.3511 36.7153C18.0688 36.5297 17.8258 36.2903 17.6361 36.0107ZM29.0361 41.8755C29.2162 42.1436 29.2827 42.4722 29.2209 42.7893C29.1591 43.1063 28.9741 43.3859 28.7064 43.5667C28.4378 43.7471 28.1086 43.8136 27.791 43.7519C27.4735 43.6901 27.1933 43.505 27.0119 43.2371L22.7888 37.0162L24.4866 35.8623L24.935 35.8261L29.0361 41.8755ZM24.5789 34.6953L21.302 29.8689L24.4273 23.4964C24.7306 25.2865 25.6174 27.4129 27.035 29.4997C28.4525 31.5865 30.1009 33.1953 31.6503 34.1382L24.5789 34.6953ZM34.3042 33.9272C32.7284 33.825 30.1635 32.048 27.991 28.8469C25.8185 25.6458 25.113 22.6162 25.5976 21.1096C25.6851 20.8268 25.8598 20.5789 26.0966 20.4013C26.3334 20.2236 26.6203 20.1254 26.9163 20.1206C28.4789 20.1206 31.1394 21.9074 33.3745 25.2008C34.6339 27.0535 35.5503 28.992 35.8009 30.6865C36.2921 33.9272 34.3042 33.9272 34.3042 33.9272Z" fill="black"/>
<path d="M30.2219 24.6635C29.8181 24.5842 29.4025 24.5862 28.9995 24.6694C28.5964 24.7526 28.214 24.9154 27.8747 25.1481C27.8121 25.1914 27.7587 25.2466 27.7174 25.3105C27.6762 25.3745 27.648 25.4459 27.6344 25.5207C27.6207 25.5956 27.622 25.6724 27.6381 25.7467C27.6541 25.8211 27.6847 25.8916 27.7279 25.9541C27.7712 26.0167 27.8264 26.0701 27.8904 26.1114C27.9543 26.1526 28.0257 26.1808 28.1006 26.1944C28.1754 26.2081 28.2522 26.2068 28.3266 26.1907C28.401 26.1747 28.4714 26.1441 28.534 26.1008C28.7489 25.955 28.9905 25.8528 29.2449 25.8003C29.4994 25.7478 29.7616 25.7458 30.0168 25.7947C30.272 25.8435 30.515 25.9421 30.732 26.0849C30.9491 26.2276 31.1359 26.4117 31.2818 26.6267C31.4277 26.8416 31.5298 27.0832 31.5824 27.3376C31.6349 27.592 31.6368 27.8543 31.588 28.1095C31.5391 28.3646 31.4405 28.6077 31.2978 28.8247C31.155 29.0418 30.9709 29.2286 30.756 29.3745C30.6546 29.4445 30.5783 29.5451 30.5383 29.6615C30.4982 29.778 30.4964 29.9042 30.5333 30.0218C30.5701 30.1393 30.6436 30.242 30.743 30.3147C30.8424 30.3875 30.9625 30.4265 31.0856 30.4261C31.2032 30.4283 31.3184 30.3937 31.4153 30.3272C31.9281 29.9799 32.3262 29.4881 32.5593 28.9143C32.7923 28.3405 32.8498 27.7104 32.7245 27.1039C32.5992 26.4974 32.2967 25.9417 31.8553 25.5073C31.4138 25.0728 30.8534 24.7792 30.245 24.6635H30.2219Z" fill="black"/>
<path d="M35.0525 20.5287H35.1085C35.2512 20.5287 35.3888 20.4757 35.4948 20.3801C35.6007 20.2845 35.6675 20.1531 35.6822 20.0111L36.1272 15.6859C36.1373 15.6094 36.132 15.5316 36.1116 15.4573C36.0911 15.3829 36.056 15.3133 36.0082 15.2528C35.9604 15.1922 35.9009 15.1418 35.8333 15.1046C35.7658 15.0675 35.6914 15.0442 35.6146 15.0363C35.5379 15.0283 35.4603 15.0359 35.3866 15.0584C35.3128 15.081 35.2443 15.1181 35.1851 15.1676C35.1259 15.2171 35.0773 15.278 35.0421 15.3466C35.0068 15.4152 34.9857 15.4902 34.98 15.5672L34.5382 19.8958C34.5225 20.0479 34.5679 20.2 34.6643 20.3187C34.7608 20.4374 34.9004 20.5129 35.0525 20.5287Z" fill="black"/>
<path d="M42.5085 19.6384C42.4238 19.5107 42.292 19.4217 42.1419 19.3908C41.9918 19.3599 41.8356 19.3897 41.7074 19.4735L37.6887 22.1109C37.5844 22.1798 37.5052 22.2808 37.4632 22.3985C37.4212 22.5163 37.4186 22.6446 37.4558 22.7639C37.493 22.8833 37.568 22.9874 37.6694 23.0605C37.7709 23.1336 37.8934 23.1717 38.0184 23.1692C38.135 23.1718 38.2498 23.1397 38.3481 23.0768L42.3667 20.4395C42.4914 20.3518 42.5763 20.2183 42.6029 20.0682C42.6294 19.9181 42.5955 19.7636 42.5085 19.6384Z" fill="black"/>
<path d="M43.7375 26.6798L39.0628 25.8392C38.912 25.8121 38.7566 25.846 38.6308 25.9335C38.5049 26.021 38.419 26.1548 38.3919 26.3057C38.3648 26.4565 38.3987 26.6119 38.4862 26.7377C38.5737 26.8635 38.7076 26.9494 38.8584 26.9766L43.5298 27.8172H43.632C43.779 27.8215 43.9221 27.7695 44.0321 27.6718C44.142 27.5742 44.2105 27.4382 44.2235 27.2917C44.2366 27.1452 44.1932 26.9993 44.1023 26.8838C44.0113 26.7682 43.8797 26.6917 43.7342 26.67L43.7375 26.6798Z" fill="black"/>
</g>
</g>
<defs>
<clipPath id="clip0_1233_9127">
<rect width="60" height="60" fill="white"/>
</clipPath>
<clipPath id="clip1_1233_9127">
<rect width="30" height="30" fill="white" transform="translate(15 15)"/>
</clipPath>
</defs>
</svg>
