<?xml version="1.0" encoding="UTF-8" standalone="no"?>
<!-- Created with Inkscape (http://www.inkscape.org/) -->

<svg
   version="1.1"
   id="svg3783"
   fill='#fff'
   xml:space="preserve"
   width="682.66669"
   height="682.66669"
   viewBox="0 0 682.66669 682.66669"
   xmlns="http://www.w3.org/2000/svg"
   xmlns:svg="http://www.w3.org/2000/svg"><defs
     id="defs3787"><clipPath
       clipPathUnits="userSpaceOnUse"
       id="clipPath3805"><path
         d="M 0,512 H 512 V 0 H 0 Z"
         id="path3803" /></clipPath></defs><g
     id="g3789"
     transform="matrix(1.3333333,0,0,-1.3333333,0,682.66667)"><g
       id="g3791"
       transform="translate(72.6865,458.1943)"><path
         d="M 0,0 V -66.749"
         style="fill:none;stroke:#000000;stroke-width:15;stroke-linecap:round;stroke-linejoin:round;stroke-miterlimit:10;stroke-dasharray:none;stroke-opacity:1"
         id="path3793" /></g><g
       id="g3795"
       transform="translate(40.0938,460.9902)"><path
         d="M 0,0 V -58.887"
         style="fill:none;stroke:#000000;stroke-width:15;stroke-linecap:round;stroke-linejoin:round;stroke-miterlimit:10;stroke-dasharray:none;stroke-opacity:1"
         id="path3797" /></g><g
       id="g3799"><g
         id="g3801"
         clip-path="url(#clipPath3805)"><g
           id="g3807"
           transform="translate(7.5,460.9902)"><path
             d="M 0,0 V -58.887"
             style="fill:none;stroke:#000000;stroke-width:15;stroke-linecap:round;stroke-linejoin:round;stroke-miterlimit:10;stroke-dasharray:none;stroke-opacity:1"
             id="path3809" /></g><g
           id="g3811"
           transform="translate(366.3965,128.3799)"><path
             d="m 0,0 c -28.738,-23.889 -65.675,-38.255 -105.966,-38.255 -91.61,0 -165.875,74.265 -165.875,165.875 0,40.287 14.362,77.219 38.246,105.956"
             style="fill:none;stroke:#000000;stroke-width:15;stroke-linecap:round;stroke-linejoin:round;stroke-miterlimit:10;stroke-dasharray:none;stroke-opacity:1"
             id="path3813" /></g><g
           id="g3815"
           transform="translate(154.9902,384.0566)"><path
             d="m 0,0 c 28.663,23.627 65.395,37.818 105.44,37.818 91.61,0 165.874,-74.264 165.874,-165.875 0,-40.079 -14.214,-76.839 -37.877,-105.511"
             style="fill:none;stroke:#000000;stroke-width:15;stroke-linecap:round;stroke-linejoin:round;stroke-miterlimit:10;stroke-dasharray:none;stroke-opacity:1"
             id="path3817" /></g><g
           id="g3819"
           transform="translate(393.0469,256)"><path
             d="m 0,0 c 0,-73.242 -59.374,-132.617 -132.616,-132.617 -73.242,0 -132.617,59.375 -132.617,132.617 0,73.242 59.375,132.617 132.617,132.617 C -59.374,132.617 0,73.242 0,0 Z"
             style="fill:none;stroke:#000000;stroke-width:15;stroke-linecap:round;stroke-linejoin:round;stroke-miterlimit:10;stroke-dasharray:none;stroke-opacity:1"
             id="path3821" /></g><g
           id="g3823"
           transform="translate(504.0781,248.7256)"><path
             d="m 0,0 c 0.276,-141.594 0.422,-173.308 0.422,-173.308 0,-18.557 -8.481,-27.203 -20.215,-27.203 -11.734,0 -19.583,8.646 -19.583,27.203 0,16.252 11.868,93.981 11.868,137.731 V 0.134"
             style="fill:none;stroke:#000000;stroke-width:15;stroke-linecap:round;stroke-linejoin:round;stroke-miterlimit:10;stroke-dasharray:none;stroke-opacity:1"
             id="path3825" /></g><g
           id="g3827"
           transform="translate(504.0781,463.7852)"><path
             d="m 0,0 c 0.11,-56.697 0.2,-146.599 0.268,-214.428 l -27.776,-0.498 c -9.107,-1.177 -21.27,5.588 -21.27,13.423 v 115.292 c 0,35.307 18.513,68.028 48.777,86.211 z"
             style="fill:none;stroke:#000000;stroke-width:15;stroke-linecap:round;stroke-linejoin:round;stroke-miterlimit:10;stroke-dasharray:none;stroke-opacity:1"
             id="path3829" /></g><g
           id="g3831"
           transform="translate(7.5,402.1035)"><path
             d="m 0,0 v -38.372 c 0,-6.232 3.534,-13.634 8.902,-16.8 5.328,-3.143 9.591,-14.357 9.591,-20.298 v -56.352 c 0,-46.16 -0.439,-92.293 -5.408,-138.186 -2.966,-27.385 -4.711,-51.605 -4.711,-57.083 0,-13.94 10.279,-25.241 24.219,-25.241 13.94,0 24.22,11.301 24.22,25.241 0,5.478 -1.746,29.697 -4.71,57.081 -4.969,45.892 -5.41,92.024 -5.41,138.184 v 55.934 c 0,7.819 5.426,17.608 11.901,21.993 4.686,3.174 6.593,9.963 6.593,15.527 V 0 Z"
             style="fill:none;stroke:#000000;stroke-width:15;stroke-linecap:round;stroke-linejoin:round;stroke-miterlimit:10;stroke-dasharray:none;stroke-opacity:1"
             id="path3833" /></g><g
           id="g3835"
           transform="translate(25.9932,326.6338)"><path
             d="M 0,0 28.2,-0.422"
             style="fill:none;stroke:#000000;stroke-width:15;stroke-linecap:round;stroke-linejoin:round;stroke-miterlimit:10;stroke-dasharray:none;stroke-opacity:1"
             id="path3837" /></g></g></g></g></svg>
