<svg xmlns="http://www.w3.org/2000/svg" width="30" height="25.967" viewBox="0 0 30 25.967">
  <g id="backup" transform="translate(-655.393 -1099.027)">
    <g id="XMLID_164_" transform="translate(655.392 1099.028)">
      <g id="XMLID_292_" transform="translate(-34.833 -40.3)" fill="#5a5a5a">
        <path d="M 53.06666564941406 66.11666870117188 C 52.68348693847656 66.11666870117188 52.38333511352539 65.81652069091797 52.38333511352539 65.43334197998047 L 52.38333511352539 57.76667022705078 L 52.38333511352539 57.404541015625 L 52.12726593017578 57.66059875488281 L 51.06059646606445 58.72726821899414 L 51.05780410766602 58.73006057739258 L 51.05517578125 58.73299026489258 C 50.93889617919922 58.86219024658203 50.77576446533203 58.9333381652832 50.5958366394043 58.9333381652832 C 50.41288757324219 58.9333381652832 50.23894500732422 58.86016082763672 50.10605621337891 58.72726821899414 L 50.10327529907227 58.72447967529297 L 50.10034561157227 58.72185134887695 C 49.97584533691406 58.60979843139648 49.90477752685547 58.45283889770508 49.90022659301758 58.27988052368164 C 49.89531707763672 58.09329986572266 49.97034454345703 57.90845108032227 50.1060676574707 57.77273941040039 L 52.57273483276367 55.30607986450195 L 52.57552719116211 55.30329132080078 L 52.57816696166992 55.30035018920898 C 52.69443511962891 55.17115783691406 52.85756683349609 55.10000991821289 53.03749465942383 55.10000991821289 C 53.2204475402832 55.10000991821289 53.39438629150391 55.17319107055664 53.52726745605469 55.30607986450195 L 56.06203460693359 57.77413940429688 L 56.06414413452148 57.77618789672852 L 56.06632614135742 57.77816009521484 C 56.19082641601562 57.89020919799805 56.26189422607422 58.04716873168945 56.26644515991211 58.22011947631836 C 56.27135467529297 58.40670013427734 56.19632720947266 58.59154891967773 56.06060409545898 58.72727966308594 C 55.9313850402832 58.85649108886719 55.77443695068359 58.91666793823242 55.56667709350586 58.91666793823242 C 55.35890579223633 58.91666793823242 55.20195770263672 58.85649108886719 55.07274627685547 58.72726821899414 L 54.00607681274414 57.66059875488281 L 53.75000762939453 57.404541015625 L 53.75000762939453 57.76667022705078 L 53.75000762939453 65.43334197998047 C 53.75000762939453 65.81652069091797 53.44984436035156 66.11666870117188 53.06666564941406 66.11666870117188 Z" stroke="none"/>
        <path d="M 53.03749465942383 55.25 C 52.9006462097168 55.25 52.77710723876953 55.30352020263672 52.68965530395508 55.40068817138672 L 52.67879486083984 55.41213226318359 L 50.21212768554688 57.87879943847656 C 50.10537719726562 57.98554992675781 50.04634475708008 58.13031005859375 50.05017471313477 58.27593994140625 C 50.05362701416016 58.4073486328125 50.10708618164062 58.52610778808594 50.20068740844727 58.61034774780273 L 50.21212768554688 58.62120056152344 C 50.31668472290039 58.72575759887695 50.45295715332031 58.78334045410156 50.5958366394043 58.78334045410156 C 50.73268508911133 58.78334045410156 50.85621643066406 58.72982025146484 50.94368743896484 58.63264846801758 L 50.95453643798828 58.62120819091797 L 52.5333366394043 57.04241180419922 L 52.5333366394043 65.43333435058594 C 52.5333366394043 65.73239898681641 52.76760482788086 65.9666748046875 53.06666564941406 65.9666748046875 C 53.3657341003418 65.9666748046875 53.60000610351562 65.73239898681641 53.60000610351562 65.43333435058594 L 53.60000610351562 57.04241180419922 L 55.17880630493164 58.62120819091797 C 55.2794075012207 58.72180938720703 55.39902496337891 58.76667022705078 55.56667709350586 58.76667022705078 C 55.73431777954102 58.76667022705078 55.85393524169922 58.72180938720703 55.95453643798828 58.62120819091797 C 56.06129455566406 58.51445007324219 56.12032699584961 58.36969757080078 56.11649703979492 58.22406005859375 C 56.113037109375 58.09265899658203 56.05958557128906 57.97389984130859 55.96598434448242 57.8896598815918 L 55.9573974609375 57.88161087036133 L 53.42120742797852 55.41213226318359 C 53.31665420532227 55.30757904052734 53.18038558959961 55.25 53.03749465942383 55.25 M 53.03749847412109 54.95000457763672 C 53.25 54.95000457763672 53.46666717529297 55.03333282470703 53.63333511352539 55.19999694824219 L 56.16667556762695 57.66666793823242 C 56.50000762939453 57.96667098999023 56.50000762939453 58.5 56.16667556762695 58.83333969116211 C 56.00000762939453 59 55.80000686645508 59.06666946411133 55.56667709350586 59.06666946411133 C 55.33333587646484 59.06666946411133 55.13333511352539 59 54.9666748046875 58.83333969116211 L 53.90000534057617 57.76667022705078 L 53.90000534057617 65.43333435058594 C 53.90000534057617 65.89999389648438 53.5333366394043 66.26667022705078 53.06666564941406 66.26667022705078 C 52.60000610351562 66.26667022705078 52.23333740234375 65.89999389648438 52.23333740234375 65.43333435058594 L 52.23333740234375 57.76667022705078 L 51.16666412353516 58.83333969116211 C 50.86666870117188 59.16666030883789 50.33333206176758 59.16666793823242 49.99999618530273 58.83333969116211 C 49.66666412353516 58.53334045410156 49.66666412353516 58 49.99999618530273 57.66666793823242 L 52.46666717529297 55.19999694824219 C 52.61666488647461 55.03333282470703 52.82499694824219 54.95000457763672 53.03749847412109 54.95000457763672 Z" stroke="none" fill="#fff"/>
      </g>
      <g id="XMLID_293_" transform="translate(-21.9 -40.333)" fill="#5a5a5a">
        <path d="M 33.66666412353516 66.15000152587891 C 33.45889282226562 66.15000152587891 33.30194473266602 66.08982086181641 33.17273330688477 65.96060180664062 L 30.70606422424316 63.49393081665039 L 30.70327377319336 63.49114227294922 L 30.70034408569336 63.48851013183594 C 30.57584381103516 63.37646102905273 30.50477409362793 63.21950149536133 30.50022506713867 63.04654312133789 C 30.49531364440918 62.85996246337891 30.57034492492676 62.67510986328125 30.70606422424316 62.53940200805664 L 30.70885467529297 62.5366096496582 L 30.71148490905762 62.5336799621582 C 30.8277645111084 62.40447998046875 30.99089431762695 62.33333206176758 31.17083358764648 62.33333206176758 C 31.35378456115723 62.33333206176758 31.52771377563477 62.40651321411133 31.66059494018555 62.53940200805664 L 32.72726440429688 63.60607147216797 L 32.98333358764648 63.86213302612305 L 32.98333358764648 63.5 L 32.98333358764648 55.83333206176758 C 32.98333358764648 55.45015335083008 33.28348541259766 55.14999008178711 33.66666412353516 55.14999008178711 C 34.04984283447266 55.14999008178711 34.35000228881836 55.45015335083008 34.35000228881836 55.83333206176758 L 34.35000228881836 63.5 L 34.35000228881836 63.86213302612305 L 34.60607528686523 63.60607147216797 L 35.67273330688477 62.53940200805664 C 35.80561447143555 62.40651321411133 35.97955322265625 62.33333206176758 36.16250228881836 62.33333206176758 C 36.34243392944336 62.33333206176758 36.50556564331055 62.40447998046875 36.62184524536133 62.5336799621582 L 36.62712478637695 62.53954315185547 L 36.63298416137695 62.54482269287109 C 36.75748443603516 62.65688323974609 36.82855224609375 62.8138427734375 36.83310317993164 62.98680114746094 C 36.83800506591797 63.17337036132812 36.76298522949219 63.35822296142578 36.62726593017578 63.49393081665039 L 34.16059494018555 65.96060180664062 C 34.0313835144043 66.08982086181641 33.87443542480469 66.15000152587891 33.66666412353516 66.15000152587891 Z" stroke="none"/>
        <path d="M 33.66666412353516 66 C 33.83431243896484 66 33.95393371582031 65.95513916015625 34.05453491210938 65.85453796386719 L 36.52120590209961 63.38787078857422 C 36.62795257568359 63.28112030029297 36.68698501586914 63.13637161254883 36.68315505981445 62.99074172973633 C 36.67970275878906 62.85933303833008 36.62624359130859 62.74056243896484 36.53264236450195 62.65631103515625 L 36.51035308837891 62.6340217590332 C 36.42288589477539 62.53684997558594 36.29935455322266 62.48332977294922 36.16250228881836 62.48332977294922 C 36.01962280273438 62.48332977294922 35.88335418701172 62.54091262817383 35.77879333496094 62.64546203613281 L 34.20000457763672 64.22427368164062 L 34.20000457763672 55.83333206176758 C 34.20000457763672 55.53425979614258 33.96573257446289 55.29999160766602 33.66666412353516 55.29999160766602 C 33.36760330200195 55.29999160766602 33.13333511352539 55.53425979614258 33.13333511352539 55.83333206176758 L 33.13333511352539 64.22425842285156 L 31.55453491210938 62.64546203613281 C 31.44998359680176 62.54091262817383 31.3137149810791 62.48332977294922 31.17083358764648 62.48332977294922 C 31.03397369384766 62.48332977294922 30.91044425964355 62.53684997558594 30.82297325134277 62.6340217590332 L 30.81212425231934 62.64546203613281 C 30.70537376403809 62.75221252441406 30.64634323120117 62.89697265625 30.65017318725586 63.0426025390625 C 30.65362358093262 63.17401123046875 30.70708465576172 63.29277038574219 30.80068397521973 63.37701034545898 L 30.81212425231934 63.38787078857422 L 33.27879333496094 65.85453796386719 C 33.37939453125 65.95513916015625 33.49901580810547 66 33.66666412353516 66 M 33.66666412353516 66.30000305175781 C 33.43332290649414 66.30000305175781 33.23333358764648 66.23334503173828 33.06666564941406 66.06667327880859 L 30.59999465942383 63.60000228881836 C 30.26666450500488 63.30000305175781 30.26666450500488 62.76666259765625 30.59999465942383 62.43333053588867 C 30.89999389648438 62.10000228881836 31.4333324432373 62.10000228881836 31.76666450500488 62.43333053588867 L 32.83333587646484 63.5 L 32.83333587646484 55.83333206176758 C 32.83333587646484 55.36666107177734 33.19999313354492 54.99999237060547 33.66666412353516 54.99999237060547 C 34.13333511352539 54.99999237060547 34.50000381469727 55.36666107177734 34.50000381469727 55.83333206176758 L 34.50000381469727 63.5 L 35.56666564941406 62.43333053588867 C 35.90000152587891 62.10000610351562 36.4333381652832 62.10000610351562 36.73333358764648 62.43333053588867 C 37.06666564941406 62.73334121704102 37.06666564941406 63.26667022705078 36.73333358764648 63.60000228881836 L 34.26666259765625 66.06667327880859 C 34.09999465942383 66.23334503173828 33.90000534057617 66.30000305175781 33.66666412353516 66.30000305175781 Z" stroke="none" fill="#fff"/>
      </g>
      <g id="XMLID_294_" transform="translate(-5 -11)" fill="#5a5a5a">
        <path d="M 29.63334846496582 29.08333778381348 L 28.70000839233398 29.08333778381348 C 28.31682777404785 29.08333778381348 28.01667785644531 28.78318786621094 28.01667785644531 28.40000915527344 C 28.01667785644531 28.0168285369873 28.31682777404785 27.7166690826416 28.70000839233398 27.7166690826416 L 29.63334846496582 27.7166690826416 C 31.75624847412109 27.7166690826416 33.48334884643555 25.98956871032715 33.48334884643555 23.86666870117188 C 33.48334884643555 21.90188789367676 32.00844955444336 20.26202774047852 30.05198860168457 20.0511360168457 C 29.8750171661377 20.02511787414551 29.70450210571289 19.92383766174316 29.58380699157715 19.77296829223633 C 29.47257804870605 19.63391876220703 29.4219970703125 19.44011878967285 29.4484977722168 19.25454902648926 C 29.48407745361328 18.97016906738281 29.51667785644531 18.66789817810059 29.51667785644531 18.36666870117188 C 29.51667785644531 16.81117820739746 28.90621757507324 15.34407901763916 27.79773712158203 14.23560905456543 C 26.68926811218262 13.12712860107422 25.22216796875 12.51666831970215 23.66667747497559 12.51666831970215 C 21.39907836914062 12.51666831970215 19.31752777099609 13.85939884185791 18.36368751525879 15.93741893768311 L 18.36256790161133 15.93984889984131 L 18.36154747009277 15.94230842590332 C 18.25637817382812 16.1947078704834 18.01714706420898 16.3577995300293 17.75208854675293 16.3577995300293 C 17.68285751342773 16.3577995300293 17.6140079498291 16.34654808044434 17.54743766784668 16.32436943054199 C 17.13397789001465 16.18654823303223 16.68063735961914 16.11666870117188 16.20000839233398 16.11666870117188 C 14.09365749359131 16.11666870117188 12.23847770690918 17.53291893005371 11.68856716156006 19.56073951721191 C 11.61471748352051 19.85599899291992 11.34536743164062 20.06020927429199 11.03280735015869 20.06020927429199 C 10.99733448028564 20.06020927429199 10.96135330200195 20.0575122833252 10.92581558227539 20.05219268798828 C 10.74584865570068 20.01667213439941 10.57002544403076 20.01666831970215 10.36666774749756 20.01666831970215 C 8.243767738342285 20.01666831970215 6.51666784286499 21.7437686920166 6.51666784286499 23.86666870117188 C 6.51666784286499 25.98956871032715 8.243767738342285 27.7166690826416 10.36666774749756 27.7166690826416 L 11.29999732971191 27.7166690826416 C 11.68317794799805 27.7166690826416 11.98333740234375 28.0168285369873 11.98333740234375 28.40000915527344 C 11.98333740234375 28.78318786621094 11.68317794799805 29.08333778381348 11.29999732971191 29.08333778381348 L 10.36666774749756 29.08333778381348 C 7.490187644958496 29.08333778381348 5.149997711181641 26.74314880371094 5.149997711181641 23.86666870117188 C 5.149997711181641 20.99018859863281 7.475237846374512 18.64999961853027 10.33333778381348 18.64999961853027 L 10.43333721160889 18.64999961853027 L 10.53489780426025 18.64999961853027 L 10.57260799407959 18.55570793151855 C 11.02159786224365 17.43322944641113 11.78785800933838 16.47997856140137 12.78855800628662 15.7990083694458 C 13.79703807830811 15.11273860931396 14.97669792175293 14.74999904632568 16.20000839233398 14.74999904632568 C 16.55599784851074 14.74999904632568 16.91706848144531 14.78282833099365 17.27317810058594 14.84757900238037 L 17.37741851806641 14.86652851104736 L 17.43012809753418 14.77462863922119 C 18.71239852905273 12.53887844085693 21.10209846496582 11.14999866485596 23.66667747497559 11.14999866485596 C 27.64596748352051 11.14999866485596 30.88334846496582 14.38737869262695 30.88334846496582 18.36666870117188 L 30.88334846496582 18.69999885559082 L 30.88334846496582 18.81588935852051 L 30.99548721313477 18.84513854980469 C 33.26497650146484 19.43717956542969 34.85001754760742 21.50210952758789 34.85001754760742 23.86666870117188 C 34.85001754760742 26.74314880371094 32.50982666015625 29.08333778381348 29.63334846496582 29.08333778381348 Z" stroke="none"/>
        <path d="M 23.66667747497559 11.29999923706055 C 21.15569686889648 11.29999923706055 18.81584739685059 12.65998840332031 17.56024742126465 14.8492488861084 L 17.4548168182373 15.0330696105957 L 17.246337890625 14.99515914916992 C 16.89905738830566 14.9320182800293 16.54702758789062 14.89999961853027 16.20000839233398 14.89999961853027 C 15.00691795349121 14.89999961853027 13.85644721984863 15.25375938415527 12.87294769287109 15.92301940917969 C 11.89702796936035 16.58713912963867 11.14973831176758 17.51676940917969 10.71187782287598 18.61141777038574 L 10.63644790649414 18.79999923706055 L 10.33333778381348 18.79999923706055 C 7.557949066162109 18.79999923706055 5.299999237060547 21.07289886474609 5.299999237060547 23.86666870117188 C 5.299999237060547 26.66043853759766 7.572898864746094 28.9333381652832 10.36666679382324 28.9333381652832 L 11.30000686645508 28.9333381652832 C 11.59906768798828 28.9333381652832 11.83333778381348 28.69906997680664 11.83333778381348 28.39999771118164 C 11.83333778381348 28.10093879699707 11.59906768798828 27.86666870117188 11.30000686645508 27.86666870117188 L 10.36666679382324 27.86666870117188 C 8.16105842590332 27.86666870117188 6.366668701171875 26.07227897644043 6.366668701171875 23.86666870117188 C 6.366668701171875 21.66105842590332 8.16105842590332 19.86666870117188 10.36666679382324 19.86666870117188 C 10.57656669616699 19.86666870117188 10.75819778442383 19.86666679382324 10.95111274719238 19.90430450439453 C 10.9782886505127 19.90822410583496 11.00574684143066 19.91020774841309 11.03279685974121 19.91020774841309 C 11.27640724182129 19.91020774841309 11.48591804504395 19.75272941589355 11.54229736328125 19.5272388458252 L 11.54379844665527 19.5214786529541 C 12.11138725280762 17.42845916748047 14.02609825134277 15.9666690826416 16.20000839233398 15.9666690826416 C 16.69678688049316 15.9666690826416 17.16608810424805 16.03913879394531 17.59486770629883 16.18205833435059 C 17.6461067199707 16.19913864135742 17.69900703430176 16.20779800415039 17.75208854675293 16.20779800415039 C 17.95640754699707 16.20779800415039 18.14127731323242 16.0809383392334 18.22308731079102 15.88460922241211 L 18.22735786437988 15.87484931945801 C 19.20558738708496 13.74370956420898 21.34064674377441 12.36666870117188 23.66667747497559 12.36666870117188 C 26.9750862121582 12.36666870117188 29.66667747497559 15.05825805664062 29.66667747497559 18.36666870117188 C 29.66667747497559 18.67610931396484 29.63351821899414 18.98396873474121 29.59768676757812 19.27055931091309 L 29.59699630737305 19.27575874328613 C 29.57622718811035 19.42110824584961 29.61508750915527 19.57194900512695 29.70093727111816 19.67926788330078 C 29.79763603210449 19.80013656616211 29.93245887756348 19.88126182556152 30.07144546508789 19.90237045288086 C 32.10260391235352 20.12299728393555 33.63334655761719 21.82620239257812 33.63334655761719 23.86666870117188 C 33.63334655761719 26.07227897644043 31.83895874023438 27.86666870117188 29.63334655761719 27.86666870117188 L 28.70000839233398 27.86666870117188 C 28.40094757080078 27.86666870117188 28.16667747497559 28.10093879699707 28.16667747497559 28.39999771118164 C 28.16667747497559 28.69906997680664 28.40094757080078 28.9333381652832 28.70000839233398 28.9333381652832 L 29.63334655761719 28.9333381652832 C 32.42711639404297 28.9333381652832 34.70001602172852 26.66043853759766 34.70001602172852 23.86666870117188 C 34.70001602172852 21.57034873962402 33.16108703613281 19.56509780883789 30.95761871337891 18.99028778076172 L 30.73334884643555 18.93177795410156 L 30.73334884643555 18.36666870117188 C 30.73334884643555 14.47008895874023 27.56325721740723 11.29999923706055 23.66667747497559 11.29999923706055 M 23.66667747497559 10.99999809265137 C 27.73333740234375 10.99999809265137 31.03334808349609 14.29999923706055 31.03334808349609 18.36666870117188 C 31.03334808349609 18.4666690826416 31.03334808349609 18.59999847412109 31.03334808349609 18.69999885559082 C 33.33334732055664 19.29999923706055 35.00001907348633 21.39999961853027 35.00001907348633 23.86666870117188 C 35.00001907348633 26.83333969116211 32.60001754760742 29.23333740234375 29.63334655761719 29.23333740234375 L 28.70000839233398 29.23333740234375 C 28.23333740234375 29.23333740234375 27.86667633056641 28.86667823791504 27.86667633056641 28.39999771118164 C 27.86667633056641 27.9333381652832 28.23333740234375 27.56666946411133 28.70000839233398 27.56666946411133 L 29.63334655761719 27.56666946411133 C 31.66667747497559 27.56666946411133 33.33334732055664 25.90000915527344 33.33334732055664 23.86666870117188 C 33.33334732055664 21.9666690826416 31.9000072479248 20.39999961853027 30.03334808349609 20.19999885559082 C 29.80000686645508 20.16666793823242 29.60000801086426 20.03333854675293 29.46667861938477 19.86666870117188 C 29.33334732055664 19.69999885559082 29.26667785644531 19.4666690826416 29.30000686645508 19.23333930969238 C 29.33334732055664 18.9666690826416 29.36667633056641 18.66666793823242 29.36667633056641 18.36666870117188 C 29.36667633056641 15.23332786560059 26.80000686645508 12.66666793823242 23.66667747497559 12.66666793823242 C 21.46667671203613 12.66666793823242 19.4333381652832 13.9666690826416 18.50000762939453 15.99999809265137 C 18.33333778381348 16.39999961853027 17.9000072479248 16.5999927520752 17.50000762939453 16.4666690826416 C 17.10000801086426 16.33333778381348 16.66666793823242 16.26666831970215 16.20000839233398 16.26666831970215 C 14.16666793823242 16.26666831970215 12.36666679382324 17.63333892822266 11.83333778381348 19.59999847412109 C 11.73333740234375 19.99999809265137 11.33331871032715 20.26665306091309 10.89999771118164 20.19999885559082 C 10.73333740234375 20.16666793823242 10.5666675567627 20.16666793823242 10.36666679382324 20.16666793823242 C 8.333337783813477 20.16666793823242 6.666667938232422 21.83333778381348 6.666667938232422 23.86666870117188 C 6.666667938232422 25.90000915527344 8.333337783813477 27.56666946411133 10.36666679382324 27.56666946411133 L 11.30000686645508 27.56666946411133 C 11.76666831970215 27.56666946411133 12.13333702087402 27.9333381652832 12.13333702087402 28.39999771118164 C 12.13333702087402 28.86667823791504 11.76666831970215 29.23333740234375 11.30000686645508 29.23333740234375 L 10.36666679382324 29.23333740234375 C 7.399997711181641 29.23333740234375 4.999996185302734 26.83333969116211 4.999996185302734 23.86666870117188 C 4.999996185302734 20.89999961853027 7.399997711181641 18.49999809265137 10.33333778381348 18.49999809265137 C 10.36666679382324 18.49999809265137 10.4000072479248 18.49999809265137 10.4333381652832 18.49999809265137 C 11.36666679382324 16.16666793823242 13.63333702087402 14.59999847412109 16.20000839233398 14.59999847412109 C 16.5666675567627 14.59999847412109 16.9333381652832 14.63332939147949 17.30000686645508 14.69999885559082 C 18.60000801086426 12.43332862854004 21.03333854675293 10.99999809265137 23.66667747497559 10.99999809265137 Z" stroke="none" fill="#fff"/>
      </g>
    </g>
  </g>
</svg>
