<svg xmlns="http://www.w3.org/2000/svg" width="30" height="30" viewBox="0 0 30 30">
  <g id="business_optimization" data-name="business optimization" transform="translate(-0.801 -1.1)">
    <path id="Path_24901" data-name="Path 24901" d="M30.8,14.131v3.891a.5.5,0,0,1-.421.469l-3.276.469h-.047a.5.5,0,0,1-.468-.422.465.465,0,0,1,.421-.516l2.855-.375V14.6l-3.323-.469c-.187-.047-.374-.187-.374-.375a9.57,9.57,0,0,0-1.357-3.281.6.6,0,0,1,0-.562l2.012-2.672L24.669,5.084,22,7.1a.425.425,0,0,1-.562,0,10.554,10.554,0,0,0-3.276-1.359.508.508,0,0,1-.374-.375l-.468-3.328H14.279l-.468,3.328c-.047.188-.187.375-.374.375A10.554,10.554,0,0,0,10.16,7.1a.506.506,0,0,1-.515,0L6.978,5.084,4.825,7.241,6.837,9.913a.427.427,0,0,1,.047.516,10.589,10.589,0,0,0-1.357,3.281.508.508,0,0,1-.374.375l-3.323.469V17.6l3.323.469c.187.047.374.188.374.375a10.589,10.589,0,0,0,1.357,3.281.508.508,0,0,1,0,.516L4.872,24.913l2.153,2.156,2.668-2.016a.367.367,0,0,1,.515,0,10.606,10.606,0,0,0,3,1.313.9.9,0,0,1,.655.8l.421,3h3.042L17.7,27.3a.5.5,0,0,1,.468-.422h.047a.5.5,0,0,1,.421.516l-.468,3.281a.5.5,0,0,1-.468.422H13.811a.5.5,0,0,1-.468-.422l-.468-3.422a12.605,12.605,0,0,1-2.949-1.219L7.165,28.1a.437.437,0,0,1-.608-.047L3.842,25.334a.492.492,0,0,1-.047-.609l2.059-2.766a11.569,11.569,0,0,1-1.217-2.953l-3.417-.469A.5.5,0,0,1,.8,18.069V14.178a.5.5,0,0,1,.421-.469l3.417-.469a13.906,13.906,0,0,1,1.217-3L3.8,7.475a.439.439,0,0,1,.047-.609L6.557,4.147A.44.44,0,0,1,7.165,4.1L9.926,6.163a10.072,10.072,0,0,1,2.949-1.219l.468-3.422a.5.5,0,0,1,.468-.422H17.7a.5.5,0,0,1,.468.422l.468,3.422a11.84,11.84,0,0,1,3,1.219L24.388,4.1A.437.437,0,0,1,25,4.147l2.761,2.719a.442.442,0,0,1,.047.609l-2.059,2.766a9.868,9.868,0,0,1,1.217,3l3.417.469c.281-.047.421.187.421.422Z" fill="#5a5a5a"/>
    <path id="Path_24902" data-name="Path 24902" d="M37.016,32.487c-.374-.375-2.9-2.719-5.616-5.016a8.552,8.552,0,0,0,.655-3.281A8.336,8.336,0,0,0,23.724,15.8h-.047A8.4,8.4,0,0,0,15.3,24.144a8.51,8.51,0,0,0,2.9,6.375,8.284,8.284,0,0,0,5.429,2.016,13.2,13.2,0,0,0,1.357-.094,8.257,8.257,0,0,0,2.621-.891c2.153,2.531,4.4,5.016,4.821,5.438a3.133,3.133,0,0,0,4.493,0,3.068,3.068,0,0,0,.094-4.5ZM24.941,31.5a7.5,7.5,0,0,1-6.084-1.734l2.34-4.547,3.183.891a.519.519,0,0,0,.515-.187L27.7,21.519l.328,1.266a.46.46,0,1,0,.889-.234l-.562-2.344a.444.444,0,0,0-.562-.328l-2.34.563a.46.46,0,0,0,.234.891L26.954,21,24.38,25.081l-3.229-.938a.537.537,0,0,0-.562.234L18.2,28.972A7.364,7.364,0,0,1,16.33,24,7.456,7.456,0,0,1,23.771,16.6,7.509,7.509,0,0,1,24.941,31.5Zm11.42,4.828a2.229,2.229,0,0,1-3.183,0c-.328-.328-2.48-2.672-4.633-5.25a8.112,8.112,0,0,0,2.48-2.719c2.574,2.2,5.008,4.453,5.382,4.828a2.224,2.224,0,0,1-.047,3.141Z" transform="translate(-7.714 -7.809)" fill="#5a5a5a"/>
  </g>
</svg>
