<svg xmlns="http://www.w3.org/2000/svg" width="95.154" height="95.154" viewBox="0 0 95.154 95.154">
  <path id="Path_23294" data-name="Path 23294" d="M49.577,2A47.577,47.577,0,1,0,97.154,49.577,47.577,47.577,0,0,0,49.577,2Zm-19.34,8.932,2.58,1.791a4.178,4.178,0,0,1,1.345,1.553l.649,1.3a4.146,4.146,0,0,0,3.711,2.295h4.613a4.15,4.15,0,0,1,4.15,4.15V22.1A4.144,4.144,0,0,1,44.99,25.81L33.924,31.346a3.813,3.813,0,0,0-.448.257L27.813,35.38a4.176,4.176,0,0,0-1.412,1.6l-.841,1.691a4.109,4.109,0,0,0,0,3.709,4.154,4.154,0,0,1-.781,4.792l-.123.125a4.148,4.148,0,0,1-5.069.623l-7.238-4.347a4.157,4.157,0,0,1-1.8-2.247l-1.78-5.342c-.082,0-.141-.026-.216-.028A43.319,43.319,0,0,1,30.237,10.932Zm23.84,54.05a2.794,2.794,0,0,1-.143.885l-1.914,5.74a2.788,2.788,0,0,1-.675,1.094l-3.46,3.46a2.788,2.788,0,0,0-.766,1.432l-1.832,9.152a2.8,2.8,0,0,1-1.494,1.946l-1.5.753a2.811,2.811,0,0,1-3.233-.526l-2.781-2.781a2.857,2.857,0,0,1-.526-.729l-1.767-3.534a2.826,2.826,0,0,1-.294-1.252V71.7a2.811,2.811,0,0,0-1.548-2.506l-2.318-1.157a2.79,2.79,0,0,1-1.081-.952L25.1,61.61a2.8,2.8,0,0,1-.471-1.553V58.111a2.811,2.811,0,0,1,1.548-2.5l2.147-1.081a2.785,2.785,0,0,0,1.252-1.252l1.081-2.147a2.811,2.811,0,0,1,2.5-1.548h3.906a2.8,2.8,0,0,1,1.981.82l.625.625a2.811,2.811,0,0,0,1.981.822h.58a2.811,2.811,0,0,1,2.8,2.811,2.811,2.811,0,0,0,1.546,2.5l5.969,2.982a2.811,2.811,0,0,1,1.546,2.506Zm11.4-41.109a3.858,3.858,0,0,1,.833-1.25l3.873-3.871a3.873,3.873,0,0,1,1-.72L75.243,16a3.791,3.791,0,0,1,1.125-.335A43.375,43.375,0,0,1,87.717,29.186H85.8a3.847,3.847,0,0,1-2.719-1.125l-.467-.467A3.849,3.849,0,0,0,79.9,26.468H76.964a3.839,3.839,0,0,0-1.73.407l-3.81,1.907a3.843,3.843,0,0,1-1.73.4h-.686a3.845,3.845,0,0,1-3.551-5.314Zm16.3,54.508-.281-.69a4.555,4.555,0,0,1-.231-1.434V71.264a4.542,4.542,0,0,0-.478-2.026l-3.577-7.15a4.541,4.541,0,0,1-.478-2.026V59.4a4.531,4.531,0,0,0-6.555-4.053l-1.551.776A4.541,4.541,0,0,1,66.6,56.6h-.2a4.541,4.541,0,0,1-4.3-3.1l-1-3a4.541,4.541,0,0,1-.234-1.434V45.431a4.529,4.529,0,0,1,2.018-3.77l4.126-2.75a4.509,4.509,0,0,1,1.414-.625l7.02-1.756a4.542,4.542,0,0,1,2.535.1l4.844,1.615a4.561,4.561,0,0,0,1.436.234h7.07a42.8,42.8,0,0,1-9.559,39.9Z" transform="translate(-2 -2)" fill="#fff"/>
</svg>
