<svg xmlns="http://www.w3.org/2000/svg" width="37.52" height="37.52" viewBox="0 0 37.52 37.52">
  <g id="g2-crowd-vector-logo-2022" transform="translate(-71.4 -71.4)">
    <path id="Path_23454" data-name="Path 23454" d="M108.92,90.16A18.76,18.76,0,1,1,90.16,71.4a18.757,18.757,0,0,1,18.76,18.76" fill="#ff492c"/>
    <path id="Path_23455" data-name="Path 23455" d="M199.747,186.346H194.9v-.225a3.825,3.825,0,0,1,.5-2.041,4.14,4.14,0,0,1,1.726-1.433l.375-.188c.668-.338.84-.63.84-.976,0-.413-.36-.713-.938-.713a1.688,1.688,0,0,0-1.568,1.088l-.93-.93a2.517,2.517,0,0,1,.968-1.058,2.7,2.7,0,0,1,1.463-.413,2.758,2.758,0,0,1,1.718.533,1.738,1.738,0,0,1,.728,1.478c0,1-.563,1.606-1.613,2.146l-.593.3c-.63.315-.938.6-1.028,1.1h3.2Zm-.428,1.531h-5.305l-2.649,4.592h5.305l2.656,4.592,2.649-4.592Zm-7.5,7.661a6.123,6.123,0,1,1,0-12.246l2.1-4.39a10.722,10.722,0,1,0,4.21,19.18l-2.326-4.022a6.106,6.106,0,0,1-3.985,1.478" transform="translate(-101.468 -99.248)" fill="#fff"/>
  </g>
</svg>
