<svg xmlns="http://www.w3.org/2000/svg" width="60" height="56.816" viewBox="0 0 60 56.816">
  <g id="cutlery" transform="translate(0 -13.586)">
    <g id="Group_73376" data-name="Group 73376" transform="translate(40.307 16.724)">
      <g id="Group_73375" data-name="Group 73375" transform="translate(0 0)">
        <path id="Path_23387" data-name="Path 23387" d="M356.961,40.679a1.078,1.078,0,0,0-1.524,0L344.266,51.85a1.077,1.077,0,0,0,1.524,1.524L356.961,42.2A1.078,1.078,0,0,0,356.961,40.679Z" transform="translate(-343.95 -40.364)"/>
      </g>
    </g>
    <g id="Group_73378" data-name="Group 73378" transform="translate(43.345 19.714)">
      <g id="Group_73377" data-name="Group 73377" transform="translate(0 0)">
        <path id="Path_23388" data-name="Path 23388" d="M382.887,66.195a1.078,1.078,0,0,0-1.524,0L370.192,77.366a1.077,1.077,0,0,0,1.524,1.524l11.171-11.171A1.077,1.077,0,0,0,382.887,66.195Z" transform="translate(-369.876 -65.879)"/>
      </g>
    </g>
    <g id="Group_73380" data-name="Group 73380" transform="translate(3.182 23.187)">
      <g id="Group_73379" data-name="Group 73379">
        <path id="Path_23389" data-name="Path 23389" d="M69.787,111.222,83.655,97.354a1.077,1.077,0,0,0-1.524-1.524L68.263,109.7a5.721,5.721,0,0,1-6.5,1.116,1.077,1.077,0,0,0-1.27.257l-4.712,5.309-.006.006-.005.006L35.4,139.337l-.015.018c-.067.079-.131.148-.195.212a3.448,3.448,0,1,1-4.876-4.878c.063-.063.132-.126.211-.194l.018-.015,12.732-11.3a1.077,1.077,0,0,0-1.43-1.612L29.125,132.861c-.122.1-.231.2-.332.306a5.6,5.6,0,0,0,7.924,7.925c.1-.1.2-.212.307-.333l15.519-17.485,15.52,17.485c.1.121.2.23.306.332a5.6,5.6,0,0,0,7.925-7.924c-.1-.1-.212-.2-.333-.306L58.1,117.01l3.494-3.937A7.883,7.883,0,0,0,69.787,111.222Zm4.751,23.258.018.015c.079.067.148.131.212.195a3.448,3.448,0,1,1-4.877,4.876c-.064-.064-.127-.133-.194-.212l-.015-.018-15.7-17.686,2.688-3.029Z" transform="translate(-27.152 -95.515)"/>
      </g>
    </g>
    <g id="Group_73382" data-name="Group 73382" transform="translate(0 13.586)">
      <g id="Group_73381" data-name="Group 73381" transform="translate(0)">
        <path id="Path_23390" data-name="Path 23390" d="M50.084,13.9a1.078,1.078,0,0,0-1.524,0L34.692,27.77a7.882,7.882,0,0,0-1.852,8.191l-4.267,3.788-4.1-3.64A10.837,10.837,0,0,0,22.453,23.5a24.53,24.53,0,0,0-10.9-6.622C7.7,15.912,4.4,16.559,2.261,18.7S-.53,24.146.439,27.995a24.529,24.529,0,0,0,6.622,10.9,10.836,10.836,0,0,0,12.605,2.018l4.062,4.576a1.078,1.078,0,0,0,1.521.09l9.594-8.515a1.078,1.078,0,0,0,.257-1.27,5.72,5.72,0,0,1,1.116-6.5L50.084,15.425A1.077,1.077,0,0,0,50.084,13.9ZM24.625,43.252,20.7,38.834a1.077,1.077,0,0,0-1.371-.2A8.693,8.693,0,0,1,8.585,37.371a22.368,22.368,0,0,1-6.056-9.9c-.776-3.084-.33-5.656,1.256-7.243s4.158-2.032,7.242-1.256a22.366,22.366,0,0,1,9.9,6.056A8.692,8.692,0,0,1,22.19,35.773a1.078,1.078,0,0,0,.2,1.371l4.557,4.045Z" transform="translate(0 -13.586)"/>
      </g>
    </g>
  </g>
</svg>
