<svg xmlns="http://www.w3.org/2000/svg" width="46.844" height="56.625" viewBox="0 0 46.844 56.625">
  <g id="edc" transform="translate(-5.697 0.125)">
    <path id="Path_23412" data-name="Path 23412" d="M11.18,56.5H46.889a5.646,5.646,0,0,0,5.652-5.652V30.639a3.253,3.253,0,0,0-3.254-3.254H44.149V15.139A5.646,5.646,0,0,0,38.5,9.487H32.246V.838a.868.868,0,0,0-1.37-.685l-2.655,1.97L25.481.068a.781.781,0,0,0-1.028,0l-2.74,2.055L18.973.068A.845.845,0,0,0,17.6.753V9.4H11.351A5.646,5.646,0,0,0,5.7,15.054V50.763A5.474,5.474,0,0,0,11.18,56.5ZM49.373,29.1a1.535,1.535,0,0,1,1.541,1.541v20.3a3.929,3.929,0,0,1-3.939,3.939h-2.74V29.1ZM22.141,3.921l2.74-2.055,2.74,2.055a.781.781,0,0,0,1.028,0l1.97-1.37V14.283H19.23V2.551l1.884,1.37a1.092,1.092,0,0,0,1.028,0ZM7.327,15.139A3.929,3.929,0,0,1,11.266,11.2h6.251v3.083H15.976a.856.856,0,0,0,0,1.713h17.9a.856.856,0,0,0,0-1.713H32.332V11.2h6.251a3.929,3.929,0,0,1,3.939,3.939V54.787H11.18a3.929,3.929,0,0,1-3.939-3.939V15.139Z" transform="translate(0 0)"/>
    <path id="Path_23413" data-name="Path 23413" d="M16.156,29.907h20.3a.809.809,0,0,0,.856-.856V23.056a.809.809,0,0,0-.856-.856h-20.3a.809.809,0,0,0-.856.856v5.994A.809.809,0,0,0,16.156,29.907ZM17.013,24H35.6V28.28H17.013Z" transform="translate(-1.38 -3.207)"/>
    <path id="Path_23414" data-name="Path 23414" d="M16.156,37.913h1.284a.856.856,0,1,0,0-1.713H16.156a.856.856,0,1,0,0,1.713Z" transform="translate(-1.38 -5.219)"/>
    <path id="Path_23415" data-name="Path 23415" d="M24.841,36.2H23.556a.856.856,0,1,0,0,1.713h1.285a.809.809,0,0,0,.856-.856A.858.858,0,0,0,24.841,36.2Z" transform="translate(-2.443 -5.219)"/>
    <path id="Path_23416" data-name="Path 23416" d="M32.241,36.2H30.956a.856.856,0,1,0,0,1.713h1.284a.809.809,0,0,0,.856-.856A.858.858,0,0,0,32.241,36.2Z" transform="translate(-3.506 -5.219)"/>
    <path id="Path_23417" data-name="Path 23417" d="M39.641,36.2H38.356a.856.856,0,0,0,0,1.713h1.285a.809.809,0,0,0,.856-.856A.858.858,0,0,0,39.641,36.2Z" transform="translate(-4.569 -5.219)"/>
    <path id="Path_23418" data-name="Path 23418" d="M16.156,44.813h1.284a.856.856,0,1,0,0-1.713H16.156a.856.856,0,1,0,0,1.713Z" transform="translate(-1.38 -6.21)"/>
    <path id="Path_23419" data-name="Path 23419" d="M24.841,43.1H23.556a.856.856,0,1,0,0,1.713h1.285a.809.809,0,0,0,.856-.856A.858.858,0,0,0,24.841,43.1Z" transform="translate(-2.443 -6.21)"/>
    <path id="Path_23420" data-name="Path 23420" d="M32.241,43.1H30.956a.856.856,0,1,0,0,1.713h1.284a.809.809,0,0,0,.856-.856A.858.858,0,0,0,32.241,43.1Z" transform="translate(-3.506 -6.21)"/>
    <path id="Path_23421" data-name="Path 23421" d="M39.641,43.1H38.356a.856.856,0,0,0,0,1.713h1.285a.809.809,0,0,0,.856-.856A.858.858,0,0,0,39.641,43.1Z" transform="translate(-4.569 -6.21)"/>
    <path id="Path_23422" data-name="Path 23422" d="M16.156,51.813h1.284a.856.856,0,1,0,0-1.713H16.156a.856.856,0,1,0,0,1.713Z" transform="translate(-1.38 -7.216)"/>
    <path id="Path_23423" data-name="Path 23423" d="M24.841,50.1H23.556a.856.856,0,1,0,0,1.713h1.285a.809.809,0,0,0,.856-.856A.858.858,0,0,0,24.841,50.1Z" transform="translate(-2.443 -7.216)"/>
    <path id="Path_23424" data-name="Path 23424" d="M32.241,50.1H30.956a.856.856,0,1,0,0,1.713h1.284a.809.809,0,0,0,.856-.856A.858.858,0,0,0,32.241,50.1Z" transform="translate(-3.506 -7.216)"/>
    <path id="Path_23425" data-name="Path 23425" d="M39.641,50.1H38.356a.856.856,0,0,0,0,1.713h1.285a.809.809,0,0,0,.856-.856A.858.858,0,0,0,39.641,50.1Z" transform="translate(-4.569 -7.216)"/>
    <path id="Path_23426" data-name="Path 23426" d="M16.156,58.713h1.284a.856.856,0,0,0,0-1.713H16.156a.856.856,0,0,0,0,1.713Z" transform="translate(-1.38 -8.207)"/>
    <path id="Path_23427" data-name="Path 23427" d="M24.841,57H23.556a.856.856,0,0,0,0,1.713h1.285a.809.809,0,0,0,.856-.856A.858.858,0,0,0,24.841,57Z" transform="translate(-2.443 -8.207)"/>
    <path id="Path_23428" data-name="Path 23428" d="M32.241,57H30.956a.856.856,0,0,0,0,1.713h1.284a.809.809,0,0,0,.856-.856A.858.858,0,0,0,32.241,57Z" transform="translate(-3.506 -8.207)"/>
    <path id="Path_23429" data-name="Path 23429" d="M39.641,57H38.356a.856.856,0,0,0,0,1.713h1.285a.809.809,0,0,0,.856-.856A.858.858,0,0,0,39.641,57Z" transform="translate(-4.569 -8.207)"/>
    <path id="Path_23430" data-name="Path 23430" d="M54.556,55.926a.809.809,0,0,0,.856-.856V38.456a.856.856,0,1,0-1.713,0V55.069A.809.809,0,0,0,54.556,55.926Z" transform="translate(-6.896 -5.42)"/>
  </g>
</svg>
