<svg xmlns="http://www.w3.org/2000/svg" width="46" height="46" viewBox="0 0 46 46">
  <g id="Group_72708" data-name="Group 72708" transform="translate(-1510 -3765)">
    <g id="Ellipse_690" data-name="Ellipse 690" transform="translate(1510 3765)" fill="#214f98" stroke="#fff" stroke-width="1">
      <circle cx="23" cy="23" r="23" stroke="none"/>
      <circle cx="23" cy="23" r="22.5" fill="none"/>
    </g>
    <g id="electronics" transform="translate(1520.016 3775.016)">
      <path id="Path_23213" data-name="Path 23213" d="M267.685,0H256.433A.433.433,0,0,0,256,.433V24.669a.433.433,0,0,0,.433.433h.433v.866h.866V25.1h8.656v.866h.866V25.1h.433a.433.433,0,0,0,.433-.433V.433A.433.433,0,0,0,267.685,0Zm-.433,24.237H256.866V9.089h10.387Zm0-16.013H256.866V.866h10.387Zm0,0" transform="translate(-242.15)" fill="#fff"/>
      <path id="Path_23214" data-name="Path 23214" d="M296,56h.866v4.328H296Zm0,0" transform="translate(-279.987 -52.97)" fill="#fff"/>
      <path id="Path_23215" data-name="Path 23215" d="M296,184h.866v6.059H296Zm0,0" transform="translate(-279.987 -174.046)" fill="#fff"/>
      <path id="Path_23216" data-name="Path 23216" d="M.433,184.013H.866v.866h.866v-.866h9.522v.866h.866v-.866h.433a.433.433,0,0,0,.433-.433V168.433a.433.433,0,0,0-.433-.433H.433a.433.433,0,0,0-.433.433v15.148A.433.433,0,0,0,.433,184.013Zm.433-15.148H12.118v2.6H.866Zm0,3.462H12.118v10.82H.866Zm0,0" transform="translate(0 -158.911)" fill="#fff"/>
      <path id="Path_23217" data-name="Path 23217" d="M36.761,256a4.761,4.761,0,1,0,4.761,4.761A4.761,4.761,0,0,0,36.761,256Zm0,8.656a3.9,3.9,0,1,1,2.428-6.936l-.615.617a3.036,3.036,0,1,0-.007,4.843l.622.622A3.871,3.871,0,0,1,36.761,264.656Zm.992-2.291.2.2a2.164,2.164,0,1,1,0-3.6l-.2.2a.433.433,0,0,0-.127.306v2.6A.433.433,0,0,0,37.753,262.365Zm2.048.822-1.309-1.307v-2.238l1.309-1.309a3.877,3.877,0,0,1,0,4.857Zm0,0" transform="translate(-30.269 -242.15)" fill="#fff"/>
      <path id="Path_23218" data-name="Path 23218" d="M32,200h.866v.866H32Zm0,0" transform="translate(-30.269 -189.18)" fill="#fff"/>
      <path id="Path_23219" data-name="Path 23219" d="M64,200h.866v.866H64Zm0,0" transform="translate(-60.538 -189.18)" fill="#fff"/>
      <path id="Path_23220" data-name="Path 23220" d="M96,200h.866v.866H96Zm0,0" transform="translate(-90.806 -189.18)" fill="#fff"/>
      <path id="Path_23221" data-name="Path 23221" d="M160,200h2.6v.866H160Zm0,0" transform="translate(-151.344 -189.18)" fill="#fff"/>
      <path id="Path_23222" data-name="Path 23222" d="M.433,8.223H12.551a.433.433,0,0,0,.433-.433V.433A.433.433,0,0,0,12.551,0H.433A.433.433,0,0,0,0,.433V7.79A.433.433,0,0,0,.433,8.223ZM9.522.866h2.6V7.358h-2.6ZM.866.866h7.79V7.358H.866Zm0,0" fill="#fff"/>
      <path id="Path_23223" data-name="Path 23223" d="M192,32h.866v.866H192Zm0,0" transform="translate(-181.613 -30.269)" fill="#fff"/>
      <path id="Path_23224" data-name="Path 23224" d="M192,64h.866v.866H192Zm0,0" transform="translate(-181.613 -60.538)" fill="#fff"/>
      <path id="Path_23225" data-name="Path 23225" d="M37.626,32H32.433a.433.433,0,0,0-.433.433v3.9a.433.433,0,0,0,.433.433h5.194a.433.433,0,0,0,.433-.433v-3.9A.433.433,0,0,0,37.626,32Zm-.433,3.9H32.866v-3.03h4.328Zm0,0" transform="translate(-30.269 -30.269)" fill="#fff"/>
      <path id="Path_23226" data-name="Path 23226" d="M188.649,100a.649.649,0,1,0,.649.649A.649.649,0,0,0,188.649,100Zm0,.866a.216.216,0,1,1,.216-.216A.216.216,0,0,1,188.649,100.866Zm0,0" transform="translate(-177.829 -94.59)" fill="#fff"/>
    </g>
  </g>
</svg>
