<svg xmlns="http://www.w3.org/2000/svg" width="46" height="46" viewBox="0 0 46 46">
  <g id="Group_72707" data-name="Group 72707" transform="translate(-1510 -3837)">
    <g id="Ellipse_690" data-name="Ellipse 690" transform="translate(1510 3837)" fill="#214f98" stroke="#fff" stroke-width="1">
      <circle cx="23" cy="23" r="23" stroke="none"/>
      <circle cx="23" cy="23" r="22.5" fill="none"/>
    </g>
    <g id="smartphone" transform="translate(1494.501 3843.564)">
      <path id="Path_23228" data-name="Path 23228" d="M34.839,94.041a.45.45,0,0,1-.08-.007.444.444,0,0,1-.357-.516c.874-4.784-1.043-7.586-1.062-7.614a.444.444,0,0,1-.008-.5,7.38,7.38,0,0,0,.5-3.065,5.186,5.186,0,0,0-.392-2.623,1.174,1.174,0,0,0-1.1-.119.816.816,0,0,0-.511.658,16.236,16.236,0,0,1-.663,2.279,25.1,25.1,0,0,0-.911,3.15,19.731,19.731,0,0,0-.3,3.577.444.444,0,0,1-.113.306L28.1,91.516a.444.444,0,1,1-.662-.591l1.624-1.818a20.456,20.456,0,0,1,.315-3.582,25.734,25.734,0,0,1,.942-3.27,16.3,16.3,0,0,0,.627-2.132A1.706,1.706,0,0,1,32,78.78,2.064,2.064,0,0,1,33.962,79c1.05.759.909,5.111.251,6.627a11.8,11.8,0,0,1,1.062,8.05A.444.444,0,0,1,34.839,94.041Z" transform="translate(0 -67.669)" fill="#fff"/>
      <path id="Path_23229" data-name="Path 23229" d="M84.636,208.118a.444.444,0,0,1-.32-.752l1.514-1.572a.443.443,0,0,1,.4-.128,5.787,5.787,0,0,0,3.213-.427c1.533-.766,2.316-1.329,2.623-2.457a.444.444,0,1,1,.857.233c-.392,1.436-1.386,2.168-3.083,3.017a6.52,6.52,0,0,1-3.53.541l-1.356,1.409A.442.442,0,0,1,84.636,208.118Z" transform="translate(-50.555 -177.758)" fill="#fff"/>
      <path id="Path_23230" data-name="Path 23230" d="M195.9,144.923a.444.444,0,0,1-.03-.887l1.222-.084a.825.825,0,0,0-.135-1.645l-.776.061a.444.444,0,1,1-.07-.885l.776-.061a1.713,1.713,0,1,1,.27,3.415l-1.227.084Z" transform="translate(-149.474 -123.493)" fill="#fff"/>
      <path id="Path_23231" data-name="Path 23231" d="M195.919,122.1a.444.444,0,0,1-.026-.887l1.022-.061a.825.825,0,1,0-.139-1.644l-.776.061a.444.444,0,1,1-.07-.885l.776-.061a1.713,1.713,0,1,1,.27,3.415l-1.031.062Z" transform="translate(-149.491 -103.224)" fill="#fff"/>
      <path id="Path_23232" data-name="Path 23232" d="M195.953,99.3a.444.444,0,0,1-.035-.886l.776-.061a.825.825,0,0,0-.13-1.645l-.622.049a.444.444,0,0,1-.07-.885l.622-.049a1.713,1.713,0,1,1,.27,3.415l-.776.061Z" transform="translate(-149.479 -82.954)" fill="#fff"/>
      <path id="Path_23233" data-name="Path 23233" d="M195.835,56.527a.444.444,0,0,1-.263-.8l2.318-1.7a.825.825,0,1,0-1.037-1.283l-.725.638a.444.444,0,1,1-.587-.666l.732-.645.014-.012a1.713,1.713,0,1,1,2.153,2.665l-.016.013L196.1,56.441A.442.442,0,0,1,195.835,56.527Z" transform="translate(-149.406 -43.708)" fill="#fff"/>
      <path id="Path_23234" data-name="Path 23234" d="M93.941,21.484a.444.444,0,0,1-.444-.444V4.465A1.179,1.179,0,0,0,92.232,3.4h-9.31a1.18,1.18,0,0,0-1.265,1.066v7.226a.444.444,0,1,1-.888,0V4.465a2.063,2.063,0,0,1,2.153-1.954h9.31a2.063,2.063,0,0,1,2.152,1.954V21.04A.444.444,0,0,1,93.941,21.484Z" transform="translate(-47.513 0)" fill="#fff"/>
      <path id="Path_23235" data-name="Path 23235" d="M103.639,169.256H94.044a.444.444,0,1,1,0-.888h9.595A1.179,1.179,0,0,0,104.9,167.3V164.63a.444.444,0,0,1,.888,0V167.3A2.063,2.063,0,0,1,103.639,169.256Z" transform="translate(-58.919 -143.735)" fill="#fff"/>
      <path id="Path_23236" data-name="Path 23236" d="M94.13,24.95H81.506a.444.444,0,0,1,0-.888H94.13a.444.444,0,0,1,0,.888Z" transform="translate(-47.772 -19.16)" fill="#fff"/>
      <path id="Path_23237" data-name="Path 23237" d="M106.135,180.023H94.93a.444.444,0,1,1,0-.888h11.2a.444.444,0,0,1,0,.888Z" transform="translate(-59.707 -157.025)" fill="#fff"/>
    </g>
  </g>
</svg>
