<svg xmlns="http://www.w3.org/2000/svg" width="52.532" height="57.135" viewBox="0 0 52.532 57.135">
  <g id="electrical-appliance" transform="translate(-0.5 0)">
    <path id="Path_23405" data-name="Path 23405" d="M228.209,277.594a11.435,11.435,0,1,0,11.436,11.435A11.449,11.449,0,0,0,228.209,277.594Zm0,21.174a9.738,9.738,0,1,1,9.738-9.738A9.749,9.749,0,0,1,228.209,298.767Zm0,0" transform="translate(-192.139 -246.617)"/>
    <path id="Path_23406" data-name="Path 23406" d="M263.5,313.779a.85.85,0,0,0-.263-.615,7.7,7.7,0,1,0,0,11.164.849.849,0,0,0,0-1.229,6.007,6.007,0,0,1,0-8.705A.85.85,0,0,0,263.5,313.779Zm-3.827,4.967a7.63,7.63,0,0,0,1.747,4.888,6.006,6.006,0,1,1,0-9.776A7.622,7.622,0,0,0,259.67,318.745Zm0,0" transform="translate(-221.856 -276.333)"/>
    <path id="Path_23407" data-name="Path 23407" d="M35.462,155.416v-8.4a2.618,2.618,0,0,0-5.236,0v8.4a2.618,2.618,0,1,0,5.236,0Zm-3.539,0v-8.4a.921.921,0,0,1,1.841,0v8.4a.921.921,0,1,1-1.841,0Zm0,0" transform="translate(-26.409 -128.281)"/>
    <path id="Path_23408" data-name="Path 23408" d="M32.844,300.961a2.62,2.62,0,0,0-2.618,2.618v3.972a2.618,2.618,0,1,0,5.236,0v-3.972A2.621,2.621,0,0,0,32.844,300.961Zm.921,6.589a.921.921,0,0,1-1.841,0v-3.972a.921.921,0,1,1,1.841,0Zm0,0" transform="translate(-26.409 -267.376)"/>
    <path id="Path_23409" data-name="Path 23409" d="M101.511,63.115a.848.848,0,0,0,1.159.31l2.175-1.255v2.511a.848.848,0,1,0,1.7,0V62.17l2.175,1.255a.849.849,0,0,0,.849-1.47L107.39,60.7l2.175-1.256a.848.848,0,0,0-.849-1.469l-2.175,1.255V56.72a.848.848,0,1,0-1.7,0v2.511l-2.175-1.255a.849.849,0,0,0-.849,1.47L104,60.7l-2.175,1.255A.849.849,0,0,0,101.511,63.115Zm0,0" transform="translate(-89.638 -49.636)"/>
    <path id="Path_23410" data-name="Path 23410" d="M52.972,16.154l-.422-2.179a3.329,3.329,0,0,0-3.264-2.693h-.831c-.156-.29-.323-.571-.5-.838a6.139,6.139,0,0,0-5.03-3.03,6.139,6.139,0,0,0-5.03,3.03c-.18.267-.347.548-.5.838H33.707a.849.849,0,0,0-.729,1.283l2.979,5a13.294,13.294,0,0,0,.833,4.5H31.61V.849A.848.848,0,0,0,30.762,0H1.349A.849.849,0,0,0,.5.849v9.368a.848.848,0,1,0,1.7,0V1.7H29.913V22.07h-8a.849.849,0,0,0-.849.848V31H2.2V13.611a.848.848,0,0,0-1.7,0V56.286a.849.849,0,0,0,.849.849H42.815a.848.848,0,1,0,0-1.7H22.764V30.2H49.375V55.438H46.209a.848.848,0,0,0,0,1.7h4.015a.849.849,0,0,0,.848-.849V22.918a.848.848,0,0,0-.848-.848H49.052a12.44,12.44,0,0,0,.581-2.048h.148a3.251,3.251,0,0,0,3.191-3.867ZM42.922,9.111a4.451,4.451,0,0,1,3.544,2.171H39.377A4.452,4.452,0,0,1,42.922,9.111Zm-6.27,3.868a12.757,12.757,0,0,0-.446,1.691L35.2,12.979ZM2.2,55.438V32.695h18.87V55.438ZM22.764,23.767H40.087V28.5H22.764ZM49.375,28.5H41.784V23.767h7.592ZM38.629,22.07a11.56,11.56,0,0,1-.978-4.74,11.6,11.6,0,0,1,.809-4.351h8.923a11.6,11.6,0,0,1,.809,4.351,11.552,11.552,0,0,1-.979,4.74Zm12.349-4.31a1.546,1.546,0,0,1-1.124.561c.022-.327.035-.657.035-.99a13.557,13.557,0,0,0-.7-4.351h.1a1.629,1.629,0,0,1,1.6,1.318l.421,2.18A1.547,1.547,0,0,1,50.979,17.76Zm0,0"/>
  </g>
</svg>
