<svg xmlns="http://www.w3.org/2000/svg" width="52.009" height="58.003" viewBox="0 0 52.009 58.003">
  <g id="food" transform="translate(-5.991 -2.997)">
    <path id="Path_23392" data-name="Path 23392" d="M11.212,18.577a1,1,0,0,0,1.268-.627l2.31-6.831a1,1,0,1,0-1.895-.641l-2.31,6.831a1,1,0,0,0,.626,1.267Z"/>
    <path id="Path_23393" data-name="Path 23393" d="M13.541,27.27a1,1,0,0,0,1.268-.627l2.311-6.831a1,1,0,1,0-1.895-.641L12.914,26A1,1,0,0,0,13.541,27.27Z"/>
    <path id="Path_23394" data-name="Path 23394" d="M57,28a3.662,3.662,0,0,0-2.342.8c1.154-5.175-.672-9.872-4.317-10.849a5.324,5.324,0,0,0-3.068.124,3.766,3.766,0,0,1,1.022-1.426,3.328,3.328,0,0,1,2.688-.605,1,1,0,1,0,.27-1.982,5.277,5.277,0,0,0-4.225,1.04A5.953,5.953,0,0,0,45.3,17.628a5.35,5.35,0,0,0-2.683-1.742,5.733,5.733,0,0,0-4.472.75A9.725,9.725,0,0,0,34,13.309V11a1,1,0,0,0,1-1V6a1,1,0,0,0-1-1H26a1,1,0,0,0-1,1v4a1,1,0,0,0,1,1v2.308a9.732,9.732,0,0,0-4.621,4.054C18.4,9.625,13.876,1.988,9.711,3.106c-2.307.618-3.587,3.735-3.7,9.015A62.848,62.848,0,0,0,8.164,28.179,3.806,3.806,0,0,0,6.991,28a1,1,0,0,0-1,1V60a1,1,0,0,0,1,1H57a1,1,0,0,0,1-1V29A1,1,0,0,0,57,28ZM42.1,17.817a4.12,4.12,0,0,1,2.6,2.665,1,1,0,0,0,1.551.415,4.126,4.126,0,0,1,3.581-1.009c2.617.7,3.881,4.833,2.759,9.021a12.187,12.187,0,0,1-.631,1.752c-.748-.014-1.115-.358-1.729-1.012a3.988,3.988,0,0,0-6.46,0c-.627.668-.989,1.017-1.77,1.017s-1.143-.349-1.77-1.017A4.172,4.172,0,0,0,37,28a3.622,3.622,0,0,0-2.123.65,11.392,11.392,0,0,1,.323-4.4C36.317,20.063,39.463,17.112,42.1,17.817ZM27,7h6V9H27Zm.316,7.949A1,1,0,0,0,28,14V11h4v3a1,1,0,0,0,.684.949,7.718,7.718,0,0,1,3.877,2.907,12.8,12.8,0,0,0-3.3,5.877,12.879,12.879,0,0,0-.124,6.514A1.672,1.672,0,0,1,32,30.667c-.78,0-1.144-.349-1.77-1.018a3.985,3.985,0,0,0-6.457,0c-.626.668-.99,1.017-1.769,1.017h0V22.325A7.765,7.765,0,0,1,27.316,14.949ZM10.229,5.038c2.111-.561,6.536,5.051,10.042,15.116A9.744,9.744,0,0,0,20,22.325v7.083A3.95,3.95,0,0,0,17,28a4.18,4.18,0,0,0-3.231,1.649c-.627.669-.991,1.018-1.774,1.018a1.707,1.707,0,0,1-1.222-.481c-.131-.456-.262-.913-.387-1.378A62.263,62.263,0,0,1,8.008,12.165C8.114,7.32,9.225,5.307,10.229,5.038ZM7.991,30.295a5.12,5.12,0,0,1,.772.723A4.18,4.18,0,0,0,12,32.667a4.18,4.18,0,0,0,3.232-1.649C15.854,30.349,16.219,30,17,30s1.144.349,1.77,1.017a3.985,3.985,0,0,0,6.458,0C25.855,30.349,26.217,30,27,30s1.143.349,1.77,1.017a3.985,3.985,0,0,0,6.458,0C35.853,30.349,36.215,30,37,30s1.143.349,1.77,1.017a3.985,3.985,0,0,0,6.457,0,5.068,5.068,0,0,1,.77-.713V59h-38ZM56,59H47.991V30.3a5.045,5.045,0,0,1,.772.715,3.992,3.992,0,0,0,6.464,0A5.125,5.125,0,0,1,56,30.295Z"/>
  </g>
</svg>
