<svg xmlns="http://www.w3.org/2000/svg" width="46" height="46" viewBox="0 0 46 46">
  <g id="Group_72691" data-name="Group 72691" transform="translate(-810 -3829)">
    <g id="Ellipse_690" data-name="Ellipse 690" transform="translate(810 3829)" fill="#7e9f3c" stroke="#fff" stroke-width="1">
      <circle cx="23" cy="23" r="23" stroke="none"/>
      <circle cx="23" cy="23" r="22.5" fill="none"/>
    </g>
    <g id="store" transform="translate(819 3840)">
      <path id="Path_23255" data-name="Path 23255" d="M50.181,281.8a.406.406,0,0,0-.406.406l-.038,6.25H41.362v-7.689a.949.949,0,0,0-.948-.948H35.721a.949.949,0,0,0-.948.948v7.689H26.4v-8.231a.406.406,0,1,0-.813,0v8.421a.624.624,0,0,0,.623.623H49.927a.624.624,0,0,0,.623-.623l.038-6.44A.406.406,0,0,0,50.181,281.8Zm-14.6,6.657v-7.689a.136.136,0,0,1,.135-.136h4.693a.136.136,0,0,1,.135.136v7.689Zm0,0" transform="translate(-24.2 -264.662)" fill="#fff"/>
      <path id="Path_23256" data-name="Path 23256" d="M340.393,302.019a.866.866,0,0,0,.865-.865V296.72a.866.866,0,0,0-.865-.865h-5.028a.866.866,0,0,0-.865.865v4.433a.866.866,0,0,0,.865.865Zm-5.08-.865V296.72a.052.052,0,0,1,.052-.052h5.028a.052.052,0,0,1,.052.052v4.433a.053.053,0,0,1-.052.053h-5.028A.053.053,0,0,1,335.313,301.154Zm0,0" transform="translate(-316.38 -279.829)" fill="#fff"/>
      <path id="Path_23257" data-name="Path 23257" d="M58.639,302.019a.866.866,0,0,0,.865-.865V296.72a.866.866,0,0,0-.865-.865H53.611a.866.866,0,0,0-.865.865v4.433a.866.866,0,0,0,.865.865Zm-5.08-.865V296.72a.052.052,0,0,1,.052-.052h5.028a.052.052,0,0,1,.052.052v4.433a.053.053,0,0,1-.052.053H53.611A.053.053,0,0,1,53.559,301.154Zm0,0" transform="translate(-49.889 -279.829)" fill="#fff"/>
      <path id="Path_23258" data-name="Path 23258" d="M26.541,5.99a.788.788,0,0,1,.788-.787.406.406,0,0,0,.406-.406V3.8a.406.406,0,0,0-.406-.406H20.622a.406.406,0,1,0,0,.813h6.3v.234a1.606,1.606,0,0,0-1.142,1.141H19.39V1.977A1.979,1.979,0,0,0,17.413,0h-7.09A1.979,1.979,0,0,0,8.346,1.977V3.4H.406A.406.406,0,0,0,0,3.8V4.8A.406.406,0,0,0,.406,5.2a.788.788,0,0,1,.788.787.406.406,0,0,0,.194.347V9.111H.657a.624.624,0,0,0-.623.623v2.212a.624.624,0,0,0,.623.623h.731V15.7a.406.406,0,0,0,.813,0V12.569H25.569v5.483a.406.406,0,1,0,.813,0V12.569h.731a.624.624,0,0,0,.623-.623V9.734a.624.624,0,0,0-.623-.623h-.731v-2.8A.406.406,0,0,0,26.541,5.99ZM9.158,1.977A1.166,1.166,0,0,1,10.322.813h7.09a1.166,1.166,0,0,1,1.164,1.164V6.41a1.166,1.166,0,0,1-1.164,1.164h-7.09A1.166,1.166,0,0,1,9.158,6.41V1.977Zm17.765,9.78H.846V9.924H26.923ZM2.2,9.111V6.4H7.127a.406.406,0,0,0,0-.813H1.954A1.606,1.606,0,0,0,.813,4.442V4.209H8.346v2.2a1.979,1.979,0,0,0,1.977,1.977h7.09A1.979,1.979,0,0,0,19.389,6.41V6.4h6.179V9.111Zm0,0" transform="translate(0 0)" fill="#fff"/>
      <path id="Path_23259" data-name="Path 23259" d="M214.231,359.543h-.325a.406.406,0,1,0,0,.813h.325a.406.406,0,1,0,0-.813Zm0,0" transform="translate(-201.935 -340.066)" fill="#fff"/>
      <path id="Path_23260" data-name="Path 23260" d="M195.187,30.746h.5l.511,2.442A1.032,1.032,0,0,0,197.2,34h2.412a1.032,1.032,0,0,0,.961-.664l.8-2.109a.653.653,0,0,0-.611-.884h-3.412a.406.406,0,1,0,0,.813h3.181l-.715,1.893a.216.216,0,0,1-.2.139H197.2a.216.216,0,0,1-.21-.171l-.513-2.451a.8.8,0,0,0-.784-.637h-.507a.406.406,0,0,0,0,.813Zm0,0" transform="translate(-184.23 -28.312)" fill="#fff"/>
      <path id="Path_23261" data-name="Path 23261" d="M231.765,111.383h-.108a.406.406,0,0,0,0,.813h.108a.406.406,0,1,0,0-.813Zm0,0" transform="translate(-218.723 -105.349)" fill="#fff"/>
      <path id="Path_23262" data-name="Path 23262" d="M264.265,111.383h-.108a.406.406,0,0,0,0,.813h.108a.406.406,0,0,0,0-.813Zm0,0" transform="translate(-249.462 -105.349)" fill="#fff"/>
    </g>
  </g>
</svg>
