<svg xmlns="http://www.w3.org/2000/svg" width="46" height="46" viewBox="0 0 46 46">
  <g id="Group_72692" data-name="Group 72692" transform="translate(-810 -3886)">
    <g id="Group_72634" data-name="Group 72634" transform="translate(-10 57)">
      <g id="Ellipse_690" data-name="Ellipse 690" transform="translate(820 3829)" fill="#7e9f3c" stroke="#fff" stroke-width="1">
        <circle cx="23" cy="23" r="23" stroke="none"/>
        <circle cx="23" cy="23" r="22.5" fill="none"/>
      </g>
    </g>
    <g id="market" transform="translate(811.34 3887.5)">
      <path id="Path_23244" data-name="Path 23244" d="M70.868,238.506a1.684,1.684,0,1,1-3.368,0V232.5" transform="translate(-56.632 -212.638)" fill="none" stroke="#fff" stroke-linecap="round" stroke-linejoin="round" stroke-width="0.8"/>
      <path id="Path_23245" data-name="Path 23245" d="M10.868,339.5a1.684,1.684,0,0,1-3.368,0" transform="translate(0 -313.633)" fill="none" stroke="#fff" stroke-linecap="round" stroke-linejoin="round" stroke-width="0.8"/>
      <path id="Path_23246" data-name="Path 23246" d="M387.868,339.5a1.684,1.684,0,0,1-3.368,0" transform="translate(-355.84 -313.633)" fill="none" stroke="#fff" stroke-linecap="round" stroke-linejoin="round" stroke-width="0.8"/>
      <path id="Path_23247" data-name="Path 23247" d="M447.868,238.506a1.684,1.684,0,0,1-3.368,0V232.5" transform="translate(-412.473 -212.638)" fill="none" stroke="#fff" stroke-linecap="round" stroke-linejoin="round" stroke-width="0.8"/>
      <path id="Path_23248" data-name="Path 23248" d="M28.66,232.5h6.735v12.741H7.5V232.5h6.735" transform="translate(0 -212.638)" fill="none" stroke="#fff" stroke-linecap="round" stroke-linejoin="round" stroke-width="0.8"/>
      <path id="Path_23249" data-name="Path 23249" d="M384.5,174.184h5.893a.842.842,0,0,0,0-1.684H384.5" transform="translate(-355.84 -156.006)" fill="none" stroke="#fff" stroke-linecap="round" stroke-linejoin="round" stroke-width="0.8"/>
      <path id="Path_23250" data-name="Path 23250" d="M14.235,172.5H8.342a.842.842,0,0,0,0,1.684h5.893" transform="translate(0 -156.006)" fill="none" stroke="#fff" stroke-linecap="round" stroke-linejoin="round" stroke-width="0.8"/>
      <rect id="Rectangle_14843" data-name="Rectangle 14843" width="10" height="5" transform="translate(16.66 14.743)" fill="none" stroke="#fff" stroke-linecap="round" stroke-linejoin="round" stroke-width="0.8"/>
      <path id="Path_23251" data-name="Path 23251" d="M130.868,12.127h11.057V7.5H127.5v4.627h3.368" transform="translate(-113.265 1)" fill="none" stroke="#fff" stroke-linecap="round" stroke-linejoin="round" stroke-width="0.8"/>
      <path id="Path_23252" data-name="Path 23252" d="M141.925,131.976V112.5H127.5v19.476" transform="translate(-113.265 -99.374)" fill="none" stroke="#fff" stroke-linecap="round" stroke-linejoin="round" stroke-width="0.8"/>
      <path id="Path_23253" data-name="Path 23253" d="M157.5,275.445V264.5h11.057v10.945" transform="translate(-141.581 -242.842)" fill="none" stroke="#fff" stroke-linecap="round" stroke-linejoin="round" stroke-width="0.8"/>
      <path id="Path_23254" data-name="Path 23254" d="M193.506,332.077V324.5h-4.322v7.577L187.5,334.6h7.689Z" transform="translate(-169.897 -299.475)" fill="none" stroke="#fff" stroke-linecap="round" stroke-linejoin="round" stroke-width="0.8"/>
      <line id="Line_485" data-name="Line 485" x1="10" transform="translate(16.66 23.743)" fill="none" stroke="#fff" stroke-linecap="round" stroke-linejoin="round" stroke-width="0.8"/>
    </g>
  </g>
</svg>
