<svg xmlns="http://www.w3.org/2000/svg" width="46" height="46" viewBox="0 0 46 46">
  <g id="Group_72694" data-name="Group 72694" transform="translate(-810 -4006)">
    <g id="Ellipse_690" data-name="Ellipse 690" transform="translate(810 4006)" fill="#7e9f3c" stroke="#fff" stroke-width="1">
      <circle cx="23" cy="23" r="23" stroke="none"/>
      <circle cx="23" cy="23" r="22.5" fill="none"/>
    </g>
    <g id="dairy" transform="translate(816.2 4012.3)">
      <path id="Path_23239" data-name="Path 23239" d="M29,16.186a7.716,7.716,0,0,0-.8-3.372,6.815,6.815,0,0,1-.736-3.107V9.666h.266A.38.38,0,0,0,28.1,9.3V7.459a.366.366,0,0,0-.368-.368H22.438a.366.366,0,0,0-.368.368V9.3a.38.38,0,0,0,.368.368h.245v.041a6.815,6.815,0,0,1-.736,3.107,7.442,7.442,0,0,0-.8,3.372V19.66l-2.412-1a.231.231,0,0,0-.164-.02,5.927,5.927,0,0,0-1.328.286V10.1l-.8-3.229v-1.8a.38.38,0,0,0-.368-.368H5.965a.38.38,0,0,0-.368.368v1.8S5,9.3,4.8,10.1V28.571a.38.38,0,0,0,.368.368H27.445a1.609,1.609,0,0,0,1.594-1.594C29.019,27.345,29,16.288,29,16.186ZM22.785,7.807h4.578V8.931H22.785Zm-.736,6.847a6.711,6.711,0,0,1,.552-1.512,7.717,7.717,0,0,0,.818-3.434V9.666H26.77v.041a7.717,7.717,0,0,0,.818,3.434,6.634,6.634,0,0,1,.715,2.718H21.865A5.927,5.927,0,0,1,22.049,14.653Zm-.184,1.9H28.3v4.394H24.257l-2.412-1ZM23.95,21.6H19.311a.964.964,0,0,0-1.8,0H15.039a4.39,4.39,0,0,1,3.515-2.228Zm-5.784.347a.256.256,0,1,1,.245.266A.253.253,0,0,1,18.166,21.949Zm-3.924,0v1.206H5.515V15.736H16.552v3.495c-1.369.695-2.309,1.819-2.309,2.718ZM6.231,7.255H15.8l.634,2.555H5.6Zm10.321,3.27v4.5H5.515v-4.5Zm-.818-5.109V6.539H6.312V5.415ZM5.515,23.891h8.727v4.333H5.515Zm9.442-1.574h2.555a.964.964,0,0,0,1.8,0h6.07V23.3a1.28,1.28,0,0,0,0,2.289v2.636H14.958ZM27.424,28.2H26.1V25.322a.374.374,0,0,0-.266-.347.546.546,0,0,1-.409-.674.525.525,0,0,1,.409-.409.35.35,0,0,0,.266-.347V21.949a.329.329,0,0,0-.143-.286h2.33v5.682a.864.864,0,0,1-.858.858Z" transform="translate(0 0)" fill="#fff"/>
      <path id="Path_23240" data-name="Path 23240" d="M11.068,70.4a.38.38,0,0,0-.368.368v1.39a.368.368,0,0,0,.736,0v-1.41A.377.377,0,0,0,11.068,70.4Z" transform="translate(-4.694 -52.272)" fill="#fff"/>
      <path id="Path_23241" data-name="Path 23241" d="M29.319,66.742a.346.346,0,0,0-.47,0A3.958,3.958,0,0,0,27.5,69.256a1.594,1.594,0,0,0,3.188,0A4.047,4.047,0,0,0,29.319,66.742Zm-.225,3.393a.9.9,0,0,1-.879-.879,3.008,3.008,0,0,1,.879-1.758,2.889,2.889,0,0,1,.879,1.758A.9.9,0,0,1,29.094,70.135Z" transform="translate(-18.061 -49.289)" fill="#fff"/>
      <path id="Path_23242" data-name="Path 23242" d="M87.081,107.8a.981.981,0,0,0-.981.981.981.981,0,0,0,1.962,0A1,1,0,0,0,87.081,107.8Zm0,1.226a.266.266,0,1,1,.266-.266A.286.286,0,0,1,87.081,109.026Z" transform="translate(-64.684 -82.029)" fill="#fff"/>
      <circle id="Ellipse_1064" data-name="Ellipse 1064" cx="0.307" cy="0.307" r="0.307" transform="translate(21.171 23.217)" fill="#fff"/>
      <circle id="Ellipse_1065" data-name="Ellipse 1065" cx="0.307" cy="0.307" r="0.307" transform="translate(23.01 24.463)" fill="#fff"/>
      <circle id="Ellipse_1066" data-name="Ellipse 1066" cx="0.307" cy="0.307" r="0.307" transform="translate(18.841 19.987)" fill="#fff"/>
      <circle id="Ellipse_1067" data-name="Ellipse 1067" cx="0.307" cy="0.307" r="0.307" transform="translate(16.593 20.437)" fill="#fff"/>
      <circle id="Ellipse_1068" data-name="Ellipse 1068" cx="0.307" cy="0.307" r="0.307" transform="translate(17.798 26.854)" fill="#fff"/>
      <circle id="Ellipse_1069" data-name="Ellipse 1069" cx="0.307" cy="0.307" r="0.307" transform="translate(19.638 25.342)" fill="#fff"/>
      <path id="Path_23243" data-name="Path 23243" d="M59.481,99.1a.981.981,0,0,0-.981.981.981.981,0,0,0,1.962,0A1,1,0,0,0,59.481,99.1Zm0,1.226a.266.266,0,1,1,.266-.266A.3.3,0,0,1,59.481,100.326Z" transform="translate(-42.725 -75.107)" fill="#fff"/>
    </g>
  </g>
</svg>
