<svg xmlns="http://www.w3.org/2000/svg" width="46" height="46" viewBox="0 0 46 46">
  <g id="Group_72690" data-name="Group 72690" transform="translate(-810 -3767)">
    <g id="Ellipse_690" data-name="Ellipse 690" transform="translate(810 3767)" fill="#7e9f3c" stroke="#fff" stroke-width="1">
      <circle cx="23" cy="23" r="23" stroke="none"/>
      <circle cx="23" cy="23" r="22.5" fill="none"/>
    </g>
    <g id="shop" transform="translate(819 3746.95)">
      <g id="Group_72640" data-name="Group 72640" transform="translate(0 31.05)">
        <path id="Path_23207" data-name="Path 23207" d="M253.783,263.75h-3.731A1.853,1.853,0,0,0,248.2,265.6v2.861a1.853,1.853,0,0,0,1.852,1.851h3.731a1.853,1.853,0,0,0,1.851-1.851V265.6A1.853,1.853,0,0,0,253.783,263.75Zm.5,4.713a.506.506,0,0,1-.5.5h-3.731a.506.506,0,0,1-.5-.5V265.6a.506.506,0,0,1,.5-.5h3.731a.506.506,0,0,1,.5.5Z" transform="translate(-234.275 -250.694)" fill="#fff"/>
        <path id="Path_23208" data-name="Path 23208" d="M27.458,38.9a.625.625,0,0,0-.09-.331l-4.084-7.182a.677.677,0,0,0-.583-.342H4.752a.665.665,0,0,0-.583.342L.09,38.574A.681.681,0,0,0,0,38.9a3.938,3.938,0,0,0,2.356,3.6V54.351a.675.675,0,0,0,.673.673H24.423a.675.675,0,0,0,.673-.673V42.591a.3.3,0,0,0-.006-.073A3.949,3.949,0,0,0,27.458,38.9ZM5.145,32.4H22.308L25.5,38.018H1.958Zm14.4,6.957a2.588,2.588,0,0,1-5.094,0Zm-6.525,0a2.591,2.591,0,0,1-5.1,0Zm-11.625,0h5.1a2.591,2.591,0,0,1-5.1,0Zm9.919,14.318H7.44V46.412a.959.959,0,0,1,.959-.959h1.958a.959.959,0,0,1,.959.959v7.266Zm12.439,0H12.657V46.412a2.309,2.309,0,0,0-2.306-2.306H8.393a2.309,2.309,0,0,0-2.306,2.306v7.271H3.7V42.838c.079.006.157.006.236.006A3.934,3.934,0,0,0,7.2,41.1a3.935,3.935,0,0,0,6.531,0,3.924,3.924,0,0,0,6.519,0,3.934,3.934,0,0,0,3.265,1.739c.079,0,.151-.006.23-.006v10.84ZM23.519,41.5a2.586,2.586,0,0,1-2.547-2.132h5.1A2.6,2.6,0,0,1,23.519,41.5Z" transform="translate(0 -31.05)" fill="#fff"/>
      </g>
    </g>
  </g>
</svg>
