<svg xmlns="http://www.w3.org/2000/svg" xmlns:xlink="http://www.w3.org/1999/xlink" width="46" height="46" viewBox="0 0 46 46">
  <defs>
    <clipPath id="clip-path">
      <path id="path2016" d="M0-682.665H28.618v28.618H0Z" transform="translate(0 682.665)"/>
    </clipPath>
  </defs>
  <g id="Group_72693" data-name="Group 72693" transform="translate(-810 -3946)">
    <g id="Ellipse_690" data-name="Ellipse 690" transform="translate(810 3946)" fill="#7e9f3c" stroke="#fff" stroke-width="1">
      <circle cx="23" cy="23" r="23" stroke="none"/>
      <circle cx="23" cy="23" r="22.5" fill="none"/>
    </g>
    <g id="g2010" transform="translate(819 4637.665)">
      <g id="g2012" transform="translate(0 -682.665)">
        <g id="g2014" clip-path="url(#clip-path)">
          <g id="g2020" transform="translate(7.546 0.838)">
            <path id="path2022" d="M0-76.646C0-79.255,1.677-79.627,3.354-80" transform="translate(0 80)" fill="none" stroke="#fff" stroke-linecap="round" stroke-linejoin="round" stroke-width="1"/>
          </g>
          <g id="g2024" transform="translate(17.607 5.869)">
            <path id="path2026" d="M0-114.969c0-3.913,1.677-4.472,3.354-5.031" transform="translate(0 120)" fill="none" stroke="#fff" stroke-linecap="round" stroke-linejoin="round" stroke-width="1"/>
          </g>
          <g id="g2028" transform="translate(6.54 21.631)">
            <path id="path2030" d="M-366.879-140.346l-15.039-1.41a1.118,1.118,0,0,1-1.014-1.113v-1.088a1.118,1.118,0,0,1,1.014-1.113l15.039-1.41a1.677,1.677,0,0,1,1.833,1.669v2.794A1.677,1.677,0,0,1-366.879-140.346Z" transform="translate(382.932 146.487)" fill="none" stroke="#fff" stroke-linecap="round" stroke-linejoin="round" stroke-width="1"/>
          </g>
          <g id="g2032" transform="translate(19.954 21.886)">
            <path id="path2034" d="M0,0V1.981" fill="none" stroke="#fff" stroke-linecap="round" stroke-linejoin="round" stroke-width="1"/>
          </g>
          <g id="g2036" transform="translate(13.247 25.544)">
            <path id="path2038" d="M0,0V1.352" fill="none" stroke="#fff" stroke-linecap="round" stroke-linejoin="round" stroke-width="1"/>
          </g>
          <g id="g2040" transform="translate(24.426 24.705)">
            <path id="path2042" d="M0,0,2.795,2.515" fill="none" stroke="#fff" stroke-linecap="round" stroke-linejoin="round" stroke-width="1"/>
          </g>
          <g id="g2044" transform="translate(24.426 22.19)">
            <path id="path2046" d="M0-57.485,2.795-60" transform="translate(0 60)" fill="none" stroke="#fff" stroke-linecap="round" stroke-linejoin="round" stroke-width="1"/>
          </g>
          <g id="g2048" transform="translate(24.426 24.705)">
            <path id="path2050" d="M0,0H3.354" fill="none" stroke="#fff" stroke-linecap="round" stroke-linejoin="round" stroke-width="1"/>
          </g>
          <g id="g2052" transform="translate(0.838 4.192)">
            <path id="path2054" d="M-249.778-136.763a7.152,7.152,0,0,1-.309-2.072A3.913,3.913,0,0,0-254-142.748a3.913,3.913,0,0,0-3.913,3.913,7.465,7.465,0,0,1-1.493,4.421,6.656,6.656,0,0,0-1.3,3.963" transform="translate(260.707 142.748)" fill="none" stroke="#fff" stroke-linecap="round" stroke-linejoin="round" stroke-width="1"/>
          </g>
          <g id="g2056" transform="translate(9.782 9.223)">
            <path id="path2058" d="M-302.774-284.113a8.759,8.759,0,0,0,2.248-4.59c.682-3.829-.96-7.317-3.669-7.789a4.5,4.5,0,0,0-4,1.624,4.5,4.5,0,0,0-4-1.624c-2.708.473-4.351,3.96-3.669,7.789a8.083,8.083,0,0,0,3.307,5.45" transform="translate(316.022 296.544)" fill="none" stroke="#fff" stroke-linecap="round" stroke-linejoin="round" stroke-width="1"/>
          </g>
          <g id="g2060" transform="translate(0.838 16.489)">
            <path id="path2062" d="M0,0A6.707,6.707,0,0,0,6.282,6.694" fill="none" stroke="#fff" stroke-linecap="round" stroke-linejoin="round" stroke-width="1"/>
          </g>
        </g>
      </g>
    </g>
  </g>
</svg>
