<svg xmlns="http://www.w3.org/2000/svg" width="62.005" height="62.024" viewBox="0 0 62.005 62.024">
  <g id="hairdryer" transform="translate(-0.999 -0.976)">
    <path id="Path_23396" data-name="Path 23396" d="M18.765,51.915h-8.5a1,1,0,0,1-.993-.875l-3.2-25.388A1,1,0,0,1,8.06,25.4l3.086,24.513h6.619V27.228a1,1,0,0,1,2,0V50.915A1,1,0,0,1,18.765,51.915Z"/>
    <path id="Path_23397" data-name="Path 23397" d="M14,28.917a12.353,12.353,0,0,1-8.31-3.228A14.37,14.37,0,0,1,1,14.948,14.371,14.371,0,0,1,5.688,4.207a12.324,12.324,0,0,1,9.678-3.156L44.894,6.288a1,1,0,0,1,.825.984V22.623a1,1,0,0,1-.825.984L15.43,28.836a12.571,12.571,0,0,1-1.43.081ZM13.972,2.968A10.41,10.41,0,0,0,7.021,5.7,12.373,12.373,0,0,0,3,14.948,12.371,12.371,0,0,0,7.022,24.2a10.32,10.32,0,0,0,8.122,2.658l28.575-5.072V8.11L15.08,3.029a10.061,10.061,0,0,0-1.108-.061Z"/>
    <path id="Path_23398" data-name="Path 23398" d="M51.043,26.358a1,1,0,0,1-.4-.082l-6.32-2.726a1,1,0,0,1-.6-.918V7.272a1,1,0,0,1,.6-.918l6.324-2.726a1,1,0,0,1,1.4.918V25.358a1,1,0,0,1-1,1Zm-5.324-4.384,4.324,1.864V6.066L45.719,7.931Z"/>
    <path id="Path_23399" data-name="Path 23399" d="M12.955,20.622a5.67,5.67,0,1,1,5.671-5.67,5.67,5.67,0,0,1-5.671,5.67Zm0-9.34a3.67,3.67,0,1,0,3.671,3.67,3.67,3.67,0,0,0-3.671-3.67Z"/>
    <path id="Path_23400" data-name="Path 23400" d="M20.574,36H18.765a1,1,0,0,1-1-1V29.851a1,1,0,0,1,1-1h1.809a2.407,2.407,0,0,1,2.4,2.4V33.6A2.407,2.407,0,0,1,20.574,36Zm-.809-2h.809a.406.406,0,0,0,.4-.4V31.255a.405.405,0,0,0-.4-.4h-.809Z"/>
    <path id="Path_23401" data-name="Path 23401" d="M13.756,63a1,1,0,0,1-.728-1.687,2.55,2.55,0,0,0,.035-3.016c-1.583-2.831-.034-7.235.148-7.728a1,1,0,0,1,1.877.692c-.4,1.1-1.241,4.338-.278,6.059a4.52,4.52,0,0,1-.327,5.367A1,1,0,0,1,13.756,63Z"/>
    <path id="Path_23402" data-name="Path 23402" d="M56.508,10.132a5.229,5.229,0,0,1-3.271-1.4,1,1,0,1,1,1.356-1.47c.012.012,1.616,1.449,2.641.6,2.239-1.851,5.154-.162,5.276-.09A1,1,0,0,1,61.493,9.5c-.027-.016-1.836-1.042-2.983-.092a3.064,3.064,0,0,1-2,.724Z"/>
    <path id="Path_23403" data-name="Path 23403" d="M56.508,16.021a5.233,5.233,0,0,1-3.271-1.4,1,1,0,0,1,1.356-1.471c.012.013,1.616,1.45,2.641.6,2.239-1.851,5.154-.162,5.276-.09a1,1,0,0,1-1.017,1.723c-.027-.017-1.836-1.042-2.983-.092a3.068,3.068,0,0,1-2,.73Z"/>
    <path id="Path_23404" data-name="Path 23404" d="M56.508,21.911a5.233,5.233,0,0,1-3.271-1.4,1,1,0,1,1,1.356-1.471c.012.013,1.616,1.449,2.641.6,2.241-1.857,5.153-.163,5.277-.09a1,1,0,0,1-1.019,1.721c-.049-.029-1.843-1.038-2.982-.09A3.066,3.066,0,0,1,56.508,21.911Z"/>
  </g>
</svg>
