<svg xmlns="http://www.w3.org/2000/svg" width="30" height="30.005" viewBox="0 0 30 30.005">
  <g id="insights" transform="translate(-10.672 -13.102)">
    <g id="Analysis-report-document-develop-infromation" transform="translate(10.672 13.102)">
      <path id="Path_23473" data-name="Path 23473" d="M31.864,7.646l-5.5-5.5A.517.517,0,0,0,26.008,2h-12.5a1.5,1.5,0,0,0-1.5,1.5V6.526a10.488,10.488,0,0,0,0,20.953V30.5a1.5,1.5,0,0,0,1.5,1.5h17a1.5,1.5,0,0,0,1.5-1.5V8A.517.517,0,0,0,31.864,7.646ZM26.508,3.705l3.8,3.8h-3.3a.5.5,0,0,1-.5-.5ZM3,17a9.513,9.513,0,0,1,9-9.486V16.8L5.455,23.348A9.441,9.441,0,0,1,3,17ZM6.16,24.053,12.711,17.5h9.281A9.483,9.483,0,0,1,6.16,24.053ZM31.009,30.5a.5.5,0,0,1-.5.5h-17a.5.5,0,0,1-.5-.5V27.479A10.509,10.509,0,0,0,23.008,17a.5.5,0,0,0-.5-.5h-9.5V3.5a.5.5,0,0,1,.5-.5h12V7a1.5,1.5,0,0,0,1.5,1.5h4Z" transform="translate(-2.009 -2)" fill="#5a5a5a"/>
      <path id="Path_23474" data-name="Path 23474" d="M26.5,7a.5.5,0,0,0-.5.5v10a.5.5,0,0,0,.5.5h10a.5.5,0,0,0,.5-.5A10.513,10.513,0,0,0,26.5,7ZM27,17V8.015A9.51,9.51,0,0,1,35.986,17Z" transform="translate(-14.003 -4.5)" fill="#5a5a5a"/>
      <path id="Path_23475" data-name="Path 23475" d="M44.5,40A4.5,4.5,0,1,0,49,44.5,4.5,4.5,0,0,0,44.5,40Zm0,8A3.5,3.5,0,1,1,48,44.5,3.5,3.5,0,0,1,44.5,48Z" transform="translate(-21.002 -20.997)" fill="#5a5a5a"/>
      <path id="Path_23476" data-name="Path 23476" d="M45.147,47.94,44,46.793l-.707.707,1.5,1.5a.5.5,0,0,0,.707,0l3-3-.707-.707Z" transform="translate(-22.648 -23.643)" fill="#5a5a5a"/>
      <path id="Path_23477" data-name="Path 23477" d="M50,19h4v1H50Z" transform="translate(-26.001 -10.499)" fill="#5a5a5a"/>
      <path id="Path_23478" data-name="Path 23478" d="M50,25h4v1H50Z" transform="translate(-26.001 -13.498)" fill="#5a5a5a"/>
      <path id="Path_23479" data-name="Path 23479" d="M50,31h4v1H50Z" transform="translate(-26.001 -16.498)" fill="#5a5a5a"/>
    </g>
  </g>
</svg>
