<svg xmlns="http://www.w3.org/2000/svg" width="59.655" height="79.128" viewBox="0 0 59.655 79.128">
  <g id="Group_72775" data-name="Group 72775" transform="translate(-63)">
    <path id="Path_23292" data-name="Path 23292" d="M122.655,288.294a7.24,7.24,0,0,0-7.254-7.226h-.853a1.619,1.619,0,0,1-1.62-1.618v-8.537H102.063v2.91a9.429,9.429,0,0,1-18.858,0v-2.91H72.753v8.537a1.619,1.619,0,0,1-1.62,1.618h-.879a7.226,7.226,0,1,0,0,14.453h.879a1.619,1.619,0,0,1,1.62,1.618v9.415a1.619,1.619,0,0,0,1.62,1.618h36.935a1.619,1.619,0,0,0,1.62-1.618v-9.415a1.619,1.619,0,0,1,1.62-1.618h.853A7.24,7.24,0,0,0,122.655,288.294Z" transform="translate(0 -229.044)" fill="#fff"/>
    <path id="Path_23293" data-name="Path 23293" d="M63,19.758a7.24,7.24,0,0,0,7.254,7.226h.879a1.619,1.619,0,0,1,1.62,1.618v8.628H85.527a2.32,2.32,0,0,1,2.321,2.319v5.228a4.787,4.787,0,0,0,9.573,0V39.55a2.32,2.32,0,0,1,2.321-2.319h13.185V28.439a1.619,1.619,0,0,0-1.62-1.618h-3.134a7.081,7.081,0,1,1,0-14.161h3.134a1.619,1.619,0,0,0,1.62-1.618V1.618A1.619,1.619,0,0,0,111.308,0H74.373a1.619,1.619,0,0,0-1.62,1.618v9.3a1.619,1.619,0,0,1-1.62,1.618h-.879A7.24,7.24,0,0,0,63,19.758Z" transform="translate(0)" fill="#fff"/>
  </g>
</svg>
