<svg xmlns="http://www.w3.org/2000/svg" width="63.246" height="83.094" viewBox="0 0 63.246 83.094">
  <g id="Group_72780" data-name="Group 72780" transform="translate(-50.526)">
    <g id="Group_72779" data-name="Group 72779" transform="translate(50.526)">
      <path id="Path_23295" data-name="Path 23295" d="M111.708,2.135a3.479,3.479,0,0,0-3.785.575l-5.451,4.827a.389.389,0,0,1-.52,0L94.535.9a3.532,3.532,0,0,0-4.714,0L82.411,7.53a.393.393,0,0,1-.523,0L74.476.9a3.532,3.532,0,0,0-4.714,0L62.343,7.536a.393.393,0,0,1-.522,0L56.365,2.71a3.508,3.508,0,0,0-5.838,2.648V77.736a3.513,3.513,0,0,0,5.848,2.648l5.451-4.827a.389.389,0,0,1,.52,0l7.417,6.634a3.532,3.532,0,0,0,4.714,0l7.411-6.628a.393.393,0,0,1,.523,0l7.411,6.628a3.533,3.533,0,0,0,4.714,0l7.419-6.634a.393.393,0,0,1,.522,0l5.456,4.827a3.508,3.508,0,0,0,5.837-2.648V5.358A3.478,3.478,0,0,0,111.708,2.135ZM63.531,28.191h19.56a1.571,1.571,0,1,1,0,3.143H63.531a1.571,1.571,0,1,1,0-3.143ZM100.768,54.9H63.531a1.571,1.571,0,1,1,0-3.143h37.237a1.571,1.571,0,1,1,0,3.143Zm0-11.785H63.531a1.571,1.571,0,1,1,0-3.143h37.237a1.571,1.571,0,1,1,0,3.143Z" transform="translate(-50.526 0)" fill="#fff"/>
    </g>
  </g>
</svg>
