<svg xmlns="http://www.w3.org/2000/svg" width="71.221" height="60.415" viewBox="0 0 71.221 60.415">
  <g id="Group_72770" data-name="Group 72770" transform="translate(-160.902 -970.377)">
    <g id="Group_72769" data-name="Group 72769" transform="translate(160.902 931.537)">
      <g id="Group_72758" data-name="Group 72758" transform="translate(55.432 71.457)">
        <g id="Group_72757" data-name="Group 72757" transform="translate(0 0)">
          <path id="Path_23286" data-name="Path 23286" d="M404,273.32h-5.508a14.328,14.328,0,0,1,.868,4.925v20.817a6.139,6.139,0,0,1-.354,2.056h9.106a6.176,6.176,0,0,0,6.169-6.169V283.6A10.293,10.293,0,0,0,404,273.32Z" transform="translate(-398.494 -273.32)" fill="#fff"/>
        </g>
      </g>
      <g id="Group_72760" data-name="Group 72760" transform="translate(0 71.457)">
        <g id="Group_72759" data-name="Group 72759">
          <path id="Path_23287" data-name="Path 23287" d="M14.921,278.246a14.327,14.327,0,0,1,.868-4.925H10.281A10.293,10.293,0,0,0,0,283.6V294.95a6.176,6.176,0,0,0,6.169,6.169h9.106a6.141,6.141,0,0,1-.354-2.056Z" transform="translate(0 -273.321)" fill="#fff"/>
        </g>
      </g>
      <g id="Group_72762" data-name="Group 72762" transform="translate(19.033 66.101)">
        <g id="Group_72761" data-name="Group 72761">
          <path id="Path_23288" data-name="Path 23288" d="M159.7,234.815H147.11A10.293,10.293,0,0,0,136.829,245.1v20.817a2.056,2.056,0,0,0,2.056,2.056h29.042a2.056,2.056,0,0,0,2.056-2.056V245.1A10.293,10.293,0,0,0,159.7,234.815Z" transform="translate(-136.829 -234.815)" fill="#fff"/>
        </g>
      </g>
      <g id="Group_72764" data-name="Group 72764" transform="translate(23.246 38.84)">
        <g id="Group_72763" data-name="Group 72763" transform="translate(0 0)">
          <path id="Path_23289" data-name="Path 23289" d="M179.478,38.84A12.362,12.362,0,1,0,191.843,51.2,12.378,12.378,0,0,0,179.478,38.84Z" transform="translate(-167.114 -38.84)" fill="#fff"/>
        </g>
      </g>
      <g id="Group_72766" data-name="Group 72766" transform="translate(4.652 50.365)">
        <g id="Group_72765" data-name="Group 72765" transform="translate(0 0)">
          <path id="Path_23290" data-name="Path 23290" d="M42.69,121.689a9.242,9.242,0,1,0,9.247,9.247A9.257,9.257,0,0,0,42.69,121.689Z" transform="translate(-33.443 -121.689)" fill="#fff"/>
        </g>
      </g>
      <g id="Group_72768" data-name="Group 72768" transform="translate(48.075 50.365)">
        <g id="Group_72767" data-name="Group 72767" transform="translate(0 0)">
          <path id="Path_23291" data-name="Path 23291" d="M354.854,121.689a9.247,9.247,0,1,0,9.247,9.247A9.257,9.257,0,0,0,354.854,121.689Z" transform="translate(-345.607 -121.689)" fill="#fff"/>
        </g>
      </g>
    </g>
  </g>
</svg>
