<svg xmlns="http://www.w3.org/2000/svg" width="30" height="22.986" viewBox="0 0 30 22.986">
  <g id="multidevice" transform="translate(-1187.877 -934.115)">
    <g id="Group_73789" data-name="Group 73789" transform="translate(1187.877 934.115)">
      <g id="Group_73784" data-name="Group 73784" transform="translate(0 0)">
        <g id="Group_73783" data-name="Group 73783">
          <path id="Path_23578" data-name="Path 23578" d="M25.522,59.858H1.472A1.473,1.473,0,0,0,0,61.33V77.363a1.473,1.473,0,0,0,1.472,1.472H9.958L9.575,81.9H8.987a.47.47,0,0,0,0,.94h2.505a.47.47,0,0,0,0-.94h-.971l.384-3.069h.587a.47.47,0,0,0,0-.939H1.472a.533.533,0,0,1-.532-.532V75.829H11.493a.47.47,0,0,0,0-.939H.939V61.33a.533.533,0,0,1,.532-.532h24.05a.533.533,0,0,1,.532.532V71.351a.47.47,0,1,0,.939,0V61.33A1.474,1.474,0,0,0,25.522,59.858Z" transform="translate(0 -59.858)" fill="#5a5a5a"/>
        </g>
      </g>
      <g id="Group_73786" data-name="Group 73786" transform="translate(13.027 9.019)">
        <g id="Group_73785" data-name="Group 73785">
          <path id="Path_23579" data-name="Path 23579" d="M230.816,213.779H223.8a1.473,1.473,0,0,0-1.472,1.472v11.023a1.473,1.473,0,0,0,1.472,1.472h7.015a1.473,1.473,0,0,0,1.472-1.472V215.251A1.473,1.473,0,0,0,230.816,213.779Zm.532,12.495a.533.533,0,0,1-.532.532H223.8a.533.533,0,0,1-.532-.532v-.532h8.079v.532Zm0-1.472h-8.079v-8.079h8.079V224.8Zm0-9.019h-8.079v-.532a.533.533,0,0,1,.532-.532h7.015a.533.533,0,0,1,.532.532Z" transform="translate(-222.33 -213.779)" fill="#5a5a5a"/>
        </g>
      </g>
      <g id="Group_73788" data-name="Group 73788" transform="translate(24.05 13.027)">
        <g id="Group_73787" data-name="Group 73787">
          <path id="Path_23580" data-name="Path 23580" d="M414.933,282.188h-3.006a1.473,1.473,0,0,0-1.472,1.472v7.015a1.473,1.473,0,0,0,1.472,1.472h3.006a1.473,1.473,0,0,0,1.472-1.472V283.66A1.473,1.473,0,0,0,414.933,282.188Zm.532,8.486a.533.533,0,0,1-.532.532h-3.006a.533.533,0,0,1-.532-.532v-.532h4.071v.532Zm0-1.472h-4.071v-4.071h4.071Zm0-5.01h-4.071v-.532a.533.533,0,0,1,.532-.532h3.006a.533.533,0,0,1,.532.532v.532Z" transform="translate(-410.455 -282.188)" fill="#5a5a5a"/>
        </g>
      </g>
    </g>
  </g>
</svg>
