<svg xmlns="http://www.w3.org/2000/svg" width="36.244" height="49.485" viewBox="0 0 36.244 49.485">
  <g id="Group_73783" data-name="Group 73783" transform="translate(-22.068 -15.194)">
    <g id="menu_management" data-name="menu management" transform="translate(22.068 15.194)">
      <g id="Path_14023" data-name="Path 14023" transform="translate(-68.5 0)" fill="#171717" stroke-linecap="round">
        <path d="M 101.3615798950195 49.13607025146484 L 71.88283538818359 49.13607025146484 C 70.21054840087891 49.13607025146484 68.85003662109375 47.77555847167969 68.85003662109375 46.1032600402832 L 68.85003662109375 38.21010971069336 L 68.85003662109375 11.19251918792725 C 68.85003662109375 9.880748748779297 69.68703460693359 8.723269462585449 70.93280029296875 8.312289237976074 L 94.61252593994141 0.5022691488265991 C 94.91780853271484 0.4015591740608215 95.23635864257812 0.3504991829395294 95.55934906005859 0.3504991829395294 C 96.19515991210938 0.3504991829395294 96.82743835449219 0.5545191764831543 97.33970642089844 0.9249591827392578 C 98.12590789794922 1.493489146232605 98.59527587890625 2.41214919090271 98.59527587890625 3.382389068603516 L 98.59527587890625 9.182839393615723 L 98.59527587890625 9.532838821411133 L 98.94527435302734 9.532838821411133 L 101.3615798950195 9.532838821411133 C 103.0338745117188 9.532838821411133 104.3943862915039 10.89334964752197 104.3943862915039 12.56564903259277 L 104.3943862915039 46.1032600402832 C 104.3943862915039 47.77555847167969 103.0338745117188 49.13607025146484 101.3615798950195 49.13607025146484 Z M 71.88283538818359 11.73238945007324 C 71.42337799072266 11.73238945007324 71.04957580566406 12.10617923736572 71.04957580566406 12.56563949584961 L 71.04957580566406 36.76042938232422 L 71.04957580566406 46.1032600402832 C 71.04957580566406 46.56272888183594 71.42337799072266 46.93653106689453 71.88283538818359 46.93653106689453 L 101.3615798950195 46.93653106689453 C 101.8210372924805 46.93653106689453 102.1948394775391 46.56272888183594 102.1948394775391 46.1032600402832 L 102.1948394775391 12.56563949584961 C 102.1948394775391 12.10617923736572 101.8210372924805 11.73238945007324 101.3615798950195 11.73238945007324 L 71.88283538818359 11.73238945007324 Z M 95.56557464599609 2.547909259796143 C 95.47731018066406 2.547909259796143 95.38848876953125 2.562429189682007 95.30156707763672 2.591079235076904 L 76.3233642578125 8.85054874420166 L 76.43299865722656 9.532938957214355 L 96.04583740234375 9.532938957214355 L 96.39583587646484 9.532938957214355 L 96.39583587646484 9.182939529418945 L 96.39583587646484 3.382389068603516 C 96.39583587646484 3.111829280853271 96.27008819580078 2.865739107131958 96.05082702636719 2.707219123840332 C 95.95009613037109 2.634479284286499 95.78429412841797 2.547909259796143 95.56557464599609 2.547909259796143 Z" stroke="none"/>
        <path d="M 95.55921936035156 0.70050048828125 L 95.55923461914062 0.70050048828125 C 95.27365112304688 0.70050048828125 94.99201965332031 0.7456283569335938 94.72216033935547 0.8346595764160156 L 71.04244995117188 8.644668579101562 C 69.94044494628906 9.008220672607422 69.20003509521484 10.03212738037109 69.20003509521484 11.19252014160156 L 69.20003509521484 46.1032600402832 C 69.20003509521484 47.58256912231445 70.40353393554688 48.78606796264648 71.88283538818359 48.78606796264648 L 101.3615646362305 48.78606796264648 C 102.8408813476562 48.78606796264648 104.0443878173828 47.58256912231445 104.0443878173828 46.1032600402832 L 104.0443878173828 12.56565093994141 C 104.0443878173828 11.08633804321289 102.8408813476562 9.882839202880859 101.3615646362305 9.882839202880859 L 98.24527740478516 9.882839202880859 L 98.24527740478516 3.382389068603516 C 98.24527740478516 2.524127960205078 97.830078125 1.711490631103516 97.13460540771484 1.208580017089844 C 96.68155670166016 0.880950927734375 96.1220703125 0.7005195617675781 95.55921936035156 0.70050048828125 M 96.74583435058594 9.882930755615234 L 76.43299865722656 9.882930755615234 L 76.21373748779297 8.518157958984375 L 95.19195556640625 2.258678436279297 C 95.31428527832031 2.218360900878906 95.43999481201172 2.197910308837891 95.56558990478516 2.197910308837891 C 95.87786865234375 2.197910308837891 96.11318969726562 2.320510864257812 96.25593566894531 2.423610687255859 C 96.56727600097656 2.648738861083984 96.74583435058594 2.998199462890625 96.74583435058594 3.382389068603516 L 96.74583435058594 9.882930755615234 M 101.3615646362305 47.28651809692383 L 71.88283538818359 47.28651809692383 C 71.23038482666016 47.28651809692383 70.69957733154297 46.75571060180664 70.69957733154297 46.1032600402832 L 70.69957733154297 12.56563949584961 C 70.69957733154297 11.91318893432617 71.23038482666016 11.38238906860352 71.88283538818359 11.38238906860352 L 101.3615646362305 11.38238906860352 C 102.014030456543 11.38238906860352 102.5448379516602 11.91318893432617 102.5448379516602 12.56563949584961 L 102.5448379516602 46.1032600402832 C 102.5448379516602 46.75571060180664 102.014030456543 47.28651809692383 101.3615646362305 47.28651809692383 M 95.55934143066406 0.000499725341796875 C 96.26375579833984 0.000514984130859375 96.96183013916016 0.2197837829589844 97.5447998046875 0.6413497924804688 C 98.42171478271484 1.275478363037109 98.94527435302734 2.300178527832031 98.94527435302734 3.382389068603516 L 98.94527435302734 9.182838439941406 L 101.3615646362305 9.182838439941406 C 103.2268676757812 9.182838439941406 104.744384765625 10.70045852661133 104.744384765625 12.56565093994141 L 104.744384765625 46.1032600402832 C 104.744384765625 47.96854019165039 103.2268676757812 49.48606872558594 101.3615646362305 49.48606872558594 L 71.88283538818359 49.48606872558594 C 70.01755523681641 49.48606872558594 68.50003814697266 47.96854019165039 68.50003814697266 46.1032600402832 L 68.50003814697266 11.19252014160156 C 68.50003814697266 9.729400634765625 69.43358612060547 8.438327789306641 70.82313537597656 7.979907989501953 L 94.50289916992188 0.1698799133300781 C 94.84741973876953 0.0562286376953125 95.20415496826172 0.000492095947265625 95.55934143066406 0.000499725341796875 Z M 96.04583740234375 9.182929992675781 L 96.04583740234375 3.382389068603516 C 96.04583740234375 3.167530059814453 95.92048645019531 3.044879913330078 95.84576416015625 2.990848541259766 C 95.77095031738281 2.936820983886719 95.61524200439453 2.856231689453125 95.41111755371094 2.923488616943359 L 76.43299865722656 9.182929992675781 L 96.04583740234375 9.182929992675781 Z M 101.3615646362305 46.58651733398438 C 101.628044128418 46.58651733398438 101.844841003418 46.36972808837891 101.844841003418 46.1032600402832 L 101.844841003418 12.56563949584961 C 101.844841003418 12.29917907714844 101.628044128418 12.08238983154297 101.3615646362305 12.08238983154297 L 71.88283538818359 12.08238983154297 C 71.61637878417969 12.08238983154297 71.39957427978516 12.29917907714844 71.39957427978516 12.56563949584961 L 71.39957427978516 46.1032600402832 C 71.39957427978516 46.36972808837891 71.61637878417969 46.58651733398438 71.88283538818359 46.58651733398438 L 101.3615646362305 46.58651733398438 Z" stroke="none" fill="#fff"/>
      </g>
      <g id="Path_14024" data-name="Path 14024" transform="translate(-133.888 -149.417)" fill="#171717" stroke-linecap="round">
        <path d="M 161.5841827392578 178.0236358642578 L 144.1768493652344 178.0236358642578 L 142.4361114501953 178.0236358642578 C 141.8372344970703 178.0236358642578 141.3500061035156 177.5205535888672 141.3500061035156 176.9021759033203 C 141.3500061035156 176.2838287353516 141.8372344970703 175.7807464599609 142.4361114501953 175.7807464599609 L 142.8521118164062 175.7807464599609 L 143.1528015136719 175.7807464599609 L 143.1981048583984 175.4834899902344 C 143.4907684326172 173.5636901855469 144.3591461181641 171.8176574707031 145.7093963623047 170.4341735839844 C 147.0581512451172 169.0522155761719 148.7594299316406 168.1635894775391 150.6293334960938 167.8643188476562 L 150.9240264892578 167.8171691894531 L 150.9240264892578 167.5187225341797 L 150.9240264892578 166.7814331054688 C 150.9240264892578 166.1630554199219 151.4112548828125 165.6599884033203 152.0101470947266 165.6599884033203 C 152.6090545654297 165.6599884033203 153.0962982177734 166.1630554199219 153.0962982177734 166.7814331054688 L 153.0962982177734 167.5187225341797 L 153.0962982177734 167.8171691894531 L 153.3909759521484 167.8643188476562 C 155.2608642578125 168.1635894775391 156.9621429443359 169.0522155761719 158.3108978271484 170.4341888427734 C 159.6611480712891 171.8176727294922 160.529541015625 173.5636901855469 160.8222045898438 175.4835052490234 L 160.8675079345703 175.7807464599609 L 161.1681976318359 175.7807464599609 L 161.5841827392578 175.7807464599609 C 162.1830596923828 175.7807464599609 162.6702880859375 176.2838287353516 162.6702880859375 176.9021759033203 C 162.6702880859375 177.5205535888672 162.1830596923828 178.0236358642578 161.5841827392578 178.0236358642578 Z M 152.0101470947266 169.9975280761719 C 148.8972778320312 169.9975280761719 146.1315765380859 172.2502593994141 145.4339447021484 175.35400390625 L 145.3380279541016 175.7807464599609 L 145.7754211425781 175.7807464599609 L 158.2448577880859 175.7807464599609 L 158.6822662353516 175.7807464599609 L 158.5863342285156 175.35400390625 C 157.8887176513672 172.2502593994141 155.1230163574219 169.9975280761719 152.0101470947266 169.9975280761719 Z" stroke="none"/>
        <path d="M 161.5841827392578 177.6736450195312 C 161.9900665283203 177.6736450195312 162.3202819824219 177.3275604248047 162.3202819824219 176.9021759033203 C 162.3202819824219 176.476806640625 161.9900665283203 176.1307525634766 161.5841827392578 176.1307525634766 L 160.5668182373047 176.1307525634766 L 160.4761962890625 175.5362396240234 C 160.1946258544922 173.6891937255859 159.3592681884766 172.0094604492188 158.0604248046875 170.6786346435547 C 156.7645568847656 169.3508758544922 155.1307678222656 168.4972076416016 153.3356781005859 168.2099151611328 L 152.7462921142578 168.1156005859375 L 152.7462921142578 166.7814331054688 C 152.7462921142578 166.3560485839844 152.4160614013672 166.0099792480469 152.0101470947266 166.0099792480469 C 151.604248046875 166.0099792480469 151.2740173339844 166.3560485839844 151.2740173339844 166.7814331054688 L 151.2740173339844 168.1156005859375 L 150.6846466064453 168.2099151611328 C 148.8895263671875 168.4972229003906 147.2557373046875 169.3508758544922 145.9598846435547 170.6786346435547 C 144.6610260009766 172.0094604492188 143.8256683349609 173.6891937255859 143.5441284179688 175.5362396240234 L 143.4534912109375 176.1307525634766 L 142.4361114501953 176.1307525634766 C 142.0302276611328 176.1307525634766 141.6999969482422 176.476806640625 141.6999969482422 176.9021759033203 C 141.6999969482422 177.3275604248047 142.0302276611328 177.6736450195312 142.4361114501953 177.6736450195312 L 161.5841827392578 177.6736450195312 M 152.0101470947266 169.6475372314453 C 155.2853088378906 169.6475372314453 158.1945953369141 172.0151672363281 158.9278259277344 175.2772369384766 L 159.1196594238281 176.1307525634766 L 144.9006195068359 176.1307525634766 L 145.0924682617188 175.2772369384766 C 145.82568359375 172.0151672363281 148.7349853515625 169.6475372314453 152.0101470947266 169.6475372314453 M 161.5841827392578 178.3736419677734 L 142.4361114501953 178.3736419677734 C 141.6429901123047 178.3736419677734 141 177.7148284912109 141 176.9021759033203 C 141 176.0895385742188 141.6429901123047 175.4307556152344 142.4361114501953 175.4307556152344 L 142.8521118164062 175.4307556152344 C 143.4711608886719 171.3697204589844 146.6105804443359 168.1530303955078 150.5740203857422 167.5187225341797 L 150.5740203857422 166.7814331054688 C 150.5740203857422 165.9688110351562 151.217041015625 165.3099822998047 152.0101470947266 165.3099822998047 C 152.8032531738281 165.3099822998047 153.4462890625 165.9688110351562 153.4462890625 166.7814331054688 L 153.4462890625 167.5187225341797 C 157.4096984863281 168.1530303955078 160.5491333007812 171.3697204589844 161.1681976318359 175.4307556152344 L 161.5841827392578 175.4307556152344 C 162.3772583007812 175.4307556152344 163.0202789306641 176.0895385742188 163.0202789306641 176.9021759033203 C 163.0202789306641 177.7148284912109 162.3772583007812 178.3736419677734 161.5841827392578 178.3736419677734 Z M 158.2448577880859 175.4307556152344 C 157.5912322998047 172.5227661132812 155.0439758300781 170.3475341796875 152.0101470947266 170.3475341796875 C 148.9764251708984 170.3475341796875 146.4290466308594 172.5227661132812 145.7754211425781 175.4307556152344 L 158.2448577880859 175.4307556152344 Z" stroke="none" fill="#fff"/>
      </g>
      <g id="Path_14025" data-name="Path 14025" transform="translate(-139.29 -306.27)" fill="#171717" stroke-linecap="round">
        <path d="M 155.3514862060547 341.5980529785156 L 148.2884826660156 341.5980529785156 C 147.6701202392578 341.5980529785156 147.1670379638672 341.0950012207031 147.1670379638672 340.4766540527344 C 147.1670379638672 339.8582763671875 147.6701202392578 339.3551940917969 148.2884826660156 339.3551940917969 L 155.3514862060547 339.3551940917969 C 155.9698486328125 339.3551940917969 156.4729309082031 339.8582763671875 156.4729309082031 340.4766540527344 C 156.4729309082031 341.0950012207031 155.9698486328125 341.5980529785156 155.3514862060547 341.5980529785156 Z" stroke="none"/>
        <path d="M 148.2884826660156 339.7051696777344 C 147.8631134033203 339.7051696777344 147.5170288085938 340.05126953125 147.5170288085938 340.4766540527344 C 147.5170288085938 340.9020080566406 147.8631134033203 341.2480773925781 148.2884826660156 341.2480773925781 L 155.3514862060547 341.2480773925781 C 155.77685546875 341.2480773925781 156.1229095458984 340.9020080566406 156.1229095458984 340.4766540527344 C 156.1229095458984 340.05126953125 155.77685546875 339.7051696777344 155.3514862060547 339.7051696777344 L 148.2884826660156 339.7051696777344 M 148.2884826660156 339.0051879882812 L 155.3514862060547 339.0051879882812 C 156.1641082763672 339.0051879882812 156.8229217529297 339.6639404296875 156.8229217529297 340.4766540527344 C 156.8229217529297 341.2892150878906 156.1641082763672 341.9480590820312 155.3514862060547 341.9480590820312 L 148.2884826660156 341.9480590820312 C 147.4758453369141 341.9480590820312 146.8170318603516 341.2892150878906 146.8170318603516 340.4766540527344 C 146.8170318603516 339.6639404296875 147.4758453369141 339.0051879882812 148.2884826660156 339.0051879882812 Z" stroke="none" fill="#fff"/>
      </g>
      <g id="Path_14026" data-name="Path 14026" transform="translate(-137.27 -360.477)" fill="#171717" stroke-linecap="round">
        <path d="M 164.5997009277344 401.5981750488281 L 146.1849365234375 401.5981750488281 C 145.5867462158203 401.5981750488281 145.1000671386719 401.0950927734375 145.1000671386719 400.4767456054688 C 145.1000671386719 399.8583374023438 145.5867462158203 399.3552551269531 146.1849365234375 399.3552551269531 L 164.5997009277344 399.3552551269531 C 165.1979064941406 399.3552551269531 165.6846008300781 399.8583374023438 165.6846008300781 400.4767456054688 C 165.6846008300781 401.0950927734375 165.1979064941406 401.5981750488281 164.5997009277344 401.5981750488281 Z" stroke="none"/>
        <path d="M 146.1849365234375 399.7052307128906 C 145.7797393798828 399.7052307128906 145.4500732421875 400.0513305664062 145.4500732421875 400.4767456054688 C 145.4500732421875 400.9021301269531 145.7797393798828 401.2481994628906 146.1849365234375 401.2481994628906 L 164.5997009277344 401.2481994628906 C 165.0049285888672 401.2481994628906 165.3345947265625 400.9021301269531 165.3345947265625 400.4767456054688 C 165.3345947265625 400.0513305664062 165.0049285888672 399.7052307128906 164.5997009277344 399.7052307128906 L 146.1849365234375 399.7052307128906 M 146.1849365234375 399.0052490234375 L 164.5997009277344 399.0052490234375 C 165.3921508789062 399.0052490234375 166.0345916748047 399.6640625 166.0345916748047 400.4767456054688 C 166.0345916748047 401.289306640625 165.3921508789062 401.9481811523438 164.5997009277344 401.9481811523438 L 146.1849365234375 401.9481811523438 C 145.3925170898438 401.9481811523438 144.7500762939453 401.289306640625 144.7500762939453 400.4767456054688 C 144.7500762939453 399.6640625 145.3925170898438 399.0052490234375 146.1849365234375 399.0052490234375 Z" stroke="none" fill="#fff"/>
      </g>
    </g>
  </g>
</svg>
