<svg xmlns="http://www.w3.org/2000/svg" xmlns:xlink="http://www.w3.org/1999/xlink" width="46" height="46" viewBox="0 0 46 46">
  <defs>
    <clipPath id="clip-path">
      <path id="path2859" d="M0-682.665H26.908v26.908H0Z" transform="translate(0 682.665)" fill="none"/>
    </clipPath>
  </defs>
  <g id="Group_72681" data-name="Group 72681" transform="translate(-480 -3942)">
    <g id="Ellipse_690" data-name="Ellipse 690" transform="translate(480 3942)" fill="#d90429" stroke="#fff" stroke-width="0.5">
      <circle cx="23" cy="23" r="23" stroke="none"/>
      <circle cx="23" cy="23" r="22.75" fill="none"/>
    </g>
    <g id="g2853" transform="translate(490 4634.665)">
      <g id="g2855" transform="translate(0 -682.665)">
        <g id="g2857" clip-path="url(#clip-path)">
          <g id="g2863" transform="translate(9.613 10.745)">
            <path id="path2865" d="M0-155.775v.539a.616.616,0,0,0,.615.615H16.286a.616.616,0,0,0,.615-.615v-.539C16.9-164.3,0-164.3,0-155.775Z" transform="translate(0 162.167)" fill="none" stroke="#fff" stroke-linecap="round" stroke-linejoin="round" stroke-width="0.6"/>
          </g>
          <g id="g2867" transform="translate(2.518 14.385)">
            <path id="path2869" d="M-183.466-175.37l-6.593,2.284m-.935-6.865,7.8-2.615" transform="translate(190.994 182.566)" fill="none" stroke="#fff" stroke-linecap="round" stroke-linejoin="round" stroke-width="0.6"/>
          </g>
          <g id="g2871" transform="translate(24.259 16.32)">
            <path id="path2873" d="M0,0,0,0" fill="none" stroke="#fff" stroke-linecap="round" stroke-linejoin="round" stroke-width="0.6"/>
          </g>
          <g id="g2875" transform="translate(21.78 16.32)">
            <path id="path2877" d="M0,0,0,0" fill="none" stroke="#fff" stroke-linecap="round" stroke-linejoin="round" stroke-width="0.6"/>
          </g>
          <g id="g2879" transform="translate(19.302 16.32)">
            <path id="path2881" d="M0,0,0,0" fill="none" stroke="#fff" stroke-linecap="round" stroke-linejoin="round" stroke-width="0.6"/>
          </g>
          <g id="g2883" transform="translate(16.823 16.32)">
            <path id="path2885" d="M0,0,0,0" fill="none" stroke="#fff" stroke-linecap="round" stroke-linejoin="round" stroke-width="0.6"/>
          </g>
          <g id="g2887" transform="translate(14.344 16.32)">
            <path id="path2889" d="M0,0,0,0" fill="none" stroke="#fff" stroke-linecap="round" stroke-linejoin="round" stroke-width="0.6"/>
          </g>
          <g id="g2891" transform="translate(11.866 16.32)">
            <path id="path2893" d="M0,0,0,0" fill="none" stroke="#fff" stroke-linecap="round" stroke-linejoin="round" stroke-width="0.6"/>
          </g>
          <g id="g2895" transform="translate(23.02 14.435)">
            <path id="path2897" d="M0,0,0,0" fill="none" stroke="#fff" stroke-linecap="round" stroke-linejoin="round" stroke-width="0.6"/>
          </g>
          <g id="g2899" transform="translate(20.54 14.435)">
            <path id="path2901" d="M0,0,0,0" fill="none" stroke="#fff" stroke-linecap="round" stroke-linejoin="round" stroke-width="0.6"/>
          </g>
          <g id="g2903" transform="translate(18.059 14.432)">
            <path id="path2905" d="M0,0,0,0" fill="none" stroke="#fff" stroke-linecap="round" stroke-linejoin="round" stroke-width="0.6"/>
          </g>
          <g id="g2907" transform="translate(15.58 14.432)">
            <path id="path2909" d="M0,0,0,0" fill="none" stroke="#fff" stroke-linecap="round" stroke-linejoin="round" stroke-width="0.6"/>
          </g>
          <g id="g2911" transform="translate(13.098 14.428)">
            <path id="path2913" d="M0,0,0,0" fill="none" stroke="#fff" stroke-linecap="round" stroke-linejoin="round" stroke-width="0.6"/>
          </g>
          <g id="g2915" transform="translate(19.299 12.552)">
            <path id="path2917" d="M-.074,0l0,0" transform="translate(0.077)" fill="none" stroke="#fff" stroke-linecap="round" stroke-linejoin="round" stroke-width="0.6"/>
          </g>
          <g id="g2919" transform="translate(16.82 12.552)">
            <path id="path2921" d="M-.074,0l0,0" transform="translate(0.077)" fill="none" stroke="#fff" stroke-linecap="round" stroke-linejoin="round" stroke-width="0.6"/>
          </g>
          <g id="g2923" transform="translate(9.613 23.96)">
            <path id="path2925" d="M-197.374,0h-7.818a.281.281,0,0,0-.281.279v1A1.281,1.281,0,0,0-204.2,2.553h14.348a1.281,1.281,0,0,0,1.277-1.277v-1A.281.281,0,0,0-188.853,0h-6.666" transform="translate(205.473)" fill="none" stroke="#fff" stroke-linecap="round" stroke-linejoin="round" stroke-width="0.6"/>
          </g>
          <g id="g2927" transform="translate(0.394 6.142)">
            <path id="path2929" d="M-208.249-53.413h-7.9a.646.646,0,0,1-.644-.644v-.9a.646.646,0,0,1,.644-.645h16.989a.646.646,0,0,1,.644.645v.9a.646.646,0,0,1-.644.644h-7.214" transform="translate(216.794 55.605)" fill="none" stroke="#fff" stroke-linecap="round" stroke-linejoin="round" stroke-width="0.6"/>
          </g>
          <g id="g2931" transform="translate(8.95 0.396)">
            <path id="path2933" d="M0-140.026v-3.8a.874.874,0,0,1,.66-.855l4.087-1.066a.887.887,0,0,1,1.078.633.887.887,0,0,1-.631,1.076l-3.429.892v3.116" transform="translate(0 145.771)" fill="none" stroke="#fff" stroke-linecap="round" stroke-linejoin="round" stroke-width="0.6"/>
          </g>
          <g id="g2935" transform="translate(1.337 8.333)">
            <path id="path2937" d="M-232.809-443.03h-6.279a.977.977,0,0,1-.923-.923l-2.351-17.257m16.391,0-.331,2.43" transform="translate(242.362 461.21)" fill="none" stroke="#fff" stroke-linecap="round" stroke-linejoin="round" stroke-width="0.6"/>
          </g>
          <g id="g2939" transform="translate(10.812 18.291)">
            <path id="path2941" d="M-353.431,0a1.814,1.814,0,0,1-3.017,1.606c-.115-.1-.153-.114-.261,0a1.7,1.7,0,0,1-1.237.562,1.708,1.708,0,0,1-1.239-.562c-.114-.1-.153-.114-.26,0a1.7,1.7,0,0,1-1.239.562A1.7,1.7,0,0,1-361.92,1.6c-.106-.112-.146-.1-.261,0a1.7,1.7,0,0,1-1.237.562,1.7,1.7,0,0,1-1.237-.562c-.108-.112-.147-.1-.261,0A1.814,1.814,0,0,1-367.934,0" transform="translate(367.934 0)" fill="none" stroke="#fff" stroke-linecap="round" stroke-linejoin="round" stroke-width="0.6"/>
          </g>
          <g id="g2943" transform="translate(9.868 19.76)">
            <path id="path2945" d="M-34.14,0h-.2a1.2,1.2,0,0,0-1.2,1.2,1.2,1.2,0,0,0,1.2,1.2h14a1.2,1.2,0,0,0,1.2-1.2,1.2,1.2,0,0,0-1.2-1.2h-.2" transform="translate(35.541)" fill="none" stroke="#fff" stroke-linecap="round" stroke-linejoin="round" stroke-width="0.6"/>
          </g>
          <g id="g2947" transform="translate(11.033 22.153)">
            <path id="path2949" d="M-342.7-44.018v-1.806m-14.063,0v1.806" transform="translate(356.767 45.824)" fill="none" stroke="#fff" stroke-linecap="round" stroke-linejoin="round" stroke-width="0.6"/>
          </g>
        </g>
      </g>
    </g>
  </g>
</svg>
