<svg xmlns="http://www.w3.org/2000/svg" width="46" height="46" viewBox="0 0 46 46">
  <g id="Group_72680" data-name="Group 72680" transform="translate(-480 -4005)">
    <g id="Ellipse_690" data-name="Ellipse 690" transform="translate(480 4005)" fill="#d90429" stroke="#fff" stroke-width="0.5">
      <circle cx="23" cy="23" r="23" stroke="none"/>
      <circle cx="23" cy="23" r="22.75" fill="none"/>
    </g>
    <g id="bakery-truck" transform="translate(469 3912.26)">
      <g id="_2669_-_Bakery_Truck" transform="translate(20 106.74)">
        <path id="Path_23161" data-name="Path 23161" d="M355.4,181.134h-1.138a.281.281,0,1,1,0-.562H355.4a.876.876,0,0,0,.875-.875v-4.932l-2.079-.52a.282.282,0,0,1-.207-.217l-1.1-5.506h-5.8v12.049h2.584a.281.281,0,0,1,0,.562h-2.865a.281.281,0,0,1-.281-.281V168.241a.281.281,0,0,1,.281-.281h6.306a.281.281,0,0,1,.275.225l1.112,5.559,2.12.53a.281.281,0,0,1,.213.272v5.15A1.439,1.439,0,0,1,355.4,181.134Z" transform="translate(-328.185 -164.521)" fill="#fff" stroke="#fff" stroke-width="0.2"/>
        <path id="Path_23162" data-name="Path 23162" d="M38.626,123.353H27.16a.281.281,0,0,1,0-.562H38.345V107.3H20.562v14.615a.876.876,0,0,0,.875.875h1.138a.281.281,0,1,1,0,.562H21.437A1.438,1.438,0,0,1,20,121.917v-14.9a.281.281,0,0,1,.281-.281H38.626a.281.281,0,0,1,.281.281v16.051A.281.281,0,0,1,38.626,123.353Z" transform="translate(-20 -106.74)" fill="#fff" stroke="#fff" stroke-width="0.2"/>
        <path id="Path_23163" data-name="Path 23163" d="M22.162,111.315h-.094A2.072,2.072,0,0,1,20,109.246v-2.225a.281.281,0,0,1,.281-.281H23.95a.281.281,0,0,1,.281.281v2.225A2.072,2.072,0,0,1,22.162,111.315Zm-1.6-4.013v1.944a1.508,1.508,0,0,0,1.507,1.507h.094a1.508,1.508,0,0,0,1.507-1.507V107.3Z" transform="translate(-20 -106.74)" fill="#fff" stroke="#fff" stroke-width="0.2"/>
        <path id="Path_23164" data-name="Path 23164" d="M87.472,111.315h-.094a2.071,2.071,0,0,1-2.068-2.069v-2.225a.281.281,0,0,1,.281-.281H89.26a.281.281,0,0,1,.281.281v2.225A2.071,2.071,0,0,1,87.472,111.315Zm-1.6-4.013v1.944a1.509,1.509,0,0,0,1.506,1.507h.094a1.509,1.509,0,0,0,1.506-1.507V107.3Z" transform="translate(-81.641 -106.74)" fill="#fff" stroke="#fff" stroke-width="0.2"/>
        <path id="Path_23165" data-name="Path 23165" d="M152.772,111.315h-.094a2.072,2.072,0,0,1-2.069-2.069v-2.225a.281.281,0,0,1,.281-.281h3.669a.281.281,0,0,1,.281.281v2.225A2.072,2.072,0,0,1,152.772,111.315Zm-1.6-4.013v1.944a1.508,1.508,0,0,0,1.507,1.507h.094a1.508,1.508,0,0,0,1.507-1.507V107.3Z" transform="translate(-143.272 -106.74)" fill="#fff" stroke="#fff" stroke-width="0.2"/>
        <path id="Path_23166" data-name="Path 23166" d="M218.082,111.315h-.094a2.071,2.071,0,0,1-2.068-2.069v-2.225a.281.281,0,0,1,.281-.281h3.669a.281.281,0,0,1,.281.281v2.225A2.071,2.071,0,0,1,218.082,111.315Zm-1.6-4.013v1.944a1.509,1.509,0,0,0,1.506,1.507h.094a1.509,1.509,0,0,0,1.506-1.507V107.3Z" transform="translate(-204.913 -106.74)" fill="#fff" stroke="#fff" stroke-width="0.2"/>
        <path id="Path_23167" data-name="Path 23167" d="M283.345,111.315h-.1a2.072,2.072,0,0,1-2.069-2.069v-2.225a.281.281,0,0,1,.281-.281h3.669a.281.281,0,0,1,.281.281v2.225A2.072,2.072,0,0,1,283.345,111.315Zm-1.6-4.013v1.944a1.509,1.509,0,0,0,1.5,1.507h.094a1.508,1.508,0,0,0,1.507-1.507V107.3Z" transform="translate(-266.507 -106.74)" fill="#fff" stroke="#fff" stroke-width="0.2"/>
        <path id="Path_23168" data-name="Path 23168" d="M354.263,270.572h-7.452a.281.281,0,0,1,0-.562h7.452a.281.281,0,0,1,0,.562Z" transform="translate(-328.185 -260.837)" fill="#fff" stroke="#fff" stroke-width="0.2"/>
        <path id="Path_23169" data-name="Path 23169" d="M388.777,311.382h-1.146a.281.281,0,1,1,0-.562h1.146a.281.281,0,1,1,0,.562Z" transform="translate(-366.712 -299.355)" fill="#fff" stroke="#fff" stroke-width="0.2"/>
        <path id="Path_23170" data-name="Path 23170" d="M74.859,185.212H61.1a.281.281,0,0,1-.281-.281v-7.51a.281.281,0,0,1,.562,0v7.229h13.2v-7.229a.281.281,0,0,1,.562,0v7.51A.281.281,0,0,1,74.859,185.212Z" transform="translate(-58.527 -173.185)" fill="#fff" stroke="#fff" stroke-width="0.2"/>
        <path id="Path_23171" data-name="Path 23171" d="M400.115,356.778a2.574,2.574,0,1,1,2.574-2.575h0A2.577,2.577,0,0,1,400.115,356.778Zm0-4.586a2.012,2.012,0,1,0,2.012,2.013h0A2.014,2.014,0,0,0,400.115,352.192Z" transform="translate(-376.329 -337.872)" fill="#fff" stroke="#fff" stroke-width="0.2"/>
        <path id="Path_23172" data-name="Path 23172" d="M63.384,356.778a2.574,2.574,0,1,1,2.574-2.574A2.574,2.574,0,0,1,63.384,356.778Zm0-4.586A2.012,2.012,0,1,0,65.4,354.2h0A2.014,2.014,0,0,0,63.384,352.192Z" transform="translate(-58.517 -337.872)" fill="#fff" stroke="#fff" stroke-width="0.2"/>
        <path id="Path_23173" data-name="Path 23173" d="M164.278,221.825a1.428,1.428,0,1,1,1.427-1.428h0A1.428,1.428,0,0,1,164.278,221.825Zm0-2.293a.866.866,0,1,0,.865.866h0A.866.866,0,0,0,164.278,219.532Z" transform="translate(-154.825 -212.665)" fill="#fff" stroke="#fff" stroke-width="0.2"/>
        <path id="Path_23174" data-name="Path 23174" d="M138.3,263.247a.281.281,0,0,1-.281-.281,2.584,2.584,0,0,0-5.169,0,.281.281,0,1,1-.562,0,3.146,3.146,0,0,1,6.292,0A.281.281,0,0,1,138.3,263.247Z" transform="translate(-125.981 -251.22)" fill="#fff" stroke="#fff" stroke-width="0.2"/>
      </g>
    </g>
  </g>
</svg>
