<svg xmlns="http://www.w3.org/2000/svg" width="47" height="47" viewBox="0 0 47 47">
  <g id="Group_72684" data-name="Group 72684" transform="translate(-479.5 -3753.5)">
    <g id="Ellipse_690" data-name="Ellipse 690" transform="translate(480 3754)" fill="#d90429" stroke="#fff" stroke-width="0.5">
      <circle cx="23" cy="23" r="23" stroke="none"/>
      <circle cx="23" cy="23" r="23.25" fill="none"/>
    </g>
    <g id="_x30_7_x2C__dinner_x2C__dinner_table_x2C__party_x2C__dine_x2C__food_and_restaurant" transform="translate(490 3726)">
      <g id="XMLID_667_" transform="translate(1 41)">
        <g id="XMLID_668_" transform="translate(0 0)">
          <path id="XMLID_681_" d="M320.073,61h-.955a1.912,1.912,0,0,0-1.91,1.91v8.118h-4.3a1.912,1.912,0,0,0-1.91,1.91V80.1a.478.478,0,0,0,.478.478h1.91a.478.478,0,0,0,.478-.478v-5.73h3.82V80.1a.478.478,0,0,0,.478.478h1.91a.478.478,0,0,0,.478-.478V61.478A.478.478,0,0,0,320.073,61ZM312.91,79.624h-.955V74.371h.955Zm6.685,0h-.955V74.371h.955Zm0-6.208h-7.64v-.478a.956.956,0,0,1,.955-.955h4.775a.478.478,0,0,0,.478-.478v-8.6a.956.956,0,0,1,.955-.955h.478Z" transform="translate(-296.197 -60.045)" fill="#fff"/>
          <path id="XMLID_676_" d="M8.64,71.028h-4.3V62.91A1.912,1.912,0,0,0,2.433,61H1.478A.478.478,0,0,0,1,61.478V80.1a.478.478,0,0,0,.478.478h1.91a.478.478,0,0,0,.478-.478v-5.73h3.82V80.1a.478.478,0,0,0,.478.478h1.91a.478.478,0,0,0,.478-.478V72.938A1.912,1.912,0,0,0,8.64,71.028Zm-5.73,8.6H1.955V74.371H2.91Zm6.685,0H8.64V74.371H9.6Zm0-6.208H1.955V61.955h.478a.956.956,0,0,1,.955.955v8.6a.478.478,0,0,0,.478.478H8.64a.956.956,0,0,1,.955.955Z" transform="translate(-1 -60.045)" fill="#fff"/>
          <path id="XMLID_669_" d="M106.758,50.551V47.685a1.912,1.912,0,0,0-1.91-1.91V44.738a1.435,1.435,0,0,0,.955-1.35v-1.91a.478.478,0,0,0-.478-.478h-1.91a.478.478,0,0,0-.478.478v1.91a1.435,1.435,0,0,0,.955,1.35v1.037h-1.671a3.347,3.347,0,0,0-2.865-3.308v-.512a.478.478,0,0,0-.955,0v.512a3.347,3.347,0,0,0-2.865,3.308H93.865V44.738a1.435,1.435,0,0,0,.955-1.35v-1.91A.478.478,0,0,0,94.343,41h-1.91a.478.478,0,0,0-.478.478v1.91a1.435,1.435,0,0,0,.955,1.35v1.037A1.912,1.912,0,0,0,91,47.685v2.865a.478.478,0,0,0,.478.478h5.969V61.056a.478.478,0,0,0,.478.478h1.91a.478.478,0,0,0,.478-.478V51.028h5.969A.478.478,0,0,0,106.758,50.551Zm-2.865-8.6h.955v1.433a.478.478,0,1,1-.955,0Zm-5.014,1.433a2.39,2.39,0,0,1,2.388,2.388H96.492A2.39,2.39,0,0,1,98.879,43.388ZM92.91,41.955h.955v1.433a.478.478,0,1,1-.955,0Zm6.447,18.624H98.4V51.028h.955ZM105.8,50.073H91.955V47.685a.956.956,0,0,1,.955-.955h11.938a.956.956,0,0,1,.955.955Z" transform="translate(-86.702 -41)" fill="#fff"/>
        </g>
      </g>
    </g>
  </g>
</svg>
