<svg xmlns="http://www.w3.org/2000/svg" width="46" height="46" viewBox="0 0 46 46">
  <g id="Group_72683" data-name="Group 72683" transform="translate(-480 -3817)">
    <g id="Ellipse_690" data-name="Ellipse 690" transform="translate(480 3817)" fill="#d90429" stroke="#fff" stroke-width="0.5">
      <circle cx="23" cy="23" r="23" stroke="none"/>
      <circle cx="23" cy="23" r="22.75" fill="none"/>
    </g>
    <path id="fast-delivery" d="M23,19.358h-.137l-1.5-3.5a2.076,2.076,0,0,0,.805.174.415.415,0,0,0,.415-.415V12.3a.415.415,0,0,0-.415-.415A2.075,2.075,0,0,0,20.215,13.3a1.532,1.532,0,0,0-1.046-.627,2.076,2.076,0,0,0-.789.05h-.361c-.7,0-1.013-.415-1.5-1.092l-.245-.345a1.432,1.432,0,0,0,.706-.228,1.5,1.5,0,0,0,.6-.984,1.166,1.166,0,0,0,.548-.722A.743.743,0,0,0,17.9,8.7a1.98,1.98,0,0,1-.27-.955.415.415,0,0,0,.39-.423,3.321,3.321,0,1,0-5.687,2.333,3.379,3.379,0,0,0,.291.257,4.438,4.438,0,0,0-2.877,3.2,1.32,1.32,0,0,0-.938-.39H4.4a1.32,1.32,0,0,0-1.112.606.416.416,0,1,0,.7.452.49.49,0,0,1,.415-.224h.751V14.8a.415.415,0,0,0,.415.415H7.642a.415.415,0,0,0,.415-.415V13.547h.751a.494.494,0,0,1,.494.494v3.167a.494.494,0,0,1-.494.49H4.4a.486.486,0,0,1-.494-.415h.83a.415.415,0,0,0,0-.83h-.83v-.83h.415a.415.415,0,1,0,0-.83H2.245a.415.415,0,1,0,0,.83h.83v.83H1.415a.415.415,0,0,0,0,.83h1.66a1.32,1.32,0,0,0,1.316,1.245H6.467a2.769,2.769,0,0,0-.486.639,7.609,7.609,0,0,0-.83,3.512.415.415,0,0,0,.415.415H6.84a3.321,3.321,0,0,0,6.583,0h6.285A3.321,3.321,0,1,0,23,19.358ZM7.226,14.377H5.981v-.83H7.226Zm14.528-1.59v2.349a1.245,1.245,0,0,1,0-2.349Zm-2.706.7a.8.8,0,0,1,.664.635l.108.253a3.777,3.777,0,0,1-1.872.415,1.1,1.1,0,0,1,.614-1.245,1.212,1.212,0,0,1,.486-.054ZM17,9.437a.415.415,0,0,0-.228.374.751.751,0,0,1-.262.548,1.477,1.477,0,0,1-1.245-.1.415.415,0,0,0-.091,0l-.062-.054V8.611a.876.876,0,0,1,.876-.876h.785a2.777,2.777,0,0,0,.486,1.5,1.1,1.1,0,0,1-.257.2ZM12.208,7.283A2.536,2.536,0,0,1,14.661,4.83H14.7a2.491,2.491,0,0,1,2.457,2.075H15.989a1.71,1.71,0,0,0-1.706,1.706V9.778a2.491,2.491,0,0,1-2.075-2.491Zm1.245,3.358A2.614,2.614,0,0,1,15.836,12.1a3.019,3.019,0,0,0,1.577,1.357,2.075,2.075,0,0,0-.3,1.27,3.777,3.777,0,0,1-2.47-1.81.415.415,0,1,0-.71.415,5.051,5.051,0,0,0,.515.714l-.037.025a3.616,3.616,0,0,0-.793,1.552H10.132v-.415C10.161,14.954,10.634,10.641,13.453,10.641ZM10.132,17.2v-.751h3.736a2.015,2.015,0,0,1,2.075,2.075V20.6h-1.66v-.83A2,2,0,0,0,12.208,17.7H10.037a1.312,1.312,0,0,0,.1-.494Zm0,7.966a2.491,2.491,0,0,1-2.453-2.075H8.53a1.66,1.66,0,0,0,3.2,0h.851a2.491,2.491,0,0,1-2.453,2.075Zm-.714-2.076h1.428a.83.83,0,0,1-1.428,0Zm-3.437-.83a6.679,6.679,0,0,1,.755-2.736,1.9,1.9,0,0,1,1.706-1h3.765a1.183,1.183,0,0,1,1.245,1.245v1.245a2.076,2.076,0,0,0,.415,1.245Zm9.547,0a1.245,1.245,0,0,1-1.171-.83h2a.78.78,0,0,1,.83.8,3.32,3.32,0,0,1-.415.029Zm2.661-.486a1.071,1.071,0,0,1-.2.178,1.552,1.552,0,0,0-1.212-1.3V18.528a2.723,2.723,0,0,0-2.316-2.843,2.806,2.806,0,0,1,.535-1.017.39.39,0,0,0,.029-.046,4.537,4.537,0,0,0,2.242.971l1.171,5.089A1.478,1.478,0,0,1,18.189,21.778Zm1.075-1.266-1.142-4.89a4.467,4.467,0,0,0,2.026-.465l1.959,4.566-1.81,2.54H18.849a2.325,2.325,0,0,0,.415-1.752ZM23,22.264h-.714a.83.83,0,1,1,0,.83H23a.415.415,0,1,0,0-.83Zm-1.685,0,.145-.2a1.661,1.661,0,0,0-.062.2ZM23,25.17a2.491,2.491,0,0,1-2.453-2.075H21.4a1.66,1.66,0,1,0,.506-1.66l.884-1.245H23a2.491,2.491,0,1,1,0,4.981Z" transform="translate(489 3825.001)" fill="#fff"/>
  </g>
</svg>
