<svg xmlns="http://www.w3.org/2000/svg" width="46" height="46" viewBox="0 0 46 46">
  <g id="Group_72682" data-name="Group 72682" transform="translate(-480 -3880)">
    <g id="Ellipse_690" data-name="Ellipse 690" transform="translate(480 3880)" fill="#d90429" stroke="#fff" stroke-width="0.5">
      <circle cx="23" cy="23" r="23" stroke="none"/>
      <circle cx="23" cy="23" r="22.75" fill="none"/>
    </g>
    <g id="cocktail" transform="translate(480.33 3891)">
      <g id="Group_72613" data-name="Group 72613" transform="translate(10.669)">
        <path id="Path_23178" data-name="Path 23178" d="M28.024,10.031a5.122,5.122,0,0,0,.837.076,4.974,4.974,0,0,0,3.569-1.48,4.978,4.978,0,0,0,1.485-3.574A5.06,5.06,0,0,0,28.86,0a5.016,5.016,0,0,0-4.932,4.043H19.573l-2.03-2.218a2.391,2.391,0,0,0-2.75-.609l-3.82,1.668a.505.505,0,0,0,.4.926L15.2,2.139a1.367,1.367,0,0,1,1.593.365L18.2,4.042H15.217a.505.505,0,0,0-.408.8L22.8,15.829v7.416H17.238a.505.505,0,0,0,0,1.011H29.366a.505.505,0,0,0,0-1.011H23.807V15.829ZM26.006,2.194a4.043,4.043,0,0,1,6.9,2.859,4.049,4.049,0,0,1-4.2,4.04L31.8,4.844a.505.505,0,0,0-.409-.8H24.954A3.974,3.974,0,0,1,26.006,2.194ZM23.3,14.806,16.208,5.053H30.4L27.391,9.182h0Z" transform="translate(-10.669 0)" fill="#fff"/>
      </g>
    </g>
  </g>
</svg>
