<svg xmlns="http://www.w3.org/2000/svg" width="46" height="46" viewBox="0 0 46 46">
  <g id="Group_71839" data-name="Group 71839" transform="translate(-470 -3813)">
    <g id="Ellipse_690" data-name="Ellipse 690" transform="translate(470 3813)" fill="#b54e3d" stroke="#fff" stroke-width="1">
      <circle cx="23" cy="23" r="23" stroke="none"/>
      <circle cx="23" cy="23" r="22.5" fill="none"/>
    </g>
    <g id="fair-stand" transform="translate(481.861 3824.865)">
      <path id="Path_14751" data-name="Path 14751" d="M39.512,21.887a.575.575,0,0,0-.069-.335c-.348-.52-2.089-3.2-2.682-4.114a.417.417,0,0,0-.349-.189H20.341a.417.417,0,0,0-.349.189l-2.679,4.11a.584.584,0,0,0-.071.339,2.206,2.206,0,0,0,1.786,2.163v5.586h-.471a1.316,1.316,0,0,0-1.315,1.315v.342a1.316,1.316,0,0,0,1.2,1.31v6.5a.417.417,0,0,0,.417.417H37.893a.417.417,0,0,0,.417-.417V32.6a1.316,1.316,0,0,0,1.2-1.31v-.342A1.316,1.316,0,0,0,38.2,29.637h-.471V24.05A2.206,2.206,0,0,0,39.512,21.887Zm-2.2,1.37A1.372,1.372,0,0,1,35.975,22.2h2.668a1.372,1.372,0,0,1-1.334,1.059ZM20.567,18.084h15.62l2.139,3.281h-19.9ZM35.07,22.2a1.37,1.37,0,0,1-2.668,0Zm-3.573,0a1.37,1.37,0,0,1-2.668,0Zm-3.573,0a1.37,1.37,0,0,1-2.668,0Zm-3.573,0a1.37,1.37,0,0,1-2.668,0Zm-6.241,0h2.668a1.37,1.37,0,0,1-2.668,0ZM37.476,38.688h-18.2V32.609h18.2Zm1.2-7.736v.342a.482.482,0,0,1-.482.481H18.556a.482.482,0,0,1-.481-.481v-.342a.482.482,0,0,1,.481-.481H38.2a.482.482,0,0,1,.482.481ZM19.861,29.637V24.05a2.205,2.205,0,0,0,1.37-.878,2.2,2.2,0,0,0,3.573,0,2.2,2.2,0,0,0,3.573,0,2.2,2.2,0,0,0,3.573,0,2.2,2.2,0,0,0,3.573,0,2.205,2.205,0,0,0,1.37.878v5.586Z" transform="translate(-17.238 -17.25)" fill="#fff"/>
    </g>
  </g>
</svg>
