<svg xmlns="http://www.w3.org/2000/svg" width="46" height="46" viewBox="0 0 46 46">
  <g id="Group_71839" data-name="Group 71839" transform="translate(-470 -3813)">
    <g id="Ellipse_690" data-name="Ellipse 690" transform="translate(470 3813)" fill="#b54e3d" stroke="#fff" stroke-width="0.5">
      <circle cx="23" cy="23" r="23" stroke="none"/>
      <circle cx="23" cy="23" r="22.75" fill="none"/>
    </g>
    <path id="lipstick" d="M35.15,14.779c-1.148-1.148-5.261-1.374-6.288-.347l-2.01,2.01a1.16,1.16,0,0,0-1.155.286L19.8,22.622l-.84-.84L10.3,30.446a2.822,2.822,0,0,0,0,3.988l2.732,2.732a2.826,2.826,0,0,0,3.988,0L25.684,28.5l-.84-.84,5.894-5.893a1.16,1.16,0,0,0,.286-1.155L35,16.636a1.543,1.543,0,0,0,.509-.961,1.122,1.122,0,0,0-.363-.894ZM21.337,31.68l-5.553-5.553.808-.808,5.553,5.553-.8.8Zm-4.9,4.9a2,2,0,0,1-2.821,0l-2.732-2.732a2,2,0,0,1,0-2.821L15.2,26.712l5.553,5.553ZM24.517,28.5l-1.791,1.791L17.173,24.74l1.791-1.791,2.777,2.777,2.522,2.522.258.258Zm-.258-1.422-1.937-1.937-1.937-1.937,5.894-5.893a.34.34,0,0,1,.477,0l1.25,1.25,2.23,2.455a.309.309,0,0,1-.086.165l-5.894,5.893ZM34.692,15.612a.818.818,0,0,1-.27.439l-3.877,3.877-1.934-1.934L27.59,16.869l1.857-1.857c.649-.649,4.23-.541,5.121.347.134.134.127.219.124.251Z" transform="translate(470.505 3810.117)" fill="#fff"/>
  </g>
</svg>
