<svg xmlns="http://www.w3.org/2000/svg" width="46" height="46" viewBox="0 0 46 46">
  <g id="Group_71839" data-name="Group 71839" transform="translate(-470 -3813)">
    <g id="Ellipse_690" data-name="Ellipse 690" transform="translate(470 3813)" fill="#b54e3d" stroke="#fff" stroke-width="0.5">
      <circle cx="23" cy="23" r="23" stroke="none"/>
      <circle cx="23" cy="23" r="22.75" fill="none"/>
    </g>
    <g id="Icons" transform="translate(477.152 3828.111)">
      <path id="Path_14752" data-name="Path 14752" d="M28.056,21.295c-.348-.07-.706-.13-1.081-.194-2.433-.414-5.463-.923-11.618-4.87a3.909,3.909,0,0,0-.834-.693L12.6,13.5a1.568,1.568,0,0,0-1.381-.475,1.491,1.491,0,0,0-1.133.828,3.092,3.092,0,0,0,.173,3.245,3.608,3.608,0,0,1-2.946,1.668,3.614,3.614,0,0,1-2.93-1.888C3.862,16,3.285,15.221,2.612,15.4c-.738.2-.738,1.294-.738,2.258a12.5,12.5,0,0,1-.48,3.943L.223,23.946a2.064,2.064,0,0,0,.29,2.287c.782.871,2.455,1.976,6.019,2.3H22.447a10.213,10.213,0,0,0,3.092-.472c1.628-.517,5.519-1.958,5.519-3.669A3.37,3.37,0,0,0,28.056,21.295ZM11.021,14.3a.466.466,0,0,1,.359-.259.535.535,0,0,1,.471.16l.87.925a3.05,3.05,0,0,0-1.782,1.08,2.1,2.1,0,0,1,.082-1.907ZM2.909,17.661a9.393,9.393,0,0,1,.043-1.049,6.111,6.111,0,0,1,.549.8A4.64,4.64,0,0,0,7.294,19.8h.1a4.746,4.746,0,0,0,3.912-2.37,2.4,2.4,0,0,1,1.727-1.294,1.978,1.978,0,0,1,1.379.609l-.845,1.124a.518.518,0,1,0,.828.621l.838-1.117q.547.344,1.063.654l-.659.876a.518.518,0,0,0,.828.621l.729-.969c.378.216.742.418,1.095.607l-.582.777a.518.518,0,1,0,.828.621l.684-.914c.4.2.779.381,1.145.548l-.587.781a.518.518,0,0,0,.828.621l.736-.979A23.106,23.106,0,0,0,26.8,22.121c.362.062.712.12,1.05.187a2.663,2.663,0,0,1,1.879,1.177,11.054,11.054,0,0,1-8.883.924c-5.976-1.708-7.877-1.332-10.286-.858-.567.112-1.153.228-1.834.325-2.47.354-5.277-.87-6.553-1.521C2.218,22.144,2.909,21.632,2.909,17.661Zm22.317,9.411a9.169,9.169,0,0,1-2.778.423H6.579c-3.183-.289-4.637-1.224-5.3-1.957a1.02,1.02,0,0,1-.135-1.133l.563-1.126c1.506.771,4.439,2.008,7.162,1.62.709-.1,1.309-.22,1.888-.334,2.361-.466,4.065-.8,9.8.836a13.79,13.79,0,0,0,3.8.557A11.543,11.543,0,0,0,29.9,24.573C29.4,25.374,27.706,26.285,25.225,27.072Z" transform="translate(-0.003 -13.005)" fill="#fff"/>
    </g>
  </g>
</svg>
