<svg xmlns="http://www.w3.org/2000/svg" width="46" height="46" viewBox="0 0 46 46">
  <g id="Group_71839" data-name="Group 71839" transform="translate(-470 -3813)">
    <g id="Ellipse_690" data-name="Ellipse 690" transform="translate(470 3813)" fill="#b54e3d" stroke="#fff" stroke-width="0.5">
      <circle cx="23" cy="23" r="23" stroke="none"/>
      <circle cx="23" cy="23" r="22.75" fill="none"/>
    </g>
    <g id="accessory" transform="translate(477.918 3821.705)">
      <path id="Path_23159" data-name="Path 23159" d="M30.15,21.666a6.042,6.042,0,0,0-.747-1.948c2.5-1.189,4.011-2.793,4.011-4.584a.393.393,0,0,0-.393-.393H27.644v-1.7a.393.393,0,0,0-.393-.393h-.656v-.131a8.262,8.262,0,1,0-16.525,0v.131H9.414a.393.393,0,0,0-.393.393v1.7H3.643a.393.393,0,0,0-.393.393c0,3.751,6.625,6.689,15.082,6.689a27.781,27.781,0,0,0,10.345-1.783,5.256,5.256,0,0,1,.69,1.778l-2.86,1.907a.392.392,0,0,0-.175.327V31.4a1.444,1.444,0,0,0,1.443,1.443h4.2A1.444,1.444,0,0,0,33.414,31.4V24.053a.392.392,0,0,0-.175-.327Zm.379,3.961a.656.656,0,1,1-.656-.656A.656.656,0,0,1,30.529,25.627ZM10.857,12.512a7.475,7.475,0,0,1,14.951,0v.131H10.857Zm-1.049.918H26.857v1.311H9.807Zm19.127,5.615A6.1,6.1,0,0,0,26.9,17.406a.394.394,0,1,0-.352.7,5.311,5.311,0,0,1,1.622,1.26,27.533,27.533,0,0,1-9.84,1.666c-7.429,0-13.753-2.484-14.262-5.508H32.594C32.369,16.862,31.014,18.089,28.934,19.046ZM32.627,31.4a.656.656,0,0,1-.656.656h-4.2a.656.656,0,0,1-.656-.656V24.264l2.35-1.567c0,.052.01.1.01.154v1.395a1.443,1.443,0,1,0,.787,0V22.851c0-.055,0-.11-.006-.165l2.366,1.578Z" transform="translate(-3.25 -4.25)" fill="#fff"/>
      <path id="Path_23160" data-name="Path 23160" d="M20.381,41.25H17.234a2.488,2.488,0,0,0-2.393,1.836H13.332a2.488,2.488,0,0,0-2.393-1.836H7.791A3.545,3.545,0,0,0,4.25,44.791V45.84a3.545,3.545,0,0,0,3.541,3.541,5.643,5.643,0,0,0,5.633-5.508h1.325a5.643,5.643,0,0,0,5.633,5.508,3.545,3.545,0,0,0,3.541-3.541V44.791A3.545,3.545,0,0,0,20.381,41.25ZM7.791,48.594A2.757,2.757,0,0,1,5.037,45.84V44.791a2.757,2.757,0,0,1,2.754-2.754h3.148a1.707,1.707,0,0,1,1.7,1.7A4.858,4.858,0,0,1,7.791,48.594ZM23.135,45.84a2.757,2.757,0,0,1-2.754,2.754,4.858,4.858,0,0,1-4.852-4.852,1.707,1.707,0,0,1,1.7-1.7h3.148a2.757,2.757,0,0,1,2.754,2.754Z" transform="translate(-3.725 -21.84)" fill="#fff"/>
    </g>
  </g>
</svg>
