<svg xmlns="http://www.w3.org/2000/svg" width="47" height="47" viewBox="0 0 47 47">
  <g id="Group_71839" data-name="Group 71839" transform="translate(-469.5 -3814.5)">
    <g id="Ellipse_690" data-name="Ellipse 690" transform="translate(470 3815)" fill="#b54e3d" stroke="#fff" stroke-width="0.5">
      <circle cx="23" cy="23" r="23" stroke="none"/>
      <circle cx="23" cy="23" r="23.25" fill="none"/>
    </g>
    <path id="tshirt" d="M13.493,2.782a.464.464,0,0,0-.464.464V4.768l-2.439.813L5.974,6.5a.467.467,0,0,0-.158.063L.71,9.816a.464.464,0,0,0-.143.641l3.249,5.105a.464.464,0,0,0,.7.093L5.6,14.675V27.381a.464.464,0,0,0,.464.464H20.919a.464.464,0,0,0,.464-.464V14.774l1.1.9a.454.454,0,0,0,.357.1.46.46,0,0,0,.316-.194L26.4,10.938A.464.464,0,0,0,26.3,10.3L21.192,6.584A.46.46,0,0,0,21.01,6.5L16.4,5.581l-2.439-.813V3.644a1.853,1.853,0,1,0-2.321-1.791.464.464,0,0,0,.928,0,.928.928,0,1,1,.928.928Zm0,2.81,2.288.764a2.31,2.31,0,0,1-4.577,0Zm11.89,5.188-2.7,3.858-1.469-1.2a.464.464,0,0,0-.759.36V26.917H6.531V13.626a.464.464,0,0,0-.776-.343L4.306,14.6,1.6,10.351,6.243,7.4l4.047-.81a3.249,3.249,0,0,0,6.4,0l4.034.807Zm0,0" transform="translate(479.505 3824.002)" fill="#fff"/>
  </g>
</svg>
