<svg xmlns="http://www.w3.org/2000/svg" width="46" height="46" viewBox="0 0 46 46">
  <g id="Group_72700" data-name="Group 72700" transform="translate(-1170 -3837)">
    <g id="Ellipse_690" data-name="Ellipse 690" transform="translate(1170 3837)" fill="#7678ec" stroke="#fff" stroke-width="1">
      <circle cx="23" cy="23" r="23" stroke="none"/>
      <circle cx="23" cy="23" r="22.5" fill="none"/>
    </g>
    <g id="scissors" transform="translate(1179.001 3845.996)">
      <g id="Page-1_55_" transform="translate(0.999 1.004)">
        <g id="_x30_56---Hairdressing" transform="translate(0 0)">
          <path id="Shape_224_" d="M408.544,2.519H411.9a1.224,1.224,0,0,0,.883-.366,1.242,1.242,0,0,0,.369-1A1.289,1.289,0,0,0,411.85,0h-5.4a1.677,1.677,0,0,0-1.677,1.677v21.8a1.677,1.677,0,0,0,3.354,0V16.353a.419.419,0,0,1,.419-.419H411.9a1.224,1.224,0,0,0,.883-.366,1.242,1.242,0,0,0,.369-1,1.289,1.289,0,0,0-1.3-1.148h-3.307a.419.419,0,0,1-.419-.419V12.58h4.192a.419.419,0,0,0,0-.838h-4.192V10.9h4.192a.419.419,0,0,0,0-.838h-4.192V9.226h4.192a.419.419,0,0,0,0-.838h-4.192V7.55h4.192a.419.419,0,0,0,0-.838h-4.192V5.873h4.192a.419.419,0,0,0,0-.838h-4.192V4.2h4.192a.419.419,0,0,0,0-.838h-4.192V2.938a.419.419,0,0,1,.419-.419Zm0,11.737h3.307a.454.454,0,0,1,.466.381.411.411,0,0,1-.126.335.4.4,0,0,1-.293.122h-3.354a1.258,1.258,0,0,0-1.258,1.258v7.126a.838.838,0,0,1-1.677,0V1.681a.838.838,0,0,1,.838-.838h5.4a.454.454,0,0,1,.466.381.411.411,0,0,1-.126.337.4.4,0,0,1-.293.12h-3.354a1.258,1.258,0,0,0-1.258,1.258V13A1.257,1.257,0,0,0,408.544,14.257Z" transform="translate(-388.003 -0.004)" fill="#fff"/>
          <path id="Shape_223_" d="M265.131,468.526a1.677,1.677,0,0,0,1.677-1.677v-.838a1.677,1.677,0,0,0-3.354,0v.838A1.677,1.677,0,0,0,265.131,468.526Zm-.838-2.515a.838.838,0,0,1,1.677,0v.838a.838.838,0,0,1-1.677,0Z" transform="translate(-252.555 -445.051)" fill="#fff"/>
          <path id="Shape_222_" d="M43.062,468.526a1.677,1.677,0,0,0,1.677-1.677v-.838a1.677,1.677,0,0,0-3.354,0v.838A1.677,1.677,0,0,0,43.062,468.526Zm-.838-2.515a.838.838,0,0,1,1.677,0v.838a.838.838,0,0,1-1.677,0Z" transform="translate(-39.708 -445.051)" fill="#fff"/>
          <path id="Shape_221_" d="M4.244,25.159h.1a3.274,3.274,0,0,0,2.29-.946,3.549,3.549,0,0,0,1.074-2.531V19.075a2.087,2.087,0,0,1,.615-1.485l.643-.643.642.642a2.116,2.116,0,0,1,.615,1.485v2.608A3.548,3.548,0,0,0,11.3,24.215a3.267,3.267,0,0,0,2.283.944h.1a3.354,3.354,0,0,0,3.245-3.354v-.744a3.356,3.356,0,0,0-3.867-3.41.419.419,0,0,1-.463-.257l-1.664-4.216L14.38,4.391a3.593,3.593,0,0,0,.289-1.4A3.177,3.177,0,0,0,13.2.137a.824.824,0,0,0-.7-.088.842.842,0,0,0-.524.489L8.964,8.179,5.95.534A.841.841,0,0,0,5.421.047a.819.819,0,0,0-.694.091A3.178,3.178,0,0,0,3.259,2.988a3.57,3.57,0,0,0,.285,1.394l3.45,8.793L5.33,17.395a.415.415,0,0,1-.469.255A3.367,3.367,0,0,0,1,21.062v.743A3.356,3.356,0,0,0,4.244,25.159ZM12.749.842a2.355,2.355,0,0,1,1.082,2.145,2.766,2.766,0,0,1-.227,1.09l-3.12,7.957L9.415,9.322ZM4.1,2.989A2.359,2.359,0,0,1,5.171.846L11.819,17.7a1.258,1.258,0,0,0,1.371.777,2.523,2.523,0,0,1,.555-.023,2.568,2.568,0,0,1,2.346,2.6v.744a2.515,2.515,0,0,1-2.431,2.515,2.456,2.456,0,0,1-1.775-.705,2.7,2.7,0,0,1-.824-1.933V19.075A2.958,2.958,0,0,0,10.2,17L9.185,15.983a2.158,2.158,0,0,1-.443-.645L4.319,4.067A2.754,2.754,0,0,1,4.1,2.989ZM1.838,21.062a2.529,2.529,0,0,1,2.9-2.583A1.253,1.253,0,0,0,6.11,17.7l1.333-3.382.526,1.341a3.022,3.022,0,0,0,.423.671L7.729,17a2.918,2.918,0,0,0-.861,2.079v2.607a2.7,2.7,0,0,1-.82,1.928,2.492,2.492,0,0,1-1.779.71,2.518,2.518,0,0,1-2.431-2.515v-.743Z" transform="translate(-0.999 -0.007)" fill="#fff"/>
        </g>
      </g>
    </g>
  </g>
</svg>
