<svg xmlns="http://www.w3.org/2000/svg" width="46" height="46" viewBox="0 0 46 46">
  <g id="Group_72701" data-name="Group 72701" transform="translate(-1170 -3765)">
    <g id="Ellipse_690" data-name="Ellipse 690" transform="translate(1170 3765)" fill="#7678ec" stroke="#fff" stroke-width="1">
      <circle cx="23" cy="23" r="23" stroke="none"/>
      <circle cx="23" cy="23" r="22.5" fill="none"/>
    </g>
    <g id="massage" transform="translate(1151.608 3772.688)">
      <g id="Group_72642" data-name="Group 72642" transform="translate(32.511 17.618)">
        <g id="Group_72641" data-name="Group 72641">
          <path id="Path_23209" data-name="Path 23209" d="M125.288,307.07l-.143-2.256a4.274,4.274,0,0,0-.9-2.371.449.449,0,0,0-.707.552,3.381,3.381,0,0,1,.712,1.875l.112,1.779H108.453l.112-1.779a3.394,3.394,0,0,1,2.574-3.082l2.423-.6a.718.718,0,0,0,.547-.7v-1.729a5.732,5.732,0,0,0,4.569.011v1.711a.718.718,0,0,0,.547.7l2.451.605a3.389,3.389,0,0,1,.61.214.449.449,0,1,0,.376-.814,4.277,4.277,0,0,0-.771-.27l-2.315-.572v-2a7.772,7.772,0,0,0,3.108-3.152.449.449,0,1,0-.795-.416,6.884,6.884,0,0,1-2.965,2.9,5.09,5.09,0,0,1-5.057-.014,6.892,6.892,0,0,1-2.9-2.809.449.449,0,0,0-.789.426,7.782,7.782,0,0,0,3.034,3.05v2.019l-2.288.565a4.291,4.291,0,0,0-3.255,3.9l-.142,2.256a.449.449,0,0,0,.448.477H124.84a.449.449,0,0,0,.448-.477Z" transform="translate(-107.527 -294.54)" fill="#fff"/>
          <path id="Path_23212" data-name="Path 23212" d="M220.258,240.894s1.165.811,1.333,1,.711-.206.814-.35c.054-.075-.308-.436-.789-.805a4.7,4.7,0,0,0-.954-.645C220.318,239.979,220.258,240.894,220.258,240.894Z" transform="translate(-205.609 -233.481)" fill="#fff"/>
        </g>
      </g>
      <g id="Group_72644" data-name="Group 72644" transform="translate(27.738 0)">
        <g id="Group_72643" data-name="Group 72643">
          <path id="Path_23210" data-name="Path 23210" d="M54.6,7.027a.449.449,0,0,0-.449.449v9.2c0,3.147-3.329,4.743-5.314,5.415-1.055.357-1.594.168-1.7-.047-.062-.128.018-.3.195-.415.764-.5,3.851-2.853,3.851-4.332a14.152,14.152,0,0,0-.117-1.729.764.764,0,0,0-1.074-.6l-2.4,1.089a.427.427,0,0,1-.442-.722c.427-.34.786-.61,1.086-.824l.011-.008a6.421,6.421,0,0,1,1.281-.767l.026-.01a.483.483,0,0,1,.128-.033h1.469a.449.449,0,0,0,.449-.449V7.731a.449.449,0,0,0-.9,0V12.8h-.715a7.028,7.028,0,0,0,.2-1.875,2.691,2.691,0,0,0-.933-2.112,6.254,6.254,0,0,0-1.234-3.826A4.685,4.685,0,0,0,45.9,3.5,4.453,4.453,0,0,0,42.972.26c-1.3-.45-3.967-.7-7.278,2.656a.449.449,0,1,0,.639.63C39.3.537,41.581.727,42.677,1.108a3.7,3.7,0,0,1,.845.42,3.66,3.66,0,0,0-.867.076,5.717,5.717,0,0,0-2.718,1.561.449.449,0,0,0,.615.653A4.863,4.863,0,0,1,42.84,2.482a2.562,2.562,0,0,1,1.821.268,3.023,3.023,0,0,1,.389,1.142,2.207,2.207,0,0,1,.011.379,2.272,2.272,0,0,1-.09.506,4.244,4.244,0,0,1-1.066,1.675,10.934,10.934,0,0,1-1.487,1.269h0a25.23,25.23,0,0,1-4.047,2.308,7.713,7.713,0,0,0-3.606,3.545,5.783,5.783,0,0,0-1.271-.7A11.838,11.838,0,0,1,35.22,4.9a.449.449,0,1,0-.741-.506A12.646,12.646,0,0,0,32.586,12.8h-.508V7.731a.449.449,0,1,0-.9,0v5.515a.449.449,0,0,0,.449.449H33.1c.016,0,.353.022,1.6.928l.014.01c.264.192.568.423.918.7a.427.427,0,0,1-.442.722l-2.4-1.089a.764.764,0,0,0-1.074.6A14.155,14.155,0,0,0,31.6,17.3c0,1.479,3.087,3.829,3.851,4.332.177.116.257.287.195.415-.1.215-.644.4-1.7.047-1.985-.672-5.314-2.268-5.314-5.415v-9.2a.449.449,0,1,0-.9,0v9.2a5.4,5.4,0,0,0,2.109,4.218,12,12,0,0,0,3.815,2.046,4.154,4.154,0,0,0,1.319.246,1.523,1.523,0,0,0,1.474-.749,1.232,1.232,0,0,0-.508-1.558,15.962,15.962,0,0,1-2.184-1.8c-.931-.92-1.263-1.524-1.263-1.783a12.939,12.939,0,0,1,.088-1.436l2.23,1.013a1.324,1.324,0,0,0,1.373-2.241c-.246-.2-.471-.37-.679-.526a6.819,6.819,0,0,1,3.243-3.267,26.8,26.8,0,0,0,4-2.255,7.432,7.432,0,0,1,4.7,5.386c-.257.189-.542.408-.862.662a1.324,1.324,0,0,0,1.373,2.241l2.23-1.013a12.937,12.937,0,0,1,.088,1.436c0,.259-.332.863-1.263,1.783a15.95,15.95,0,0,1-2.184,1.8,1.232,1.232,0,0,0-.508,1.558,1.523,1.523,0,0,0,1.474.75,4.155,4.155,0,0,0,1.319-.246A12,12,0,0,0,52.936,20.9a5.4,5.4,0,0,0,2.109-4.218v-9.2A.449.449,0,0,0,54.6,7.027Zm-11.008.928a5.8,5.8,0,0,0,2.355-3.47,4.284,4.284,0,0,1,2.365,3.665l-.174-.122a.449.449,0,0,0-.517.734l.936.659.016.009.018.012c.919.53.813,2.194.427,3.541a6.8,6.8,0,0,0-.785.45A8.3,8.3,0,0,0,43.588,7.955Z" transform="translate(-27.738 0)" fill="#fff"/>
          <path id="Path_23211" data-name="Path 23211" d="M-13138.24-17311.662a11.865,11.865,0,0,1,1.232-1.475c.641-.633,1,.279.658.607s-1.209,1.475-1.209,1.475.234-.412-.061-.637A.533.533,0,0,0-13138.24-17311.662Z" transform="translate(13145.019 17316)" fill="#fff"/>
        </g>
      </g>
    </g>
  </g>
</svg>
