<svg width="75" height="75" viewBox="0 0 75 75" fill="none" xmlns="http://www.w3.org/2000/svg">
<g clip-path="url(#clip0_781_5256)">
<path d="M37.5 75C58.2107 75 75 58.2107 75 37.5C75 16.7893 58.2107 0 37.5 0C16.7893 0 0 16.7893 0 37.5C0 58.2107 16.7893 75 37.5 75Z" fill="#FFBA00"/>
<path d="M21.205 47.8189C21.0699 47.8189 20.936 47.7923 20.8112 47.7406C20.6863 47.6888 20.5728 47.613 20.4772 47.5174C20.3817 47.4219 20.3058 47.3084 20.2541 47.1835C20.2024 47.0586 20.1758 46.9248 20.1758 46.7896V26.2047C20.1758 25.9317 20.2842 25.67 20.4772 25.4769C20.6703 25.2839 20.9321 25.1755 21.205 25.1755C21.478 25.1755 21.7398 25.2839 21.9328 25.4769C22.1258 25.67 22.2343 25.9317 22.2343 26.2047V46.7896C22.2343 46.9248 22.2076 47.0586 22.1559 47.1835C22.1042 47.3084 22.0284 47.4219 21.9328 47.5174C21.8372 47.613 21.7238 47.6888 21.5989 47.7406C21.474 47.7923 21.3402 47.8189 21.205 47.8189Z" fill="black"/>
<path d="M25.3222 43.7019C25.1871 43.7019 25.0532 43.6753 24.9283 43.6236C24.8035 43.5718 24.69 43.496 24.5944 43.4004C24.4989 43.3049 24.423 43.1914 24.3713 43.0665C24.3196 42.9417 24.293 42.8078 24.293 42.6727V26.2047C24.293 25.9317 24.4014 25.67 24.5944 25.4769C24.7874 25.2839 25.0492 25.1755 25.3222 25.1755C25.5952 25.1755 25.857 25.2839 26.05 25.4769C26.243 25.67 26.3515 25.9317 26.3515 26.2047V42.6727C26.3515 42.8078 26.3248 42.9417 26.2731 43.0665C26.2214 43.1914 26.1456 43.3049 26.05 43.4004C25.9544 43.496 25.841 43.5718 25.7161 43.6236C25.5912 43.6753 25.4574 43.7019 25.3222 43.7019Z" fill="black"/>
<path d="M29.4375 43.7019C29.3023 43.7019 29.1685 43.6753 29.0436 43.6236C28.9187 43.5718 28.8053 43.496 28.7097 43.4004C28.6141 43.3049 28.5383 43.1914 28.4866 43.0665C28.4348 42.9417 28.4082 42.8078 28.4082 42.6727V26.2047C28.4082 25.9317 28.5167 25.67 28.7097 25.4769C28.9027 25.2839 29.1645 25.1755 29.4375 25.1755C29.7104 25.1755 29.9722 25.2839 30.1652 25.4769C30.3583 25.67 30.4667 25.9317 30.4667 26.2047V42.6727C30.4667 42.9456 30.3583 43.2074 30.1652 43.4004C29.9722 43.5935 29.7104 43.7019 29.4375 43.7019Z" fill="black"/>
<path d="M33.5566 43.7019C33.4214 43.7019 33.2876 43.6753 33.1627 43.6236C33.0378 43.5718 32.9244 43.496 32.8288 43.4004C32.7332 43.3049 32.6574 43.1914 32.6057 43.0665C32.554 42.9417 32.5273 42.8078 32.5273 42.6727V26.2047C32.5273 25.9317 32.6358 25.67 32.8288 25.4769C33.0218 25.2839 33.2836 25.1755 33.5566 25.1755C33.8296 25.1755 34.0914 25.2839 34.2844 25.4769C34.4774 25.67 34.5858 25.9317 34.5858 26.2047V42.6727C34.5858 42.9456 34.4774 43.2074 34.2844 43.4004C34.0914 43.5935 33.8296 43.7019 33.5566 43.7019Z" fill="black"/>
<path d="M37.6738 47.8189C37.5386 47.8189 37.4048 47.7923 37.2799 47.7406C37.155 47.6888 37.0416 47.613 36.946 47.5174C36.8504 47.4219 36.7746 47.3084 36.7229 47.1835C36.6712 47.0586 36.6445 46.9248 36.6445 46.7896V26.2047C36.6445 25.9317 36.753 25.67 36.946 25.4769C37.139 25.2839 37.4008 25.1755 37.6738 25.1755C37.9467 25.1755 38.2085 25.2839 38.4016 25.4769C38.5946 25.67 38.703 25.9317 38.703 26.2047V46.7896C38.703 47.0626 38.5946 47.3244 38.4016 47.5174C38.2085 47.7105 37.9467 47.8189 37.6738 47.8189Z" fill="black"/>
<path d="M41.789 43.7019C41.6538 43.7019 41.52 43.6753 41.3951 43.6236C41.2702 43.5718 41.1568 43.496 41.0612 43.4004C40.9656 43.3049 40.8898 43.1914 40.8381 43.0665C40.7864 42.9417 40.7598 42.8078 40.7598 42.6727V26.2047C40.7598 25.9317 40.8682 25.67 41.0612 25.4769C41.2542 25.2839 41.516 25.1755 41.789 25.1755C42.062 25.1755 42.3238 25.2839 42.5168 25.4769C42.7098 25.67 42.8182 25.9317 42.8182 26.2047V42.6727C42.8182 42.8078 42.7916 42.9417 42.7399 43.0665C42.6882 43.1914 42.6124 43.3049 42.5168 43.4004C42.4212 43.496 42.3078 43.5718 42.1829 43.6236C42.058 43.6753 41.9241 43.7019 41.789 43.7019Z" fill="black"/>
<path d="M45.9062 43.7019C45.771 43.7019 45.6372 43.6753 45.5123 43.6236C45.3875 43.5718 45.274 43.496 45.1784 43.4004C45.0829 43.3049 45.007 43.1914 44.9553 43.0665C44.9036 42.9417 44.877 42.8078 44.877 42.6727V26.2047C44.877 25.9317 44.9854 25.67 45.1784 25.4769C45.3715 25.2839 45.6332 25.1755 45.9062 25.1755C46.1792 25.1755 46.441 25.2839 46.634 25.4769C46.827 25.67 46.9354 25.9317 46.9354 26.2047V42.6727C46.9354 42.9456 46.827 43.2074 46.634 43.4004C46.441 43.5935 46.1792 43.7019 45.9062 43.7019Z" fill="black"/>
<path d="M50.0254 43.7019C49.8902 43.7019 49.7564 43.6753 49.6315 43.6236C49.5066 43.5718 49.3931 43.496 49.2976 43.4004C49.202 43.3049 49.1262 43.1914 49.0744 43.0665C49.0227 42.9417 48.9961 42.8078 48.9961 42.6727V26.2047C48.9961 25.9317 49.1045 25.67 49.2976 25.4769C49.4906 25.2839 49.7524 25.1755 50.0254 25.1755C50.2983 25.1755 50.5601 25.2839 50.7531 25.4769C50.9462 25.67 51.0546 25.9317 51.0546 26.2047V42.6727C51.0546 42.9456 50.9462 43.2074 50.7531 43.4004C50.5601 43.5935 50.2983 43.7019 50.0254 43.7019Z" fill="black"/>
<path d="M54.1405 47.8189C53.8676 47.8189 53.6058 47.7105 53.4128 47.5174C53.2197 47.3244 53.1113 47.0626 53.1113 46.7896V26.2047C53.1113 25.9317 53.2197 25.67 53.4128 25.4769C53.6058 25.2839 53.8676 25.1755 54.1405 25.1755C54.4135 25.1755 54.6753 25.2839 54.8684 25.4769C55.0614 25.67 55.1698 25.9317 55.1698 26.2047V46.7896C55.1698 46.9248 55.1432 47.0586 55.0914 47.1835C55.0397 47.3084 54.9639 47.4219 54.8684 47.5174C54.7728 47.613 54.6593 47.6888 54.5345 47.7406C54.4096 47.7923 54.2757 47.8189 54.1405 47.8189Z" fill="black"/>
<path d="M25.3249 47.8189C25.1898 47.8231 25.0556 47.7948 24.9337 47.7361C24.8049 47.6931 24.6908 47.6149 24.6042 47.5104C24.4141 47.3288 24.3038 47.0793 24.2972 46.8165C24.2906 46.5537 24.3884 46.299 24.5691 46.1081L24.6042 46.0731C24.6908 45.9686 24.8049 45.8904 24.9337 45.8473C25.1205 45.7702 25.326 45.7504 25.5241 45.7906C25.7222 45.8309 25.9038 45.9292 26.0457 46.0731C26.1868 46.2169 26.2826 46.3991 26.3212 46.5969C26.3598 46.7947 26.3394 46.9996 26.2627 47.1859C26.1859 47.3723 26.0562 47.532 25.8895 47.6453C25.7227 47.7585 25.5264 47.8204 25.3249 47.8231V47.8189Z" fill="black"/>
<path d="M29.4402 47.8203C29.305 47.8246 29.1708 47.7962 29.0489 47.7375C28.9202 47.6944 28.8061 47.6163 28.7194 47.5118C28.5294 47.3302 28.419 47.0807 28.4124 46.8179C28.4059 46.5551 28.5036 46.3004 28.6843 46.1096L28.7194 46.0745C28.806 45.9699 28.9201 45.8917 29.0489 45.8487C29.2355 45.7704 29.4414 45.7501 29.6397 45.7903C29.838 45.8306 30.0196 45.9296 30.1609 46.0745C30.2654 46.1612 30.3436 46.2753 30.3867 46.404C30.4411 46.5273 30.4692 46.6605 30.4692 46.7952C30.4692 46.93 30.4411 47.0632 30.3867 47.1865C30.344 47.3154 30.2658 47.4297 30.1609 47.516C30.0687 47.6143 29.957 47.6922 29.8328 47.7446C29.7087 47.797 29.5749 47.8228 29.4402 47.8203Z" fill="black"/>
<path d="M33.5593 47.8203C33.4241 47.8246 33.2899 47.7962 33.1681 47.7375C33.0393 47.6944 32.9252 47.6163 32.8385 47.5118C32.6485 47.3302 32.5381 47.0807 32.5316 46.8179C32.525 46.5551 32.6227 46.3004 32.8035 46.1096L32.8385 46.0745C32.9251 45.9699 33.0393 45.8917 33.1681 45.8487C33.3547 45.7704 33.5605 45.7501 33.7588 45.7903C33.9571 45.8306 34.1388 45.9296 34.28 46.0745C34.385 46.161 34.4637 46.2751 34.5072 46.404C34.5615 46.5273 34.5896 46.6605 34.5896 46.7952C34.5896 46.9299 34.5615 47.0632 34.5072 47.1865C34.4641 47.3156 34.3854 47.4298 34.28 47.516C34.1879 47.6143 34.0761 47.6922 33.9519 47.7446C33.8278 47.797 33.694 47.8228 33.5593 47.8203Z" fill="black"/>
<path d="M41.7937 47.8203C41.6255 47.8204 41.4598 47.779 41.3114 47.6998C41.163 47.6207 41.0364 47.5061 40.9428 47.3664C40.8491 47.2267 40.7914 47.066 40.7746 46.8986C40.7579 46.7313 40.7826 46.5623 40.8467 46.4068C40.9107 46.2513 41.0121 46.1139 41.1419 46.0069C41.2717 45.8999 41.4258 45.8265 41.5907 45.7932C41.7556 45.76 41.9261 45.7678 42.0873 45.8161C42.2484 45.8645 42.3951 45.9518 42.5145 46.0703C42.6189 46.157 42.6971 46.2711 42.7402 46.3998C42.7945 46.5231 42.8226 46.6563 42.8226 46.7911C42.8226 46.9258 42.7945 47.059 42.7402 47.1823C42.6975 47.3112 42.6193 47.4254 42.5145 47.5118C42.4227 47.6108 42.311 47.6895 42.1869 47.7427C42.0627 47.7958 41.9287 47.8222 41.7937 47.8203Z" fill="black"/>
<path d="M45.9084 47.8189C45.6691 47.8235 45.4356 47.7445 45.2482 47.5956C45.0608 47.4466 44.9312 47.237 44.8817 47.0028C44.8321 46.7686 44.8658 46.5245 44.9768 46.3124C45.0879 46.1003 45.2694 45.9336 45.4901 45.8409C45.7108 45.7482 45.9569 45.7353 46.1861 45.8045C46.4152 45.8737 46.6131 46.0206 46.7457 46.2199C46.8782 46.4192 46.9372 46.6586 46.9123 46.8967C46.8875 47.1348 46.7804 47.3567 46.6095 47.5244C46.422 47.7085 46.1712 47.8138 45.9084 47.8189Z" fill="black"/>
<path d="M50.025 47.8188C49.8899 47.8208 49.756 47.7944 49.6318 47.7413C49.5076 47.6881 49.396 47.6094 49.3042 47.5103C49.1993 47.4241 49.121 47.3098 49.0785 47.1808C49.0242 47.0576 48.9961 46.9243 48.9961 46.7896C48.9961 46.6549 49.0242 46.5216 49.0785 46.3984C49.1215 46.2696 49.1997 46.1555 49.3042 46.0689C49.4236 45.9526 49.5698 45.8675 49.7297 45.8208C49.8897 45.7742 50.0587 45.7674 50.2219 45.8012C50.385 45.835 50.5375 45.9083 50.6658 46.0146C50.794 46.121 50.8943 46.2572 50.9578 46.4113C51.0212 46.5653 51.046 46.7326 51.0298 46.8985C51.0136 47.0643 50.957 47.2237 50.865 47.3626C50.7729 47.5015 50.6482 47.6158 50.5018 47.6953C50.3553 47.7748 50.1916 47.8172 50.025 47.8188Z" fill="black"/>
<path d="M15.0293 27.234C14.7563 27.234 14.4945 27.1255 14.3015 26.9325C14.1085 26.7395 14 26.4777 14 26.2047V20.0349C13.9993 19.8992 14.0254 19.7648 14.0767 19.6393C14.1281 19.5137 14.2038 19.3996 14.2995 19.3034C14.3951 19.2073 14.5088 19.131 14.6341 19.0789C14.7593 19.0268 14.8936 19 15.0293 19H21.1991C21.4721 19 21.7339 19.1084 21.9269 19.3015C22.1199 19.4945 22.2284 19.7563 22.2284 20.0292C22.2284 20.3022 22.1199 20.564 21.9269 20.757C21.7339 20.9501 21.4721 21.0585 21.1991 21.0585H16.0585V26.2047C16.0585 26.4777 15.9501 26.7395 15.757 26.9325C15.564 27.1255 15.3022 27.234 15.0293 27.234Z" fill="black"/>
<path d="M21.2047 53.9944H15.0292C14.7563 53.9944 14.4945 53.8859 14.3015 53.6929C14.1084 53.4999 14 53.2381 14 52.9651V46.7953C14 46.5223 14.1084 46.2605 14.3015 46.0675C14.4945 45.8744 14.7563 45.766 15.0292 45.766C15.3022 45.766 15.564 45.8744 15.757 46.0675C15.9501 46.2605 16.0585 46.5223 16.0585 46.7953V51.9415H21.2047C21.4777 51.9415 21.7395 52.0499 21.9325 52.243C22.1255 52.436 22.234 52.6978 22.234 52.9707C22.234 53.2437 22.1255 53.5055 21.9325 53.6985C21.7395 53.8915 21.4777 54 21.2047 54V53.9944Z" fill="black"/>
<path d="M60.3161 27.234C60.0431 27.234 59.7813 27.1255 59.5883 26.9325C59.3953 26.7395 59.2868 26.4777 59.2868 26.2047V21.0585H54.1405C53.8676 21.0585 53.6058 20.9501 53.4128 20.757C53.2197 20.564 53.1113 20.3022 53.1113 20.0292C53.1113 19.7563 53.2197 19.4945 53.4128 19.3015C53.6058 19.1084 53.8676 19 54.1405 19H60.3104C60.5834 19 60.8452 19.1084 61.0382 19.3015C61.2312 19.4945 61.3397 19.7563 61.3397 20.0292V26.1991C61.3404 26.3343 61.3145 26.4683 61.2635 26.5934C61.2124 26.7186 61.1373 26.8325 61.0422 26.9285C60.9472 27.0246 60.8341 27.1011 60.7095 27.1535C60.5849 27.2059 60.4512 27.2332 60.3161 27.234Z" fill="black"/>
<path d="M60.3163 53.9944H54.1464C53.8735 53.9944 53.6116 53.886 53.4186 53.6929C53.2256 53.4999 53.1172 53.2381 53.1172 52.9652C53.1172 52.6922 53.2256 52.4304 53.4186 52.2374C53.6116 52.0444 53.8735 51.9359 54.1464 51.9359H59.2927V46.7897C59.2927 46.5167 59.4011 46.2549 59.5941 46.0619C59.7872 45.8689 60.0489 45.7604 60.3219 45.7604C60.5949 45.7604 60.8567 45.8689 61.0497 46.0619C61.2427 46.2549 61.3512 46.5167 61.3512 46.7897V52.9596C61.3519 53.0957 61.3256 53.2306 61.2739 53.3565C61.2221 53.4824 61.1459 53.5967 61.0497 53.6929C60.9534 53.7892 60.8391 53.8654 60.7132 53.9171C60.5873 53.9689 60.4524 53.9951 60.3163 53.9944Z" fill="black"/>
<path d="M21.205 47.8189C21.0699 47.8189 20.936 47.7923 20.8112 47.7406C20.6863 47.6888 20.5728 47.613 20.4772 47.5174C20.3817 47.4219 20.3058 47.3084 20.2541 47.1835C20.2024 47.0586 20.1758 46.9248 20.1758 46.7896V26.2047C20.1758 25.9317 20.2842 25.67 20.4772 25.4769C20.6703 25.2839 20.9321 25.1755 21.205 25.1755C21.478 25.1755 21.7398 25.2839 21.9328 25.4769C22.1258 25.67 22.2343 25.9317 22.2343 26.2047V46.7896C22.2343 46.9248 22.2076 47.0586 22.1559 47.1835C22.1042 47.3084 22.0284 47.4219 21.9328 47.5174C21.8372 47.613 21.7238 47.6888 21.5989 47.7406C21.474 47.7923 21.3402 47.8189 21.205 47.8189Z" fill="black"/>
<path d="M25.3222 43.7019C25.1871 43.7019 25.0532 43.6753 24.9283 43.6236C24.8035 43.5718 24.69 43.496 24.5944 43.4004C24.4989 43.3049 24.423 43.1914 24.3713 43.0665C24.3196 42.9417 24.293 42.8078 24.293 42.6727V26.2047C24.293 25.9317 24.4014 25.67 24.5944 25.4769C24.7874 25.2839 25.0492 25.1755 25.3222 25.1755C25.5952 25.1755 25.857 25.2839 26.05 25.4769C26.243 25.67 26.3515 25.9317 26.3515 26.2047V42.6727C26.3515 42.8078 26.3248 42.9417 26.2731 43.0665C26.2214 43.1914 26.1456 43.3049 26.05 43.4004C25.9544 43.496 25.841 43.5718 25.7161 43.6236C25.5912 43.6753 25.4574 43.7019 25.3222 43.7019Z" fill="black"/>
<path d="M29.4375 43.7019C29.3023 43.7019 29.1685 43.6753 29.0436 43.6236C28.9187 43.5718 28.8053 43.496 28.7097 43.4004C28.6141 43.3049 28.5383 43.1914 28.4866 43.0665C28.4348 42.9417 28.4082 42.8078 28.4082 42.6727V26.2047C28.4082 25.9317 28.5167 25.67 28.7097 25.4769C28.9027 25.2839 29.1645 25.1755 29.4375 25.1755C29.7104 25.1755 29.9722 25.2839 30.1652 25.4769C30.3583 25.67 30.4667 25.9317 30.4667 26.2047V42.6727C30.4667 42.9456 30.3583 43.2074 30.1652 43.4004C29.9722 43.5935 29.7104 43.7019 29.4375 43.7019Z" fill="black"/>
<path d="M33.5566 43.7019C33.4214 43.7019 33.2876 43.6753 33.1627 43.6236C33.0378 43.5718 32.9244 43.496 32.8288 43.4004C32.7332 43.3049 32.6574 43.1914 32.6057 43.0665C32.554 42.9417 32.5273 42.8078 32.5273 42.6727V26.2047C32.5273 25.9317 32.6358 25.67 32.8288 25.4769C33.0218 25.2839 33.2836 25.1755 33.5566 25.1755C33.8296 25.1755 34.0914 25.2839 34.2844 25.4769C34.4774 25.67 34.5858 25.9317 34.5858 26.2047V42.6727C34.5858 42.9456 34.4774 43.2074 34.2844 43.4004C34.0914 43.5935 33.8296 43.7019 33.5566 43.7019Z" fill="black"/>
<path d="M37.6738 47.8189C37.5386 47.8189 37.4048 47.7923 37.2799 47.7406C37.155 47.6888 37.0416 47.613 36.946 47.5174C36.8504 47.4219 36.7746 47.3084 36.7229 47.1835C36.6712 47.0586 36.6445 46.9248 36.6445 46.7896V26.2047C36.6445 25.9317 36.753 25.67 36.946 25.4769C37.139 25.2839 37.4008 25.1755 37.6738 25.1755C37.9467 25.1755 38.2085 25.2839 38.4016 25.4769C38.5946 25.67 38.703 25.9317 38.703 26.2047V46.7896C38.703 47.0626 38.5946 47.3244 38.4016 47.5174C38.2085 47.7105 37.9467 47.8189 37.6738 47.8189Z" fill="black"/>
<path d="M41.789 43.7019C41.6538 43.7019 41.52 43.6753 41.3951 43.6236C41.2702 43.5718 41.1568 43.496 41.0612 43.4004C40.9656 43.3049 40.8898 43.1914 40.8381 43.0665C40.7864 42.9417 40.7598 42.8078 40.7598 42.6727V26.2047C40.7598 25.9317 40.8682 25.67 41.0612 25.4769C41.2542 25.2839 41.516 25.1755 41.789 25.1755C42.062 25.1755 42.3238 25.2839 42.5168 25.4769C42.7098 25.67 42.8182 25.9317 42.8182 26.2047V42.6727C42.8182 42.8078 42.7916 42.9417 42.7399 43.0665C42.6882 43.1914 42.6124 43.3049 42.5168 43.4004C42.4212 43.496 42.3078 43.5718 42.1829 43.6236C42.058 43.6753 41.9241 43.7019 41.789 43.7019Z" fill="black"/>
<path d="M45.9062 43.7019C45.771 43.7019 45.6372 43.6753 45.5123 43.6236C45.3875 43.5718 45.274 43.496 45.1784 43.4004C45.0829 43.3049 45.007 43.1914 44.9553 43.0665C44.9036 42.9417 44.877 42.8078 44.877 42.6727V26.2047C44.877 25.9317 44.9854 25.67 45.1784 25.4769C45.3715 25.2839 45.6332 25.1755 45.9062 25.1755C46.1792 25.1755 46.441 25.2839 46.634 25.4769C46.827 25.67 46.9354 25.9317 46.9354 26.2047V42.6727C46.9354 42.9456 46.827 43.2074 46.634 43.4004C46.441 43.5935 46.1792 43.7019 45.9062 43.7019Z" fill="black"/>
<path d="M50.0214 43.7019C49.8863 43.7019 49.7525 43.6753 49.6276 43.6236C49.5027 43.5718 49.3892 43.496 49.2937 43.4004C49.1981 43.3049 49.1223 43.1914 49.0705 43.0665C49.0188 42.9417 48.9922 42.8078 48.9922 42.6727V26.2047C48.9922 25.9317 49.1006 25.67 49.2937 25.4769C49.4867 25.2839 49.7485 25.1755 50.0214 25.1755C50.2944 25.1755 50.5562 25.2839 50.7492 25.4769C50.9422 25.67 51.0507 25.9317 51.0507 26.2047V42.6727C51.0507 42.9456 50.9422 43.2074 50.7492 43.4004C50.5562 43.5935 50.2944 43.7019 50.0214 43.7019Z" fill="black"/>
<path d="M54.1405 47.8189C53.8676 47.8189 53.6058 47.7105 53.4128 47.5174C53.2197 47.3244 53.1113 47.0626 53.1113 46.7896V26.2047C53.1113 25.9317 53.2197 25.67 53.4128 25.4769C53.6058 25.2839 53.8676 25.1755 54.1405 25.1755C54.4135 25.1755 54.6753 25.2839 54.8684 25.4769C55.0614 25.67 55.1698 25.9317 55.1698 26.2047V46.7896C55.1698 46.9248 55.1432 47.0586 55.0914 47.1835C55.0397 47.3084 54.9639 47.4219 54.8684 47.5174C54.7728 47.613 54.6593 47.6888 54.5345 47.7406C54.4096 47.7923 54.2757 47.8189 54.1405 47.8189Z" fill="black"/>
<path d="M25.3203 47.8189C25.1852 47.8232 25.051 47.7948 24.9291 47.7362C24.8005 47.6928 24.6865 47.6147 24.5996 47.5104C24.4106 47.3281 24.3012 47.0785 24.2952 46.8159C24.2891 46.5534 24.387 46.299 24.5673 46.1082L24.5996 46.0759C24.6864 45.9716 24.8005 45.8935 24.9291 45.8501C25.1798 45.7471 25.4609 45.7471 25.7116 45.8501C25.8405 45.8929 25.9547 45.9712 26.0411 46.0759C26.1823 46.2198 26.2781 46.4019 26.3167 46.5997C26.3552 46.7976 26.3349 47.0023 26.2581 47.1887C26.1814 47.3751 26.0516 47.5348 25.8849 47.6481C25.7182 47.7614 25.5219 47.8232 25.3203 47.8259V47.8189Z" fill="black"/>
<path d="M29.4386 47.8203C29.237 47.8179 29.0405 47.7562 28.8735 47.643C28.7066 47.5298 28.5766 47.3701 28.4997 47.1837C28.4228 46.9973 28.4023 46.7924 28.4408 46.5945C28.4794 46.3965 28.5752 46.2142 28.7164 46.0703C28.8574 45.9249 29.039 45.8255 29.2375 45.7852C29.4359 45.745 29.6419 45.7656 29.8284 45.8445C29.9573 45.8873 30.0715 45.9655 30.158 46.0703C30.299 46.214 30.3947 46.3959 30.4334 46.5934C30.4721 46.791 30.452 46.9956 30.3756 47.1818C30.2991 47.3681 30.1698 47.5278 30.0035 47.6413C29.8372 47.7548 29.6413 47.817 29.44 47.8203H29.4386Z" fill="black"/>
<path d="M33.5558 47.8189C33.3541 47.8165 33.1576 47.7548 32.9907 47.6416C32.8238 47.5285 32.6938 47.3687 32.6169 47.1823C32.54 46.9959 32.5195 46.791 32.558 46.5931C32.5966 46.3951 32.6924 46.2128 32.8336 46.0689C32.9205 45.9646 33.0345 45.8865 33.1632 45.8432C33.35 45.766 33.5555 45.7463 33.7536 45.7865C33.9516 45.8267 34.1332 45.925 34.2751 46.0689C34.4163 46.2128 34.5121 46.3949 34.5507 46.5927C34.5893 46.7906 34.5689 46.9954 34.4922 47.1817C34.4154 47.3681 34.2856 47.5278 34.1189 47.6411C33.9522 47.7543 33.7559 47.8162 33.5544 47.8189H33.5558Z" fill="black"/>
<path d="M41.7916 47.8189C41.6567 47.8209 41.523 47.7926 41.4004 47.7362C41.2718 47.6928 41.1578 47.6147 41.0709 47.5104C40.8816 47.3282 40.7719 47.0786 40.7659 46.8159C40.7598 46.5533 40.8579 46.2989 41.0386 46.1082L41.0709 46.0759C41.1577 45.9716 41.2718 45.8935 41.4004 45.8501C41.6511 45.7471 41.9322 45.7471 42.1829 45.8501C42.3117 45.8929 42.426 45.9712 42.5124 46.0759C42.6536 46.2198 42.7494 46.4019 42.7879 46.5997C42.8265 46.7976 42.8062 47.0023 42.7294 47.1887C42.6527 47.3751 42.5229 47.5348 42.3562 47.6481C42.1895 47.7614 41.9932 47.8232 41.7916 47.8259V47.8189Z" fill="black"/>
<path d="M45.9088 47.8189C45.7738 47.821 45.6401 47.7927 45.5176 47.7361C45.389 47.6928 45.2749 47.6146 45.188 47.5104C44.9987 47.3282 44.8891 47.0786 44.8831 46.8159C44.877 46.5533 44.9751 46.2988 45.1558 46.1081L45.188 46.0759C45.3804 45.8872 45.6392 45.7814 45.9088 45.7814C46.1783 45.7814 46.4371 45.8872 46.6295 46.0759C46.8203 46.257 46.9314 46.5063 46.9385 46.7692C46.9456 47.0321 46.8481 47.2871 46.6674 47.4781L46.6295 47.516C46.543 47.6206 46.4288 47.6988 46.3 47.7418C46.1771 47.7966 46.0433 47.8229 45.9088 47.8189Z" fill="black"/>
<path d="M50.0318 47.8189C49.8968 47.8209 49.7632 47.7926 49.6406 47.7362C49.512 47.6928 49.3979 47.6146 49.311 47.5104C49.2121 47.4185 49.1335 47.3069 49.0804 47.1827C49.0273 47.0586 49.0007 46.9247 49.0025 46.7897C48.9975 46.6544 49.0259 46.52 49.0853 46.3984C49.1277 46.2697 49.2055 46.1556 49.3097 46.0689C49.3965 45.9646 49.5105 45.8864 49.6392 45.8431C49.826 45.766 50.0315 45.7463 50.2296 45.7865C50.4276 45.8267 50.6092 45.925 50.7511 46.0689C50.8549 46.1562 50.9329 46.2701 50.9769 46.3984C51.0362 46.52 51.0646 46.6544 51.0596 46.7897C51.0522 47.0603 50.9414 47.3178 50.7499 47.5092C50.5585 47.7007 50.301 47.8115 50.0304 47.8189H50.0318Z" fill="black"/>
<path d="M15.0293 27.234C14.7563 27.234 14.4945 27.1255 14.3015 26.9325C14.1085 26.7395 14 26.4777 14 26.2047V20.0349C13.9993 19.8992 14.0254 19.7648 14.0767 19.6393C14.1281 19.5137 14.2038 19.3996 14.2995 19.3034C14.3951 19.2073 14.5088 19.131 14.6341 19.0789C14.7593 19.0268 14.8936 19 15.0293 19H21.1991C21.4721 19 21.7339 19.1084 21.9269 19.3015C22.1199 19.4945 22.2284 19.7563 22.2284 20.0292C22.2284 20.3022 22.1199 20.564 21.9269 20.757C21.7339 20.9501 21.4721 21.0585 21.1991 21.0585H16.0585V26.2047C16.0585 26.4777 15.9501 26.7395 15.757 26.9325C15.564 27.1255 15.3022 27.234 15.0293 27.234Z" fill="black"/>
<path d="M21.2047 53.9944H15.0292C14.7563 53.9944 14.4945 53.8859 14.3015 53.6929C14.1084 53.4999 14 53.2381 14 52.9651V46.7953C14 46.5223 14.1084 46.2605 14.3015 46.0675C14.4945 45.8744 14.7563 45.766 15.0292 45.766C15.3022 45.766 15.564 45.8744 15.757 46.0675C15.9501 46.2605 16.0585 46.5223 16.0585 46.7953V51.9415H21.2047C21.4777 51.9415 21.7395 52.0499 21.9325 52.243C22.1255 52.436 22.234 52.6978 22.234 52.9707C22.234 53.2437 22.1255 53.5055 21.9325 53.6985C21.7395 53.8915 21.4777 54 21.2047 54V53.9944Z" fill="black"/>
<path d="M60.3161 27.234C60.0431 27.234 59.7813 27.1255 59.5883 26.9325C59.3953 26.7395 59.2868 26.4777 59.2868 26.2047V21.0585H54.1405C53.8676 21.0585 53.6058 20.9501 53.4128 20.757C53.2197 20.564 53.1113 20.3022 53.1113 20.0292C53.1113 19.7563 53.2197 19.4945 53.4128 19.3015C53.6058 19.1084 53.8676 19 54.1405 19H60.3104C60.5834 19 60.8452 19.1084 61.0382 19.3015C61.2312 19.4945 61.3397 19.7563 61.3397 20.0292V26.1991C61.3404 26.3343 61.3145 26.4683 61.2635 26.5934C61.2124 26.7186 61.1373 26.8325 61.0422 26.9285C60.9472 27.0246 60.8341 27.1011 60.7095 27.1535C60.5849 27.2059 60.4512 27.2332 60.3161 27.234Z" fill="black"/>
<path d="M60.3163 53.9944H54.1464C53.8735 53.9944 53.6116 53.886 53.4186 53.6929C53.2256 53.4999 53.1172 53.2381 53.1172 52.9652C53.1172 52.6922 53.2256 52.4304 53.4186 52.2374C53.6116 52.0444 53.8735 51.9359 54.1464 51.9359H59.2927V46.7897C59.2927 46.5167 59.4011 46.2549 59.5941 46.0619C59.7872 45.8689 60.0489 45.7604 60.3219 45.7604C60.5949 45.7604 60.8567 45.8689 61.0497 46.0619C61.2427 46.2549 61.3512 46.5167 61.3512 46.7897V52.9596C61.3519 53.0957 61.3256 53.2306 61.2739 53.3565C61.2221 53.4824 61.1459 53.5967 61.0497 53.6929C60.9534 53.7892 60.8391 53.8654 60.7132 53.9171C60.5873 53.9689 60.4524 53.9951 60.3163 53.9944Z" fill="black"/>
</g>
<defs>
<clipPath id="clip0_781_5256">
<rect width="75" height="75" fill="white"/>
</clipPath>
</defs>
</svg>
