<svg xmlns="http://www.w3.org/2000/svg" width="80" height="80" viewBox="0 0 80 80">
  <g id="Group_69426" data-name="Group 69426" transform="translate(-1295 -1422)">
    <g id="Group_69218" data-name="Group 69218">
      <circle id="Ellipse_41" data-name="Ellipse 41" cx="40" cy="40" r="40" transform="translate(1295 1422)" fill="#ffdee4"/>
      <g id="table_management" data-name="table management" transform="translate(1312 1332.879)">
        <path id="Path_31" data-name="Path 31" d="M339.936,116.815a1.818,1.818,0,0,0-1.4-.695h-.565a2.975,2.975,0,0,0-2.825,2.912l-.611,7.833a1.244,1.244,0,0,1-1.181,1.218h-5.289a3.286,3.286,0,0,0-3.073,3.458v.344a1.985,1.985,0,0,0,1.857,2.089h1.133l-1.116,4.1,0,.009-.853,3.135a.716.716,0,0,0,.411.871.556.556,0,0,0,.182.031.633.633,0,0,0,.592-.493l.72-2.644h8.5l.72,2.644a.633.633,0,0,0,.592.493.555.555,0,0,0,.182-.031.716.716,0,0,0,.411-.871l-2.025-7.441a4.285,4.285,0,0,0,1.021-.482.746.746,0,0,0,.229-.951.584.584,0,0,0-.846-.258,3.036,3.036,0,0,1-1.647.492h-8.2a.66.66,0,0,1-.618-.695v-.344a1.961,1.961,0,0,1,1.834-2.064h5.289a2.544,2.544,0,0,0,2.416-2.49l.611-7.833a1.675,1.675,0,0,1,1.59-1.639h.565a.626.626,0,0,1,.49.243.8.8,0,0,1,.172.57l-.846,10.847a4.168,4.168,0,0,1-.138.787.716.716,0,0,0,.407.873.61.61,0,0,0,.776-.458,5.734,5.734,0,0,0,.189-1.079l.846-10.847A2.321,2.321,0,0,0,339.936,116.815Zm-10.661,17.157h5.77l.984,3.616h-7.738Z" transform="translate(-292.852)" fill="#5a5a5a" stroke="#5a5a5a" stroke-linecap="round" stroke-width="0.6"/>
        <path id="Path_32" data-name="Path 32" d="M12.374,128.083H7.086A1.244,1.244,0,0,1,5.9,126.865l-.611-7.833a2.975,2.975,0,0,0-2.825-2.911H1.9a1.818,1.818,0,0,0-1.4.695,2.321,2.321,0,0,0-.493,1.634L.854,129.3a5.374,5.374,0,0,0,1.461,3.331,4.436,4.436,0,0,0,1.834,1.152l-2.025,7.44a.716.716,0,0,0,.411.871.556.556,0,0,0,.182.031.633.633,0,0,0,.592-.493l.72-2.644h8.5l.72,2.644a.633.633,0,0,0,.592.493.556.556,0,0,0,.182-.031.716.716,0,0,0,.411-.871l-.853-3.135,0-.009-1.116-4.1h1.134a1.985,1.985,0,0,0,1.857-2.089v-.344A3.286,3.286,0,0,0,12.374,128.083Zm-7.967,9.507.984-3.616h5.77l.984,3.616Zm9.8-5.705a.66.66,0,0,1-.618.695h-8.2A3.021,3.021,0,0,1,5,132.553H5a3.537,3.537,0,0,1-2.912-3.378l-.846-10.847a.8.8,0,0,1,.172-.57.626.626,0,0,1,.49-.243h.565a1.675,1.675,0,0,1,1.59,1.639l.611,7.833h0a2.544,2.544,0,0,0,2.416,2.49h5.288a1.961,1.961,0,0,1,1.834,2.064v.344Z" transform="translate(0 -0.001)" fill="#5a5a5a" stroke="#5a5a5a" stroke-linecap="round" stroke-width="0.6"/>
        <path id="Path_33" data-name="Path 33" d="M139.545,183.087a2.719,2.719,0,0,0-2.667-1.669H136.4V170.141h9.423a1.979,1.979,0,0,0,1.394-.536,1.253,1.253,0,0,0,.368-1.213,3.377,3.377,0,0,0-3.387-2.236h-15.91a.633.633,0,1,0,0,1.239H144.2a1.882,1.882,0,0,1,1.888,1.246.187.187,0,0,1-.055.181.289.289,0,0,1-.208.08H121.64a.289.289,0,0,1-.208-.08.187.187,0,0,1-.055-.181,1.882,1.882,0,0,1,1.888-1.246H124.7a.633.633,0,1,0,0-1.239h-1.437a3.376,3.376,0,0,0-3.387,2.236,1.253,1.253,0,0,0,.368,1.213,1.979,1.979,0,0,0,1.394.536h9.423v11.278h-.474a2.72,2.72,0,0,0-2.667,1.669l-.18.559A1.007,1.007,0,0,0,128,184.67a1.6,1.6,0,0,0,1.159.461h9.145a1.6,1.6,0,0,0,1.159-.461,1.007,1.007,0,0,0,.259-1.024Zm-6.951-12.947h2.28v11.278h-2.28Zm-3.348,13.751.158-.492a1.209,1.209,0,0,1,1.185-.742h6.288a1.209,1.209,0,0,1,1.185.742l.158.492Z" transform="translate(-109.941 -43.011)" fill="#5a5a5a" stroke="#5a5a5a" stroke-linecap="round" stroke-width="0.6"/>
      </g>
    </g>
  </g>
</svg>
