<svg xmlns="http://www.w3.org/2000/svg" width="412.604" height="269.468" viewBox="0 0 412.604 269.468">
  <g id="Group_73285" data-name="Group 73285" transform="translate(-1267 -8939)" opacity="0.503">
    <g id="Group_73283" data-name="Group 73283" transform="translate(1267 8939)" opacity="0.899">
      <path id="Path_13" data-name="Path 13" d="M455.8,584.56c-.073-2.518-.184-5.053-.276-7.571-.018-.24-.018-.5-.055-.736-.239-1.837-.239-3.694-.57-5.513-.184-2.1-.533-4.153-.9-6.212-.57-3.216-1.268-6.4-2.132-9.539a93.922,93.922,0,0,0-23.193-40.836,90.232,90.232,0,0,0-47.838-26.244c-1.691-.349-3.382-.661-5.091-.918-1.213-.184-2.426-.386-3.657-.515-1.783-.183-3.547-.44-5.33-.514-.313-.019-.607-.055-.919-.074-.79-.056-1.6-.129-2.389-.165-2.463-.092-4.925-.166-7.388-.129a87.5,87.5,0,0,0-9.042.386c-.423.055-.864.055-1.287.092-.367.018-.735.037-1.1.091-2.26.294-4.521.552-6.763.938-3.087.515-7.057,1.4-10.089,2.224a91.424,91.424,0,0,0-34.312,17.845c-1.378,1.139-2.719,2.315-4.043,3.529-.312.294-.625.587-.956.864a1.042,1.042,0,0,1-.294.2.748.748,0,0,1-.349.018.275.275,0,0,1-.2-.275c-.019-.423-.037-.864-.037-1.287v-8.876c0-.68-.037-1.36-.055-2.04a11.865,11.865,0,0,0-.551-3.088,14.968,14.968,0,0,0-10.035-10.034,11.573,11.573,0,0,0-3.087-.57c-.809-.038-1.6-.038-2.408,0a10.981,10.981,0,0,0-3.087.551,14.99,14.99,0,0,0-9.722,8.932,10.4,10.4,0,0,0-.717,2.481,18.885,18.885,0,0,0-.349,3.676c.019.367,0,.735,0,1.1v87.756c.019.422.019.863.074,1.286a25.377,25.377,0,0,1,.257,3.125c.018.422.073.864.11,1.286.074.791.147,1.6.22,2.39.037.368.037.735.092,1.1.239,1.4.349,2.812.551,4.208.276,1.82.57,3.658.938,5.458a101.316,101.316,0,0,0,2.462,9.851,92.848,92.848,0,0,0,9.887,22,95.823,95.823,0,0,0,14.519,18.122,89.278,89.278,0,0,0,38.87,22.568c2.958.845,5.954,1.543,8.987,2.113,1.875.349,3.749.662,5.661.9,1.286.166,2.573.294,3.859.441q1.654.193,3.308.275c.607.037,1.231.092,1.838.128.919.056,1.838.128,2.775.147,1.47.037,2.959.055,3.712.073,3.547,0,6.4-.019,9.208-.294.239-.018.5-.037.735-.037,1.856-.055,3.676-.312,5.513-.514,2.022-.239,4.025-.552,6.029-.919,3.216-.588,6.377-1.323,9.52-2.224a91.179,91.179,0,0,0,28.761-13.949,103.194,103.194,0,0,0,18.452-17.239,89.9,89.9,0,0,0,15.879-27.75,97.75,97.75,0,0,0,3.492-12.24c.515-2.353.938-4.7,1.268-7.093.147-1.1.276-2.206.423-3.29.129-.863.2-1.709.276-2.573.037-.552.11-1.1.147-1.654.055-.68.129-1.341.147-2.021.092-2.021.166-4.062.239-6.1C455.817,586.656,455.835,585.59,455.8,584.56Zm-31.481,4.246c-.019.423-.074.864-.074,1.287a70.16,70.16,0,0,1-1.783,11.67,68.013,68.013,0,0,1-54.841,50.852,33.082,33.082,0,0,1-4.025.515,72.061,72.061,0,0,1-11.431.276c-.606-.019-1.231-.092-1.838-.147-.312-.037-.606-.092-.919-.11a50.528,50.528,0,0,1-6.212-.918,68,68,0,0,1-51.349-45.615,65.456,65.456,0,0,1-2.278-9.115c-.294-1.691-.515-3.4-.717-5.11a71.67,71.67,0,0,1-.258-10.512c.019-.734.111-1.47.184-2.205.018-.312.073-.606.092-.919a62.007,62.007,0,0,1,1.084-7.112,66.2,66.2,0,0,1,3-10.255,69.48,69.48,0,0,1,3.51-7.719c.552-1.029,1.121-2.058,1.709-3.069.607-1.066,1.268-2.114,1.967-3.124a73.43,73.43,0,0,1,8.252-9.924A67.594,67.594,0,0,1,338.711,520a65.779,65.779,0,0,1,7.039-1.506,61.27,61.27,0,0,1,6.6-.717l2.205-.11c1.176-.055,2.334-.055,3.51-.019,1.415.074,2.83.111,4.245.24,1.286.11,2.573.238,3.859.44,1.636.257,3.271.552,4.907.9a68.028,68.028,0,0,1,49.694,44.365,64.344,64.344,0,0,1,2.371,8.914c.4,2.058.661,4.135.955,6.193l.055.551c.092,1.415.184,2.83.257,4.245.037.68.037,1.36.055,2.353C424.408,586.6,424.372,587.7,424.317,588.806Z" transform="translate(-43.215 -485.585)" fill="#fff"/>
      <path id="Path_14" data-name="Path 14" d="M331.417,654.838a11.4,11.4,0,0,0-2.3-.68,22.487,22.487,0,0,0-3.859-.368c-2.775.037-5.55.019-8.307,0-.552,0-1.1,0-1.654-.018a.7.7,0,0,1-.349-.074c-.092-.055-.129-.184-.184-.275a2.68,2.68,0,0,1,.533-.753c1.378-1.489,2.738-3.014,4.025-4.576a92.207,92.207,0,0,0,15.787-27.585,96.358,96.358,0,0,0,3.382-11.689q.772-3.418,1.268-6.892c.166-1.1.294-2.206.441-3.29.11-.79.2-1.581.257-2.389.018-.368.037-.735.092-1.1.184-1.287.22-2.573.276-3.86.037-.992.073-1.966.129-2.958.092-1.728.11-3.455.073-5.165-.073-2.462-.184-4.925-.276-7.388-.018-.239-.018-.5-.055-.735-.239-1.765-.312-3.547-.551-5.33-.4-3-.57-4.19-1.1-7.113a97.455,97.455,0,0,0-2.3-9.7,90.593,90.593,0,0,0-6.892-17.092,88.071,88.071,0,0,0-11.45-16.724,95.207,95.207,0,0,0-25.16-20.639,97.4,97.4,0,0,0-33.375-11.358c-1.1-.165-2.205-.293-3.29-.459-1.654-.238-3.308-.367-4.962-.533-1.893-.184-3.8-.276-5.716-.349a138.8,138.8,0,0,0-15.879.349c-.129.019-.239.019-.368.037-1.58.239-3.2.258-4.778.552-1.967.184-3.9.533-5.844.9a100.691,100.691,0,0,0-11.633,2.886,90.871,90.871,0,0,0-28.652,14.959,103.724,103.724,0,0,0-14.059,13.325,94.4,94.4,0,0,0-6.726,8.564,92.025,92.025,0,0,0-14.556,33.668c-.441,2.04-.827,4.1-1.139,6.175-.294,1.948-.57,3.9-.717,5.863l-.055.551c-.165,1.1-.22,2.206-.276,3.308-.055.992-.11,1.966-.165,2.958-.037.736-.074,1.47-.092,2.224-.055,2.9-.055,5.789.147,8.674.147,2.15.147,4.3.459,6.451.074,1.543.312,3.068.515,4.594.257,1.893.588,3.767.937,5.642a99.156,99.156,0,0,0,3.418,13.03,88.337,88.337,0,0,0,14.886,27.255,96.241,96.241,0,0,0,14.445,14.5,92.87,92.87,0,0,0,23.414,13.931,101.4,101.4,0,0,0,27.677,6.91c.368.037.735.092,1.1.129.607.055,1.231.128,1.838.184,1.231.091,2.463.165,3.676.293a41.012,41.012,0,0,0,4.245.184h87.039c.808,0,1.6-.018,2.407-.037a11.015,11.015,0,0,0,2.187-.312,14.985,14.985,0,0,0,11.578-12.882,15.174,15.174,0,0,0-.423-5.68A15.014,15.014,0,0,0,331.417,654.838ZM309,587.886a23.923,23.923,0,0,1-.184,2.573c-.037.239-.055.5-.074.735a67.066,67.066,0,0,1-5.4,21.006,68.463,68.463,0,0,1-42.251,37.932,67.509,67.509,0,0,1-9.336,2.224c-2.132.35-4.264.607-6.414.754-1.6.092-3.2.239-4.466.2a40.462,40.462,0,0,1-4.392-.165l-.735-.056a66.539,66.539,0,0,1-22.33-5.421,68.476,68.476,0,0,1-37.546-40.323,70.315,70.315,0,0,1-2.518-9.262c-.4-2.058-.68-4.134-.956-6.211-.055-.423-.074-.864-.092-1.287-.037-.606-.074-1.231-.129-1.837a47.743,47.743,0,0,1,0-7.94c.018-.238.037-.5.055-.735a65.133,65.133,0,0,1,2.352-13.8,68.5,68.5,0,0,1,53.958-48.959c1.875-.331,3.768-.57,5.679-.772a74.877,74.877,0,0,1,10.145-.221c.5.018.974.074,1.47.11.368.037.735.092,1.1.11a60.744,60.744,0,0,1,7.48,1.1,66.053,66.053,0,0,1,11.486,3.437,68.493,68.493,0,0,1,38.668,39.256,66.4,66.4,0,0,1,3.234,11.339,50.051,50.051,0,0,1,.9,6.4A65.089,65.089,0,0,1,309,587.886Z" transform="translate(-140.933 -485.529)" fill="#fff"/>
    </g>
    <g id="Group_73284" data-name="Group 73284" transform="translate(1267 9159)">
      <path id="Path_1" data-name="Path 1" d="M446.744,482.966a24.651,24.651,0,0,1,25.05-24.243c.393-.012.791-.015,1.184-.009A24.162,24.162,0,0,1,496.707,483.3v.015a24.784,24.784,0,0,1-4.531,14.4l2.52,2.136a4.6,4.6,0,0,1,1.731,3.624,4.491,4.491,0,0,1-7.693,3.143l-2.982-2.7a24.974,24.974,0,0,1-14.1,4.248c-.392.012-.791.015-1.184.009a24.158,24.158,0,0,1-23.732-24.581v-.024c0-.2,0-.4,0-.6m33.99,13.66a14.534,14.534,0,0,0,4.029-4.473,17.391,17.391,0,0,0,2.316-8.7c.009-.24.018-.481.018-.724a15.368,15.368,0,0,0-15.34-15.388c-8.66,0-15.185,6.947-15.185,16.107a15.407,15.407,0,0,0,24.161,13.167Z" transform="translate(-446.737 -458.71)" fill="#e9eff7" fill-rule="evenodd"/>
      <path id="Path_2" data-name="Path 2" d="M657.315,497.539h0a4.591,4.591,0,0,0-4.631,4.549h0v16.393c0,4.994-2.818,8.055-7.391,8.055s-6.969-2.839-6.969-8.055V502.247a4.592,4.592,0,1,0-9.184-.006v18.778c0,8.7,5.015,14.1,13.091,14.1a12.864,12.864,0,0,0,10.453-5.076v.122a4.631,4.631,0,1,0,9.263,0V502.25a4.65,4.65,0,0,0-4.592-4.711h-.04Z" transform="translate(-573.635 -485.724)" fill="#e9eff7" fill-rule="evenodd"/>
      <path id="Path_3" data-name="Path 3" d="M753.527,515.806c0-10.994,7.714-19.046,17.783-19.046,11.238,0,17.3,9.223,17.3,17.963v.1a4.342,4.342,0,0,1-4.364,4.327H762.875a9.243,9.243,0,0,0,9.366,7.833,12.087,12.087,0,0,0,8.055-2.94,3.5,3.5,0,0,1,2.416-.864,3.766,3.766,0,0,1,3.764,3.767,4.026,4.026,0,0,1-1.226,2.86,18.748,18.748,0,0,1-13.091,4.832c-.411.012-.822.009-1.232-.006a18.125,18.125,0,0,1-17.4-18.827m17.7-11.332c-4.33,0-7.613,3.183-8.5,8.183h16.816c-.605-4.16-3.061-8.183-8.317-8.183" transform="translate(-660.161 -485.181)" fill="#e9eff7" fill-rule="evenodd"/>
      <path id="Path_4" data-name="Path 4" d="M912.765,497.533h0a4.591,4.591,0,0,0-4.631,4.549h0v16.39c0,4.993-2.818,8.055-7.37,8.055s-6.99-2.839-6.99-8.055V502.238a4.592,4.592,0,1,0-9.184,0V521.01c0,8.7,5.015,14.1,13.091,14.1a12.865,12.865,0,0,0,10.453-5.076v.122a4.631,4.631,0,1,0,9.263,0v-27.91a4.651,4.651,0,0,0-4.592-4.711h-.04Z" transform="translate(-751.352 -485.717)" fill="#e9eff7" fill-rule="evenodd"/>
      <path id="Path_5" data-name="Path 5" d="M1008.977,515.806c0-10.994,7.693-19.046,17.762-19.046,11.238,0,17.318,9.223,17.318,17.963v.1a4.342,4.342,0,0,1-4.364,4.327h-21.435a9.239,9.239,0,0,0,9.424,7.833,12.229,12.229,0,0,0,8.055-2.94,3.486,3.486,0,0,1,2.416-.864,3.766,3.766,0,0,1,3.764,3.767,4.027,4.027,0,0,1-1.226,2.86,18.749,18.749,0,0,1-13.091,4.832c-.411.012-.822.009-1.232-.006a18.124,18.124,0,0,1-17.391-18.827h0m17.7-11.332c-4.33,0-7.614,3.183-8.5,8.183h16.816c-.6-4.16-3.061-8.183-8.317-8.183" transform="translate(-837.877 -485.181)" fill="#e9eff7" fill-rule="evenodd"/>
      <path id="Path_6" data-name="Path 6" d="M1175.9,484.384a11.359,11.359,0,0,0,5.922-10.432,10.952,10.952,0,0,0-3.305-8.055,17.375,17.375,0,0,0-12.607-4.309h-16.816a4.65,4.65,0,0,0-4.692,4.61v38.524a4.65,4.65,0,0,0,4.592,4.711h17.583c11.174,0,17.844-5.015,17.844-13.511,0-5.578-2.721-9.324-8.52-11.539m-22.272-14.479h11.259c4.857,0,7.653,2.015,7.653,5.517,0,5.033-5.176,5.779-8.255,5.779h-10.654v-11.3Zm0,31.054h13.009c3.1,0,8.5-.968,8.5-5.84s-4.914-5.861-9.062-5.861h-12.446Z" transform="translate(-932.1 -460.688)" fill="#e9eff7" fill-rule="evenodd"/>
      <path id="Path_7" data-name="Path 7" d="M1320.053,497.54h0a4.594,4.594,0,0,0-4.631,4.552v16.393c0,4.994-2.839,8.055-7.392,8.055s-6.986-2.839-6.986-8.055V502.25a4.592,4.592,0,1,0-9.184,0v18.772c0,8.7,5.014,14.1,13.109,14.1a12.865,12.865,0,0,0,10.453-5.076v.122a4.631,4.631,0,0,0,9.242,0v-27.91a4.627,4.627,0,0,0-4.55-4.711h-.061Z" transform="translate(-1034.689 -485.724)" fill="#e9eff7" fill-rule="evenodd"/>
      <path id="Path_8" data-name="Path 8" d="M1430.839,512.22l-.684-.222c-3.688-1.187-6.868-2.215-6.868-4.391,0-1.771,1.732-2.918,4.391-2.918a18.479,18.479,0,0,1,8.055,2.337,3.749,3.749,0,0,0,1.853.463,3.8,3.8,0,0,0,3.886-3.722v-.1a4.021,4.021,0,0,0-2.337-3.563,24.8,24.8,0,0,0-11.338-2.94c-7.711,0-13.109,4.653-13.109,11.439s5.9,9.324,11.4,10.894l.846.24c3.563,1.086,6.646,2.014,6.646,4.288s-1.832,3.241-4.915,3.241a18.13,18.13,0,0,1-9.868-3.323,4.248,4.248,0,0,0-2.015-.545,3.786,3.786,0,0,0-3.825,3.746v.079a3.674,3.674,0,0,0,1.771,3.262,24.784,24.784,0,0,0,13.733,4.309c8.417,0,13.633-4.473,13.633-11.782.082-6.381-5.374-8.956-11.253-10.788Z" transform="translate(-1118.934 -485.46)" fill="#e9eff7" fill-rule="evenodd"/>
      <path id="Path_9" data-name="Path 9" d="M1533.43,484.288a4.027,4.027,0,0,0,0-8.052h-5.782v-5.444a4.59,4.59,0,0,0-9.181,0v5.438h-.785a4.027,4.027,0,0,0,0,8.052h.785v18.005c0,7.23,3.606,10.894,10.693,10.894a16.745,16.745,0,0,0,5.761-.968,3.887,3.887,0,0,0-1.893-7.492h-.122a8.533,8.533,0,0,1-1.473.14c-2.617,0-3.785-1.187-3.785-3.846v-16.73h5.782Z" transform="translate(-1189.062 -463.928)" fill="#e9eff7" fill-rule="evenodd"/>
      <path id="Path_10" data-name="Path 10" d="M1597.767,515.806c0-10.994,7.693-19.046,17.762-19.046,11.238,0,17.318,9.223,17.318,17.963v.1a4.342,4.342,0,0,1-4.364,4.327h-21.432a9.243,9.243,0,0,0,9.424,7.775,12.229,12.229,0,0,0,8.055-2.94,3.5,3.5,0,0,1,2.416-.864h.061a3.764,3.764,0,0,1,3.707,3.825v0a4.028,4.028,0,0,1-1.226,2.86,18.75,18.75,0,0,1-13.091,4.832c-.411.012-.818.009-1.229-.006a18.124,18.124,0,0,1-17.4-18.821v-.009m17.7-11.332c-4.33,0-7.614,3.183-8.5,8.183h16.816c-.612-4.16-3.061-8.183-8.316-8.183" transform="translate(-1247.499 -485.181)" fill="#e9eff7" fill-rule="evenodd"/>
      <path id="Path_11" data-name="Path 11" d="M1747.621,497.519c-3.083,0-6.183,2.276-8.338,6.04v-1.248a4.592,4.592,0,0,0-9.183-.015v27.849a4.489,4.489,0,0,0,4.427,4.552h.143a4.593,4.593,0,0,0,4.613-4.552V519.673c0-7.492,3.281-12.084,9.224-13.21a4.524,4.524,0,0,0-.411-8.943c-.158-.006-.32-.006-.475,0Z" transform="translate(-1339.572 -485.707)" fill="#e9eff7" fill-rule="evenodd"/>
    </g>
  </g>
</svg>
