<svg xmlns="http://www.w3.org/2000/svg" width="74" height="74" viewBox="0 0 74 74">
  <g id="Group_73150" data-name="Group 73150" transform="translate(0)">
    <circle id="Ellipse_635" data-name="Ellipse 635" cx="37" cy="37" r="37" transform="translate(0)" fill="#eec9ff"/>
    <g id="Group_73155" data-name="Group 73155" transform="translate(17 17)">
      <g id="XMLID_1487_" transform="translate(13.599 10.711)">
        <g id="XMLID_1153_" transform="translate(0)">
          <g id="Group_73079" data-name="Group 73079">
            <g id="Group_72847" data-name="Group 72847">
              <g id="Path_23297" data-name="Path 23297" transform="translate(-56.365)" fill="#5a5a5a">
                <path d="M 65.99125671386719 20.69540405273438 C 65.80034637451172 20.69540405273438 65.61891174316406 20.62292289733887 65.48036956787109 20.49130439758301 L 56.45285797119141 11.95305347442627 C 56.30438995361328 11.80465316772461 56.2209587097168 11.60941410064697 56.2209587097168 11.41446399688721 C 56.21737670898438 11.21546363830566 56.29311752319336 11.02452373504639 56.43425750732422 10.87949371337891 C 56.5748291015625 10.7350435256958 56.76330947875977 10.65351390838623 56.96495819091797 10.64990329742432 L 60.57754898071289 10.64988327026367 C 62.8721923828125 10.64425277709961 64.82341003417969 8.963842391967773 65.18418884277344 6.71346378326416 L 56.96167755126953 6.71346378326416 C 56.54994964599609 6.71346378326416 56.21498870849609 6.378513813018799 56.21498870849609 5.966793537139893 C 56.21498870849609 5.555073738098145 56.54994964599609 5.220113754272461 56.96167755126953 5.220113754272461 L 65.18373107910156 5.220113754272461 C 64.82045745849609 2.998246431350708 62.86998748779297 1.343353629112244 60.57754898071289 1.343353629112244 L 56.96167755126953 1.343353629112244 C 56.54994964599609 1.343353629112244 56.21498870849609 1.008403658866882 56.21498870849609 0.5966836214065552 C 56.21498870849609 0.1849636286497116 56.54994964599609 -0.1499963700771332 56.96167755126953 -0.1499963700771332 L 69.58739471435547 -0.1499963700771332 C 69.99911499023438 -0.1499963700771332 70.33406829833984 0.1849636286497116 70.33406829833984 0.5966836214065552 C 70.33406829833984 1.008403658866882 69.99911499023438 1.343353629112244 69.58739471435547 1.343353629112244 L 64.59729766845703 1.343353629112244 C 65.73283386230469 2.308261632919312 66.49958801269531 3.721308708190918 66.68996429443359 5.220113754272461 L 69.58739471435547 5.220113754272461 C 69.99911499023438 5.220113754272461 70.33406829833984 5.555073738098145 70.33406829833984 5.966793537139893 C 70.33406829833984 6.378513813018799 69.99911499023438 6.71346378326416 69.58739471435547 6.71346378326416 L 66.69077301025391 6.71346378326416 C 66.51455688476562 8.176861763000488 65.81851959228516 9.52783203125 64.72122192382812 10.53024387359619 C 63.58260726928711 11.57040405273438 62.1088981628418 12.14324378967285 60.57157897949219 12.14324378967285 L 58.83619689941406 12.14324378967285 L 66.50421142578125 19.39646339416504 C 66.80453491210938 19.68926429748535 66.81735992431641 20.15601348876953 66.53501129150391 20.46064376831055 C 66.392822265625 20.6103343963623 66.19509124755859 20.69540405273438 65.99125671386719 20.69540405273438 Z" stroke="none"/>
                <path d="M 56.96167755126953 3.814697265625e-06 C 56.63349914550781 3.814697265625e-06 56.364990234375 0.2685031890869141 56.364990234375 0.5966835021972656 C 56.364990234375 0.9248542785644531 56.63349914550781 1.193353652954102 56.96167755126953 1.193353652954102 L 60.57754516601562 1.193353652954102 C 63.03586959838867 1.193353652954102 65.0645751953125 3.043064117431641 65.35693359375 5.370113372802734 L 56.96167755126953 5.370113372802734 C 56.63349914550781 5.370113372802734 56.364990234375 5.638613700866699 56.364990234375 5.966794013977051 C 56.364990234375 6.294963836669922 56.63349914550781 6.56346321105957 56.96167755126953 6.56346321105957 L 65.35693359375 6.56346321105957 C 65.05859375 8.980013847351074 63.00601959228516 10.79392337799072 60.57754516601562 10.79988384246826 L 56.96763610839844 10.79988384246826 C 56.63349914550781 10.80585384368896 56.364990234375 11.08032321929932 56.37095642089844 11.41446399688721 C 56.37095642089844 11.57557392120361 56.44256591796875 11.73070335388184 56.55593109130859 11.84407329559326 L 65.58367919921875 20.38255310058594 C 65.82234191894531 20.60928153991699 66.1982421875 20.59735488891602 66.42500305175781 20.35868453979492 C 66.6517333984375 20.11404418945312 66.63978576660156 19.73813438415527 66.401123046875 19.50543403625488 L 58.45933532714844 11.99324321746826 L 60.57157897949219 11.99324321746826 C 63.68624877929688 11.99324321746826 66.2579345703125 9.606523513793945 66.5562744140625 6.56346321105957 L 69.58740234375 6.56346321105957 C 69.91557312011719 6.56346321105957 70.18406677246094 6.294963836669922 70.18406677246094 5.966794013977051 C 70.18406677246094 5.638613700866699 69.91557312011719 5.370113372802734 69.58740234375 5.370113372802734 L 66.5562744140625 5.370113372802734 C 66.38322448730469 3.699413299560547 65.48223876953125 2.148042678833008 64.16358947753906 1.193353652954102 L 69.58740234375 1.193353652954102 C 69.91557312011719 1.193353652954102 70.18406677246094 0.9248542785644531 70.18406677246094 0.5966835021972656 C 70.18406677246094 0.2685031890869141 69.91557312011719 3.814697265625e-06 69.58740234375 3.814697265625e-06 L 56.96167755126953 3.814697265625e-06 M 56.96167755126953 -0.2999954223632812 L 69.58740234375 -0.2999954223632812 C 70.08183288574219 -0.2999954223632812 70.48406982421875 0.1022529602050781 70.48406982421875 0.5966835021972656 C 70.48406982421875 1.091114044189453 70.08183288574219 1.493352890014648 69.58740234375 1.493352890014648 L 64.98528289794922 1.493352890014648 C 65.95716857910156 2.436590194702148 66.61820220947266 3.714759826660156 66.82064819335938 5.070113182067871 L 69.58740234375 5.070113182067871 C 70.08183288574219 5.070113182067871 70.48406982421875 5.472363471984863 70.48406982421875 5.966794013977051 C 70.48406982421875 6.461223602294922 70.08183288574219 6.863463401794434 69.58740234375 6.863463401794434 L 66.8223876953125 6.863463401794434 C 66.61685180664062 8.311611175537109 65.91319274902344 9.644518852233887 64.8223876953125 10.64099407196045 C 63.65606689453125 11.70646381378174 62.14643096923828 12.29324340820312 60.57157897949219 12.29324340820312 L 59.21305847167969 12.29324340820312 L 66.60728454589844 19.2874927520752 C 66.96797180175781 19.63911437988281 66.98310852050781 20.19783401489258 66.64502716064453 20.56260299682617 C 66.473388671875 20.74331283569336 66.23602294921875 20.84540367126465 65.99125671386719 20.84540367126465 C 65.76173400878906 20.84540367126465 65.54359436035156 20.75827407836914 65.37705993652344 20.60005378723145 L 56.34378814697266 12.05619335174561 C 56.1710205078125 11.88341808319092 56.07167816162109 11.65059089660645 56.07096099853516 11.4170093536377 C 56.06362152099609 10.91998672485352 56.46287536621094 10.50885677337646 56.9622802734375 10.49993324279785 L 56.96763610839844 10.4998836517334 L 60.57754516601562 10.4998836517334 C 62.73878860473633 10.49457454681396 64.58549499511719 8.953886985778809 65.00473022460938 6.863463401794434 L 56.96167755126953 6.863463401794434 C 56.46723937988281 6.863463401794434 56.06498718261719 6.461223602294922 56.06498718261719 5.966794013977051 C 56.06498718261719 5.472363471984863 56.46723937988281 5.070113182067871 56.96167755126953 5.070113182067871 L 65.00362396240234 5.070113182067871 C 64.58119201660156 3.008678436279297 62.73600387573242 1.493352890014648 60.57754516601562 1.493352890014648 L 56.96167755126953 1.493352890014648 C 56.46723937988281 1.493352890014648 56.06498718261719 1.091114044189453 56.06498718261719 0.5966835021972656 C 56.06498718261719 0.1022529602050781 56.46723937988281 -0.2999954223632812 56.96167755126953 -0.2999954223632812 Z" stroke="none" fill="#5a5a5a"/>
              </g>
            </g>
          </g>
        </g>
      </g>
      <g id="Group_73080" data-name="Group 73080">
        <circle id="Ellipse_1070" data-name="Ellipse 1070" cx="20" cy="20" r="20" fill="none" stroke="#5a5a5a" stroke-width="2"/>
        <line id="Line_769" data-name="Line 769" x1="28.509" y2="31.1" transform="translate(5.226 3.93)" fill="none" stroke="#5a5a5a" stroke-width="2"/>
      </g>
    </g>
  </g>
</svg>
