<svg xmlns="http://www.w3.org/2000/svg" width="74" height="74" viewBox="0 0 74 74">
  <g id="Group_73154" data-name="Group 73154" transform="translate(0.051 0)">
    <circle id="Ellipse_635" data-name="Ellipse 635" cx="37" cy="37" r="37" transform="translate(-0.051 0)" fill="#8ae4f6"/>
    <g id="Group_73157" data-name="Group 73157" transform="translate(14.886 13.652)">
      <path id="Path_23299" data-name="Path 23299" d="M31.558,20.721C27,14.016,20.914,10.453,17.727,12.636a3.677,3.677,0,0,0-.9.906c0,.026-7.379,14.959-7.379,14.959l-4.12,2.791a5.819,5.819,0,0,0-1.545,8.085l.185.273A5.829,5.829,0,0,0,12.016,41.2l6.617,9.748a3.756,3.756,0,0,0,5.15.989,3.486,3.486,0,0,0,1.545-2.369,3.687,3.687,0,0,0-.572-2.781l-5.829-8.6s13.78-1.1,13.832-1.117a3.3,3.3,0,0,0,1.2-.515c1.638-1.112,2.225-3.445,1.658-6.571a25.2,25.2,0,0,0-4.058-9.259ZM5.466,38.636l-.185-.273a4.011,4.011,0,0,1,1.071-5.577l3.558-2.42,4.7,6.916L11.048,39.7a4.017,4.017,0,0,1-5.582-1.066ZM23.273,47.8a1.905,1.905,0,0,1-3.162,2.127l-6.6-9.717,2.652-1.8.7-.057ZM16.311,36.581l-5.119-7.539,4.882-9.954a24.781,24.781,0,0,0,4.073,9.377,24.861,24.861,0,0,0,7.209,7.245Zm15.191-1.2c-2.461-.16-6.468-2.935-9.861-7.935s-4.5-9.733-3.739-12.086a2.194,2.194,0,0,1,2.06-1.545c2.441,0,6.6,2.791,10.088,7.935a21.97,21.97,0,0,1,3.79,8.569C34.607,35.381,31.5,35.381,31.5,35.381Z" transform="translate(-2.776 -5.87)" fill="#5a5a5a"/>
      <path id="Path_23300" data-name="Path 23300" d="M42.349,29.225a4.835,4.835,0,0,0-3.666.757.9.9,0,0,0,1.03,1.488,3.09,3.09,0,0,1,3.471,5.113.9.9,0,0,0,.515,1.643.881.881,0,0,0,.515-.154,4.887,4.887,0,0,0-1.828-8.847Z" transform="translate(-20.003 -14.183)" fill="#5a5a5a"/>
      <path id="Path_23301" data-name="Path 23301" d="M60.069,8.684h.088a.9.9,0,0,0,.9-.808l.7-6.756A.9.9,0,1,0,59.956.934L59.265,7.7a.9.9,0,0,0,.8.989Z" transform="translate(-30.174 -0.1)" fill="#5a5a5a"/>
      <path id="Path_23302" data-name="Path 23302" d="M75.977,13.688a.906.906,0,0,0-1.251-.257l-6.277,4.12a.9.9,0,0,0,.515,1.653.917.917,0,0,0,.515-.144l6.277-4.12A.9.9,0,0,0,75.977,13.688Z" transform="translate(-34.434 -6.494)" fill="#5a5a5a"/>
      <path id="Path_23303" data-name="Path 23303" d="M79.3,34.18,72,32.866a.9.9,0,0,0-.319,1.777l7.3,1.313h.16a.9.9,0,0,0,.16-1.792Z" transform="translate(-35.837 -15.987)" fill="#5a5a5a"/>
    </g>
  </g>
</svg>
