<svg xmlns="http://www.w3.org/2000/svg" width="74" height="74" viewBox="0 0 74 74">
  <g id="Group_73153" data-name="Group 73153" transform="translate(-0.082)">
    <circle id="Ellipse_635" data-name="Ellipse 635" cx="37" cy="37" r="37" transform="translate(0.082)" fill="#f8d378"/>
    <g id="Group_73156" data-name="Group 73156" transform="translate(16.274 16.274)">
      <path id="Path_23306" data-name="Path 23306" d="M41.1,11.785,29.666.356A1.214,1.214,0,0,0,28.808,0H12.644a1.214,1.214,0,0,0-.859.356L.356,11.785A1.214,1.214,0,0,0,0,12.644V28.808a1.214,1.214,0,0,0,.356.859L11.785,41.1a1.214,1.214,0,0,0,.859.356H28.808a1.214,1.214,0,0,0,.859-.356L41.1,29.666a1.214,1.214,0,0,0,.356-.859V12.644a1.214,1.214,0,0,0-.356-.859ZM39.023,28.3,28.3,39.023H13.147L2.429,28.3V13.147L13.147,2.429H28.3L39.023,13.147Z" transform="translate(0 0)" fill="#5a5a5a"/>
      <path id="Path_23307" data-name="Path 23307" d="M67.143,200.159c-1.027-.379-1.981-.792-2.238-.905a.759.759,0,0,1-.295-.731,1.036,1.036,0,0,1,.786-.814,2.9,2.9,0,0,1,2.415.552.81.81,0,0,0,1.038-1.242,4.5,4.5,0,0,0-3.92-.861,2.648,2.648,0,0,0-1.922,2.134,2.373,2.373,0,0,0,1.058,2.349.8.8,0,0,0,.112.061c.047.021,1.156.514,2.4.975.851.314,1.285.8,1.191,1.328a1.568,1.568,0,0,1-1.614,1.087,3.024,3.024,0,0,1-2.221-.934.81.81,0,0,0-1.2,1.087,4.667,4.667,0,0,0,3.421,1.466,3.177,3.177,0,0,0,3.207-2.422C69.554,202.242,69.068,200.869,67.143,200.159Z" transform="translate(-57.466 -180.129)" fill="#5a5a5a"/>
      <path id="Path_23308" data-name="Path 23308" d="M162.667,196H158.2a.81.81,0,0,0,0,1.619h1.417v7.286a.81.81,0,0,0,1.619,0v-7.286h1.435a.81.81,0,1,0,0-1.619Z" transform="translate(-144.644 -180.132)" fill="#5a5a5a"/>
      <path id="Path_23309" data-name="Path 23309" d="M372.5,205.715a.81.81,0,0,0,.81-.81v-2.711c.5,0,1.114-.006,1.445-.006a3.095,3.095,0,1,0,0-6.189H372.5a.809.809,0,0,0-.81.81h0v8.1A.81.81,0,0,0,372.5,205.715Zm2.254-8.1a1.476,1.476,0,1,1,0,2.95c-.329,0-.934,0-1.434.005,0-.514-.005-1.144-.005-1.481,0-.285,0-.939,0-1.475Z" transform="translate(-341.599 -180.132)" fill="#5a5a5a"/>
      <path id="Path_23310" data-name="Path 23310" d="M239.858,196a4.858,4.858,0,1,0,4.858,4.858A4.863,4.863,0,0,0,239.858,196Zm0,8.1a3.238,3.238,0,1,1,3.238-3.238A3.242,3.242,0,0,1,239.858,204.1Z" transform="translate(-215.974 -180.132)" fill="#5a5a5a"/>
    </g>
  </g>
</svg>
