<svg xmlns="http://www.w3.org/2000/svg" width="74" height="74" viewBox="0 0 74 74">
  <g id="Group_73154" data-name="Group 73154" transform="translate(0)">
    <circle id="Ellipse_635" data-name="Ellipse 635" cx="37" cy="37" r="37" transform="translate(0)" fill="#8ae4f6"/>
    <g id="Group_73463" data-name="Group 73463" transform="translate(14.598 5.153)">
      <path id="Path_23502" data-name="Path 23502" d="M185.009,432.326h10.828a.875.875,0,1,0,0-1.75H185.009a.875.875,0,0,0,0,1.75Z" transform="translate(-168.021 -383.453)" fill="#5a5a5a" stroke="#8ae4f6" stroke-width="0.75"/>
      <path id="Path_23503" data-name="Path 23503" d="M44.8,43.523a.883.883,0,0,0-.006-.1L42.711,25.251a.875.875,0,0,0-.869-.775H33.026V20.028h6.048a1.891,1.891,0,0,0,1.89-1.888v-5.9a1.891,1.891,0,0,0-1.89-1.888H25.228a1.891,1.891,0,0,0-1.89,1.888v5.9a1.891,1.891,0,0,0,1.89,1.888h6.048v4.447H17.565V22.709a.875.875,0,0,0-.875-.875H8.637a.875.875,0,0,0-.875.875v1.767h-4.8a.875.875,0,0,0-.869.775L.006,43.427a.883.883,0,0,0-.006.1v7.253a2.568,2.568,0,0,0,2.567,2.564H42.234a2.57,2.57,0,0,0,2.57-2.564V43.526S44.8,43.524,44.8,43.523ZM25.088,18.14v-5.9a.143.143,0,0,1,.14-.138H39.074a.143.143,0,0,1,.14.138v5.9a.141.141,0,0,1-.14.138H25.228a.143.143,0,0,1-.14-.138ZM9.512,23.584h6.3v9.98h-6.3ZM3.743,26.226H7.762v7.338h-.5a.875.875,0,0,0,0,1.75h10.8a.875.875,0,1,0,0-1.75h-.5V26.226h23.5l1.887,16.425H1.856ZM43.054,50.779a.817.817,0,0,1-.82.813H2.567a.816.816,0,0,1-.817-.813V44.4h41.3Z" transform="translate(0)" fill="#5a5a5a" stroke="#8ae4f6" stroke-width="0.75"/>
    </g>
  </g>
</svg>
