<svg id="Group_73153" data-name="Group 73153" xmlns="http://www.w3.org/2000/svg" width="74" height="74" viewBox="0 0 74 74">
  <circle id="Ellipse_635" data-name="Ellipse 635" cx="37" cy="37" r="37" fill="#f8d378"/>
  <g id="XMLID_164_" transform="translate(7.815 5.067)">
    <g id="XMLID_292_" transform="translate(-20.7 -20.33)" fill="#5a5a5a">
      <path d="M 55.09747695922852 72.8209228515625 C 54.55434799194336 72.8209228515625 54.12888717651367 72.39546203613281 54.12888717651367 71.85233306884766 L 54.12888717651367 59.4913330078125 L 54.12888717651367 58.58600234985352 L 53.48871612548828 59.22616195678711 L 51.76892852783203 60.94595336914062 L 51.76195907592773 60.95293426513672 L 51.75536727905273 60.96026229858398 C 51.59347915649414 61.14013290405273 51.36560821533203 61.23919296264648 51.11373901367188 61.23919296264648 C 50.85433578491211 61.23919296264648 50.60733795166016 61.13505172729492 50.41824722290039 60.94595336914062 L 50.4112663269043 60.93898391723633 L 50.40393829345703 60.9323844909668 C 50.23062896728516 60.77641296386719 50.13168716430664 60.55725479125977 50.12531661987305 60.31529235839844 C 50.11836624145508 60.05081176757812 50.22512817382812 59.78837203979492 50.41824722290039 59.59526443481445 L 54.39525604248047 55.61823272705078 L 54.40222930908203 55.61126327514648 L 54.40881729125977 55.60394287109375 C 54.57070922851562 55.42406463623047 54.79857635498047 55.32500457763672 55.05044937133789 55.32500457763672 C 55.30984878540039 55.32500457763672 55.55685806274414 55.42914199829102 55.74595642089844 55.61824417114258 L 59.83401870727539 59.59877395629883 L 59.83929824829102 59.60390472412109 L 59.84475708007812 59.60882186889648 C 60.01806640625 59.76480484008789 60.11701583862305 59.98396301269531 60.12337875366211 60.22593307495117 C 60.13032913208008 60.49041366577148 60.02356719970703 60.75285339355469 59.8304557800293 60.94596481323242 C 59.64623641967773 61.13017272949219 59.42966842651367 61.21232223510742 59.12823867797852 61.21232223510742 C 58.82681655883789 61.21232223510742 58.61024856567383 61.13017272949219 58.42601776123047 60.94595336914062 L 56.70623779296875 59.22616195678711 L 56.06606674194336 58.58600234985352 L 56.06606674194336 59.4913330078125 L 56.06606674194336 71.85233306884766 C 56.06606674194336 72.39546203613281 55.64060592651367 72.8209228515625 55.09747695922852 72.8209228515625 Z" stroke="none"/>
      <path d="M 55.05044937133789 55.70000457763672 C 54.96694946289062 55.70000457763672 54.80877685546875 55.72011566162109 54.68755722045898 55.85480499267578 L 54.66041946411133 55.88339996337891 L 50.68340682983398 59.86042022705078 C 50.56270599365234 59.98112487792969 50.49592590332031 60.14332580566406 50.50018692016602 60.30543518066406 C 50.50229644775391 60.38540649414062 50.52517700195312 60.53699493408203 50.6547966003418 60.65365600585938 L 50.68340682983398 60.68079376220703 C 50.80167770385742 60.79906463623047 50.95449829101562 60.86419677734375 51.11373901367188 60.86419677734375 C 51.19723892211914 60.86419677734375 51.35540771484375 60.84408569335938 51.47663879394531 60.70938110351562 L 51.50376892089844 60.68079376220703 L 54.50388717651367 57.68067169189453 L 54.50388717651367 71.85233306884766 C 54.50388717651367 72.19073486328125 54.75907897949219 72.4459228515625 55.09747695922852 72.4459228515625 C 55.43587875366211 72.4459228515625 55.69106674194336 72.19073486328125 55.69106674194336 71.85233306884766 L 55.69106674194336 57.68067169189453 L 58.69117736816406 60.6807861328125 C 58.77248764038086 60.7620849609375 58.88170623779297 60.83732604980469 59.12823867797852 60.83732604980469 C 59.37477874755859 60.83732604980469 59.4839973449707 60.7620849609375 59.56528854370117 60.68079376220703 C 59.68598937988281 60.56009674072266 59.75276947021484 60.39790344238281 59.74850845336914 60.23579406738281 C 59.74640655517578 60.15581512451172 59.72351837158203 60.00422668457031 59.59389877319336 59.88755035400391 L 59.57241821289062 59.86743927001953 L 55.48078918457031 55.88339996337891 C 55.36251831054688 55.76513671875 55.20968627929688 55.70000457763672 55.05044937133789 55.70000457763672 M 55.05044937133789 54.94999694824219 C 55.39306640625 54.94999694824219 55.74239730834961 55.08435821533203 56.01111602783203 55.35307312011719 L 60.09562683105469 59.33009338378906 C 60.633056640625 59.81378936767578 60.633056640625 60.67368316650391 60.09562683105469 61.21112060546875 C 59.82690811157227 61.47983551025391 59.50444793701172 61.58732604980469 59.12823867797852 61.58732604980469 C 58.75202941894531 61.58732604980469 58.4295768737793 61.47983551025391 58.16085815429688 61.21112060546875 L 56.44106674194336 59.4913330078125 L 56.44106674194336 71.85233306884766 C 56.44106674194336 72.604736328125 55.84988784790039 73.1959228515625 55.09747695922852 73.1959228515625 C 54.34506607055664 73.1959228515625 53.75388717651367 72.604736328125 53.75388717651367 71.85233306884766 L 53.75388717651367 59.4913330078125 L 52.03409957885742 61.21112060546875 C 51.55039978027344 61.74854278564453 50.69050216674805 61.74855041503906 50.153076171875 61.21112060546875 C 49.61563873291016 60.72743225097656 49.61563873291016 59.86753082275391 50.153076171875 59.33009338378906 L 54.13008880615234 55.35307312011719 C 54.3719367980957 55.08435821533203 54.70783615112305 54.94999694824219 55.05044937133789 54.94999694824219 Z" stroke="none" fill="#f8d378"/>
    </g>
    <g id="XMLID_293_" transform="translate(-11.726 -20.353)" fill="#5a5a5a">
      <path d="M 35.69747161865234 72.84403991699219 C 35.39604187011719 72.84403991699219 35.17947006225586 72.76188659667969 34.99526214599609 72.57766723632812 L 31.01824188232422 68.60064697265625 L 31.01126098632812 68.59368133544922 L 31.00393104553223 68.58708953857422 C 30.83063125610352 68.43110656738281 30.73168182373047 68.21195983886719 30.72532081604004 67.96999359130859 C 30.71836090087891 67.70551300048828 30.82513236999512 67.44306945800781 31.01824188232422 67.24994659423828 L 31.02521133422852 67.24298095703125 L 31.03180122375488 67.23564910888672 C 31.19369125366211 67.05577850341797 31.42156219482422 66.95671844482422 31.67343139648438 66.95671844482422 C 31.93283081054688 66.95671844482422 32.17983245849609 67.06085968017578 32.36892318725586 67.24996185302734 L 34.08872222900391 68.96975708007812 L 34.7288932800293 69.60991668701172 L 34.7288932800293 68.70458984375 L 34.7288932800293 56.34358978271484 C 34.7288932800293 55.80046081542969 35.15434265136719 55.375 35.69747161865234 55.375 C 36.2406005859375 55.375 36.66606140136719 55.80046081542969 36.66606140136719 56.34358978271484 L 36.66606140136719 68.70458984375 L 36.66606140136719 69.60991668701172 L 37.30623245239258 68.96974945068359 L 39.02602005004883 67.24994659423828 C 39.21511077880859 67.06085968017578 39.46212005615234 66.95671844482422 39.72152328491211 66.95671844482422 C 39.97338104248047 66.95671844482422 40.20125198364258 67.05577850341797 40.36314010620117 67.23564910888672 L 40.3763427734375 67.25032043457031 L 40.39101028442383 67.26351928710938 C 40.56432342529297 67.41950225830078 40.66327285766602 67.63865661621094 40.66963195800781 67.88063049316406 C 40.67658233642578 68.14511108398438 40.56982040405273 68.40753936767578 40.37670135498047 68.60064697265625 L 36.39968109130859 72.57766723632812 C 36.21548080444336 72.76188659667969 35.9989128112793 72.84403991699219 35.69747161865234 72.84403991699219 Z" stroke="none"/>
      <path d="M 35.69747161865234 72.46903991699219 C 35.94401168823242 72.46903991699219 36.05322265625 72.39380645751953 36.134521484375 72.31250762939453 L 40.11154174804688 68.33548736572266 C 40.23224258422852 68.21479034423828 40.29902267456055 68.05258941650391 40.29476165771484 67.89048767089844 C 40.29265213012695 67.81050872802734 40.26977157592773 67.65892028808594 40.14014053344727 67.54225921630859 L 40.11081314086914 67.51584625244141 L 40.08440017700195 67.48651123046875 C 39.96318054199219 67.35182952880859 39.80501174926758 67.33171844482422 39.72152328491211 67.33171844482422 C 39.56228256225586 67.33171844482422 39.40945053100586 67.39685821533203 39.29118347167969 67.51512145996094 L 36.29106140136719 70.5152587890625 L 36.29106140136719 56.34358978271484 C 36.29106140136719 56.00519180297852 36.03587341308594 55.75 35.69747161865234 55.75 C 35.35906982421875 55.75 35.1038932800293 56.00519180297852 35.1038932800293 56.34358978271484 L 35.1038932800293 70.51525115966797 L 32.103759765625 67.51512145996094 C 31.9854907989502 67.3968505859375 31.83267211914062 67.33171844482422 31.67343139648438 67.33171844482422 C 31.58993148803711 67.33171844482422 31.43176078796387 67.35182952880859 31.31053161621094 67.48652648925781 L 31.28341102600098 67.51512145996094 C 31.16271209716797 67.63581848144531 31.09593200683594 67.79801940917969 31.10019111633301 67.96012878417969 C 31.10229110717773 68.04010772705078 31.12518119812012 68.19168853759766 31.25480079650879 68.308349609375 L 31.28340148925781 68.33548736572266 L 35.26042175292969 72.31250762939453 C 35.34172058105469 72.39380645751953 35.45093154907227 72.46903991699219 35.69747161865234 72.46903991699219 M 35.69747161865234 73.21903991699219 C 35.32126998901367 73.21903991699219 34.99880981445312 73.11155700683594 34.7300910949707 72.84284210205078 L 30.75307083129883 68.86582183837891 C 30.21564102172852 68.38213348388672 30.21564102172852 67.52223205566406 30.75307083129883 66.98478698730469 C 31.23676300048828 66.44735717773438 32.09666061401367 66.44735717773438 32.63409042358398 66.98478698730469 L 34.3538932800293 68.70458984375 L 34.3538932800293 56.34358978271484 C 34.3538932800293 55.59117889404297 34.94506072998047 55 35.69747161865234 55 C 36.44988250732422 55 37.04106140136719 55.59117889404297 37.04106140136719 56.34358978271484 L 37.04106140136719 68.70458984375 L 38.7608528137207 66.98478698730469 C 39.29829025268555 66.44736480712891 40.15818405151367 66.44735717773438 40.64187240600586 66.98478698730469 C 41.1793098449707 67.46849060058594 41.1793098449707 68.32837677001953 40.64187240600586 68.86582183837891 L 36.66485214233398 72.84284210205078 C 36.39614105224609 73.11155700683594 36.07368087768555 73.21903991699219 35.69747161865234 73.21903991699219 Z" stroke="none" fill="#f8d378"/>
    </g>
    <g id="XMLID_294_" fill="#5a5a5a">
      <path d="M 44.71643829345703 40.02268981933594 L 43.21161651611328 40.02268981933594 C 42.66848754882812 40.02268981933594 42.24302673339844 39.59723281860352 42.24302673339844 39.05410003662109 C 42.24302673339844 38.51097106933594 42.66848754882812 38.08551025390625 43.21161651611328 38.08551025390625 L 44.71643829345703 38.08551025390625 C 48.21261978149414 38.08551025390625 51.05696868896484 35.24116134643555 51.05696868896484 31.74498176574707 C 51.05696868896484 28.50997161865234 48.62913513183594 25.80975151062012 45.40840911865234 25.46109580993652 C 45.15692520141602 25.42343902587891 44.91379165649414 25.27805328369141 44.74053955078125 25.06150054931641 C 44.583740234375 24.86549186706543 44.51258850097656 24.59116172790527 44.55022811889648 24.32767105102539 L 44.55069732666016 24.32442092895508 L 44.55109786987305 24.3211612701416 C 44.60843658447266 23.86255073547363 44.6614875793457 23.37022018432617 44.6614875793457 22.87731170654297 C 44.6614875793457 17.60307121276855 40.37059020996094 13.31217098236084 35.09634780883789 13.31217098236084 C 31.388427734375 13.31217098236084 27.98483848571777 15.50752067565918 26.4252986907959 18.90508079528809 L 26.42251777648926 18.91114044189453 L 26.41994857788086 18.91729164123535 C 26.27113914489746 19.27446174621582 25.93367767333984 19.50525093078613 25.56023788452148 19.50525093078613 C 25.46295928955078 19.50525093078613 25.36610794067383 19.48941040039062 25.27238845825195 19.45817184448242 C 24.5921688079834 19.23144149780273 23.84707832336426 19.11647033691406 23.05780792236328 19.11647033691406 C 19.60175895690918 19.11647033691406 16.55781745910645 21.44033050537109 15.65548801422119 24.76767158508301 L 15.65451812744141 24.77126121520996 L 15.65361881256104 24.77487182617188 C 15.55060863494873 25.1869010925293 15.16944885253906 25.47466087341309 14.72670841217041 25.47466087341309 C 14.67709827423096 25.47466087341309 14.62676334381104 25.4709644317627 14.57696342468262 25.46366500854492 C 14.2751579284668 25.40445899963379 13.98646354675293 25.40446090698242 13.6526985168457 25.40446090698242 C 10.15652847290039 25.40446090698242 7.312178611755371 28.24881172180176 7.312178611755371 31.74498176574707 C 7.312178611755371 35.24116134643555 10.15652847290039 38.08551025390625 13.6526985168457 38.08551025390625 L 15.15751838684082 38.08551025390625 C 15.70064830780029 38.08551025390625 16.12610816955566 38.51097106933594 16.12610816955566 39.05410003662109 C 16.12610816955566 39.59723281860352 15.70064830780029 40.02268981933594 15.15751838684082 40.02268981933594 L 13.6526985168457 40.02268981933594 C 11.43950843811035 40.02268981933594 9.360208511352539 39.16225051879883 7.797828197479248 37.59986114501953 C 6.235438346862793 36.03747940063477 5.374998569488525 33.95817184448242 5.374998569488525 31.74498176574707 C 5.374998569488525 27.18064117431641 9.064248085021973 23.46728134155273 13.59895801544189 23.46728134155273 L 13.76018810272217 23.46728134155273 L 14.01407814025879 23.46728134155273 L 14.10836887359619 23.2315502166748 C 14.82239818572998 21.44648170471191 16.0409984588623 19.93052101135254 17.63243865966797 18.8475513458252 C 19.23623847961426 17.75616073608398 21.11230850219727 17.17929077148438 23.05781745910645 17.17929077148438 C 23.62375831604004 17.17929077148438 24.19788932800293 17.23150062561035 24.76426887512207 17.33447074890137 L 25.02486801147461 17.38185119628906 L 25.15664863586426 17.15209197998047 C 27.20038795471191 13.58865070343018 31.00905799865723 11.37500095367432 35.09634780883789 11.37500095367432 C 41.43874740600586 11.37500095367432 46.59866714477539 16.53491020202637 46.59866714477539 22.87731170654297 L 46.59866714477539 23.41474151611328 L 46.59866714477539 23.70446014404297 L 46.87900924682617 23.77760124206543 C 50.47950744628906 24.71686172485352 52.99413681030273 27.99317169189453 52.99413681030273 31.74498176574707 C 52.99413681030273 33.95817184448242 52.13369750976562 36.03747177124023 50.57130813598633 37.59986114501953 C 49.00893020629883 39.16225051879883 46.92963027954102 40.02268981933594 44.71643829345703 40.02268981933594 Z" stroke="none"/>
      <path d="M 35.09634780883789 11.75000381469727 C 31.14303779602051 11.75000381469727 27.45900917053223 13.89145278930664 25.48193740844727 17.33865356445312 L 25.21838760375977 17.79818344116211 L 24.69718933105469 17.70342254638672 C 24.15288925170898 17.60447311401367 23.601318359375 17.55429458618164 23.05780792236328 17.55429458618164 C 21.18785858154297 17.55429458618164 19.38474655151367 18.10870361328125 17.84340667724609 19.15757369995117 C 16.31390762329102 20.19839286804199 15.14274978637695 21.65531349182129 14.45654678344727 23.37082290649414 L 14.26795959472656 23.84228324890137 L 13.59895706176758 23.84228324890137 C 9.271026611328125 23.84228324890137 5.75 27.38742256164551 5.75 31.7449836730957 C 5.75 33.85800170898438 6.571437835693359 35.84313201904297 8.06298828125 37.33469390869141 C 9.554550170898438 38.82624435424805 11.53967666625977 39.64768218994141 13.6526985168457 39.64768218994141 L 15.15752029418945 39.64768218994141 C 15.49591827392578 39.64768218994141 15.7511100769043 39.39249420166016 15.7511100769043 39.05409240722656 C 15.7511100769043 38.71569442749023 15.49591827392578 38.46051406860352 15.15752029418945 38.46051406860352 L 13.6526985168457 38.46051406860352 C 9.949748992919922 38.46051406860352 6.937179565429688 35.44794464111328 6.937179565429688 31.7449836730957 C 6.937179565429688 28.04202270507812 9.949748992919922 25.02945327758789 13.6526985168457 25.02945327758789 C 13.98796463012695 25.02945327758789 14.30499649047852 25.02945327758789 14.63888931274414 25.09369087219238 C 14.6682243347168 25.09765815734863 14.69770812988281 25.09966278076172 14.72669982910156 25.09966278076172 C 14.9970588684082 25.09966278076172 15.22861862182617 24.92870330810547 15.28981018066406 24.68391227722168 L 15.29356002807617 24.66951370239258 C 16.24008941650391 21.17917251586914 19.43286895751953 18.74147415161133 23.05780792236328 18.74147415161133 C 23.88748931884766 18.74147415161133 24.67247772216797 18.86291122436523 25.3909797668457 19.10242462158203 C 25.44638824462891 19.12089157104492 25.50333023071289 19.13025283813477 25.56023788452148 19.13025283813477 C 25.78180694580078 19.13025283813477 25.9833869934082 18.99004364013672 26.07379913330078 18.77306365966797 L 26.08448791503906 18.74864196777344 C 27.7049674987793 15.21831130981445 31.24233818054199 12.93717193603516 35.09634780883789 12.93717193603516 C 40.57735824584961 12.93717193603516 45.0364875793457 17.39629364013672 45.0364875793457 22.8773021697998 C 45.0364875793457 23.39074325561523 44.98204040527344 23.89704322814941 44.92321014404297 24.36768341064453 L 44.92145919799805 24.38070297241211 C 44.89853668212891 24.54119300842285 44.9414176940918 24.71230316162109 45.03337860107422 24.8272533416748 C 45.14665603637695 24.96884918212891 45.30077362060547 25.06389427185059 45.45759201049805 25.08924293518066 C 48.86476516723633 25.46248817443848 51.43196868896484 28.32094573974609 51.43196868896484 31.7449836730957 C 51.43196868896484 35.44794464111328 48.41939926147461 38.46051406860352 44.71643829345703 38.46051406860352 L 43.21161651611328 38.46051406860352 C 42.87321853637695 38.46051406860352 42.61802673339844 38.71569442749023 42.61802673339844 39.05409240722656 C 42.61802673339844 39.39249420166016 42.87321853637695 39.64768218994141 43.21161651611328 39.64768218994141 L 44.71643829345703 39.64768218994141 C 46.82946014404297 39.64768218994141 48.81459045410156 38.82624435424805 50.30614852905273 37.33469390869141 C 51.79769897460938 35.84313201904297 52.61913681030273 33.85800170898438 52.61913681030273 31.7449836730957 C 52.61913681030273 28.16375350952148 50.21977996826172 25.03665351867676 46.78433990478516 24.14045333862305 L 46.22365951538086 23.99419212341309 L 46.22365951538086 22.8773021697998 C 46.22365951538086 16.74169158935547 41.23196792602539 11.75000381469727 35.09634780883789 11.75000381469727 M 35.09634780883789 11.00000381469727 C 41.65306091308594 11.00000381469727 46.97365951538086 16.32060241699219 46.97365951538086 22.8773021697998 C 46.97365951538086 23.03853225708008 46.97365951538086 23.25351333618164 46.97365951538086 23.41474342346191 C 50.68196868896484 24.38212394714355 53.36913681030273 27.76796340942383 53.36913681030273 31.7449836730957 C 53.36913681030273 36.52815246582031 49.49960708618164 40.39768218994141 44.71643829345703 40.39768218994141 L 43.21161651611328 40.39768218994141 C 42.45920944213867 40.39768218994141 41.86802673339844 39.80650329589844 41.86802673339844 39.05409240722656 C 41.86802673339844 38.30169296264648 42.45920944213867 37.71051406860352 43.21161651611328 37.71051406860352 L 44.71643829345703 37.71051406860352 C 47.99478912353516 37.71051406860352 50.68196868896484 35.02334213256836 50.68196868896484 31.7449836730957 C 50.68196868896484 28.68160247802734 48.37098693847656 26.15566253662109 45.36135864257812 25.83320236206055 C 44.98514938354492 25.77945327758789 44.66268920898438 25.56448364257812 44.44771957397461 25.29576301574707 C 44.23274993896484 25.02705383300781 44.12525939941406 24.65084266662598 44.17899703979492 24.27464294433594 C 44.23274993896484 23.84469223022461 44.2864875793457 23.36100387573242 44.2864875793457 22.8773021697998 C 44.2864875793457 17.82542419433594 40.14823913574219 13.68717193603516 35.09634780883789 13.68717193603516 C 31.54928779602051 13.68717193603516 28.27092933654785 15.78317260742188 26.7661075592041 19.0615234375 C 26.49740028381348 19.70644187927246 25.79874801635742 20.0289192199707 25.15380859375 19.81393241882324 C 24.50888824462891 19.59895324707031 23.81021881103516 19.4914722442627 23.05780792236328 19.4914722442627 C 19.77945709228516 19.4914722442627 16.8773078918457 21.69495391845703 16.01741790771484 24.86581230163574 C 15.85618591308594 25.51074600219727 15.211181640625 25.94068908691406 14.51259994506836 25.83320236206055 C 14.24387741088867 25.77945327758789 13.97515869140625 25.77945327758789 13.6526985168457 25.77945327758789 C 10.37434768676758 25.77945327758789 7.687179565429688 28.46663284301758 7.687179565429688 31.7449836730957 C 7.687179565429688 35.02334213256836 10.37434768676758 37.71051406860352 13.6526985168457 37.71051406860352 L 15.15752029418945 37.71051406860352 C 15.90992736816406 37.71051406860352 16.5011100769043 38.30169296264648 16.5011100769043 39.05409240722656 C 16.5011100769043 39.80650329589844 15.90992736816406 40.39768218994141 15.15752029418945 40.39768218994141 L 13.6526985168457 40.39768218994141 C 8.869529724121094 40.39768218994141 5 36.52815246582031 5 31.7449836730957 C 5 26.96181297302246 8.869529724121094 23.09228324890137 13.59895706176758 23.09228324890137 C 13.6526985168457 23.09228324890137 13.70644760131836 23.09228324890137 13.76018905639648 23.09228324890137 C 15.26500701904297 19.33024215698242 18.9195671081543 16.80429458618164 23.05780792236328 16.80429458618164 C 23.64898681640625 16.80429458618164 24.24016952514648 16.8580436706543 24.83134841918945 16.96552276611328 C 26.92733764648438 13.31096267700195 30.85061836242676 11.00000381469727 35.09634780883789 11.00000381469727 Z" stroke="none" fill="#f8d378"/>
    </g>
  </g>
</svg>
