<svg xmlns="http://www.w3.org/2000/svg" width="80" height="80" viewBox="0 0 80 80">
  <g id="Group_69234" data-name="Group 69234" transform="translate(-1295 -1796)">
    <circle id="Ellipse_41" data-name="Ellipse 41" cx="40" cy="40" r="40" transform="translate(1295 1796)" fill="#e4e4fc"/>
    <g id="many_more" data-name="many more" transform="translate(9248 -9314)">
      <path id="Path_269" data-name="Path 269" d="M65.556,36.224c.221.062.443.12.663.188a4.5,4.5,0,1,1-5.692,5.172,1.761,1.761,0,0,0-.074-.227V40.091a1.458,1.458,0,0,0,.07-.191,4.447,4.447,0,0,1,3.114-3.49c.217-.073.44-.125.661-.187Z" transform="translate(-7977.453 11095.776)" fill="#5a5a5a"/>
      <path id="Path_270" data-name="Path 270" d="M60.453,64.279c.062-.222.119-.446.186-.667a4.483,4.483,0,0,1,5.182-3.12,4.505,4.505,0,1,1-5.294,5.278,1.783,1.783,0,0,0-.074-.226Z" transform="translate(-7977.453 11085.088)" fill="#5a5a5a"/>
      <path id="Path_271" data-name="Path 271" d="M60.453,88.469c.062-.222.119-.446.186-.667a4.483,4.483,0,0,1,5.182-3.12,4.505,4.505,0,1,1-5.294,5.278,1.782,1.782,0,0,0-.074-.226Z" transform="translate(-7977.453 11074.398)" fill="#5a5a5a"/>
    </g>
  </g>
</svg>
