<svg xmlns="http://www.w3.org/2000/svg" xmlns:xlink="http://www.w3.org/1999/xlink" width="80" height="80" viewBox="0 0 80 80">
  <defs>
    <clipPath id="clip-path">
      <path id="path1488" d="M0-682.665H46v46H0Z" transform="translate(0 682.665)" fill="#343434"/>
    </clipPath>
  </defs>
  <g id="Group_69251" data-name="Group 69251" transform="translate(-150 -3500)">
    <path id="Path_14068" data-name="Path 14068" d="M40,0A40,40,0,1,1,0,40,40,40,0,0,1,40,0Z" transform="translate(150 3500)" fill="#f8d378"/>
    <g id="report" transform="translate(164.333 3519)">
      <g id="g1486" transform="translate(0)" clip-path="url(#clip-path)">
        <g id="Group_69003" data-name="Group 69003" transform="translate(0.898 0.898)">
          <path id="path1494" d="M-12.435,0a.9.9,0,0,1,.9.9.9.9,0,0,1-.9.9.9.9,0,0,1-.9-.9.9.9,0,0,1,.9-.9" transform="translate(33.998 13.477)" fill="#343434"/>
          <path id="path1498" d="M-12.435,0a.9.9,0,0,1,.9.9.9.9,0,0,1-.9.9.9.9,0,0,1-.9-.9.9.9,0,0,1,.9-.9" transform="translate(33.998 17.07)" fill="#343434"/>
          <path id="path1502" d="M-124.349-124.349h-8.984v-8.984" transform="translate(168.552 133.333)" fill="none" stroke="#343434" stroke-linecap="round" stroke-linejoin="round" stroke-width="1.5"/>
          <path id="path1506" d="M0,0H9.523" transform="translate(22.102 5.391)" fill="none" stroke="#343434" stroke-linecap="round" stroke-linejoin="round" stroke-width="1.5"/>
          <path id="path1510" d="M0,0H9.523" transform="translate(22.102 8.985)" fill="none" stroke="#343434" stroke-linecap="round" stroke-linejoin="round" stroke-width="1.5"/>
          <path id="path1514" d="M-248.7-124.349a8.988,8.988,0,0,1-7.187,8.8,9.036,9.036,0,0,1-1.8.18,8.984,8.984,0,0,1-8.984-8.984,8.984,8.984,0,0,1,8.984-8.984,9.037,9.037,0,0,1,1.8.18A8.987,8.987,0,0,1-248.7-124.349Z" transform="translate(266.666 138.724)" fill="none" stroke="#343434" stroke-linecap="round" stroke-linejoin="round" stroke-width="1.5"/>
          <path id="path1518" d="M-74.609-74.609A5.4,5.4,0,0,1-80-80" transform="translate(83.594 94.375)" fill="none" stroke="#343434" stroke-linecap="round" stroke-linejoin="round" stroke-width="1.5"/>
          <path id="path1522" d="M0,0V8.984H8.984" transform="translate(8.984 5.391)" fill="none" stroke="#343434" stroke-linecap="round" stroke-linejoin="round" stroke-width="1.5"/>
          <path id="path1526" d="M0-320.819v19.227a1.8,1.8,0,0,0,1.8,1.8H31.625a1.8,1.8,0,0,0,1.8-1.8v-33.422L24.438-344H1.8A1.8,1.8,0,0,0,0-342.2v3.773" transform="translate(10.781 343.999)" fill="none" stroke="#343434" stroke-linecap="round" stroke-linejoin="round" stroke-width="1.5"/>
          <path id="path1530" d="M-49.739-24.87a1.8,1.8,0,0,1-1.8,1.8,1.8,1.8,0,0,1-1.8-1.8,1.8,1.8,0,0,1,1.8-1.8,1.791,1.791,0,0,1,1.27.526A1.791,1.791,0,0,1-49.739-24.87Z" transform="translate(67.709 61.346)" fill="none" stroke="#343434" stroke-linecap="round" stroke-linejoin="round" stroke-width="1.5"/>
          <path id="path1534" d="M-7.287-42.453a1.791,1.791,0,0,1-.526-1.27,1.8,1.8,0,0,1,1.8-1.8,1.8,1.8,0,0,1,1.8,1.8,1.791,1.791,0,0,1-.526,1.27,1.791,1.791,0,0,1-1.27.526A1.791,1.791,0,0,1-7.287-42.453Z" transform="translate(29.015 73.012)" fill="none" stroke="#343434" stroke-linecap="round" stroke-linejoin="round" stroke-width="1.5"/>
          <path id="path1538" d="M-49.739-24.87a1.8,1.8,0,0,1-1.8,1.8,1.8,1.8,0,0,1-1.8-1.8,1.791,1.791,0,0,1,.526-1.27,1.791,1.791,0,0,1,1.27-.526A1.8,1.8,0,0,1-49.739-24.87Z" transform="translate(80.827 61.346)" fill="none" stroke="#343434" stroke-linecap="round" stroke-linejoin="round" stroke-width="1.5"/>
          <path id="path1542" d="M-49.739-24.87a1.8,1.8,0,0,1-1.8,1.8,1.8,1.8,0,0,1-1.8-1.8,1.8,1.8,0,0,1,1.8-1.8A1.8,1.8,0,0,1-49.739-24.87Z" transform="translate(90.079 50.565)" fill="none" stroke="#343434" stroke-linecap="round" stroke-linejoin="round" stroke-width="1.5"/>
          <path id="path1546" d="M0-64.313,4.287-68.96" transform="translate(17.442 99.519)" fill="none" stroke="#343434" stroke-linecap="round" stroke-linejoin="round" stroke-width="1.5"/>
          <path id="path1550" d="M0,0,3.748,4.647" transform="translate(24.27 30.56)" fill="none" stroke="#343434" stroke-linecap="round" stroke-linejoin="round" stroke-width="1.5"/>
          <path id="path1554" d="M0-107.835l7.259-7.791" transform="translate(30.286 142.817)" fill="none" stroke="#343434" stroke-linecap="round" stroke-linejoin="round" stroke-width="1.5"/>
          <path id="path1558" d="M0,0H13.656" transform="translate(25.156 14.375)" fill="none" stroke="#343434" stroke-linecap="round" stroke-linejoin="round" stroke-width="1.5"/>
          <path id="path1562" d="M0,0H13.656" transform="translate(25.156 17.969)" fill="none" stroke="#343434" stroke-linecap="round" stroke-linejoin="round" stroke-width="1.5"/>
        </g>
      </g>
    </g>
  </g>
</svg>
