<svg xmlns="http://www.w3.org/2000/svg" xmlns:xlink="http://www.w3.org/1999/xlink" width="80" height="80" viewBox="0 0 80 80">
  <defs>
    <clipPath id="clip-path">
      <path id="path4445" d="M0-682.665H46v46H0Z" transform="translate(0 682.665)"/>
    </clipPath>
  </defs>
  <g id="Group_74939" data-name="Group 74939" transform="translate(-150 -449)">
    <g id="Group_73819" data-name="Group 73819" transform="translate(150 449)">
      <path id="Path_23576" data-name="Path 23576" d="M40,0A40,40,0,1,1,0,40,40,40,0,0,1,40,0Z" fill="#edfbfe"/>
    </g>
    <g id="g4431" transform="translate(167 1148.664)">
      <g id="g4433" transform="translate(5.579 -662.861)">
        <path id="path4435" d="M0,0H7.455" fill="none" stroke="#000" stroke-linecap="round" stroke-linejoin="round" stroke-width="1.5"/>
      </g>
      <g id="g4437" transform="translate(5.579 -666.21)">
        <path id="path4439" d="M0,0H7.455" fill="none" stroke="#000" stroke-linecap="round" stroke-linejoin="round" stroke-width="1.5"/>
      </g>
      <g id="g4441" transform="translate(0 -682.665)">
        <g id="g4443" clip-path="url(#clip-path)">
          <g id="g4449" transform="translate(25.757 22.423)">
            <path id="path4451" d="M-135.422-189.717a3.923,3.923,0,0,1-3.923-3.923,3.923,3.923,0,0,1,3.923-3.923,3.923,3.923,0,0,1,3.923,3.923A3.923,3.923,0,0,1-135.422-189.717Zm8.832-5.957a.951.951,0,0,1-.9-.645,8.285,8.285,0,0,0-.427-1.032.951.951,0,0,1,.18-1.1h0a.953.953,0,0,0,0-1.347l-1.53-1.53a.953.953,0,0,0-1.347,0h0a.952.952,0,0,1-1.1.18,8.294,8.294,0,0,0-1.031-.428.951.951,0,0,1-.645-.9.953.953,0,0,0-.953-.953H-136.5a.953.953,0,0,0-.953.953.951.951,0,0,1-.645.9,8.3,8.3,0,0,0-1.032.428.951.951,0,0,1-1.1-.18h0a.953.953,0,0,0-1.347,0l-1.53,1.53a.953.953,0,0,0,0,1.347h0a.951.951,0,0,1,.18,1.1,8.29,8.29,0,0,0-.427,1.032.951.951,0,0,1-.9.645.953.953,0,0,0-.953.953v2.163a.953.953,0,0,0,.953.953.951.951,0,0,1,.9.645,8.3,8.3,0,0,0,.427,1.032.951.951,0,0,1-.18,1.1h0a.952.952,0,0,0,0,1.347l1.53,1.53a.952.952,0,0,0,1.347,0h0a.952.952,0,0,1,1.1-.18,8.316,8.316,0,0,0,1.032.427.951.951,0,0,1,.645.9.953.953,0,0,0,.953.953h2.164a.953.953,0,0,0,.953-.953.951.951,0,0,1,.645-.9,8.312,8.312,0,0,0,1.031-.427.952.952,0,0,1,1.1.18h0a.952.952,0,0,0,1.347,0l1.53-1.53a.953.953,0,0,0,0-1.347h0a.951.951,0,0,1-.18-1.1,8.3,8.3,0,0,0,.427-1.032.951.951,0,0,1,.9-.645.953.953,0,0,0,.953-.953v-2.163A.953.953,0,0,0-126.59-195.675Z" transform="translate(145.206 203.425)" fill="none" stroke="#000" stroke-linecap="round" stroke-linejoin="round" stroke-width="1.5"/>
          </g>
          <g id="g4453" transform="translate(0.674 6.588)">
            <path id="path4455" d="M-372.327-.093-391.2-.1h-5.619a2.411,2.411,0,0,0-2.411,2.411V7.151" transform="translate(399.228 0.1)" fill="none" stroke="#000" stroke-linecap="round" stroke-linejoin="round" stroke-width="1.5"/>
          </g>
          <g id="g4457" transform="translate(0.674 4.008)">
            <path id="path4459" d="M-575.7-244.341l0-15.244a2.411,2.411,0,0,0-2.411-2.41l-9.552,0a2.41,2.41,0,0,0-2.192,1.408l-2.1,4.6a2.411,2.411,0,0,1-2.192,1.408h-20.732a2.411,2.411,0,0,0-2.411,2.411v22.2a2.41,2.41,0,0,0,2.411,2.41l21.518-.007" transform="translate(617.3 261.995)" fill="none" stroke="#000" stroke-linecap="round" stroke-linejoin="round" stroke-width="1.5"/>
          </g>
        </g>
      </g>
    </g>
  </g>
</svg>
