<svg xmlns="http://www.w3.org/2000/svg" width="75" height="75" viewBox="0 0 75 75">
  <g id="Group_73879" data-name="Group 73879" transform="translate(0.232)">
    <circle id="Ellipse_38" data-name="Ellipse 38" cx="37.5" cy="37.5" r="37.5" transform="translate(-0.232)" fill="#c9f6ff"/>
    <g id="Group_74910" data-name="Group 74910" transform="translate(19.268 24.196)">
      <g id="Group_73409" data-name="Group 73409">
        <g id="Group_73409-2" data-name="Group 73409" transform="translate(4.696 4.696)">
          <path id="Path_23435" data-name="Path 23435" d="M64.783,145.217a.783.783,0,0,1-.783-.783V128.783a.783.783,0,1,1,1.565,0v15.652A.783.783,0,0,1,64.783,145.217Z" transform="translate(-64 -128)" fill="#171717"/>
          <path id="Path_23436" data-name="Path 23436" d="M107.449,142.087a.783.783,0,0,1-.783-.783V128.783a.783.783,0,1,1,1.565,0V141.3A.783.783,0,0,1,107.449,142.087Z" transform="translate(-103.536 -128)" fill="#171717"/>
          <path id="Path_23437" data-name="Path 23437" d="M150.116,142.087a.783.783,0,0,1-.783-.783V128.783a.783.783,0,1,1,1.565,0V141.3A.783.783,0,0,1,150.116,142.087Z" transform="translate(-143.072 -128)" fill="#171717"/>
          <path id="Path_23438" data-name="Path 23438" d="M192.783,142.087A.783.783,0,0,1,192,141.3V128.783a.783.783,0,1,1,1.565,0V141.3A.783.783,0,0,1,192.783,142.087Z" transform="translate(-182.609 -128)" fill="#171717"/>
          <path id="Path_23439" data-name="Path 23439" d="M235.449,145.217a.783.783,0,0,1-.783-.783V128.783a.783.783,0,1,1,1.565,0v15.652A.783.783,0,0,1,235.449,145.217Z" transform="translate(-222.144 -128)" fill="#171717"/>
          <path id="Path_23440" data-name="Path 23440" d="M278.116,142.087a.783.783,0,0,1-.783-.783V128.783a.783.783,0,1,1,1.565,0V141.3A.783.783,0,0,1,278.116,142.087Z" transform="translate(-261.681 -128)" fill="#171717"/>
          <path id="Path_23441" data-name="Path 23441" d="M320.783,142.087A.783.783,0,0,1,320,141.3V128.783a.783.783,0,1,1,1.565,0V141.3A.783.783,0,0,1,320.783,142.087Z" transform="translate(-301.217 -128)" fill="#171717"/>
          <path id="Path_23442" data-name="Path 23442" d="M363.449,142.087a.783.783,0,0,1-.783-.783V128.783a.783.783,0,1,1,1.565,0V141.3A.783.783,0,0,1,363.449,142.087Z" transform="translate(-340.753 -128)" fill="#171717"/>
          <path id="Path_23443" data-name="Path 23443" d="M406.116,145.217a.783.783,0,0,1-.783-.783V128.783a.783.783,0,1,1,1.565,0v15.652A.783.783,0,0,1,406.116,145.217Z" transform="translate(-380.29 -128)" fill="#171717"/>
          <path id="Path_23444" data-name="Path 23444" d="M107.446,342.953a.635.635,0,0,1-.3-.063.554.554,0,0,1-.25-.172.756.756,0,0,1-.027-1.069l.027-.027a.553.553,0,0,1,.25-.172.773.773,0,0,1,.845.172.783.783,0,0,1-.548,1.33Z" transform="translate(-103.533 -325.736)" fill="#171717"/>
          <path id="Path_23445" data-name="Path 23445" d="M150.113,342.939a.634.634,0,0,1-.3-.063.554.554,0,0,1-.25-.172.756.756,0,0,1-.027-1.069l.027-.027a.552.552,0,0,1,.25-.172.767.767,0,0,1,.845.172.554.554,0,0,1,.172.25.737.737,0,0,1,0,.595.547.547,0,0,1-.172.25A.733.733,0,0,1,150.113,342.939Z" transform="translate(-143.07 -325.721)" fill="#171717"/>
          <path id="Path_23446" data-name="Path 23446" d="M192.78,342.939a.634.634,0,0,1-.3-.063.554.554,0,0,1-.25-.172.756.756,0,0,1-.027-1.069l.027-.027a.552.552,0,0,1,.25-.172.767.767,0,0,1,.845.172.554.554,0,0,1,.172.25.737.737,0,0,1,0,.595.548.548,0,0,1-.172.25A.733.733,0,0,1,192.78,342.939Z" transform="translate(-182.606 -325.721)" fill="#171717"/>
          <path id="Path_23447" data-name="Path 23447" d="M278.255,343.039a.778.778,0,1,1,.548-1.33.555.555,0,0,1,.172.25.737.737,0,0,1,0,.595.547.547,0,0,1-.172.25A.732.732,0,0,1,278.255,343.039Z" transform="translate(-261.82 -325.822)" fill="#171717"/>
          <path id="Path_23448" data-name="Path 23448" d="M320.922,343.039a.783.783,0,1,1,.537-.224A.783.783,0,0,1,320.922,343.039Z" transform="translate(-301.356 -325.821)" fill="#171717"/>
          <path id="Path_23449" data-name="Path 23449" d="M363.448,343.039a.732.732,0,0,1-.548-.235.546.546,0,0,1-.172-.25.737.737,0,0,1,0-.595.553.553,0,0,1,.172-.25.775.775,0,1,1,.548,1.33Z" transform="translate(-340.753 -325.821)" fill="#171717"/>
        </g>
        <g id="Group_73410" data-name="Group 73410">
          <path id="Path_23450" data-name="Path 23450" d="M.783,70.261A.783.783,0,0,1,0,69.478v-4.7A.783.783,0,0,1,.783,64h4.7a.783.783,0,1,1,0,1.565H1.565v3.913A.783.783,0,0,1,.783,70.261Z" transform="translate(0 -64)" fill="#171717"/>
          <path id="Path_23451" data-name="Path 23451" d="M5.478,347.594H.783A.783.783,0,0,1,0,346.811v-4.7a.783.783,0,0,1,1.565,0v3.913H5.478a.783.783,0,0,1,0,1.565Z" transform="translate(0 -320.985)" fill="#171717"/>
          <path id="Path_23452" data-name="Path 23452" d="M410.811,70.261a.783.783,0,0,1-.783-.783V65.565h-3.913a.783.783,0,1,1,0-1.565h4.7a.783.783,0,0,1,.783.783v4.7A.783.783,0,0,1,410.811,70.261Z" transform="translate(-375.594 -64)" fill="#171717"/>
          <path id="Path_23453" data-name="Path 23453" d="M410.811,347.594h-4.7a.783.783,0,1,1,0-1.565h3.913v-3.913a.783.783,0,0,1,1.565,0v4.7A.783.783,0,0,1,410.811,347.594Z" transform="translate(-375.594 -320.985)" fill="#171717"/>
        </g>
        <path id="Path_23454" data-name="Path 23454" d="M64.783,145.217a.783.783,0,0,1-.783-.783V128.783a.783.783,0,1,1,1.565,0v15.652A.783.783,0,0,1,64.783,145.217Z" transform="translate(-59.304 -123.304)" fill="#171717"/>
        <path id="Path_23455" data-name="Path 23455" d="M107.449,142.087a.783.783,0,0,1-.783-.783V128.783a.783.783,0,1,1,1.565,0V141.3A.783.783,0,0,1,107.449,142.087Z" transform="translate(-98.84 -123.304)" fill="#171717"/>
        <path id="Path_23456" data-name="Path 23456" d="M150.116,142.087a.783.783,0,0,1-.783-.783V128.783a.783.783,0,1,1,1.565,0V141.3A.783.783,0,0,1,150.116,142.087Z" transform="translate(-138.377 -123.304)" fill="#171717"/>
        <path id="Path_23457" data-name="Path 23457" d="M192.783,142.087A.783.783,0,0,1,192,141.3V128.783a.783.783,0,1,1,1.565,0V141.3A.783.783,0,0,1,192.783,142.087Z" transform="translate(-177.913 -123.304)" fill="#171717"/>
        <path id="Path_23458" data-name="Path 23458" d="M235.449,145.217a.783.783,0,0,1-.783-.783V128.783a.783.783,0,1,1,1.565,0v15.652A.783.783,0,0,1,235.449,145.217Z" transform="translate(-217.449 -123.304)" fill="#171717"/>
        <path id="Path_23459" data-name="Path 23459" d="M278.116,142.087a.783.783,0,0,1-.783-.783V128.783a.783.783,0,1,1,1.565,0V141.3A.783.783,0,0,1,278.116,142.087Z" transform="translate(-256.985 -123.304)" fill="#171717"/>
        <path id="Path_23460" data-name="Path 23460" d="M320.783,142.087A.783.783,0,0,1,320,141.3V128.783a.783.783,0,1,1,1.565,0V141.3A.783.783,0,0,1,320.783,142.087Z" transform="translate(-296.522 -123.304)" fill="#171717"/>
        <path id="Path_23461" data-name="Path 23461" d="M363.449,142.087a.783.783,0,0,1-.783-.783V128.783a.783.783,0,1,1,1.565,0V141.3A.783.783,0,0,1,363.449,142.087Z" transform="translate(-336.057 -123.304)" fill="#171717"/>
        <path id="Path_23462" data-name="Path 23462" d="M406.116,145.217a.783.783,0,0,1-.783-.783V128.783a.783.783,0,1,1,1.565,0v15.652A.783.783,0,0,1,406.116,145.217Z" transform="translate(-375.594 -123.304)" fill="#171717"/>
        <path id="Path_23463" data-name="Path 23463" d="M107.455,342.948a.643.643,0,0,1-.3-.063.559.559,0,0,1-.25-.172.758.758,0,0,1-.025-1.071l.025-.025a.558.558,0,0,1,.25-.172.783.783,0,0,1,.595,0,.549.549,0,0,1,.25.172.783.783,0,0,1-.548,1.33Z" transform="translate(-98.847 -321.035)" fill="#171717"/>
        <path id="Path_23464" data-name="Path 23464" d="M150.235,342.931a.783.783,0,0,1-.549-1.331.764.764,0,0,1,.845-.172.549.549,0,0,1,.25.172.783.783,0,0,1-.546,1.331Z" transform="translate(-138.496 -321.018)" fill="#171717"/>
        <path id="Path_23465" data-name="Path 23465" d="M192.9,342.952a.783.783,0,0,1-.549-1.331.557.557,0,0,1,.25-.172.773.773,0,0,1,.845.172.783.783,0,0,1-.548,1.33h0Z" transform="translate(-178.033 -321.039)" fill="#171717"/>
        <path id="Path_23466" data-name="Path 23466" d="M278.122,342.948a.686.686,0,0,1-.3-.063.559.559,0,0,1-.25-.172.758.758,0,0,1-.025-1.071l.025-.025a.558.558,0,0,1,.25-.172.783.783,0,0,1,.595,0,.549.549,0,0,1,.25.172.783.783,0,0,1-.548,1.33Z" transform="translate(-256.992 -321.035)" fill="#171717"/>
        <path id="Path_23467" data-name="Path 23467" d="M320.789,343.039a.685.685,0,0,1-.3-.063.558.558,0,0,1-.25-.172.757.757,0,0,1-.025-1.071l.025-.025a.782.782,0,0,1,1.1,0,.754.754,0,0,1,.029,1.066l-.029.029a.551.551,0,0,1-.25.172A.68.68,0,0,1,320.789,343.039Z" transform="translate(-296.528 -321.126)" fill="#171717"/>
        <path id="Path_23468" data-name="Path 23468" d="M363.444,342.953a.686.686,0,0,1-.3-.063.559.559,0,0,1-.25-.172.734.734,0,0,1-.235-.548.625.625,0,0,1,.063-.3.55.55,0,0,1,.171-.25.558.558,0,0,1,.25-.172.773.773,0,0,1,.845.172.568.568,0,0,1,.172.25.626.626,0,0,1,.063.3.8.8,0,0,1-.783.783Z" transform="translate(-336.053 -321.04)" fill="#171717"/>
        <path id="Path_23469" data-name="Path 23469" d="M.783,70.261A.783.783,0,0,1,0,69.478v-4.7A.783.783,0,0,1,.783,64h4.7a.783.783,0,1,1,0,1.565H1.565v3.913A.783.783,0,0,1,.783,70.261Z" transform="translate(0 -64)" fill="#171717"/>
        <path id="Path_23470" data-name="Path 23470" d="M5.478,347.594H.783A.783.783,0,0,1,0,346.811v-4.7a.783.783,0,0,1,1.565,0v3.913H5.478a.783.783,0,0,1,0,1.565Z" transform="translate(0 -320.985)" fill="#171717"/>
        <path id="Path_23471" data-name="Path 23471" d="M410.811,70.261a.783.783,0,0,1-.783-.783V65.565h-3.913a.783.783,0,1,1,0-1.565h4.7a.783.783,0,0,1,.783.783v4.7A.783.783,0,0,1,410.811,70.261Z" transform="translate(-375.594 -64)" fill="#171717"/>
        <path id="Path_23472" data-name="Path 23472" d="M410.811,347.594h-4.7a.783.783,0,1,1,0-1.565h3.913v-3.913a.783.783,0,0,1,1.565,0v4.7A.783.783,0,0,1,410.811,347.594Z" transform="translate(-375.594 -320.985)" fill="#171717"/>
      </g>
    </g>
  </g>
</svg>
