<svg xmlns="http://www.w3.org/2000/svg" width="60" height="50.966" viewBox="0 0 60 50.966">
  <g id="backup" transform="translate(-2.767 -5.512)">
    <path id="Path_23563" data-name="Path 23563" d="M50.688,42.276l-.1,0H47.771v0H44.424a1.234,1.234,0,1,0,0,2.468h3.291l.069,0H50.73v0a12.253,12.253,0,0,0,1.157-24.428,10.6,10.6,0,0,0-12.219-7.445,14.9,14.9,0,0,0-27.755,7.542,15.048,15.048,0,0,0,.108,1.8,11.364,11.364,0,0,0,1.952,22.53h3.753l.069,0h3.286a1.234,1.234,0,1,0,0-2.468H17.763v0H14.006a8.9,8.9,0,0,1-1.53-17.636l2.272-.426-.277-2.294a12.582,12.582,0,0,1-.09-1.506,12.435,12.435,0,0,1,23.16-6.291l.886,1.507,1.716-.336A8.134,8.134,0,0,1,49.516,21l.458,1.585,1.639.183a9.785,9.785,0,0,1-.926,19.507Z" transform="translate(0 0)"/>
    <path id="Path_23564" data-name="Path 23564" d="M25.533,26.588V43.994a1.234,1.234,0,0,0,2.468,0V26.588l2.279,2.275a1.234,1.234,0,0,0,1.743-1.747l-4.386-4.377a1.234,1.234,0,0,0-1.744,0l-4.384,4.377a1.234,1.234,0,1,0,1.744,1.747Z" transform="translate(11.863 10.885)"/>
    <path id="Path_23565" data-name="Path 23565" d="M18.405,41.38,16.13,39.1a1.234,1.234,0,1,0-1.745,1.745l4.381,4.382a1.234,1.234,0,0,0,1.745,0l4.382-4.382A1.234,1.234,0,1,0,23.148,39.1l-2.275,2.275V23.613a1.234,1.234,0,1,0-2.468,0Z" transform="translate(7.265 10.885)"/>
  </g>
</svg>
