<svg xmlns="http://www.w3.org/2000/svg" width="52.77" height="60.655" viewBox="0 0 52.77 60.655">
  <path id="customer-service_1_" data-name="customer-service (1)" d="M59.752,59.191l-2-5a11.421,11.421,0,0,0-7-7l-3-1c-.551-.215-.785-.552-1,0s-.552,1.785,0,2l4,1c2.729,1.068,4.062,3.224,5,6l2,5c.135.413.253.647,0,1s-.566,1-1,1h-5v-6a1,1,0,0,0-2,0v6h-32v-6a1,1,0,0,0-2,0v6h-5c-.435,0-.747-.646-1-1s-.137-.587,0-1l2-5c.938-2.777,2.271-4.931,5-6l12-5,3,4a2.5,2.5,0,0,0,4,0l3-4,4,2a2.15,2.15,0,0,0,2-1c.215-.551-.449-.785-1-1l-5-2v-5c2.728-1.327,5.634-3.291,7-6h3c1.958,0,4-1.042,4-3v-6a3.938,3.938,0,0,0-2-3c-.138-1.269-.081-5.611-2-5a2.147,2.147,0,0,0-1,2,13.06,13.06,0,0,1,1,3h-2c-2.888-8.685-13.942-12.745-21-7-.464.367-.367,1.536,0,2s.536.367,1,0c7.526-6.013,17.925.644,18,10-2.13,2.148-3.877,4.452-7,5-.518-.7-2.132-1-3-1h-2a3.181,3.181,0,0,0-3,3,3.182,3.182,0,0,0,3,3h2c1.362,0,2.793-1.654,3-3a13.252,13.252,0,0,0,7-4c-2.149,10.954-16.357,13.44-21,3a14.151,14.151,0,0,1,1-13c.318-.5-.5-.682-1-1s-.682-.5-1,0a17.721,17.721,0,0,0-2,3h-2c.951-13.129,19.5-17.87,27-7,.339.484,1.514.338,2,0,1.441-1.189-1.192-3.025-2-4-10.194-9.816-28.565-3.142-29,11a5.667,5.667,0,0,0-2,4v4a4.249,4.249,0,0,0,4,4h3c1.366,2.709,4.272,4.673,7,6v5l-12,5a11.424,11.424,0,0,0-7,7l-2,5c-.351,1.067-.654,2.087,0,3a4.474,4.474,0,0,0,3,2h46a4.48,4.48,0,0,0,3-2C60.406,61.279,60.1,60.258,59.752,59.191Zm-13-38h2c.775,0,2,.225,2,1v6c0,.775-1.225,1-2,1h-2A15.338,15.338,0,0,0,46.752,21.191Zm-12,10h-2c-.344,0,0,.344,0,0s-.344-1,0-1h2a1.46,1.46,0,0,1,1,1C35.752,31.536,35.1,31.191,34.752,31.191Zm-4,7a10.014,10.014,0,0,0,6,0v5l-3,3c-.115.148.188,1,0,1s.115-.852,0-1l-3-3Zm-12-9a2.442,2.442,0,0,1-2-2v-4a2.442,2.442,0,0,1,2-2h2a15.338,15.338,0,0,0,0,8Z" transform="translate(-7.367 -3.537)"/>
</svg>
