<svg xmlns="http://www.w3.org/2000/svg" width="60" height="66.886" viewBox="0 0 60 66.886">
  <g id="solutions" transform="translate(-7.5 -9.469)">
    <g id="Group_73754" data-name="Group 73754" transform="translate(7.5 51.349)">
      <path id="Path_23566" data-name="Path 23566" d="M64.369,44.16a6.611,6.611,0,0,0-5.887.706L47.179,51.7a4.41,4.41,0,0,0-1.413-.824L28.693,44.749a4.938,4.938,0,0,0-3.885.118.115.115,0,0,0-.118.118L17.861,49.1v-.353A2.362,2.362,0,0,0,15.506,46.4H9.855A2.362,2.362,0,0,0,7.5,48.752V66.413a2.362,2.362,0,0,0,2.355,2.355h5.534a2.362,2.362,0,0,0,2.355-2.355v-.589c2.59-1.413,3.65-2.708,5.416-2.473L42,67.473a5.4,5.4,0,0,0,4.592-.824L65.782,51.46c2.59-1.766,2.355-5.887-1.413-7.3ZM9.855,66.413V48.752h5.534V66.413ZM64.369,49.576C44.824,64.411,45.295,65.942,42.587,65.118L23.631,61h-.118c-2.708-.471-4.592,1.413-5.769,2V51.7l8.006-4.827a3.267,3.267,0,0,1,2.119,0L44.942,52.99a2.5,2.5,0,0,1,1.177,3.768,2.531,2.531,0,0,1-3.061.824L32.932,53.7a1.192,1.192,0,1,0-.824,2.237l10.126,3.885A4.728,4.728,0,0,0,48,58.289a4.527,4.527,0,0,0,.589-4.592l11.185-6.711a4.538,4.538,0,0,1,3.885-.471c1.766.589,1.884,2.237.706,3.061Z" transform="translate(-7.5 -43.763)"/>
    </g>
    <g id="Group_73755" data-name="Group 73755" transform="translate(28.779 10.398)">
      <path id="Path_23567" data-name="Path 23567" d="M32.316,38.556a4.883,4.883,0,0,1,2,3.061,3.357,3.357,0,0,0-1.648,2.944A3.517,3.517,0,0,0,35.5,47.976l.471,3.768a1.252,1.252,0,0,0,1.177,1.06h9.184a1.252,1.252,0,0,0,1.177-1.06l.471-3.885a3.649,3.649,0,0,0,2.59-3.3,3.466,3.466,0,0,0-1.648-2.944,4.528,4.528,0,0,1,2-3.179,16.365,16.365,0,0,0,7.064-13.3A16.131,16.131,0,0,0,41.029,9,16.385,16.385,0,0,0,25.6,24.9,15.251,15.251,0,0,0,32.316,38.556Zm5.769,12.01-.235-2.355H45.5l-.235,2.355Zm8.713-4.71H36.084a1.177,1.177,0,0,1,0-2.355H46.8a1.177,1.177,0,1,1,0,2.355Zm-6-34.38a13.816,13.816,0,0,1,8.477,25.2,6.374,6.374,0,0,0-2.944,4.592H36.673a6.854,6.854,0,0,0-2.944-4.592,14.02,14.02,0,0,1-6-11.539A14.055,14.055,0,0,1,40.793,11.476Z" transform="translate(-25.573 -8.982)"/>
    </g>
    <g id="Group_73756" data-name="Group 73756" transform="translate(43.058 16.416)">
      <path id="Path_23568" data-name="Path 23568" d="M39,16.456a7.9,7.9,0,0,1,8.242,7.889,1.177,1.177,0,1,0,2.355,0A10.287,10.287,0,0,0,38.877,14.1,1.18,1.18,0,0,0,37.7,15.279,1.21,1.21,0,0,0,39,16.456Z" transform="translate(-37.7 -14.093)"/>
    </g>
    <g id="Group_73762" data-name="Group 73762" transform="translate(17.812 71.954) rotate(-90)">
      <g id="Group_73757" data-name="Group 73757" transform="translate(43.529 1)">
        <path id="Path_23569" data-name="Path 23569" d="M39.277,7.947a1.112,1.112,0,0,0,1.177-1.177V2.177a1.177,1.177,0,1,0-2.355,0V6.769A1.112,1.112,0,0,0,39.277,7.947Z" transform="translate(-38.1 -1)"/>
      </g>
      <g id="Group_73758" data-name="Group 73758" transform="translate(34.44 2.625)">
        <path id="Path_23570" data-name="Path 23570" d="M32.287,8.291A1.131,1.131,0,0,0,33.347,9a.708.708,0,0,0,.471-.118,1.08,1.08,0,0,0,.589-1.531L32.641,3.11a1.08,1.08,0,0,0-1.531-.589,1.08,1.08,0,0,0-.589,1.531Z" transform="translate(-30.38 -2.38)"/>
      </g>
      <g id="Group_73759" data-name="Group 73759" transform="translate(26.81 7.711)">
        <path id="Path_23571" data-name="Path 23571" d="M27.55,12A1.166,1.166,0,1,0,29.2,10.35l-3.3-3.3A1.166,1.166,0,0,0,24.253,8.7Z" transform="translate(-23.9 -6.7)"/>
      </g>
      <g id="Group_73760" data-name="Group 73760" transform="translate(56.834 8.064)">
        <path id="Path_23572" data-name="Path 23572" d="M51.4,12.3,54.7,9A1.166,1.166,0,0,0,53.05,7.353l-3.3,3.179a1.138,1.138,0,0,0,0,1.648A1.251,1.251,0,0,0,51.4,12.3Z" transform="translate(-49.4 -7)"/>
      </g>
      <g id="Group_73761" data-name="Group 73761" transform="translate(50.739 2.911)">
        <path id="Path_23573" data-name="Path 23573" d="M44.9,9.072a.708.708,0,0,0,.471.118,1.03,1.03,0,0,0,1.06-.706L48.2,4.244A1.16,1.16,0,0,0,46.08,3.3L44.314,7.541A1.168,1.168,0,0,0,44.9,9.072Z" transform="translate(-44.223 -2.623)"/>
      </g>
    </g>
  </g>
</svg>
