<svg xmlns="http://www.w3.org/2000/svg" width="60" height="61.304" viewBox="0 0 60 61.304">
  <g id="online-conference" transform="translate(-9 -8)">
    <path id="Path_23461" data-name="Path 23461" d="M48.13,49.217a1.3,1.3,0,0,0-1.3-1.3H40.3v-1.3a9.141,9.141,0,0,0-9.13-9.13H23.348a9.141,9.141,0,0,0-9.13,9.13v1.064A3.907,3.907,0,0,1,11.609,44V20.522a3.917,3.917,0,0,1,3.913-3.913h20.87a1.3,1.3,0,0,0,0-2.609H15.522A6.529,6.529,0,0,0,9,20.522V44a6.529,6.529,0,0,0,6.522,6.522h31.3A1.3,1.3,0,0,0,48.13,49.217Zm-24.783-9.13h7.826A6.529,6.529,0,0,1,37.7,46.609v1.3H35.087V45.3a1.3,1.3,0,1,0-2.609,0v2.609H22.043V45.3a1.3,1.3,0,1,0-2.609,0v2.609H16.826v-1.3A6.529,6.529,0,0,1,23.348,40.087Z" transform="translate(0 1.826)"/>
    <path id="Path_23462" data-name="Path 23462" d="M46.609,29.522V24.3A1.3,1.3,0,0,0,44,24.3v5.217a1.3,1.3,0,1,0,2.609,0Z" transform="translate(10.652 4.565)"/>
    <path id="Path_23463" data-name="Path 23463" d="M39,37.826A7.826,7.826,0,1,0,46.826,30,7.826,7.826,0,0,0,39,37.826Zm7.826-5.217a5.217,5.217,0,1,1-5.217,5.217A5.217,5.217,0,0,1,46.826,32.609Z" transform="translate(9.13 6.696)"/>
    <path id="Path_23464" data-name="Path 23464" d="M51.957,44H44.13A9.141,9.141,0,0,0,35,53.13v3.913a1.3,1.3,0,1,0,2.609,0V53.13a6.529,6.529,0,0,1,6.522-6.522h7.826a6.529,6.529,0,0,1,6.522,6.522v3.913a1.3,1.3,0,1,0,2.609,0V53.13A9.141,9.141,0,0,0,51.957,44Z" transform="translate(7.913 10.957)"/>
    <path id="Path_23465" data-name="Path 23465" d="M40.3,50A1.3,1.3,0,0,0,39,51.3v3.913a1.3,1.3,0,1,0,2.609,0V51.3A1.3,1.3,0,0,0,40.3,50Z" transform="translate(9.13 12.783)"/>
    <path id="Path_23466" data-name="Path 23466" d="M50.3,50A1.3,1.3,0,0,0,49,51.3v3.913a1.3,1.3,0,1,0,2.609,0V51.3A1.3,1.3,0,0,0,50.3,50Z" transform="translate(12.174 12.783)"/>
    <path id="Path_23467" data-name="Path 23467" d="M17,25.826A7.826,7.826,0,1,0,24.826,18,7.826,7.826,0,0,0,17,25.826Zm13.043,0a5.217,5.217,0,1,1-5.217-5.217A5.217,5.217,0,0,1,30.043,25.826Z" transform="translate(2.435 3.043)"/>
    <path id="Path_23468" data-name="Path 23468" d="M35.913,26.261V28.87A1.3,1.3,0,0,0,38,29.913l4.87-3.652h8.7a3.917,3.917,0,0,0,3.913-3.913V11.913A3.917,3.917,0,0,0,51.565,8H35.913A3.917,3.917,0,0,0,32,11.913V22.348a3.917,3.917,0,0,0,3.913,3.913Zm-1.3-14.348a1.306,1.306,0,0,1,1.3-1.3H51.565a1.306,1.306,0,0,1,1.3,1.3V22.348a1.306,1.306,0,0,1-1.3,1.3h-9.13a1.3,1.3,0,0,0-.782.261l-3.131,2.348v-1.3a1.3,1.3,0,0,0-1.3-1.3h-1.3a1.306,1.306,0,0,1-1.3-1.3Z" transform="translate(7)"/>
    <circle id="Ellipse_1101" data-name="Ellipse 1101" cx="1.304" cy="1.304" r="1.304" transform="translate(49.435 15.826)"/>
    <circle id="Ellipse_1102" data-name="Ellipse 1102" cx="1.304" cy="1.304" r="1.304" transform="translate(54.652 15.826)"/>
    <circle id="Ellipse_1103" data-name="Ellipse 1103" cx="1.304" cy="1.304" r="1.304" transform="translate(44.217 15.826)"/>
  </g>
</svg>
