<svg width="75" height="75" viewBox="0 0 75 75" fill="none" xmlns="http://www.w3.org/2000/svg">
<g clip-path="url(#clip0_2425_10546)">
<path d="M37.5 75C58.2107 75 75 58.2107 75 37.5C75 16.7893 58.2107 0 37.5 0C16.7893 0 0 16.7893 0 37.5C0 58.2107 16.7893 75 37.5 75Z" fill="#EEC9FF"/>
<path d="M59.2004 40.24C58.7679 39.3857 58.5095 38.454 58.4404 37.499C58.5096 36.544 58.7679 35.6122 59.2004 34.758C59.972 33.3861 60.196 31.7732 59.8274 30.243C59.2258 28.7892 58.0966 27.6167 56.6664 26.961C55.8145 26.5243 55.0578 25.9226 54.4404 25.191C53.9338 24.3777 53.5939 23.4718 53.4404 22.526C53.2586 20.9622 52.4915 19.5253 51.2934 18.504C49.9527 17.6806 48.3501 17.3948 46.8074 17.704C45.8609 17.8513 44.8945 17.8092 43.9644 17.58C43.0784 17.219 42.2728 16.6857 41.5944 16.011C40.5285 14.855 39.0651 14.1445 37.4974 14.022C35.9285 14.1444 34.4639 14.8557 33.3974 16.013C32.719 16.6874 31.9134 17.2203 31.0274 17.581C30.0978 17.8106 29.1317 17.8531 28.1854 17.706C26.6424 17.3969 25.0396 17.6827 23.6984 18.506C22.5025 19.5262 21.7364 20.9607 21.5534 22.522C21.4005 23.4689 21.0606 24.3758 20.5534 25.19C19.9363 25.9215 19.18 26.5231 18.3284 26.96C16.8991 27.6162 15.7706 28.7886 15.1694 30.242C14.801 31.772 15.0246 33.3849 15.7954 34.757C16.2275 35.6114 16.4855 36.5431 16.5544 37.498C16.4854 38.4529 16.2275 39.3846 15.7954 40.239C15.0246 41.6111 14.801 43.2239 15.1694 44.754C15.7701 46.208 16.8987 47.3808 18.3284 48.037C19.1808 48.4743 19.9375 49.077 20.5544 49.81C21.0616 50.6234 21.4016 51.5297 21.5544 52.476C21.7368 54.038 22.503 55.4733 23.6994 56.494C25.0406 57.3171 26.6434 57.6029 28.1864 57.294C29.1326 57.1466 30.0987 57.1887 31.0284 57.418C31.9146 57.7791 32.7202 58.3128 33.3984 58.988C34.4644 60.1462 35.9291 60.8582 37.4984 60.981C39.0677 60.8582 40.5325 60.1462 41.5984 58.988C42.2766 58.3128 43.0822 57.7791 43.9684 57.418C44.8985 57.1884 45.8648 57.1459 46.8114 57.293C48.3541 57.6021 49.9567 57.3163 51.2974 56.493C52.4956 55.4721 53.2631 54.0355 53.4454 52.472C53.5988 51.5267 53.9387 50.6215 54.4454 49.809C55.0624 49.0764 55.8192 48.474 56.6714 48.037C58.1016 47.381 59.2305 46.2081 59.8314 44.754C60.1997 43.2237 59.9753 41.6107 59.2034 40.239L59.2004 40.24ZM57.5094 40.95C58.0014 42.121 58.4264 43.133 58.0834 44.188C57.7404 45.243 56.8034 45.811 55.7174 46.469C54.6533 47.0276 53.7141 47.7972 52.9574 48.731C52.3031 49.7382 51.8607 50.8682 51.6574 52.052C51.3664 53.289 51.1154 54.352 50.2174 55.009C49.3194 55.666 48.2284 55.569 46.9624 55.464C45.773 55.2908 44.5607 55.3616 43.3994 55.672C42.2792 56.1035 41.2585 56.7585 40.3994 57.597C39.4374 58.427 38.6064 59.144 37.4994 59.144C36.3924 59.144 35.5594 58.427 34.5994 57.597C33.7404 56.7584 32.7197 56.1035 31.5994 55.672C30.9394 55.4678 30.2512 55.3695 29.5604 55.381C29.0324 55.381 28.5214 55.424 28.0374 55.464C26.7714 55.57 25.6784 55.664 24.7814 55.009C23.8844 54.354 23.6344 53.291 23.3444 52.055C23.1416 50.8701 22.6993 49.739 22.0444 48.731C21.288 47.7973 20.3493 47.0277 19.2854 46.469C18.2004 45.811 17.2624 45.243 16.9204 44.188C16.5784 43.133 17.0024 42.121 17.4934 40.949C18.0243 39.8719 18.3305 38.6981 18.3934 37.499C18.3304 36.2998 18.0242 35.1261 17.4934 34.049C17.0024 32.878 16.5774 31.866 16.9204 30.811C17.2634 29.756 18.2004 29.189 19.2864 28.53C20.3495 27.9715 21.2879 27.2025 22.0444 26.27C22.6993 25.2608 23.1417 24.1288 23.3444 22.943C23.6344 21.707 23.8854 20.643 24.7814 19.989C25.6774 19.335 26.7724 19.428 28.0384 19.534C29.2259 19.7051 30.4357 19.6329 31.5944 19.322C32.7145 18.8907 33.7352 18.2361 34.5944 17.398C35.5564 16.568 36.3874 15.852 37.4944 15.852C38.6014 15.852 39.4344 16.568 40.3944 17.398C41.2537 18.236 42.2744 18.8906 43.3944 19.322C44.5554 19.6322 45.7673 19.7029 46.9564 19.53C48.2224 19.424 49.3154 19.33 50.2124 19.985C51.1094 20.64 51.3614 21.705 51.6524 22.942C51.8559 24.1264 52.2982 25.257 52.9524 26.265C53.7092 27.1981 54.6479 27.9673 55.7114 28.526C56.7974 29.184 57.7354 29.753 58.0784 30.806C58.4214 31.859 57.9964 32.873 57.5044 34.044C56.9733 35.1213 56.6671 36.2955 56.6044 37.495C56.6671 38.6945 56.9733 39.8686 57.5044 40.946L57.5094 40.95Z" fill="#161717"/>
<path d="M31.2268 33.7417C31.2854 33.9279 31.4018 34.0906 31.5592 34.2061C31.7165 34.3216 31.9067 34.3838 32.1018 34.3838H42.8978C43.093 34.3838 43.2831 34.3216 43.4405 34.2061C43.5979 34.0906 43.7143 33.9279 43.7728 33.7417L46.3128 25.6697C46.3659 25.5011 46.3691 25.3208 46.3221 25.1504C46.275 24.98 46.1797 24.8268 46.0476 24.7093C45.9156 24.5918 45.7523 24.515 45.5776 24.4881C45.4029 24.4612 45.2241 24.4854 45.0628 24.5577L40.9718 26.3867L38.2808 21.9867C38.1989 21.8527 38.0839 21.7419 37.9469 21.6651C37.8099 21.5882 37.6554 21.5479 37.4983 21.5479C37.3412 21.5479 37.1868 21.5882 37.0498 21.6651C36.9127 21.7419 36.7978 21.8527 36.7158 21.9867L34.0248 26.3867L29.9368 24.5537C29.7755 24.4814 29.5968 24.4572 29.4221 24.4841C29.2473 24.511 29.0841 24.5878 28.952 24.7053C28.82 24.8228 28.7247 24.976 28.6776 25.1464C28.6306 25.3168 28.6338 25.4971 28.6868 25.6657L31.2268 33.7417ZM34.0118 28.3947C34.2155 28.4861 34.4454 28.5 34.6586 28.4339C34.8718 28.3678 35.0536 28.2263 35.1698 28.0358L37.4988 24.2237L39.8278 28.0358C39.9441 28.2263 40.1259 28.3678 40.339 28.4339C40.5522 28.5 40.7822 28.4861 40.9858 28.3947L43.9478 27.0667L42.2228 32.5498H32.7748L31.0498 27.0667L34.0118 28.3947Z" fill="#161717"/>
<path d="M42.5889 37.9082C42.3457 37.9082 42.1124 38.0048 41.9405 38.1768C41.7685 38.3488 41.6719 38.582 41.6719 38.8252V46.4912C41.6719 46.7344 41.7685 46.9677 41.9405 47.1396C42.1124 47.3116 42.3457 47.4082 42.5889 47.4082C42.8321 47.4082 43.0653 47.3116 43.2373 47.1396C43.4093 46.9677 43.5059 46.7344 43.5059 46.4912V44.0742H44.7229C45.1322 44.0816 45.5389 44.0073 45.9193 43.8558C46.2996 43.7042 46.6459 43.4784 46.938 43.1916C47.2301 42.9047 47.4621 42.5625 47.6205 42.185C47.7788 41.8074 47.8604 41.4021 47.8604 40.9927C47.8604 40.5833 47.7788 40.178 47.6205 39.8005C47.4621 39.4229 47.2301 39.0808 46.938 38.7939C46.6459 38.507 46.2996 38.2812 45.9193 38.1296C45.5389 37.9781 45.1322 37.9039 44.7229 37.9112H42.5889V37.9082ZM46.0129 40.9882C46.0027 41.3233 45.8623 41.6411 45.6213 41.8742C45.3804 42.1073 45.0581 42.2371 44.7229 42.2362H43.5059V39.7362H44.7229C45.0589 39.7348 45.3821 39.8651 45.6233 40.0991C45.8644 40.3331 46.0043 40.6523 46.0129 40.9882Z" fill="#161717"/>
<path d="M30.0489 46.8051C30.1139 46.9808 30.2312 47.1323 30.385 47.2393C30.5387 47.3464 30.7216 47.4038 30.9089 47.4038C31.0963 47.4038 31.2791 47.3464 31.4329 47.2393C31.5866 47.1323 31.7039 46.9808 31.7689 46.8051L34.6099 39.149C34.6945 38.921 34.685 38.6686 34.5836 38.4475C34.4821 38.2264 34.297 38.0546 34.0689 37.97C33.8408 37.8854 33.5885 37.8949 33.3674 37.9964C33.1463 38.0978 32.9745 38.283 32.8899 38.511L30.9079 43.851L28.9239 38.51C28.8827 38.3961 28.8194 38.2915 28.7376 38.2022C28.6557 38.1129 28.557 38.0407 28.4471 37.9898C28.3372 37.9389 28.2184 37.9102 28.0973 37.9055C27.9763 37.9008 27.8555 37.92 27.742 37.9622C27.6285 38.0044 27.5244 38.0687 27.4359 38.1514C27.3473 38.234 27.276 38.3333 27.2261 38.4437C27.1762 38.554 27.1486 38.6732 27.1449 38.7942C27.1413 38.9153 27.1617 39.0359 27.2049 39.149L30.0489 46.8051Z" fill="#161717"/>
<path d="M36.8516 38.8252V46.4912C36.8516 46.7344 36.9482 46.9677 37.1201 47.1396C37.2921 47.3116 37.5254 47.4082 37.7686 47.4082C38.0118 47.4082 38.245 47.3116 38.417 47.1396C38.5889 46.9677 38.6856 46.7344 38.6856 46.4912V38.8252C38.6856 38.582 38.5889 38.3488 38.417 38.1768C38.245 38.0048 38.0118 37.9082 37.7686 37.9082C37.5254 37.9082 37.2921 38.0048 37.1201 38.1768C36.9482 38.3488 36.8516 38.582 36.8516 38.8252Z" fill="#161717"/>
<path d="M47.8802 49.4629H27.1162C26.873 49.4629 26.6398 49.5595 26.4678 49.7315C26.2958 49.9034 26.1992 50.1367 26.1992 50.3799C26.1992 50.6231 26.2958 50.8563 26.4678 51.0283C26.6398 51.2003 26.873 51.2969 27.1162 51.2969H47.8792C48.1224 51.2969 48.3557 51.2003 48.5276 51.0283C48.6996 50.8563 48.7962 50.6231 48.7962 50.3799C48.7962 50.1367 48.6996 49.9034 48.5276 49.7315C48.3557 49.5595 48.1234 49.4629 47.8802 49.4629Z" fill="#161717"/>
</g>
<defs>
<clipPath id="clip0_2425_10546">
<rect width="75" height="75" fill="white"/>
</clipPath>
</defs>
</svg>
