<svg width="75" height="75" viewBox="0 0 75 75" fill="none" xmlns="http://www.w3.org/2000/svg">
<path d="M37.5 75C58.2107 75 75 58.2107 75 37.5C75 16.7893 58.2107 0 37.5 0C16.7893 0 0 16.7893 0 37.5C0 58.2107 16.7893 75 37.5 75Z" fill="#FFBA00"/>
<mask id="mask0_2427_10661" style="mask-type:luminance" maskUnits="userSpaceOnUse" x="27" y="7" width="29" height="36">
<path d="M55.4444 7.78662H27.0664V42.7866H55.4444V7.78662Z" fill="white"/>
</mask>
<g mask="url(#mask0_2427_10661)">
</g>
<g clip-path="url(#clip0_2427_10661)">
<path d="M51.2288 22.1966H48.4102V21.0254C48.4102 20.4591 47.9511 20 47.3848 20C46.8185 20 46.3594 20.4591 46.3594 21.0254V22.1966H41.8203V21.0254C41.8203 20.4591 41.3612 20 40.7949 20C40.2286 20 39.7695 20.4591 39.7695 21.0254V22.1966H35.2305V21.0254C35.2305 20.4591 34.7714 20 34.2051 20C33.6388 20 33.1797 20.4591 33.1797 21.0254V22.1966H28.6406V21.0254C28.6406 20.4591 28.1815 20 27.6152 20C27.0489 20 26.5898 20.4591 26.5898 21.0254V22.1966H23.7711C21.6918 22.1966 20 23.8883 20 25.9678V51.2288C20 53.3082 21.6918 55 23.7711 55H51.2288C53.3082 55 55 53.3082 55 51.2288V25.9678C55 23.8883 53.3082 22.1966 51.2288 22.1966ZM23.7711 24.2474H26.5898V25.4186C26.5898 25.9849 27.0489 26.444 27.6152 26.444C28.1815 26.444 28.6406 25.9849 28.6406 25.4186V24.2474H33.1796V25.4186C33.1796 25.9849 33.6387 26.444 34.2049 26.444C34.7712 26.444 35.2303 25.9849 35.2303 25.4186V24.2474H39.7694V25.4186C39.7694 25.9849 40.2285 26.444 40.7948 26.444C41.3611 26.444 41.8202 25.9849 41.8202 25.4186V24.2474H46.3592V25.4186C46.3592 25.9849 46.8183 26.444 47.3846 26.444C47.9509 26.444 48.41 25.9849 48.41 25.4186V24.2474H51.2286C52.1774 24.2474 52.9492 25.0192 52.9492 25.9678V28.7864H22.0508V25.9678C22.0508 25.0192 22.8226 24.2474 23.7711 24.2474ZM51.2288 52.9492H23.7711C22.8226 52.9492 22.0508 52.1774 22.0508 51.2288V30.8372H52.9492V51.2288C52.9492 52.1774 52.1774 52.9492 51.2288 52.9492Z" fill="black" stroke="#FFBA00" stroke-width="0.3"/>
<path d="M30.36 34.2778H25.9668C25.4005 34.2778 24.9414 34.7369 24.9414 35.3032V39.6964C24.9414 40.2627 25.4005 40.7218 25.9668 40.7218H30.3601C30.9264 40.7218 31.3855 40.2627 31.3855 39.6964V35.3032C31.3854 34.7369 30.9264 34.2778 30.36 34.2778ZM29.3347 38.671H26.9921V36.3286H29.3347V38.671Z" fill="black" stroke="#FFBA00" stroke-width="0.3"/>
<path d="M49.0319 34.2778H44.6387C44.0724 34.2778 43.6133 34.7369 43.6133 35.3032V39.6964C43.6133 40.2627 44.0724 40.7218 44.6387 40.7218H49.0319C49.5981 40.7218 50.0572 40.2627 50.0572 39.6964V35.3032C50.0572 34.7369 49.5981 34.2778 49.0319 34.2778ZM48.0065 38.671H45.6641V36.3286H48.0065V38.671Z" fill="black" stroke="#FFBA00" stroke-width="0.3"/>
<path d="M30.36 43.0645H25.9668C25.4005 43.0645 24.9414 43.5236 24.9414 44.0898V48.483C24.9414 49.0493 25.4005 49.5084 25.9668 49.5084H30.3601C30.9264 49.5084 31.3855 49.0493 31.3855 48.483V44.0898C31.3854 43.5236 30.9264 43.0645 30.36 43.0645ZM29.3347 47.4576H26.9921V45.1152H29.3347V47.4576Z" fill="black" stroke="#FFBA00" stroke-width="0.3"/>
<path d="M49.0319 43.0645H44.6387C44.0724 43.0645 43.6133 43.5236 43.6133 44.0898V48.483C43.6133 49.0493 44.0724 49.5084 44.6387 49.5084H49.0319C49.5981 49.5084 50.0572 49.0493 50.0572 48.483V44.0898C50.0572 43.5236 49.5981 43.0645 49.0319 43.0645ZM48.0065 47.4576H45.6641V45.1152H48.0065V47.4576Z" fill="black" stroke="#FFBA00" stroke-width="0.3"/>
<path d="M39.6961 43.0645H35.3027C34.7364 43.0645 34.2773 43.5236 34.2773 44.0898V48.483C34.2773 49.0493 34.7364 49.5084 35.3027 49.5084H39.6961C40.2623 49.5084 40.7214 49.0493 40.7214 48.483V44.0898C40.7214 43.5236 40.2623 43.0645 39.6961 43.0645ZM38.6707 47.4576H36.3281V45.1152H38.6707V47.4576Z" fill="black" stroke="#FFBA00" stroke-width="0.3"/>
<path d="M39.1044 35.2217L36.7232 37.6031L35.895 36.7748C35.4946 36.3744 34.8453 36.3744 34.4449 36.7748C34.0444 37.1753 34.0444 37.8245 34.4449 38.225L35.9982 39.7783C36.1905 39.9706 36.4513 40.0787 36.7232 40.0787C36.9952 40.0787 37.256 39.9706 37.4483 39.7783L40.5546 36.6718C40.955 36.2714 40.955 35.6222 40.5546 35.2217C40.1541 34.8213 39.5049 34.8213 39.1044 35.2217Z" fill="black" stroke="#FFBA00" stroke-width="0.3"/>
</g>
<defs>
<clipPath id="clip0_2427_10661">
<rect width="35" height="35" fill="white" transform="translate(20 20)"/>
</clipPath>
</defs>
</svg>
