<svg width="49" height="49" viewBox="0 0 49 49" fill="none" xmlns="http://www.w3.org/2000/svg">
<path d="M43.6633 48.045H4.38266C3.80708 48.0451 3.23712 47.9318 2.70534 47.7116C2.17355 47.4914 1.69036 47.1686 1.28337 46.7616C0.876379 46.3546 0.553556 45.8714 0.333352 45.3396C0.113147 44.8078 -0.000126131 44.2379 1.05396e-07 43.6623V4.38264C-0.000126131 3.80706 0.113147 3.2371 0.333352 2.70532C0.553556 2.17353 0.876379 1.69034 1.28337 1.28335C1.69036 0.876357 2.17355 0.553534 2.70534 0.33333C3.23712 0.113125 3.80708 -0.000126131 4.38266 1.05417e-07H43.6633C44.2389 -0.000126131 44.8088 0.113125 45.3406 0.33333C45.8724 0.553534 46.3556 0.876357 46.7626 1.28335C47.1696 1.69034 47.4924 2.17353 47.7126 2.70532C47.9328 3.2371 48.0461 3.80706 48.0459 4.38264V43.6623C48.0459 44.2378 47.9326 44.8078 47.7123 45.3395C47.4921 45.8712 47.1693 46.3543 46.7623 46.7613C46.3553 47.1683 45.8722 47.4911 45.3405 47.7113C44.8087 47.9316 44.2388 48.045 43.6633 48.045Z" fill="#2A6AB4"/>
<path d="M43.8738 23.9268C43.8671 23.6847 43.8565 23.4406 43.8469 23.1984C43.8469 23.1754 43.8469 23.1504 43.8421 23.1273C43.819 22.9505 43.819 22.7718 43.7873 22.5969C43.77 22.3951 43.7364 22.1972 43.7008 21.9992C43.6461 21.6898 43.5788 21.3833 43.4952 21.0816C43.096 19.6037 42.3279 18.2514 41.263 17.1515C40.0258 15.8549 38.4177 14.9728 36.6594 14.6263C36.497 14.5926 36.3336 14.5628 36.1693 14.5379C36.053 14.5206 35.9358 14.5004 35.8176 14.4879C35.6456 14.4706 35.4765 14.4456 35.3045 14.4379L35.2161 14.4312C35.1402 14.4254 35.0623 14.4187 34.9864 14.4149C34.7491 14.4062 34.5127 14.3985 34.2754 14.4024C33.9847 14.3998 33.6941 14.4123 33.4048 14.4399C33.3644 14.4447 33.3212 14.4446 33.2808 14.4485C33.2405 14.4523 33.2097 14.4485 33.1752 14.4571C32.958 14.485 32.7399 14.51 32.5246 14.5475C32.2277 14.5974 31.8453 14.682 31.5541 14.7618C30.3437 15.0922 29.218 15.6776 28.2525 16.4789C28.1198 16.5884 27.9911 16.7018 27.8681 16.8181C27.8383 16.8459 27.8076 16.8748 27.772 16.9007C27.7639 16.9087 27.7545 16.9152 27.7441 16.9199C27.7331 16.9226 27.7216 16.9226 27.7105 16.9199C27.7048 16.9182 27.6998 16.9147 27.6963 16.9098C27.6928 16.9049 27.6911 16.899 27.6913 16.893C27.6913 16.8527 27.6913 16.8094 27.6913 16.7691V15.9148C27.6913 15.8495 27.6913 15.7842 27.6865 15.7227C27.6821 15.6218 27.6643 15.5219 27.6336 15.4257C27.5648 15.1989 27.4412 14.9925 27.2735 14.8249C27.1059 14.6573 26.8996 14.5337 26.6727 14.4648C26.5767 14.4332 26.4768 14.4148 26.3758 14.4101C26.298 14.4101 26.2221 14.4101 26.1442 14.4101C26.0432 14.4134 25.9433 14.4312 25.8473 14.4629C25.6361 14.5251 25.4418 14.6348 25.2796 14.7837C25.1174 14.9327 24.9914 15.1168 24.9114 15.322C24.8786 15.3982 24.8553 15.4783 24.8422 15.5603C24.8195 15.6767 24.8082 15.7952 24.8086 15.9139C24.8086 15.9494 24.8086 15.985 24.8086 16.0196V24.4649C24.8086 24.5053 24.8086 24.5475 24.8153 24.5889C24.8298 24.6885 24.8382 24.789 24.8403 24.8896C24.8403 24.93 24.847 24.9723 24.8509 25.0136L24.872 25.2432C24.872 25.2788 24.872 25.3144 24.8807 25.3489C24.9037 25.4835 24.9143 25.6199 24.9335 25.7535C24.9604 25.9284 24.9883 26.1052 25.0238 26.2791C25.0871 26.599 25.1662 26.9155 25.2612 27.2275C25.4851 27.9705 25.8049 28.6811 26.2125 29.3415C26.6058 29.9773 27.0749 30.5629 27.6096 31.0855C28.6509 32.1166 29.9387 32.8641 31.3504 33.2571C31.6348 33.3385 31.9231 33.4064 32.2152 33.4608C32.3958 33.4945 32.5755 33.5243 32.76 33.5473C32.884 33.5637 33.0079 33.5752 33.1309 33.5896C33.2373 33.6018 33.3433 33.6108 33.449 33.6165L33.6258 33.629C33.7142 33.6348 33.8026 33.6415 33.8929 33.6434L34.2504 33.6501C34.5915 33.6501 34.8663 33.6501 35.1363 33.6223C35.1594 33.6223 35.1844 33.6223 35.2074 33.6223C35.3862 33.6175 35.5611 33.5925 35.7379 33.5723C35.93 33.5492 36.1222 33.5195 36.3144 33.4839C36.6238 33.4272 36.9284 33.3561 37.2302 33.2696C38.2247 32.9877 39.1615 32.5323 39.9975 31.9244C40.6551 31.4463 41.2515 30.8893 41.7733 30.2658C42.4381 29.4742 42.9555 28.5698 43.3011 27.5955C43.4387 27.2106 43.551 26.817 43.6374 26.4175C43.6874 26.1907 43.7277 25.9649 43.7594 25.7352C43.7739 25.6295 43.7863 25.5229 43.7998 25.4191C43.8123 25.3365 43.819 25.2548 43.8267 25.1712C43.8267 25.1183 43.8373 25.0655 43.8411 25.0117C43.845 24.9578 43.8536 24.8829 43.8555 24.8195C43.8642 24.6273 43.8719 24.4284 43.8786 24.2324C43.8757 24.1257 43.8777 24.0229 43.8738 23.9268ZM40.8441 24.3352C40.8441 24.3755 40.8374 24.4178 40.8374 24.4591C40.8117 24.8377 40.7541 25.2135 40.6653 25.5824C40.3601 26.8246 39.6976 27.95 38.7597 28.8198C37.8218 29.6895 36.6497 30.2654 35.3881 30.4763C35.2611 30.5008 35.1327 30.5174 35.0037 30.5263C34.6383 30.5644 34.2704 30.5734 33.9035 30.5532C33.8449 30.5532 33.7853 30.5445 33.7267 30.5388C33.6969 30.5388 33.6681 30.5301 33.6383 30.5282C33.4374 30.5111 33.2378 30.4816 33.0406 30.4398C31.9005 30.2127 30.8414 29.6859 29.9724 28.9138C29.1033 28.1417 28.4556 27.152 28.0958 26.0465C28.0019 25.7597 27.9287 25.4666 27.8767 25.1692C27.8489 25.0069 27.8268 24.8416 27.8076 24.6773C27.7745 24.3411 27.7661 24.0029 27.7826 23.6654C27.7826 23.5943 27.7931 23.5242 27.7999 23.4531C27.7999 23.4233 27.8066 23.3945 27.8085 23.3647C27.8302 23.1348 27.8651 22.9064 27.9133 22.6805C27.9826 22.3443 28.079 22.0143 28.2015 21.6937C28.299 21.4394 28.412 21.1914 28.5398 20.9509C28.5926 20.8548 28.6474 20.753 28.7041 20.6559C28.7608 20.5589 28.8261 20.4522 28.8963 20.3551C29.1323 20.0141 29.3979 19.6945 29.69 19.4C30.4973 18.5902 31.5039 18.0075 32.6082 17.7108C32.8296 17.6502 33.0542 17.6018 33.2808 17.5657C33.4912 17.5311 33.7032 17.5081 33.916 17.4965L34.1284 17.4859C34.2418 17.4811 34.3532 17.4811 34.4666 17.4859C34.603 17.4926 34.7385 17.4965 34.875 17.509C35.0114 17.5215 35.1229 17.532 35.2459 17.5512C35.4035 17.5762 35.5611 17.6041 35.7177 17.6377C36.814 17.8795 37.8297 18.3993 38.6672 19.1469C39.5047 19.8946 40.1359 20.845 40.5001 21.907C40.5964 22.1872 40.6725 22.474 40.7278 22.7651C40.7662 22.963 40.7912 23.1629 40.8239 23.3608L40.8297 23.4137C40.8383 23.5501 40.847 23.6856 40.8547 23.8221C40.8547 23.8874 40.8546 23.9528 40.8604 24.0489C40.8527 24.119 40.8498 24.2266 40.8441 24.3323V24.3352Z" fill="white"/>
<path d="M22.5004 30.6933C22.4292 30.6638 22.3551 30.6419 22.2794 30.628C22.1567 30.6054 22.0323 30.5935 21.9075 30.5924C21.6404 30.5924 21.3733 30.5924 21.1081 30.5924C21.0552 30.5924 21.0024 30.5924 20.9485 30.5924C20.9369 30.5931 20.9253 30.5908 20.9149 30.5857C20.9063 30.5809 20.9024 30.5684 20.8976 30.5588C20.9103 30.532 20.9276 30.5076 20.9485 30.4867C21.0811 30.3435 21.2118 30.1984 21.3329 30.0466C21.9892 29.2562 22.5032 28.3579 22.8521 27.3916C22.9843 27.0238 23.0931 26.648 23.1778 26.2664C23.2271 26.0473 23.2678 25.8263 23.2999 25.6034C23.3162 25.4977 23.3277 25.391 23.3421 25.2873C23.3527 25.2114 23.3614 25.1355 23.3671 25.0576C23.3671 25.0221 23.3671 24.9865 23.3758 24.9519C23.3931 24.828 23.3969 24.704 23.4027 24.58C23.4027 24.484 23.4094 24.3879 23.4152 24.2918C23.4238 24.1256 23.4257 23.9593 23.4219 23.795C23.4152 23.5576 23.4046 23.3213 23.395 23.0839C23.395 23.0609 23.395 23.0359 23.3892 23.0128C23.3662 22.8427 23.3594 22.6717 23.3364 22.4997C23.2979 22.2114 23.2816 22.0961 23.2307 21.8155C23.173 21.5006 23.0992 21.1889 23.0097 20.8815C22.8452 20.3121 22.623 19.7609 22.3467 19.2365C22.0431 18.6605 21.6743 18.1214 21.2474 17.6299C20.5602 16.8337 19.7411 16.1619 18.8259 15.6437C17.8308 15.0872 16.7426 14.717 15.6146 14.5511C15.5089 14.5348 15.4022 14.5233 15.2984 14.5069C15.1389 14.4839 14.9804 14.4714 14.818 14.456C14.6354 14.4387 14.4519 14.4291 14.2684 14.4224C13.7589 14.4044 13.2487 14.4156 12.7405 14.456H12.705C12.5532 14.4791 12.3975 14.481 12.2447 14.5089C12.0525 14.5262 11.87 14.5598 11.6826 14.5954C11.3042 14.6656 10.9304 14.7583 10.5631 14.8731C9.56544 15.1849 8.63172 15.673 7.80632 16.3144C7.31635 16.6986 6.86339 17.1277 6.45337 17.5962C6.2218 17.8584 6.00556 18.1336 5.80572 18.4207C5.12601 19.3958 4.64954 20.4977 4.40472 21.6608C4.36245 21.853 4.32497 22.0548 4.29518 22.2547C4.2654 22.4545 4.24042 22.6294 4.22601 22.8187L4.22023 22.8716C4.2039 22.9773 4.19909 23.0839 4.19333 23.1896L4.17699 23.4779C4.17699 23.549 4.17028 23.6191 4.16836 23.6922C4.16259 23.9718 4.16259 24.2495 4.18277 24.5272C4.19718 24.7338 4.19717 24.9413 4.22696 25.1479C4.23369 25.2969 4.25675 25.4429 4.27693 25.5899C4.30191 25.7725 4.33363 25.9522 4.36726 26.1329C4.44847 26.5562 4.55826 26.9735 4.69589 27.382C5.01488 28.3339 5.49993 29.2217 6.12858 30.0043C6.54113 30.5175 7.00724 30.9852 7.51901 31.3995C8.19982 31.9564 8.95911 32.4097 9.77232 32.7448C10.6244 33.0909 11.5212 33.3147 12.4359 33.4097L12.5416 33.4222L12.7184 33.4395C12.8366 33.4482 12.9558 33.4559 13.072 33.4674C13.2078 33.4802 13.3441 33.486 13.4804 33.4847H21.8566C21.9344 33.4847 22.0103 33.4847 22.0882 33.4847C22.1591 33.4819 22.2296 33.4719 22.2986 33.4549C22.5899 33.3892 22.8536 33.2347 23.0533 33.0126C23.253 32.7906 23.3788 32.512 23.4132 32.2153C23.4344 32.0322 23.4207 31.8467 23.3729 31.6686C23.3147 31.4487 23.2053 31.2457 23.0537 31.0762C22.9021 30.9067 22.7125 30.7755 22.5004 30.6933ZM20.3432 24.2505C20.3419 24.3334 20.3361 24.4161 20.3259 24.4984C20.3259 24.5214 20.3201 24.5464 20.3192 24.5695C20.2563 25.2658 20.0807 25.9473 19.7993 26.5874C19.4224 27.4514 18.8643 28.2246 18.163 28.8545C17.4616 29.4844 16.6332 29.9565 15.7337 30.2388C15.4397 30.3314 15.1395 30.403 14.8353 30.4531C14.6297 30.4867 14.425 30.5117 14.2184 30.5261C14.0647 30.5347 13.9109 30.5492 13.7889 30.5453C13.6478 30.5476 13.5066 30.5421 13.3661 30.529L13.295 30.5232C12.5539 30.4752 11.8269 30.2986 11.1464 30.0014C10.3083 29.6401 9.55443 29.1087 8.93249 28.4408C8.31055 27.7729 7.83414 26.983 7.53343 26.1213C7.43249 25.83 7.35159 25.532 7.29128 25.2296C7.25284 25.0317 7.22593 24.8318 7.19518 24.6319C7.18942 24.5916 7.18845 24.5493 7.18653 24.508C7.18653 24.4494 7.17981 24.3898 7.17404 24.3312C7.15257 24.0754 7.15257 23.8183 7.17404 23.5625L7.1798 23.4914C7.20747 23.0418 7.2835 22.5966 7.40658 22.1634C7.74141 20.9701 8.40583 19.8955 9.32362 19.0627C10.2414 18.2299 11.3754 17.6726 12.5954 17.455C12.7761 17.4233 12.9577 17.4002 13.1422 17.381C13.4668 17.3519 13.7929 17.3448 14.1185 17.3598C14.1665 17.3598 14.2146 17.3666 14.2597 17.3704C14.3049 17.3743 14.3308 17.3791 14.3654 17.381C14.6073 17.4012 14.8477 17.4366 15.0851 17.4867C15.4627 17.5632 15.8326 17.6738 16.1902 17.8172C17.0381 18.1549 17.8066 18.665 18.447 19.3152C19.0875 19.9655 19.5859 20.7416 19.9108 21.5945C20.0467 21.9484 20.1509 22.3137 20.2221 22.6861C20.2642 22.8893 20.2931 23.0951 20.3086 23.3021C20.3438 23.6169 20.356 23.9339 20.3432 24.2505Z" fill="white"/>
</svg>
