<svg width="75" height="75" viewBox="0 0 75 75" fill="none" xmlns="http://www.w3.org/2000/svg">
<g clip-path="url(#clip0_772_4960)">
<path d="M37.5 75C58.2107 75 75 58.2107 75 37.5C75 16.7893 58.2107 0 37.5 0C16.7893 0 0 16.7893 0 37.5C0 58.2107 16.7893 75 37.5 75Z" fill="#FFBA00"/>
<mask id="mask0_772_4960" style="mask-type:luminance" maskUnits="userSpaceOnUse" x="20" y="19" width="36" height="36">
<path d="M20 19H56V55H20V19Z" fill="white"/>
</mask>
<g mask="url(#mask0_772_4960)">
<path d="M48.6268 54.4732H30.4552C30.3167 54.4732 30.1795 54.4459 30.0515 54.3928C29.9235 54.3398 29.8073 54.2622 29.7093 54.1643C29.6114 54.0663 29.5337 53.95 29.4807 53.822C29.4277 53.694 29.4004 53.5569 29.4004 53.4184V26.0932C29.4004 25.9546 29.4277 25.8175 29.4807 25.6895C29.5337 25.5616 29.6114 25.4453 29.7093 25.3473C29.8073 25.2494 29.9235 25.1717 30.0515 25.1187C30.1795 25.0657 30.3167 25.0383 30.4552 25.0383H48.6268C48.7653 25.0383 48.9025 25.0657 49.0304 25.1187C49.1584 25.1717 49.2747 25.2494 49.3727 25.3473C49.4706 25.4453 49.5483 25.5616 49.6013 25.6895C49.6543 25.8175 49.6816 25.9546 49.6816 26.0932V53.4184C49.6816 53.5569 49.6543 53.694 49.6013 53.822C49.5483 53.95 49.4706 54.0663 49.3727 54.1643C49.2747 54.2622 49.1584 54.3398 49.0304 54.3928C48.9025 54.4459 48.7653 54.4732 48.6268 54.4732Z" stroke="black" stroke-width="1.2" stroke-miterlimit="10" stroke-linecap="round" stroke-linejoin="round"/>
<path d="M30.2246 25.0648C30.301 25.0473 30.3791 25.0385 30.4574 25.0384H46.6046V20.5863C46.6049 20.3382 46.5173 20.0981 46.3574 19.9084L30.2246 25.0648Z" stroke="black" stroke-width="1.2" stroke-miterlimit="10" stroke-linecap="round" stroke-linejoin="round"/>
<path d="M31.9336 36.2092V31.114C31.9336 30.9835 31.9854 30.8584 32.0777 30.7661C32.17 30.6738 32.2951 30.622 32.4256 30.622H37.9216C38.0521 30.622 38.1772 30.6738 38.2695 30.7661C38.3618 30.8584 38.4136 30.9835 38.4136 31.114V36.2092C38.4136 36.3397 38.3618 36.4648 38.2695 36.5571C38.1772 36.6493 38.0521 36.7012 37.9216 36.7012H32.4256C32.2951 36.7012 32.17 36.6493 32.0777 36.5571C31.9854 36.4648 31.9336 36.3397 31.9336 36.2092Z" stroke="black" stroke-width="1.2" stroke-miterlimit="10" stroke-linecap="round" stroke-linejoin="round"/>
<path d="M31.9336 48.3952V43.3C31.9336 43.1695 31.9854 43.0444 32.0777 42.9521C32.17 42.8598 32.2951 42.808 32.4256 42.808H37.9216C38.0521 42.808 38.1772 42.8598 38.2695 42.9521C38.3618 43.0444 38.4136 43.1695 38.4136 43.3V48.3952C38.4136 48.5257 38.3618 48.6508 38.2695 48.7431C38.1772 48.8353 38.0521 48.8872 37.9216 48.8872H32.4256C32.2951 48.8872 32.17 48.8353 32.0777 48.7431C31.9854 48.6508 31.9336 48.5257 31.9336 48.3952Z" stroke="black" stroke-width="1.2" stroke-miterlimit="10" stroke-linecap="round" stroke-linejoin="round"/>
<path d="M40.6328 32.6656H47.15" stroke="black" stroke-width="1.2" stroke-miterlimit="10" stroke-linecap="round" stroke-linejoin="round"/>
<path d="M40.6328 34.6588H43.07" stroke="black" stroke-width="1.2" stroke-miterlimit="10" stroke-linecap="round" stroke-linejoin="round"/>
<path d="M40.6328 44.8516H47.15" stroke="black" stroke-width="1.2" stroke-miterlimit="10" stroke-linecap="round" stroke-linejoin="round"/>
<path d="M40.6328 46.8448H43.07" stroke="black" stroke-width="1.2" stroke-miterlimit="10" stroke-linecap="round" stroke-linejoin="round"/>
<path d="M30.2215 25.066L46.3543 19.906C46.2555 19.7882 46.1321 19.6936 45.9928 19.6287C45.8535 19.5638 45.7016 19.5302 45.5479 19.5304H27.3751C27.0954 19.5304 26.8271 19.6415 26.6293 19.8393C26.4314 20.0371 26.3203 20.3054 26.3203 20.5852V47.908C26.3203 48.1877 26.4314 48.456 26.6293 48.6538C26.8271 48.8516 27.0954 48.9628 27.3751 48.9628H29.4055V26.0932C29.4056 25.855 29.4862 25.6238 29.6344 25.4373C29.7826 25.2508 29.9895 25.1199 30.2215 25.066Z" stroke="black" stroke-width="1.2" stroke-miterlimit="10" stroke-linecap="round" stroke-linejoin="round"/>
</g>
</g>
<defs>
<clipPath id="clip0_772_4960">
<rect width="75" height="75" fill="white"/>
</clipPath>
</defs>
</svg>
