<svg id="smyttenlogo" xmlns="http://www.w3.org/2000/svg" width="87.615" height="45.605" viewBox="0 0 87.615 45.605">
  <path id="Path_24437" data-name="Path 24437" d="M0,11.649V15.83H.268l.5-.882A8.712,8.712,0,0,0,3.39,16.022a5.345,5.345,0,0,0,4.061-.9,3.092,3.092,0,0,0,1.4-2.455,3.9,3.9,0,0,0-.575-2.551A5.317,5.317,0,0,0,5.208,8.332c-1.3-.421-3.18-.748-3.256-2.608A2.277,2.277,0,0,1,4.289,3.462c.479.039,2.318.172,3.812,3.394,0,0,.077.134.134-.077L8.082,3.173H7.89L7.373,3.9a6.671,6.671,0,0,0-3.16-.729A3.93,3.93,0,0,0,.345,5.859,3.362,3.362,0,0,0,1.762,9.541a38.747,38.747,0,0,0,3.657,1.573c.957.383,2.011.8,1.8,2.474A2.268,2.268,0,0,1,5.21,15.716a4.022,4.022,0,0,1-3.524-1.5A14.077,14.077,0,0,1,0,11.65Z" transform="translate(0 0.635)"/>
  <path id="Path_24438" data-name="Path 24438" d="M8.224,3.652s1.9.475,1.926,1.9.014,8.673.014,8.673S10.3,15.484,8.3,15.507v.211h6.086V15.5s-1.752.12-1.752-1.362S12.562,6.2,12.562,6.2a3.443,3.443,0,0,1,2.772-1.956,2.369,2.369,0,0,1,2.643,1.912l.087,8s-.043,1.439-1.825,1.366l.014.2h6.034v-.2s-1.825.072-1.825-1.482V6.008a3.351,3.351,0,0,1,2.758-1.726,2.367,2.367,0,0,1,2.657,2.33v7.852s.072,1.052-1.825,1.049v.2h6.177v-.2s-1.839-.057-1.839-1.122-.057-7.537-.087-8.01a3.285,3.285,0,0,0-3.26-3.163A5.139,5.139,0,0,0,20.4,5.535a3.818,3.818,0,0,0-3.275-2.341C14.6,2.976,12.6,5.435,12.6,5.435S12.618,4.17,12.618,4s.028-.618-.82-.6-1.812.241-3.577.259Z" transform="translate(1.646 0.637)"/>
  <path id="Path_24439" data-name="Path 24439" d="M25.431,4.269h5.736V4.49s-.977-.019-1.235.23-.211.719.077,1.246,3.275,7.363,3.275,7.363,3.025-7.306,3.074-7.594.019-.767-.355-.92-1.346-.317-1.532-.546h5.99V0H42.89V4.042h6.652V0H52.17V4.042h3.678v.675l-3.664.014s-.014,8.73.028,8.946a1.9,1.9,0,0,0,1.795,1.582c1.436.058,1.867-1.093,2.14-2.229h.23a4.143,4.143,0,0,1-.618,1.827,3.163,3.163,0,0,1-1.825,1.6,4.1,4.1,0,0,1-2.974-.346,3.087,3.087,0,0,1-1.221-2.46c-.057-1.208-.072-8.917-.072-8.917h-6.68V12.44a4.08,4.08,0,0,0,.373,1.9,1.812,1.812,0,0,0,2.485.719,2.588,2.588,0,0,0,1.177-2.027l.2-.014a5.133,5.133,0,0,1-.733,2.171,3.536,3.536,0,0,1-3.85,1.265c-1.595-.374-2-1.9-2.083-3.135s-.1-8.6-.1-8.6l-2.513.028s-.3-.129-.733.59-3.965,9.19-4.425,10.3-1.12,2.805-1.623,3.753A6.932,6.932,0,0,1,29.325,21.8a2.5,2.5,0,0,1-2.974.331,1.8,1.8,0,0,1-.747-2.359A1.369,1.369,0,0,1,26.941,19c.719.057,1.407.416,1.494,1.065a4.134,4.134,0,0,1-.23,1.9,3.725,3.725,0,0,0,1.954-1.668,13.844,13.844,0,0,0,1.811-3.753S27.7,6.69,27.4,6.057a2.417,2.417,0,0,0-1.973-1.783Z" transform="translate(5.089)"/>
  <path id="Path_24440" data-name="Path 24440" d="M62.668,12.613a7.006,7.006,0,0,1-1.656,1.841,4.211,4.211,0,0,1-3.112.585c-1.053-.336-2.3-.68-3.026-3.365a15,15,0,0,1-.211-3.2h7.948a6.28,6.28,0,0,0-.69-3.088A4.689,4.689,0,0,0,58.014,3.2a5.719,5.719,0,0,0-5.459,3.394,7.16,7.16,0,0,0-.585,3.548,6.2,6.2,0,0,0,2.443,4.889c2.145,1.879,5.287.729,5.651.576A6.613,6.613,0,0,0,62.9,12.959l-.23-.346Zm-5.8-8.993c1.976-.349,2.318.767,2.758,1.63a7.224,7.224,0,0,1,.345,2.723H54.7s.189-4,2.163-4.353Z" transform="translate(10.401 0.634)"/>
  <path id="Path_24441" data-name="Path 24441" d="M61.071,3.741s1.915.489,1.915,1.554.042,8.471.014,8.8.172,1.366-1.825,1.482v.177h6.273v-.181a2.248,2.248,0,0,1-1.475-.5,1.274,1.274,0,0,1-.46-1.16c0-.21-.009-7.086-.009-7.086s-.038-.786.221-1.065a3.577,3.577,0,0,1,1.618-1.15A2.835,2.835,0,0,1,70,4.74a2.211,2.211,0,0,1,.928,1.573,15.619,15.619,0,0,1,.1,2.636s.024,5.169.017,5.36a.99.99,0,0,1-.572.891,2.459,2.459,0,0,1-1.4.346l.009.211h6.3v-.211a3.006,3.006,0,0,1-1.407-.47,1.046,1.046,0,0,1-.43-.863c.011-.576.009-7.114-.009-7.5a4.335,4.335,0,0,0-.67-2.2,3.916,3.916,0,0,0-3.629-1.3c-1.982.134-3.725,2.215-3.725,2.215s.009-1.343,0-1.524-.153-.508-.881-.461-.728.134-3.563.3Z" transform="translate(12.227 0.641)"/>
  <path id="Path_24442" data-name="Path 24442" d="M36.741,39.44a4.321,4.321,0,1,0-4.316-4.321A4.319,4.319,0,0,0,36.741,39.44Z" transform="translate(6.492 6.166)"/>
  <path id="Path_24443" data-name="Path 24443" d="M24.4,39.44a4.321,4.321,0,1,0-4.316-4.321A4.319,4.319,0,0,0,24.4,39.44Z" transform="translate(4.022 6.166)"/>
  <path id="Path_24444" data-name="Path 24444" d="M49.039,39.44a4.321,4.321,0,1,0-4.316-4.321A4.319,4.319,0,0,0,49.039,39.44Z" transform="translate(8.954 6.166)"/>
</svg>
