<svg width="75" height="75" viewBox="0 0 75 75" fill="none" xmlns="http://www.w3.org/2000/svg">
<path d="M37.5 75C58.2107 75 75 58.2107 75 37.5C75 16.7893 58.2107 0 37.5 0C16.7893 0 0 16.7893 0 37.5C0 58.2107 16.7893 75 37.5 75Z" fill="#4EEAC2"/>
<g clip-path="url(#clip0_808_4328)">
<path d="M36.9999 49.0039C34.8244 49.0039 32.6976 48.3587 30.8887 47.1499C29.0798 45.9411 27.6699 44.223 26.8373 42.2128C26.0048 40.2026 25.7869 37.9907 26.2114 35.8567C26.6358 33.7228 27.6834 31.7626 29.2218 30.2241C30.7602 28.6856 32.7202 27.6378 34.854 27.2133C36.9877 26.7889 39.1995 27.0067 41.2094 27.8394C43.2194 28.672 44.9374 30.082 46.1461 31.8911C47.3547 33.7002 47.9999 35.8271 47.9999 38.0029C47.998 40.92 46.8385 43.717 44.776 45.7797C42.7135 47.8424 39.9167 49.002 36.9999 49.0039ZM36.9999 27.8521C34.9925 27.8521 33.0301 28.4474 31.361 29.5628C29.6918 30.6782 28.3909 32.2635 27.6227 34.1184C26.8544 35.9732 26.6534 38.0142 27.0451 39.9832C27.4367 41.9523 28.4034 43.761 29.8229 45.1806C31.2424 46.6003 33.0509 47.567 35.0198 47.9587C36.9887 48.3504 39.0295 48.1494 40.8841 47.3811C42.7388 46.6128 44.324 45.3117 45.4393 43.6424C46.5546 41.9731 47.1498 40.0106 47.1498 38.0029C47.1458 35.312 46.0751 32.7324 44.1725 30.8297C42.2699 28.9269 39.6906 27.8561 36.9999 27.8521Z" fill="#363636" stroke="#363636" stroke-width="0.5"/>
<path d="M26.9684 35.0699C25.7422 35.0686 24.5667 34.5809 23.6996 33.7139C22.8326 32.8468 22.345 31.6711 22.3438 30.4448V27.427C22.3438 27.3143 22.3885 27.2062 22.4682 27.1265C22.5479 27.0467 22.656 27.002 22.7688 27.002C22.8815 27.002 22.9896 27.0467 23.0693 27.1265C23.149 27.2062 23.1938 27.3143 23.1938 27.427V30.4448C23.1944 31.4458 23.5923 32.4056 24.3 33.1134C25.0078 33.8212 25.9675 34.2191 26.9684 34.2198C27.0811 34.2198 27.1892 34.2645 27.2689 34.3442C27.3486 34.424 27.3934 34.5321 27.3934 34.6448C27.3934 34.7576 27.3486 34.8657 27.2689 34.9454C27.1892 35.0251 27.0811 35.0699 26.9684 35.0699Z" fill="#363636" stroke="#363636" stroke-width="0.5"/>
<path d="M47.0305 35.0699C46.9178 35.0699 46.8097 35.0251 46.73 34.9454C46.6503 34.8657 46.6055 34.7576 46.6055 34.6448C46.6055 34.5321 46.6503 34.424 46.73 34.3442C46.8097 34.2645 46.9178 34.2198 47.0305 34.2198C48.0314 34.2191 48.9911 33.8212 49.6988 33.1134C50.4066 32.4056 50.8044 31.4458 50.805 30.4448V27.427C50.805 27.3143 50.8498 27.2062 50.9295 27.1265C51.0092 27.0467 51.1174 27.002 51.2301 27.002C51.3428 27.002 51.4509 27.0467 51.5306 27.1265C51.6103 27.2062 51.6551 27.3143 51.6551 27.427V30.4448C51.6539 31.6711 51.1662 32.8468 50.2992 33.7139C49.4322 34.5809 48.2566 35.0686 47.0305 35.0699Z" fill="#363636" stroke="#363636" stroke-width="0.5"/>
<path d="M51.2301 49.0035C51.1741 49.0039 51.1186 48.9933 51.0669 48.9721C51.0151 48.9509 50.9681 48.9196 50.9285 48.88C50.8889 48.8405 50.8576 48.7934 50.8364 48.7416C50.8153 48.6898 50.8046 48.6344 50.805 48.5784V45.5606C50.8044 44.5596 50.4066 43.5998 49.6988 42.892C48.9911 42.1842 48.0314 41.7863 47.0305 41.7857C46.9747 41.7857 46.9194 41.7747 46.8678 41.7533C46.8163 41.732 46.7694 41.7006 46.73 41.6612C46.6905 41.6217 46.6592 41.5748 46.6378 41.5233C46.6164 41.4717 46.6055 41.4164 46.6055 41.3606C46.6055 41.3048 46.6164 41.2495 46.6378 41.1979C46.6592 41.1464 46.6905 41.0995 46.73 41.0601C46.7694 41.0206 46.8163 40.9892 46.8678 40.9679C46.9194 40.9465 46.9747 40.9355 47.0305 40.9355C48.2566 40.9368 49.4322 41.4245 50.2992 42.2916C51.1662 43.1586 51.6539 44.3343 51.6551 45.5606V48.5784C51.6548 48.691 51.6099 48.799 51.5303 48.8786C51.4506 48.9583 51.3427 49.0031 51.2301 49.0035Z" fill="#363636" stroke="#363636" stroke-width="0.5"/>
<path d="M22.7688 49.0035C22.7128 49.0039 22.6574 48.9933 22.6056 48.9721C22.5538 48.9509 22.5068 48.9196 22.4672 48.88C22.4276 48.8405 22.3964 48.7934 22.3752 48.7416C22.354 48.6898 22.3433 48.6344 22.3438 48.5784V45.5606C22.345 44.3343 22.8327 43.1586 23.6997 42.2916C24.5667 41.4245 25.7422 40.9368 26.9684 40.9355C27.0242 40.9355 27.0795 40.9465 27.131 40.9679C27.1826 40.9892 27.2294 41.0206 27.2689 41.0601C27.3084 41.0995 27.3397 41.1464 27.361 41.1979C27.3824 41.2495 27.3934 41.3048 27.3934 41.3606C27.3934 41.4164 27.3824 41.4717 27.361 41.5233C27.3397 41.5748 27.3084 41.6217 27.2689 41.6612C27.2294 41.7006 27.1826 41.732 27.131 41.7533C27.0795 41.7747 27.0242 41.7857 26.9684 41.7857C25.9675 41.7863 25.0078 42.1842 24.3 42.892C23.5923 43.5998 23.1944 44.5596 23.1938 45.5606V48.5784C23.192 48.6906 23.1466 48.7976 23.0673 48.877C22.988 48.9563 22.8809 49.0016 22.7688 49.0035Z" fill="#363636" stroke="#363636" stroke-width="0.5"/>
<path d="M51.2301 27.8512C50.8636 27.8512 50.5053 27.7425 50.2005 27.5388C49.8958 27.3352 49.6583 27.0457 49.518 26.7071C49.3778 26.3684 49.3411 25.9958 49.4126 25.6363C49.4841 25.2768 49.6605 24.9465 49.9197 24.6874C50.1789 24.4282 50.5091 24.2517 50.8685 24.1801C51.228 24.1086 51.6006 24.1453 51.9392 24.2856C52.2779 24.4259 52.5673 24.6634 52.7709 24.9682C52.9745 25.273 53.0832 25.6313 53.0832 25.9978C53.082 26.489 52.8864 26.9597 52.5391 27.307C52.1918 27.6543 51.7212 27.8499 51.2301 27.8512ZM51.2301 25.0029C51.0317 25.0029 50.8378 25.0617 50.6728 25.172C50.5078 25.2822 50.3793 25.4389 50.3033 25.6222C50.2274 25.8055 50.2076 26.0072 50.2463 26.2018C50.285 26.3964 50.3805 26.5752 50.5208 26.7155C50.6611 26.8558 50.8398 26.9513 51.0344 26.99C51.229 27.0287 51.4307 27.0089 51.614 26.9329C51.7973 26.857 51.9539 26.7284 52.0641 26.5634C52.1744 26.3985 52.2332 26.2045 52.2332 26.0061C52.2326 25.7402 52.1267 25.4854 51.9387 25.2974C51.7507 25.1094 51.496 25.0035 51.2301 25.0029Z" fill="#363636" stroke="#363636" stroke-width="0.5"/>
<path d="M52.4277 38.4282H47.5735C47.4607 38.4282 47.3526 38.3835 47.2729 38.3038C47.1932 38.224 47.1484 38.1159 47.1484 38.0032C47.1484 37.8904 47.1932 37.7823 47.2729 37.7026C47.3526 37.6229 47.4607 37.5781 47.5735 37.5781H52.4277C52.5404 37.5781 52.6485 37.6229 52.7282 37.7026C52.8079 37.7823 52.8527 37.8904 52.8527 38.0032C52.8527 38.1159 52.8079 38.224 52.7282 38.3038C52.6485 38.3835 52.5404 38.4282 52.4277 38.4282Z" fill="#363636" stroke="#363636" stroke-width="0.5"/>
<path d="M26.4257 38.4282H21.5715C21.4588 38.4282 21.3507 38.3835 21.271 38.3038C21.1913 38.224 21.1465 38.1159 21.1465 38.0032C21.1465 37.8904 21.1913 37.7823 21.271 37.7026C21.3507 37.6229 21.4588 37.5781 21.5715 37.5781H26.4257C26.5384 37.5781 26.6465 37.6229 26.7262 37.7026C26.8059 37.7823 26.8507 37.8904 26.8507 38.0032C26.8507 38.1159 26.8059 38.224 26.7262 38.3038C26.6465 38.3835 26.5384 38.4282 26.4257 38.4282Z" fill="#363636" stroke="#363636" stroke-width="0.5"/>
<path d="M53.8572 39.8571H53.7465C53.2457 39.8426 52.7707 39.6315 52.4242 39.2696C52.0777 38.9076 51.8875 38.4238 51.8947 37.9228C51.902 37.4217 52.1061 36.9437 52.463 36.5919C52.8199 36.2402 53.3008 36.043 53.8018 36.043C54.3029 36.043 54.7838 36.2402 55.1407 36.5919C55.4976 36.9437 55.7017 37.4217 55.7089 37.9228C55.7162 38.4238 55.526 38.9076 55.1795 39.2696C54.833 39.6315 54.358 39.8426 53.8572 39.8571ZM53.849 37.0006C53.6019 37.0085 53.3678 37.1132 53.1972 37.2921C53.0267 37.4711 52.9333 37.7099 52.9372 37.9571C52.9411 38.2043 53.0421 38.44 53.2183 38.6135C53.3945 38.7869 53.6318 38.8841 53.879 38.8841C54.1262 38.8841 54.3634 38.7869 54.5396 38.6135C54.7158 38.44 54.8168 38.2043 54.8207 37.9571C54.8246 37.7099 54.7313 37.4711 54.5607 37.2921C54.3901 37.1132 54.1561 37.0085 53.909 37.0006C53.8913 37.0136 53.8749 37.0006 53.849 37.0006Z" fill="#363636" stroke="#363636" stroke-width="0.5"/>
<path d="M20.1501 39.8571H20.0395C19.5386 39.8426 19.0636 39.6315 18.7171 39.2696C18.3706 38.9076 18.1804 38.4238 18.1877 37.9228C18.195 37.4217 18.3991 36.9437 18.756 36.5919C19.1128 36.2402 19.5937 36.043 20.0948 36.043C20.5959 36.043 21.0768 36.2402 21.4336 36.5919C21.7905 36.9437 21.9946 37.4217 22.0019 37.9228C22.0092 38.4238 21.819 38.9076 21.4725 39.2696C21.126 39.6315 20.651 39.8426 20.1501 39.8571ZM20.1501 37.0006C19.9881 37.001 19.8285 37.0408 19.6853 37.1165C19.542 37.1923 19.4193 37.3018 19.3277 37.4355C19.2362 37.5692 19.1785 37.7232 19.1597 37.8842C19.1409 38.0452 19.1615 38.2083 19.2197 38.3596C19.2779 38.5108 19.3721 38.6456 19.494 38.7524C19.6159 38.8592 19.762 38.9347 19.9196 38.9724C20.0772 39.0102 20.2416 39.0091 20.3987 38.9691C20.5558 38.9292 20.7008 38.8517 20.8212 38.7432C21.0168 38.5653 21.1359 38.3184 21.1532 38.0544C21.1614 37.9229 21.1434 37.7911 21.1004 37.6666C21.0574 37.542 20.9902 37.4272 20.9027 37.3287C20.8151 37.2302 20.709 37.15 20.5903 37.0927C20.4717 37.0354 20.3429 37.0021 20.2114 36.9947C20.1916 37.0012 20.1707 37.0033 20.1501 37.0006Z" fill="#363636" stroke="#363636" stroke-width="0.5"/>
<path d="M36.9992 53.8591C36.9433 53.8595 36.8878 53.8489 36.8361 53.8277C36.7843 53.8065 36.7372 53.7752 36.6977 53.7356C36.6581 53.6961 36.6268 53.649 36.6056 53.5972C36.5844 53.5454 36.5738 53.49 36.5742 53.434V48.5793C36.5742 48.4666 36.619 48.3585 36.6987 48.2788C36.7784 48.1991 36.8865 48.1543 36.9992 48.1543C37.112 48.1543 37.2201 48.1991 37.2998 48.2788C37.3795 48.3585 37.4243 48.4666 37.4243 48.5793V53.434C37.4247 53.49 37.4141 53.5454 37.3929 53.5972C37.3717 53.649 37.3404 53.6961 37.3008 53.7356C37.2613 53.7752 37.2142 53.8065 37.1625 53.8277C37.1107 53.8489 37.0552 53.8595 36.9992 53.8591Z" fill="#363636" stroke="#363636" stroke-width="0.5"/>
<path d="M36.9992 27.8513C36.9433 27.8517 36.8878 27.8411 36.8361 27.8199C36.7843 27.7987 36.7372 27.7674 36.6977 27.7278C36.6581 27.6882 36.6268 27.6412 36.6056 27.5894C36.5844 27.5376 36.5738 27.4821 36.5742 27.4262V22.5715C36.5742 22.4588 36.619 22.3507 36.6987 22.271C36.7784 22.1913 36.8865 22.1465 36.9992 22.1465C37.112 22.1465 37.2201 22.1913 37.2998 22.271C37.3795 22.3507 37.4243 22.4588 37.4243 22.5715V27.4262C37.4247 27.4821 37.4141 27.5376 37.3929 27.5894C37.3717 27.6412 37.3404 27.6882 37.3008 27.7278C37.2613 27.7674 37.2142 27.7987 37.1625 27.8199C37.1107 27.8411 37.0552 27.8517 36.9992 27.8513Z" fill="#363636" stroke="#363636" stroke-width="0.5"/>
<path d="M36.9978 56.7067H36.8871C36.3863 56.6922 35.9113 56.4811 35.5648 56.1192C35.2183 55.7572 35.0281 55.2734 35.0354 54.7724C35.0426 54.2713 35.2467 53.7933 35.6036 53.4415C35.9605 53.0898 36.4414 52.8926 36.9425 52.8926C37.4435 52.8926 37.9244 53.0898 38.2813 53.4415C38.6382 53.7933 38.8423 54.2713 38.8495 54.7724C38.8568 55.2734 38.6666 55.7572 38.3201 56.1192C37.9736 56.4811 37.4986 56.6922 36.9978 56.7067ZM36.0029 54.8028C35.9946 54.9344 36.0125 55.0662 36.0554 55.1909C36.0984 55.3155 36.1656 55.4304 36.2531 55.5289C36.3407 55.6274 36.4469 55.7076 36.5656 55.7649C36.6843 55.8221 36.8132 55.8553 36.9448 55.8625C37.0763 55.8705 37.208 55.8519 37.3321 55.808C37.4563 55.7642 37.5704 55.6958 37.6677 55.607C37.8633 55.429 37.9823 55.1821 37.9997 54.9182C38.007 54.7868 37.9882 54.6552 37.9443 54.5311C37.9004 54.407 37.8325 54.2929 37.7442 54.1952C37.6573 54.0968 37.5516 54.0168 37.4333 53.9598C37.3151 53.9028 37.1866 53.8699 37.0555 53.8632C36.9241 53.856 36.7926 53.8748 36.6685 53.9187C36.5444 53.9625 36.4303 54.0305 36.3326 54.1187C36.2317 54.2025 36.1498 54.3069 36.0923 54.4249C36.0349 54.5428 36.0032 54.6717 35.9994 54.8028H36.0029Z" fill="#363636" stroke="#363636" stroke-width="0.5"/>
<path d="M36.9978 22.9977H36.8871C36.3863 22.9832 35.9113 22.7721 35.5648 22.4102C35.2183 22.0482 35.0281 21.5644 35.0354 21.0634C35.0426 20.5623 35.2467 20.0843 35.6036 19.7325C35.9605 19.3808 36.4414 19.1836 36.9425 19.1836C37.4435 19.1836 37.9244 19.3808 38.2813 19.7325C38.6382 20.0843 38.8423 20.5623 38.8495 21.0634C38.8568 21.5644 38.6666 22.0482 38.3201 22.4102C37.9736 22.7721 37.4986 22.9832 36.9978 22.9977ZM35.9994 21.0962C35.9921 21.2276 36.0108 21.3592 36.0544 21.4834C36.098 21.6076 36.1656 21.722 36.2534 21.8201C36.3412 21.9181 36.4474 21.998 36.5661 22.055C36.6847 22.112 36.8134 22.1451 36.9448 22.1523C37.0762 22.1596 37.2078 22.1409 37.332 22.0973C37.4562 22.0537 37.5706 21.9861 37.6686 21.8983C37.7667 21.8105 37.8465 21.7043 37.9035 21.5856C37.9605 21.467 37.9936 21.3383 38.0009 21.2068C38.0088 21.0754 37.9903 20.9436 37.9464 20.8195C37.9025 20.6953 37.8342 20.5812 37.7454 20.4839C37.5676 20.2897 37.3217 20.1716 37.059 20.1542C36.9275 20.1461 36.7957 20.164 36.6711 20.207C36.5466 20.25 36.4318 20.3173 36.3333 20.4048C36.2348 20.4923 36.1547 20.5985 36.0974 20.7171C36.04 20.8358 36.0067 20.9646 35.9994 21.0962Z" fill="#363636" stroke="#363636" stroke-width="0.5"/>
<path d="M51.2322 51.8532H51.1215C50.6207 51.8387 50.1457 51.6276 49.7992 51.2656C49.4527 50.9037 49.2625 50.4199 49.2697 49.9189C49.277 49.4178 49.4811 48.9397 49.838 48.588C50.1949 48.2362 50.6758 48.0391 51.1768 48.0391C51.6779 48.0391 52.1588 48.2362 52.5157 48.588C52.8726 48.9397 53.0767 49.4178 53.0839 49.9189C53.0912 50.4199 52.901 50.9037 52.5545 51.2656C52.208 51.6276 51.733 51.8387 51.2322 51.8532ZM51.1721 51.0031C51.3697 51.0141 51.5661 50.9663 51.7365 50.8656C51.9068 50.7649 52.0435 50.6159 52.1291 50.4375C52.2147 50.259 52.2454 50.0592 52.2174 49.8633C52.1893 49.6674 52.1038 49.4842 51.9715 49.337C51.8846 49.2386 51.7789 49.1585 51.6606 49.1015C51.5424 49.0445 51.4139 49.0117 51.2828 49.0049C51.1514 48.9977 51.0198 49.0165 50.8958 49.0604C50.7717 49.1042 50.6575 49.1722 50.5599 49.2604C50.4615 49.3474 50.3815 49.4531 50.3245 49.5714C50.2675 49.6897 50.2346 49.8181 50.2279 49.9493C50.2206 50.0807 50.2395 50.2122 50.2833 50.3363C50.3272 50.4604 50.3951 50.5746 50.4834 50.6722C50.6618 50.8677 50.908 50.9863 51.1721 51.0031Z" fill="#363636" stroke="#363636" stroke-width="0.5"/>
<path d="M22.7673 51.8532H22.6567C22.1558 51.8387 21.6808 51.6276 21.3343 51.2656C20.9878 50.9037 20.7976 50.4199 20.8049 49.9189C20.8122 49.4178 21.0163 48.9397 21.3731 48.588C21.73 48.2362 22.2109 48.0391 22.712 48.0391C23.213 48.0391 23.694 48.2362 24.0508 48.588C24.4077 48.9397 24.6118 49.4178 24.6191 49.9189C24.6264 50.4199 24.4362 50.9037 24.0897 51.2656C23.7432 51.6276 23.2682 51.8387 22.7673 51.8532ZM22.7073 51.0031C22.8387 51.0103 22.9703 50.9916 23.0945 50.9481C23.2187 50.9045 23.3331 50.8369 23.4311 50.7491C23.5292 50.6613 23.609 50.555 23.666 50.4364C23.723 50.3177 23.7561 50.189 23.7634 50.0576C23.7706 49.9261 23.7519 49.7946 23.7084 49.6704C23.6648 49.5461 23.5972 49.4317 23.5094 49.3337C23.4216 49.2356 23.3153 49.1558 23.1967 49.0988C23.0781 49.0418 22.9494 49.0087 22.818 49.0014C22.6865 48.9935 22.5548 49.012 22.4306 49.0559C22.3064 49.0997 22.1923 49.1681 22.0951 49.2569C21.8994 49.4349 21.7804 49.6818 21.763 49.9457C21.7501 50.2108 21.8421 50.4704 22.019 50.6682C22.1959 50.8661 22.4436 50.9864 22.7085 51.0031H22.7073Z" fill="#363636" stroke="#363636" stroke-width="0.5"/>
<path d="M22.7683 27.8519H22.6577C22.1673 27.8236 21.7082 27.6017 21.3814 27.2349C21.0546 26.8681 20.8869 26.3865 20.9152 25.8961C20.9434 25.4057 21.1653 24.9465 21.5321 24.6197C21.8988 24.2929 22.3804 24.1252 22.8707 24.1535C23.3604 24.1838 23.8182 24.4064 24.1445 24.7726C24.4708 25.1389 24.6393 25.6193 24.6132 26.1092C24.5853 26.58 24.3789 27.0224 24.0361 27.3462C23.6933 27.67 23.2399 27.8509 22.7683 27.8519ZM22.7083 27.0017C22.8398 27.0098 22.9716 26.9919 23.0961 26.9489C23.2207 26.9059 23.3355 26.8387 23.434 26.7511C23.5324 26.6636 23.6126 26.5574 23.6699 26.4388C23.7272 26.3201 23.7605 26.1913 23.7679 26.0598C23.7758 25.9283 23.7573 25.7966 23.7134 25.6724C23.6695 25.5482 23.6012 25.4341 23.5124 25.3368C23.3344 25.1412 23.0876 25.0221 22.8237 25.0048C22.6922 24.9968 22.5605 25.0153 22.4363 25.0592C22.3121 25.1031 22.198 25.1715 22.1008 25.2603C21.9051 25.4383 21.7861 25.6852 21.7688 25.9491C21.7571 26.2126 21.849 26.4703 22.0247 26.667C22.2005 26.8637 22.4463 26.9838 22.7095 27.0017H22.7083Z" fill="#363636" stroke="#363636" stroke-width="0.5"/>
<path d="M37.0051 41.5824C36.2953 41.5918 35.5988 41.3898 35.004 41.0022C34.4093 40.6146 33.9432 40.0589 33.6651 39.4057C33.3869 38.7526 33.3093 38.0314 33.442 37.334C33.5748 36.6366 33.9119 35.9944 34.4105 35.4891C34.9091 34.9837 35.5468 34.6381 36.2423 34.4961C36.9378 34.3542 37.6599 34.4222 38.3166 34.6917C38.9734 34.9612 39.5351 35.4199 39.9305 36.0095C40.3259 36.5991 40.5371 37.293 40.5372 38.003C40.5428 38.9459 40.174 39.8525 39.5117 40.5236C38.8495 41.1948 37.9479 41.5756 37.0051 41.5824ZM37.0051 35.2736C36.4633 35.2634 35.9306 35.4146 35.4751 35.7082C35.0195 36.0018 34.6617 36.4244 34.4471 36.9221C34.2326 37.4198 34.1711 37.9702 34.2705 38.503C34.3699 39.0358 34.6256 39.527 35.0052 39.9139C35.3847 40.3008 35.8708 40.5659 36.4016 40.6755C36.9323 40.7851 37.4837 40.7341 37.9854 40.5291C38.4871 40.3242 38.9164 39.9745 39.2186 39.5246C39.5209 39.0747 39.6823 38.545 39.6824 38.003C39.6881 37.2864 39.4095 36.5967 38.9076 36.0851C38.4058 35.5735 37.7217 35.2817 37.0051 35.2736Z" fill="#363636" stroke="#363636" stroke-width="0.5"/>
<path d="M38.5301 45.9843H35.4784C35.4225 45.9848 35.367 45.9741 35.3152 45.9529C35.2634 45.9317 35.2164 45.9004 35.1768 45.8608C35.1373 45.8213 35.106 45.7742 35.0848 45.7224C35.0636 45.6707 35.0529 45.6152 35.0534 45.5592V44.2416C34.6803 44.1251 34.3189 43.9742 33.9738 43.7907L33.039 44.7256C32.9599 44.8049 32.8531 44.8505 32.7411 44.8528C32.6853 44.8536 32.63 44.8426 32.5787 44.8207C32.5274 44.7988 32.4812 44.7664 32.4432 44.7256L30.284 42.5661C30.2047 42.487 30.1591 42.3802 30.1568 42.2682C30.156 42.2125 30.1669 42.1571 30.1888 42.1058C30.2107 42.0545 30.2432 42.0084 30.284 41.9704L31.2188 41.0354C31.0389 40.6886 30.888 40.3275 30.7679 39.9557H29.4504C29.3945 39.9562 29.339 39.9455 29.2872 39.9243C29.2354 39.9031 29.1884 39.8718 29.1488 39.8323C29.1093 39.7927 29.078 39.7457 29.0568 39.6939C29.0356 39.6421 29.0249 39.5866 29.0254 39.5307V36.4693C29.0249 36.4133 29.0356 36.3578 29.0568 36.3061C29.078 36.2543 29.1093 36.2072 29.1488 36.1677C29.1884 36.1281 29.2354 36.0968 29.2872 36.0756C29.339 36.0544 29.3945 36.0437 29.4504 36.0442H30.7679C30.8844 35.6711 31.0353 35.3096 31.2188 34.9645L30.284 34.0296C30.2047 33.9505 30.1591 33.8437 30.1568 33.7317C30.156 33.6759 30.1669 33.6206 30.1888 33.5693C30.2107 33.518 30.2432 33.4718 30.284 33.4338L32.4432 31.2744C32.5245 31.1966 32.6327 31.1531 32.7452 31.1531C32.8577 31.1531 32.9659 31.1966 33.0472 31.2744L33.982 32.2092C34.3288 32.0293 34.6899 31.8785 35.0617 31.7583V30.4407C35.0612 30.3848 35.0718 30.3293 35.093 30.2775C35.1142 30.2257 35.1455 30.1787 35.1851 30.1391C35.2247 30.0995 35.2717 30.0682 35.3235 30.047C35.3753 30.0258 35.4307 30.0152 35.4867 30.0157H38.5384C38.5943 30.015 38.6499 30.0256 38.7017 30.0467C38.7536 30.0679 38.8007 30.0991 38.8403 30.1387C38.8799 30.1783 38.9112 30.2254 38.9323 30.2773C38.9534 30.3292 38.964 30.3847 38.9634 30.4407V31.7583C39.3365 31.8748 39.6979 32.0257 40.043 32.2092L40.9778 31.2744C41.0569 31.195 41.1637 31.1495 41.2757 31.1472C41.3315 31.1464 41.3868 31.1573 41.4381 31.1792C41.4894 31.2011 41.5355 31.2335 41.5735 31.2744L43.7328 33.4326C43.7733 33.4718 43.8055 33.5188 43.8274 33.5706C43.8494 33.6225 43.8608 33.6783 43.8608 33.7346C43.8608 33.791 43.8494 33.8467 43.8274 33.8986C43.8055 33.9505 43.7733 33.9975 43.7328 34.0367L42.798 34.9716C42.9779 35.3184 43.1287 35.6795 43.2489 36.0513H44.5675C44.6235 36.0508 44.679 36.0615 44.7307 36.0827C44.7825 36.1039 44.8296 36.1352 44.8691 36.1747C44.9087 36.2143 44.94 36.2613 44.9612 36.3131C44.9823 36.3649 44.993 36.4204 44.9926 36.4763V39.5283C44.993 39.5843 44.9823 39.6397 44.9612 39.6915C44.94 39.7433 44.9087 39.7903 44.8691 39.8299C44.8296 39.8695 44.7825 39.9008 44.7307 39.922C44.679 39.9432 44.6235 39.9538 44.5675 39.9534H43.2489C43.1324 40.3265 42.9815 40.688 42.798 41.0331L43.7328 41.968C43.7733 42.0072 43.8055 42.0541 43.8274 42.106C43.8494 42.1579 43.8608 42.2136 43.8608 42.27C43.8608 42.3263 43.8494 42.3821 43.8274 42.434C43.8055 42.4859 43.7733 42.5328 43.7328 42.572L41.5653 44.715C41.5261 44.7555 41.4792 44.7877 41.4273 44.8097C41.3754 44.8316 41.3197 44.843 41.2633 44.843C41.207 44.843 41.1512 44.8316 41.0993 44.8097C41.0474 44.7877 41.0005 44.7555 40.9613 44.715L40.0265 43.7801C39.6797 43.96 39.3186 44.1109 38.9469 44.2311V45.5486C38.9488 45.6048 38.9394 45.6607 38.9194 45.7132C38.8993 45.7657 38.869 45.8136 38.8302 45.8542C38.7914 45.8948 38.7448 45.9272 38.6933 45.9495C38.6418 45.9719 38.5863 45.9837 38.5301 45.9843ZM35.9035 45.1342H38.1051V43.9179C38.1032 43.8229 38.1343 43.7303 38.1932 43.6557C38.252 43.5812 38.3349 43.5294 38.4277 43.5093C38.9442 43.3753 39.4392 43.1692 39.8982 42.897C39.9798 42.8489 40.0751 42.8294 40.169 42.8418C40.2629 42.8542 40.3499 42.8977 40.4162 42.9653L41.2745 43.8237L42.8298 42.2682L41.9538 41.4016C41.8881 41.3342 41.846 41.2473 41.8337 41.1539C41.8214 41.0606 41.8396 40.9657 41.8855 40.8836C42.1571 40.4243 42.3632 39.9292 42.4978 39.4129C42.5219 39.3222 42.5747 39.2418 42.6484 39.1836C42.722 39.1255 42.8125 39.0927 42.9063 39.0903H44.1225V36.8884H42.9063C42.8114 36.8903 42.7187 36.8592 42.6442 36.8004C42.5697 36.7415 42.5179 36.6586 42.4978 36.5658C42.3638 36.0493 42.1577 35.5542 41.8855 35.0952C41.8355 35.0142 41.815 34.9184 41.8274 34.824C41.8399 34.7296 41.8845 34.6424 41.9538 34.5771L42.8121 33.7187L41.2568 32.1633L40.3985 33.0476C40.3311 33.1133 40.2442 33.1554 40.1509 33.1677C40.0575 33.18 39.9627 33.1619 39.8805 33.1159C39.4213 32.8443 38.9263 32.6382 38.41 32.5036C38.3193 32.4795 38.2389 32.4266 38.1808 32.353C38.1226 32.2793 38.0899 32.1888 38.0874 32.095V30.8787H35.894V32.095C35.8959 32.19 35.8648 32.2826 35.806 32.3571C35.7471 32.4317 35.6642 32.4834 35.5714 32.5036C35.0562 32.6413 34.5616 32.8472 34.1009 33.1159C34.0199 33.1659 33.9241 33.1865 33.8297 33.174C33.7354 33.1616 33.6482 33.1169 33.5829 33.0476L32.7246 32.1892L31.1694 33.7446L32.0276 34.603C32.0933 34.6705 32.1355 34.7574 32.1478 34.8507C32.1601 34.9441 32.1419 35.0389 32.0959 35.1211C31.8243 35.5804 31.6183 36.0754 31.4837 36.5917C31.4596 36.6824 31.4067 36.7629 31.3331 36.821C31.2595 36.8792 31.169 36.9119 31.0752 36.9144H29.859V39.108H31.0752C31.1701 39.1061 31.2627 39.1372 31.3372 39.196C31.4118 39.2549 31.4635 39.3378 31.4837 39.4306C31.6214 39.9459 31.8273 40.4405 32.0959 40.9012C32.146 40.9822 32.1665 41.078 32.154 41.1724C32.1416 41.2668 32.0969 41.354 32.0276 41.4193L31.1694 42.2776L32.7246 43.8331L33.5829 42.9747C33.6504 42.909 33.7372 42.8669 33.8306 42.8546C33.9239 42.8422 34.0188 42.8604 34.1009 42.9064C34.5602 43.178 35.0551 43.3841 35.5714 43.5187C35.6621 43.5428 35.7425 43.5957 35.8007 43.6693C35.8588 43.743 35.8916 43.8335 35.894 43.9273L35.9035 45.1342Z" fill="#363636" stroke="#363636" stroke-width="0.5"/>
</g>
<defs>
<clipPath id="clip0_808_4328">
<rect width="38" height="38" fill="white" transform="translate(18 19)"/>
</clipPath>
</defs>
</svg>
