<svg width="75" height="75" viewBox="0 0 75 75" fill="none" xmlns="http://www.w3.org/2000/svg">
<path d="M37.5 75C58.2107 75 75 58.2107 75 37.5C75 16.7893 58.2107 0 37.5 0C16.7893 0 0 16.7893 0 37.5C0 58.2107 16.7893 75 37.5 75Z" fill="#8AE4F6"/>
<path d="M47.906 26.6806H46.148V22.4606C46.1479 22.0714 46.0556 21.6878 45.8785 21.3412C45.7014 20.9947 45.4447 20.695 45.1293 20.4669C44.814 20.2389 44.449 20.0888 44.0645 20.0291C43.6799 19.9694 43.2866 20.0018 42.917 20.1236L25.69 25.8046C25.1978 25.9663 24.7693 26.2795 24.4657 26.6994C24.1622 27.1193 23.9992 27.6244 24 28.1426V53.5426C24.0019 54.1943 24.2619 54.8188 24.7231 55.2793C25.1843 55.7398 25.8092 55.9988 26.461 55.9996H47.906C48.5585 55.9988 49.184 55.7392 49.6453 55.2779C50.1067 54.8165 50.3662 54.191 50.367 53.5386V29.1406C50.3659 28.4883 50.1063 27.863 49.645 27.4019C49.1836 26.9408 48.5583 26.6814 47.906 26.6806ZM48.258 53.5396C48.258 53.6329 48.2209 53.7225 48.1549 53.7885C48.0889 53.8545 47.9994 53.8916 47.906 53.8916H26.461C26.4148 53.8916 26.369 53.8825 26.3263 53.8648C26.2836 53.8471 26.2448 53.8211 26.2121 53.7885C26.1794 53.7558 26.1535 53.717 26.1358 53.6743C26.1181 53.6316 26.109 53.5858 26.109 53.5396V29.1406C26.109 29.0943 26.1181 29.0486 26.1358 29.0059C26.1535 28.9632 26.1794 28.9243 26.2121 28.8917C26.2448 28.859 26.2836 28.833 26.3263 28.8154C26.369 28.7977 26.4148 28.7886 26.461 28.7886H47.906C47.9994 28.7886 48.0889 28.8256 48.1549 28.8917C48.2209 28.9577 48.258 29.0472 48.258 29.1406V53.5396ZM43.577 22.1266C43.6298 22.1092 43.6861 22.1046 43.741 22.1131C43.796 22.1216 43.8482 22.1431 43.8932 22.1757C43.9383 22.2083 43.975 22.2511 44.0004 22.3006C44.0257 22.3501 44.0389 22.4049 44.039 22.4606V26.6806H29.771L43.577 22.1266Z" fill="#171717" stroke="#8AE4F6" stroke-linecap="round"/>
<path d="M30.2198 41.0656H44.1498C44.4281 41.0571 44.6921 40.9406 44.8859 40.7408C45.0797 40.541 45.1881 40.2735 45.1881 39.9951C45.1881 39.7168 45.0797 39.4493 44.8859 39.2495C44.6921 39.0497 44.4281 38.9332 44.1498 38.9247H43.8498C43.6407 37.4951 42.9846 36.1684 41.9754 35.1344C40.9663 34.1005 39.6559 33.4124 38.2318 33.1687V32.6326C38.2318 32.3555 38.1217 32.0897 37.9258 31.8937C37.7298 31.6977 37.464 31.5876 37.1868 31.5876C36.9097 31.5876 36.6439 31.6977 36.4479 31.8937C36.2519 32.0897 36.1418 32.3555 36.1418 32.6326V33.1687C34.7178 33.4124 33.4073 34.1005 32.3982 35.1344C31.3891 36.1684 30.733 37.4951 30.5238 38.9247H30.2238C29.9456 38.9332 29.6816 39.0497 29.4877 39.2495C29.2939 39.4493 29.1855 39.7168 29.1855 39.9951C29.1855 40.2735 29.2939 40.541 29.4877 40.7408C29.6816 40.9406 29.9456 41.0571 30.2238 41.0656H30.2198ZM37.1848 35.2267C38.2485 35.2373 39.277 35.6093 40.1013 36.2817C40.9256 36.9541 41.4967 37.8868 41.7208 38.9267H32.6498C32.8739 37.887 33.4449 36.9544 34.269 36.282C35.0931 35.6096 36.1213 35.2375 37.1848 35.2267Z" fill="#171717" stroke="#8AE4F6" stroke-linecap="round"/>
<path d="M30.5451 43.8135C30.2612 43.8135 29.9889 43.9263 29.7881 44.127C29.5874 44.3278 29.4746 44.6001 29.4746 44.884C29.4746 45.1679 29.5874 45.4402 29.7881 45.6409C29.9889 45.8417 30.2612 45.9545 30.5451 45.9545H35.6831C35.967 45.9545 36.2393 45.8417 36.4401 45.6409C36.6408 45.4402 36.7536 45.1679 36.7536 44.884C36.7536 44.6001 36.6408 44.3278 36.4401 44.127C36.2393 43.9263 35.967 43.8135 35.6831 43.8135H30.5451Z" fill="#171717" stroke="#8AE4F6" stroke-linecap="round"/>
<path d="M43.8816 48.0286H30.4816C30.2034 48.0371 29.9394 48.1536 29.7456 48.3534C29.5517 48.5532 29.4434 48.8207 29.4434 49.0991C29.4434 49.3774 29.5517 49.6449 29.7456 49.8447C29.9394 50.0446 30.2034 50.1611 30.4816 50.1696H43.8816C44.1599 50.1611 44.4239 50.0446 44.6177 49.8447C44.8115 49.6449 44.9199 49.3774 44.9199 49.0991C44.9199 48.8207 44.8115 48.5532 44.6177 48.3534C44.4239 48.1536 44.1599 48.0371 43.8816 48.0286Z" fill="#171717" stroke="#8AE4F6" stroke-linecap="round"/>
</svg>
